<svg xmlns="http://www.w3.org/2000/svg" fill="none" viewBox="0 0 20 26">
<path fill="currentColor" d="m1.12 20.33-.81-.58.8.58Zm1.3-3.92-1-.02v.02h1Zm.03-2.38 1 .01h-1Zm16.44 6.32.82-.57-.82.57Zm-1.26-3.94-1-.02v.02h1Zm.03-2.26 1 .01h-1ZM1.93 20.91a7.77 7.77 0 0 0 1.5-4.5h-2c0 1.37-.54 2.53-1.12 3.34l1.62 1.16Zm1.5-4.5.02-2.37-2-.02-.02 2.37 2 .03Zm16.28 3.37a6 6 0 0 1-1.08-3.37h-2a8 8 0 0 0 1.43 4.5l1.65-1.13Zm-1.08-3.36.03-2.26-2-.02-.03 2.25 2 .03Zm.03-2.27c0-4.97-3.83-9.1-8.66-9.1v2c3.62 0 6.66 3.13 6.66 7.1h2Zm-.23 8.3c.79 0 1.26-.58 1.44-1.03.18-.45.22-1.1-.16-1.64l-1.65 1.14a.34.34 0 0 1-.06-.18l.01-.07a.3.3 0 0 1 .09-.1.52.52 0 0 1 .33-.12v2ZM3.45 14.03c0-3.9 2.99-6.98 6.55-6.98v-2c-4.77 0-8.55 4.08-8.55 8.98h2Zm-1.88 6.42c.15 0 .27.06.34.12.06.05.08.1.08.1l.01.07c0 .03-.01.1-.07.17L.31 19.75c-.4.54-.36 1.2-.18 1.65.17.45.64 1.05 1.44 1.05v-2Zm16.86 0H1.57v2h16.86v-2Zm-5.83 1c0 1.4-1.15 2.55-2.6 2.55v2c2.53 0 4.6-2.03 4.6-4.55h-2ZM10 24a2.58 2.58 0 0 1-2.6-2.55h-2A4.58 4.58 0 0 0 10 26v-2Zm1.4-20.47c0 .89-.67 1.52-1.4 1.52v2c1.93 0 3.4-1.63 3.4-3.52h-2ZM10 5.05c-.73 0-1.4-.63-1.4-1.52h-2c0 1.9 1.47 3.52 3.4 3.52v-2ZM8.6 3.53C8.6 2.63 9.27 2 10 2V0a3.46 3.46 0 0 0-3.4 3.53h2ZM10 2c.73 0 1.4.63 1.4 1.53h2C13.4 1.63 11.93 0 10 0v2Z"/>
</svg>
