<svg xmlns="http://www.w3.org/2000/svg" fill="none" viewBox="0 0 26 26">
<path stroke="#F8F9FA" stroke-linecap="round" stroke-width="1.5" d="m18.25 22.25-1.5-1.5M13 22.25v1.5m-3.75-3-1.5 1.5m7.75-7.75h-5"/>
<circle cx="13" cy="5.5" r="1" stroke="#F8F9FA" stroke-width="1.5"/>
<path fill="#F8F9FA" fill-rule="evenodd" d="M10.67 5.5a5.2 5.2 0 0 0-2.88 4.28.75.75 0 0 0-.04.24v4.77l-1.03 1.7c-.59.96.07 2.25 1.24 2.25h2.75c.01.07.03.2.08.3a2.36 2.36 0 0 0 1.25 1.28 2.3 2.3 0 0 0 3.13-1.58h2.86c1.18 0 1.84-1.3 1.24-2.26l-1.05-1.7v-4.76a.75.75 0 0 0-.04-.24 5.21 5.21 0 0 0-2.86-4.27l-.5 1.43c1.06.55 1.76 1.7 1.88 3.14l.02.1V15c0 .14.04.28.11.4l1.15 1.84H14.5c-.39 0-.7.29-.75.67l-.01.13v.04a11.53 11.53 0 0 1-.06.4v.02a.86.86 0 0 1-.44.44.8.8 0 0 1-.89-.19l-.54.53.54-.53a.86.86 0 0 1-.17-.25v-.03a3.52 3.52 0 0 1-.05-.39v-.04l-.02-.13a.75.75 0 0 0-.75-.67H8.02l1.12-1.85a.75.75 0 0 0 .11-.39v-4.82l.02-.1c.13-1.46.83-2.6 1.9-3.15l-.5-1.43Z" clip-rule="evenodd"/>
</svg>
