<svg xmlns="http://www.w3.org/2000/svg" fill="none" viewBox="0 0 50 50">
<path stroke="#F8F9FA" stroke-linecap="round" stroke-width="3" d="m35.5 43.5-3-3m-7.5 3v3m-7.5-6-3 3M30 28H20"/>
<circle cx="25" cy="10" r="2" stroke="#F8F9FA" stroke-width="3"/>
<path fill="#F8F9FA" fill-rule="evenodd" d="M20.33 10c-3.28 1.48-5.32 4.81-5.75 8.57-.04.15-.07.3-.07.47v9.54l-2.08 3.4a2.95 2.95 0 0 0 2.5 4.5h5.49c.02.15.07.38.16.6a4.72 4.72 0 0 0 2.5 2.56 4.6 4.6 0 0 0 6.26-3.15h5.73c2.35 0 3.67-2.6 2.47-4.53l-2.1-3.39v-9.53c0-.17-.03-.32-.08-.47-.43-3.74-2.45-7.07-5.71-8.55l-1 2.87c2.11 1.08 3.5 3.37 3.75 6.28l.03.2V29c0 .28.08.56.23.8l2.3 3.69H28c-.76 0-1.4.57-1.5 1.33 0 .06 0 .16-.02.26v.08a22.11 22.11 0 0 1-.11.84 1.72 1.72 0 0 1-.88.87 1.6 1.6 0 0 1-1.78-.36l-1.07 1.05 1.07-1.05a1.72 1.72 0 0 1-.34-.5 6.98 6.98 0 0 1-.1-.84l-.02-.1-.02-.25a1.5 1.5 0 0 0-1.5-1.33h-6.7l2.25-3.7c.14-.24.22-.5.22-.78v-9.65l.03-.2c.25-2.92 1.66-5.22 3.78-6.3L20.33 10Zm6.04 26.04Z" clip-rule="evenodd"/>
</svg>
