<svg xmlns="http://www.w3.org/2000/svg" fill="none" viewBox="0 0 30 30">
<path fill="currentColor" d="m6.12 22.33-.81-.58.8.58Zm1.3-3.92-1-.02v.02h1Zm.03-2.38 1 .01h-1Zm12.15 7.42a1 1 0 0 0-2 0h2Zm-7.2 0a1 1 0 0 0-2 0h2ZM9.84 10.2l.8-.6-.7-.92-.8.82.7.7Zm9.88 13.24v1h2l-1.2-1.6-.8.6Zm3.46-.45a1 1 0 1 0 1.64-1.14L23.18 23Zm-.45-4.52-1-.02v.02h1Zm.03-2.27 1 .02v-.02h-1Zm-9.23-8.97a1 1 0 0 0 .37 1.96l-.37-1.96ZM21.2 27.1a1 1 0 1 0 1.6-1.2l-1.6 1.2ZM8.6 6.9A1 1 0 0 0 7 8.1l1.6-1.2ZM6.93 22.91a7.77 7.77 0 0 0 1.5-4.5h-2c0 1.37-.54 2.53-1.12 3.34l1.62 1.16Zm1.5-4.5.02-2.37-2-.02-.02 2.37 2 .03Zm-1.86 4.04c.15 0 .27.06.34.12.06.05.08.1.08.1l.01.07c0 .03-.01.1-.07.17l-1.62-1.16c-.4.54-.36 1.2-.18 1.65.17.45.64 1.05 1.44 1.05v-2Zm11.03 1c0 1.4-1.15 2.55-2.6 2.55v2c2.53 0 4.6-2.03 4.6-4.55h-2ZM15 26a2.58 2.58 0 0 1-2.6-2.55h-2A4.58 4.58 0 0 0 15 28v-2Zm1.4-20.47c0 .89-.67 1.52-1.4 1.52v2c1.93 0 3.4-1.63 3.4-3.52h-2ZM15 7.05c-.73 0-1.4-.63-1.4-1.52h-2c0 1.9 1.47 3.52 3.4 3.52v-2Zm-1.4-1.52c0-.9.67-1.53 1.4-1.53V2a3.46 3.46 0 0 0-3.4 3.53h2ZM15 4c.73 0 1.4.63 1.4 1.53h2C18.4 3.63 16.93 2 15 2v2ZM8.45 16.03c0-2 .83-3.84 2.1-5.1L9.13 9.5a9.26 9.26 0 0 0-2.68 6.52h2Zm11.27 6.42H6.57v2h13.15v-2ZM9.04 10.8l9.88 13.24 1.6-1.2-9.88-13.23-1.6 1.2Zm15.78 11.05a6 6 0 0 1-1.09-3.38h-2A8 8 0 0 0 23.18 23l1.64-1.14Zm-1.09-3.37.03-2.26-2-.03-.03 2.26 2 .03Zm.03-2.28c0-4.98-3.85-9.12-8.7-9.12v2c3.65 0 6.7 3.14 6.7 7.12h2Zm-9.86-7a5.5 5.5 0 0 1 1.16-.12v-2c-.52 0-1.03.05-1.53.15l.37 1.96Zm8.9 16.7L8.61 6.9l-1.6 1.2 14.19 19 1.6-1.2Z"/>
</svg>
