<svg xmlns="http://www.w3.org/2000/svg" fill="none" viewBox="0 0 30 30">
<path fill="#F8F9FA" d="M30 21.29c0 5.46-3.25 8.71-8.71 8.71H19.5a1.5 1.5 0 0 1-1.5-1.5v-8.66c0-.4.33-.75.73-.75l2.64-.04a.48.48 0 0 0 .44-.37l.53-2.87a.45.45 0 0 0-.45-.53l-3.2.05a.76.76 0 0 1-.77-.73l-.06-3.68c0-.24.2-.45.46-.45l3.6-.06c.25 0 .44-.2.44-.45l-.05-3.6c0-.26-.2-.45-.45-.45l-4.05.06a4.5 4.5 0 0 0-4.43 4.58l.07 4.12a.74.74 0 0 1-.73.77l-1.8.03a.43.43 0 0 0-.45.44l.04 2.86c0 .25.2.45.46.45l1.8-.04c.42 0 .75.34.76.74l.13 8.55a1.5 1.5 0 0 1-1.5 1.53H8.73C3.25 30 0 26.75 0 21.27V8.72C0 3.25 3.26 0 8.72 0h12.57C26.75 0 30 3.26 30 8.72v12.57Z"/>
</svg>
