<svg xmlns="http://www.w3.org/2000/svg" width="30" height="30" fill="none">
<path fill="#F8F9FA" d="M26.79 0H3.2A3.22 3.22 0 0 0 0 3.21V26.8A3.22 3.22 0 0 0 3.21 30H26.8a3.22 3.22 0 0 0 3.2-3.21V3.2A3.22 3.22 0 0 0 26.79 0Zm-8.22 25.7c-.56.1-.77-.25-.77-.54l.01-3.7c0-1.05-.35-1.71-.75-2.06 2.47-.27 5.09-.62 5.09-4.9 0-1.21-.44-1.82-1.15-2.6.11-.3.5-1.48-.11-3.02-.93-.29-3.06 1.2-3.06 1.2a10.43 10.43 0 0 0-5.58 0s-2.12-1.49-3.06-1.2a4.16 4.16 0 0 0-.11 3.01 3.36 3.36 0 0 0-1.04 2.61c0 4.26 2.5 4.63 4.97 4.9-.32.29-.6.78-.7 1.5-.64.28-2.27.78-3.24-.94a2.31 2.31 0 0 0-1.71-1.14c-1.09-.02-.07.68-.07.68.72.33 1.23 1.62 1.23 1.62.65 1.99 3.75 1.32 3.75 1.32l.02 2.72c0 .29-.2.63-.77.53A11.11 11.11 0 0 1 4 15.1C4 8.95 8.7 4.28 14.85 4.28c6.15 0 11.13 4.67 11.13 10.81a11 11 0 0 1-7.41 10.6ZM12 21.6c-.13.03-.25-.02-.26-.11-.01-.1.07-.19.2-.22.13 0 .25.04.26.13.02.09-.07.18-.2.2Zm-.64-.06c0 .09-.1.16-.23.16-.15.02-.25-.06-.25-.16 0-.08.1-.16.24-.16.12-.01.24.06.24.16Zm-.91-.07c-.03.09-.16.13-.28.09-.13-.03-.21-.13-.19-.22.03-.09.17-.13.28-.1.13.04.22.14.19.23Zm-.83-.36c-.06.07-.18.06-.29-.04-.1-.09-.12-.22-.06-.28.06-.07.2-.06.3.04.08.09.11.22.05.28Zm-.6-.61c-.07.04-.18 0-.25-.1-.08-.1-.08-.22 0-.26.07-.06.18-.02.24.08.08.1.08.22 0 .28Zm-.44-.65c-.06.06-.16.02-.24-.04-.07-.09-.08-.19-.02-.24.06-.06.16-.02.23.04.07.1.09.2.03.24Zm-.45-.5c-.03.06-.11.08-.19.03-.09-.04-.13-.11-.1-.17.03-.04.1-.06.19-.03.09.05.13.12.1.17Z"/>
</svg>
