<svg xmlns="http://www.w3.org/2000/svg" xml:space="preserve" style="enable-background:new 0 0 53.8 58.7" viewBox="0 0 53.8 58.7">
<path d="M10.1 8c-3.4.5-5.3 3.5-5.4 3.8-3 4.6-.3 10.8 1.2 14.2 2.6 5.8 5.4 8.4 11.2 15.3 2.7 3.2 6.5 8 10.7 14.1C30.6 51.5 54.2 20 49.9 9.1c-1.2-3-3.4-4.5-3.4-4.5-4.4-3-11.5-.3-15.2 2.3-6.3 4.3-7.7 11.4-8.1 13.1-.4-1.9-1.5-5.9-5.1-8.9-1.5-1.2-4.3-3.8-8-3.1z"/>
<path d="M9.2 4.7c-3.6.8-6.9 3.5-8.2 7-1.8 4.3-.7 9.1.9 13.3 1.3 3.5 3.1 6.8 5.4 9.7 2.7 3.4 5.5 6.6 8.4 9.9C18.9 48.7 22 52.7 25 57c1.5 2.3 4.3 2 5.8 0 6.6-8.8 12.9-18.1 17.9-28.1 2.6-5.3 5.5-11.4 5.3-17.4-.1-3.4-1.8-6.8-4.4-9.1-3.5-3-8.4-3.1-12.7-1.9a23.5 23.5 0 0 0-16.8 18.7h6.5c-.8-3.7-2.6-7.2-5.3-9.7-3-3-6.9-5.4-11.2-4.9-1.7.3-3.4 1.3-3.4 3.4 0 1.6 1.6 3.7 3.4 3.4 5.3-.7 9 5.3 10 9.6.7 3.1 5.9 3.2 6.5 0 .9-5.8 4.3-10.8 10.1-13.1 1.8-.7 3.5-1.2 5.4-1.1.7 0 1.3.1 2 .4.3.1.5.3.8.5-.1-.1-.5-.5 0 0 .8.9 1.6 1.8 2 3 0 .1.1.4.1.7.3.7 0-.8 0 0v2.4c-.1.9.1-.8 0 .1-.1.5-.1 1.1-.3 1.6-.3 1.4-.7 2.6-1.2 3.9-.9 2.7-2 4.9-3.5 7.7-3 5.4-6.2 10.7-9.7 16-2.4 3.7-4.9 7.2-7.5 10.5h5.8c-3.1-4.6-6.5-9.1-10-13.3-2.8-3.5-6.2-6.9-8.8-10.4-2.4-3.4-4.2-7.2-5-11.2-.4-1.9-.3-3.7.8-5.4.1-.4.3-.3 0 0 .3-.3.5-.7.9-.9.7-.5 1.5-.9 2.4-1.1 1.8-.5 2.8-2.6 2.3-4.3s-2.1-2.7-4-2.3z"/>
</svg>
