<svg xmlns="http://www.w3.org/2000/svg" fill="none" viewBox="0 0 70 108">
<rect width="69" height="107" x=".5" y=".5" stroke="currentColor" stroke-dasharray="10 5" rx="4.5"/>
<path stroke="currentColor" stroke-linecap="round" stroke-width="2" d="M32.6 36.2v-5.48c0-.5.43-.91.96-.91h2.88c.53 0 .96.4.96.91v5.48m-2.96-14.23-6.24 4.22a.9.9 0 0 0-.4.74v7.9c0 .76.64 1.37 1.44 1.37h11.52c.8 0 1.44-.61 1.44-1.37v-7.9a.9.9 0 0 0-.4-.74l-6.24-4.22a1 1 0 0 0-1.12 0ZM31 85v-9.13c0-.84.72-1.52 1.6-1.52h4.8c.88 0 1.6.68 1.6 1.52V85m-4.93-23.72-10.4 7.03a1.5 1.5 0 0 0-.67 1.24v13.17A2.34 2.34 0 0 0 25.4 85h19.2c1.33 0 2.4-1.02 2.4-2.28V69.55c0-.49-.25-.95-.67-1.24l-10.4-7.03a1.67 1.67 0 0 0-1.86 0Z"/>
</svg>
