<svg xmlns="http://www.w3.org/2000/svg" fill="none" viewBox="0 0 30 30">
<path fill="#F8F9FA" d="M29.9 8.85c-.01-1.25-.25-2.5-.7-3.68A7.67 7.67 0 0 0 24.83.79a11.1 11.1 0 0 0-3.64-.7C19.58.02 19.07 0 15 0s-4.6 0-6.18.1C7.57.11 6.34.34 5.18.78A7.67 7.67 0 0 0 .79 5.17C.35 6.33.12 7.57.1 8.8c-.08 1.6-.1 2.11-.1 6.17 0 4.06 0 4.58.1 6.17.02 1.25.25 2.48.7 3.64a7.62 7.62 0 0 0 4.38 4.38c1.16.45 2.39.7 3.64.75 1.6.07 2.11.09 6.18.09s4.59 0 6.18-.1a11 11 0 0 0 3.64-.69 7.68 7.68 0 0 0 4.39-4.38c.44-1.16.67-2.4.7-3.64.07-1.6.09-2.1.09-6.17 0-4.06 0-4.57-.1-6.17ZM15 22.65a7.7 7.7 0 1 1-.02-15.38A7.7 7.7 0 0 1 15 22.65Zm8-13.87a1.8 1.8 0 1 1 0-3.58 1.8 1.8 0 0 1 0 3.58Z"/>
<path fill="#F8F9FA" d="M14.99 19.96a5 5 0 1 0 0-10 5 5 0 0 0 0 10Z"/>
</svg>
