<svg xmlns="http://www.w3.org/2000/svg" fill="none" viewBox="0 0 30 30">
<path fill="currentColor" d="M23.34 8.33h-2.49c-.79 0-.88.09-1.78 1.02l-7.95 8.16V4.68a.62.62 0 0 0-.16-.5.6.6 0 0 0-.5-.18h-3.8a.58.58 0 0 0-.49.18.6.6 0 0 0-.16.5v1.71a.62.62 0 0 0 .16.5.6.6 0 0 0 .49.18h1.39v15.84h-1.4a.58.58 0 0 0-.48.17.6.6 0 0 0-.17.5v1.74a.62.62 0 0 0 .17.5.6.6 0 0 0 .49.17h5.83a.58.58 0 0 0 .5-.16.6.6 0 0 0 .17-.5v-1.75a.62.62 0 0 0-.18-.5.6.6 0 0 0-.5-.17h-1.36v-1.28l2.98-3.1 5.28 6.56c.7.9.7.9 1.7.9h2.26a.57.57 0 0 0 .49-.18.6.6 0 0 0 .16-.5v-1.73a.61.61 0 0 0-.16-.5.59.59 0 0 0-.49-.17h-1.86l-5.24-6.55L21 11.43h2.33a.56.56 0 0 0 .48-.16.58.58 0 0 0 .17-.48v-1.8a.6.6 0 0 0-.17-.49.58.58 0 0 0-.48-.17Z"/>
</svg>
