<svg xmlns="http://www.w3.org/2000/svg" fill="none" viewBox="0 0 30 30">
<path stroke="#F8F9FA" stroke-linejoin="round" stroke-width="2" d="M25 20.91v3.92c0 .32-.11.6-.34.83-.22.23-.5.34-.81.34H6.15c-.32 0-.59-.11-.81-.34-.23-.23-.34-.5-.34-.83V20.9c0-.32.11-.6.34-.83.22-.23.5-.34.81-.34h4.28c.51 0 .95.36 1.3.76.12.13.25.25.4.36.4.3.84.44 1.33.44h3.08c.49 0 .93-.14 1.33-.44.15-.1.28-.23.4-.36.35-.4.79-.76 1.3-.76h4.28c.32 0 .59.11.81.34.23.23.34.5.34.83Zm-4.06-10.36c-.14.33-.38.5-.71.5h-3.08v5.47c0 .21-.08.4-.23.55a.73.73 0 0 1-.54.23H13.3a.73.73 0 0 1-.54-.23.76.76 0 0 1-.22-.55v-5.48H9.46c-.34 0-.57-.16-.71-.49a.7.7 0 0 1 .17-.84l5.38-5.48a.7.7 0 0 1 .54-.23c.22 0 .4.08.54.23l5.39 5.48c.25.25.3.53.17.84Z"/>
</svg>
