<svg xmlns="http://www.w3.org/2000/svg" width="70" height="108" fill="none">
<rect width="69" height="107" x=".5" y=".5" stroke="#9747FF" stroke-dasharray="10 5" rx="4.5"/>
<path stroke="#333" stroke-width="2" d="M27.8 35.38c0-2.83 2.37-5.12 7.2-5.12s7.2 2.3 7.2 5.12c0 .45-.33.82-.73.82H28.53c-.4 0-.73-.37-.73-.82Zm9.9-10.88a2.7 2.7 0 1 1-5.4 0 2.7 2.7 0 0 1 5.4 0ZM23 83.64c0-4.72 3.94-8.54 12-8.54s12 3.82 12 8.54c0 .75-.55 1.36-1.22 1.36H24.22c-.67 0-1.22-.6-1.22-1.36ZM39.5 65.5a4.5 4.5 0 1 1-9 0 4.5 4.5 0 0 1 9 0Z"/>
</svg>
