<svg xmlns="http://www.w3.org/2000/svg" fill="none" viewBox="0 0 30 30">
<mask id="a" width="30" height="30" x="0" y="0" maskUnits="userSpaceOnUse" style="mask-type:alpha">
<path fill="#D9D9D9" d="M0 0h30v30H0z"/>
</mask>
<g mask="url(#a)">
<path fill="#F8F9FA" d="M8.75 26.25a2.5 2.5 0 0 1 2.5-2.5h2.5v-3.87a6.71 6.71 0 0 1-2.73-1.3 5.6 5.6 0 0 1-1.77-2.4 6.07 6.07 0 0 1-3.92-2.04A6.01 6.01 0 0 1 3.75 10V8.75c0-.69.24-1.28.73-1.77a2.4 2.4 0 0 1 1.77-.73h2.5v-2.5h12.5v2.5h2.5c.69 0 1.28.24 1.77.73.49.5.73 1.08.73 1.77V10c0 1.58-.53 2.96-1.58 4.14a6.07 6.07 0 0 1-3.92 2.05 5.6 5.6 0 0 1-1.77 2.39 6.71 6.71 0 0 1-2.73 1.3v3.87h2.5a2.5 2.5 0 0 1 2.5 2.5H8.75Zm0-12.75V8.75h-2.5V10a3.75 3.75 0 0 0 2.5 3.5Zm6.25 4a3.6 3.6 0 0 0 2.66-1.1 3.62 3.62 0 0 0 1.09-2.65v-7.5h-7.5v7.5a3.6 3.6 0 0 0 1.1 2.66c.72.73 1.6 1.09 2.65 1.09Zm6.25-4a3.75 3.75 0 0 0 2.5-3.5V8.75h-2.5v4.75Z"/>
</g>
</svg>
