<svg xmlns="http://www.w3.org/2000/svg" fill="none" viewBox="0 0 70 108">
<rect width="69" height="107" x=".5" y=".5" stroke="#9747FF" stroke-dasharray="10 5" rx="4.5"/>
<path stroke="#333" stroke-linecap="round" stroke-linejoin="round" stroke-width="2" d="M41.15 25.78a7.5 7.5 0 0 1 .24 7.24m-2.91-5.89a3.62 3.62 0 0 1 .2 4.5M35 24.08l-3.53 2.86H27.8v4.12h3.67L35 33.92v-9.84Zm10.24 43.56a12.51 12.51 0 0 1 .4 12.07m-4.85-9.82a6.03 6.03 0 0 1 .34 7.5M35 64.79l-5.88 4.77H23v6.88h6.12L35 81.2V64.79Z"/>
</svg>
