<svg xmlns="http://www.w3.org/2000/svg" width="30" height="30" fill="none">
<path fill="#F8F9FA" d="M26.79 0H3.2A3.22 3.22 0 0 0 0 3.21V26.8A3.22 3.22 0 0 0 3.21 30H26.8a3.22 3.22 0 0 0 3.2-3.21V3.2A3.22 3.22 0 0 0 26.79 0ZM23.5 10.63l.01.57c0 5.8-4.42 12.5-12.5 12.5-2.48 0-4.8-.72-6.73-1.97a8.8 8.8 0 0 0 6.5-1.82 4.4 4.4 0 0 1-4.1-3.05c.68.1 1.29.1 1.98-.08a4.4 4.4 0 0 1-3.51-4.31v-.05a4.5 4.5 0 0 0 1.98.55A4.38 4.38 0 0 1 5.78 7.1a12.47 12.47 0 0 0 9.05 4.6 4.4 4.4 0 0 1 7.5-4.02 8.6 8.6 0 0 0 2.78-1.06 4.38 4.38 0 0 1-1.93 2.42c.89-.1 1.74-.34 2.53-.68a9.24 9.24 0 0 1-2.2 2.27Z"/>
</svg>
