<svg width="100" height="40" viewBox="0 0 100 40" fill="none" xmlns="http://www.w3.org/2000/svg">
<mask id="path-1-outside-1_471_3909" maskUnits="userSpaceOnUse" x="1" y="12" width="90" height="27" fill="black">
<rect fill="white" x="1" y="12" width="90" height="27"/>
<path d="M18.1244 37.069C16.9726 37.069 15.7009 36.8506 14.3092 36.4138C12.9415 35.977 11.6458 35.5402 10.4221 35.1034C10.2062 35.0115 9.99021 34.931 9.77426 34.8621C9.55831 34.7701 9.35435 34.6897 9.1624 34.6207H9.09041C8.73049 34.8276 8.35858 35.0345 7.97466 35.2414C7.61474 35.4483 7.23083 35.6322 6.82292 35.7931C6.58297 35.908 6.33103 35.9885 6.06709 36.0345C5.80315 36.0805 5.53921 36.1034 5.27527 36.1034C4.74738 36.1034 4.2315 36.023 3.72761 35.8621C3.46367 35.7701 3.10375 35.5747 2.64785 35.2759C2.21595 34.977 2 34.5632 2 34.0345C2 33.8276 2.05999 33.5747 2.17996 33.2759C2.41991 32.7471 2.79182 32.3793 3.29571 32.1724C3.7996 31.9425 4.35147 31.8276 4.95134 31.8276C5.5752 31.8276 6.23505 31.908 6.93089 32.069C7.65073 32.2299 8.31059 32.4023 8.91045 32.5862H8.98244C9.65428 32.2184 10.4461 31.7356 11.3579 31.1379C12.2937 30.5172 13.2655 29.8391 14.2733 29.1034C15.281 28.3448 16.2288 27.5517 17.1166 26.7241C18.0044 25.8966 18.7482 25.0575 19.3481 24.2069C19.972 23.3563 20.3319 22.5402 20.4279 21.7586C20.4999 21.2759 20.5358 20.8161 20.5358 20.3793C20.5358 18.6092 19.96 17.2644 18.8082 16.3448C17.6805 15.4023 16.0249 14.931 13.8413 14.931C12.7136 14.931 11.6218 15.1724 10.5661 15.6552C9.51032 16.1379 8.64651 16.8161 7.97466 17.6897C7.30281 18.5402 6.96689 19.5402 6.96689 20.6897C6.96689 21.4713 7.11085 22.2069 7.39879 22.8966C7.71072 23.5632 8.16662 24.1149 8.76648 24.5517C9.36635 24.9655 10.0982 25.1724 10.962 25.1724C11.2019 25.1724 11.4179 25.1494 11.6098 25.1034C11.8258 25.0345 12.0417 24.9655 12.2577 24.8966C12.3297 24.8736 12.4017 24.8506 12.4737 24.8276C12.5456 24.8046 12.6176 24.7816 12.6896 24.7586C12.8816 24.7126 13.0135 24.6897 13.0855 24.6897C13.3495 24.6897 13.5774 24.7816 13.7694 24.9655C13.9853 25.1264 14.0933 25.3218 14.0933 25.5517C14.0933 25.8276 13.9373 26.069 13.6254 26.2759C13.2655 26.5287 12.8336 26.7126 12.3297 26.8276C11.8258 26.9195 11.3699 26.9655 10.962 26.9655C9.73827 26.9655 8.6825 26.6667 7.7947 26.069C6.9309 25.4713 6.25905 24.6897 5.77915 23.7241C5.32326 22.7586 5.09531 21.7471 5.09531 20.6897C5.09531 19.5172 5.34725 18.4713 5.85114 17.5517C6.35502 16.6092 7.02687 15.8046 7.86669 15.1379C8.73049 14.4713 9.69028 13.9655 10.746 13.6207C11.8018 13.2529 12.8816 13.069 13.9853 13.069C15.7129 13.069 17.2006 13.3793 18.4483 14C19.72 14.6207 20.7038 15.4828 21.3997 16.5862C22.0955 17.6667 22.4434 18.9425 22.4434 20.4138C22.4434 20.6667 22.4314 20.931 22.4074 21.2069C22.3834 21.4828 22.3474 21.7701 22.2995 22.069C22.0835 23.2184 21.5796 24.3448 20.7878 25.4483C19.996 26.5517 19.0482 27.5977 17.9444 28.5862C16.8407 29.5747 15.7009 30.4713 14.5252 31.2759C13.3495 32.0805 12.2697 32.7816 11.2859 33.3793L11.6458 33.5517C12.1977 33.7816 12.8696 34.023 13.6614 34.2759C14.4532 34.5287 15.245 34.7471 16.0369 34.931C16.8527 35.1149 17.5485 35.2069 18.1244 35.2069C18.7003 35.2069 19.2761 35.1034 19.852 34.8966C20.4279 34.6667 20.7158 34.2529 20.7158 33.6552C20.7158 33.5402 20.5838 33.4023 20.3199 33.2414C19.96 32.9885 19.78 32.6897 19.78 32.3448C19.78 32.1149 19.864 31.9195 20.032 31.7586C20.2239 31.5977 20.4519 31.5172 20.7158 31.5172C21.1957 31.5172 21.6276 31.7241 22.0115 32.1379C22.4194 32.5517 22.6234 32.9885 22.6234 33.4483C22.6234 34.3218 22.3834 35.023 21.9035 35.5517C21.4476 36.1034 20.8718 36.4943 20.1759 36.7241C19.4801 36.954 18.7962 37.069 18.1244 37.069ZM5.02332 34.4138C5.47922 34.4138 5.92312 34.3678 6.35502 34.2759C6.81092 34.1609 7.11085 34.0575 7.25482 33.9655L7.29081 33.8621C7.14685 33.6782 6.81092 33.5287 6.28304 33.4138C5.77915 33.2759 5.28726 33.2069 4.80737 33.2069C4.47145 33.2069 4.18351 33.2529 3.94356 33.3448C3.70362 33.4368 3.58365 33.5747 3.58365 33.7586C3.58365 33.9885 3.72761 34.1609 4.01555 34.2759C4.30348 34.3678 4.63941 34.4138 5.02332 34.4138Z"/>
<path d="M34.9084 36.7241C32.7009 36.7241 30.9013 36.2759 29.5096 35.3793C28.118 34.5057 27.0982 33.3563 26.4503 31.931C25.8025 30.4828 25.4785 28.9195 25.4785 27.2414C25.4785 26.4598 25.5505 25.6667 25.6945 24.8621C25.8385 24.0575 26.0304 23.2644 26.2704 22.4828C26.9422 20.4828 27.974 18.7471 29.3657 17.2759C30.7574 15.7816 32.473 14.6437 34.5125 13.8621C36.0482 13.2874 37.6078 13 39.1915 13C40.2712 13 41.315 13.1379 42.3228 13.4138C43.7625 13.8276 44.9142 14.4943 45.778 15.4138C46.6418 16.3103 47.2657 17.3678 47.6496 18.5862C48.0335 19.7816 48.2255 21.0345 48.2255 22.3448C48.2255 23.4483 48.1055 24.5402 47.8655 25.6207C47.6256 26.6782 47.3017 27.6667 46.8938 28.5862C46.2219 30.1034 45.2861 31.4828 44.0864 32.7241C42.8867 33.9425 41.507 34.908 39.9473 35.6207C38.3877 36.3563 36.708 36.7241 34.9084 36.7241ZM35.0164 34.7931C36.648 34.7931 38.1357 34.4483 39.4794 33.7586C40.8471 33.069 42.0228 32.1609 43.0066 31.0345C44.0144 29.8851 44.7942 28.6207 45.3461 27.2414C45.898 25.8621 46.1859 24.4828 46.2099 23.1034C45.3701 24.3218 44.3983 25.2069 43.2946 25.7586C42.1908 26.3103 41.0991 26.5862 40.0193 26.5862C39.4674 26.5862 38.9155 26.5172 38.3637 26.3793C37.4039 26.1264 36.648 25.7471 36.0962 25.2414C35.5443 24.7356 35.1484 24.1724 34.9084 23.5517C34.6685 22.931 34.5485 22.3448 34.5485 21.7931C34.5485 21.1954 34.6565 20.6782 34.8724 20.2414C35.1124 19.8046 35.3883 19.5862 35.7003 19.5862C35.9162 19.5862 36.1322 19.7011 36.3481 19.931C36.6121 20.1839 36.708 20.4828 36.6361 20.8276C36.5401 21.1724 36.4921 21.5287 36.4921 21.8966C36.4921 22.8621 36.816 23.5747 37.4639 24.0345C38.1357 24.4713 38.9155 24.6897 39.8033 24.6897C40.6671 24.6897 41.531 24.5057 42.3948 24.1379C43.2586 23.7471 43.9784 23.1839 44.5543 22.4483C45.1541 21.7126 45.4541 20.8276 45.4541 19.7931C45.4541 18.6437 45.1421 17.7241 44.5183 17.0345C43.8944 16.3218 43.0906 15.8046 42.1068 15.4828C41.123 15.1609 40.0913 15 39.0115 15C37.6678 15 36.4201 15.2184 35.2684 15.6552C33.5167 16.3218 32.0411 17.2989 30.8413 18.5862C29.6656 19.8736 28.8018 21.3793 28.2499 23.1034C27.77 24.6207 27.5301 26.0805 27.5301 27.4828C27.5301 28.7931 27.77 30.0115 28.2499 31.1379C28.7538 32.2414 29.5576 33.1264 30.6614 33.7931C31.7651 34.4598 33.2168 34.7931 35.0164 34.7931Z"/>
<path d="M65.1178 37.069C63.966 37.069 62.6943 36.8506 61.3026 36.4138C59.9349 35.977 58.6392 35.5402 57.4155 35.1034C57.1995 35.0115 56.9836 34.931 56.7676 34.8621C56.5517 34.7701 56.3477 34.6897 56.1558 34.6207H56.0838C55.7239 34.8276 55.3519 35.0345 54.968 35.2414C54.6081 35.4483 54.2242 35.6322 53.8163 35.7931C53.5763 35.908 53.3244 35.9885 53.0605 36.0345C52.7965 36.0805 52.5326 36.1034 52.2686 36.1034C51.7408 36.1034 51.2249 36.023 50.721 35.8621C50.457 35.7701 50.0971 35.5747 49.6412 35.2759C49.2093 34.977 48.9934 34.5632 48.9934 34.0345C48.9934 33.8276 49.0534 33.5747 49.1733 33.2759C49.4133 32.7471 49.7852 32.3793 50.2891 32.1724C50.793 31.9425 51.3448 31.8276 51.9447 31.8276C52.5686 31.8276 53.2284 31.908 53.9243 32.069C54.6441 32.2299 55.304 32.4023 55.9038 32.5862H55.9758C56.6477 32.2184 57.4395 31.7356 58.3513 31.1379C59.2871 30.5172 60.2588 29.8391 61.2666 29.1034C62.2744 28.3448 63.2222 27.5517 64.11 26.7241C64.9978 25.8966 65.7416 25.0575 66.3415 24.2069C66.9653 23.3563 67.3253 22.5402 67.4212 21.7586C67.4932 21.2759 67.5292 20.8161 67.5292 20.3793C67.5292 18.6092 66.9533 17.2644 65.8016 16.3448C64.6739 15.4023 63.0182 14.931 60.8347 14.931C59.707 14.931 58.6152 15.1724 57.5595 15.6552C56.5037 16.1379 55.6399 16.8161 54.968 17.6897C54.2962 18.5402 53.9603 19.5402 53.9603 20.6897C53.9603 21.4713 54.1042 22.2069 54.3922 22.8966C54.7041 23.5632 55.16 24.1149 55.7599 24.5517C56.3597 24.9655 57.0916 25.1724 57.9554 25.1724C58.1953 25.1724 58.4113 25.1494 58.6032 25.1034C58.8192 25.0345 59.0351 24.9655 59.2511 24.8966C59.3231 24.8736 59.395 24.8506 59.467 24.8276C59.539 24.8046 59.611 24.7816 59.683 24.7586C59.8749 24.7126 60.0069 24.6897 60.0789 24.6897C60.3428 24.6897 60.5708 24.7816 60.7627 24.9655C60.9787 25.1264 61.0867 25.3218 61.0867 25.5517C61.0867 25.8276 60.9307 26.069 60.6188 26.2759C60.2588 26.5287 59.8269 26.7126 59.3231 26.8276C58.8192 26.9195 58.3633 26.9655 57.9554 26.9655C56.7316 26.9655 55.6759 26.6667 54.7881 26.069C53.9243 25.4713 53.2524 24.6897 52.7725 23.7241C52.3166 22.7586 52.0887 21.7471 52.0887 20.6897C52.0887 19.5172 52.3406 18.4713 52.8445 17.5517C53.3484 16.6092 54.0202 15.8046 54.8601 15.1379C55.7239 14.4713 56.6837 13.9655 57.7394 13.6207C58.7952 13.2529 59.8749 13.069 60.9787 13.069C62.7063 13.069 64.194 13.3793 65.4417 14C66.7134 14.6207 67.6972 15.4828 68.393 16.5862C69.0889 17.6667 69.4368 18.9425 69.4368 20.4138C69.4368 20.6667 69.4248 20.931 69.4008 21.2069C69.3768 21.4828 69.3408 21.7701 69.2928 22.069C69.0769 23.2184 68.573 24.3448 67.7812 25.4483C66.9893 26.5517 66.0416 27.5977 64.9378 28.5862C63.834 29.5747 62.6943 30.4713 61.5186 31.2759C60.3428 32.0805 59.2631 32.7816 58.2793 33.3793L58.6392 33.5517C59.1911 33.7816 59.8629 34.023 60.6548 34.2759C61.4466 34.5287 62.2384 34.7471 63.0302 34.931C63.846 35.1149 64.5419 35.2069 65.1178 35.2069C65.6936 35.2069 66.2695 35.1034 66.8454 34.8966C67.4212 34.6667 67.7092 34.2529 67.7092 33.6552C67.7092 33.5402 67.5772 33.4023 67.3133 33.2414C66.9533 32.9885 66.7734 32.6897 66.7734 32.3448C66.7734 32.1149 66.8574 31.9195 67.0253 31.7586C67.2173 31.5977 67.4452 31.5172 67.7092 31.5172C68.1891 31.5172 68.621 31.7241 69.0049 32.1379C69.4128 32.5517 69.6168 32.9885 69.6168 33.4483C69.6168 34.3218 69.3768 35.023 68.8969 35.5517C68.441 36.1034 67.8652 36.4943 67.1693 36.7241C66.4735 36.954 65.7896 37.069 65.1178 37.069ZM52.0167 34.4138C52.4726 34.4138 52.9165 34.3678 53.3484 34.2759C53.8043 34.1609 54.1042 34.0575 54.2482 33.9655L54.2842 33.8621C54.1402 33.6782 53.8043 33.5287 53.2764 33.4138C52.7725 33.2759 52.2806 33.2069 51.8007 33.2069C51.4648 33.2069 51.1769 33.2529 50.9369 33.3448C50.697 33.4368 50.577 33.5747 50.577 33.7586C50.577 33.9885 50.721 34.1609 51.0089 34.2759C51.2969 34.3678 51.6328 34.4138 52.0167 34.4138Z"/>
<path d="M78.7705 38C77.8347 38 76.9109 37.8276 75.9991 37.4828C75.1113 37.1379 74.2955 36.6667 73.5517 36.069C72.8079 35.4713 72.22 34.7931 71.7881 34.0345C71.3562 33.2529 71.1402 32.4368 71.1402 31.5862C71.1402 31.1264 71.2122 30.6552 71.3562 30.1724C71.5241 29.6897 71.7761 29.2069 72.112 28.7241C72.5199 28.1494 73.0358 27.7356 73.6597 27.4828C74.3075 27.2299 74.9674 27.1034 75.6392 27.1034C76.407 27.1034 77.1509 27.2644 77.8707 27.5862C78.5906 27.8851 79.1784 28.3218 79.6343 28.8966C80.0902 29.4483 80.3182 30.1034 80.3182 30.8621C80.3182 31.2529 80.2342 31.5402 80.0662 31.7241C79.9223 31.8851 79.7303 31.9655 79.4904 31.9655C79.2504 31.9655 79.0105 31.8736 78.7705 31.6897C78.5546 31.4828 78.4346 31.2184 78.4106 30.8966C78.3866 30.2988 78.1107 29.8391 77.5828 29.5172C77.0549 29.1724 76.551 29 76.0711 29C75.0633 29 74.3195 29.2529 73.8396 29.7586C73.3597 30.2644 73.1198 30.8621 73.1198 31.5517C73.1198 32.2414 73.3477 32.954 73.8036 33.6897C74.2595 34.4253 74.9194 35.0345 75.7832 35.5172C76.647 36.023 77.7028 36.2759 78.9505 36.2759C80.0062 36.2759 81.062 36.1379 82.1178 35.8621C83.1975 35.6092 84.1813 35.2069 85.0691 34.6552C85.9569 34.0805 86.6647 33.3678 87.1926 32.5172C87.7445 31.6667 88.0204 30.6552 88.0204 29.4828C88.0204 27.092 87.0487 25.4138 85.1051 24.4483H85.0331C84.2893 24.8391 83.4975 25.1149 82.6576 25.2759C81.8178 25.4138 80.978 25.4828 80.1382 25.4828C79.8023 25.4828 79.3824 25.4483 78.8785 25.3793C78.3986 25.2874 77.9667 25.1149 77.5828 24.8621C77.1989 24.6092 77.0069 24.2184 77.0069 23.6897C77.0069 23.2759 77.1749 22.954 77.5108 22.7241C77.8707 22.4713 78.3026 22.2874 78.8065 22.1724C79.3104 22.0575 79.8143 21.977 80.3182 21.931C80.846 21.8851 81.29 21.8621 81.6499 21.8621C82.7296 21.8621 83.7494 22.023 84.7092 22.3448H84.7812C85.477 21.8161 85.9929 21.2874 86.3288 20.7586C86.6647 20.2069 86.8327 19.5747 86.8327 18.8621C86.8327 18.7241 86.8207 18.5862 86.7967 18.4483C86.7967 18.3103 86.7847 18.1609 86.7607 18C86.6168 17.0345 86.1129 16.2874 85.2491 15.7586C84.4093 15.2299 83.4975 14.9655 82.5137 14.9655C81.8418 14.9655 81.11 15.046 80.3182 15.2069C79.5503 15.3448 78.9625 15.6897 78.5546 16.2414C78.3626 16.4943 78.2666 16.7241 78.2666 16.931C78.2666 17.2069 78.4106 17.4023 78.6985 17.5172C78.9865 17.6092 79.2744 17.7011 79.5623 17.7931C80.0422 17.931 80.2822 18.2069 80.2822 18.6207C80.2822 19.3333 79.7303 19.6897 78.6265 19.6897C78.1467 19.6897 77.6908 19.5402 77.2589 19.2414C76.9229 19.0115 76.683 18.7126 76.539 18.3448C76.3951 17.954 76.3231 17.5747 76.3231 17.2069C76.3231 17.092 76.3231 16.9655 76.3231 16.8276C76.3471 16.6897 76.371 16.5632 76.395 16.4483C76.611 15.5057 77.0309 14.8046 77.6548 14.3448C78.3026 13.8621 79.0464 13.5402 79.8863 13.3793C80.7501 13.1954 81.5779 13.1034 82.3697 13.1034C83.3295 13.1034 84.2653 13.3103 85.1771 13.7241C86.1129 14.1379 86.9047 14.7126 87.5525 15.4483C88.2004 16.1609 88.5723 17.0115 88.6683 18C88.6923 18.1609 88.7043 18.3103 88.7043 18.4483C88.7043 18.5862 88.7043 18.7356 88.7043 18.8966C88.7043 20.5517 88.0444 22 86.7247 23.2414V23.3448C87.7805 24.0575 88.5843 24.954 89.1362 26.0345C89.7121 27.1149 90 28.2644 90 29.4828C90 30.6782 89.6761 31.8736 89.0282 33.069C88.4044 34.2414 87.3966 35.2644 86.0049 36.1379C84.9491 36.8046 83.7854 37.2759 82.5137 37.5517C81.266 37.8506 80.0182 38 78.7705 38ZM80.3182 24.4138C80.942 24.4138 81.6139 24.3218 82.3337 24.1379C83.0536 23.931 83.5095 23.7126 83.7014 23.4828L83.6654 23.3793C83.4975 23.2644 83.1375 23.1609 82.5857 23.069C82.0578 22.977 81.5179 22.931 80.966 22.931C80.4381 22.931 79.9583 22.9885 79.5263 23.1034C79.1184 23.2184 78.9145 23.4368 78.9145 23.7586C78.9145 23.9885 79.0464 24.1609 79.3104 24.2759C79.5743 24.3678 79.9103 24.4138 80.3182 24.4138Z"/>
</mask>
<path d="M18.1244 37.069C16.9726 37.069 15.7009 36.8506 14.3092 36.4138C12.9415 35.977 11.6458 35.5402 10.4221 35.1034C10.2062 35.0115 9.99021 34.931 9.77426 34.8621C9.55831 34.7701 9.35435 34.6897 9.1624 34.6207H9.09041C8.73049 34.8276 8.35858 35.0345 7.97466 35.2414C7.61474 35.4483 7.23083 35.6322 6.82292 35.7931C6.58297 35.908 6.33103 35.9885 6.06709 36.0345C5.80315 36.0805 5.53921 36.1034 5.27527 36.1034C4.74738 36.1034 4.2315 36.023 3.72761 35.8621C3.46367 35.7701 3.10375 35.5747 2.64785 35.2759C2.21595 34.977 2 34.5632 2 34.0345C2 33.8276 2.05999 33.5747 2.17996 33.2759C2.41991 32.7471 2.79182 32.3793 3.29571 32.1724C3.7996 31.9425 4.35147 31.8276 4.95134 31.8276C5.5752 31.8276 6.23505 31.908 6.93089 32.069C7.65073 32.2299 8.31059 32.4023 8.91045 32.5862H8.98244C9.65428 32.2184 10.4461 31.7356 11.3579 31.1379C12.2937 30.5172 13.2655 29.8391 14.2733 29.1034C15.281 28.3448 16.2288 27.5517 17.1166 26.7241C18.0044 25.8966 18.7482 25.0575 19.3481 24.2069C19.972 23.3563 20.3319 22.5402 20.4279 21.7586C20.4999 21.2759 20.5358 20.8161 20.5358 20.3793C20.5358 18.6092 19.96 17.2644 18.8082 16.3448C17.6805 15.4023 16.0249 14.931 13.8413 14.931C12.7136 14.931 11.6218 15.1724 10.5661 15.6552C9.51032 16.1379 8.64651 16.8161 7.97466 17.6897C7.30281 18.5402 6.96689 19.5402 6.96689 20.6897C6.96689 21.4713 7.11085 22.2069 7.39879 22.8966C7.71072 23.5632 8.16662 24.1149 8.76648 24.5517C9.36635 24.9655 10.0982 25.1724 10.962 25.1724C11.2019 25.1724 11.4179 25.1494 11.6098 25.1034C11.8258 25.0345 12.0417 24.9655 12.2577 24.8966C12.3297 24.8736 12.4017 24.8506 12.4737 24.8276C12.5456 24.8046 12.6176 24.7816 12.6896 24.7586C12.8816 24.7126 13.0135 24.6897 13.0855 24.6897C13.3495 24.6897 13.5774 24.7816 13.7694 24.9655C13.9853 25.1264 14.0933 25.3218 14.0933 25.5517C14.0933 25.8276 13.9373 26.069 13.6254 26.2759C13.2655 26.5287 12.8336 26.7126 12.3297 26.8276C11.8258 26.9195 11.3699 26.9655 10.962 26.9655C9.73827 26.9655 8.6825 26.6667 7.7947 26.069C6.9309 25.4713 6.25905 24.6897 5.77915 23.7241C5.32326 22.7586 5.09531 21.7471 5.09531 20.6897C5.09531 19.5172 5.34725 18.4713 5.85114 17.5517C6.35502 16.6092 7.02687 15.8046 7.86669 15.1379C8.73049 14.4713 9.69028 13.9655 10.746 13.6207C11.8018 13.2529 12.8816 13.069 13.9853 13.069C15.7129 13.069 17.2006 13.3793 18.4483 14C19.72 14.6207 20.7038 15.4828 21.3997 16.5862C22.0955 17.6667 22.4434 18.9425 22.4434 20.4138C22.4434 20.6667 22.4314 20.931 22.4074 21.2069C22.3834 21.4828 22.3474 21.7701 22.2995 22.069C22.0835 23.2184 21.5796 24.3448 20.7878 25.4483C19.996 26.5517 19.0482 27.5977 17.9444 28.5862C16.8407 29.5747 15.7009 30.4713 14.5252 31.2759C13.3495 32.0805 12.2697 32.7816 11.2859 33.3793L11.6458 33.5517C12.1977 33.7816 12.8696 34.023 13.6614 34.2759C14.4532 34.5287 15.245 34.7471 16.0369 34.931C16.8527 35.1149 17.5485 35.2069 18.1244 35.2069C18.7003 35.2069 19.2761 35.1034 19.852 34.8966C20.4279 34.6667 20.7158 34.2529 20.7158 33.6552C20.7158 33.5402 20.5838 33.4023 20.3199 33.2414C19.96 32.9885 19.78 32.6897 19.78 32.3448C19.78 32.1149 19.864 31.9195 20.032 31.7586C20.2239 31.5977 20.4519 31.5172 20.7158 31.5172C21.1957 31.5172 21.6276 31.7241 22.0115 32.1379C22.4194 32.5517 22.6234 32.9885 22.6234 33.4483C22.6234 34.3218 22.3834 35.023 21.9035 35.5517C21.4476 36.1034 20.8718 36.4943 20.1759 36.7241C19.4801 36.954 18.7962 37.069 18.1244 37.069ZM5.02332 34.4138C5.47922 34.4138 5.92312 34.3678 6.35502 34.2759C6.81092 34.1609 7.11085 34.0575 7.25482 33.9655L7.29081 33.8621C7.14685 33.6782 6.81092 33.5287 6.28304 33.4138C5.77915 33.2759 5.28726 33.2069 4.80737 33.2069C4.47145 33.2069 4.18351 33.2529 3.94356 33.3448C3.70362 33.4368 3.58365 33.5747 3.58365 33.7586C3.58365 33.9885 3.72761 34.1609 4.01555 34.2759C4.30348 34.3678 4.63941 34.4138 5.02332 34.4138Z" fill="white"/>
<path d="M34.9084 36.7241C32.7009 36.7241 30.9013 36.2759 29.5096 35.3793C28.118 34.5057 27.0982 33.3563 26.4503 31.931C25.8025 30.4828 25.4785 28.9195 25.4785 27.2414C25.4785 26.4598 25.5505 25.6667 25.6945 24.8621C25.8385 24.0575 26.0304 23.2644 26.2704 22.4828C26.9422 20.4828 27.974 18.7471 29.3657 17.2759C30.7574 15.7816 32.473 14.6437 34.5125 13.8621C36.0482 13.2874 37.6078 13 39.1915 13C40.2712 13 41.315 13.1379 42.3228 13.4138C43.7625 13.8276 44.9142 14.4943 45.778 15.4138C46.6418 16.3103 47.2657 17.3678 47.6496 18.5862C48.0335 19.7816 48.2255 21.0345 48.2255 22.3448C48.2255 23.4483 48.1055 24.5402 47.8655 25.6207C47.6256 26.6782 47.3017 27.6667 46.8938 28.5862C46.2219 30.1034 45.2861 31.4828 44.0864 32.7241C42.8867 33.9425 41.507 34.908 39.9473 35.6207C38.3877 36.3563 36.708 36.7241 34.9084 36.7241ZM35.0164 34.7931C36.648 34.7931 38.1357 34.4483 39.4794 33.7586C40.8471 33.069 42.0228 32.1609 43.0066 31.0345C44.0144 29.8851 44.7942 28.6207 45.3461 27.2414C45.898 25.8621 46.1859 24.4828 46.2099 23.1034C45.3701 24.3218 44.3983 25.2069 43.2946 25.7586C42.1908 26.3103 41.0991 26.5862 40.0193 26.5862C39.4674 26.5862 38.9155 26.5172 38.3637 26.3793C37.4039 26.1264 36.648 25.7471 36.0962 25.2414C35.5443 24.7356 35.1484 24.1724 34.9084 23.5517C34.6685 22.931 34.5485 22.3448 34.5485 21.7931C34.5485 21.1954 34.6565 20.6782 34.8724 20.2414C35.1124 19.8046 35.3883 19.5862 35.7003 19.5862C35.9162 19.5862 36.1322 19.7011 36.3481 19.931C36.6121 20.1839 36.708 20.4828 36.6361 20.8276C36.5401 21.1724 36.4921 21.5287 36.4921 21.8966C36.4921 22.8621 36.816 23.5747 37.4639 24.0345C38.1357 24.4713 38.9155 24.6897 39.8033 24.6897C40.6671 24.6897 41.531 24.5057 42.3948 24.1379C43.2586 23.7471 43.9784 23.1839 44.5543 22.4483C45.1541 21.7126 45.4541 20.8276 45.4541 19.7931C45.4541 18.6437 45.1421 17.7241 44.5183 17.0345C43.8944 16.3218 43.0906 15.8046 42.1068 15.4828C41.123 15.1609 40.0913 15 39.0115 15C37.6678 15 36.4201 15.2184 35.2684 15.6552C33.5167 16.3218 32.0411 17.2989 30.8413 18.5862C29.6656 19.8736 28.8018 21.3793 28.2499 23.1034C27.77 24.6207 27.5301 26.0805 27.5301 27.4828C27.5301 28.7931 27.77 30.0115 28.2499 31.1379C28.7538 32.2414 29.5576 33.1264 30.6614 33.7931C31.7651 34.4598 33.2168 34.7931 35.0164 34.7931Z" fill="white"/>
<path d="M65.1178 37.069C63.966 37.069 62.6943 36.8506 61.3026 36.4138C59.9349 35.977 58.6392 35.5402 57.4155 35.1034C57.1995 35.0115 56.9836 34.931 56.7676 34.8621C56.5517 34.7701 56.3477 34.6897 56.1558 34.6207H56.0838C55.7239 34.8276 55.3519 35.0345 54.968 35.2414C54.6081 35.4483 54.2242 35.6322 53.8163 35.7931C53.5763 35.908 53.3244 35.9885 53.0605 36.0345C52.7965 36.0805 52.5326 36.1034 52.2686 36.1034C51.7408 36.1034 51.2249 36.023 50.721 35.8621C50.457 35.7701 50.0971 35.5747 49.6412 35.2759C49.2093 34.977 48.9934 34.5632 48.9934 34.0345C48.9934 33.8276 49.0534 33.5747 49.1733 33.2759C49.4133 32.7471 49.7852 32.3793 50.2891 32.1724C50.793 31.9425 51.3448 31.8276 51.9447 31.8276C52.5686 31.8276 53.2284 31.908 53.9243 32.069C54.6441 32.2299 55.304 32.4023 55.9038 32.5862H55.9758C56.6477 32.2184 57.4395 31.7356 58.3513 31.1379C59.2871 30.5172 60.2588 29.8391 61.2666 29.1034C62.2744 28.3448 63.2222 27.5517 64.11 26.7241C64.9978 25.8966 65.7416 25.0575 66.3415 24.2069C66.9653 23.3563 67.3253 22.5402 67.4212 21.7586C67.4932 21.2759 67.5292 20.8161 67.5292 20.3793C67.5292 18.6092 66.9533 17.2644 65.8016 16.3448C64.6739 15.4023 63.0182 14.931 60.8347 14.931C59.707 14.931 58.6152 15.1724 57.5595 15.6552C56.5037 16.1379 55.6399 16.8161 54.968 17.6897C54.2962 18.5402 53.9603 19.5402 53.9603 20.6897C53.9603 21.4713 54.1042 22.2069 54.3922 22.8966C54.7041 23.5632 55.16 24.1149 55.7599 24.5517C56.3597 24.9655 57.0916 25.1724 57.9554 25.1724C58.1953 25.1724 58.4113 25.1494 58.6032 25.1034C58.8192 25.0345 59.0351 24.9655 59.2511 24.8966C59.3231 24.8736 59.395 24.8506 59.467 24.8276C59.539 24.8046 59.611 24.7816 59.683 24.7586C59.8749 24.7126 60.0069 24.6897 60.0789 24.6897C60.3428 24.6897 60.5708 24.7816 60.7627 24.9655C60.9787 25.1264 61.0867 25.3218 61.0867 25.5517C61.0867 25.8276 60.9307 26.069 60.6188 26.2759C60.2588 26.5287 59.8269 26.7126 59.3231 26.8276C58.8192 26.9195 58.3633 26.9655 57.9554 26.9655C56.7316 26.9655 55.6759 26.6667 54.7881 26.069C53.9243 25.4713 53.2524 24.6897 52.7725 23.7241C52.3166 22.7586 52.0887 21.7471 52.0887 20.6897C52.0887 19.5172 52.3406 18.4713 52.8445 17.5517C53.3484 16.6092 54.0202 15.8046 54.8601 15.1379C55.7239 14.4713 56.6837 13.9655 57.7394 13.6207C58.7952 13.2529 59.8749 13.069 60.9787 13.069C62.7063 13.069 64.194 13.3793 65.4417 14C66.7134 14.6207 67.6972 15.4828 68.393 16.5862C69.0889 17.6667 69.4368 18.9425 69.4368 20.4138C69.4368 20.6667 69.4248 20.931 69.4008 21.2069C69.3768 21.4828 69.3408 21.7701 69.2928 22.069C69.0769 23.2184 68.573 24.3448 67.7812 25.4483C66.9893 26.5517 66.0416 27.5977 64.9378 28.5862C63.834 29.5747 62.6943 30.4713 61.5186 31.2759C60.3428 32.0805 59.2631 32.7816 58.2793 33.3793L58.6392 33.5517C59.1911 33.7816 59.8629 34.023 60.6548 34.2759C61.4466 34.5287 62.2384 34.7471 63.0302 34.931C63.846 35.1149 64.5419 35.2069 65.1178 35.2069C65.6936 35.2069 66.2695 35.1034 66.8454 34.8966C67.4212 34.6667 67.7092 34.2529 67.7092 33.6552C67.7092 33.5402 67.5772 33.4023 67.3133 33.2414C66.9533 32.9885 66.7734 32.6897 66.7734 32.3448C66.7734 32.1149 66.8574 31.9195 67.0253 31.7586C67.2173 31.5977 67.4452 31.5172 67.7092 31.5172C68.1891 31.5172 68.621 31.7241 69.0049 32.1379C69.4128 32.5517 69.6168 32.9885 69.6168 33.4483C69.6168 34.3218 69.3768 35.023 68.8969 35.5517C68.441 36.1034 67.8652 36.4943 67.1693 36.7241C66.4735 36.954 65.7896 37.069 65.1178 37.069ZM52.0167 34.4138C52.4726 34.4138 52.9165 34.3678 53.3484 34.2759C53.8043 34.1609 54.1042 34.0575 54.2482 33.9655L54.2842 33.8621C54.1402 33.6782 53.8043 33.5287 53.2764 33.4138C52.7725 33.2759 52.2806 33.2069 51.8007 33.2069C51.4648 33.2069 51.1769 33.2529 50.9369 33.3448C50.697 33.4368 50.577 33.5747 50.577 33.7586C50.577 33.9885 50.721 34.1609 51.0089 34.2759C51.2969 34.3678 51.6328 34.4138 52.0167 34.4138Z" fill="white"/>
<path d="M78.7705 38C77.8347 38 76.9109 37.8276 75.9991 37.4828C75.1113 37.1379 74.2955 36.6667 73.5517 36.069C72.8079 35.4713 72.22 34.7931 71.7881 34.0345C71.3562 33.2529 71.1402 32.4368 71.1402 31.5862C71.1402 31.1264 71.2122 30.6552 71.3562 30.1724C71.5241 29.6897 71.7761 29.2069 72.112 28.7241C72.5199 28.1494 73.0358 27.7356 73.6597 27.4828C74.3075 27.2299 74.9674 27.1034 75.6392 27.1034C76.407 27.1034 77.1509 27.2644 77.8707 27.5862C78.5906 27.8851 79.1784 28.3218 79.6343 28.8966C80.0902 29.4483 80.3182 30.1034 80.3182 30.8621C80.3182 31.2529 80.2342 31.5402 80.0662 31.7241C79.9223 31.8851 79.7303 31.9655 79.4904 31.9655C79.2504 31.9655 79.0105 31.8736 78.7705 31.6897C78.5546 31.4828 78.4346 31.2184 78.4106 30.8966C78.3866 30.2988 78.1107 29.8391 77.5828 29.5172C77.0549 29.1724 76.551 29 76.0711 29C75.0633 29 74.3195 29.2529 73.8396 29.7586C73.3597 30.2644 73.1198 30.8621 73.1198 31.5517C73.1198 32.2414 73.3477 32.954 73.8036 33.6897C74.2595 34.4253 74.9194 35.0345 75.7832 35.5172C76.647 36.023 77.7028 36.2759 78.9505 36.2759C80.0062 36.2759 81.062 36.1379 82.1178 35.8621C83.1975 35.6092 84.1813 35.2069 85.0691 34.6552C85.9569 34.0805 86.6647 33.3678 87.1926 32.5172C87.7445 31.6667 88.0204 30.6552 88.0204 29.4828C88.0204 27.092 87.0487 25.4138 85.1051 24.4483H85.0331C84.2893 24.8391 83.4975 25.1149 82.6576 25.2759C81.8178 25.4138 80.978 25.4828 80.1382 25.4828C79.8023 25.4828 79.3824 25.4483 78.8785 25.3793C78.3986 25.2874 77.9667 25.1149 77.5828 24.8621C77.1989 24.6092 77.0069 24.2184 77.0069 23.6897C77.0069 23.2759 77.1749 22.954 77.5108 22.7241C77.8707 22.4713 78.3026 22.2874 78.8065 22.1724C79.3104 22.0575 79.8143 21.977 80.3182 21.931C80.846 21.8851 81.29 21.8621 81.6499 21.8621C82.7296 21.8621 83.7494 22.023 84.7092 22.3448H84.7812C85.477 21.8161 85.9929 21.2874 86.3288 20.7586C86.6647 20.2069 86.8327 19.5747 86.8327 18.8621C86.8327 18.7241 86.8207 18.5862 86.7967 18.4483C86.7967 18.3103 86.7847 18.1609 86.7607 18C86.6168 17.0345 86.1129 16.2874 85.2491 15.7586C84.4093 15.2299 83.4975 14.9655 82.5137 14.9655C81.8418 14.9655 81.11 15.046 80.3182 15.2069C79.5503 15.3448 78.9625 15.6897 78.5546 16.2414C78.3626 16.4943 78.2666 16.7241 78.2666 16.931C78.2666 17.2069 78.4106 17.4023 78.6985 17.5172C78.9865 17.6092 79.2744 17.7011 79.5623 17.7931C80.0422 17.931 80.2822 18.2069 80.2822 18.6207C80.2822 19.3333 79.7303 19.6897 78.6265 19.6897C78.1467 19.6897 77.6908 19.5402 77.2589 19.2414C76.9229 19.0115 76.683 18.7126 76.539 18.3448C76.3951 17.954 76.3231 17.5747 76.3231 17.2069C76.3231 17.092 76.3231 16.9655 76.3231 16.8276C76.3471 16.6897 76.371 16.5632 76.395 16.4483C76.611 15.5057 77.0309 14.8046 77.6548 14.3448C78.3026 13.8621 79.0464 13.5402 79.8863 13.3793C80.7501 13.1954 81.5779 13.1034 82.3697 13.1034C83.3295 13.1034 84.2653 13.3103 85.1771 13.7241C86.1129 14.1379 86.9047 14.7126 87.5525 15.4483C88.2004 16.1609 88.5723 17.0115 88.6683 18C88.6923 18.1609 88.7043 18.3103 88.7043 18.4483C88.7043 18.5862 88.7043 18.7356 88.7043 18.8966C88.7043 20.5517 88.0444 22 86.7247 23.2414V23.3448C87.7805 24.0575 88.5843 24.954 89.1362 26.0345C89.7121 27.1149 90 28.2644 90 29.4828C90 30.6782 89.6761 31.8736 89.0282 33.069C88.4044 34.2414 87.3966 35.2644 86.0049 36.1379C84.9491 36.8046 83.7854 37.2759 82.5137 37.5517C81.266 37.8506 80.0182 38 78.7705 38ZM80.3182 24.4138C80.942 24.4138 81.6139 24.3218 82.3337 24.1379C83.0536 23.931 83.5095 23.7126 83.7014 23.4828L83.6654 23.3793C83.4975 23.2644 83.1375 23.1609 82.5857 23.069C82.0578 22.977 81.5179 22.931 80.966 22.931C80.4381 22.931 79.9583 22.9885 79.5263 23.1034C79.1184 23.2184 78.9145 23.4368 78.9145 23.7586C78.9145 23.9885 79.0464 24.1609 79.3104 24.2759C79.5743 24.3678 79.9103 24.4138 80.3182 24.4138Z" fill="white"/>
<path d="M18.1244 37.069C16.9726 37.069 15.7009 36.8506 14.3092 36.4138C12.9415 35.977 11.6458 35.5402 10.4221 35.1034C10.2062 35.0115 9.99021 34.931 9.77426 34.8621C9.55831 34.7701 9.35435 34.6897 9.1624 34.6207H9.09041C8.73049 34.8276 8.35858 35.0345 7.97466 35.2414C7.61474 35.4483 7.23083 35.6322 6.82292 35.7931C6.58297 35.908 6.33103 35.9885 6.06709 36.0345C5.80315 36.0805 5.53921 36.1034 5.27527 36.1034C4.74738 36.1034 4.2315 36.023 3.72761 35.8621C3.46367 35.7701 3.10375 35.5747 2.64785 35.2759C2.21595 34.977 2 34.5632 2 34.0345C2 33.8276 2.05999 33.5747 2.17996 33.2759C2.41991 32.7471 2.79182 32.3793 3.29571 32.1724C3.7996 31.9425 4.35147 31.8276 4.95134 31.8276C5.5752 31.8276 6.23505 31.908 6.93089 32.069C7.65073 32.2299 8.31059 32.4023 8.91045 32.5862H8.98244C9.65428 32.2184 10.4461 31.7356 11.3579 31.1379C12.2937 30.5172 13.2655 29.8391 14.2733 29.1034C15.281 28.3448 16.2288 27.5517 17.1166 26.7241C18.0044 25.8966 18.7482 25.0575 19.3481 24.2069C19.972 23.3563 20.3319 22.5402 20.4279 21.7586C20.4999 21.2759 20.5358 20.8161 20.5358 20.3793C20.5358 18.6092 19.96 17.2644 18.8082 16.3448C17.6805 15.4023 16.0249 14.931 13.8413 14.931C12.7136 14.931 11.6218 15.1724 10.5661 15.6552C9.51032 16.1379 8.64651 16.8161 7.97466 17.6897C7.30281 18.5402 6.96689 19.5402 6.96689 20.6897C6.96689 21.4713 7.11085 22.2069 7.39879 22.8966C7.71072 23.5632 8.16662 24.1149 8.76648 24.5517C9.36635 24.9655 10.0982 25.1724 10.962 25.1724C11.2019 25.1724 11.4179 25.1494 11.6098 25.1034C11.8258 25.0345 12.0417 24.9655 12.2577 24.8966C12.3297 24.8736 12.4017 24.8506 12.4737 24.8276C12.5456 24.8046 12.6176 24.7816 12.6896 24.7586C12.8816 24.7126 13.0135 24.6897 13.0855 24.6897C13.3495 24.6897 13.5774 24.7816 13.7694 24.9655C13.9853 25.1264 14.0933 25.3218 14.0933 25.5517C14.0933 25.8276 13.9373 26.069 13.6254 26.2759C13.2655 26.5287 12.8336 26.7126 12.3297 26.8276C11.8258 26.9195 11.3699 26.9655 10.962 26.9655C9.73827 26.9655 8.6825 26.6667 7.7947 26.069C6.9309 25.4713 6.25905 24.6897 5.77915 23.7241C5.32326 22.7586 5.09531 21.7471 5.09531 20.6897C5.09531 19.5172 5.34725 18.4713 5.85114 17.5517C6.35502 16.6092 7.02687 15.8046 7.86669 15.1379C8.73049 14.4713 9.69028 13.9655 10.746 13.6207C11.8018 13.2529 12.8816 13.069 13.9853 13.069C15.7129 13.069 17.2006 13.3793 18.4483 14C19.72 14.6207 20.7038 15.4828 21.3997 16.5862C22.0955 17.6667 22.4434 18.9425 22.4434 20.4138C22.4434 20.6667 22.4314 20.931 22.4074 21.2069C22.3834 21.4828 22.3474 21.7701 22.2995 22.069C22.0835 23.2184 21.5796 24.3448 20.7878 25.4483C19.996 26.5517 19.0482 27.5977 17.9444 28.5862C16.8407 29.5747 15.7009 30.4713 14.5252 31.2759C13.3495 32.0805 12.2697 32.7816 11.2859 33.3793L11.6458 33.5517C12.1977 33.7816 12.8696 34.023 13.6614 34.2759C14.4532 34.5287 15.245 34.7471 16.0369 34.931C16.8527 35.1149 17.5485 35.2069 18.1244 35.2069C18.7003 35.2069 19.2761 35.1034 19.852 34.8966C20.4279 34.6667 20.7158 34.2529 20.7158 33.6552C20.7158 33.5402 20.5838 33.4023 20.3199 33.2414C19.96 32.9885 19.78 32.6897 19.78 32.3448C19.78 32.1149 19.864 31.9195 20.032 31.7586C20.2239 31.5977 20.4519 31.5172 20.7158 31.5172C21.1957 31.5172 21.6276 31.7241 22.0115 32.1379C22.4194 32.5517 22.6234 32.9885 22.6234 33.4483C22.6234 34.3218 22.3834 35.023 21.9035 35.5517C21.4476 36.1034 20.8718 36.4943 20.1759 36.7241C19.4801 36.954 18.7962 37.069 18.1244 37.069ZM5.02332 34.4138C5.47922 34.4138 5.92312 34.3678 6.35502 34.2759C6.81092 34.1609 7.11085 34.0575 7.25482 33.9655L7.29081 33.8621C7.14685 33.6782 6.81092 33.5287 6.28304 33.4138C5.77915 33.2759 5.28726 33.2069 4.80737 33.2069C4.47145 33.2069 4.18351 33.2529 3.94356 33.3448C3.70362 33.4368 3.58365 33.5747 3.58365 33.7586C3.58365 33.9885 3.72761 34.1609 4.01555 34.2759C4.30348 34.3678 4.63941 34.4138 5.02332 34.4138Z" stroke="#F8F9FA" stroke-width="2" mask="url(#path-1-outside-1_471_3909)"/>
<path d="M34.9084 36.7241C32.7009 36.7241 30.9013 36.2759 29.5096 35.3793C28.118 34.5057 27.0982 33.3563 26.4503 31.931C25.8025 30.4828 25.4785 28.9195 25.4785 27.2414C25.4785 26.4598 25.5505 25.6667 25.6945 24.8621C25.8385 24.0575 26.0304 23.2644 26.2704 22.4828C26.9422 20.4828 27.974 18.7471 29.3657 17.2759C30.7574 15.7816 32.473 14.6437 34.5125 13.8621C36.0482 13.2874 37.6078 13 39.1915 13C40.2712 13 41.315 13.1379 42.3228 13.4138C43.7625 13.8276 44.9142 14.4943 45.778 15.4138C46.6418 16.3103 47.2657 17.3678 47.6496 18.5862C48.0335 19.7816 48.2255 21.0345 48.2255 22.3448C48.2255 23.4483 48.1055 24.5402 47.8655 25.6207C47.6256 26.6782 47.3017 27.6667 46.8938 28.5862C46.2219 30.1034 45.2861 31.4828 44.0864 32.7241C42.8867 33.9425 41.507 34.908 39.9473 35.6207C38.3877 36.3563 36.708 36.7241 34.9084 36.7241ZM35.0164 34.7931C36.648 34.7931 38.1357 34.4483 39.4794 33.7586C40.8471 33.069 42.0228 32.1609 43.0066 31.0345C44.0144 29.8851 44.7942 28.6207 45.3461 27.2414C45.898 25.8621 46.1859 24.4828 46.2099 23.1034C45.3701 24.3218 44.3983 25.2069 43.2946 25.7586C42.1908 26.3103 41.0991 26.5862 40.0193 26.5862C39.4674 26.5862 38.9155 26.5172 38.3637 26.3793C37.4039 26.1264 36.648 25.7471 36.0962 25.2414C35.5443 24.7356 35.1484 24.1724 34.9084 23.5517C34.6685 22.931 34.5485 22.3448 34.5485 21.7931C34.5485 21.1954 34.6565 20.6782 34.8724 20.2414C35.1124 19.8046 35.3883 19.5862 35.7003 19.5862C35.9162 19.5862 36.1322 19.7011 36.3481 19.931C36.6121 20.1839 36.708 20.4828 36.6361 20.8276C36.5401 21.1724 36.4921 21.5287 36.4921 21.8966C36.4921 22.8621 36.816 23.5747 37.4639 24.0345C38.1357 24.4713 38.9155 24.6897 39.8033 24.6897C40.6671 24.6897 41.531 24.5057 42.3948 24.1379C43.2586 23.7471 43.9784 23.1839 44.5543 22.4483C45.1541 21.7126 45.4541 20.8276 45.4541 19.7931C45.4541 18.6437 45.1421 17.7241 44.5183 17.0345C43.8944 16.3218 43.0906 15.8046 42.1068 15.4828C41.123 15.1609 40.0913 15 39.0115 15C37.6678 15 36.4201 15.2184 35.2684 15.6552C33.5167 16.3218 32.0411 17.2989 30.8413 18.5862C29.6656 19.8736 28.8018 21.3793 28.2499 23.1034C27.77 24.6207 27.5301 26.0805 27.5301 27.4828C27.5301 28.7931 27.77 30.0115 28.2499 31.1379C28.7538 32.2414 29.5576 33.1264 30.6614 33.7931C31.7651 34.4598 33.2168 34.7931 35.0164 34.7931Z" stroke="#F8F9FA" stroke-width="2" mask="url(#path-1-outside-1_471_3909)"/>
<path d="M65.1178 37.069C63.966 37.069 62.6943 36.8506 61.3026 36.4138C59.9349 35.977 58.6392 35.5402 57.4155 35.1034C57.1995 35.0115 56.9836 34.931 56.7676 34.8621C56.5517 34.7701 56.3477 34.6897 56.1558 34.6207H56.0838C55.7239 34.8276 55.3519 35.0345 54.968 35.2414C54.6081 35.4483 54.2242 35.6322 53.8163 35.7931C53.5763 35.908 53.3244 35.9885 53.0605 36.0345C52.7965 36.0805 52.5326 36.1034 52.2686 36.1034C51.7408 36.1034 51.2249 36.023 50.721 35.8621C50.457 35.7701 50.0971 35.5747 49.6412 35.2759C49.2093 34.977 48.9934 34.5632 48.9934 34.0345C48.9934 33.8276 49.0534 33.5747 49.1733 33.2759C49.4133 32.7471 49.7852 32.3793 50.2891 32.1724C50.793 31.9425 51.3448 31.8276 51.9447 31.8276C52.5686 31.8276 53.2284 31.908 53.9243 32.069C54.6441 32.2299 55.304 32.4023 55.9038 32.5862H55.9758C56.6477 32.2184 57.4395 31.7356 58.3513 31.1379C59.2871 30.5172 60.2588 29.8391 61.2666 29.1034C62.2744 28.3448 63.2222 27.5517 64.11 26.7241C64.9978 25.8966 65.7416 25.0575 66.3415 24.2069C66.9653 23.3563 67.3253 22.5402 67.4212 21.7586C67.4932 21.2759 67.5292 20.8161 67.5292 20.3793C67.5292 18.6092 66.9533 17.2644 65.8016 16.3448C64.6739 15.4023 63.0182 14.931 60.8347 14.931C59.707 14.931 58.6152 15.1724 57.5595 15.6552C56.5037 16.1379 55.6399 16.8161 54.968 17.6897C54.2962 18.5402 53.9603 19.5402 53.9603 20.6897C53.9603 21.4713 54.1042 22.2069 54.3922 22.8966C54.7041 23.5632 55.16 24.1149 55.7599 24.5517C56.3597 24.9655 57.0916 25.1724 57.9554 25.1724C58.1953 25.1724 58.4113 25.1494 58.6032 25.1034C58.8192 25.0345 59.0351 24.9655 59.2511 24.8966C59.3231 24.8736 59.395 24.8506 59.467 24.8276C59.539 24.8046 59.611 24.7816 59.683 24.7586C59.8749 24.7126 60.0069 24.6897 60.0789 24.6897C60.3428 24.6897 60.5708 24.7816 60.7627 24.9655C60.9787 25.1264 61.0867 25.3218 61.0867 25.5517C61.0867 25.8276 60.9307 26.069 60.6188 26.2759C60.2588 26.5287 59.8269 26.7126 59.3231 26.8276C58.8192 26.9195 58.3633 26.9655 57.9554 26.9655C56.7316 26.9655 55.6759 26.6667 54.7881 26.069C53.9243 25.4713 53.2524 24.6897 52.7725 23.7241C52.3166 22.7586 52.0887 21.7471 52.0887 20.6897C52.0887 19.5172 52.3406 18.4713 52.8445 17.5517C53.3484 16.6092 54.0202 15.8046 54.8601 15.1379C55.7239 14.4713 56.6837 13.9655 57.7394 13.6207C58.7952 13.2529 59.8749 13.069 60.9787 13.069C62.7063 13.069 64.194 13.3793 65.4417 14C66.7134 14.6207 67.6972 15.4828 68.393 16.5862C69.0889 17.6667 69.4368 18.9425 69.4368 20.4138C69.4368 20.6667 69.4248 20.931 69.4008 21.2069C69.3768 21.4828 69.3408 21.7701 69.2928 22.069C69.0769 23.2184 68.573 24.3448 67.7812 25.4483C66.9893 26.5517 66.0416 27.5977 64.9378 28.5862C63.834 29.5747 62.6943 30.4713 61.5186 31.2759C60.3428 32.0805 59.2631 32.7816 58.2793 33.3793L58.6392 33.5517C59.1911 33.7816 59.8629 34.023 60.6548 34.2759C61.4466 34.5287 62.2384 34.7471 63.0302 34.931C63.846 35.1149 64.5419 35.2069 65.1178 35.2069C65.6936 35.2069 66.2695 35.1034 66.8454 34.8966C67.4212 34.6667 67.7092 34.2529 67.7092 33.6552C67.7092 33.5402 67.5772 33.4023 67.3133 33.2414C66.9533 32.9885 66.7734 32.6897 66.7734 32.3448C66.7734 32.1149 66.8574 31.9195 67.0253 31.7586C67.2173 31.5977 67.4452 31.5172 67.7092 31.5172C68.1891 31.5172 68.621 31.7241 69.0049 32.1379C69.4128 32.5517 69.6168 32.9885 69.6168 33.4483C69.6168 34.3218 69.3768 35.023 68.8969 35.5517C68.441 36.1034 67.8652 36.4943 67.1693 36.7241C66.4735 36.954 65.7896 37.069 65.1178 37.069ZM52.0167 34.4138C52.4726 34.4138 52.9165 34.3678 53.3484 34.2759C53.8043 34.1609 54.1042 34.0575 54.2482 33.9655L54.2842 33.8621C54.1402 33.6782 53.8043 33.5287 53.2764 33.4138C52.7725 33.2759 52.2806 33.2069 51.8007 33.2069C51.4648 33.2069 51.1769 33.2529 50.9369 33.3448C50.697 33.4368 50.577 33.5747 50.577 33.7586C50.577 33.9885 50.721 34.1609 51.0089 34.2759C51.2969 34.3678 51.6328 34.4138 52.0167 34.4138Z" stroke="#F8F9FA" stroke-width="2" mask="url(#path-1-outside-1_471_3909)"/>
<path d="M78.7705 38C77.8347 38 76.9109 37.8276 75.9991 37.4828C75.1113 37.1379 74.2955 36.6667 73.5517 36.069C72.8079 35.4713 72.22 34.7931 71.7881 34.0345C71.3562 33.2529 71.1402 32.4368 71.1402 31.5862C71.1402 31.1264 71.2122 30.6552 71.3562 30.1724C71.5241 29.6897 71.7761 29.2069 72.112 28.7241C72.5199 28.1494 73.0358 27.7356 73.6597 27.4828C74.3075 27.2299 74.9674 27.1034 75.6392 27.1034C76.407 27.1034 77.1509 27.2644 77.8707 27.5862C78.5906 27.8851 79.1784 28.3218 79.6343 28.8966C80.0902 29.4483 80.3182 30.1034 80.3182 30.8621C80.3182 31.2529 80.2342 31.5402 80.0662 31.7241C79.9223 31.8851 79.7303 31.9655 79.4904 31.9655C79.2504 31.9655 79.0105 31.8736 78.7705 31.6897C78.5546 31.4828 78.4346 31.2184 78.4106 30.8966C78.3866 30.2988 78.1107 29.8391 77.5828 29.5172C77.0549 29.1724 76.551 29 76.0711 29C75.0633 29 74.3195 29.2529 73.8396 29.7586C73.3597 30.2644 73.1198 30.8621 73.1198 31.5517C73.1198 32.2414 73.3477 32.954 73.8036 33.6897C74.2595 34.4253 74.9194 35.0345 75.7832 35.5172C76.647 36.023 77.7028 36.2759 78.9505 36.2759C80.0062 36.2759 81.062 36.1379 82.1178 35.8621C83.1975 35.6092 84.1813 35.2069 85.0691 34.6552C85.9569 34.0805 86.6647 33.3678 87.1926 32.5172C87.7445 31.6667 88.0204 30.6552 88.0204 29.4828C88.0204 27.092 87.0487 25.4138 85.1051 24.4483H85.0331C84.2893 24.8391 83.4975 25.1149 82.6576 25.2759C81.8178 25.4138 80.978 25.4828 80.1382 25.4828C79.8023 25.4828 79.3824 25.4483 78.8785 25.3793C78.3986 25.2874 77.9667 25.1149 77.5828 24.8621C77.1989 24.6092 77.0069 24.2184 77.0069 23.6897C77.0069 23.2759 77.1749 22.954 77.5108 22.7241C77.8707 22.4713 78.3026 22.2874 78.8065 22.1724C79.3104 22.0575 79.8143 21.977 80.3182 21.931C80.846 21.8851 81.29 21.8621 81.6499 21.8621C82.7296 21.8621 83.7494 22.023 84.7092 22.3448H84.7812C85.477 21.8161 85.9929 21.2874 86.3288 20.7586C86.6647 20.2069 86.8327 19.5747 86.8327 18.8621C86.8327 18.7241 86.8207 18.5862 86.7967 18.4483C86.7967 18.3103 86.7847 18.1609 86.7607 18C86.6168 17.0345 86.1129 16.2874 85.2491 15.7586C84.4093 15.2299 83.4975 14.9655 82.5137 14.9655C81.8418 14.9655 81.11 15.046 80.3182 15.2069C79.5503 15.3448 78.9625 15.6897 78.5546 16.2414C78.3626 16.4943 78.2666 16.7241 78.2666 16.931C78.2666 17.2069 78.4106 17.4023 78.6985 17.5172C78.9865 17.6092 79.2744 17.7011 79.5623 17.7931C80.0422 17.931 80.2822 18.2069 80.2822 18.6207C80.2822 19.3333 79.7303 19.6897 78.6265 19.6897C78.1467 19.6897 77.6908 19.5402 77.2589 19.2414C76.9229 19.0115 76.683 18.7126 76.539 18.3448C76.3951 17.954 76.3231 17.5747 76.3231 17.2069C76.3231 17.092 76.3231 16.9655 76.3231 16.8276C76.3471 16.6897 76.371 16.5632 76.395 16.4483C76.611 15.5057 77.0309 14.8046 77.6548 14.3448C78.3026 13.8621 79.0464 13.5402 79.8863 13.3793C80.7501 13.1954 81.5779 13.1034 82.3697 13.1034C83.3295 13.1034 84.2653 13.3103 85.1771 13.7241C86.1129 14.1379 86.9047 14.7126 87.5525 15.4483C88.2004 16.1609 88.5723 17.0115 88.6683 18C88.6923 18.1609 88.7043 18.3103 88.7043 18.4483C88.7043 18.5862 88.7043 18.7356 88.7043 18.8966C88.7043 20.5517 88.0444 22 86.7247 23.2414V23.3448C87.7805 24.0575 88.5843 24.954 89.1362 26.0345C89.7121 27.1149 90 28.2644 90 29.4828C90 30.6782 89.6761 31.8736 89.0282 33.069C88.4044 34.2414 87.3966 35.2644 86.0049 36.1379C84.9491 36.8046 83.7854 37.2759 82.5137 37.5517C81.266 37.8506 80.0182 38 78.7705 38ZM80.3182 24.4138C80.942 24.4138 81.6139 24.3218 82.3337 24.1379C83.0536 23.931 83.5095 23.7126 83.7014 23.4828L83.6654 23.3793C83.4975 23.2644 83.1375 23.1609 82.5857 23.069C82.0578 22.977 81.5179 22.931 80.966 22.931C80.4381 22.931 79.9583 22.9885 79.5263 23.1034C79.1184 23.2184 78.9145 23.4368 78.9145 23.7586C78.9145 23.9885 79.0464 24.1609 79.3104 24.2759C79.5743 24.3678 79.9103 24.4138 80.3182 24.4138Z" stroke="#F8F9FA" stroke-width="2" mask="url(#path-1-outside-1_471_3909)"/>
<path d="M1.74275 10.096C1.50275 10.096 1.31875 10.032 1.19075 9.904C1.06275 9.768 0.99875 9.576 0.99875 9.328V2.2C0.99875 1.952 1.06275 1.764 1.19075 1.636C1.31875 1.508 1.50275 1.444 1.74275 1.444C1.98275 1.444 2.16675 1.508 2.29475 1.636C2.43075 1.764 2.49875 1.952 2.49875 2.2V6.628H2.52275L4.50275 4.54C4.66275 4.38 4.80275 4.256 4.92275 4.168C5.04275 4.08 5.20675 4.036 5.41475 4.036C5.62275 4.036 5.77875 4.092 5.88275 4.204C5.99475 4.308 6.05075 4.436 6.05075 4.588C6.05075 4.74 5.97875 4.892 5.83475 5.044L3.74675 7.252V6.628L6.03875 9.1C6.18275 9.252 6.24675 9.408 6.23075 9.568C6.22275 9.72 6.15875 9.848 6.03875 9.952C5.91875 10.048 5.76675 10.096 5.58275 10.096C5.35875 10.096 5.17875 10.052 5.04275 9.964C4.91475 9.876 4.77075 9.744 4.61075 9.568L2.52275 7.384H2.49875V9.328C2.49875 9.84 2.24675 10.096 1.74275 10.096ZM9.99116 10.12C9.38316 10.12 8.85516 9.996 8.40716 9.748C7.95916 9.5 7.61116 9.148 7.36316 8.692C7.11516 8.228 6.99116 7.684 6.99116 7.06C6.99116 6.588 7.05916 6.168 7.19516 5.8C7.33916 5.424 7.54316 5.104 7.80716 4.84C8.07116 4.568 8.38716 4.364 8.75516 4.228C9.12316 4.084 9.53516 4.012 9.99116 4.012C10.5992 4.012 11.1272 4.136 11.5752 4.384C12.0232 4.632 12.3712 4.984 12.6192 5.44C12.8672 5.896 12.9912 6.436 12.9912 7.06C12.9912 7.532 12.9192 7.956 12.7752 8.332C12.6392 8.708 12.4392 9.032 12.1752 9.304C11.9112 9.568 11.5952 9.772 11.2272 9.916C10.8592 10.052 10.4472 10.12 9.99116 10.12ZM9.99116 8.98C10.2872 8.98 10.5472 8.908 10.7712 8.764C10.9952 8.62 11.1672 8.408 11.2872 8.128C11.4152 7.84 11.4792 7.484 11.4792 7.06C11.4792 6.42 11.3432 5.944 11.0712 5.632C10.7992 5.312 10.4392 5.152 9.99116 5.152C9.69516 5.152 9.43516 5.224 9.21116 5.368C8.98716 5.504 8.81116 5.716 8.68316 6.004C8.56316 6.284 8.50316 6.636 8.50316 7.06C8.50316 7.692 8.63916 8.172 8.91116 8.5C9.18316 8.82 9.54316 8.98 9.99116 8.98ZM16.4852 10.12C15.9732 10.12 15.5212 9.996 15.1292 9.748C14.7452 9.5 14.4452 9.148 14.2292 8.692C14.0132 8.228 13.9052 7.684 13.9052 7.06C13.9052 6.428 14.0132 5.888 14.2292 5.44C14.4452 4.984 14.7452 4.632 15.1292 4.384C15.5212 4.136 15.9732 4.012 16.4852 4.012C16.9732 4.012 17.3972 4.132 17.7572 4.372C18.1252 4.612 18.3732 4.928 18.5012 5.32H18.3692V2.2C18.3692 1.952 18.4332 1.764 18.5612 1.636C18.6892 1.508 18.8732 1.444 19.1132 1.444C19.3532 1.444 19.5372 1.508 19.6652 1.636C19.8012 1.764 19.8692 1.952 19.8692 2.2V9.328C19.8692 9.576 19.8052 9.768 19.6772 9.904C19.5492 10.032 19.3652 10.096 19.1252 10.096C18.8852 10.096 18.7012 10.032 18.5732 9.904C18.4452 9.768 18.3812 9.576 18.3812 9.328V8.392L18.5132 8.752C18.3932 9.168 18.1492 9.5 17.7812 9.748C17.4132 9.996 16.9812 10.12 16.4852 10.12ZM16.9052 8.98C17.2012 8.98 17.4612 8.908 17.6852 8.764C17.9092 8.62 18.0812 8.408 18.2012 8.128C18.3292 7.84 18.3932 7.484 18.3932 7.06C18.3932 6.42 18.2572 5.944 17.9852 5.632C17.7132 5.312 17.3532 5.152 16.9052 5.152C16.6092 5.152 16.3492 5.224 16.1252 5.368C15.9012 5.504 15.7252 5.716 15.5972 6.004C15.4772 6.284 15.4172 6.636 15.4172 7.06C15.4172 7.692 15.5532 8.172 15.8252 8.5C16.0972 8.82 16.4572 8.98 16.9052 8.98ZM24.3165 10.12C23.6525 10.12 23.0805 9.996 22.6005 9.748C22.1205 9.5 21.7485 9.148 21.4845 8.692C21.2285 8.236 21.1005 7.696 21.1005 7.072C21.1005 6.464 21.2245 5.932 21.4725 5.476C21.7285 5.02 22.0765 4.664 22.5165 4.408C22.9645 4.144 23.4725 4.012 24.0405 4.012C24.4565 4.012 24.8285 4.08 25.1565 4.216C25.4925 4.352 25.7765 4.548 26.0085 4.804C26.2485 5.06 26.4285 5.372 26.5485 5.74C26.6765 6.1 26.7405 6.508 26.7405 6.964C26.7405 7.108 26.6885 7.22 26.5845 7.3C26.4885 7.372 26.3485 7.408 26.1645 7.408H22.3125V6.544H25.6845L25.4925 6.724C25.4925 6.356 25.4365 6.048 25.3245 5.8C25.2205 5.552 25.0645 5.364 24.8565 5.236C24.6565 5.1 24.4045 5.032 24.1005 5.032C23.7645 5.032 23.4765 5.112 23.2365 5.272C23.0045 5.424 22.8245 5.644 22.6965 5.932C22.5765 6.212 22.5165 6.548 22.5165 6.94V7.024C22.5165 7.68 22.6685 8.172 22.9725 8.5C23.2845 8.82 23.7405 8.98 24.3405 8.98C24.5485 8.98 24.7805 8.956 25.0365 8.908C25.3005 8.852 25.5485 8.76 25.7805 8.632C25.9485 8.536 26.0965 8.496 26.2245 8.512C26.3525 8.52 26.4525 8.564 26.5245 8.644C26.6045 8.724 26.6525 8.824 26.6685 8.944C26.6845 9.056 26.6605 9.172 26.5965 9.292C26.5405 9.412 26.4405 9.516 26.2965 9.604C26.0165 9.78 25.6925 9.912 25.3245 10C24.9645 10.08 24.6285 10.12 24.3165 10.12ZM28.6724 10.096C28.4324 10.096 28.2484 10.032 28.1204 9.904C27.9924 9.768 27.9284 9.576 27.9284 9.328V2.2C27.9284 1.952 27.9924 1.764 28.1204 1.636C28.2484 1.508 28.4324 1.444 28.6724 1.444C28.9124 1.444 29.0964 1.508 29.2244 1.636C29.3604 1.764 29.4284 1.952 29.4284 2.2V6.628H29.4524L31.4324 4.54C31.5924 4.38 31.7324 4.256 31.8524 4.168C31.9724 4.08 32.1364 4.036 32.3444 4.036C32.5524 4.036 32.7084 4.092 32.8124 4.204C32.9244 4.308 32.9804 4.436 32.9804 4.588C32.9804 4.74 32.9084 4.892 32.7644 5.044L30.6764 7.252V6.628L32.9684 9.1C33.1124 9.252 33.1764 9.408 33.1604 9.568C33.1524 9.72 33.0884 9.848 32.9684 9.952C32.8484 10.048 32.6964 10.096 32.5124 10.096C32.2884 10.096 32.1084 10.052 31.9724 9.964C31.8444 9.876 31.7004 9.744 31.5404 9.568L29.4524 7.384H29.4284V9.328C29.4284 9.84 29.1764 10.096 28.6724 10.096ZM36.2354 10.12C35.8114 10.12 35.4314 10.04 35.0954 9.88C34.7674 9.712 34.5074 9.488 34.3154 9.208C34.1314 8.928 34.0394 8.612 34.0394 8.26C34.0394 7.828 34.1514 7.488 34.3754 7.24C34.5994 6.984 34.9634 6.8 35.4674 6.688C35.9714 6.576 36.6474 6.52 37.4954 6.52H38.0954V7.384H37.5074C37.0114 7.384 36.6154 7.408 36.3194 7.456C36.0234 7.504 35.8114 7.588 35.6834 7.708C35.5634 7.82 35.5034 7.98 35.5034 8.188C35.5034 8.452 35.5954 8.668 35.7794 8.836C35.9634 9.004 36.2194 9.088 36.5474 9.088C36.8114 9.088 37.0434 9.028 37.2434 8.908C37.4514 8.78 37.6154 8.608 37.7354 8.392C37.8554 8.176 37.9154 7.928 37.9154 7.648V6.268C37.9154 5.868 37.8274 5.58 37.6514 5.404C37.4754 5.228 37.1794 5.14 36.7634 5.14C36.5314 5.14 36.2794 5.168 36.0074 5.224C35.7434 5.28 35.4634 5.376 35.1674 5.512C35.0154 5.584 34.8794 5.604 34.7594 5.572C34.6474 5.54 34.5594 5.476 34.4954 5.38C34.4314 5.276 34.3994 5.164 34.3994 5.044C34.3994 4.924 34.4314 4.808 34.4954 4.696C34.5594 4.576 34.6674 4.488 34.8194 4.432C35.1874 4.28 35.5394 4.172 35.8754 4.108C36.2194 4.044 36.5314 4.012 36.8114 4.012C37.3874 4.012 37.8594 4.1 38.2274 4.276C38.6034 4.452 38.8834 4.72 39.0674 5.08C39.2514 5.432 39.3434 5.888 39.3434 6.448V9.328C39.3434 9.576 39.2834 9.768 39.1634 9.904C39.0434 10.032 38.8714 10.096 38.6474 10.096C38.4234 10.096 38.2474 10.032 38.1194 9.904C37.9994 9.768 37.9394 9.576 37.9394 9.328V8.752H38.0354C37.9794 9.032 37.8674 9.276 37.6994 9.484C37.5394 9.684 37.3354 9.84 37.0874 9.952C36.8394 10.064 36.5554 10.12 36.2354 10.12ZM42.8699 10.12C42.2059 10.12 41.7059 9.932 41.3699 9.556C41.0339 9.172 40.8659 8.612 40.8659 7.876V2.2C40.8659 1.952 40.9299 1.764 41.0579 1.636C41.1859 1.508 41.3699 1.444 41.6099 1.444C41.8499 1.444 42.0339 1.508 42.1619 1.636C42.2979 1.764 42.3659 1.952 42.3659 2.2V7.804C42.3659 8.172 42.4419 8.444 42.5939 8.62C42.7539 8.796 42.9779 8.884 43.2659 8.884C43.3299 8.884 43.3899 8.884 43.4459 8.884C43.5019 8.876 43.5579 8.868 43.6139 8.86C43.7259 8.844 43.8019 8.876 43.8419 8.956C43.8819 9.028 43.9019 9.18 43.9019 9.412C43.9019 9.612 43.8619 9.768 43.7819 9.88C43.7019 9.992 43.5699 10.06 43.3859 10.084C43.3059 10.092 43.2219 10.1 43.1339 10.108C43.0459 10.116 42.9579 10.12 42.8699 10.12ZM47.5314 10.12C46.8674 10.12 46.2954 9.996 45.8154 9.748C45.3354 9.5 44.9634 9.148 44.6994 8.692C44.4434 8.236 44.3154 7.696 44.3154 7.072C44.3154 6.464 44.4394 5.932 44.6874 5.476C44.9434 5.02 45.2914 4.664 45.7314 4.408C46.1794 4.144 46.6874 4.012 47.2554 4.012C47.6714 4.012 48.0434 4.08 48.3714 4.216C48.7074 4.352 48.9914 4.548 49.2234 4.804C49.4634 5.06 49.6434 5.372 49.7634 5.74C49.8914 6.1 49.9554 6.508 49.9554 6.964C49.9554 7.108 49.9034 7.22 49.7994 7.3C49.7034 7.372 49.5634 7.408 49.3794 7.408H45.5274V6.544H48.8994L48.7074 6.724C48.7074 6.356 48.6514 6.048 48.5394 5.8C48.4354 5.552 48.2794 5.364 48.0714 5.236C47.8714 5.1 47.6194 5.032 47.3154 5.032C46.9794 5.032 46.6914 5.112 46.4514 5.272C46.2194 5.424 46.0394 5.644 45.9114 5.932C45.7914 6.212 45.7314 6.548 45.7314 6.94V7.024C45.7314 7.68 45.8834 8.172 46.1874 8.5C46.4994 8.82 46.9554 8.98 47.5554 8.98C47.7634 8.98 47.9954 8.956 48.2514 8.908C48.5154 8.852 48.7634 8.76 48.9954 8.632C49.1634 8.536 49.3114 8.496 49.4394 8.512C49.5674 8.52 49.6674 8.564 49.7394 8.644C49.8194 8.724 49.8674 8.824 49.8834 8.944C49.8994 9.056 49.8754 9.172 49.8114 9.292C49.7554 9.412 49.6554 9.516 49.5114 9.604C49.2314 9.78 48.9074 9.912 48.5394 10C48.1794 10.08 47.8434 10.12 47.5314 10.12ZM51.8873 10.096C51.6473 10.096 51.4633 10.032 51.3353 9.904C51.2073 9.768 51.1433 9.576 51.1433 9.328V4.792C51.1433 4.544 51.2073 4.356 51.3353 4.228C51.4633 4.1 51.6433 4.036 51.8753 4.036C52.1073 4.036 52.2873 4.1 52.4153 4.228C52.5433 4.356 52.6073 4.544 52.6073 4.792V5.608L52.4753 5.308C52.6513 4.884 52.9233 4.564 53.2913 4.348C53.6673 4.124 54.0913 4.012 54.5633 4.012C55.0353 4.012 55.4233 4.1 55.7273 4.276C56.0313 4.452 56.2593 4.72 56.4113 5.08C56.5633 5.432 56.6393 5.88 56.6393 6.424V9.328C56.6393 9.576 56.5753 9.768 56.4473 9.904C56.3193 10.032 56.1353 10.096 55.8953 10.096C55.6553 10.096 55.4673 10.032 55.3313 9.904C55.2033 9.768 55.1393 9.576 55.1393 9.328V6.496C55.1393 6.04 55.0513 5.708 54.8753 5.5C54.7073 5.292 54.4433 5.188 54.0833 5.188C53.6433 5.188 53.2913 5.328 53.0273 5.608C52.7713 5.88 52.6433 6.244 52.6433 6.7V9.328C52.6433 9.84 52.3913 10.096 51.8873 10.096ZM60.4188 10.12C59.9068 10.12 59.4548 9.996 59.0628 9.748C58.6788 9.5 58.3788 9.148 58.1628 8.692C57.9468 8.228 57.8388 7.684 57.8388 7.06C57.8388 6.428 57.9468 5.888 58.1628 5.44C58.3788 4.984 58.6788 4.632 59.0628 4.384C59.4548 4.136 59.9068 4.012 60.4188 4.012C60.9068 4.012 61.3308 4.132 61.6908 4.372C62.0588 4.612 62.3068 4.928 62.4348 5.32H62.3028V2.2C62.3028 1.952 62.3668 1.764 62.4948 1.636C62.6228 1.508 62.8068 1.444 63.0468 1.444C63.2868 1.444 63.4708 1.508 63.5988 1.636C63.7348 1.764 63.8028 1.952 63.8028 2.2V9.328C63.8028 9.576 63.7388 9.768 63.6108 9.904C63.4828 10.032 63.2988 10.096 63.0588 10.096C62.8188 10.096 62.6348 10.032 62.5068 9.904C62.3788 9.768 62.3148 9.576 62.3148 9.328V8.392L62.4468 8.752C62.3268 9.168 62.0828 9.5 61.7148 9.748C61.3468 9.996 60.9148 10.12 60.4188 10.12ZM60.8388 8.98C61.1348 8.98 61.3948 8.908 61.6188 8.764C61.8428 8.62 62.0148 8.408 62.1348 8.128C62.2628 7.84 62.3268 7.484 62.3268 7.06C62.3268 6.42 62.1908 5.944 61.9188 5.632C61.6468 5.312 61.2868 5.152 60.8388 5.152C60.5428 5.152 60.2828 5.224 60.0588 5.368C59.8348 5.504 59.6588 5.716 59.5308 6.004C59.4108 6.284 59.3508 6.636 59.3508 7.06C59.3508 7.692 59.4868 8.172 59.7588 8.5C60.0308 8.82 60.3908 8.98 60.8388 8.98ZM68.2501 10.12C67.5861 10.12 67.0141 9.996 66.5341 9.748C66.0541 9.5 65.6821 9.148 65.4181 8.692C65.1621 8.236 65.0341 7.696 65.0341 7.072C65.0341 6.464 65.1581 5.932 65.4061 5.476C65.6621 5.02 66.0101 4.664 66.4501 4.408C66.8981 4.144 67.4061 4.012 67.9741 4.012C68.3901 4.012 68.7621 4.08 69.0901 4.216C69.4261 4.352 69.7101 4.548 69.9421 4.804C70.1821 5.06 70.3621 5.372 70.4821 5.74C70.6101 6.1 70.6741 6.508 70.6741 6.964C70.6741 7.108 70.6221 7.22 70.5181 7.3C70.4221 7.372 70.2821 7.408 70.0981 7.408H66.2461V6.544H69.6181L69.4261 6.724C69.4261 6.356 69.3701 6.048 69.2581 5.8C69.1541 5.552 68.9981 5.364 68.7901 5.236C68.5901 5.1 68.3381 5.032 68.0341 5.032C67.6981 5.032 67.4101 5.112 67.1701 5.272C66.9381 5.424 66.7581 5.644 66.6301 5.932C66.5101 6.212 66.4501 6.548 66.4501 6.94V7.024C66.4501 7.68 66.6021 8.172 66.9061 8.5C67.2181 8.82 67.6741 8.98 68.2741 8.98C68.4821 8.98 68.7141 8.956 68.9701 8.908C69.2341 8.852 69.4821 8.76 69.7141 8.632C69.8821 8.536 70.0301 8.496 70.1581 8.512C70.2861 8.52 70.3861 8.564 70.4581 8.644C70.5381 8.724 70.5861 8.824 70.6021 8.944C70.6181 9.056 70.5941 9.172 70.5301 9.292C70.4741 9.412 70.3741 9.516 70.2301 9.604C69.9501 9.78 69.6261 9.912 69.2581 10C68.8981 10.08 68.5621 10.12 68.2501 10.12ZM72.63 10.096C72.382 10.096 72.19 10.032 72.054 9.904C71.926 9.768 71.862 9.576 71.862 9.328V4.792C71.862 4.544 71.926 4.356 72.054 4.228C72.182 4.1 72.362 4.036 72.594 4.036C72.826 4.036 73.006 4.1 73.134 4.228C73.262 4.356 73.326 4.544 73.326 4.792V5.548H73.206C73.318 5.068 73.538 4.704 73.866 4.456C74.194 4.208 74.63 4.06 75.174 4.012C75.342 3.996 75.474 4.04 75.57 4.144C75.674 4.24 75.734 4.392 75.75 4.6C75.766 4.8 75.718 4.964 75.606 5.092C75.502 5.212 75.342 5.284 75.126 5.308L74.862 5.332C74.374 5.38 74.006 5.532 73.758 5.788C73.51 6.036 73.386 6.388 73.386 6.844V9.328C73.386 9.576 73.322 9.768 73.194 9.904C73.066 10.032 72.878 10.096 72.63 10.096Z" fill="white"/>
<path d="M83.9067 2.73759C81.2896 3.5575 79.9498 6.13252 79.4548 7.14492L90.2681 10.1307L91.2812 12.3443C91.2732 13.1494 90.9767 14.1468 91.0556 16.114C91.1345 18.0813 93.6547 19.6991 94.7548 19.7096L96.0497 17.6029C95.7525 17.4023 94.8027 17.5705 94.1886 16.2289C93.7211 15.2072 94.7593 13.4372 95.2955 11.9166C95.8318 10.396 96.5529 6.56216 93.3495 4.52347C90.3069 2.58713 87.3194 1.66846 83.9067 2.73759Z" fill="#751C15"/>
<ellipse cx="2.60252" cy="2.68731" rx="2.60252" ry="2.68731" transform="matrix(0.942311 0.334739 -0.332597 0.943069 94.4785 16.189)" fill="#F8F9FA"/>
<path d="M82.308 8.4433C81.8637 9.703 80.5154 10.3732 79.2964 9.94014C78.0774 9.50712 77.4494 8.1349 77.8937 6.8752C78.338 5.61551 79.6863 4.94535 80.9052 5.37837C82.1242 5.81139 82.7522 7.18361 82.308 8.4433Z" fill="#F8F9FA"/>
<path d="M85.519 8.72841C85.0747 9.98811 83.7264 10.6583 82.5074 10.2252C81.2884 9.79222 80.6604 8.42001 81.1047 7.16031C81.549 5.90061 82.8973 5.23046 84.1162 5.66348C85.3352 6.09649 85.9632 7.46871 85.519 8.72841Z" fill="#F8F9FA"/>
<path d="M94.4805 13.0526C94.0363 14.3123 92.6879 14.9824 91.469 14.5494C90.25 14.1164 89.622 12.7442 90.0662 11.4845C90.5105 10.2248 91.8588 9.55462 93.0778 9.98764C94.2968 10.4207 94.9248 11.7929 94.4805 13.0526Z" fill="#F8F9FA"/>
<path d="M89.1311 9.44118C88.6375 10.8408 87.1393 11.5855 85.7849 11.1043C84.4305 10.6232 83.7327 9.09851 84.2263 7.69885C84.7199 6.29918 86.2181 5.55457 87.5725 6.0357C88.9269 6.51683 89.6247 8.04152 89.1311 9.44118Z" fill="#F8F9FA"/>
<path d="M92.2298 10.8271C91.7362 12.2268 90.238 12.9714 88.8836 12.4903C87.5292 12.0091 86.8314 10.4845 87.325 9.08479C87.8187 7.68513 89.3168 6.94051 90.6712 7.42165C92.0256 7.90278 92.7234 9.42746 92.2298 10.8271Z" fill="#F8F9FA"/>
</svg>
