<svg width="120" height="48" viewBox="0 0 120 48" fill="none" xmlns="http://www.w3.org/2000/svg">
<g clip-path="url(#clip0_472_47785)">
<mask id="path-1-outside-1_472_47785" maskUnits="userSpaceOnUse" x="0.399902" y="13.6001" width="109" height="34" fill="black">
<rect fill="white" x="0.399902" y="13.6001" width="109" height="34"/>
<path d="M21.7492 44.4829C20.3671 44.4829 18.841 44.2208 17.171 43.6967C15.5298 43.1725 13.9749 42.6484 12.5064 42.1242C12.2473 42.0139 11.9882 41.9173 11.729 41.8346C11.4699 41.7242 11.2251 41.6277 10.9948 41.5449H10.9084C10.4765 41.7932 10.0302 42.0415 9.5695 42.2898C9.13759 42.538 8.6769 42.7587 8.18741 42.9518C7.89947 43.0898 7.59714 43.1863 7.28041 43.2415C6.96368 43.2966 6.64695 43.3242 6.33022 43.3242C5.69676 43.3242 5.0777 43.2277 4.47304 43.0346C4.15631 42.9242 3.72441 42.6898 3.17733 42.3311C2.65904 41.9725 2.3999 41.476 2.3999 40.8415C2.3999 40.5932 2.47189 40.2898 2.61585 39.9311C2.90379 39.2966 3.35009 38.8553 3.95475 38.607C4.55942 38.3311 5.22167 38.1932 5.94151 38.1932C6.69014 38.1932 7.48196 38.2898 8.31698 38.4829C9.18078 38.676 9.97261 38.8829 10.6924 39.1035H10.7788C11.585 38.6622 12.5352 38.0829 13.6294 37.3656C14.7523 36.6208 15.9185 35.807 17.1278 34.9242C18.3371 34.0139 19.4745 33.0622 20.5398 32.0691C21.6052 31.076 22.4978 30.0691 23.2176 29.0484C23.9663 28.0277 24.3982 27.0484 24.5133 26.1104C24.5997 25.5311 24.6429 24.9794 24.6429 24.4553C24.6429 22.3311 23.9519 20.7173 22.5698 19.6139C21.2165 18.4829 19.2297 17.9173 16.6095 17.9173C15.2562 17.9173 13.9461 18.207 12.6792 18.7863C11.4123 19.3656 10.3757 20.1794 9.5695 21.2277C8.76328 22.2484 8.36017 23.4484 8.36017 24.8277C8.36017 25.7656 8.53293 26.6484 8.87845 27.476C9.25277 28.276 9.79984 28.938 10.5197 29.4622C11.2395 29.9587 12.1177 30.207 13.1543 30.207C13.4422 30.207 13.7014 30.1794 13.9317 30.1242C14.1909 30.0415 14.45 29.9587 14.7091 29.876C14.7955 29.8484 14.8819 29.8208 14.9683 29.7932C15.0547 29.7656 15.141 29.738 15.2274 29.7104C15.4578 29.6553 15.6161 29.6277 15.7025 29.6277C16.0193 29.6277 16.2928 29.738 16.5231 29.9587C16.7823 30.1518 16.9119 30.3863 16.9119 30.6622C16.9119 30.9932 16.7247 31.2829 16.3504 31.5311C15.9185 31.8346 15.4002 32.0553 14.7955 32.1932C14.1909 32.3035 13.6438 32.3587 13.1543 32.3587C11.6858 32.3587 10.4189 32.0001 9.35354 31.2829C8.31698 30.5656 7.51076 29.6277 6.93489 28.4691C6.38781 27.3104 6.11427 26.0967 6.11427 24.8277C6.11427 23.4208 6.4166 22.1656 7.02127 21.0622C7.62593 19.9311 8.43215 18.9656 9.43993 18.1656C10.4765 17.3656 11.6282 16.7587 12.8952 16.3449C14.1621 15.9035 15.4578 15.6829 16.7823 15.6829C18.8554 15.6829 20.6406 16.0553 22.1379 16.8001C23.6639 17.5449 24.8445 18.5794 25.6795 19.9035C26.5145 21.2001 26.932 22.7311 26.932 24.4966C26.932 24.8001 26.9176 25.1173 26.8888 25.4484C26.86 25.7794 26.8168 26.1242 26.7592 26.4829C26.5001 27.8622 25.8954 29.2139 24.9453 30.538C23.9951 31.8622 22.8577 33.1173 21.5332 34.3035C20.2087 35.4898 18.841 36.5656 17.4301 37.5311C16.0193 38.4966 14.7235 39.338 13.543 40.0553L13.9749 40.2622C14.6372 40.538 15.4434 40.8277 16.3936 41.1311C17.3438 41.4346 18.2939 41.6966 19.2441 41.9173C20.2231 42.138 21.0581 42.2484 21.7492 42.2484C22.4402 42.2484 23.1313 42.1242 23.8223 41.876C24.5133 41.6001 24.8589 41.1035 24.8589 40.3863C24.8589 40.2484 24.7005 40.0829 24.3838 39.8898C23.9519 39.5863 23.7359 39.2277 23.7359 38.8139C23.7359 38.538 23.8367 38.3035 24.0383 38.1104C24.2686 37.9173 24.5421 37.8208 24.8589 37.8208C25.4347 37.8208 25.953 38.0691 26.4137 38.5656C26.9032 39.0622 27.148 39.5863 27.148 40.138C27.148 41.1863 26.86 42.0277 26.2842 42.6622C25.7371 43.3242 25.046 43.7932 24.211 44.0691C23.376 44.3449 22.5554 44.4829 21.7492 44.4829ZM6.02789 41.2966C6.57497 41.2966 7.10765 41.2415 7.62593 41.1311C8.17301 40.9932 8.53293 40.8691 8.70569 40.7587L8.74888 40.6346C8.57612 40.4139 8.17301 40.2346 7.53955 40.0966C6.93489 39.9311 6.34462 39.8484 5.76875 39.8484C5.36564 39.8484 5.02012 39.9035 4.73218 40.0139C4.44424 40.1242 4.30028 40.2898 4.30028 40.5104C4.30028 40.7863 4.47304 40.9932 4.81856 41.1311C5.16408 41.2415 5.56719 41.2966 6.02789 41.2966Z"/>
<path d="M41.89 44.0691C39.241 44.0691 37.0815 43.5311 35.4115 42.4553C33.7415 41.407 32.5177 40.0277 31.7403 38.3173C30.9629 36.5794 30.5742 34.7035 30.5742 32.6898C30.5742 31.7518 30.6605 30.8001 30.8333 29.8346C31.0061 28.8691 31.2364 27.9173 31.5244 26.9794C32.3306 24.5794 33.5687 22.4966 35.2387 20.7311C36.9087 18.938 38.9675 17.5725 41.4149 16.6346C43.2577 15.9449 45.1293 15.6001 47.0297 15.6001C48.3254 15.6001 49.5779 15.7656 50.7872 16.0967C52.5148 16.5932 53.8969 17.3932 54.9335 18.4966C55.9701 19.5725 56.7187 20.8415 57.1794 22.3035C57.6401 23.738 57.8704 25.2415 57.8704 26.8139C57.8704 28.138 57.7265 29.4484 57.4385 30.7449C57.1506 32.0139 56.7619 33.2001 56.2724 34.3035C55.4662 36.1242 54.3432 37.7794 52.9036 39.2691C51.4639 40.7311 49.8083 41.8898 47.9367 42.7449C46.0651 43.6277 44.0495 44.0691 41.89 44.0691ZM42.0196 41.7518C43.9776 41.7518 45.7628 41.338 47.3752 40.5104C49.0164 39.6829 50.4273 38.5932 51.6078 37.2415C52.8172 35.8622 53.753 34.3449 54.4152 32.6898C55.0775 31.0346 55.423 29.3794 55.4518 27.7242C54.444 29.1863 53.2779 30.2484 51.9534 30.9104C50.6289 31.5725 49.3188 31.9035 48.0231 31.9035C47.3608 31.9035 46.6986 31.8208 46.0363 31.6553C44.8846 31.3518 43.9776 30.8966 43.3153 30.2898C42.6531 29.6829 42.178 29.007 41.89 28.2622C41.6021 27.5173 41.4581 26.8139 41.4581 26.1518C41.4581 25.4346 41.5877 24.8139 41.8468 24.2898C42.1348 23.7656 42.4659 23.5035 42.8402 23.5035C43.0994 23.5035 43.3585 23.6415 43.6176 23.9173C43.9344 24.2208 44.0495 24.5794 43.9632 24.9932C43.848 25.407 43.7904 25.8346 43.7904 26.276C43.7904 27.4346 44.1791 28.2898 44.9565 28.8415C45.7628 29.3656 46.6986 29.6277 47.7639 29.6277C48.8005 29.6277 49.837 29.407 50.8736 28.9656C51.9102 28.4966 52.774 27.8208 53.465 26.938C54.1849 26.0553 54.5448 24.9932 54.5448 23.7518C54.5448 22.3725 54.1705 21.2691 53.4218 20.4415C52.6732 19.5863 51.7086 18.9656 50.5281 18.5794C49.3476 18.1932 48.1094 18.0001 46.8137 18.0001C45.2013 18.0001 43.704 18.2622 42.3219 18.7863C40.22 19.5863 38.4492 20.7587 37.0095 22.3035C35.5986 23.8484 34.5621 25.6553 33.8998 27.7242C33.3239 29.5449 33.036 31.2967 33.036 32.9794C33.036 34.5518 33.3239 36.0139 33.8998 37.3656C34.5045 38.6898 35.4691 39.7518 36.7936 40.5518C38.1181 41.3518 39.8601 41.7518 42.0196 41.7518Z"/>
<path d="M78.1412 44.4829C76.7591 44.4829 75.2331 44.2208 73.563 43.6967C71.9218 43.1725 70.367 42.6484 68.8985 42.1242C68.6393 42.0139 68.3802 41.9173 68.1211 41.8346C67.8619 41.7242 67.6172 41.6277 67.3868 41.5449H67.3004C66.8685 41.7932 66.4222 42.0415 65.9615 42.2898C65.5296 42.538 65.0689 42.7587 64.5795 42.9518C64.2915 43.0898 63.9892 43.1863 63.6725 43.2415C63.3557 43.2966 63.039 43.3242 62.7223 43.3242C62.0888 43.3242 61.4698 43.2277 60.8651 43.0346C60.5484 42.9242 60.1165 42.6898 59.5694 42.3311C59.0511 41.9725 58.792 41.476 58.792 40.8415C58.792 40.5932 58.8639 40.2898 59.0079 39.9311C59.2958 39.2966 59.7421 38.8553 60.3468 38.607C60.9515 38.3311 61.6137 38.1932 62.3336 38.1932C63.0822 38.1932 63.874 38.2898 64.709 38.4829C65.5728 38.676 66.3647 38.8829 67.0845 39.1035H67.1709C67.9771 38.6622 68.9273 38.0829 70.0214 37.3656C71.1444 36.6208 72.3105 35.807 73.5199 34.9242C74.7292 34.0139 75.8665 33.0622 76.9319 32.0691C77.9973 31.076 78.8898 30.0691 79.6097 29.0484C80.3583 28.0277 80.7902 27.0484 80.9054 26.1104C80.9918 25.5311 81.035 24.9794 81.035 24.4553C81.035 22.3311 80.3439 20.7173 78.9618 19.6139C77.6085 18.4829 75.6218 17.9173 73.0016 17.9173C71.6483 17.9173 70.3382 18.207 69.0713 18.7863C67.8043 19.3656 66.7678 20.1794 65.9615 21.2277C65.1553 22.2484 64.7522 23.4484 64.7522 24.8277C64.7522 25.7656 64.925 26.6484 65.2705 27.476C65.6448 28.276 66.1919 28.938 66.9117 29.4622C67.6316 29.9587 68.5098 30.207 69.5463 30.207C69.8343 30.207 70.0934 30.1794 70.3238 30.1242C70.5829 30.0415 70.8421 29.9587 71.1012 29.876C71.1876 29.8484 71.274 29.8208 71.3603 29.7932C71.4467 29.7656 71.5331 29.738 71.6195 29.7104C71.8498 29.6553 72.0082 29.6277 72.0946 29.6277C72.4113 29.6277 72.6848 29.738 72.9152 29.9587C73.1743 30.1518 73.3039 30.3863 73.3039 30.6622C73.3039 30.9932 73.1167 31.2829 72.7424 31.5311C72.3105 31.8346 71.7922 32.0553 71.1876 32.1932C70.5829 32.3035 70.0358 32.3587 69.5463 32.3587C68.0779 32.3587 66.811 32.0001 65.7456 31.2829C64.709 30.5656 63.9028 29.6277 63.3269 28.4691C62.7799 27.3104 62.5063 26.0967 62.5063 24.8277C62.5063 23.4208 62.8087 22.1656 63.4133 21.0622C64.018 19.9311 64.8242 18.9656 65.832 18.1656C66.8685 17.3656 68.0203 16.7587 69.2872 16.3449C70.5541 15.9035 71.8498 15.6829 73.1743 15.6829C75.2475 15.6829 77.0327 16.0553 78.5299 16.8001C80.056 17.5449 81.2365 18.5794 82.0715 19.9035C82.9066 21.2001 83.3241 22.7311 83.3241 24.4966C83.3241 24.8001 83.3097 25.1173 83.2809 25.4484C83.2521 25.7794 83.2089 26.1242 83.1513 26.4829C82.8922 27.8622 82.2875 29.2139 81.3373 30.538C80.3871 31.8622 79.2498 33.1173 77.9253 34.3035C76.6008 35.4898 75.2331 36.5656 73.8222 37.5311C72.4113 38.4966 71.1156 39.338 69.9351 40.0553L70.367 40.2622C71.0292 40.538 71.8354 40.8277 72.7856 41.1311C73.7358 41.4346 74.686 41.6966 75.6362 41.9173C76.6152 42.138 77.4502 42.2484 78.1412 42.2484C78.8323 42.2484 79.5233 42.1242 80.2144 41.876C80.9054 41.6001 81.2509 41.1035 81.2509 40.3863C81.2509 40.2484 81.0926 40.0829 80.7758 39.8898C80.3439 39.5863 80.128 39.2277 80.128 38.8139C80.128 38.538 80.2288 38.3035 80.4303 38.1104C80.6607 37.9173 80.9342 37.8208 81.2509 37.8208C81.8268 37.8208 82.3451 38.0691 82.8058 38.5656C83.2953 39.0622 83.54 39.5863 83.54 40.138C83.54 41.1863 83.2521 42.0277 82.6762 42.6622C82.1291 43.3242 81.4381 43.7932 80.6031 44.0691C79.7681 44.3449 78.9474 44.4829 78.1412 44.4829ZM62.4199 41.2966C62.967 41.2966 63.4997 41.2415 64.018 41.1311C64.5651 40.9932 64.925 40.8691 65.0977 40.7587L65.1409 40.6346C64.9682 40.4139 64.5651 40.2346 63.9316 40.0966C63.3269 39.9311 62.7367 39.8484 62.1608 39.8484C61.7577 39.8484 61.4122 39.9035 61.1242 40.0139C60.8363 40.1242 60.6923 40.2898 60.6923 40.5104C60.6923 40.7863 60.8651 40.9932 61.2106 41.1311C61.5561 41.2415 61.9592 41.2966 62.4199 41.2966Z"/>
<path d="M94.5245 45.6001C93.4016 45.6001 92.293 45.3932 91.1989 44.9794C90.1335 44.5656 89.1545 44.0001 88.2619 43.2829C87.3693 42.5656 86.6639 41.7518 86.1456 40.8415C85.6273 39.9035 85.3682 38.9242 85.3682 37.9035C85.3682 37.3518 85.4546 36.7863 85.6273 36.207C85.8289 35.6277 86.1312 35.0484 86.5343 34.4691C87.0238 33.7794 87.6429 33.2829 88.3915 32.9794C89.1689 32.676 89.9607 32.5242 90.767 32.5242C91.6884 32.5242 92.581 32.7173 93.4448 33.1035C94.3086 33.4622 95.014 33.9863 95.5611 34.676C96.1082 35.338 96.3817 36.1242 96.3817 37.0346C96.3817 37.5035 96.2809 37.8484 96.0794 38.0691C95.9066 38.2622 95.6763 38.3587 95.3883 38.3587C95.1004 38.3587 94.8125 38.2484 94.5245 38.0277C94.2654 37.7794 94.1214 37.4622 94.0926 37.076C94.0638 36.3587 93.7327 35.807 93.0992 35.4208C92.4658 35.007 91.8611 34.8001 91.2852 34.8001C90.0759 34.8001 89.1833 35.1035 88.6075 35.7104C88.0316 36.3173 87.7436 37.0346 87.7436 37.8622C87.7436 38.6898 88.0172 39.5449 88.5643 40.4277C89.1113 41.3104 89.9032 42.0415 90.9397 42.6208C91.9763 43.2277 93.2432 43.5311 94.7405 43.5311C96.0074 43.5311 97.2743 43.3656 98.5412 43.0346C99.8369 42.7311 101.017 42.2484 102.083 41.5863C103.148 40.8966 103.998 40.0415 104.631 39.0208C105.293 38.0001 105.624 36.7863 105.624 35.3794C105.624 32.5104 104.458 30.4966 102.126 29.338H102.04C101.147 29.807 100.197 30.138 99.1891 30.3311C98.1813 30.4966 97.1735 30.5794 96.1658 30.5794C95.7626 30.5794 95.2588 30.538 94.6541 30.4553C94.0782 30.3449 93.5599 30.138 93.0992 29.8346C92.6385 29.5311 92.4082 29.0622 92.4082 28.4277C92.4082 27.9311 92.6097 27.5449 93.0129 27.2691C93.4448 26.9656 93.963 26.7449 94.5677 26.607C95.1724 26.4691 95.777 26.3725 96.3817 26.3173C97.0152 26.2622 97.5478 26.2346 97.9798 26.2346C99.2755 26.2346 100.499 26.4277 101.651 26.8139H101.737C102.572 26.1794 103.191 25.5449 103.594 24.9104C103.998 24.2484 104.199 23.4898 104.199 22.6346C104.199 22.4691 104.185 22.3035 104.156 22.138C104.156 21.9725 104.142 21.7932 104.113 21.6001C103.94 20.4415 103.335 19.5449 102.299 18.9104C101.291 18.276 100.197 17.9587 99.0163 17.9587C98.2101 17.9587 97.3319 18.0553 96.3817 18.2484C95.4603 18.4139 94.7549 18.8277 94.2654 19.4898C94.035 19.7932 93.9199 20.0691 93.9199 20.3173C93.9199 20.6484 94.0926 20.8829 94.4381 21.0208C94.7837 21.1311 95.1292 21.2415 95.4747 21.3518C96.0506 21.5173 96.3385 21.8484 96.3385 22.3449C96.3385 23.2001 95.6763 23.6277 94.3518 23.6277C93.7759 23.6277 93.2288 23.4484 92.7105 23.0898C92.3074 22.8139 92.0195 22.4553 91.8467 22.0139C91.674 21.5449 91.5876 21.0898 91.5876 20.6484C91.5876 20.5104 91.5876 20.3587 91.5876 20.1932C91.6164 20.0277 91.6452 19.876 91.674 19.738C91.9331 18.607 92.437 17.7656 93.1856 17.2139C93.963 16.6346 94.8556 16.2484 95.8634 16.0553C96.9 15.8346 97.8934 15.7242 98.8436 15.7242C99.9953 15.7242 101.118 15.9725 102.212 16.4691C103.335 16.9656 104.286 17.6553 105.063 18.538C105.84 19.3932 106.287 20.4139 106.402 21.6001C106.431 21.7932 106.445 21.9725 106.445 22.138C106.445 22.3035 106.445 22.4829 106.445 22.676C106.445 24.6622 105.653 26.4001 104.07 27.8898V28.0139C105.337 28.8691 106.301 29.9449 106.963 31.2415C107.654 32.538 108 33.9173 108 35.3794C108 36.8139 107.611 38.2484 106.834 39.6829C106.085 41.0898 104.876 42.3173 103.206 43.3656C101.939 44.1656 100.542 44.7311 99.0163 45.0622C97.5191 45.4208 96.0218 45.6001 94.5245 45.6001ZM96.3817 29.2966C97.1303 29.2966 97.9366 29.1863 98.8004 28.9656C99.6642 28.7173 100.211 28.4553 100.442 28.1794L100.398 28.0553C100.197 27.9173 99.7649 27.7932 99.1027 27.6829C98.4692 27.5725 97.8214 27.5173 97.1591 27.5173C96.5257 27.5173 95.9498 27.5863 95.4315 27.7242C94.942 27.8622 94.6973 28.1242 94.6973 28.5104C94.6973 28.7863 94.8556 28.9932 95.1724 29.1311C95.4891 29.2415 95.8922 29.2966 96.3817 29.2966Z"/>
</mask>
<path d="M21.7492 44.4829C20.3671 44.4829 18.841 44.2208 17.171 43.6967C15.5298 43.1725 13.9749 42.6484 12.5064 42.1242C12.2473 42.0139 11.9882 41.9173 11.729 41.8346C11.4699 41.7242 11.2251 41.6277 10.9948 41.5449H10.9084C10.4765 41.7932 10.0302 42.0415 9.5695 42.2898C9.13759 42.538 8.6769 42.7587 8.18741 42.9518C7.89947 43.0898 7.59714 43.1863 7.28041 43.2415C6.96368 43.2966 6.64695 43.3242 6.33022 43.3242C5.69676 43.3242 5.0777 43.2277 4.47304 43.0346C4.15631 42.9242 3.72441 42.6898 3.17733 42.3311C2.65904 41.9725 2.3999 41.476 2.3999 40.8415C2.3999 40.5932 2.47189 40.2898 2.61585 39.9311C2.90379 39.2966 3.35009 38.8553 3.95475 38.607C4.55942 38.3311 5.22167 38.1932 5.94151 38.1932C6.69014 38.1932 7.48196 38.2898 8.31698 38.4829C9.18078 38.676 9.97261 38.8829 10.6924 39.1035H10.7788C11.585 38.6622 12.5352 38.0829 13.6294 37.3656C14.7523 36.6208 15.9185 35.807 17.1278 34.9242C18.3371 34.0139 19.4745 33.0622 20.5398 32.0691C21.6052 31.076 22.4978 30.0691 23.2176 29.0484C23.9663 28.0277 24.3982 27.0484 24.5133 26.1104C24.5997 25.5311 24.6429 24.9794 24.6429 24.4553C24.6429 22.3311 23.9519 20.7173 22.5698 19.6139C21.2165 18.4829 19.2297 17.9173 16.6095 17.9173C15.2562 17.9173 13.9461 18.207 12.6792 18.7863C11.4123 19.3656 10.3757 20.1794 9.5695 21.2277C8.76328 22.2484 8.36017 23.4484 8.36017 24.8277C8.36017 25.7656 8.53293 26.6484 8.87845 27.476C9.25277 28.276 9.79984 28.938 10.5197 29.4622C11.2395 29.9587 12.1177 30.207 13.1543 30.207C13.4422 30.207 13.7014 30.1794 13.9317 30.1242C14.1909 30.0415 14.45 29.9587 14.7091 29.876C14.7955 29.8484 14.8819 29.8208 14.9683 29.7932C15.0547 29.7656 15.141 29.738 15.2274 29.7104C15.4578 29.6553 15.6161 29.6277 15.7025 29.6277C16.0193 29.6277 16.2928 29.738 16.5231 29.9587C16.7823 30.1518 16.9119 30.3863 16.9119 30.6622C16.9119 30.9932 16.7247 31.2829 16.3504 31.5311C15.9185 31.8346 15.4002 32.0553 14.7955 32.1932C14.1909 32.3035 13.6438 32.3587 13.1543 32.3587C11.6858 32.3587 10.4189 32.0001 9.35354 31.2829C8.31698 30.5656 7.51076 29.6277 6.93489 28.4691C6.38781 27.3104 6.11427 26.0967 6.11427 24.8277C6.11427 23.4208 6.4166 22.1656 7.02127 21.0622C7.62593 19.9311 8.43215 18.9656 9.43993 18.1656C10.4765 17.3656 11.6282 16.7587 12.8952 16.3449C14.1621 15.9035 15.4578 15.6829 16.7823 15.6829C18.8554 15.6829 20.6406 16.0553 22.1379 16.8001C23.6639 17.5449 24.8445 18.5794 25.6795 19.9035C26.5145 21.2001 26.932 22.7311 26.932 24.4966C26.932 24.8001 26.9176 25.1173 26.8888 25.4484C26.86 25.7794 26.8168 26.1242 26.7592 26.4829C26.5001 27.8622 25.8954 29.2139 24.9453 30.538C23.9951 31.8622 22.8577 33.1173 21.5332 34.3035C20.2087 35.4898 18.841 36.5656 17.4301 37.5311C16.0193 38.4966 14.7235 39.338 13.543 40.0553L13.9749 40.2622C14.6372 40.538 15.4434 40.8277 16.3936 41.1311C17.3438 41.4346 18.2939 41.6966 19.2441 41.9173C20.2231 42.138 21.0581 42.2484 21.7492 42.2484C22.4402 42.2484 23.1313 42.1242 23.8223 41.876C24.5133 41.6001 24.8589 41.1035 24.8589 40.3863C24.8589 40.2484 24.7005 40.0829 24.3838 39.8898C23.9519 39.5863 23.7359 39.2277 23.7359 38.8139C23.7359 38.538 23.8367 38.3035 24.0383 38.1104C24.2686 37.9173 24.5421 37.8208 24.8589 37.8208C25.4347 37.8208 25.953 38.0691 26.4137 38.5656C26.9032 39.0622 27.148 39.5863 27.148 40.138C27.148 41.1863 26.86 42.0277 26.2842 42.6622C25.7371 43.3242 25.046 43.7932 24.211 44.0691C23.376 44.3449 22.5554 44.4829 21.7492 44.4829ZM6.02789 41.2966C6.57497 41.2966 7.10765 41.2415 7.62593 41.1311C8.17301 40.9932 8.53293 40.8691 8.70569 40.7587L8.74888 40.6346C8.57612 40.4139 8.17301 40.2346 7.53955 40.0966C6.93489 39.9311 6.34462 39.8484 5.76875 39.8484C5.36564 39.8484 5.02012 39.9035 4.73218 40.0139C4.44424 40.1242 4.30028 40.2898 4.30028 40.5104C4.30028 40.7863 4.47304 40.9932 4.81856 41.1311C5.16408 41.2415 5.56719 41.2966 6.02789 41.2966Z" fill="#F8F9FA"/>
<path d="M41.89 44.0691C39.241 44.0691 37.0815 43.5311 35.4115 42.4553C33.7415 41.407 32.5177 40.0277 31.7403 38.3173C30.9629 36.5794 30.5742 34.7035 30.5742 32.6898C30.5742 31.7518 30.6605 30.8001 30.8333 29.8346C31.0061 28.8691 31.2364 27.9173 31.5244 26.9794C32.3306 24.5794 33.5687 22.4966 35.2387 20.7311C36.9087 18.938 38.9675 17.5725 41.4149 16.6346C43.2577 15.9449 45.1293 15.6001 47.0297 15.6001C48.3254 15.6001 49.5779 15.7656 50.7872 16.0967C52.5148 16.5932 53.8969 17.3932 54.9335 18.4966C55.9701 19.5725 56.7187 20.8415 57.1794 22.3035C57.6401 23.738 57.8704 25.2415 57.8704 26.8139C57.8704 28.138 57.7265 29.4484 57.4385 30.7449C57.1506 32.0139 56.7619 33.2001 56.2724 34.3035C55.4662 36.1242 54.3432 37.7794 52.9036 39.2691C51.4639 40.7311 49.8083 41.8898 47.9367 42.7449C46.0651 43.6277 44.0495 44.0691 41.89 44.0691ZM42.0196 41.7518C43.9776 41.7518 45.7628 41.338 47.3752 40.5104C49.0164 39.6829 50.4273 38.5932 51.6078 37.2415C52.8172 35.8622 53.753 34.3449 54.4152 32.6898C55.0775 31.0346 55.423 29.3794 55.4518 27.7242C54.444 29.1863 53.2779 30.2484 51.9534 30.9104C50.6289 31.5725 49.3188 31.9035 48.0231 31.9035C47.3608 31.9035 46.6986 31.8208 46.0363 31.6553C44.8846 31.3518 43.9776 30.8966 43.3153 30.2898C42.6531 29.6829 42.178 29.007 41.89 28.2622C41.6021 27.5173 41.4581 26.8139 41.4581 26.1518C41.4581 25.4346 41.5877 24.8139 41.8468 24.2898C42.1348 23.7656 42.4659 23.5035 42.8402 23.5035C43.0994 23.5035 43.3585 23.6415 43.6176 23.9173C43.9344 24.2208 44.0495 24.5794 43.9632 24.9932C43.848 25.407 43.7904 25.8346 43.7904 26.276C43.7904 27.4346 44.1791 28.2898 44.9565 28.8415C45.7628 29.3656 46.6986 29.6277 47.7639 29.6277C48.8005 29.6277 49.837 29.407 50.8736 28.9656C51.9102 28.4966 52.774 27.8208 53.465 26.938C54.1849 26.0553 54.5448 24.9932 54.5448 23.7518C54.5448 22.3725 54.1705 21.2691 53.4218 20.4415C52.6732 19.5863 51.7086 18.9656 50.5281 18.5794C49.3476 18.1932 48.1094 18.0001 46.8137 18.0001C45.2013 18.0001 43.704 18.2622 42.3219 18.7863C40.22 19.5863 38.4492 20.7587 37.0095 22.3035C35.5986 23.8484 34.5621 25.6553 33.8998 27.7242C33.3239 29.5449 33.036 31.2967 33.036 32.9794C33.036 34.5518 33.3239 36.0139 33.8998 37.3656C34.5045 38.6898 35.4691 39.7518 36.7936 40.5518C38.1181 41.3518 39.8601 41.7518 42.0196 41.7518Z" fill="#F8F9FA"/>
<path d="M78.1412 44.4829C76.7591 44.4829 75.2331 44.2208 73.563 43.6967C71.9218 43.1725 70.367 42.6484 68.8985 42.1242C68.6393 42.0139 68.3802 41.9173 68.1211 41.8346C67.8619 41.7242 67.6172 41.6277 67.3868 41.5449H67.3004C66.8685 41.7932 66.4222 42.0415 65.9615 42.2898C65.5296 42.538 65.0689 42.7587 64.5795 42.9518C64.2915 43.0898 63.9892 43.1863 63.6725 43.2415C63.3557 43.2966 63.039 43.3242 62.7223 43.3242C62.0888 43.3242 61.4698 43.2277 60.8651 43.0346C60.5484 42.9242 60.1165 42.6898 59.5694 42.3311C59.0511 41.9725 58.792 41.476 58.792 40.8415C58.792 40.5932 58.8639 40.2898 59.0079 39.9311C59.2958 39.2966 59.7421 38.8553 60.3468 38.607C60.9515 38.3311 61.6137 38.1932 62.3336 38.1932C63.0822 38.1932 63.874 38.2898 64.709 38.4829C65.5728 38.676 66.3647 38.8829 67.0845 39.1035H67.1709C67.9771 38.6622 68.9273 38.0829 70.0214 37.3656C71.1444 36.6208 72.3105 35.807 73.5199 34.9242C74.7292 34.0139 75.8665 33.0622 76.9319 32.0691C77.9973 31.076 78.8898 30.0691 79.6097 29.0484C80.3583 28.0277 80.7902 27.0484 80.9054 26.1104C80.9918 25.5311 81.035 24.9794 81.035 24.4553C81.035 22.3311 80.3439 20.7173 78.9618 19.6139C77.6085 18.4829 75.6218 17.9173 73.0016 17.9173C71.6483 17.9173 70.3382 18.207 69.0713 18.7863C67.8043 19.3656 66.7678 20.1794 65.9615 21.2277C65.1553 22.2484 64.7522 23.4484 64.7522 24.8277C64.7522 25.7656 64.925 26.6484 65.2705 27.476C65.6448 28.276 66.1919 28.938 66.9117 29.4622C67.6316 29.9587 68.5098 30.207 69.5463 30.207C69.8343 30.207 70.0934 30.1794 70.3238 30.1242C70.5829 30.0415 70.8421 29.9587 71.1012 29.876C71.1876 29.8484 71.274 29.8208 71.3603 29.7932C71.4467 29.7656 71.5331 29.738 71.6195 29.7104C71.8498 29.6553 72.0082 29.6277 72.0946 29.6277C72.4113 29.6277 72.6848 29.738 72.9152 29.9587C73.1743 30.1518 73.3039 30.3863 73.3039 30.6622C73.3039 30.9932 73.1167 31.2829 72.7424 31.5311C72.3105 31.8346 71.7922 32.0553 71.1876 32.1932C70.5829 32.3035 70.0358 32.3587 69.5463 32.3587C68.0779 32.3587 66.811 32.0001 65.7456 31.2829C64.709 30.5656 63.9028 29.6277 63.3269 28.4691C62.7799 27.3104 62.5063 26.0967 62.5063 24.8277C62.5063 23.4208 62.8087 22.1656 63.4133 21.0622C64.018 19.9311 64.8242 18.9656 65.832 18.1656C66.8685 17.3656 68.0203 16.7587 69.2872 16.3449C70.5541 15.9035 71.8498 15.6829 73.1743 15.6829C75.2475 15.6829 77.0327 16.0553 78.5299 16.8001C80.056 17.5449 81.2365 18.5794 82.0715 19.9035C82.9066 21.2001 83.3241 22.7311 83.3241 24.4966C83.3241 24.8001 83.3097 25.1173 83.2809 25.4484C83.2521 25.7794 83.2089 26.1242 83.1513 26.4829C82.8922 27.8622 82.2875 29.2139 81.3373 30.538C80.3871 31.8622 79.2498 33.1173 77.9253 34.3035C76.6008 35.4898 75.2331 36.5656 73.8222 37.5311C72.4113 38.4966 71.1156 39.338 69.9351 40.0553L70.367 40.2622C71.0292 40.538 71.8354 40.8277 72.7856 41.1311C73.7358 41.4346 74.686 41.6966 75.6362 41.9173C76.6152 42.138 77.4502 42.2484 78.1412 42.2484C78.8323 42.2484 79.5233 42.1242 80.2144 41.876C80.9054 41.6001 81.2509 41.1035 81.2509 40.3863C81.2509 40.2484 81.0926 40.0829 80.7758 39.8898C80.3439 39.5863 80.128 39.2277 80.128 38.8139C80.128 38.538 80.2288 38.3035 80.4303 38.1104C80.6607 37.9173 80.9342 37.8208 81.2509 37.8208C81.8268 37.8208 82.3451 38.0691 82.8058 38.5656C83.2953 39.0622 83.54 39.5863 83.54 40.138C83.54 41.1863 83.2521 42.0277 82.6762 42.6622C82.1291 43.3242 81.4381 43.7932 80.6031 44.0691C79.7681 44.3449 78.9474 44.4829 78.1412 44.4829ZM62.4199 41.2966C62.967 41.2966 63.4997 41.2415 64.018 41.1311C64.5651 40.9932 64.925 40.8691 65.0977 40.7587L65.1409 40.6346C64.9682 40.4139 64.5651 40.2346 63.9316 40.0966C63.3269 39.9311 62.7367 39.8484 62.1608 39.8484C61.7577 39.8484 61.4122 39.9035 61.1242 40.0139C60.8363 40.1242 60.6923 40.2898 60.6923 40.5104C60.6923 40.7863 60.8651 40.9932 61.2106 41.1311C61.5561 41.2415 61.9592 41.2966 62.4199 41.2966Z" fill="#F8F9FA"/>
<path d="M94.5245 45.6001C93.4016 45.6001 92.293 45.3932 91.1989 44.9794C90.1335 44.5656 89.1545 44.0001 88.2619 43.2829C87.3693 42.5656 86.6639 41.7518 86.1456 40.8415C85.6273 39.9035 85.3682 38.9242 85.3682 37.9035C85.3682 37.3518 85.4546 36.7863 85.6273 36.207C85.8289 35.6277 86.1312 35.0484 86.5343 34.4691C87.0238 33.7794 87.6429 33.2829 88.3915 32.9794C89.1689 32.676 89.9607 32.5242 90.767 32.5242C91.6884 32.5242 92.581 32.7173 93.4448 33.1035C94.3086 33.4622 95.014 33.9863 95.5611 34.676C96.1082 35.338 96.3817 36.1242 96.3817 37.0346C96.3817 37.5035 96.2809 37.8484 96.0794 38.0691C95.9066 38.2622 95.6763 38.3587 95.3883 38.3587C95.1004 38.3587 94.8125 38.2484 94.5245 38.0277C94.2654 37.7794 94.1214 37.4622 94.0926 37.076C94.0638 36.3587 93.7327 35.807 93.0992 35.4208C92.4658 35.007 91.8611 34.8001 91.2852 34.8001C90.0759 34.8001 89.1833 35.1035 88.6075 35.7104C88.0316 36.3173 87.7436 37.0346 87.7436 37.8622C87.7436 38.6898 88.0172 39.5449 88.5643 40.4277C89.1113 41.3104 89.9032 42.0415 90.9397 42.6208C91.9763 43.2277 93.2432 43.5311 94.7405 43.5311C96.0074 43.5311 97.2743 43.3656 98.5412 43.0346C99.8369 42.7311 101.017 42.2484 102.083 41.5863C103.148 40.8966 103.998 40.0415 104.631 39.0208C105.293 38.0001 105.624 36.7863 105.624 35.3794C105.624 32.5104 104.458 30.4966 102.126 29.338H102.04C101.147 29.807 100.197 30.138 99.1891 30.3311C98.1813 30.4966 97.1735 30.5794 96.1658 30.5794C95.7626 30.5794 95.2588 30.538 94.6541 30.4553C94.0782 30.3449 93.5599 30.138 93.0992 29.8346C92.6385 29.5311 92.4082 29.0622 92.4082 28.4277C92.4082 27.9311 92.6097 27.5449 93.0129 27.2691C93.4448 26.9656 93.963 26.7449 94.5677 26.607C95.1724 26.4691 95.777 26.3725 96.3817 26.3173C97.0152 26.2622 97.5478 26.2346 97.9798 26.2346C99.2755 26.2346 100.499 26.4277 101.651 26.8139H101.737C102.572 26.1794 103.191 25.5449 103.594 24.9104C103.998 24.2484 104.199 23.4898 104.199 22.6346C104.199 22.4691 104.185 22.3035 104.156 22.138C104.156 21.9725 104.142 21.7932 104.113 21.6001C103.94 20.4415 103.335 19.5449 102.299 18.9104C101.291 18.276 100.197 17.9587 99.0163 17.9587C98.2101 17.9587 97.3319 18.0553 96.3817 18.2484C95.4603 18.4139 94.7549 18.8277 94.2654 19.4898C94.035 19.7932 93.9199 20.0691 93.9199 20.3173C93.9199 20.6484 94.0926 20.8829 94.4381 21.0208C94.7837 21.1311 95.1292 21.2415 95.4747 21.3518C96.0506 21.5173 96.3385 21.8484 96.3385 22.3449C96.3385 23.2001 95.6763 23.6277 94.3518 23.6277C93.7759 23.6277 93.2288 23.4484 92.7105 23.0898C92.3074 22.8139 92.0195 22.4553 91.8467 22.0139C91.674 21.5449 91.5876 21.0898 91.5876 20.6484C91.5876 20.5104 91.5876 20.3587 91.5876 20.1932C91.6164 20.0277 91.6452 19.876 91.674 19.738C91.9331 18.607 92.437 17.7656 93.1856 17.2139C93.963 16.6346 94.8556 16.2484 95.8634 16.0553C96.9 15.8346 97.8934 15.7242 98.8436 15.7242C99.9953 15.7242 101.118 15.9725 102.212 16.4691C103.335 16.9656 104.286 17.6553 105.063 18.538C105.84 19.3932 106.287 20.4139 106.402 21.6001C106.431 21.7932 106.445 21.9725 106.445 22.138C106.445 22.3035 106.445 22.4829 106.445 22.676C106.445 24.6622 105.653 26.4001 104.07 27.8898V28.0139C105.337 28.8691 106.301 29.9449 106.963 31.2415C107.654 32.538 108 33.9173 108 35.3794C108 36.8139 107.611 38.2484 106.834 39.6829C106.085 41.0898 104.876 42.3173 103.206 43.3656C101.939 44.1656 100.542 44.7311 99.0163 45.0622C97.5191 45.4208 96.0218 45.6001 94.5245 45.6001ZM96.3817 29.2966C97.1303 29.2966 97.9366 29.1863 98.8004 28.9656C99.6642 28.7173 100.211 28.4553 100.442 28.1794L100.398 28.0553C100.197 27.9173 99.7649 27.7932 99.1027 27.6829C98.4692 27.5725 97.8214 27.5173 97.1591 27.5173C96.5257 27.5173 95.9498 27.5863 95.4315 27.7242C94.942 27.8622 94.6973 28.1242 94.6973 28.5104C94.6973 28.7863 94.8556 28.9932 95.1724 29.1311C95.4891 29.2415 95.8922 29.2966 96.3817 29.2966Z" fill="#F8F9FA"/>
<path d="M21.7492 44.4829C20.3671 44.4829 18.841 44.2208 17.171 43.6967C15.5298 43.1725 13.9749 42.6484 12.5064 42.1242C12.2473 42.0139 11.9882 41.9173 11.729 41.8346C11.4699 41.7242 11.2251 41.6277 10.9948 41.5449H10.9084C10.4765 41.7932 10.0302 42.0415 9.5695 42.2898C9.13759 42.538 8.6769 42.7587 8.18741 42.9518C7.89947 43.0898 7.59714 43.1863 7.28041 43.2415C6.96368 43.2966 6.64695 43.3242 6.33022 43.3242C5.69676 43.3242 5.0777 43.2277 4.47304 43.0346C4.15631 42.9242 3.72441 42.6898 3.17733 42.3311C2.65904 41.9725 2.3999 41.476 2.3999 40.8415C2.3999 40.5932 2.47189 40.2898 2.61585 39.9311C2.90379 39.2966 3.35009 38.8553 3.95475 38.607C4.55942 38.3311 5.22167 38.1932 5.94151 38.1932C6.69014 38.1932 7.48196 38.2898 8.31698 38.4829C9.18078 38.676 9.97261 38.8829 10.6924 39.1035H10.7788C11.585 38.6622 12.5352 38.0829 13.6294 37.3656C14.7523 36.6208 15.9185 35.807 17.1278 34.9242C18.3371 34.0139 19.4745 33.0622 20.5398 32.0691C21.6052 31.076 22.4978 30.0691 23.2176 29.0484C23.9663 28.0277 24.3982 27.0484 24.5133 26.1104C24.5997 25.5311 24.6429 24.9794 24.6429 24.4553C24.6429 22.3311 23.9519 20.7173 22.5698 19.6139C21.2165 18.4829 19.2297 17.9173 16.6095 17.9173C15.2562 17.9173 13.9461 18.207 12.6792 18.7863C11.4123 19.3656 10.3757 20.1794 9.5695 21.2277C8.76328 22.2484 8.36017 23.4484 8.36017 24.8277C8.36017 25.7656 8.53293 26.6484 8.87845 27.476C9.25277 28.276 9.79984 28.938 10.5197 29.4622C11.2395 29.9587 12.1177 30.207 13.1543 30.207C13.4422 30.207 13.7014 30.1794 13.9317 30.1242C14.1909 30.0415 14.45 29.9587 14.7091 29.876C14.7955 29.8484 14.8819 29.8208 14.9683 29.7932C15.0547 29.7656 15.141 29.738 15.2274 29.7104C15.4578 29.6553 15.6161 29.6277 15.7025 29.6277C16.0193 29.6277 16.2928 29.738 16.5231 29.9587C16.7823 30.1518 16.9119 30.3863 16.9119 30.6622C16.9119 30.9932 16.7247 31.2829 16.3504 31.5311C15.9185 31.8346 15.4002 32.0553 14.7955 32.1932C14.1909 32.3035 13.6438 32.3587 13.1543 32.3587C11.6858 32.3587 10.4189 32.0001 9.35354 31.2829C8.31698 30.5656 7.51076 29.6277 6.93489 28.4691C6.38781 27.3104 6.11427 26.0967 6.11427 24.8277C6.11427 23.4208 6.4166 22.1656 7.02127 21.0622C7.62593 19.9311 8.43215 18.9656 9.43993 18.1656C10.4765 17.3656 11.6282 16.7587 12.8952 16.3449C14.1621 15.9035 15.4578 15.6829 16.7823 15.6829C18.8554 15.6829 20.6406 16.0553 22.1379 16.8001C23.6639 17.5449 24.8445 18.5794 25.6795 19.9035C26.5145 21.2001 26.932 22.7311 26.932 24.4966C26.932 24.8001 26.9176 25.1173 26.8888 25.4484C26.86 25.7794 26.8168 26.1242 26.7592 26.4829C26.5001 27.8622 25.8954 29.2139 24.9453 30.538C23.9951 31.8622 22.8577 33.1173 21.5332 34.3035C20.2087 35.4898 18.841 36.5656 17.4301 37.5311C16.0193 38.4966 14.7235 39.338 13.543 40.0553L13.9749 40.2622C14.6372 40.538 15.4434 40.8277 16.3936 41.1311C17.3438 41.4346 18.2939 41.6966 19.2441 41.9173C20.2231 42.138 21.0581 42.2484 21.7492 42.2484C22.4402 42.2484 23.1313 42.1242 23.8223 41.876C24.5133 41.6001 24.8589 41.1035 24.8589 40.3863C24.8589 40.2484 24.7005 40.0829 24.3838 39.8898C23.9519 39.5863 23.7359 39.2277 23.7359 38.8139C23.7359 38.538 23.8367 38.3035 24.0383 38.1104C24.2686 37.9173 24.5421 37.8208 24.8589 37.8208C25.4347 37.8208 25.953 38.0691 26.4137 38.5656C26.9032 39.0622 27.148 39.5863 27.148 40.138C27.148 41.1863 26.86 42.0277 26.2842 42.6622C25.7371 43.3242 25.046 43.7932 24.211 44.0691C23.376 44.3449 22.5554 44.4829 21.7492 44.4829ZM6.02789 41.2966C6.57497 41.2966 7.10765 41.2415 7.62593 41.1311C8.17301 40.9932 8.53293 40.8691 8.70569 40.7587L8.74888 40.6346C8.57612 40.4139 8.17301 40.2346 7.53955 40.0966C6.93489 39.9311 6.34462 39.8484 5.76875 39.8484C5.36564 39.8484 5.02012 39.9035 4.73218 40.0139C4.44424 40.1242 4.30028 40.2898 4.30028 40.5104C4.30028 40.7863 4.47304 40.9932 4.81856 41.1311C5.16408 41.2415 5.56719 41.2966 6.02789 41.2966Z" stroke="#F8F9FA" stroke-width="2.4" mask="url(#path-1-outside-1_472_47785)"/>
<path d="M41.89 44.0691C39.241 44.0691 37.0815 43.5311 35.4115 42.4553C33.7415 41.407 32.5177 40.0277 31.7403 38.3173C30.9629 36.5794 30.5742 34.7035 30.5742 32.6898C30.5742 31.7518 30.6605 30.8001 30.8333 29.8346C31.0061 28.8691 31.2364 27.9173 31.5244 26.9794C32.3306 24.5794 33.5687 22.4966 35.2387 20.7311C36.9087 18.938 38.9675 17.5725 41.4149 16.6346C43.2577 15.9449 45.1293 15.6001 47.0297 15.6001C48.3254 15.6001 49.5779 15.7656 50.7872 16.0967C52.5148 16.5932 53.8969 17.3932 54.9335 18.4966C55.9701 19.5725 56.7187 20.8415 57.1794 22.3035C57.6401 23.738 57.8704 25.2415 57.8704 26.8139C57.8704 28.138 57.7265 29.4484 57.4385 30.7449C57.1506 32.0139 56.7619 33.2001 56.2724 34.3035C55.4662 36.1242 54.3432 37.7794 52.9036 39.2691C51.4639 40.7311 49.8083 41.8898 47.9367 42.7449C46.0651 43.6277 44.0495 44.0691 41.89 44.0691ZM42.0196 41.7518C43.9776 41.7518 45.7628 41.338 47.3752 40.5104C49.0164 39.6829 50.4273 38.5932 51.6078 37.2415C52.8172 35.8622 53.753 34.3449 54.4152 32.6898C55.0775 31.0346 55.423 29.3794 55.4518 27.7242C54.444 29.1863 53.2779 30.2484 51.9534 30.9104C50.6289 31.5725 49.3188 31.9035 48.0231 31.9035C47.3608 31.9035 46.6986 31.8208 46.0363 31.6553C44.8846 31.3518 43.9776 30.8966 43.3153 30.2898C42.6531 29.6829 42.178 29.007 41.89 28.2622C41.6021 27.5173 41.4581 26.8139 41.4581 26.1518C41.4581 25.4346 41.5877 24.8139 41.8468 24.2898C42.1348 23.7656 42.4659 23.5035 42.8402 23.5035C43.0994 23.5035 43.3585 23.6415 43.6176 23.9173C43.9344 24.2208 44.0495 24.5794 43.9632 24.9932C43.848 25.407 43.7904 25.8346 43.7904 26.276C43.7904 27.4346 44.1791 28.2898 44.9565 28.8415C45.7628 29.3656 46.6986 29.6277 47.7639 29.6277C48.8005 29.6277 49.837 29.407 50.8736 28.9656C51.9102 28.4966 52.774 27.8208 53.465 26.938C54.1849 26.0553 54.5448 24.9932 54.5448 23.7518C54.5448 22.3725 54.1705 21.2691 53.4218 20.4415C52.6732 19.5863 51.7086 18.9656 50.5281 18.5794C49.3476 18.1932 48.1094 18.0001 46.8137 18.0001C45.2013 18.0001 43.704 18.2622 42.3219 18.7863C40.22 19.5863 38.4492 20.7587 37.0095 22.3035C35.5986 23.8484 34.5621 25.6553 33.8998 27.7242C33.3239 29.5449 33.036 31.2967 33.036 32.9794C33.036 34.5518 33.3239 36.0139 33.8998 37.3656C34.5045 38.6898 35.4691 39.7518 36.7936 40.5518C38.1181 41.3518 39.8601 41.7518 42.0196 41.7518Z" stroke="#F8F9FA" stroke-width="2.4" mask="url(#path-1-outside-1_472_47785)"/>
<path d="M78.1412 44.4829C76.7591 44.4829 75.2331 44.2208 73.563 43.6967C71.9218 43.1725 70.367 42.6484 68.8985 42.1242C68.6393 42.0139 68.3802 41.9173 68.1211 41.8346C67.8619 41.7242 67.6172 41.6277 67.3868 41.5449H67.3004C66.8685 41.7932 66.4222 42.0415 65.9615 42.2898C65.5296 42.538 65.0689 42.7587 64.5795 42.9518C64.2915 43.0898 63.9892 43.1863 63.6725 43.2415C63.3557 43.2966 63.039 43.3242 62.7223 43.3242C62.0888 43.3242 61.4698 43.2277 60.8651 43.0346C60.5484 42.9242 60.1165 42.6898 59.5694 42.3311C59.0511 41.9725 58.792 41.476 58.792 40.8415C58.792 40.5932 58.8639 40.2898 59.0079 39.9311C59.2958 39.2966 59.7421 38.8553 60.3468 38.607C60.9515 38.3311 61.6137 38.1932 62.3336 38.1932C63.0822 38.1932 63.874 38.2898 64.709 38.4829C65.5728 38.676 66.3647 38.8829 67.0845 39.1035H67.1709C67.9771 38.6622 68.9273 38.0829 70.0214 37.3656C71.1444 36.6208 72.3105 35.807 73.5199 34.9242C74.7292 34.0139 75.8665 33.0622 76.9319 32.0691C77.9973 31.076 78.8898 30.0691 79.6097 29.0484C80.3583 28.0277 80.7902 27.0484 80.9054 26.1104C80.9918 25.5311 81.035 24.9794 81.035 24.4553C81.035 22.3311 80.3439 20.7173 78.9618 19.6139C77.6085 18.4829 75.6218 17.9173 73.0016 17.9173C71.6483 17.9173 70.3382 18.207 69.0713 18.7863C67.8043 19.3656 66.7678 20.1794 65.9615 21.2277C65.1553 22.2484 64.7522 23.4484 64.7522 24.8277C64.7522 25.7656 64.925 26.6484 65.2705 27.476C65.6448 28.276 66.1919 28.938 66.9117 29.4622C67.6316 29.9587 68.5098 30.207 69.5463 30.207C69.8343 30.207 70.0934 30.1794 70.3238 30.1242C70.5829 30.0415 70.8421 29.9587 71.1012 29.876C71.1876 29.8484 71.274 29.8208 71.3603 29.7932C71.4467 29.7656 71.5331 29.738 71.6195 29.7104C71.8498 29.6553 72.0082 29.6277 72.0946 29.6277C72.4113 29.6277 72.6848 29.738 72.9152 29.9587C73.1743 30.1518 73.3039 30.3863 73.3039 30.6622C73.3039 30.9932 73.1167 31.2829 72.7424 31.5311C72.3105 31.8346 71.7922 32.0553 71.1876 32.1932C70.5829 32.3035 70.0358 32.3587 69.5463 32.3587C68.0779 32.3587 66.811 32.0001 65.7456 31.2829C64.709 30.5656 63.9028 29.6277 63.3269 28.4691C62.7799 27.3104 62.5063 26.0967 62.5063 24.8277C62.5063 23.4208 62.8087 22.1656 63.4133 21.0622C64.018 19.9311 64.8242 18.9656 65.832 18.1656C66.8685 17.3656 68.0203 16.7587 69.2872 16.3449C70.5541 15.9035 71.8498 15.6829 73.1743 15.6829C75.2475 15.6829 77.0327 16.0553 78.5299 16.8001C80.056 17.5449 81.2365 18.5794 82.0715 19.9035C82.9066 21.2001 83.3241 22.7311 83.3241 24.4966C83.3241 24.8001 83.3097 25.1173 83.2809 25.4484C83.2521 25.7794 83.2089 26.1242 83.1513 26.4829C82.8922 27.8622 82.2875 29.2139 81.3373 30.538C80.3871 31.8622 79.2498 33.1173 77.9253 34.3035C76.6008 35.4898 75.2331 36.5656 73.8222 37.5311C72.4113 38.4966 71.1156 39.338 69.9351 40.0553L70.367 40.2622C71.0292 40.538 71.8354 40.8277 72.7856 41.1311C73.7358 41.4346 74.686 41.6966 75.6362 41.9173C76.6152 42.138 77.4502 42.2484 78.1412 42.2484C78.8323 42.2484 79.5233 42.1242 80.2144 41.876C80.9054 41.6001 81.2509 41.1035 81.2509 40.3863C81.2509 40.2484 81.0926 40.0829 80.7758 39.8898C80.3439 39.5863 80.128 39.2277 80.128 38.8139C80.128 38.538 80.2288 38.3035 80.4303 38.1104C80.6607 37.9173 80.9342 37.8208 81.2509 37.8208C81.8268 37.8208 82.3451 38.0691 82.8058 38.5656C83.2953 39.0622 83.54 39.5863 83.54 40.138C83.54 41.1863 83.2521 42.0277 82.6762 42.6622C82.1291 43.3242 81.4381 43.7932 80.6031 44.0691C79.7681 44.3449 78.9474 44.4829 78.1412 44.4829ZM62.4199 41.2966C62.967 41.2966 63.4997 41.2415 64.018 41.1311C64.5651 40.9932 64.925 40.8691 65.0977 40.7587L65.1409 40.6346C64.9682 40.4139 64.5651 40.2346 63.9316 40.0966C63.3269 39.9311 62.7367 39.8484 62.1608 39.8484C61.7577 39.8484 61.4122 39.9035 61.1242 40.0139C60.8363 40.1242 60.6923 40.2898 60.6923 40.5104C60.6923 40.7863 60.8651 40.9932 61.2106 41.1311C61.5561 41.2415 61.9592 41.2966 62.4199 41.2966Z" stroke="#F8F9FA" stroke-width="2.4" mask="url(#path-1-outside-1_472_47785)"/>
<path d="M94.5245 45.6001C93.4016 45.6001 92.293 45.3932 91.1989 44.9794C90.1335 44.5656 89.1545 44.0001 88.2619 43.2829C87.3693 42.5656 86.6639 41.7518 86.1456 40.8415C85.6273 39.9035 85.3682 38.9242 85.3682 37.9035C85.3682 37.3518 85.4546 36.7863 85.6273 36.207C85.8289 35.6277 86.1312 35.0484 86.5343 34.4691C87.0238 33.7794 87.6429 33.2829 88.3915 32.9794C89.1689 32.676 89.9607 32.5242 90.767 32.5242C91.6884 32.5242 92.581 32.7173 93.4448 33.1035C94.3086 33.4622 95.014 33.9863 95.5611 34.676C96.1082 35.338 96.3817 36.1242 96.3817 37.0346C96.3817 37.5035 96.2809 37.8484 96.0794 38.0691C95.9066 38.2622 95.6763 38.3587 95.3883 38.3587C95.1004 38.3587 94.8125 38.2484 94.5245 38.0277C94.2654 37.7794 94.1214 37.4622 94.0926 37.076C94.0638 36.3587 93.7327 35.807 93.0992 35.4208C92.4658 35.007 91.8611 34.8001 91.2852 34.8001C90.0759 34.8001 89.1833 35.1035 88.6075 35.7104C88.0316 36.3173 87.7436 37.0346 87.7436 37.8622C87.7436 38.6898 88.0172 39.5449 88.5643 40.4277C89.1113 41.3104 89.9032 42.0415 90.9397 42.6208C91.9763 43.2277 93.2432 43.5311 94.7405 43.5311C96.0074 43.5311 97.2743 43.3656 98.5412 43.0346C99.8369 42.7311 101.017 42.2484 102.083 41.5863C103.148 40.8966 103.998 40.0415 104.631 39.0208C105.293 38.0001 105.624 36.7863 105.624 35.3794C105.624 32.5104 104.458 30.4966 102.126 29.338H102.04C101.147 29.807 100.197 30.138 99.1891 30.3311C98.1813 30.4966 97.1735 30.5794 96.1658 30.5794C95.7626 30.5794 95.2588 30.538 94.6541 30.4553C94.0782 30.3449 93.5599 30.138 93.0992 29.8346C92.6385 29.5311 92.4082 29.0622 92.4082 28.4277C92.4082 27.9311 92.6097 27.5449 93.0129 27.2691C93.4448 26.9656 93.963 26.7449 94.5677 26.607C95.1724 26.4691 95.777 26.3725 96.3817 26.3173C97.0152 26.2622 97.5478 26.2346 97.9798 26.2346C99.2755 26.2346 100.499 26.4277 101.651 26.8139H101.737C102.572 26.1794 103.191 25.5449 103.594 24.9104C103.998 24.2484 104.199 23.4898 104.199 22.6346C104.199 22.4691 104.185 22.3035 104.156 22.138C104.156 21.9725 104.142 21.7932 104.113 21.6001C103.94 20.4415 103.335 19.5449 102.299 18.9104C101.291 18.276 100.197 17.9587 99.0163 17.9587C98.2101 17.9587 97.3319 18.0553 96.3817 18.2484C95.4603 18.4139 94.7549 18.8277 94.2654 19.4898C94.035 19.7932 93.9199 20.0691 93.9199 20.3173C93.9199 20.6484 94.0926 20.8829 94.4381 21.0208C94.7837 21.1311 95.1292 21.2415 95.4747 21.3518C96.0506 21.5173 96.3385 21.8484 96.3385 22.3449C96.3385 23.2001 95.6763 23.6277 94.3518 23.6277C93.7759 23.6277 93.2288 23.4484 92.7105 23.0898C92.3074 22.8139 92.0195 22.4553 91.8467 22.0139C91.674 21.5449 91.5876 21.0898 91.5876 20.6484C91.5876 20.5104 91.5876 20.3587 91.5876 20.1932C91.6164 20.0277 91.6452 19.876 91.674 19.738C91.9331 18.607 92.437 17.7656 93.1856 17.2139C93.963 16.6346 94.8556 16.2484 95.8634 16.0553C96.9 15.8346 97.8934 15.7242 98.8436 15.7242C99.9953 15.7242 101.118 15.9725 102.212 16.4691C103.335 16.9656 104.286 17.6553 105.063 18.538C105.84 19.3932 106.287 20.4139 106.402 21.6001C106.431 21.7932 106.445 21.9725 106.445 22.138C106.445 22.3035 106.445 22.4829 106.445 22.676C106.445 24.6622 105.653 26.4001 104.07 27.8898V28.0139C105.337 28.8691 106.301 29.9449 106.963 31.2415C107.654 32.538 108 33.9173 108 35.3794C108 36.8139 107.611 38.2484 106.834 39.6829C106.085 41.0898 104.876 42.3173 103.206 43.3656C101.939 44.1656 100.542 44.7311 99.0163 45.0622C97.5191 45.4208 96.0218 45.6001 94.5245 45.6001ZM96.3817 29.2966C97.1303 29.2966 97.9366 29.1863 98.8004 28.9656C99.6642 28.7173 100.211 28.4553 100.442 28.1794L100.398 28.0553C100.197 27.9173 99.7649 27.7932 99.1027 27.6829C98.4692 27.5725 97.8214 27.5173 97.1591 27.5173C96.5257 27.5173 95.9498 27.5863 95.4315 27.7242C94.942 27.8622 94.6973 28.1242 94.6973 28.5104C94.6973 28.7863 94.8556 28.9932 95.1724 29.1311C95.4891 29.2415 95.8922 29.2966 96.3817 29.2966Z" stroke="#F8F9FA" stroke-width="2.4" mask="url(#path-1-outside-1_472_47785)"/>
<path d="M2.0913 13.1152C1.8033 13.1152 1.5825 13.0384 1.4289 12.8848C1.2753 12.7216 1.1985 12.4912 1.1985 12.1936V3.64C1.1985 3.3424 1.2753 3.1168 1.4289 2.9632C1.5825 2.8096 1.8033 2.7328 2.0913 2.7328C2.3793 2.7328 2.6001 2.8096 2.7537 2.9632C2.9169 3.1168 2.9985 3.3424 2.9985 3.64V8.9536H3.0273L5.4033 6.448C5.5953 6.256 5.7633 6.1072 5.9073 6.0016C6.0513 5.896 6.2481 5.8432 6.4977 5.8432C6.7473 5.8432 6.9345 5.9104 7.0593 6.0448C7.1937 6.1696 7.2609 6.3232 7.2609 6.5056C7.2609 6.688 7.1745 6.8704 7.0017 7.0528L4.4961 9.7024V8.9536L7.2465 11.92C7.4193 12.1024 7.4961 12.2896 7.4769 12.4816C7.4673 12.664 7.3905 12.8176 7.2465 12.9424C7.1025 13.0576 6.9201 13.1152 6.6993 13.1152C6.4305 13.1152 6.2145 13.0624 6.0513 12.9568C5.8977 12.8512 5.7249 12.6928 5.5329 12.4816L3.0273 9.8608H2.9985V12.1936C2.9985 12.808 2.6961 13.1152 2.0913 13.1152ZM11.9894 13.144C11.2598 13.144 10.6262 12.9952 10.0886 12.6976C9.55098 12.4 9.13338 11.9776 8.83578 11.4304C8.53818 10.8736 8.38938 10.2208 8.38938 9.472C8.38938 8.9056 8.47098 8.4016 8.63418 7.96C8.80698 7.5088 9.05178 7.1248 9.36858 6.808C9.68538 6.4816 10.0646 6.2368 10.5062 6.0736C10.9478 5.9008 11.4422 5.8144 11.9894 5.8144C12.719 5.8144 13.3526 5.9632 13.8902 6.2608C14.4278 6.5584 14.8454 6.9808 15.143 7.528C15.4406 8.0752 15.5894 8.7232 15.5894 9.472C15.5894 10.0384 15.503 10.5472 15.3302 10.9984C15.167 11.4496 14.927 11.8384 14.6102 12.1648C14.2934 12.4816 13.9142 12.7264 13.4726 12.8992C13.031 13.0624 12.5366 13.144 11.9894 13.144ZM11.9894 11.776C12.3446 11.776 12.6566 11.6896 12.9254 11.5168C13.1942 11.344 13.4006 11.0896 13.5446 10.7536C13.6982 10.408 13.775 9.9808 13.775 9.472C13.775 8.704 13.6118 8.1328 13.2854 7.7584C12.959 7.3744 12.527 7.1824 11.9894 7.1824C11.6342 7.1824 11.3222 7.2688 11.0534 7.4416C10.7846 7.6048 10.5734 7.8592 10.4198 8.2048C10.2758 8.5408 10.2038 8.9632 10.2038 9.472C10.2038 10.2304 10.367 10.8064 10.6934 11.2C11.0198 11.584 11.4518 11.776 11.9894 11.776ZM19.7823 13.144C19.1679 13.144 18.6255 12.9952 18.1551 12.6976C17.6943 12.4 17.3343 11.9776 17.0751 11.4304C16.8159 10.8736 16.6863 10.2208 16.6863 9.472C16.6863 8.7136 16.8159 8.0656 17.0751 7.528C17.3343 6.9808 17.6943 6.5584 18.1551 6.2608C18.6255 5.9632 19.1679 5.8144 19.7823 5.8144C20.3679 5.8144 20.8767 5.9584 21.3087 6.2464C21.7503 6.5344 22.0479 6.9136 22.2015 7.384H22.0431V3.64C22.0431 3.3424 22.1199 3.1168 22.2735 2.9632C22.4271 2.8096 22.6479 2.7328 22.9359 2.7328C23.2239 2.7328 23.4447 2.8096 23.5983 2.9632C23.7615 3.1168 23.8431 3.3424 23.8431 3.64V12.1936C23.8431 12.4912 23.7663 12.7216 23.6127 12.8848C23.4591 13.0384 23.2383 13.1152 22.9503 13.1152C22.6623 13.1152 22.4415 13.0384 22.2879 12.8848C22.1343 12.7216 22.0575 12.4912 22.0575 12.1936V11.0704L22.2159 11.5024C22.0719 12.0016 21.7791 12.4 21.3375 12.6976C20.8959 12.9952 20.3775 13.144 19.7823 13.144ZM20.2863 11.776C20.6415 11.776 20.9535 11.6896 21.2223 11.5168C21.4911 11.344 21.6975 11.0896 21.8415 10.7536C21.9951 10.408 22.0719 9.9808 22.0719 9.472C22.0719 8.704 21.9087 8.1328 21.5823 7.7584C21.2559 7.3744 20.8239 7.1824 20.2863 7.1824C19.9311 7.1824 19.6191 7.2688 19.3503 7.4416C19.0815 7.6048 18.8703 7.8592 18.7167 8.2048C18.5727 8.5408 18.5007 8.9632 18.5007 9.472C18.5007 10.2304 18.6639 10.8064 18.9903 11.2C19.3167 11.584 19.7487 11.776 20.2863 11.776ZM29.1798 13.144C28.383 13.144 27.6966 12.9952 27.1206 12.6976C26.5446 12.4 26.0982 11.9776 25.7814 11.4304C25.4742 10.8832 25.3206 10.2352 25.3206 9.4864C25.3206 8.7568 25.4694 8.1184 25.767 7.5712C26.0742 7.024 26.4918 6.5968 27.0198 6.2896C27.5574 5.9728 28.167 5.8144 28.8486 5.8144C29.3478 5.8144 29.7942 5.896 30.1878 6.0592C30.591 6.2224 30.9318 6.4576 31.2102 6.7648C31.4982 7.072 31.7142 7.4464 31.8582 7.888C32.0118 8.32 32.0886 8.8096 32.0886 9.3568C32.0886 9.5296 32.0262 9.664 31.9014 9.76C31.7862 9.8464 31.6182 9.8896 31.3974 9.8896H26.775V8.8528H30.8214L30.591 9.0688C30.591 8.6272 30.5238 8.2576 30.3894 7.96C30.2646 7.6624 30.0774 7.4368 29.8278 7.2832C29.5878 7.12 29.2854 7.0384 28.9206 7.0384C28.5174 7.0384 28.1718 7.1344 27.8838 7.3264C27.6054 7.5088 27.3894 7.7728 27.2358 8.1184C27.0918 8.4544 27.0198 8.8576 27.0198 9.328V9.4288C27.0198 10.216 27.2022 10.8064 27.567 11.2C27.9414 11.584 28.4886 11.776 29.2086 11.776C29.4582 11.776 29.7366 11.7472 30.0438 11.6896C30.3606 11.6224 30.6582 11.512 30.9366 11.3584C31.1382 11.2432 31.3158 11.1952 31.4694 11.2144C31.623 11.224 31.743 11.2768 31.8294 11.3728C31.9254 11.4688 31.983 11.5888 32.0022 11.7328C32.0214 11.8672 31.9926 12.0064 31.9158 12.1504C31.8486 12.2944 31.7286 12.4192 31.5558 12.5248C31.2198 12.736 30.831 12.8944 30.3894 13C29.9574 13.096 29.5542 13.144 29.1798 13.144ZM34.4069 13.1152C34.1189 13.1152 33.8981 13.0384 33.7445 12.8848C33.5909 12.7216 33.5141 12.4912 33.5141 12.1936V3.64C33.5141 3.3424 33.5909 3.1168 33.7445 2.9632C33.8981 2.8096 34.1189 2.7328 34.4069 2.7328C34.6949 2.7328 34.9157 2.8096 35.0693 2.9632C35.2325 3.1168 35.3141 3.3424 35.3141 3.64V8.9536H35.3429L37.7189 6.448C37.9109 6.256 38.0789 6.1072 38.2229 6.0016C38.3669 5.896 38.5637 5.8432 38.8133 5.8432C39.0629 5.8432 39.2501 5.9104 39.3749 6.0448C39.5093 6.1696 39.5765 6.3232 39.5765 6.5056C39.5765 6.688 39.4901 6.8704 39.3173 7.0528L36.8117 9.7024V8.9536L39.5621 11.92C39.7349 12.1024 39.8117 12.2896 39.7925 12.4816C39.7829 12.664 39.7061 12.8176 39.5621 12.9424C39.4181 13.0576 39.2357 13.1152 39.0149 13.1152C38.7461 13.1152 38.5301 13.0624 38.3669 12.9568C38.2133 12.8512 38.0405 12.6928 37.8485 12.4816L35.3429 9.8608H35.3141V12.1936C35.3141 12.808 35.0117 13.1152 34.4069 13.1152ZM43.4825 13.144C42.9737 13.144 42.5177 13.048 42.1145 12.856C41.7209 12.6544 41.4089 12.3856 41.1785 12.0496C40.9577 11.7136 40.8473 11.3344 40.8473 10.912C40.8473 10.3936 40.9817 9.9856 41.2505 9.688C41.5193 9.3808 41.9561 9.16 42.5609 9.0256C43.1657 8.8912 43.9769 8.824 44.9945 8.824H45.7145V9.8608H45.0089C44.4137 9.8608 43.9385 9.8896 43.5833 9.9472C43.2281 10.0048 42.9737 10.1056 42.8201 10.2496C42.6761 10.384 42.6041 10.576 42.6041 10.8256C42.6041 11.1424 42.7145 11.4016 42.9353 11.6032C43.1561 11.8048 43.4633 11.9056 43.8569 11.9056C44.1737 11.9056 44.4521 11.8336 44.6921 11.6896C44.9417 11.536 45.1385 11.3296 45.2825 11.0704C45.4265 10.8112 45.4985 10.5136 45.4985 10.1776V8.5216C45.4985 8.0416 45.3929 7.696 45.1817 7.4848C44.9705 7.2736 44.6153 7.168 44.1161 7.168C43.8377 7.168 43.5353 7.2016 43.2089 7.2688C42.8921 7.336 42.5561 7.4512 42.2009 7.6144C42.0185 7.7008 41.8553 7.7248 41.7113 7.6864C41.5769 7.648 41.4713 7.5712 41.3945 7.456C41.3177 7.3312 41.2793 7.1968 41.2793 7.0528C41.2793 6.9088 41.3177 6.7696 41.3945 6.6352C41.4713 6.4912 41.6009 6.3856 41.7833 6.3184C42.2249 6.136 42.6473 6.0064 43.0505 5.9296C43.4633 5.8528 43.8377 5.8144 44.1737 5.8144C44.8649 5.8144 45.4313 5.92 45.8729 6.1312C46.3241 6.3424 46.6601 6.664 46.8809 7.096C47.1017 7.5184 47.2121 8.0656 47.2121 8.7376V12.1936C47.2121 12.4912 47.1401 12.7216 46.9961 12.8848C46.8521 13.0384 46.6457 13.1152 46.3769 13.1152C46.1081 13.1152 45.8969 13.0384 45.7433 12.8848C45.5993 12.7216 45.5273 12.4912 45.5273 12.1936V11.5024H45.6425C45.5753 11.8384 45.4409 12.1312 45.2393 12.3808C45.0473 12.6208 44.8025 12.808 44.5049 12.9424C44.2073 13.0768 43.8665 13.144 43.4825 13.144ZM51.4439 13.144C50.6471 13.144 50.0471 12.9184 49.6439 12.4672C49.2407 12.0064 49.0391 11.3344 49.0391 10.4512V3.64C49.0391 3.3424 49.1159 3.1168 49.2695 2.9632C49.4231 2.8096 49.6439 2.7328 49.9319 2.7328C50.2199 2.7328 50.4407 2.8096 50.5943 2.9632C50.7575 3.1168 50.8391 3.3424 50.8391 3.64V10.3648C50.8391 10.8064 50.9303 11.1328 51.1127 11.344C51.3047 11.5552 51.5735 11.6608 51.9191 11.6608C51.9959 11.6608 52.0679 11.6608 52.1351 11.6608C52.2023 11.6512 52.2695 11.6416 52.3367 11.632C52.4711 11.6128 52.5623 11.6512 52.6103 11.7472C52.6583 11.8336 52.6823 12.016 52.6823 12.2944C52.6823 12.5344 52.6343 12.7216 52.5383 12.856C52.4423 12.9904 52.2839 13.072 52.0631 13.1008C51.9671 13.1104 51.8663 13.12 51.7607 13.1296C51.6551 13.1392 51.5495 13.144 51.4439 13.144ZM57.0376 13.144C56.2408 13.144 55.5544 12.9952 54.9784 12.6976C54.4024 12.4 53.956 11.9776 53.6392 11.4304C53.332 10.8832 53.1784 10.2352 53.1784 9.4864C53.1784 8.7568 53.3272 8.1184 53.6248 7.5712C53.932 7.024 54.3496 6.5968 54.8776 6.2896C55.4152 5.9728 56.0248 5.8144 56.7064 5.8144C57.2056 5.8144 57.652 5.896 58.0456 6.0592C58.4488 6.2224 58.7896 6.4576 59.068 6.7648C59.356 7.072 59.572 7.4464 59.716 7.888C59.8696 8.32 59.9464 8.8096 59.9464 9.3568C59.9464 9.5296 59.884 9.664 59.7592 9.76C59.644 9.8464 59.476 9.8896 59.2552 9.8896H54.6328V8.8528H58.6792L58.4488 9.0688C58.4488 8.6272 58.3816 8.2576 58.2472 7.96C58.1224 7.6624 57.9352 7.4368 57.6856 7.2832C57.4456 7.12 57.1432 7.0384 56.7784 7.0384C56.3752 7.0384 56.0296 7.1344 55.7416 7.3264C55.4632 7.5088 55.2472 7.7728 55.0936 8.1184C54.9496 8.4544 54.8776 8.8576 54.8776 9.328V9.4288C54.8776 10.216 55.06 10.8064 55.4248 11.2C55.7992 11.584 56.3464 11.776 57.0664 11.776C57.316 11.776 57.5944 11.7472 57.9016 11.6896C58.2184 11.6224 58.516 11.512 58.7944 11.3584C58.996 11.2432 59.1736 11.1952 59.3272 11.2144C59.4808 11.224 59.6008 11.2768 59.6872 11.3728C59.7832 11.4688 59.8408 11.5888 59.86 11.7328C59.8792 11.8672 59.8504 12.0064 59.7736 12.1504C59.7064 12.2944 59.5864 12.4192 59.4136 12.5248C59.0776 12.736 58.6888 12.8944 58.2472 13C57.8152 13.096 57.412 13.144 57.0376 13.144ZM62.2647 13.1152C61.9767 13.1152 61.7559 13.0384 61.6023 12.8848C61.4487 12.7216 61.3719 12.4912 61.3719 12.1936V6.7504C61.3719 6.4528 61.4487 6.2272 61.6023 6.0736C61.7559 5.92 61.9719 5.8432 62.2503 5.8432C62.5287 5.8432 62.7447 5.92 62.8983 6.0736C63.0519 6.2272 63.1287 6.4528 63.1287 6.7504V7.7296L62.9703 7.3696C63.1815 6.8608 63.5079 6.4768 63.9495 6.2176C64.4007 5.9488 64.9095 5.8144 65.4759 5.8144C66.0423 5.8144 66.5079 5.92 66.8727 6.1312C67.2375 6.3424 67.5111 6.664 67.6935 7.096C67.8759 7.5184 67.9671 8.056 67.9671 8.7088V12.1936C67.9671 12.4912 67.8903 12.7216 67.7367 12.8848C67.5831 13.0384 67.3623 13.1152 67.0743 13.1152C66.7863 13.1152 66.5607 13.0384 66.3975 12.8848C66.2439 12.7216 66.1671 12.4912 66.1671 12.1936V8.7952C66.1671 8.248 66.0615 7.8496 65.8503 7.6C65.6487 7.3504 65.3319 7.2256 64.8999 7.2256C64.3719 7.2256 63.9495 7.3936 63.6327 7.7296C63.3255 8.056 63.1719 8.4928 63.1719 9.04V12.1936C63.1719 12.808 62.8695 13.1152 62.2647 13.1152ZM72.5026 13.144C71.8882 13.144 71.3458 12.9952 70.8754 12.6976C70.4146 12.4 70.0546 11.9776 69.7954 11.4304C69.5362 10.8736 69.4066 10.2208 69.4066 9.472C69.4066 8.7136 69.5362 8.0656 69.7954 7.528C70.0546 6.9808 70.4146 6.5584 70.8754 6.2608C71.3458 5.9632 71.8882 5.8144 72.5026 5.8144C73.0882 5.8144 73.597 5.9584 74.029 6.2464C74.4706 6.5344 74.7682 6.9136 74.9218 7.384H74.7634V3.64C74.7634 3.3424 74.8402 3.1168 74.9938 2.9632C75.1474 2.8096 75.3682 2.7328 75.6562 2.7328C75.9442 2.7328 76.165 2.8096 76.3186 2.9632C76.4818 3.1168 76.5634 3.3424 76.5634 3.64V12.1936C76.5634 12.4912 76.4866 12.7216 76.333 12.8848C76.1794 13.0384 75.9586 13.1152 75.6706 13.1152C75.3826 13.1152 75.1618 13.0384 75.0082 12.8848C74.8546 12.7216 74.7778 12.4912 74.7778 12.1936V11.0704L74.9362 11.5024C74.7922 12.0016 74.4994 12.4 74.0578 12.6976C73.6162 12.9952 73.0978 13.144 72.5026 13.144ZM73.0066 11.776C73.3618 11.776 73.6738 11.6896 73.9426 11.5168C74.2114 11.344 74.4178 11.0896 74.5618 10.7536C74.7154 10.408 74.7922 9.9808 74.7922 9.472C74.7922 8.704 74.629 8.1328 74.3026 7.7584C73.9762 7.3744 73.5442 7.1824 73.0066 7.1824C72.6514 7.1824 72.3394 7.2688 72.0706 7.4416C71.8018 7.6048 71.5906 7.8592 71.437 8.2048C71.293 8.5408 71.221 8.9632 71.221 9.472C71.221 10.2304 71.3842 10.8064 71.7106 11.2C72.037 11.584 72.469 11.776 73.0066 11.776ZM81.9002 13.144C81.1034 13.144 80.417 12.9952 79.841 12.6976C79.265 12.4 78.8186 11.9776 78.5018 11.4304C78.1946 10.8832 78.041 10.2352 78.041 9.4864C78.041 8.7568 78.1898 8.1184 78.4874 7.5712C78.7946 7.024 79.2122 6.5968 79.7402 6.2896C80.2778 5.9728 80.8874 5.8144 81.569 5.8144C82.0682 5.8144 82.5146 5.896 82.9082 6.0592C83.3114 6.2224 83.6522 6.4576 83.9306 6.7648C84.2186 7.072 84.4346 7.4464 84.5786 7.888C84.7322 8.32 84.809 8.8096 84.809 9.3568C84.809 9.5296 84.7466 9.664 84.6218 9.76C84.5066 9.8464 84.3386 9.8896 84.1178 9.8896H79.4954V8.8528H83.5418L83.3114 9.0688C83.3114 8.6272 83.2442 8.2576 83.1098 7.96C82.985 7.6624 82.7978 7.4368 82.5482 7.2832C82.3082 7.12 82.0058 7.0384 81.641 7.0384C81.2378 7.0384 80.8922 7.1344 80.6042 7.3264C80.3258 7.5088 80.1098 7.7728 79.9562 8.1184C79.8122 8.4544 79.7402 8.8576 79.7402 9.328V9.4288C79.7402 10.216 79.9226 10.8064 80.2874 11.2C80.6618 11.584 81.209 11.776 81.929 11.776C82.1786 11.776 82.457 11.7472 82.7642 11.6896C83.081 11.6224 83.3786 11.512 83.657 11.3584C83.8586 11.2432 84.0362 11.1952 84.1898 11.2144C84.3434 11.224 84.4634 11.2768 84.5498 11.3728C84.6458 11.4688 84.7034 11.5888 84.7226 11.7328C84.7418 11.8672 84.713 12.0064 84.6362 12.1504C84.569 12.2944 84.449 12.4192 84.2762 12.5248C83.9402 12.736 83.5514 12.8944 83.1098 13C82.6778 13.096 82.2746 13.144 81.9002 13.144ZM87.156 13.1152C86.8584 13.1152 86.628 13.0384 86.4648 12.8848C86.3112 12.7216 86.2344 12.4912 86.2344 12.1936V6.7504C86.2344 6.4528 86.3112 6.2272 86.4648 6.0736C86.6184 5.92 86.8344 5.8432 87.1128 5.8432C87.3912 5.8432 87.6072 5.92 87.7608 6.0736C87.9144 6.2272 87.9912 6.4528 87.9912 6.7504V7.6576H87.8472C87.9816 7.0816 88.2456 6.6448 88.6392 6.3472C89.0328 6.0496 89.556 5.872 90.2088 5.8144C90.4104 5.7952 90.5688 5.848 90.684 5.9728C90.8088 6.088 90.8808 6.2704 90.9 6.52C90.9192 6.76 90.8616 6.9568 90.7272 7.1104C90.6024 7.2544 90.4104 7.3408 90.1512 7.3696L89.8344 7.3984C89.2488 7.456 88.8072 7.6384 88.5096 7.9456C88.212 8.2432 88.0632 8.6656 88.0632 9.2128V12.1936C88.0632 12.4912 87.9864 12.7216 87.8328 12.8848C87.6792 13.0384 87.4536 13.1152 87.156 13.1152Z" fill="#F8F9FA"/>
<path d="M100.689 3.28511C97.5481 4.269 95.9403 7.35902 95.3463 8.57391L108.322 12.1568L109.538 14.8131C109.528 15.7793 109.173 16.9761 109.267 19.3368C109.362 21.6976 112.386 23.6389 113.706 23.6515L115.26 21.1235C114.904 20.8828 113.764 21.0846 113.027 19.4746C112.466 18.2487 113.712 16.1246 114.355 14.2999C114.999 12.4752 115.864 7.87459 112.02 5.42816C108.369 3.10455 104.784 2.00215 100.689 3.28511Z" fill="#751C15"/>
<ellipse cx="3.12303" cy="3.22477" rx="3.12303" ry="3.22477" transform="matrix(0.942311 0.334739 -0.332597 0.943069 113.375 19.4268)" fill="#F8F9FA"/>
<path d="M98.7699 10.132C98.2368 11.6436 96.6188 12.4478 95.156 11.9282C93.6932 11.4085 92.9396 9.76188 93.4727 8.25024C94.0058 6.73861 95.6238 5.93442 97.0866 6.45404C98.5494 6.97367 99.303 8.62033 98.7699 10.132Z" fill="#F8F9FA"/>
<path d="M102.623 10.4741C102.09 11.9857 100.472 12.7899 99.0092 12.2703C97.5464 11.7507 96.7928 10.104 97.3259 8.59237C97.859 7.08073 99.477 6.27655 100.94 6.79617C102.403 7.31579 103.156 8.96245 102.623 10.4741Z" fill="#F8F9FA"/>
<path d="M113.377 15.6631C112.844 17.1747 111.226 17.9789 109.763 17.4593C108.3 16.9397 107.547 15.293 108.08 13.7814C108.613 12.2697 110.231 11.4655 111.694 11.9852C113.156 12.5048 113.91 14.1514 113.377 15.6631Z" fill="#F8F9FA"/>
<path d="M106.958 11.3294C106.365 13.009 104.567 13.9026 102.942 13.3252C101.317 12.7478 100.48 10.9182 101.072 9.23862C101.664 7.55902 103.462 6.66548 105.087 7.24284C106.713 7.8202 107.55 9.64982 106.958 11.3294Z" fill="#F8F9FA"/>
<path d="M110.676 12.9926C110.084 14.6722 108.286 15.5657 106.661 14.9883C105.035 14.411 104.198 12.5813 104.79 10.9018C105.383 9.22216 107.18 8.32862 108.806 8.90598C110.431 9.48333 111.268 11.313 110.676 12.9926Z" fill="#F8F9FA"/>
</g>
<defs>
<clipPath id="clip0_472_47785">
<rect width="120" height="48" fill="white"/>
</clipPath>
</defs>
</svg>
