<svg width="36" height="30" viewBox="0 0 36 30" fill="none" xmlns="http://www.w3.org/2000/svg">
<g id="logo liten">
<g id="23">
<mask id="path-1-outside-1_472_47759" maskUnits="userSpaceOnUse" x="0.203613" y="9.34424" width="29" height="19" fill="black">
<rect fill="white" x="0.203613" y="9.34424" width="29" height="19"/>
<path d="M11.9556 27.0482C11.1876 27.0482 10.3396 26.8962 9.41161 26.5922C8.49961 26.2882 7.63561 25.9842 6.81961 25.6802C6.67561 25.6162 6.53161 25.5602 6.38761 25.5122C6.24361 25.4482 6.10761 25.3922 5.97961 25.3442H5.93161C5.69161 25.4882 5.44361 25.6322 5.18761 25.7762C4.94761 25.9202 4.69161 26.0482 4.41961 26.1602C4.25961 26.2402 4.09161 26.2962 3.91561 26.3282C3.73961 26.3602 3.56361 26.3762 3.38761 26.3762C3.03561 26.3762 2.69161 26.3202 2.35561 26.2082C2.17961 26.1442 1.93961 26.0082 1.63561 25.8002C1.34761 25.5922 1.20361 25.3042 1.20361 24.9362C1.20361 24.7922 1.24361 24.6162 1.32361 24.4082C1.48361 24.0402 1.73161 23.7842 2.06761 23.6402C2.40361 23.4802 2.77161 23.4002 3.17161 23.4002C3.58761 23.4002 4.02761 23.4562 4.49161 23.5682C4.97161 23.6802 5.41161 23.8002 5.81161 23.9282H5.85961C6.30761 23.6722 6.83561 23.3362 7.44361 22.9202C8.06761 22.4882 8.71561 22.0162 9.38761 21.5042C10.0596 20.9762 10.6916 20.4242 11.2836 19.8482C11.8756 19.2722 12.3716 18.6882 12.7716 18.0962C13.1876 17.5042 13.4276 16.9362 13.4916 16.3922C13.5396 16.0562 13.5636 15.7362 13.5636 15.4322C13.5636 14.2002 13.1796 13.2642 12.4116 12.6242C11.6596 11.9682 10.5556 11.6402 9.09961 11.6402C8.34761 11.6402 7.61961 11.8082 6.91561 12.1442C6.21161 12.4802 5.63561 12.9522 5.18761 13.5602C4.73961 14.1522 4.51561 14.8482 4.51561 15.6482C4.51561 16.1922 4.61161 16.7042 4.80361 17.1842C5.01161 17.6482 5.31561 18.0322 5.71561 18.3362C6.11561 18.6242 6.60361 18.7682 7.17961 18.7682C7.33961 18.7682 7.48361 18.7522 7.61161 18.7202C7.75561 18.6722 7.89961 18.6242 8.04361 18.5762C8.09161 18.5602 8.13961 18.5442 8.18761 18.5282C8.23561 18.5122 8.28361 18.4962 8.33161 18.4802C8.45961 18.4482 8.54761 18.4322 8.59561 18.4322C8.77161 18.4322 8.92361 18.4962 9.05161 18.6242C9.19561 18.7362 9.26761 18.8722 9.26761 19.0322C9.26761 19.2242 9.16361 19.3922 8.95561 19.5362C8.71561 19.7122 8.42761 19.8402 8.09161 19.9202C7.75561 19.9842 7.45161 20.0162 7.17961 20.0162C6.36361 20.0162 5.65961 19.8082 5.06761 19.3922C4.49161 18.9762 4.04361 18.4322 3.72361 17.7602C3.41961 17.0882 3.26761 16.3842 3.26761 15.6482C3.26761 14.8322 3.43561 14.1042 3.77161 13.4642C4.10761 12.8082 4.55561 12.2482 5.11561 11.7842C5.69161 11.3202 6.33161 10.9682 7.03561 10.7282C7.73961 10.4722 8.45961 10.3442 9.19561 10.3442C10.3476 10.3442 11.3396 10.5602 12.1716 10.9922C13.0196 11.4242 13.6756 12.0242 14.1396 12.7922C14.6036 13.5442 14.8356 14.4322 14.8356 15.4562C14.8356 15.6322 14.8276 15.8162 14.8116 16.0082C14.7956 16.2002 14.7716 16.4002 14.7396 16.6082C14.5956 17.4082 14.2596 18.1922 13.7316 18.9602C13.2036 19.7282 12.5716 20.4562 11.8356 21.1442C11.0996 21.8322 10.3396 22.4562 9.55561 23.0162C8.77161 23.5762 8.05161 24.0642 7.39561 24.4802L7.63561 24.6002C8.00361 24.7602 8.45161 24.9282 8.97961 25.1042C9.50761 25.2802 10.0356 25.4322 10.5636 25.5602C11.1076 25.6882 11.5716 25.7522 11.9556 25.7522C12.3396 25.7522 12.7236 25.6802 13.1076 25.5362C13.4916 25.3762 13.6836 25.0882 13.6836 24.6722C13.6836 24.5922 13.5956 24.4962 13.4196 24.3842C13.1796 24.2082 13.0596 24.0002 13.0596 23.7602C13.0596 23.6002 13.1156 23.4642 13.2276 23.3522C13.3556 23.2402 13.5076 23.1842 13.6836 23.1842C14.0036 23.1842 14.2916 23.3282 14.5476 23.6162C14.8196 23.9042 14.9556 24.2082 14.9556 24.5282C14.9556 25.1362 14.7956 25.6242 14.4756 25.9922C14.1716 26.3762 13.7876 26.6482 13.3236 26.8082C12.8596 26.9682 12.4036 27.0482 11.9556 27.0482ZM3.21961 25.2002C3.52361 25.2002 3.81961 25.1682 4.10761 25.1042C4.41161 25.0242 4.61161 24.9522 4.70761 24.8882L4.73161 24.8162C4.63561 24.6882 4.41161 24.5842 4.05961 24.5042C3.72361 24.4082 3.39561 24.3602 3.07561 24.3602C2.85161 24.3602 2.65961 24.3922 2.49961 24.4562C2.33961 24.5202 2.25961 24.6162 2.25961 24.7442C2.25961 24.9042 2.35561 25.0242 2.54761 25.1042C2.73961 25.1682 2.96361 25.2002 3.21961 25.2002Z"/>
<path d="M21.0595 27.6962C20.4355 27.6962 19.8195 27.5762 19.2115 27.3362C18.6195 27.0962 18.0755 26.7682 17.5795 26.3522C17.0835 25.9362 16.6915 25.4642 16.4035 24.9362C16.1155 24.3922 15.9715 23.8242 15.9715 23.2322C15.9715 22.9122 16.0195 22.5842 16.1155 22.2482C16.2275 21.9122 16.3955 21.5762 16.6195 21.2402C16.8915 20.8402 17.2355 20.5522 17.6515 20.3762C18.0835 20.2002 18.5235 20.1122 18.9715 20.1122C19.4835 20.1122 19.9795 20.2242 20.4595 20.4482C20.9395 20.6562 21.3315 20.9602 21.6355 21.3602C21.9395 21.7442 22.0915 22.2002 22.0915 22.7282C22.0915 23.0002 22.0355 23.2002 21.9235 23.3282C21.8275 23.4402 21.6995 23.4962 21.5395 23.4962C21.3795 23.4962 21.2195 23.4322 21.0595 23.3042C20.9155 23.1602 20.8355 22.9762 20.8195 22.7522C20.8035 22.3362 20.6195 22.0162 20.2675 21.7922C19.9155 21.5522 19.5795 21.4322 19.2595 21.4322C18.5875 21.4322 18.0915 21.6082 17.7715 21.9602C17.4515 22.3122 17.2915 22.7282 17.2915 23.2082C17.2915 23.6882 17.4435 24.1842 17.7475 24.6962C18.0515 25.2082 18.4915 25.6322 19.0675 25.9682C19.6435 26.3202 20.3475 26.4962 21.1795 26.4962C21.8835 26.4962 22.5875 26.4002 23.2915 26.2082C24.0115 26.0322 24.6675 25.7522 25.2595 25.3682C25.8515 24.9682 26.3235 24.4722 26.6755 23.8802C27.0435 23.2882 27.2275 22.5842 27.2275 21.7682C27.2275 20.1042 26.5795 18.9362 25.2835 18.2642H25.2355C24.7395 18.5362 24.2115 18.7282 23.6515 18.8402C23.0915 18.9362 22.5315 18.9842 21.9715 18.9842C21.7475 18.9842 21.4675 18.9602 21.1315 18.9122C20.8115 18.8482 20.5235 18.7282 20.2675 18.5522C20.0115 18.3762 19.8835 18.1042 19.8835 17.7362C19.8835 17.4482 19.9955 17.2242 20.2195 17.0642C20.4595 16.8882 20.7475 16.7602 21.0835 16.6802C21.4195 16.6002 21.7555 16.5442 22.0915 16.5122C22.4435 16.4802 22.7395 16.4642 22.9795 16.4642C23.6995 16.4642 24.3795 16.5762 25.0195 16.8002H25.0675C25.5315 16.4322 25.8755 16.0642 26.0995 15.6962C26.3235 15.3122 26.4355 14.8722 26.4355 14.3762C26.4355 14.2802 26.4275 14.1842 26.4115 14.0882C26.4115 13.9922 26.4035 13.8882 26.3875 13.7762C26.2915 13.1042 25.9555 12.5842 25.3795 12.2162C24.8195 11.8482 24.2115 11.6642 23.5555 11.6642C23.1075 11.6642 22.6195 11.7202 22.0915 11.8322C21.5795 11.9282 21.1875 12.1682 20.9155 12.5522C20.7875 12.7282 20.7235 12.8882 20.7235 13.0322C20.7235 13.2242 20.8195 13.3602 21.0115 13.4402C21.2035 13.5042 21.3955 13.5682 21.5875 13.6322C21.9075 13.7282 22.0675 13.9202 22.0675 14.2082C22.0675 14.7042 21.6995 14.9522 20.9635 14.9522C20.6435 14.9522 20.3395 14.8482 20.0515 14.6402C19.8275 14.4802 19.6675 14.2722 19.5715 14.0162C19.4755 13.7442 19.4275 13.4802 19.4275 13.2242C19.4275 13.1442 19.4275 13.0562 19.4275 12.9602C19.4435 12.8642 19.4595 12.7762 19.4755 12.6962C19.6195 12.0402 19.8995 11.5522 20.3155 11.2322C20.7475 10.8962 21.2435 10.6722 21.8035 10.5602C22.3795 10.4322 22.9315 10.3682 23.4595 10.3682C24.0995 10.3682 24.7235 10.5122 25.3315 10.8002C25.9555 11.0882 26.4835 11.4882 26.9155 12.0002C27.3475 12.4962 27.5955 13.0882 27.6595 13.7762C27.6755 13.8882 27.6835 13.9922 27.6835 14.0882C27.6835 14.1842 27.6835 14.2882 27.6835 14.4002C27.6835 15.5522 27.2435 16.5602 26.3635 17.4242V17.4962C27.0675 17.9922 27.6035 18.6162 27.9715 19.3682C28.3555 20.1202 28.5475 20.9202 28.5475 21.7682C28.5475 22.6002 28.3315 23.4322 27.8995 24.2642C27.4835 25.0802 26.8115 25.7922 25.8835 26.4002C25.1795 26.8642 24.4035 27.1922 23.5555 27.3842C22.7235 27.5922 21.8915 27.6962 21.0595 27.6962ZM22.0915 18.2402C22.5075 18.2402 22.9555 18.1762 23.4355 18.0482C23.9155 17.9042 24.2195 17.7522 24.3475 17.5922L24.3235 17.5202C24.2115 17.4402 23.9715 17.3682 23.6035 17.3042C23.2515 17.2402 22.8915 17.2082 22.5235 17.2082C22.1715 17.2082 21.8515 17.2482 21.5635 17.3282C21.2915 17.4082 21.1555 17.5602 21.1555 17.7842C21.1555 17.9442 21.2435 18.0642 21.4195 18.1442C21.5955 18.2082 21.8195 18.2402 22.0915 18.2402Z"/>
</mask>
<path d="M11.9556 27.0482C11.1876 27.0482 10.3396 26.8962 9.41161 26.5922C8.49961 26.2882 7.63561 25.9842 6.81961 25.6802C6.67561 25.6162 6.53161 25.5602 6.38761 25.5122C6.24361 25.4482 6.10761 25.3922 5.97961 25.3442H5.93161C5.69161 25.4882 5.44361 25.6322 5.18761 25.7762C4.94761 25.9202 4.69161 26.0482 4.41961 26.1602C4.25961 26.2402 4.09161 26.2962 3.91561 26.3282C3.73961 26.3602 3.56361 26.3762 3.38761 26.3762C3.03561 26.3762 2.69161 26.3202 2.35561 26.2082C2.17961 26.1442 1.93961 26.0082 1.63561 25.8002C1.34761 25.5922 1.20361 25.3042 1.20361 24.9362C1.20361 24.7922 1.24361 24.6162 1.32361 24.4082C1.48361 24.0402 1.73161 23.7842 2.06761 23.6402C2.40361 23.4802 2.77161 23.4002 3.17161 23.4002C3.58761 23.4002 4.02761 23.4562 4.49161 23.5682C4.97161 23.6802 5.41161 23.8002 5.81161 23.9282H5.85961C6.30761 23.6722 6.83561 23.3362 7.44361 22.9202C8.06761 22.4882 8.71561 22.0162 9.38761 21.5042C10.0596 20.9762 10.6916 20.4242 11.2836 19.8482C11.8756 19.2722 12.3716 18.6882 12.7716 18.0962C13.1876 17.5042 13.4276 16.9362 13.4916 16.3922C13.5396 16.0562 13.5636 15.7362 13.5636 15.4322C13.5636 14.2002 13.1796 13.2642 12.4116 12.6242C11.6596 11.9682 10.5556 11.6402 9.09961 11.6402C8.34761 11.6402 7.61961 11.8082 6.91561 12.1442C6.21161 12.4802 5.63561 12.9522 5.18761 13.5602C4.73961 14.1522 4.51561 14.8482 4.51561 15.6482C4.51561 16.1922 4.61161 16.7042 4.80361 17.1842C5.01161 17.6482 5.31561 18.0322 5.71561 18.3362C6.11561 18.6242 6.60361 18.7682 7.17961 18.7682C7.33961 18.7682 7.48361 18.7522 7.61161 18.7202C7.75561 18.6722 7.89961 18.6242 8.04361 18.5762C8.09161 18.5602 8.13961 18.5442 8.18761 18.5282C8.23561 18.5122 8.28361 18.4962 8.33161 18.4802C8.45961 18.4482 8.54761 18.4322 8.59561 18.4322C8.77161 18.4322 8.92361 18.4962 9.05161 18.6242C9.19561 18.7362 9.26761 18.8722 9.26761 19.0322C9.26761 19.2242 9.16361 19.3922 8.95561 19.5362C8.71561 19.7122 8.42761 19.8402 8.09161 19.9202C7.75561 19.9842 7.45161 20.0162 7.17961 20.0162C6.36361 20.0162 5.65961 19.8082 5.06761 19.3922C4.49161 18.9762 4.04361 18.4322 3.72361 17.7602C3.41961 17.0882 3.26761 16.3842 3.26761 15.6482C3.26761 14.8322 3.43561 14.1042 3.77161 13.4642C4.10761 12.8082 4.55561 12.2482 5.11561 11.7842C5.69161 11.3202 6.33161 10.9682 7.03561 10.7282C7.73961 10.4722 8.45961 10.3442 9.19561 10.3442C10.3476 10.3442 11.3396 10.5602 12.1716 10.9922C13.0196 11.4242 13.6756 12.0242 14.1396 12.7922C14.6036 13.5442 14.8356 14.4322 14.8356 15.4562C14.8356 15.6322 14.8276 15.8162 14.8116 16.0082C14.7956 16.2002 14.7716 16.4002 14.7396 16.6082C14.5956 17.4082 14.2596 18.1922 13.7316 18.9602C13.2036 19.7282 12.5716 20.4562 11.8356 21.1442C11.0996 21.8322 10.3396 22.4562 9.55561 23.0162C8.77161 23.5762 8.05161 24.0642 7.39561 24.4802L7.63561 24.6002C8.00361 24.7602 8.45161 24.9282 8.97961 25.1042C9.50761 25.2802 10.0356 25.4322 10.5636 25.5602C11.1076 25.6882 11.5716 25.7522 11.9556 25.7522C12.3396 25.7522 12.7236 25.6802 13.1076 25.5362C13.4916 25.3762 13.6836 25.0882 13.6836 24.6722C13.6836 24.5922 13.5956 24.4962 13.4196 24.3842C13.1796 24.2082 13.0596 24.0002 13.0596 23.7602C13.0596 23.6002 13.1156 23.4642 13.2276 23.3522C13.3556 23.2402 13.5076 23.1842 13.6836 23.1842C14.0036 23.1842 14.2916 23.3282 14.5476 23.6162C14.8196 23.9042 14.9556 24.2082 14.9556 24.5282C14.9556 25.1362 14.7956 25.6242 14.4756 25.9922C14.1716 26.3762 13.7876 26.6482 13.3236 26.8082C12.8596 26.9682 12.4036 27.0482 11.9556 27.0482ZM3.21961 25.2002C3.52361 25.2002 3.81961 25.1682 4.10761 25.1042C4.41161 25.0242 4.61161 24.9522 4.70761 24.8882L4.73161 24.8162C4.63561 24.6882 4.41161 24.5842 4.05961 24.5042C3.72361 24.4082 3.39561 24.3602 3.07561 24.3602C2.85161 24.3602 2.65961 24.3922 2.49961 24.4562C2.33961 24.5202 2.25961 24.6162 2.25961 24.7442C2.25961 24.9042 2.35561 25.0242 2.54761 25.1042C2.73961 25.1682 2.96361 25.2002 3.21961 25.2002Z" fill="#F8F9FA"/>
<path d="M21.0595 27.6962C20.4355 27.6962 19.8195 27.5762 19.2115 27.3362C18.6195 27.0962 18.0755 26.7682 17.5795 26.3522C17.0835 25.9362 16.6915 25.4642 16.4035 24.9362C16.1155 24.3922 15.9715 23.8242 15.9715 23.2322C15.9715 22.9122 16.0195 22.5842 16.1155 22.2482C16.2275 21.9122 16.3955 21.5762 16.6195 21.2402C16.8915 20.8402 17.2355 20.5522 17.6515 20.3762C18.0835 20.2002 18.5235 20.1122 18.9715 20.1122C19.4835 20.1122 19.9795 20.2242 20.4595 20.4482C20.9395 20.6562 21.3315 20.9602 21.6355 21.3602C21.9395 21.7442 22.0915 22.2002 22.0915 22.7282C22.0915 23.0002 22.0355 23.2002 21.9235 23.3282C21.8275 23.4402 21.6995 23.4962 21.5395 23.4962C21.3795 23.4962 21.2195 23.4322 21.0595 23.3042C20.9155 23.1602 20.8355 22.9762 20.8195 22.7522C20.8035 22.3362 20.6195 22.0162 20.2675 21.7922C19.9155 21.5522 19.5795 21.4322 19.2595 21.4322C18.5875 21.4322 18.0915 21.6082 17.7715 21.9602C17.4515 22.3122 17.2915 22.7282 17.2915 23.2082C17.2915 23.6882 17.4435 24.1842 17.7475 24.6962C18.0515 25.2082 18.4915 25.6322 19.0675 25.9682C19.6435 26.3202 20.3475 26.4962 21.1795 26.4962C21.8835 26.4962 22.5875 26.4002 23.2915 26.2082C24.0115 26.0322 24.6675 25.7522 25.2595 25.3682C25.8515 24.9682 26.3235 24.4722 26.6755 23.8802C27.0435 23.2882 27.2275 22.5842 27.2275 21.7682C27.2275 20.1042 26.5795 18.9362 25.2835 18.2642H25.2355C24.7395 18.5362 24.2115 18.7282 23.6515 18.8402C23.0915 18.9362 22.5315 18.9842 21.9715 18.9842C21.7475 18.9842 21.4675 18.9602 21.1315 18.9122C20.8115 18.8482 20.5235 18.7282 20.2675 18.5522C20.0115 18.3762 19.8835 18.1042 19.8835 17.7362C19.8835 17.4482 19.9955 17.2242 20.2195 17.0642C20.4595 16.8882 20.7475 16.7602 21.0835 16.6802C21.4195 16.6002 21.7555 16.5442 22.0915 16.5122C22.4435 16.4802 22.7395 16.4642 22.9795 16.4642C23.6995 16.4642 24.3795 16.5762 25.0195 16.8002H25.0675C25.5315 16.4322 25.8755 16.0642 26.0995 15.6962C26.3235 15.3122 26.4355 14.8722 26.4355 14.3762C26.4355 14.2802 26.4275 14.1842 26.4115 14.0882C26.4115 13.9922 26.4035 13.8882 26.3875 13.7762C26.2915 13.1042 25.9555 12.5842 25.3795 12.2162C24.8195 11.8482 24.2115 11.6642 23.5555 11.6642C23.1075 11.6642 22.6195 11.7202 22.0915 11.8322C21.5795 11.9282 21.1875 12.1682 20.9155 12.5522C20.7875 12.7282 20.7235 12.8882 20.7235 13.0322C20.7235 13.2242 20.8195 13.3602 21.0115 13.4402C21.2035 13.5042 21.3955 13.5682 21.5875 13.6322C21.9075 13.7282 22.0675 13.9202 22.0675 14.2082C22.0675 14.7042 21.6995 14.9522 20.9635 14.9522C20.6435 14.9522 20.3395 14.8482 20.0515 14.6402C19.8275 14.4802 19.6675 14.2722 19.5715 14.0162C19.4755 13.7442 19.4275 13.4802 19.4275 13.2242C19.4275 13.1442 19.4275 13.0562 19.4275 12.9602C19.4435 12.8642 19.4595 12.7762 19.4755 12.6962C19.6195 12.0402 19.8995 11.5522 20.3155 11.2322C20.7475 10.8962 21.2435 10.6722 21.8035 10.5602C22.3795 10.4322 22.9315 10.3682 23.4595 10.3682C24.0995 10.3682 24.7235 10.5122 25.3315 10.8002C25.9555 11.0882 26.4835 11.4882 26.9155 12.0002C27.3475 12.4962 27.5955 13.0882 27.6595 13.7762C27.6755 13.8882 27.6835 13.9922 27.6835 14.0882C27.6835 14.1842 27.6835 14.2882 27.6835 14.4002C27.6835 15.5522 27.2435 16.5602 26.3635 17.4242V17.4962C27.0675 17.9922 27.6035 18.6162 27.9715 19.3682C28.3555 20.1202 28.5475 20.9202 28.5475 21.7682C28.5475 22.6002 28.3315 23.4322 27.8995 24.2642C27.4835 25.0802 26.8115 25.7922 25.8835 26.4002C25.1795 26.8642 24.4035 27.1922 23.5555 27.3842C22.7235 27.5922 21.8915 27.6962 21.0595 27.6962ZM22.0915 18.2402C22.5075 18.2402 22.9555 18.1762 23.4355 18.0482C23.9155 17.9042 24.2195 17.7522 24.3475 17.5922L24.3235 17.5202C24.2115 17.4402 23.9715 17.3682 23.6035 17.3042C23.2515 17.2402 22.8915 17.2082 22.5235 17.2082C22.1715 17.2082 21.8515 17.2482 21.5635 17.3282C21.2915 17.4082 21.1555 17.5602 21.1555 17.7842C21.1555 17.9442 21.2435 18.0642 21.4195 18.1442C21.5955 18.2082 21.8195 18.2402 22.0915 18.2402Z" fill="#F8F9FA"/>
<path d="M11.9556 27.0482C11.1876 27.0482 10.3396 26.8962 9.41161 26.5922C8.49961 26.2882 7.63561 25.9842 6.81961 25.6802C6.67561 25.6162 6.53161 25.5602 6.38761 25.5122C6.24361 25.4482 6.10761 25.3922 5.97961 25.3442H5.93161C5.69161 25.4882 5.44361 25.6322 5.18761 25.7762C4.94761 25.9202 4.69161 26.0482 4.41961 26.1602C4.25961 26.2402 4.09161 26.2962 3.91561 26.3282C3.73961 26.3602 3.56361 26.3762 3.38761 26.3762C3.03561 26.3762 2.69161 26.3202 2.35561 26.2082C2.17961 26.1442 1.93961 26.0082 1.63561 25.8002C1.34761 25.5922 1.20361 25.3042 1.20361 24.9362C1.20361 24.7922 1.24361 24.6162 1.32361 24.4082C1.48361 24.0402 1.73161 23.7842 2.06761 23.6402C2.40361 23.4802 2.77161 23.4002 3.17161 23.4002C3.58761 23.4002 4.02761 23.4562 4.49161 23.5682C4.97161 23.6802 5.41161 23.8002 5.81161 23.9282H5.85961C6.30761 23.6722 6.83561 23.3362 7.44361 22.9202C8.06761 22.4882 8.71561 22.0162 9.38761 21.5042C10.0596 20.9762 10.6916 20.4242 11.2836 19.8482C11.8756 19.2722 12.3716 18.6882 12.7716 18.0962C13.1876 17.5042 13.4276 16.9362 13.4916 16.3922C13.5396 16.0562 13.5636 15.7362 13.5636 15.4322C13.5636 14.2002 13.1796 13.2642 12.4116 12.6242C11.6596 11.9682 10.5556 11.6402 9.09961 11.6402C8.34761 11.6402 7.61961 11.8082 6.91561 12.1442C6.21161 12.4802 5.63561 12.9522 5.18761 13.5602C4.73961 14.1522 4.51561 14.8482 4.51561 15.6482C4.51561 16.1922 4.61161 16.7042 4.80361 17.1842C5.01161 17.6482 5.31561 18.0322 5.71561 18.3362C6.11561 18.6242 6.60361 18.7682 7.17961 18.7682C7.33961 18.7682 7.48361 18.7522 7.61161 18.7202C7.75561 18.6722 7.89961 18.6242 8.04361 18.5762C8.09161 18.5602 8.13961 18.5442 8.18761 18.5282C8.23561 18.5122 8.28361 18.4962 8.33161 18.4802C8.45961 18.4482 8.54761 18.4322 8.59561 18.4322C8.77161 18.4322 8.92361 18.4962 9.05161 18.6242C9.19561 18.7362 9.26761 18.8722 9.26761 19.0322C9.26761 19.2242 9.16361 19.3922 8.95561 19.5362C8.71561 19.7122 8.42761 19.8402 8.09161 19.9202C7.75561 19.9842 7.45161 20.0162 7.17961 20.0162C6.36361 20.0162 5.65961 19.8082 5.06761 19.3922C4.49161 18.9762 4.04361 18.4322 3.72361 17.7602C3.41961 17.0882 3.26761 16.3842 3.26761 15.6482C3.26761 14.8322 3.43561 14.1042 3.77161 13.4642C4.10761 12.8082 4.55561 12.2482 5.11561 11.7842C5.69161 11.3202 6.33161 10.9682 7.03561 10.7282C7.73961 10.4722 8.45961 10.3442 9.19561 10.3442C10.3476 10.3442 11.3396 10.5602 12.1716 10.9922C13.0196 11.4242 13.6756 12.0242 14.1396 12.7922C14.6036 13.5442 14.8356 14.4322 14.8356 15.4562C14.8356 15.6322 14.8276 15.8162 14.8116 16.0082C14.7956 16.2002 14.7716 16.4002 14.7396 16.6082C14.5956 17.4082 14.2596 18.1922 13.7316 18.9602C13.2036 19.7282 12.5716 20.4562 11.8356 21.1442C11.0996 21.8322 10.3396 22.4562 9.55561 23.0162C8.77161 23.5762 8.05161 24.0642 7.39561 24.4802L7.63561 24.6002C8.00361 24.7602 8.45161 24.9282 8.97961 25.1042C9.50761 25.2802 10.0356 25.4322 10.5636 25.5602C11.1076 25.6882 11.5716 25.7522 11.9556 25.7522C12.3396 25.7522 12.7236 25.6802 13.1076 25.5362C13.4916 25.3762 13.6836 25.0882 13.6836 24.6722C13.6836 24.5922 13.5956 24.4962 13.4196 24.3842C13.1796 24.2082 13.0596 24.0002 13.0596 23.7602C13.0596 23.6002 13.1156 23.4642 13.2276 23.3522C13.3556 23.2402 13.5076 23.1842 13.6836 23.1842C14.0036 23.1842 14.2916 23.3282 14.5476 23.6162C14.8196 23.9042 14.9556 24.2082 14.9556 24.5282C14.9556 25.1362 14.7956 25.6242 14.4756 25.9922C14.1716 26.3762 13.7876 26.6482 13.3236 26.8082C12.8596 26.9682 12.4036 27.0482 11.9556 27.0482ZM3.21961 25.2002C3.52361 25.2002 3.81961 25.1682 4.10761 25.1042C4.41161 25.0242 4.61161 24.9522 4.70761 24.8882L4.73161 24.8162C4.63561 24.6882 4.41161 24.5842 4.05961 24.5042C3.72361 24.4082 3.39561 24.3602 3.07561 24.3602C2.85161 24.3602 2.65961 24.3922 2.49961 24.4562C2.33961 24.5202 2.25961 24.6162 2.25961 24.7442C2.25961 24.9042 2.35561 25.0242 2.54761 25.1042C2.73961 25.1682 2.96361 25.2002 3.21961 25.2002Z" stroke="#F8F9FA" stroke-width="1.2" mask="url(#path-1-outside-1_472_47759)"/>
<path d="M21.0595 27.6962C20.4355 27.6962 19.8195 27.5762 19.2115 27.3362C18.6195 27.0962 18.0755 26.7682 17.5795 26.3522C17.0835 25.9362 16.6915 25.4642 16.4035 24.9362C16.1155 24.3922 15.9715 23.8242 15.9715 23.2322C15.9715 22.9122 16.0195 22.5842 16.1155 22.2482C16.2275 21.9122 16.3955 21.5762 16.6195 21.2402C16.8915 20.8402 17.2355 20.5522 17.6515 20.3762C18.0835 20.2002 18.5235 20.1122 18.9715 20.1122C19.4835 20.1122 19.9795 20.2242 20.4595 20.4482C20.9395 20.6562 21.3315 20.9602 21.6355 21.3602C21.9395 21.7442 22.0915 22.2002 22.0915 22.7282C22.0915 23.0002 22.0355 23.2002 21.9235 23.3282C21.8275 23.4402 21.6995 23.4962 21.5395 23.4962C21.3795 23.4962 21.2195 23.4322 21.0595 23.3042C20.9155 23.1602 20.8355 22.9762 20.8195 22.7522C20.8035 22.3362 20.6195 22.0162 20.2675 21.7922C19.9155 21.5522 19.5795 21.4322 19.2595 21.4322C18.5875 21.4322 18.0915 21.6082 17.7715 21.9602C17.4515 22.3122 17.2915 22.7282 17.2915 23.2082C17.2915 23.6882 17.4435 24.1842 17.7475 24.6962C18.0515 25.2082 18.4915 25.6322 19.0675 25.9682C19.6435 26.3202 20.3475 26.4962 21.1795 26.4962C21.8835 26.4962 22.5875 26.4002 23.2915 26.2082C24.0115 26.0322 24.6675 25.7522 25.2595 25.3682C25.8515 24.9682 26.3235 24.4722 26.6755 23.8802C27.0435 23.2882 27.2275 22.5842 27.2275 21.7682C27.2275 20.1042 26.5795 18.9362 25.2835 18.2642H25.2355C24.7395 18.5362 24.2115 18.7282 23.6515 18.8402C23.0915 18.9362 22.5315 18.9842 21.9715 18.9842C21.7475 18.9842 21.4675 18.9602 21.1315 18.9122C20.8115 18.8482 20.5235 18.7282 20.2675 18.5522C20.0115 18.3762 19.8835 18.1042 19.8835 17.7362C19.8835 17.4482 19.9955 17.2242 20.2195 17.0642C20.4595 16.8882 20.7475 16.7602 21.0835 16.6802C21.4195 16.6002 21.7555 16.5442 22.0915 16.5122C22.4435 16.4802 22.7395 16.4642 22.9795 16.4642C23.6995 16.4642 24.3795 16.5762 25.0195 16.8002H25.0675C25.5315 16.4322 25.8755 16.0642 26.0995 15.6962C26.3235 15.3122 26.4355 14.8722 26.4355 14.3762C26.4355 14.2802 26.4275 14.1842 26.4115 14.0882C26.4115 13.9922 26.4035 13.8882 26.3875 13.7762C26.2915 13.1042 25.9555 12.5842 25.3795 12.2162C24.8195 11.8482 24.2115 11.6642 23.5555 11.6642C23.1075 11.6642 22.6195 11.7202 22.0915 11.8322C21.5795 11.9282 21.1875 12.1682 20.9155 12.5522C20.7875 12.7282 20.7235 12.8882 20.7235 13.0322C20.7235 13.2242 20.8195 13.3602 21.0115 13.4402C21.2035 13.5042 21.3955 13.5682 21.5875 13.6322C21.9075 13.7282 22.0675 13.9202 22.0675 14.2082C22.0675 14.7042 21.6995 14.9522 20.9635 14.9522C20.6435 14.9522 20.3395 14.8482 20.0515 14.6402C19.8275 14.4802 19.6675 14.2722 19.5715 14.0162C19.4755 13.7442 19.4275 13.4802 19.4275 13.2242C19.4275 13.1442 19.4275 13.0562 19.4275 12.9602C19.4435 12.8642 19.4595 12.7762 19.4755 12.6962C19.6195 12.0402 19.8995 11.5522 20.3155 11.2322C20.7475 10.8962 21.2435 10.6722 21.8035 10.5602C22.3795 10.4322 22.9315 10.3682 23.4595 10.3682C24.0995 10.3682 24.7235 10.5122 25.3315 10.8002C25.9555 11.0882 26.4835 11.4882 26.9155 12.0002C27.3475 12.4962 27.5955 13.0882 27.6595 13.7762C27.6755 13.8882 27.6835 13.9922 27.6835 14.0882C27.6835 14.1842 27.6835 14.2882 27.6835 14.4002C27.6835 15.5522 27.2435 16.5602 26.3635 17.4242V17.4962C27.0675 17.9922 27.6035 18.6162 27.9715 19.3682C28.3555 20.1202 28.5475 20.9202 28.5475 21.7682C28.5475 22.6002 28.3315 23.4322 27.8995 24.2642C27.4835 25.0802 26.8115 25.7922 25.8835 26.4002C25.1795 26.8642 24.4035 27.1922 23.5555 27.3842C22.7235 27.5922 21.8915 27.6962 21.0595 27.6962ZM22.0915 18.2402C22.5075 18.2402 22.9555 18.1762 23.4355 18.0482C23.9155 17.9042 24.2195 17.7522 24.3475 17.5922L24.3235 17.5202C24.2115 17.4402 23.9715 17.3682 23.6035 17.3042C23.2515 17.2402 22.8915 17.2082 22.5235 17.2082C22.1715 17.2082 21.8515 17.2482 21.5635 17.3282C21.2915 17.4082 21.1555 17.5602 21.1555 17.7842C21.1555 17.9442 21.2435 18.0642 21.4195 18.1442C21.5955 18.2082 21.8195 18.2402 22.0915 18.2402Z" stroke="#F8F9FA" stroke-width="1.2" mask="url(#path-1-outside-1_472_47759)"/>
</g>
<path id="Vector 344" d="M21.7983 3.57395C19.978 4.59747 19.3834 6.75248 19.1733 7.59487L27.6921 8.18905L28.7929 9.70817C28.913 10.3187 28.8483 11.1191 29.215 12.5957C29.5816 14.0723 31.7114 14.9084 32.5322 14.747L33.1666 12.9533C32.9139 12.8473 32.233 13.1208 31.5658 12.2001C31.0577 11.499 31.5537 9.9996 31.715 8.76629C31.8763 7.53298 31.8131 4.52062 29.1088 3.47117C26.5402 2.4744 24.1719 2.2393 21.7983 3.57395Z" fill="#751C15"/>
<ellipse id="Ellipse 14" cx="1.98247" cy="2.07302" rx="1.98247" ry="2.07302" transform="matrix(0.989862 0.142035 -0.129675 0.991557 31.7751 12.1255)" fill="#F8F9FA"/>
<g id="Vector">
<path d="M21.5009 8.13901C21.3673 9.16072 20.4682 9.87552 19.4928 9.73556C18.5174 9.5956 17.835 8.65388 17.9686 7.63217C18.1022 6.61046 19.0013 5.89567 19.9767 6.03563C20.9521 6.17559 21.6345 7.11731 21.5009 8.13901Z" fill="#F8F9FA"/>
<path d="M23.9364 7.86025C23.8028 8.88196 22.9037 9.59676 21.9283 9.4568C20.9529 9.31684 20.2705 8.37512 20.4041 7.35341C20.5377 6.3317 21.4368 5.6169 22.4122 5.75687C23.3876 5.89683 24.07 6.83855 23.9364 7.86025Z" fill="#F8F9FA"/>
<path d="M31.2859 9.75246C31.1522 10.7742 30.2532 11.489 29.2778 11.349C28.3024 11.209 27.62 10.2673 27.7536 9.24562C27.8872 8.22391 28.7862 7.50911 29.7617 7.64907C30.7371 7.78903 31.4195 8.73075 31.2859 9.75246Z" fill="#F8F9FA"/>
<path d="M26.7375 7.84336C26.589 8.97859 25.5901 9.77281 24.5063 9.6173C23.4225 9.46179 22.6642 8.41543 22.8127 7.2802C22.9612 6.14497 23.9601 5.35075 25.0439 5.50626C26.1277 5.66177 26.8859 6.70813 26.7375 7.84336Z" fill="#F8F9FA"/>
<path d="M29.2617 8.41497C29.1132 9.5502 28.1143 10.3444 27.0305 10.1889C25.9467 10.0334 25.1884 8.98704 25.3369 7.85181C25.4854 6.71658 26.4843 5.92236 27.5681 6.07787C28.6519 6.23338 29.4101 7.27973 29.2617 8.41497Z" fill="#F8F9FA"/>
</g>
</g>
</svg>
