<svg width="60" height="50" viewBox="0 0 60 50" fill="none" xmlns="http://www.w3.org/2000/svg">
<mask id="path-1-outside-1_471_2458" maskUnits="userSpaceOnUse" x="1.00586" y="16.2402" width="48" height="31" fill="black">
<rect fill="white" x="1.00586" y="16.2402" width="48" height="31"/>
<path d="M19.9259 45.0802C18.6459 45.0802 17.2325 44.8269 15.6859 44.3202C14.1659 43.8136 12.7259 43.3069 11.3659 42.8002C11.1259 42.6936 10.8859 42.6002 10.6459 42.5202C10.4059 42.4136 10.1792 42.3202 9.96586 42.2402H9.88586C9.48586 42.4802 9.07253 42.7202 8.64586 42.9602C8.24586 43.2002 7.81919 43.4136 7.36586 43.6002C7.09919 43.7336 6.81919 43.8269 6.52586 43.8802C6.23253 43.9336 5.93919 43.9602 5.64586 43.9602C5.05919 43.9602 4.48586 43.8669 3.92586 43.6802C3.63253 43.5736 3.23253 43.3469 2.72586 43.0002C2.24586 42.6536 2.00586 42.1736 2.00586 41.5602C2.00586 41.3202 2.07253 41.0269 2.20586 40.6802C2.47253 40.0669 2.88586 39.6402 3.44586 39.4002C4.00586 39.1336 4.61919 39.0002 5.28586 39.0002C5.97919 39.0002 6.71253 39.0936 7.48586 39.2802C8.28586 39.4669 9.01919 39.6669 9.68586 39.8802H9.76586C10.5125 39.4536 11.3925 38.8936 12.4059 38.2002C13.4459 37.4802 14.5259 36.6936 15.6459 35.8402C16.7659 34.9602 17.8192 34.0402 18.8059 33.0802C19.7925 32.1202 20.6192 31.1469 21.2859 30.1602C21.9792 29.1736 22.3792 28.2269 22.4859 27.3202C22.5659 26.7602 22.6059 26.2269 22.6059 25.7202C22.6059 23.6669 21.9659 22.1069 20.6859 21.0402C19.4325 19.9469 17.5925 19.4002 15.1659 19.4002C13.9125 19.4002 12.6992 19.6802 11.5259 20.2402C10.3525 20.8002 9.39253 21.5869 8.64586 22.6002C7.89919 23.5869 7.52586 24.7469 7.52586 26.0802C7.52586 26.9869 7.68586 27.8402 8.00586 28.6402C8.35253 29.4136 8.85919 30.0536 9.52586 30.5602C10.1925 31.0402 11.0059 31.2802 11.9659 31.2802C12.2325 31.2802 12.4725 31.2536 12.6859 31.2002C12.9259 31.1202 13.1659 31.0402 13.4059 30.9602C13.4859 30.9336 13.5659 30.9069 13.6459 30.8802C13.7259 30.8536 13.8059 30.8269 13.8859 30.8002C14.0992 30.7469 14.2459 30.7202 14.3259 30.7202C14.6192 30.7202 14.8725 30.8269 15.0859 31.0402C15.3259 31.2269 15.4459 31.4536 15.4459 31.7202C15.4459 32.0402 15.2725 32.3202 14.9259 32.5602C14.5259 32.8536 14.0459 33.0669 13.4859 33.2002C12.9259 33.3069 12.4192 33.3602 11.9659 33.3602C10.6059 33.3602 9.43253 33.0136 8.44586 32.3202C7.48586 31.6269 6.73919 30.7202 6.20586 29.6002C5.69919 28.4802 5.44586 27.3069 5.44586 26.0802C5.44586 24.7202 5.72586 23.5069 6.28586 22.4402C6.84586 21.3469 7.59253 20.4136 8.52586 19.6402C9.48586 18.8669 10.5525 18.2802 11.7259 17.8802C12.8992 17.4536 14.0992 17.2402 15.3259 17.2402C17.2459 17.2402 18.8992 17.6002 20.2859 18.3202C21.6992 19.0402 22.7925 20.0402 23.5659 21.3202C24.3392 22.5736 24.7259 24.0536 24.7259 25.7602C24.7259 26.0536 24.7125 26.3602 24.6859 26.6802C24.6592 27.0002 24.6192 27.3336 24.5659 27.6802C24.3259 29.0136 23.7659 30.3202 22.8859 31.6002C22.0059 32.8802 20.9525 34.0936 19.7259 35.2402C18.4992 36.3869 17.2325 37.4269 15.9259 38.3602C14.6192 39.2936 13.4192 40.1069 12.3259 40.8002L12.7259 41.0002C13.3392 41.2669 14.0859 41.5469 14.9659 41.8402C15.8459 42.1336 16.7259 42.3869 17.6059 42.6002C18.5125 42.8136 19.2859 42.9202 19.9259 42.9202C20.5659 42.9202 21.2059 42.8002 21.8459 42.5602C22.4859 42.2936 22.8059 41.8136 22.8059 41.1202C22.8059 40.9869 22.6592 40.8269 22.3659 40.6402C21.9659 40.3469 21.7659 40.0002 21.7659 39.6002C21.7659 39.3336 21.8592 39.1069 22.0459 38.9202C22.2592 38.7336 22.5125 38.6402 22.8059 38.6402C23.3392 38.6402 23.8192 38.8802 24.2459 39.3602C24.6992 39.8402 24.9259 40.3469 24.9259 40.8802C24.9259 41.8936 24.6592 42.7069 24.1259 43.3202C23.6192 43.9602 22.9792 44.4136 22.2059 44.6802C21.4325 44.9469 20.6725 45.0802 19.9259 45.0802ZM5.36586 42.0002C5.87253 42.0002 6.36586 41.9469 6.84586 41.8402C7.35253 41.7069 7.68586 41.5869 7.84586 41.4802L7.88586 41.3602C7.72586 41.1469 7.35253 40.9736 6.76586 40.8402C6.20586 40.6802 5.65919 40.6002 5.12586 40.6002C4.75253 40.6002 4.43253 40.6536 4.16586 40.7602C3.89919 40.8669 3.76586 41.0269 3.76586 41.2402C3.76586 41.5069 3.92586 41.7069 4.24586 41.8402C4.56586 41.9469 4.93919 42.0002 5.36586 42.0002Z"/>
<path d="M35.099 46.1602C34.059 46.1602 33.0323 45.9602 32.019 45.5602C31.0323 45.1602 30.1257 44.6136 29.299 43.9202C28.4723 43.2269 27.819 42.4402 27.339 41.5602C26.859 40.6536 26.619 39.7069 26.619 38.7202C26.619 38.1869 26.699 37.6402 26.859 37.0802C27.0457 36.5202 27.3257 35.9602 27.699 35.4002C28.1523 34.7336 28.7257 34.2536 29.419 33.9602C30.139 33.6669 30.8723 33.5202 31.619 33.5202C32.4723 33.5202 33.299 33.7069 34.099 34.0802C34.899 34.4269 35.5523 34.9336 36.059 35.6002C36.5657 36.2402 36.819 37.0002 36.819 37.8802C36.819 38.3336 36.7257 38.6669 36.539 38.8802C36.379 39.0669 36.1656 39.1602 35.899 39.1602C35.6323 39.1602 35.3657 39.0536 35.099 38.8402C34.859 38.6002 34.7257 38.2936 34.699 37.9202C34.6723 37.2269 34.3657 36.6936 33.779 36.3202C33.1923 35.9202 32.6323 35.7202 32.099 35.7202C30.979 35.7202 30.1523 36.0136 29.619 36.6002C29.0857 37.1869 28.819 37.8802 28.819 38.6802C28.819 39.4802 29.0723 40.3069 29.579 41.1602C30.0857 42.0136 30.819 42.7202 31.779 43.2802C32.739 43.8669 33.9123 44.1602 35.299 44.1602C36.4723 44.1602 37.6457 44.0002 38.819 43.6802C40.019 43.3869 41.1123 42.9202 42.099 42.2802C43.0857 41.6136 43.8723 40.7869 44.459 39.8002C45.0723 38.8136 45.379 37.6402 45.379 36.2802C45.379 33.5069 44.299 31.5602 42.139 30.4402H42.059C41.2323 30.8936 40.3523 31.2136 39.419 31.4002C38.4856 31.5602 37.5523 31.6402 36.619 31.6402C36.2457 31.6402 35.779 31.6002 35.219 31.5202C34.6857 31.4136 34.2057 31.2136 33.779 30.9202C33.3523 30.6269 33.139 30.1736 33.139 29.5602C33.139 29.0802 33.3257 28.7069 33.699 28.4402C34.099 28.1469 34.579 27.9336 35.139 27.8002C35.699 27.6669 36.259 27.5736 36.819 27.5202C37.4057 27.4669 37.899 27.4402 38.299 27.4402C39.499 27.4402 40.6323 27.6269 41.699 28.0002H41.779C42.5523 27.3869 43.1257 26.7736 43.499 26.1602C43.8723 25.5202 44.059 24.7869 44.059 23.9602C44.059 23.8002 44.0457 23.6402 44.019 23.4802C44.019 23.3202 44.0056 23.1469 43.979 22.9602C43.819 21.8402 43.259 20.9736 42.299 20.3602C41.3657 19.7469 40.3523 19.4402 39.259 19.4402C38.5123 19.4402 37.699 19.5336 36.819 19.7202C35.9657 19.8802 35.3123 20.2802 34.859 20.9202C34.6457 21.2136 34.539 21.4802 34.539 21.7202C34.539 22.0402 34.699 22.2669 35.019 22.4002C35.339 22.5069 35.659 22.6136 35.979 22.7202C36.5123 22.8802 36.779 23.2002 36.779 23.6802C36.779 24.5069 36.1656 24.9202 34.939 24.9202C34.4057 24.9202 33.899 24.7469 33.419 24.4002C33.0457 24.1336 32.779 23.7869 32.619 23.3602C32.459 22.9069 32.379 22.4669 32.379 22.0402C32.379 21.9069 32.379 21.7602 32.379 21.6002C32.4057 21.4402 32.4323 21.2936 32.459 21.1602C32.699 20.0669 33.1657 19.2536 33.859 18.7202C34.579 18.1602 35.4057 17.7869 36.339 17.6002C37.299 17.3869 38.219 17.2802 39.099 17.2802C40.1656 17.2802 41.2057 17.5202 42.219 18.0002C43.259 18.4802 44.139 19.1469 44.859 20.0002C45.579 20.8269 45.9923 21.8136 46.099 22.9602C46.1257 23.1469 46.139 23.3202 46.139 23.4802C46.139 23.6402 46.139 23.8136 46.139 24.0002C46.139 25.9202 45.4057 27.6002 43.939 29.0402V29.1602C45.1123 29.9869 46.0056 31.0269 46.619 32.2802C47.259 33.5336 47.579 34.8669 47.579 36.2802C47.579 37.6669 47.219 39.0536 46.499 40.4402C45.8057 41.8002 44.6857 42.9869 43.139 44.0002C41.9657 44.7736 40.6723 45.3202 39.259 45.6402C37.8723 45.9869 36.4856 46.1602 35.099 46.1602ZM36.819 30.4002C37.5123 30.4002 38.259 30.2936 39.059 30.0802C39.859 29.8402 40.3657 29.5869 40.579 29.3202L40.539 29.2002C40.3523 29.0669 39.9523 28.9469 39.339 28.8402C38.7523 28.7336 38.1523 28.6802 37.539 28.6802C36.9523 28.6802 36.419 28.7469 35.939 28.8802C35.4856 29.0136 35.259 29.2669 35.259 29.6402C35.259 29.9069 35.4057 30.1069 35.699 30.2402C35.9923 30.3469 36.3657 30.4002 36.819 30.4002Z"/>
</mask>
<path d="M19.9259 45.0802C18.6459 45.0802 17.2325 44.8269 15.6859 44.3202C14.1659 43.8136 12.7259 43.3069 11.3659 42.8002C11.1259 42.6936 10.8859 42.6002 10.6459 42.5202C10.4059 42.4136 10.1792 42.3202 9.96586 42.2402H9.88586C9.48586 42.4802 9.07253 42.7202 8.64586 42.9602C8.24586 43.2002 7.81919 43.4136 7.36586 43.6002C7.09919 43.7336 6.81919 43.8269 6.52586 43.8802C6.23253 43.9336 5.93919 43.9602 5.64586 43.9602C5.05919 43.9602 4.48586 43.8669 3.92586 43.6802C3.63253 43.5736 3.23253 43.3469 2.72586 43.0002C2.24586 42.6536 2.00586 42.1736 2.00586 41.5602C2.00586 41.3202 2.07253 41.0269 2.20586 40.6802C2.47253 40.0669 2.88586 39.6402 3.44586 39.4002C4.00586 39.1336 4.61919 39.0002 5.28586 39.0002C5.97919 39.0002 6.71253 39.0936 7.48586 39.2802C8.28586 39.4669 9.01919 39.6669 9.68586 39.8802H9.76586C10.5125 39.4536 11.3925 38.8936 12.4059 38.2002C13.4459 37.4802 14.5259 36.6936 15.6459 35.8402C16.7659 34.9602 17.8192 34.0402 18.8059 33.0802C19.7925 32.1202 20.6192 31.1469 21.2859 30.1602C21.9792 29.1736 22.3792 28.2269 22.4859 27.3202C22.5659 26.7602 22.6059 26.2269 22.6059 25.7202C22.6059 23.6669 21.9659 22.1069 20.6859 21.0402C19.4325 19.9469 17.5925 19.4002 15.1659 19.4002C13.9125 19.4002 12.6992 19.6802 11.5259 20.2402C10.3525 20.8002 9.39253 21.5869 8.64586 22.6002C7.89919 23.5869 7.52586 24.7469 7.52586 26.0802C7.52586 26.9869 7.68586 27.8402 8.00586 28.6402C8.35253 29.4136 8.85919 30.0536 9.52586 30.5602C10.1925 31.0402 11.0059 31.2802 11.9659 31.2802C12.2325 31.2802 12.4725 31.2536 12.6859 31.2002C12.9259 31.1202 13.1659 31.0402 13.4059 30.9602C13.4859 30.9336 13.5659 30.9069 13.6459 30.8802C13.7259 30.8536 13.8059 30.8269 13.8859 30.8002C14.0992 30.7469 14.2459 30.7202 14.3259 30.7202C14.6192 30.7202 14.8725 30.8269 15.0859 31.0402C15.3259 31.2269 15.4459 31.4536 15.4459 31.7202C15.4459 32.0402 15.2725 32.3202 14.9259 32.5602C14.5259 32.8536 14.0459 33.0669 13.4859 33.2002C12.9259 33.3069 12.4192 33.3602 11.9659 33.3602C10.6059 33.3602 9.43253 33.0136 8.44586 32.3202C7.48586 31.6269 6.73919 30.7202 6.20586 29.6002C5.69919 28.4802 5.44586 27.3069 5.44586 26.0802C5.44586 24.7202 5.72586 23.5069 6.28586 22.4402C6.84586 21.3469 7.59253 20.4136 8.52586 19.6402C9.48586 18.8669 10.5525 18.2802 11.7259 17.8802C12.8992 17.4536 14.0992 17.2402 15.3259 17.2402C17.2459 17.2402 18.8992 17.6002 20.2859 18.3202C21.6992 19.0402 22.7925 20.0402 23.5659 21.3202C24.3392 22.5736 24.7259 24.0536 24.7259 25.7602C24.7259 26.0536 24.7125 26.3602 24.6859 26.6802C24.6592 27.0002 24.6192 27.3336 24.5659 27.6802C24.3259 29.0136 23.7659 30.3202 22.8859 31.6002C22.0059 32.8802 20.9525 34.0936 19.7259 35.2402C18.4992 36.3869 17.2325 37.4269 15.9259 38.3602C14.6192 39.2936 13.4192 40.1069 12.3259 40.8002L12.7259 41.0002C13.3392 41.2669 14.0859 41.5469 14.9659 41.8402C15.8459 42.1336 16.7259 42.3869 17.6059 42.6002C18.5125 42.8136 19.2859 42.9202 19.9259 42.9202C20.5659 42.9202 21.2059 42.8002 21.8459 42.5602C22.4859 42.2936 22.8059 41.8136 22.8059 41.1202C22.8059 40.9869 22.6592 40.8269 22.3659 40.6402C21.9659 40.3469 21.7659 40.0002 21.7659 39.6002C21.7659 39.3336 21.8592 39.1069 22.0459 38.9202C22.2592 38.7336 22.5125 38.6402 22.8059 38.6402C23.3392 38.6402 23.8192 38.8802 24.2459 39.3602C24.6992 39.8402 24.9259 40.3469 24.9259 40.8802C24.9259 41.8936 24.6592 42.7069 24.1259 43.3202C23.6192 43.9602 22.9792 44.4136 22.2059 44.6802C21.4325 44.9469 20.6725 45.0802 19.9259 45.0802ZM5.36586 42.0002C5.87253 42.0002 6.36586 41.9469 6.84586 41.8402C7.35253 41.7069 7.68586 41.5869 7.84586 41.4802L7.88586 41.3602C7.72586 41.1469 7.35253 40.9736 6.76586 40.8402C6.20586 40.6802 5.65919 40.6002 5.12586 40.6002C4.75253 40.6002 4.43253 40.6536 4.16586 40.7602C3.89919 40.8669 3.76586 41.0269 3.76586 41.2402C3.76586 41.5069 3.92586 41.7069 4.24586 41.8402C4.56586 41.9469 4.93919 42.0002 5.36586 42.0002Z" fill="#F8F9FA"/>
<path d="M35.099 46.1602C34.059 46.1602 33.0323 45.9602 32.019 45.5602C31.0323 45.1602 30.1257 44.6136 29.299 43.9202C28.4723 43.2269 27.819 42.4402 27.339 41.5602C26.859 40.6536 26.619 39.7069 26.619 38.7202C26.619 38.1869 26.699 37.6402 26.859 37.0802C27.0457 36.5202 27.3257 35.9602 27.699 35.4002C28.1523 34.7336 28.7257 34.2536 29.419 33.9602C30.139 33.6669 30.8723 33.5202 31.619 33.5202C32.4723 33.5202 33.299 33.7069 34.099 34.0802C34.899 34.4269 35.5523 34.9336 36.059 35.6002C36.5657 36.2402 36.819 37.0002 36.819 37.8802C36.819 38.3336 36.7257 38.6669 36.539 38.8802C36.379 39.0669 36.1656 39.1602 35.899 39.1602C35.6323 39.1602 35.3657 39.0536 35.099 38.8402C34.859 38.6002 34.7257 38.2936 34.699 37.9202C34.6723 37.2269 34.3657 36.6936 33.779 36.3202C33.1923 35.9202 32.6323 35.7202 32.099 35.7202C30.979 35.7202 30.1523 36.0136 29.619 36.6002C29.0857 37.1869 28.819 37.8802 28.819 38.6802C28.819 39.4802 29.0723 40.3069 29.579 41.1602C30.0857 42.0136 30.819 42.7202 31.779 43.2802C32.739 43.8669 33.9123 44.1602 35.299 44.1602C36.4723 44.1602 37.6457 44.0002 38.819 43.6802C40.019 43.3869 41.1123 42.9202 42.099 42.2802C43.0857 41.6136 43.8723 40.7869 44.459 39.8002C45.0723 38.8136 45.379 37.6402 45.379 36.2802C45.379 33.5069 44.299 31.5602 42.139 30.4402H42.059C41.2323 30.8936 40.3523 31.2136 39.419 31.4002C38.4856 31.5602 37.5523 31.6402 36.619 31.6402C36.2457 31.6402 35.779 31.6002 35.219 31.5202C34.6857 31.4136 34.2057 31.2136 33.779 30.9202C33.3523 30.6269 33.139 30.1736 33.139 29.5602C33.139 29.0802 33.3257 28.7069 33.699 28.4402C34.099 28.1469 34.579 27.9336 35.139 27.8002C35.699 27.6669 36.259 27.5736 36.819 27.5202C37.4057 27.4669 37.899 27.4402 38.299 27.4402C39.499 27.4402 40.6323 27.6269 41.699 28.0002H41.779C42.5523 27.3869 43.1257 26.7736 43.499 26.1602C43.8723 25.5202 44.059 24.7869 44.059 23.9602C44.059 23.8002 44.0457 23.6402 44.019 23.4802C44.019 23.3202 44.0056 23.1469 43.979 22.9602C43.819 21.8402 43.259 20.9736 42.299 20.3602C41.3657 19.7469 40.3523 19.4402 39.259 19.4402C38.5123 19.4402 37.699 19.5336 36.819 19.7202C35.9657 19.8802 35.3123 20.2802 34.859 20.9202C34.6457 21.2136 34.539 21.4802 34.539 21.7202C34.539 22.0402 34.699 22.2669 35.019 22.4002C35.339 22.5069 35.659 22.6136 35.979 22.7202C36.5123 22.8802 36.779 23.2002 36.779 23.6802C36.779 24.5069 36.1656 24.9202 34.939 24.9202C34.4057 24.9202 33.899 24.7469 33.419 24.4002C33.0457 24.1336 32.779 23.7869 32.619 23.3602C32.459 22.9069 32.379 22.4669 32.379 22.0402C32.379 21.9069 32.379 21.7602 32.379 21.6002C32.4057 21.4402 32.4323 21.2936 32.459 21.1602C32.699 20.0669 33.1657 19.2536 33.859 18.7202C34.579 18.1602 35.4057 17.7869 36.339 17.6002C37.299 17.3869 38.219 17.2802 39.099 17.2802C40.1656 17.2802 41.2057 17.5202 42.219 18.0002C43.259 18.4802 44.139 19.1469 44.859 20.0002C45.579 20.8269 45.9923 21.8136 46.099 22.9602C46.1257 23.1469 46.139 23.3202 46.139 23.4802C46.139 23.6402 46.139 23.8136 46.139 24.0002C46.139 25.9202 45.4057 27.6002 43.939 29.0402V29.1602C45.1123 29.9869 46.0056 31.0269 46.619 32.2802C47.259 33.5336 47.579 34.8669 47.579 36.2802C47.579 37.6669 47.219 39.0536 46.499 40.4402C45.8057 41.8002 44.6857 42.9869 43.139 44.0002C41.9657 44.7736 40.6723 45.3202 39.259 45.6402C37.8723 45.9869 36.4856 46.1602 35.099 46.1602ZM36.819 30.4002C37.5123 30.4002 38.259 30.2936 39.059 30.0802C39.859 29.8402 40.3657 29.5869 40.579 29.3202L40.539 29.2002C40.3523 29.0669 39.9523 28.9469 39.339 28.8402C38.7523 28.7336 38.1523 28.6802 37.539 28.6802C36.9523 28.6802 36.419 28.7469 35.939 28.8802C35.4856 29.0136 35.259 29.2669 35.259 29.6402C35.259 29.9069 35.4057 30.1069 35.699 30.2402C35.9923 30.3469 36.3657 30.4002 36.819 30.4002Z" fill="#F8F9FA"/>
<path d="M19.9259 45.0802C18.6459 45.0802 17.2325 44.8269 15.6859 44.3202C14.1659 43.8136 12.7259 43.3069 11.3659 42.8002C11.1259 42.6936 10.8859 42.6002 10.6459 42.5202C10.4059 42.4136 10.1792 42.3202 9.96586 42.2402H9.88586C9.48586 42.4802 9.07253 42.7202 8.64586 42.9602C8.24586 43.2002 7.81919 43.4136 7.36586 43.6002C7.09919 43.7336 6.81919 43.8269 6.52586 43.8802C6.23253 43.9336 5.93919 43.9602 5.64586 43.9602C5.05919 43.9602 4.48586 43.8669 3.92586 43.6802C3.63253 43.5736 3.23253 43.3469 2.72586 43.0002C2.24586 42.6536 2.00586 42.1736 2.00586 41.5602C2.00586 41.3202 2.07253 41.0269 2.20586 40.6802C2.47253 40.0669 2.88586 39.6402 3.44586 39.4002C4.00586 39.1336 4.61919 39.0002 5.28586 39.0002C5.97919 39.0002 6.71253 39.0936 7.48586 39.2802C8.28586 39.4669 9.01919 39.6669 9.68586 39.8802H9.76586C10.5125 39.4536 11.3925 38.8936 12.4059 38.2002C13.4459 37.4802 14.5259 36.6936 15.6459 35.8402C16.7659 34.9602 17.8192 34.0402 18.8059 33.0802C19.7925 32.1202 20.6192 31.1469 21.2859 30.1602C21.9792 29.1736 22.3792 28.2269 22.4859 27.3202C22.5659 26.7602 22.6059 26.2269 22.6059 25.7202C22.6059 23.6669 21.9659 22.1069 20.6859 21.0402C19.4325 19.9469 17.5925 19.4002 15.1659 19.4002C13.9125 19.4002 12.6992 19.6802 11.5259 20.2402C10.3525 20.8002 9.39253 21.5869 8.64586 22.6002C7.89919 23.5869 7.52586 24.7469 7.52586 26.0802C7.52586 26.9869 7.68586 27.8402 8.00586 28.6402C8.35253 29.4136 8.85919 30.0536 9.52586 30.5602C10.1925 31.0402 11.0059 31.2802 11.9659 31.2802C12.2325 31.2802 12.4725 31.2536 12.6859 31.2002C12.9259 31.1202 13.1659 31.0402 13.4059 30.9602C13.4859 30.9336 13.5659 30.9069 13.6459 30.8802C13.7259 30.8536 13.8059 30.8269 13.8859 30.8002C14.0992 30.7469 14.2459 30.7202 14.3259 30.7202C14.6192 30.7202 14.8725 30.8269 15.0859 31.0402C15.3259 31.2269 15.4459 31.4536 15.4459 31.7202C15.4459 32.0402 15.2725 32.3202 14.9259 32.5602C14.5259 32.8536 14.0459 33.0669 13.4859 33.2002C12.9259 33.3069 12.4192 33.3602 11.9659 33.3602C10.6059 33.3602 9.43253 33.0136 8.44586 32.3202C7.48586 31.6269 6.73919 30.7202 6.20586 29.6002C5.69919 28.4802 5.44586 27.3069 5.44586 26.0802C5.44586 24.7202 5.72586 23.5069 6.28586 22.4402C6.84586 21.3469 7.59253 20.4136 8.52586 19.6402C9.48586 18.8669 10.5525 18.2802 11.7259 17.8802C12.8992 17.4536 14.0992 17.2402 15.3259 17.2402C17.2459 17.2402 18.8992 17.6002 20.2859 18.3202C21.6992 19.0402 22.7925 20.0402 23.5659 21.3202C24.3392 22.5736 24.7259 24.0536 24.7259 25.7602C24.7259 26.0536 24.7125 26.3602 24.6859 26.6802C24.6592 27.0002 24.6192 27.3336 24.5659 27.6802C24.3259 29.0136 23.7659 30.3202 22.8859 31.6002C22.0059 32.8802 20.9525 34.0936 19.7259 35.2402C18.4992 36.3869 17.2325 37.4269 15.9259 38.3602C14.6192 39.2936 13.4192 40.1069 12.3259 40.8002L12.7259 41.0002C13.3392 41.2669 14.0859 41.5469 14.9659 41.8402C15.8459 42.1336 16.7259 42.3869 17.6059 42.6002C18.5125 42.8136 19.2859 42.9202 19.9259 42.9202C20.5659 42.9202 21.2059 42.8002 21.8459 42.5602C22.4859 42.2936 22.8059 41.8136 22.8059 41.1202C22.8059 40.9869 22.6592 40.8269 22.3659 40.6402C21.9659 40.3469 21.7659 40.0002 21.7659 39.6002C21.7659 39.3336 21.8592 39.1069 22.0459 38.9202C22.2592 38.7336 22.5125 38.6402 22.8059 38.6402C23.3392 38.6402 23.8192 38.8802 24.2459 39.3602C24.6992 39.8402 24.9259 40.3469 24.9259 40.8802C24.9259 41.8936 24.6592 42.7069 24.1259 43.3202C23.6192 43.9602 22.9792 44.4136 22.2059 44.6802C21.4325 44.9469 20.6725 45.0802 19.9259 45.0802ZM5.36586 42.0002C5.87253 42.0002 6.36586 41.9469 6.84586 41.8402C7.35253 41.7069 7.68586 41.5869 7.84586 41.4802L7.88586 41.3602C7.72586 41.1469 7.35253 40.9736 6.76586 40.8402C6.20586 40.6802 5.65919 40.6002 5.12586 40.6002C4.75253 40.6002 4.43253 40.6536 4.16586 40.7602C3.89919 40.8669 3.76586 41.0269 3.76586 41.2402C3.76586 41.5069 3.92586 41.7069 4.24586 41.8402C4.56586 41.9469 4.93919 42.0002 5.36586 42.0002Z" stroke="#F8F9FA" stroke-width="2" mask="url(#path-1-outside-1_471_2458)"/>
<path d="M35.099 46.1602C34.059 46.1602 33.0323 45.9602 32.019 45.5602C31.0323 45.1602 30.1257 44.6136 29.299 43.9202C28.4723 43.2269 27.819 42.4402 27.339 41.5602C26.859 40.6536 26.619 39.7069 26.619 38.7202C26.619 38.1869 26.699 37.6402 26.859 37.0802C27.0457 36.5202 27.3257 35.9602 27.699 35.4002C28.1523 34.7336 28.7257 34.2536 29.419 33.9602C30.139 33.6669 30.8723 33.5202 31.619 33.5202C32.4723 33.5202 33.299 33.7069 34.099 34.0802C34.899 34.4269 35.5523 34.9336 36.059 35.6002C36.5657 36.2402 36.819 37.0002 36.819 37.8802C36.819 38.3336 36.7257 38.6669 36.539 38.8802C36.379 39.0669 36.1656 39.1602 35.899 39.1602C35.6323 39.1602 35.3657 39.0536 35.099 38.8402C34.859 38.6002 34.7257 38.2936 34.699 37.9202C34.6723 37.2269 34.3657 36.6936 33.779 36.3202C33.1923 35.9202 32.6323 35.7202 32.099 35.7202C30.979 35.7202 30.1523 36.0136 29.619 36.6002C29.0857 37.1869 28.819 37.8802 28.819 38.6802C28.819 39.4802 29.0723 40.3069 29.579 41.1602C30.0857 42.0136 30.819 42.7202 31.779 43.2802C32.739 43.8669 33.9123 44.1602 35.299 44.1602C36.4723 44.1602 37.6457 44.0002 38.819 43.6802C40.019 43.3869 41.1123 42.9202 42.099 42.2802C43.0857 41.6136 43.8723 40.7869 44.459 39.8002C45.0723 38.8136 45.379 37.6402 45.379 36.2802C45.379 33.5069 44.299 31.5602 42.139 30.4402H42.059C41.2323 30.8936 40.3523 31.2136 39.419 31.4002C38.4856 31.5602 37.5523 31.6402 36.619 31.6402C36.2457 31.6402 35.779 31.6002 35.219 31.5202C34.6857 31.4136 34.2057 31.2136 33.779 30.9202C33.3523 30.6269 33.139 30.1736 33.139 29.5602C33.139 29.0802 33.3257 28.7069 33.699 28.4402C34.099 28.1469 34.579 27.9336 35.139 27.8002C35.699 27.6669 36.259 27.5736 36.819 27.5202C37.4057 27.4669 37.899 27.4402 38.299 27.4402C39.499 27.4402 40.6323 27.6269 41.699 28.0002H41.779C42.5523 27.3869 43.1257 26.7736 43.499 26.1602C43.8723 25.5202 44.059 24.7869 44.059 23.9602C44.059 23.8002 44.0457 23.6402 44.019 23.4802C44.019 23.3202 44.0056 23.1469 43.979 22.9602C43.819 21.8402 43.259 20.9736 42.299 20.3602C41.3657 19.7469 40.3523 19.4402 39.259 19.4402C38.5123 19.4402 37.699 19.5336 36.819 19.7202C35.9657 19.8802 35.3123 20.2802 34.859 20.9202C34.6457 21.2136 34.539 21.4802 34.539 21.7202C34.539 22.0402 34.699 22.2669 35.019 22.4002C35.339 22.5069 35.659 22.6136 35.979 22.7202C36.5123 22.8802 36.779 23.2002 36.779 23.6802C36.779 24.5069 36.1656 24.9202 34.939 24.9202C34.4057 24.9202 33.899 24.7469 33.419 24.4002C33.0457 24.1336 32.779 23.7869 32.619 23.3602C32.459 22.9069 32.379 22.4669 32.379 22.0402C32.379 21.9069 32.379 21.7602 32.379 21.6002C32.4057 21.4402 32.4323 21.2936 32.459 21.1602C32.699 20.0669 33.1657 19.2536 33.859 18.7202C34.579 18.1602 35.4057 17.7869 36.339 17.6002C37.299 17.3869 38.219 17.2802 39.099 17.2802C40.1656 17.2802 41.2057 17.5202 42.219 18.0002C43.259 18.4802 44.139 19.1469 44.859 20.0002C45.579 20.8269 45.9923 21.8136 46.099 22.9602C46.1257 23.1469 46.139 23.3202 46.139 23.4802C46.139 23.6402 46.139 23.8136 46.139 24.0002C46.139 25.9202 45.4057 27.6002 43.939 29.0402V29.1602C45.1123 29.9869 46.0056 31.0269 46.619 32.2802C47.259 33.5336 47.579 34.8669 47.579 36.2802C47.579 37.6669 47.219 39.0536 46.499 40.4402C45.8057 41.8002 44.6857 42.9869 43.139 44.0002C41.9657 44.7736 40.6723 45.3202 39.259 45.6402C37.8723 45.9869 36.4856 46.1602 35.099 46.1602ZM36.819 30.4002C37.5123 30.4002 38.259 30.2936 39.059 30.0802C39.859 29.8402 40.3657 29.5869 40.579 29.3202L40.539 29.2002C40.3523 29.0669 39.9523 28.9469 39.339 28.8402C38.7523 28.7336 38.1523 28.6802 37.539 28.6802C36.9523 28.6802 36.419 28.7469 35.939 28.8802C35.4856 29.0136 35.259 29.2669 35.259 29.6402C35.259 29.9069 35.4057 30.1069 35.699 30.2402C35.9923 30.3469 36.3657 30.4002 36.819 30.4002Z" stroke="#F8F9FA" stroke-width="2" mask="url(#path-1-outside-1_471_2458)"/>
<path d="M36.3306 5.9569C33.2968 7.66278 32.3058 11.2545 31.9556 12.6584L46.1537 13.6487L47.9884 16.1806C48.1885 17.1982 48.0807 18.5322 48.6918 20.9932C49.3029 23.4542 52.8525 24.8477 54.2205 24.5787L55.2778 21.5892C54.8567 21.4125 53.7218 21.8684 52.6098 20.3339C51.763 19.1653 52.5896 16.6663 52.8585 14.6108C53.1273 12.5553 53.022 7.53469 48.5148 5.7856C44.2339 4.12433 40.2867 3.73248 36.3306 5.9569Z" fill="#751C15"/>
<ellipse cx="3.30412" cy="3.45504" rx="3.30412" ry="3.45504" transform="matrix(0.989862 0.142035 -0.129675 0.991557 52.959 20.2095)" fill="#F8F9FA"/>
<path d="M35.8352 13.5646C35.6125 15.2674 34.1141 16.4588 32.4884 16.2255C30.8627 15.9922 29.7254 14.4227 29.9481 12.7199C30.1708 11.017 31.6692 9.82568 33.2949 10.0589C34.9205 10.2922 36.0579 11.8617 35.8352 13.5646Z" fill="#F8F9FA"/>
<path d="M39.8943 13.1C39.6716 14.8028 38.1732 15.9942 36.5475 15.7609C34.9219 15.5276 33.7845 13.9581 34.0072 12.2553C34.2299 10.5524 35.7283 9.36107 37.354 9.59434C38.9797 9.82761 40.117 11.3971 39.8943 13.1Z" fill="#F8F9FA"/>
<path d="M52.1435 16.2537C51.9208 17.9565 50.4224 19.1478 48.7967 18.9146C47.171 18.6813 46.0337 17.1118 46.2564 15.4089C46.4791 13.7061 47.9775 12.5148 49.6031 12.748C51.2288 12.9813 52.3662 14.5508 52.1435 16.2537Z" fill="#F8F9FA"/>
<path d="M44.5628 13.0718C44.3154 14.9639 42.6505 16.2876 40.8442 16.0284C39.0378 15.7692 37.7741 14.0253 38.0216 12.1332C38.269 10.2412 39.9339 8.91748 41.7402 9.17667C43.5465 9.43586 44.8102 11.1798 44.5628 13.0718Z" fill="#F8F9FA"/>
<path d="M48.7698 14.0245C48.5224 15.9166 46.8575 17.2403 45.0512 16.9811C43.2448 16.7219 41.9811 14.978 42.2286 13.0859C42.476 11.1939 44.1409 9.87016 45.9472 10.1293C47.7535 10.3885 49.0172 12.1325 48.7698 14.0245Z" fill="#F8F9FA"/>
</svg>
