<svg width="50" height="50" viewBox="0 0 50 50" fill="none" xmlns="http://www.w3.org/2000/svg">
<g clip-path="url(#clip0_625_63295)">
<rect x="1" y="1" width="48" height="48" rx="24" fill="#A99EB6" stroke="#585684" stroke-width="2"/>
<path d="M24.8182 28.288C24.4636 28.288 24.1836 28.176 23.9782 27.952C23.7916 27.7093 23.6982 27.392 23.6982 27C23.6982 26.4213 23.7636 25.88 23.8942 25.376C24.0436 24.8533 24.2769 24.3307 24.5942 23.808C24.9116 23.2853 25.3316 22.7347 25.8542 22.156C26.2462 21.708 26.5542 21.316 26.7782 20.98C27.0209 20.6253 27.1889 20.2893 27.2822 19.972C27.3942 19.6547 27.4502 19.328 27.4502 18.992C27.4502 18.376 27.2262 17.8907 26.7782 17.536C26.3302 17.1813 25.6956 17.004 24.8742 17.004C24.1276 17.004 23.4462 17.1067 22.8302 17.312C22.2329 17.4987 21.6262 17.7693 21.0102 18.124C20.5996 18.3667 20.2262 18.4787 19.8902 18.46C19.5729 18.4227 19.3116 18.3013 19.1062 18.096C18.9009 17.8907 18.7702 17.6387 18.7142 17.34C18.6582 17.0413 18.7049 16.7333 18.8542 16.416C19.0036 16.0987 19.2742 15.8093 19.6662 15.548C20.4316 15.044 21.3089 14.6613 22.2982 14.4C23.2876 14.12 24.2209 13.98 25.0982 13.98C26.2742 13.98 27.3009 14.176 28.1782 14.568C29.0742 14.96 29.7649 15.5013 30.2502 16.192C30.7542 16.8827 31.0062 17.6947 31.0062 18.628C31.0062 19.2067 30.9222 19.7573 30.7542 20.28C30.5862 20.784 30.3156 21.2973 29.9422 21.82C29.5689 22.324 29.0556 22.8747 28.4022 23.472C27.8236 23.9947 27.3569 24.4707 27.0022 24.9C26.6662 25.3293 26.4142 25.74 26.2462 26.132C26.0969 26.524 25.9942 26.944 25.9382 27.392C25.9196 27.6533 25.8076 27.868 25.6022 28.036C25.4156 28.204 25.1542 28.288 24.8182 28.288ZM24.7622 34.14C24.1276 34.14 23.6142 33.944 23.2222 33.552C22.8489 33.16 22.6622 32.656 22.6622 32.04C22.6622 31.4427 22.8489 30.9573 23.2222 30.584C23.6142 30.192 24.1276 29.996 24.7622 29.996C25.4156 29.996 25.9196 30.192 26.2742 30.584C26.6476 30.9573 26.8342 31.4427 26.8342 32.04C26.8342 32.656 26.6476 33.16 26.2742 33.552C25.9196 33.944 25.4156 34.14 24.7622 34.14Z" fill="#585684"/>
</g>
<defs>
<clipPath id="clip0_625_63295">
<rect width="50" height="50" fill="white"/>
</clipPath>
</defs>
</svg>
