<svg width="1661" height="81" viewBox="0 0 1661 81" fill="none" xmlns="http://www.w3.org/2000/svg">
<path d="M81 1.78299e-06H162L202.5 81H121.5L81 1.78299e-06Z" fill="#D99936"/>
<path d="M243 0L324 2.37731e-06L364.5 81H283.5L243 0Z" fill="#D99936"/>
<path d="M405 0L486 2.37731e-06L526.5 81H445.5L405 0Z" fill="#D99936"/>
<path d="M567 0L648 2.37731e-06L688.5 81H607.5L567 0Z" fill="#D99936"/>
<path d="M729 0L810 2.37731e-06L850.5 81H769.5L729 0Z" fill="#D99936"/>
<path d="M891 0L972 2.37731e-06L1012.5 81H931.5L891 0Z" fill="#D99936"/>
<path d="M1053 0L1134 2.37731e-06L1174.5 81H1093.5L1053 0Z" fill="#D99936"/>
<path d="M1215 0L1296 2.37731e-06L1336.5 81H1255.5L1215 0Z" fill="#D99936"/>
<path d="M1377 0L1458 2.37731e-06L1498.5 81H1417.5L1377 0Z" fill="#D99936"/>
<path d="M1539 0L1620 2.37731e-06L1660.5 81H1579.5L1539 0Z" fill="#D99936"/>
<path d="M0 0L81 1.78299e-06L121.5 81H40.5L0 0Z" fill="#333333"/>
<path d="M162 1.78299e-06L243 0L283.5 81H202.5L162 1.78299e-06Z" fill="#333333"/>
<path d="M324 2.37731e-06L405 0L445.5 81H364.5L324 2.37731e-06Z" fill="#333333"/>
<path d="M486 2.37731e-06L567 0L607.5 81H526.5L486 2.37731e-06Z" fill="#333333"/>
<path d="M648 2.37731e-06L729 0L769.5 81H688.5L648 2.37731e-06Z" fill="#333333"/>
<path d="M810 2.37731e-06L891 0L931.5 81H850.5L810 2.37731e-06Z" fill="#333333"/>
<path d="M972 2.37731e-06L1053 0L1093.5 81H1012.5L972 2.37731e-06Z" fill="#333333"/>
<path d="M1134 2.37731e-06L1215 0L1255.5 81H1174.5L1134 2.37731e-06Z" fill="#333333"/>
<path d="M1296 2.37731e-06L1377 0L1417.5 81H1336.5L1296 2.37731e-06Z" fill="#333333"/>
<path d="M1458 2.37731e-06L1539 0L1579.5 81H1498.5L1458 2.37731e-06Z" fill="#333333"/>
</svg>
