<svg width="63" height="42" viewBox="0 0 63 42" fill="none" xmlns="http://www.w3.org/2000/svg">
<path d="M41.6022 2L47.4882 3.48623L54.8562 4.90826C54.9881 4.93371 55.1135 4.98547 55.2249 5.06046L58.8264 7.48366L60.5624 11.3274L62 16.1448L61.9457 20.6035L59.5588 24.4984L55.5443 27.8552L51.6383 30.4177L50.8788 33.672L49.8752 36.7726L46.9457 40.1807L44.1519 42V40.0525L40.2188 42H38.8083V40.8469L41.3309 39.3094L37.3165 39.0532L36.1501 37.6694L40.6528 37.6182L40.2459 36.542L40.7884 34.5945L42.4159 36.132L43.1483 36.0807L44.1248 34.5689L44.0976 32.9545L43.311 32.2114L41.4937 32.0833L39.2694 32.7239L35.6618 33.1851L31.2676 33.4926L26.2495 33.4414L21.34 31.2377L17.0814 29.9308L13.0127 28.624L13.9349 31.3658L15.1013 32.9033L12.8228 31.9552H11.0597L9.92043 29.6746L8.99819 31.2377L8.48282 33.0826L8.53707 35.107L7.31646 33.0058L6.74684 29.8027L5.4991 30.6996L5.1736 31.9552H3.24774L2 30.9045L4.7396 29.5464L6.77396 26.9584L8.0217 23.0634L10.5443 17.6823L14.0434 11.8911L19.2785 7.17617" fill="#A99EB6"/>
<path d="M18.8571 3.35885C14.9549 6.22375 14.2313 11.2196 14 13.1654L33.8912 11.7645L36.898 14.7999C37.3605 16.123 37.4531 17.9286 38.7483 21.1041C40.0435 24.2795 45.2245 25.4626 47.0748 24.8399L48 20.6371C47.3832 20.4814 45.8904 21.3093 44.068 19.4696C42.6803 18.0687 43.3741 14.5664 43.3741 11.7645C43.3741 8.96267 42.3165 2.26539 35.7415 0.790459C29.4966 -0.610427 23.9456 -0.376906 18.8571 3.35885Z" fill="#751C15"/>
<ellipse cx="49.5" cy="24" rx="4.5" ry="5" fill="#F8F9FA"/>
<path d="M19.4706 13.6C19.4706 15.787 17.5744 17.56 15.2353 17.56C12.8962 17.56 11 15.787 11 13.6C11 11.413 12.8962 9.64 15.2353 9.64C17.5744 9.64 19.4706 11.413 19.4706 13.6Z" fill="#F8F9FA"/>
<path d="M25.1176 12.28C25.1176 14.467 23.2214 16.24 20.8824 16.24C18.5433 16.24 16.6471 14.467 16.6471 12.28C16.6471 10.093 18.5433 8.32 20.8824 8.32C23.2214 8.32 25.1176 10.093 25.1176 12.28Z" fill="#F8F9FA"/>
<path d="M43 14.04C43 16.227 41.1038 18 38.7647 18C36.4256 18 34.5294 16.227 34.5294 14.04C34.5294 11.853 36.4256 10.08 38.7647 10.08C41.1038 10.08 43 11.853 43 14.04Z" fill="#F8F9FA"/>
<path d="M31.7059 11.4C31.7059 13.8301 29.599 15.8 27 15.8C24.401 15.8 22.2941 13.8301 22.2941 11.4C22.2941 8.96995 24.401 7 27 7C29.599 7 31.7059 8.96995 31.7059 11.4Z" fill="#F8F9FA"/>
<path d="M37.8235 11.84C37.8235 14.2701 35.7166 16.24 33.1176 16.24C30.5187 16.24 28.4118 14.2701 28.4118 11.84C28.4118 9.40995 30.5187 7.44 33.1176 7.44C35.7166 7.44 37.8235 9.40995 37.8235 11.84Z" fill="#F8F9FA"/>
</svg>
