<svg xmlns="http://www.w3.org/2000/svg" xml:space="preserve" style="enable-background:new 0 0 50 50" viewBox="0 0 50 50">
<path d="M0 0h50v50H0z" style="fill:#494778;stroke:#a99eb6;stroke-width:3;stroke-miterlimit:10"/>
<path d="M37.1 15.9h-3.5c-1.1 0-1.2.1-2.5 1.4l-11 11.1V10.5c0-.1-.1-.2-.2-.3-.1-.1-.2-.2-.3-.2-.1 0-.2-.1-.4 0h-5.7c-.1 0-.2.1-.3.2s-.2.2-.2.3c0 .1-.1.2 0 .4v2.7c0 .1.1.2.2.3.1.1.2.2.3.2.1 0 .2.1.4 0h1.9v21.6h-2.3c-.1 0-.2.1-.3.2-.1.1-.2.2-.2.3 0 .1-.1.2 0 .4v2.8c0 .1.1.2.2.3.1.1.2.2.3.2.1 0 .2.1.4 0h8.5c.1 0 .2-.1.3-.2.1-.1.2-.2.2-.3 0-.1.1-.2 0-.4v-2.8c0-.1-.1-.2-.2-.3-.1-.1-.2-.2-.3-.2-.1 0-.2-.1-.4 0h-1.9V34l4.1-4.2 7.3 8.9c1 1.2 1 1.2 2.4 1.2h3.5c.1 0 .2-.1.3-.2.1-.1.2-.2.2-.3 0-.1.1-.2 0-.4v-2.8c0-.1-.1-.2-.2-.3-.1-.1-.2-.2-.3-.2-.1 0-.2-.1-.4 0h-2.6l-7.3-8.9 6.6-6.7h3.6c.1 0 .2-.1.3-.2.1-.1.2-.2.2-.3 0-.1.1-.2 0-.4v-2.9c0-.1-.1-.2-.2-.3-.1-.1-.2-.2-.3-.2 0 .1-.1.1-.2.1z" style="fill:#f8f9fa"/>
</svg>
