<svg xmlns="http://www.w3.org/2000/svg" width="50" height="50" fill="none">
<path fill="#494778" d="M0 0h50v50H0z"/>
<path fill="#F8F9FA" d="M37.09 15.9h-3.46c-1.1 0-1.22.13-2.47 1.4L20.12 28.41v-17.5a.83.83 0 0 0-.92-.91h-5.28a.82.82 0 0 0-.9.91v2.34a.83.83 0 0 0 .9.93h1.92v21.6h-1.92a.82.82 0 0 0-.91.9v2.38a.82.82 0 0 0 .9.92h8.1a.82.82 0 0 0 .93-.92V36.7a.83.83 0 0 0-.93-.91h-1.9v-1.75l4.15-4.22 7.32 8.94c.97 1.22.97 1.22 2.37 1.22h3.13a.81.81 0 0 0 .91-.92V36.7a.82.82 0 0 0-.9-.91h-2.6l-7.27-8.94 6.63-6.72h3.24a.79.79 0 0 0 .89-.87V16.8a.81.81 0 0 0-.9-.9Z"/>
</svg>
