<svg xmlns="http://www.w3.org/2000/svg" fill="none" viewBox="0 0 120 48" xmlns:xlink="http://www.w3.org/1999/xlink">
<g clip-path="url(#Kodekalender_Logo_Desktop_svg__a)">
<path fill="#F8F9FA" d="M2.1 13.12c-.3 0-.52-.08-.67-.24a.97.97 0 0 1-.23-.69V3.64c0-.3.08-.52.23-.68.15-.15.37-.23.66-.23.29 0 .51.08.66.23.17.16.25.38.25.68v5.31h.03l2.37-2.5c.2-.2.36-.34.5-.45.15-.1.35-.16.6-.16s.43.07.56.2c.13.13.2.28.2.47 0 .18-.09.36-.26.54L4.5 9.7v-.75l2.75 2.97c.17.18.25.37.23.56a.63.63 0 0 1-.23.46.85.85 0 0 1-.55.18c-.27 0-.49-.06-.65-.16-.15-.1-.33-.27-.52-.48l-2.5-2.62H3v2.33c0 .62-.3.93-.9.93Zm9.89.02c-.73 0-1.36-.14-1.9-.44-.54-.3-.96-.72-1.25-1.27a4.1 4.1 0 0 1-.45-1.96c0-.56.08-1.07.24-1.51a3.25 3.25 0 0 1 1.88-1.89c.44-.17.93-.26 1.48-.26.73 0 1.36.15 1.9.45.54.3.96.72 1.25 1.27a4 4 0 0 1 .45 1.94 4.3 4.3 0 0 1-.26 1.53 3.08 3.08 0 0 1-1.86 1.9 4.3 4.3 0 0 1-1.48.24Zm0-1.36c.35 0 .67-.09.94-.26.26-.18.47-.43.61-.77.16-.34.24-.77.24-1.28 0-.77-.17-1.34-.5-1.71a1.62 1.62 0 0 0-1.3-.58 1.63 1.63 0 0 0-1.57 1.02c-.13.34-.2.76-.2 1.27 0 .76.16 1.34.48 1.73.33.38.76.58 1.3.58Zm7.8 1.36c-.62 0-1.16-.14-1.63-.44s-.83-.72-1.08-1.27a4.6 4.6 0 0 1-.4-1.96c0-.76.14-1.4.4-1.94a2.87 2.87 0 0 1 2.7-1.72c.59 0 1.1.15 1.53.44.44.28.74.66.9 1.13h-.17V3.64c0-.3.08-.52.23-.68a.94.94 0 0 1 .67-.23c.28 0 .5.08.66.23.16.16.24.38.24.68v8.55c0 .3-.07.53-.23.7-.15.15-.37.23-.66.23a.88.88 0 0 1-.66-.24.97.97 0 0 1-.23-.69v-1.12l.16.43c-.15.5-.44.9-.88 1.2-.44.3-.96.44-1.56.44Zm.5-1.36c.35 0 .66-.09.93-.26.27-.18.48-.43.62-.77.16-.34.23-.77.23-1.28 0-.77-.16-1.34-.49-1.71a1.62 1.62 0 0 0-1.3-.58 1.63 1.63 0 0 0-1.57 1.02c-.14.34-.2.76-.2 1.27 0 .76.15 1.34.48 1.73.33.38.76.58 1.3.58Zm8.89 1.36c-.8 0-1.48-.14-2.06-.44a3.22 3.22 0 0 1-1.34-1.27 3.9 3.9 0 0 1-.46-1.94c0-.73.15-1.37.45-1.92.3-.55.72-.97 1.25-1.28a3.53 3.53 0 0 1 1.83-.48c.5 0 .94.09 1.34.25a2.82 2.82 0 0 1 1.67 1.83c.15.43.23.92.23 1.47 0 .17-.06.3-.19.4a.83.83 0 0 1-.5.13h-4.62V8.85h4.04l-.23.22c0-.44-.07-.81-.2-1.11a1.4 1.4 0 0 0-.56-.68 1.58 1.58 0 0 0-.9-.24c-.41 0-.76.1-1.05.29-.27.18-.5.44-.64.79-.15.33-.22.74-.22 1.2v.1c0 .8.18 1.39.55 1.78.37.38.92.58 1.64.58a3.46 3.46 0 0 0 1.73-.42c.2-.12.38-.16.53-.15a.5.5 0 0 1 .36.16c.1.1.15.22.17.36a.67.67 0 0 1-.08.42.9.9 0 0 1-.36.37c-.34.22-.73.37-1.17.48-.43.1-.84.14-1.21.14Zm5.23-.02c-.3 0-.51-.08-.67-.24a.97.97 0 0 1-.23-.69V3.64c0-.3.08-.52.23-.68a.94.94 0 0 1 .67-.23c.28 0 .5.08.66.23.16.16.24.38.24.68v5.31h.03l2.38-2.5c.2-.2.36-.34.5-.45.15-.1.34-.16.6-.16.24 0 .43.07.55.2.14.13.2.28.2.47 0 .18-.08.36-.25.54l-2.5 2.65v-.75l2.74 2.97c.17.18.25.37.23.56a.63.63 0 0 1-.23.46.85.85 0 0 1-.55.18c-.26 0-.48-.06-.64-.16-.16-.1-.33-.27-.52-.48l-2.5-2.62h-.04v2.33c0 .62-.3.93-.9.93Zm9.07.02c-.5 0-.96-.1-1.37-.28-.39-.2-.7-.47-.93-.81a2.03 2.03 0 0 1-.33-1.14c0-.52.13-.92.4-1.22.27-.3.7-.53 1.31-.66.6-.14 1.42-.2 2.43-.2h.72v1.03h-.7a9 9 0 0 0-1.43.09c-.35.05-.6.16-.76.3a.77.77 0 0 0-.22.58 1 1 0 0 0 .34.77c.22.2.52.3.92.3.31 0 .6-.07.83-.21.25-.15.45-.36.6-.62.14-.26.2-.56.2-.9V8.53c0-.48-.1-.82-.3-1.04-.22-.2-.57-.31-1.07-.31a4.52 4.52 0 0 0-1.92.44.71.71 0 0 1-.49.08.55.55 0 0 1-.32-.23.76.76 0 0 1-.11-.4c0-.15.04-.29.11-.42a.69.69 0 0 1 .4-.32 6.54 6.54 0 0 1 2.38-.5c.7 0 1.26.1 1.7.31.45.21.79.53 1.01.97.22.42.33.97.33 1.64v3.45c0 .3-.07.53-.21.7a.83.83 0 0 1-.62.23.86.86 0 0 1-.64-.24c-.14-.16-.21-.39-.21-.69v-.69h.11a2 2 0 0 1-1.14 1.44c-.3.14-.63.2-1.02.2Zm7.96 0c-.8 0-1.4-.22-1.8-.67-.4-.46-.6-1.14-.6-2.02V3.64c0-.3.08-.52.23-.68.15-.15.37-.23.66-.23.29 0 .51.08.66.23.17.16.25.38.25.68v6.72c0 .45.09.77.27.98.2.22.46.32.8.32h.23l.2-.03c.13-.02.22.02.27.12.05.08.07.27.07.54 0 .24-.05.43-.14.57-.1.13-.26.21-.48.24a33.78 33.78 0 0 1-.62.04Zm5.6 0c-.8 0-1.49-.14-2.06-.44a3.22 3.22 0 0 1-1.34-1.27 3.9 3.9 0 0 1-.46-1.94c0-.73.15-1.37.44-1.92.31-.55.73-.97 1.26-1.28a3.53 3.53 0 0 1 1.83-.48c.5 0 .94.09 1.34.25a2.82 2.82 0 0 1 1.67 1.83c.15.43.23.92.23 1.47 0 .17-.07.3-.2.4a.83.83 0 0 1-.5.13h-4.62V8.85h4.05l-.23.22c0-.44-.07-.81-.2-1.11a1.4 1.4 0 0 0-.56-.68 1.58 1.58 0 0 0-.91-.24c-.4 0-.75.1-1.04.29-.28.18-.5.44-.65.79a3.1 3.1 0 0 0-.21 1.2v.1c0 .8.18 1.39.54 1.78.38.38.93.58 1.65.58a3.46 3.46 0 0 0 1.73-.42.9.9 0 0 1 .53-.15.5.5 0 0 1 .36.16c.1.1.15.22.17.36a.67.67 0 0 1-.09.42.9.9 0 0 1-.36.37c-.33.22-.72.37-1.16.48-.43.1-.84.14-1.21.14Zm5.22-.02a.9.9 0 0 1-.66-.24.97.97 0 0 1-.23-.69V6.75c0-.3.08-.52.23-.68a.88.88 0 0 1 .65-.23c.28 0 .5.08.65.23.15.16.23.38.23.68v.98l-.16-.36c.21-.5.54-.9.98-1.15.45-.27.96-.4 1.53-.4.56 0 1.03.1 1.4.31.36.21.63.53.81.97.19.42.28.96.28 1.6v3.5c0 .3-.08.52-.23.68a.9.9 0 0 1-.67.24.95.95 0 0 1-.67-.24.97.97 0 0 1-.23-.69V8.8c0-.54-.1-.94-.32-1.19-.2-.25-.52-.37-.95-.37-.53 0-.95.16-1.27.5-.3.33-.46.76-.46 1.31v3.15c0 .62-.3.93-.9.93Zm10.24.02c-.61 0-1.15-.14-1.62-.44-.47-.3-.83-.72-1.08-1.27a4.6 4.6 0 0 1-.4-1.96c0-.76.14-1.4.4-1.94a2.87 2.87 0 0 1 2.7-1.72c.59 0 1.1.15 1.53.44.44.28.74.66.9 1.13h-.17V3.64c0-.3.08-.52.23-.68a.94.94 0 0 1 .67-.23c.28 0 .5.08.66.23.16.16.24.38.24.68v8.55c0 .3-.07.53-.23.7-.15.15-.37.23-.66.23a.88.88 0 0 1-.66-.24.97.97 0 0 1-.23-.69v-1.12l.16.43c-.15.5-.44.9-.88 1.2-.44.3-.96.44-1.56.44Zm.5-1.36c.36 0 .67-.09.94-.26.27-.18.48-.43.62-.77.16-.34.23-.77.23-1.28 0-.77-.16-1.34-.49-1.71a1.62 1.62 0 0 0-1.3-.58 1.63 1.63 0 0 0-1.57 1.02c-.14.34-.2.76-.2 1.27 0 .76.15 1.34.48 1.73.33.38.76.58 1.3.58Zm8.9 1.36c-.8 0-1.48-.14-2.06-.44a3.22 3.22 0 0 1-1.34-1.27 3.9 3.9 0 0 1-.46-1.94c0-.73.15-1.37.45-1.92.3-.55.72-.97 1.25-1.28a3.53 3.53 0 0 1 1.83-.48c.5 0 .94.09 1.34.25a2.82 2.82 0 0 1 1.67 1.83c.15.43.23.92.23 1.47 0 .17-.06.3-.19.4a.83.83 0 0 1-.5.13H79.5V8.85h4.04l-.23.22c0-.44-.07-.81-.2-1.11a1.4 1.4 0 0 0-.56-.68 1.58 1.58 0 0 0-.9-.24c-.41 0-.76.1-1.05.29-.27.18-.49.44-.64.79-.15.33-.22.74-.22 1.2v.1c0 .8.18 1.39.55 1.78.37.38.92.58 1.64.58a3.46 3.46 0 0 0 1.73-.42c.2-.12.38-.16.53-.15a.5.5 0 0 1 .36.16c.1.1.15.22.17.36a.67.67 0 0 1-.08.42.9.9 0 0 1-.36.37c-.34.22-.73.37-1.17.48-.43.1-.84.14-1.21.14Zm5.26-.02a.97.97 0 0 1-.7-.24.97.97 0 0 1-.23-.69V6.75c0-.3.08-.52.23-.68a.88.88 0 0 1 .65-.23c.28 0 .5.08.65.23.15.16.23.38.23.68v.9h-.14c.13-.57.4-1 .79-1.3a3 3 0 0 1 1.57-.54c.2-.01.36.04.47.16.13.12.2.3.22.55a.77.77 0 0 1-.17.59.9.9 0 0 1-.58.26l-.32.03c-.58.06-1.02.24-1.32.55-.3.3-.45.72-.45 1.26v2.98c0 .3-.07.53-.23.7-.15.15-.38.23-.67.23Z"/>
<path fill="#751C15" d="M101.69 3.29c-3.14.98-4.75 4.07-5.34 5.28l12.97 3.59 1.22 2.65c-.01.97-.37 2.17-.27 4.53.1 2.36 3.12 4.3 4.44 4.31l1.55-2.53c-.36-.24-1.5-.04-2.23-1.65-.56-1.22.68-3.35 1.33-5.17.64-1.82 1.5-6.43-2.34-8.87-3.65-2.33-7.24-3.43-11.33-2.14Z"/>
<ellipse cx="3.12" cy="3.22" fill="#F8F9FA" rx="3.12" ry="3.22" transform="rotate(19.56 .83 341.54)skewX(.13)"/>
<path fill="#F8F9FA" d="M99.77 10.13a2.85 2.85 0 0 1-3.61 1.8 2.87 2.87 0 0 1-1.69-3.68 2.85 2.85 0 0 1 3.62-1.8 2.87 2.87 0 0 1 1.68 3.68Z"/>
<path fill="#F8F9FA" d="M103.62 10.47a2.85 2.85 0 0 1-3.61 1.8 2.87 2.87 0 0 1-1.68-3.68 2.85 2.85 0 0 1 3.61-1.8 2.87 2.87 0 0 1 1.68 3.68Zm10.76 5.19a2.85 2.85 0 0 1-3.62 1.8 2.87 2.87 0 0 1-1.68-3.68 2.85 2.85 0 0 1 3.61-1.8 2.87 2.87 0 0 1 1.69 3.68Z"/>
<path fill="#F8F9FA" d="M107.96 11.33a3.17 3.17 0 0 1-4.02 2 3.18 3.18 0 0 1-1.87-4.1 3.17 3.17 0 0 1 4.02-1.99 3.18 3.18 0 0 1 1.87 4.09Z"/>
<path fill="#F8F9FA" d="M111.68 13a3.17 3.17 0 0 1-4.02 1.99 3.18 3.18 0 0 1-1.87-4.09 3.17 3.17 0 0 1 4.02-2 3.18 3.18 0 0 1 1.87 4.1ZM21.53 47a14.9 14.9 0 0 1-4.92-.86c-1.68-.6-3.24-1.1-4.68-1.7a7.1 7.1 0 0 1-.84-.37c-.12 0-.12 0-.24-.13-.24.13-.6.37-.84.5-.48.24-.96.48-1.56.73-.24.12-.73.24-1.2.36a6.33 6.33 0 0 1-3.37-.24c-.48-.12-.96-.49-1.56-.86A3.04 3.04 0 0 1 1 41.87c0-.37.12-.86.24-1.35a4.05 4.05 0 0 1 1.92-2.08c1.44-.73 3.24-.6 5.17-.24.72.12 1.32.37 2.04.49.72-.37 1.44-.98 2.4-1.59a49.64 49.64 0 0 0 3.48-2.57 83.9 83.9 0 0 0 3.36-2.93 19.5 19.5 0 0 0 2.53-3.06c.6-.85.96-1.83 1.08-2.56.12-.61.12-1.1.12-1.6 0-1.95-.48-3.3-1.68-4.27-1.09-.98-2.89-1.47-5.17-1.47-1.2 0-2.28.25-3.36.86a5.9 5.9 0 0 0-3.6 5.38 5.04 5.04 0 0 0 1.68 3.9c.48.38 1.2.62 1.92.62h.48c.24-.12.48-.12.72-.24l.6-.25c.36-.12.6-.12.72-.12.6 0 1.2.24 1.68.61.48.49.72 1.1.72 1.71 0 .49-.12 1.22-1.08 1.96-.6.36-1.2.73-2.04.85-.72.12-1.32.25-1.92.25a7.67 7.67 0 0 1-4.44-1.35A8.47 8.47 0 0 1 5.8 29.4a10.7 10.7 0 0 1-.96-4.4 10.15 10.15 0 0 1 3.85-8.07c1.08-.97 2.4-1.7 3.84-2.2a13.38 13.38 0 0 1 10.2.61c1.69.86 3 2.2 3.97 3.67a10.42 10.42 0 0 1 1.44 5.5v1.1c0 .37-.12.73-.12 1.22-.24 1.71-.96 3.3-2.04 4.77a19.37 19.37 0 0 1-3.6 4.16c-1.33 1.34-2.77 2.44-4.2 3.54-.73.49-1.33.98-2.05 1.47.24.12.48.12.72.24.96.37 1.8.61 2.76.86 1.68.36 2.65.49 3.85 0 .12 0 .12 0 .12-.13a2.54 2.54 0 0 1-.96-2.07c0-.61.24-1.23.72-1.6a2.5 2.5 0 0 1 1.56-.6c.6 0 1.56.24 2.52 1.22a3.49 3.49 0 0 1 1.08 2.44 5.9 5.9 0 0 1-1.08 3.55 5.8 5.8 0 0 1-2.64 1.83c-1.32.37-2.28.49-3.25.49Zm20.7 1.1c-2.89 0-5.3-.63-7.22-2.03a10.68 10.68 0 0 1-4.09-5.2 17.55 17.55 0 0 1-1.32-6.72c0-1.14.12-2.28.24-3.43.24-1.14.48-2.15.72-3.3a19.5 19.5 0 0 1 3.97-7.35 17.21 17.21 0 0 1 6.61-4.82 15.02 15.02 0 0 1 10.22-.63 10.3 10.3 0 0 1 4.7 3.04 11.8 11.8 0 0 1 2.52 4.7c.48 1.64.72 3.54.72 5.32 0 1.52-.12 3.04-.48 4.57a34.04 34.04 0 0 1-1.2 4.18A19.43 19.43 0 0 1 54 42.27a18.63 18.63 0 0 1-5.3 4.18 14.54 14.54 0 0 1-6.48 1.65Zm4.93-28.79c-1.45 0-2.77.25-4.1.76-1.92.76-3.6 2.03-4.8 3.55a14.67 14.67 0 0 0-2.89 5.46 22.3 22.3 0 0 0-.84 5.45c0 1.52.24 3.04.84 4.31a6.2 6.2 0 0 0 2.4 2.92c1.09.76 2.65 1.14 4.58 1.14a8.8 8.8 0 0 0 4.8-1.27c1.45-.89 2.77-1.9 3.85-3.3a19.39 19.39 0 0 0 2.65-4.69L54 32.5c-.36.25-.72.5-1.2.76a8.56 8.56 0 0 1-9.98-.89 7.06 7.06 0 0 1-1.69-2.66 8.05 8.05 0 0 1 0-5.45c.6-1.27 1.45-1.53 2.05-1.53.48 0 1.08.13 1.68.9.6.63.84 1.39.6 2.27-.12.39-.12.77-.12 1.15 0 1.14.36 1.52.72 1.77 1.2.89 3 .89 4.7 0a5.93 5.93 0 0 0 2.16-1.77c.6-.76.84-1.65.84-2.8 0-1.26-.24-2.15-.84-2.78a5.57 5.57 0 0 0-2.4-1.65c-1.09-.38-2.3-.51-3.37-.51ZM78.19 47a14.9 14.9 0 0 1-4.93-.86c-1.68-.6-3.24-1.1-4.68-1.7a5.8 5.8 0 0 1-.84-.37c-.12 0-.12 0-.24-.13-.24.13-.6.37-.84.5-.48.24-.96.48-1.56.73-.24.12-.73.24-1.2.36a6.33 6.33 0 0 1-3.37-.24c-.48-.12-.96-.49-1.56-.86a3.04 3.04 0 0 1-1.32-2.56c0-.37.12-.86.24-1.35a4.05 4.05 0 0 1 1.92-2.08c1.44-.73 3.24-.6 5.17-.24.72.12 1.32.37 2.04.49.72-.37 1.44-.98 2.4-1.59a49.62 49.62 0 0 0 3.48-2.57c1.2-.97 2.28-1.95 3.36-2.93a19.5 19.5 0 0 0 2.53-3.06c.6-.85.96-1.83 1.08-2.56.12-.61.12-1.1.12-1.6 0-1.95-.48-3.3-1.68-4.27-1.09-.98-2.89-1.47-5.17-1.47-1.2 0-2.28.25-3.36.86a6.61 6.61 0 0 0-2.64 2.2c-.6.86-.96 1.96-.96 3.18a5.03 5.03 0 0 0 1.68 3.9c.48.38 1.2.62 1.92.62h.48c.24-.12.48-.12.72-.24l.6-.25c.36-.12.6-.12.72-.12.6 0 1.2.24 1.68.61.48.49.72 1.1.72 1.71 0 .49-.12 1.22-1.08 1.96-.48.36-1.2.73-2.04.85-.72.12-1.32.25-1.92.25a7.67 7.67 0 0 1-4.44-1.35 8.47 8.47 0 0 1-2.77-3.42 10.7 10.7 0 0 1-.96-4.4 10.15 10.15 0 0 1 3.85-8.07c1.08-.97 2.4-1.7 3.84-2.2a13.38 13.38 0 0 1 10.2.61c1.69.86 3 2.2 3.97 3.8a10.42 10.42 0 0 1 1.44 5.5v1.1c0 .36-.12.73-.12 1.22-.24 1.7-.96 3.3-2.04 4.76a19.37 19.37 0 0 1-3.6 4.16 38.18 38.18 0 0 1-4.2 3.54c-.73.5-1.33.98-2.05 1.47.24.12.48.12.72.24.96.37 1.8.61 2.76.86 1.68.37 2.65.49 3.85 0 .12 0 .12 0 .12-.12a2.48 2.48 0 0 1-.96-1.96 2 2 0 0 1 .72-1.59 2.5 2.5 0 0 1 1.56-.6c.6 0 1.56.24 2.52 1.21a3.49 3.49 0 0 1 1.08 2.45 5.9 5.9 0 0 1-1.08 3.54 5.8 5.8 0 0 1-2.64 1.84c-1.44.12-2.4.24-3.25.24Zm18.12 1.1a10.1 10.1 0 0 1-3.82-.73 11.37 11.37 0 0 1-5.8-4.86 7.7 7.7 0 0 1-.99-3.65c0-.73.12-1.46.37-2.19.25-.72.62-1.45 1.11-2.18a5.77 5.77 0 0 1 2.47-2.07 7.78 7.78 0 0 1 6.17.12 6.28 6.28 0 0 1 2.6 2.07 5.28 5.28 0 0 1 1.1 3.28c0 .85-.24 1.46-.61 1.82-.5.49-1 .73-1.73.73a2.76 2.76 0 0 1-2.6-2.55c0-.36-.12-.6-.49-.85-.5-.24-.86-.49-1.23-.49-.87 0-1.48.25-1.85.61a2 2 0 0 0-.62 1.46c0 .6.25 1.34.62 2.07a5.9 5.9 0 0 0 1.97 1.94c1.6.97 4.32.97 6.91.24a7.7 7.7 0 0 0 3.21-1.45 5.74 5.74 0 0 0 2.22-2.31c.5-.85.87-1.95.87-3.16 0-2.31-.74-4.02-2.47-4.99a9.8 9.8 0 0 1-2.72.85c-1.1.25-2.22.37-3.33.37-.5 0-1.11 0-1.73-.12a4.52 4.52 0 0 1-2.1-.85c-.61-.37-1.23-1.1-1.23-2.44 0-.97.37-1.7 1.11-2.18a5.71 5.71 0 0 1 1.98-.85 44.3 44.3 0 0 1 2.1-.37c.74-.12 1.23-.12 1.72-.12 1.24 0 2.47.12 3.58.49.5-.49.87-.85 1.11-1.34.25-.49.5-1.1.5-1.82v-.98a2.6 2.6 0 0 0-1.24-1.94c-1.48-.97-3.08-.97-5.18-.6-.62.11-1.11.36-1.36.72.25.12.37.12.62.24 1.1.37 1.73 1.1 1.73 2.2 0 .6-.25 2.54-3.34 2.54a3.8 3.8 0 0 1-2.46-.85 3.66 3.66 0 0 1-1.36-1.7 4.81 4.81 0 0 1-.37-1.82v-.6c0-.25 0-.5.12-.62.37-1.46.99-2.67 1.98-3.4a7.7 7.7 0 0 1 3.2-1.46c2.6-.49 5.06-.49 7.29.6 1.23.62 2.46 1.47 3.33 2.44a7.48 7.48 0 0 1 1.73 3.89v1.33a8.1 8.1 0 0 1-1.98 5.48 11.2 11.2 0 0 1 2.35 3.03 11.36 11.36 0 0 1 1.23 4.87 11.29 11.29 0 0 1-5.55 9.48 12.35 12.35 0 0 1-4.7 1.94c-1.1.49-2.83.73-4.44.73Z"/>
</g>
<defs>
<clipPath id="Kodekalender_Logo_Desktop_svg__a">
<path fill="#fff" d="M0 0h120v48H0z"/>
</clipPath>
</defs>
</svg>
