<svg xmlns="http://www.w3.org/2000/svg" id="Kodekalender_Logo_Desktop_2025_svg__Layer_1" viewBox="0 0 118.58 48" xmlns:xlink="http://www.w3.org/1999/xlink">
<defs>
<style>
.Kodekalender_Logo_Desktop_2025_svg__cls-3{fill:#f8f9fa}
</style>
</defs>
<path d="M104.38 13.68c.65-.26 1.02-.03 1.31.9.12.4.18.9.18 1.49 0 1.1-.31 2.02-.93 2.76s-1.72 1.11-3.29 1.11c-.56 0-1.19-.04-1.89-.13-.69-.09-1.39-.2-2.09-.33l-2.02-.38c-.66-.12-1.2-.21-1.65-.27l-1.34 8.05c.92-.5 1.82-.86 2.69-1.07.87-.21 1.77-.31 2.69-.31a9.32 9.32 0 0 1 7.36 3.2c.84.98 1.49 2.12 1.93 3.42.45 1.31.67 2.67.67 4.09 0 1.27-.2 2.55-.58 3.82a9.6 9.6 0 0 1-1.85 3.43 9.46 9.46 0 0 1-3.31 2.47c-1.36.64-3.03.96-4.98.96-.98 0-2.02-.09-3.11-.27s-2.11-.52-3.02-1.05c-.92-.52-1.68-1.25-2.27-2.2s-.89-2.19-.89-3.74c0-1.01.13-1.86.4-2.56.26-.69.62-1.27 1.04-1.71.43-.45.92-.76 1.47-.96.55-.19 1.1-.29 1.67-.29.89 0 1.64.18 2.27.56h.02c.84.51.71 1.74-.2 2.1a3.2 3.2 0 0 0-.93.53c-.56.46-.84 1.16-.84 2.11a3.97 3.97 0 0 0 1.38 3.11 4.34 4.34 0 0 0 2.94 1.06c.83 0 1.53-.22 2.11-.67a4.9 4.9 0 0 0 1.4-1.71c.36-.69.62-1.47.78-2.31.16-.84.24-1.65.24-2.43a9.1 9.1 0 0 0-.51-3.22c-.34-.9-.8-1.65-1.38-2.24s-1.26-1.03-2.05-1.31a7.32 7.32 0 0 0-2.47-.42c-1.34 0-2.57.26-3.71.78l-.03.02a1.6 1.6 0 0 1-2.26-1.69L91.21 16a2.1 2.1 0 0 1 2.38-1.76h.02l1.65.25a19.86 19.86 0 0 0 3.32.25c1.08 0 2.16-.12 3.22-.32s1.37-.21 2.61-.74Z" class="Kodekalender_Logo_Desktop_2025_svg__cls-3"/>
<path d="M0 0h118.58v48H0z" style="fill:none"/>
<path d="M2.09 13.12c-.29 0-.51-.08-.66-.23a.97.97 0 0 1-.23-.69V3.64c0-.3.08-.52.23-.68s.37-.23.66-.23.51.08.66.23c.16.15.24.38.24.68v5.31h.03L5.4 6.44c.19-.19.36-.34.5-.45.14-.11.34-.16.59-.16s.44.07.56.2c.13.12.2.28.2.46s-.09.36-.26.55L4.48 9.69v-.75l2.75 2.97c.17.18.25.37.23.56a.6.6 0 0 1-.23.46.82.82 0 0 1-.55.17c-.27 0-.48-.05-.65-.16a3.08 3.08 0 0 1-.52-.48L3 9.84h-.03v2.33c0 .61-.3.92-.91.92Zm9.9.02c-.73 0-1.36-.15-1.9-.45-.54-.3-.96-.72-1.25-1.27a4.08 4.08 0 0 1-.45-1.96c0-.57.08-1.07.24-1.51.17-.45.42-.84.73-1.15.32-.33.7-.57 1.14-.73a4.1 4.1 0 0 1 1.48-.26c.73 0 1.36.15 1.9.45.54.3.96.72 1.25 1.27a4 4 0 0 1 .45 1.94 4.3 4.3 0 0 1-.26 1.53c-.16.45-.4.84-.72 1.17-.32.32-.7.56-1.14.73-.44.16-.94.24-1.48.24Zm0-1.36c.36 0 .67-.09.94-.26s.48-.43.62-.76c.15-.35.23-.77.23-1.28 0-.77-.16-1.34-.49-1.71a1.64 1.64 0 0 0-1.3-.58c-.36 0-.67.09-.94.26a1.6 1.6 0 0 0-.63.76c-.14.34-.22.76-.22 1.27 0 .76.16 1.33.49 1.73.33.38.76.58 1.3.58Zm7.79 1.36c-.61 0-1.16-.15-1.63-.45a3 3 0 0 1-1.08-1.27c-.26-.56-.39-1.21-.39-1.96s.13-1.41.39-1.94a3 3 0 0 1 1.08-1.27c.47-.3 1.01-.45 1.63-.45s1.09.14 1.53.43c.44.29.74.67.89 1.14h-.16V3.63c0-.3.08-.52.23-.68.15-.15.37-.23.66-.23s.51.08.66.23c.16.15.24.38.24.68v8.55c0 .3-.08.53-.23.69-.15.15-.37.23-.66.23s-.51-.08-.66-.23a.97.97 0 0 1-.23-.69v-1.12l.16.43c-.14.5-.44.9-.88 1.2-.44.3-.96.45-1.56.45Zm.51-1.36c.36 0 .67-.09.94-.26.27-.17.48-.43.62-.76.15-.35.23-.77.23-1.28 0-.77-.16-1.34-.49-1.71a1.64 1.64 0 0 0-1.3-.58c-.36 0-.67.09-.94.26a1.6 1.6 0 0 0-.63.76c-.14.34-.22.76-.22 1.27 0 .76.16 1.33.49 1.73.33.38.76.58 1.3.58Zm8.89 1.36c-.8 0-1.48-.15-2.06-.45a3.22 3.22 0 0 1-1.34-1.27c-.31-.55-.46-1.2-.46-1.94s.15-1.37.45-1.92c.31-.55.72-.97 1.25-1.28a3.52 3.52 0 0 1 1.83-.48c.5 0 .95.08 1.34.24.4.16.74.4 1.02.71.29.31.5.68.65 1.12.15.43.23.92.23 1.47 0 .17-.06.31-.19.4a.8.8 0 0 1-.5.13h-4.62V8.83h4.05l-.23.22c0-.44-.07-.81-.2-1.11a1.4 1.4 0 0 0-.56-.68 1.6 1.6 0 0 0-.91-.24c-.4 0-.75.1-1.04.29-.28.18-.49.45-.65.79-.14.34-.22.74-.22 1.21v.1c0 .79.18 1.38.55 1.77.37.38.92.58 1.64.58a3.4 3.4 0 0 0 1.73-.42c.2-.12.38-.16.53-.14.15 0 .27.06.36.16.1.1.15.22.17.36.02.13 0 .27-.09.42a.9.9 0 0 1-.36.37c-.34.21-.72.37-1.17.48-.43.1-.84.14-1.21.14Zm5.23-.02c-.29 0-.51-.08-.66-.23a.97.97 0 0 1-.23-.69V3.64c0-.3.08-.52.23-.68.15-.15.37-.23.66-.23s.51.08.66.23c.16.15.24.38.24.68v5.31h.03l2.38-2.51c.19-.19.36-.34.5-.45.14-.11.34-.16.59-.16s.44.07.56.2c.13.12.2.28.2.46s-.09.36-.26.55L36.8 9.69v-.75l2.75 2.97c.17.18.25.37.23.56a.6.6 0 0 1-.23.46.82.82 0 0 1-.55.17c-.27 0-.48-.05-.65-.16a3.08 3.08 0 0 1-.52-.48l-2.51-2.62h-.03v2.33c0 .61-.3.92-.91.92Zm9.07.02c-.51 0-.96-.1-1.37-.29-.39-.2-.71-.47-.94-.81a2.05 2.05 0 0 1-.33-1.14c0-.52.13-.93.4-1.22.27-.31.71-.53 1.31-.66a12 12 0 0 1 2.43-.2h.72v1.04h-.71a9 9 0 0 0-1.43.09c-.36.06-.61.16-.76.3a.77.77 0 0 0-.22.58 1 1 0 0 0 .33.78c.22.2.53.3.92.3a1.6 1.6 0 0 0 1.43-.84c.14-.26.22-.56.22-.89V8.52c0-.48-.11-.83-.32-1.04-.21-.21-.57-.32-1.07-.32a4.36 4.36 0 0 0-1.92.45.68.68 0 0 1-.49.07.62.62 0 0 1-.32-.23c-.08-.12-.12-.26-.12-.4s.04-.28.12-.42a.74.74 0 0 1 .39-.32 6.79 6.79 0 0 1 2.39-.51c.69 0 1.26.11 1.7.32.45.21.79.53 1.01.96.22.42.33.97.33 1.64v3.46c0 .3-.07.53-.22.69-.14.15-.35.23-.62.23s-.48-.08-.63-.23a1.02 1.02 0 0 1-.22-.69v-.69h.12a1.93 1.93 0 0 1-1.13 1.44c-.3.13-.64.2-1.02.2Zm7.96 0c-.8 0-1.4-.23-1.8-.68-.4-.46-.6-1.13-.6-2.02v-6.8c0-.3.08-.52.23-.68.15-.15.37-.23.66-.23s.51.08.66.23c.16.15.24.38.24.68v6.72c0 .44.09.77.27.98.19.21.46.32.81.32h.22c.07 0 .13-.02.2-.03.13-.02.23.02.27.12.05.09.07.27.07.55 0 .24-.05.43-.14.56s-.25.22-.48.24l-.3.03-.32.01Zm5.6 0c-.8 0-1.48-.15-2.06-.45a3.22 3.22 0 0 1-1.34-1.27c-.31-.55-.46-1.2-.46-1.94s.15-1.37.45-1.92c.31-.55.72-.97 1.25-1.28a3.52 3.52 0 0 1 1.83-.48c.5 0 .95.08 1.34.24.4.16.74.4 1.02.71.29.31.5.68.65 1.12.15.43.23.92.23 1.47 0 .17-.06.31-.19.4a.8.8 0 0 1-.5.13h-4.62V8.83h4.05l-.23.22c0-.44-.07-.81-.2-1.11a1.4 1.4 0 0 0-.56-.68 1.6 1.6 0 0 0-.91-.24c-.4 0-.75.1-1.04.29-.28.18-.49.45-.65.79-.14.34-.22.74-.22 1.21v.1c0 .79.18 1.38.55 1.77.37.38.92.58 1.64.58a3.4 3.4 0 0 0 1.73-.42c.2-.12.38-.16.53-.14.15 0 .27.06.36.16.1.1.15.22.17.36.02.13 0 .27-.09.42a.9.9 0 0 1-.36.37c-.34.21-.72.37-1.17.48-.43.1-.84.14-1.21.14Zm5.22-.02c-.29 0-.51-.08-.66-.23a.97.97 0 0 1-.23-.69V6.76c0-.3.08-.52.23-.68.15-.15.37-.23.65-.23s.49.08.65.23c.15.15.23.38.23.68v.98l-.16-.36c.21-.51.54-.89.98-1.15.45-.27.96-.4 1.53-.4s1.03.11 1.4.32c.36.21.64.53.82.96.18.42.27.96.27 1.61v3.48c0 .3-.08.53-.23.69-.15.15-.37.23-.66.23s-.51-.08-.68-.23a.97.97 0 0 1-.23-.69V8.8c0-.55-.11-.95-.32-1.2-.2-.25-.52-.37-.95-.37-.53 0-.95.17-1.27.5-.31.33-.46.76-.46 1.31v3.15c0 .61-.3.92-.91.92Zm10.24.02c-.61 0-1.16-.15-1.63-.45a3 3 0 0 1-1.08-1.27c-.26-.56-.39-1.21-.39-1.96s.13-1.41.39-1.94a3 3 0 0 1 1.08-1.27c.47-.3 1.01-.45 1.63-.45s1.09.14 1.53.43c.44.29.74.67.89 1.14h-.16V3.63c0-.3.08-.52.23-.68.15-.15.37-.23.66-.23s.51.08.66.23c.16.15.24.38.24.68v8.55c0 .3-.08.53-.23.69-.15.15-.37.23-.66.23s-.51-.08-.66-.23a.97.97 0 0 1-.23-.69v-1.12l.16.43c-.14.5-.44.9-.88 1.2-.44.3-.96.45-1.56.45Zm.51-1.36c.36 0 .67-.09.94-.26.27-.17.48-.43.62-.76.15-.35.23-.77.23-1.28 0-.77-.16-1.34-.49-1.71a1.64 1.64 0 0 0-1.3-.58c-.36 0-.67.09-.94.26a1.6 1.6 0 0 0-.63.76c-.14.34-.22.76-.22 1.27 0 .76.16 1.33.49 1.73.33.38.76.58 1.3.58Zm8.89 1.36c-.8 0-1.48-.15-2.06-.45a3.22 3.22 0 0 1-1.34-1.27c-.31-.55-.46-1.2-.46-1.94s.15-1.37.45-1.92c.31-.55.72-.97 1.25-1.28a3.52 3.52 0 0 1 1.83-.48c.5 0 .95.08 1.34.24.4.16.74.4 1.02.71.29.31.5.68.65 1.12.15.43.23.92.23 1.47 0 .17-.06.31-.19.4a.8.8 0 0 1-.5.13H79.5V8.83h4.05l-.23.22c0-.44-.07-.81-.2-1.11a1.4 1.4 0 0 0-.56-.68 1.6 1.6 0 0 0-.91-.24c-.4 0-.75.1-1.04.29-.28.18-.49.45-.65.79-.14.34-.22.74-.22 1.21v.1c0 .79.18 1.38.55 1.77.37.38.92.58 1.64.58a3.4 3.4 0 0 0 1.73-.42c.2-.12.38-.16.53-.14.15 0 .27.06.36.16.1.1.15.22.17.36.02.13 0 .27-.09.42a.9.9 0 0 1-.36.37c-.34.21-.72.37-1.17.48-.43.1-.84.14-1.21.14Zm5.26-.02a.97.97 0 0 1-.69-.23.97.97 0 0 1-.23-.69V6.76c0-.3.08-.52.23-.68.15-.15.37-.23.65-.23s.49.08.65.23c.15.15.23.38.23.68v.91h-.14c.13-.58.4-1.01.79-1.31.39-.3.92-.48 1.57-.53.2-.02.36.03.48.16.12.12.2.3.22.55a.77.77 0 0 1-.17.59c-.12.14-.32.23-.58.26l-.32.03c-.59.06-1.03.24-1.32.55-.3.3-.45.72-.45 1.27v2.98c0 .3-.08.53-.23.69-.15.15-.38.23-.68.23ZM21.53 47c-1.56 0-3.12-.24-4.92-.86-1.68-.61-3.24-1.1-4.68-1.71-.36-.12-.6-.24-.84-.37q-.12 0-.24-.12c-.24.12-.6.37-.84.49-.48.24-.96.49-1.56.73-.24.12-.72.24-1.2.37a6.43 6.43 0 0 1-3.36-.24c-.48-.12-.96-.49-1.56-.86a3.05 3.05 0 0 1-1.32-2.57c0-.37.12-.86.24-1.34a4.05 4.05 0 0 1 1.92-2.08c1.44-.73 3.24-.61 5.16-.24.72.12 1.32.37 2.04.49.72-.37 1.44-.98 2.4-1.59a48 48 0 0 0 3.48-2.57c1.2-.98 2.28-1.96 3.36-2.93.96-.98 1.92-2.08 2.52-3.06.6-.86.96-1.83 1.08-2.57.12-.61.12-1.1.12-1.59 0-1.96-.48-3.3-1.68-4.28-1.08-.98-2.88-1.47-5.16-1.47-1.2 0-2.28.24-3.36.86a5.88 5.88 0 0 0-3.12 7.7 4 4 0 0 0 1.2 1.59c.48.37 1.2.61 1.92.61h.48c.24-.12.48-.12.72-.24l.6-.24c.36-.12.6-.12.72-.12.6 0 1.2.24 1.68.61.48.49.72 1.1.72 1.71 0 .49-.12 1.22-1.08 1.96-.6.37-1.2.73-2.04.86-.72.12-1.32.24-1.92.24a7.7 7.7 0 0 1-4.44-1.34 8.52 8.52 0 0 1-2.76-3.42c-.6-1.34-.96-2.81-.96-4.4 0-1.71.36-3.18 1.08-4.64a10.85 10.85 0 0 1 2.76-3.42c1.08-.98 2.4-1.71 3.84-2.2a13.33 13.33 0 0 1 10.2.61c1.68.86 3 2.2 3.96 3.67a10.42 10.42 0 0 1 1.44 5.5v1.1c0 .37-.12.73-.12 1.22-.24 1.71-.96 3.3-2.04 4.77a19.5 19.5 0 0 1-3.6 4.16c-1.32 1.34-2.76 2.44-4.2 3.54-.72.49-1.32.98-2.04 1.47.24.12.48.12.72.24.96.37 1.8.61 2.76.86 1.68.37 2.64.49 3.84 0q.12 0 .12-.12c-.84-.73-.96-1.47-.96-2.08s.24-1.22.72-1.59c.48-.37.96-.61 1.56-.61s1.56.24 2.52 1.22a3.48 3.48 0 0 1 1.08 2.44c0 1.34-.36 2.57-1.08 3.54a5.7 5.7 0 0 1-2.64 1.83c-1.32.37-2.28.49-3.24.49Zm20.7 1.1c-2.89 0-5.29-.63-7.21-2.03a10.69 10.69 0 0 1-4.09-5.2 17.58 17.58 0 0 1-1.32-6.72c0-1.14.12-2.28.24-3.42l.72-3.3a19.41 19.41 0 0 1 3.97-7.36 17.16 17.16 0 0 1 6.61-4.82 14.96 14.96 0 0 1 10.22-.63 10.3 10.3 0 0 1 4.69 3.04c1.2 1.4 2.04 2.92 2.53 4.69.48 1.65.72 3.55.72 5.33 0 1.52-.12 3.04-.48 4.57a34.37 34.37 0 0 1-1.2 4.19 19.13 19.13 0 0 1-3.61 5.83 18.67 18.67 0 0 1-5.29 4.19 14.6 14.6 0 0 1-6.49 1.65Zm4.93-28.79c-1.44 0-2.77.25-4.09.76a11.66 11.66 0 0 0-4.81 3.55 14.8 14.8 0 0 0-2.89 5.45c-.48 1.9-.84 3.68-.84 5.45 0 1.52.24 3.04.84 4.31a6.2 6.2 0 0 0 2.4 2.92c1.08.76 2.65 1.14 4.57 1.14 1.8 0 3.37-.38 4.81-1.27a13.9 13.9 0 0 0 3.85-3.3 19.96 19.96 0 0 0 2.65-4.69l.36-1.14c-.36.25-.72.51-1.2.76a8.56 8.56 0 0 1-9.98-.89 7.1 7.1 0 0 1-1.68-2.66 8.03 8.03 0 0 1 0-5.45c.6-1.27 1.44-1.52 2.04-1.52.48 0 1.08.13 1.68.89.6.63.84 1.4.6 2.28-.12.38-.12.76-.12 1.14 0 1.14.36 1.52.72 1.78 1.2.89 3.01.89 4.69 0 .84-.38 1.56-1.01 2.16-1.78s.84-1.65.84-2.79c0-1.27-.24-2.16-.84-2.79a5.56 5.56 0 0 0-2.4-1.65 10.34 10.34 0 0 0-3.37-.51ZM78.18 47c-1.56 0-3.12-.24-4.92-.86-1.68-.61-3.24-1.1-4.68-1.71-.36-.12-.6-.24-.84-.37q-.12 0-.24-.12c-.24.12-.6.37-.84.49-.48.24-.96.49-1.56.73-.24.12-.72.24-1.2.37a6.43 6.43 0 0 1-3.36-.24c-.48-.12-.96-.49-1.56-.86a3.05 3.05 0 0 1-1.32-2.57c0-.37.12-.86.24-1.34a4.05 4.05 0 0 1 1.92-2.08c1.44-.73 3.24-.61 5.16-.24.72.12 1.32.37 2.04.49.72-.37 1.44-.98 2.4-1.59a48 48 0 0 0 3.48-2.57c1.2-.98 2.28-1.96 3.36-2.93.96-.98 1.92-2.08 2.52-3.06.6-.86.96-1.83 1.08-2.57.12-.61.12-1.1.12-1.59 0-1.96-.48-3.3-1.68-4.28-1.08-.98-2.88-1.47-5.16-1.47-1.2 0-2.28.24-3.36.86a6.6 6.6 0 0 0-2.64 2.2c-.6.86-.96 1.96-.96 3.18a5 5 0 0 0 1.68 3.91c.48.37 1.2.61 1.92.61h.48c.24-.12.48-.12.72-.24l.6-.24c.36-.12.6-.12.72-.12.6 0 1.2.24 1.68.61.48.49.72 1.1.72 1.71 0 .49-.12 1.22-1.08 1.96-.48.37-1.2.73-2.04.86-.72.12-1.32.24-1.92.24a7.7 7.7 0 0 1-4.44-1.34 8.52 8.52 0 0 1-2.76-3.42c-.6-1.34-.96-2.81-.96-4.4 0-1.71.36-3.18 1.08-4.64a10.85 10.85 0 0 1 2.76-3.42c1.08-.98 2.4-1.71 3.84-2.2a13.33 13.33 0 0 1 10.2.61c1.68.86 3 2.2 3.96 3.79a10.42 10.42 0 0 1 1.44 5.5v1.1c0 .37-.12.73-.12 1.22-.24 1.71-.96 3.3-2.04 4.77a19.5 19.5 0 0 1-3.6 4.16c-1.32 1.34-2.76 2.44-4.2 3.54-.72.49-1.32.98-2.04 1.47.24.12.48.12.72.24.96.37 1.8.61 2.76.86 1.68.37 2.64.49 3.84 0q.12 0 .12-.12a2.48 2.48 0 0 1-.96-1.96 2 2 0 0 1 .72-1.59c.48-.37.96-.61 1.56-.61s1.56.24 2.52 1.22a3.48 3.48 0 0 1 1.08 2.44c0 1.34-.36 2.57-1.08 3.54a5.7 5.7 0 0 1-2.64 1.83c-1.44.12-2.4.24-3.24.24Z" class="Kodekalender_Logo_Desktop_2025_svg__cls-3"/>
<path d="M99.69 4.29c-3.14.98-4.75 4.07-5.34 5.29l12.98 3.58 1.22 2.66c-.01.97-.37 2.16-.27 4.52.1 2.36 3.12 4.3 4.44 4.31l1.55-2.53c-.36-.24-1.5-.04-2.23-1.65-.56-1.23.68-3.35 1.33-5.17.64-1.82 1.51-6.43-2.34-8.87-3.65-2.32-7.24-3.43-11.33-2.14Z" style="fill:#751c15"/>
<ellipse cx="114.25" cy="24.51" class="Kodekalender_Logo_Desktop_2025_svg__cls-3" rx="3.22" ry="3.12" transform="rotate(-72.54 114.24 24.52)"/>
<path d="M97.77 11.13a2.85 2.85 0 0 1-3.61 1.8 2.86 2.86 0 0 1-1.68-3.68 2.85 2.85 0 0 1 3.61-1.8 2.86 2.86 0 0 1 1.68 3.68Z" class="Kodekalender_Logo_Desktop_2025_svg__cls-3"/>
<path d="M101.62 11.47a2.85 2.85 0 0 1-3.61 1.8 2.86 2.86 0 0 1-1.68-3.68 2.85 2.85 0 0 1 3.61-1.8 2.86 2.86 0 0 1 1.68 3.68Zm10.76 5.19a2.85 2.85 0 0 1-3.61 1.8 2.86 2.86 0 0 1-1.68-3.68 2.85 2.85 0 0 1 3.61-1.8 2.86 2.86 0 0 1 1.68 3.68Z" class="Kodekalender_Logo_Desktop_2025_svg__cls-3"/>
<path d="M105.96 12.33c-.59 1.68-2.39 2.57-4.02 2s-2.46-2.41-1.87-4.09a3.17 3.17 0 0 1 4.01-2 3.19 3.19 0 0 1 1.87 4.09Z" class="Kodekalender_Logo_Desktop_2025_svg__cls-3"/>
<path d="M109.68 13.99a3.17 3.17 0 0 1-4.01 2 3.19 3.19 0 0 1-1.87-4.09 3.18 3.18 0 0 1 4.02-2 3.2 3.2 0 0 1 1.87 4.09Z" class="Kodekalender_Logo_Desktop_2025_svg__cls-3"/>
</svg>
