<svg xmlns="http://www.w3.org/2000/svg" fill="none" viewBox="0 0 36 30">
<path fill="#751C15" d="M21.85 3.77c-1.82 1.03-2.42 3.18-2.63 4.03l8.52.59 1.1 1.52c.12.6.06 1.4.42 2.89.37 1.47 2.5 2.3 3.32 2.15l.63-1.8c-.25-.1-.93.17-1.6-.75-.5-.7 0-2.2.15-3.43.16-1.24.1-4.25-2.6-5.3-2.57-1-4.94-1.23-7.31.1Z"/>
<ellipse cx="1.98" cy="2.07" fill="#F8F9FA" rx="1.98" ry="2.07" transform="matrix(.98986 .14203 -.12968 .99156 31.82 12.33)"/>
<path fill="#F8F9FA" d="M21.55 8.15a1.8 1.8 0 0 1-2 1.6 1.85 1.85 0 0 1-1.53-2.1 1.8 1.8 0 0 1 2-1.6 1.85 1.85 0 0 1 1.53 2.1Z"/>
<path fill="#F8F9FA" d="M23.98 7.87a1.8 1.8 0 0 1-2 1.6 1.85 1.85 0 0 1-1.53-2.1 1.8 1.8 0 0 1 2.01-1.6 1.85 1.85 0 0 1 1.52 2.1Zm7.35 1.9a1.8 1.8 0 0 1-2 1.6 1.85 1.85 0 0 1-1.53-2.11 1.8 1.8 0 0 1 2.01-1.6 1.85 1.85 0 0 1 1.52 2.1Z"/>
<path fill="#F8F9FA" d="M26.79 7.86a2 2 0 0 1-2.24 1.77 2.06 2.06 0 0 1-1.69-2.34 2 2 0 0 1 2.23-1.77 2.06 2.06 0 0 1 1.7 2.34Z"/>
<path fill="#F8F9FA" d="M29.31 8.43a2 2 0 0 1-2.23 1.77 2.06 2.06 0 0 1-1.7-2.34 2 2 0 0 1 2.24-1.77 2.06 2.06 0 0 1 1.69 2.34ZM11.45 27c-.8 0-1.59-.13-2.5-.47-.86-.33-1.65-.6-2.39-.93-.18-.07-.3-.13-.42-.2-.07 0-.07 0-.13-.07l-.42.27c-.25.13-.5.27-.8.4-.12.07-.37.13-.61.2-.55.13-1.16.07-1.71-.13-.25-.07-.5-.27-.8-.47A1.7 1.7 0 0 1 1 24.2c0-.2.06-.47.12-.73.25-.54.55-.94.98-1.14.73-.4 1.65-.33 2.63-.13.37.07.67.2 1.04.27.37-.2.73-.54 1.22-.87.55-.4 1.16-.87 1.77-1.4.62-.53 1.17-1.07 1.72-1.6.49-.53.97-1.13 1.28-1.67.3-.46.49-1 .55-1.4.06-.33.06-.6.06-.86 0-1.07-.24-1.8-.85-2.34-.55-.53-1.47-.8-2.63-.8-.61 0-1.17.14-1.72.47a3.22 3.22 0 0 0-1.83 2.93c0 .47.06.87.25 1.27.12.33.36.67.6.87.25.2.62.33.98.33h.25c.12-.07.24-.07.37-.13l.3-.14c.19-.06.3-.06.37-.06.3 0 .61.13.85.33.25.27.37.6.37.93 0 .27-.06.67-.55 1.07-.24.2-.61.4-1.04.47-.37.06-.67.13-.98.13-.85 0-1.65-.27-2.26-.73a4.58 4.58 0 0 1-1.4-1.87 6.19 6.19 0 0 1 .06-4.93c.36-.74.8-1.34 1.4-1.87a5.5 5.5 0 0 1 1.96-1.2 6.4 6.4 0 0 1 5.2.33c.85.47 1.52 1.2 2.01 2.07a6 6 0 0 1 .74 3v.6c0 .2-.06.4-.06.67-.13.93-.5 1.8-1.04 2.6-.5.8-1.1 1.6-1.84 2.26-.67.74-1.4 1.34-2.14 1.94-.36.26-.67.53-1.04.8.13.06.25.06.37.13.49.2.92.33 1.4.47.86.2 1.35.26 1.96 0 .06 0 .06 0 .06-.07a1.4 1.4 0 0 1-.49-1.07c0-.33.13-.66.37-.86.25-.2.49-.34.8-.34.3 0 .8.14 1.28.67.37.4.55.87.55 1.33 0 .74-.18 1.4-.55 1.94-.37.46-.8.8-1.35 1-.73.06-1.22.13-1.65.13Z"/>
<path fill="#F8F9FA" stroke="#F8F9FA" d="M23.06 27c-.52 0-.9-.21-1.14-.64a2.22 2.22 0 0 1-.31-1.3c.17-1.57.42-3.09.75-4.55l-.05-.06c-.64-.1-1.27-.2-1.9-.27-.63-.08-1.2-.11-1.73-.11a5.77 5.77 0 0 0-1.73.25l-.53.25-.36.16a1 1 0 0 1-.45.11c-.22 0-.38-.08-.47-.25-.1-.18-.14-.37-.14-.55 0-.22.04-.37.11-.45l1.76-1.77 1.73-1.78 2.6-2.66c.85-.89 1.74-1.75 2.67-2.6l1.73-1.56a.73.73 0 0 1 .53-.22c.31 0 .47.18.47.53v.14c0 .05 0 .1-.03.13a223.38 223.38 0 0 0-2.45 9.54l.06.06a70.18 70.18 0 0 0 2.59.28c.26.03.45 0 .58-.11a.58.58 0 0 0 .23-.45c0-.14-.07-.3-.2-.47a.94.94 0 0 0-.53-.36.71.71 0 0 1-.42-.3 1.16 1.16 0 0 1-.1-.48c0-.2.05-.37.16-.52.11-.15.28-.22.5-.22.34 0 .76.22 1.26.66.26.3.44.6.55.92.13.3.2.57.2.83 0 .52-.19.95-.56 1.3a2.41 2.41 0 0 1-1.62.67h-.25c-.37 0-.8-.04-1.28-.11l-1.42-.25-.06.05c-.15.7-.3 1.45-.44 2.25-.13.8-.2 1.52-.23 2.19v.22c0 .04.01.08.03.11l.03.03a.8.8 0 0 1 .45.33c.1.15.16.3.16.48a.5.5 0 0 1-.16.36c-.12.13-.31.19-.59.19Zm-.45-7.88.06-.05.78-3.39.86-3.35-.08-.06-1.06 1.08-1.06 1.09-4.15 4.24.02.08a11.6 11.6 0 0 1 2.93.06l1.7.3Z"/>
</svg>
