<svg xmlns="http://www.w3.org/2000/svg" id="Kodekalender_Logo_Mobile_2025_svg__Layer_1" viewBox="0 0 36 30" xmlns:xlink="http://www.w3.org/1999/xlink">
<defs>
<style>
.Kodekalender_Logo_Mobile_2025_svg__cls-2{fill:#f8f9fa}
</style>
</defs>
<path d="M26.55 7.7c.39-.16.61-.02.78.54.07.24.11.54.11.89 0 .65-.19 1.2-.56 1.64s-1.03.66-1.96.66c-.34 0-.71-.03-1.13-.08-.41-.05-.83-.12-1.25-.2l-1.21-.22-.98-.16-.8 4.8a6.66 6.66 0 0 1 3.21-.83 5.75 5.75 0 0 1 5.54 3.95 7.39 7.39 0 0 1 .05 4.72 5.63 5.63 0 0 1-3.07 3.51c-.81.38-1.8.57-2.97.57-.58 0-1.2-.05-1.86-.16s-1.26-.31-1.8-.62c-.55-.31-1-.75-1.35-1.31s-.53-1.31-.53-2.23c0-.6.08-1.11.24-1.53.16-.41.37-.76.62-1.02.26-.27.55-.46.88-.57.33-.11.66-.17 1-.17.53 0 .98.11 1.35.33h.01a.7.7 0 0 1-.12 1.25c-.22.09-.4.19-.56.31-.33.27-.5.69-.5 1.26a2.33 2.33 0 0 0 .82 1.85 2.72 2.72 0 0 0 1.75.64c.49 0 .92-.13 1.26-.4.35-.27.62-.6.84-1.02.21-.41.37-.87.47-1.38.09-.5.14-.99.14-1.45 0-.74-.1-1.38-.3-1.92-.2-.54-.48-.98-.82-1.34s-.75-.62-1.22-.78a5.24 5.24 0 0 0-3.68.21h-.02a.96.96 0 0 1-1.35-1.01l1.12-7.38c.1-.68.74-1.15 1.42-1.05h.01l.98.15.89.11a11.88 11.88 0 0 0 3.01-.15c.63-.12.82-.13 1.56-.44Z" class="Kodekalender_Logo_Mobile_2025_svg__cls-2"/>
<path d="M21.85 3.77c-1.82 1.02-2.41 3.18-2.62 4.02l8.52.59 1.1 1.52c.12.61.06 1.41.42 2.89.37 1.48 2.5 2.31 3.32 2.15l.63-1.79c-.25-.11-.93.17-1.6-.75-.51-.7-.01-2.2.15-3.43s.1-4.25-2.61-5.3c-2.57-1-4.94-1.23-7.31.1Z" style="fill:#751c15"/>
<ellipse cx="33.52" cy="14.66" class="Kodekalender_Logo_Mobile_2025_svg__cls-2" rx="1.98" ry="2.07"/>
<path d="M21.55 8.15a1.8 1.8 0 0 1-2.01 1.6 1.84 1.84 0 0 1-1.52-2.1 1.8 1.8 0 0 1 2.01-1.6 1.84 1.84 0 0 1 1.52 2.1Z" class="Kodekalender_Logo_Mobile_2025_svg__cls-2"/>
<path d="M23.98 7.87a1.8 1.8 0 0 1-2.01 1.6 1.84 1.84 0 0 1-1.52-2.1 1.8 1.8 0 0 1 2.01-1.6 1.84 1.84 0 0 1 1.52 2.1Zm7.35 1.9a1.8 1.8 0 0 1-2.01 1.6 1.84 1.84 0 0 1-1.52-2.1 1.8 1.8 0 0 1 2.01-1.6 1.84 1.84 0 0 1 1.52 2.1Z" class="Kodekalender_Logo_Mobile_2025_svg__cls-2"/>
<path d="M26.79 7.86a2 2 0 0 1-2.23 1.77 2.06 2.06 0 0 1-1.69-2.34 2 2 0 0 1 2.23-1.77 2.06 2.06 0 0 1 1.69 2.34Z" class="Kodekalender_Logo_Mobile_2025_svg__cls-2"/>
<path d="M29.31 8.43a2 2 0 0 1-2.23 1.77C26 10.04 25.24 9 25.39 7.86s1.15-1.93 2.23-1.77a2.06 2.06 0 0 1 1.69 2.34ZM11.45 27c-.79 0-1.59-.13-2.51-.47-.86-.33-1.65-.6-2.38-.93a2.95 2.95 0 0 1-.43-.2q-.06 0-.12-.07l-.43.27c-.24.13-.49.27-.79.4-.12.07-.37.13-.61.2-.55.13-1.16.07-1.71-.13-.24-.07-.49-.27-.79-.47-.43-.33-.67-.8-.67-1.4 0-.2.06-.47.12-.73.24-.53.55-.93.98-1.13.73-.4 1.65-.33 2.63-.13.37.07.67.2 1.04.27.37-.2.73-.53 1.22-.87.55-.4 1.16-.87 1.77-1.4.61-.53 1.16-1.07 1.71-1.6.49-.53.98-1.13 1.28-1.67.31-.47.49-1 .55-1.4.06-.33.06-.6.06-.87 0-1.07-.24-1.8-.86-2.33-.55-.53-1.47-.8-2.63-.8-.61 0-1.16.13-1.71.47-.55.27-.98.67-1.34 1.2a3.14 3.14 0 0 0-.49 1.73c0 .47.06.87.24 1.27.12.33.37.67.61.87.24.2.61.33.98.33h.24c.12-.07.24-.07.37-.13l.31-.13c.18-.07.31-.07.37-.07.31 0 .61.13.86.33.24.27.37.6.37.93 0 .27-.06.67-.55 1.07-.24.2-.61.4-1.04.47-.37.07-.67.13-.98.13-.86 0-1.65-.27-2.26-.73a4.62 4.62 0 0 1-1.41-1.87 6.09 6.09 0 0 1 .06-4.93c.37-.73.79-1.33 1.41-1.87a6.32 6.32 0 0 1 7.16-.87c.86.47 1.53 1.2 2.02 2.07a6 6 0 0 1 .73 3v.6c0 .2-.06.4-.06.67-.12.93-.49 1.8-1.04 2.6-.49.8-1.1 1.6-1.83 2.27-.67.73-1.41 1.33-2.14 1.93-.37.27-.67.53-1.04.8.12.07.24.07.37.13.49.2.92.33 1.41.47.86.2 1.35.27 1.96 0q.06 0 .06-.07c-.43-.4-.49-.8-.49-1.07 0-.33.12-.67.37-.87.24-.2.49-.33.79-.33s.79.13 1.28.67c.37.4.55.87.55 1.33 0 .73-.18 1.4-.55 1.93-.37.47-.79.8-1.34 1-.73.07-1.22.13-1.65.13Z" class="Kodekalender_Logo_Mobile_2025_svg__cls-2"/>
</svg>
