<svg xmlns="http://www.w3.org/2000/svg" fill="none" viewBox="0 0 50 50" xmlns:xlink="http://www.w3.org/1999/xlink">
<g clip-path="url(#slettet_svg__a)">
<rect width="48" height="48" x="1" y="1" fill="#A99EB6" stroke="#585684" stroke-width="2" rx="24"/>
<path fill="#585684" d="M24.82 28.29c-.36 0-.64-.11-.84-.34a1.52 1.52 0 0 1-.28-.95 5.87 5.87 0 0 1 .9-3.19c.31-.52.73-1.08 1.25-1.65.4-.45.7-.84.93-1.18a3.63 3.63 0 0 0 .67-1.99c0-.61-.22-1.1-.67-1.45a3 3 0 0 0-1.9-.54c-.75 0-1.43.1-2.05.31-.6.19-1.2.46-1.82.81-.41.25-.78.36-1.12.34a1.28 1.28 0 0 1-.78-.36c-.2-.2-.34-.46-.4-.76-.05-.3 0-.6.14-.92.15-.32.42-.61.82-.87.76-.5 1.64-.89 2.63-1.15a10.3 10.3 0 0 1 2.8-.42c1.17 0 2.2.2 3.08.59.9.39 1.58.93 2.07 1.62.5.7.76 1.5.76 2.44a5.28 5.28 0 0 1-1.06 3.19c-.38.5-.9 1.05-1.55 1.65-.58.52-1.04 1-1.4 1.43-.33.43-.59.84-.75 1.23-.15.4-.26.81-.31 1.26a.88.88 0 0 1-.34.65c-.18.16-.45.25-.78.25Zm-.06 5.85a2.1 2.1 0 0 1-1.54-.59 2.1 2.1 0 0 1-.56-1.51 2 2 0 0 1 .56-1.46c.4-.39.9-.58 1.54-.58a1.95 1.95 0 0 1 2.07 2.04 2.1 2.1 0 0 1-.56 1.51c-.35.4-.85.59-1.5.59Z"/>
</g>
<defs>
<clipPath id="slettet_svg__a">
<path fill="#fff" d="M0 0h50v50H0z"/>
</clipPath>
</defs>
</svg>
