<svg xmlns="http://www.w3.org/2000/svg" fill="none" viewBox="0 0 1600 80">
<path fill="#D99936" d="M40 0h80l40 80H80L40 0Zm160 0h80l40 80h-80L200 0Zm160 0h80l40 80h-80L360 0Zm160 0h80l40 80h-80L520 0Zm160 0h80l40 80h-80L680 0Zm160 0h80l40 80h-80L840 0Zm160 0h80l40 80h-80l-40-80Zm160 0h80l40 80h-80l-40-80Zm160 0h80l40 80h-80l-40-80Zm160 0h80l40 80h-80l-40-80Z"/>
<path fill="#333" d="M0 0h40l40 80H0V0Zm120 0h80l40 80h-80L120 0Zm160 0h80l40 80h-80L280 0Zm160 0h80l40 80h-80L440 0Zm160 0h80l40 80h-80L600 0Zm160 0h80l40 80h-80L760 0Zm160 0h80l40 80h-80L920 0Zm160 0h80l40 80h-80l-40-80Zm160 0h80l40 80h-80l-40-80Zm160 0h80l40 80h-80l-40-80Zm200 0h-40.01L1600 80V0Z"/>
</svg>
