<svg xmlns="http://www.w3.org/2000/svg" fill="none" viewBox="0 0 63 42">
<path fill="#A99EB6" d="m41.6 2 5.89 1.49 7.37 1.42a1 1 0 0 1 .36.15l3.6 2.42 1.74 3.85L62 16.14l-.05 4.46-2.4 3.9-4 3.36-3.91 2.56-.76 3.25-1 3.1-2.93 3.41-2.8 1.82v-1.95L40.22 42H38.8v-1.15l2.52-1.54-4.01-.26-1.17-1.38 4.5-.05-.4-1.08.54-1.95 1.63 1.54.73-.05.97-1.51-.02-1.62-.79-.74-1.82-.13-2.22.64-3.6.47-4.4.3-5.02-.05-4.91-2.2-4.26-1.3L13 28.62l.92 2.75 1.17 1.53-2.28-.94h-1.76l-1.14-2.29L9 31.24l-.52 1.84.06 2.03L7.32 33l-.57-3.2-1.25.89-.33 1.26H3.25L2 30.9l2.74-1.35 2.03-2.6 1.25-3.89 2.52-5.38 3.5-5.79 5.24-4.71"/>
<path fill="#751C15" d="M18.86 3.36c-3.9 2.86-4.63 7.86-4.86 9.8l19.9-1.4 3 3.04c.46 1.32.55 3.13 1.85 6.3 1.3 3.18 6.47 4.36 8.32 3.74l.93-4.2c-.62-.16-2.11.67-3.93-1.17-1.39-1.4-.7-4.9-.7-7.7S42.32 2.26 35.74.78C29.5-.61 23.94-.38 18.86 3.36Z"/>
<ellipse cx="49.5" cy="24" fill="#F8F9FA" rx="4.5" ry="5"/>
<path fill="#F8F9FA" d="M19.47 13.6c0 2.19-1.9 3.96-4.23 3.96-2.34 0-4.24-1.77-4.24-3.96s1.9-3.96 4.24-3.96c2.33 0 4.23 1.77 4.23 3.96Z"/>
<path fill="#F8F9FA" d="M25.12 12.28c0 2.19-1.9 3.96-4.24 3.96-2.34 0-4.23-1.77-4.23-3.96s1.9-3.96 4.23-3.96c2.34 0 4.24 1.77 4.24 3.96ZM43 14.04c0 2.19-1.9 3.96-4.24 3.96-2.33 0-4.23-1.77-4.23-3.96s1.9-3.96 4.23-3.96c2.34 0 4.24 1.77 4.24 3.96Z"/>
<path fill="#F8F9FA" d="M31.7 11.4c0 2.43-2.1 4.4-4.7 4.4s-4.7-1.97-4.7-4.4C22.3 8.97 24.4 7 27 7s4.7 1.97 4.7 4.4Z"/>
<path fill="#F8F9FA" d="M37.82 11.84c0 2.43-2.1 4.4-4.7 4.4s-4.7-1.97-4.7-4.4c0-2.43 2.1-4.4 4.7-4.4s4.7 1.97 4.7 4.4Z"/>
</svg>
