<svg width="88" height="20" viewBox="0 0 88 20" fill="none" xmlns="http://www.w3.org/2000/svg">
<path d="M73.1505 3.25163C73.4675 3.25383 73.7779 3.16017 74.0424 2.98254C74.3069 2.8049 74.5135 2.55132 74.6359 2.25401C74.7584 1.95669 74.7912 1.62906 74.7301 1.31275C74.6691 0.996436 74.517 0.705713 74.2931 0.477517C74.0693 0.249321 73.7838 0.0939538 73.4729 0.0311537C73.162 -0.0316463 72.8398 0.000955589 72.5472 0.124818C72.2546 0.24868 72.0048 0.458212 71.8295 0.726792C71.6543 0.995371 71.5614 1.31088 71.5629 1.63322C71.5629 2.06181 71.73 2.47289 72.0277 2.7763C72.3253 3.0797 72.7291 3.25065 73.1505 3.25163Z" fill="#F8F9FA"/>
<path d="M15.0684 5.0964L12.999 5.0964C12.3457 5.0964 12.269 5.17064 11.5208 5.93901L4.92205 12.6985L4.92205 2.07116C4.93086 1.99589 4.92275 1.91956 4.89835 1.84793C4.87395 1.7763 4.83389 1.71124 4.78119 1.65764C4.72848 1.60403 4.66451 1.56329 4.59408 1.53848C4.52365 1.51366 4.4486 1.50542 4.37459 1.51437L1.2139 1.51437C1.1403 1.5059 1.06578 1.51455 0.995945 1.53965C0.926114 1.56475 0.862802 1.60565 0.810784 1.65927C0.758765 1.71289 0.719401 1.77783 0.695659 1.84918C0.671918 1.92053 0.664415 1.99644 0.673728 2.07116L0.673728 3.49284C0.663929 3.568 0.671032 3.64444 0.69449 3.7164C0.717948 3.78836 0.757154 3.85398 0.809157 3.9083C0.861161 3.96262 0.924612 4.00423 0.99472 4.02999C1.06483 4.05576 1.13976 4.06502 1.2139 4.05706L2.36722 4.05706L2.36722 17.1714L1.2139 17.1714C1.14051 17.1631 1.06623 17.1718 0.996568 17.1966C0.926904 17.2215 0.863628 17.262 0.811418 17.3151C0.759209 17.3682 0.719399 17.4326 0.694935 17.5034C0.670471 17.5743 0.661983 17.6498 0.670086 17.7245L0.670086 19.1684C0.661388 19.2433 0.669434 19.3193 0.693632 19.3906C0.717831 19.4619 0.757556 19.5268 0.809837 19.5803C0.862118 19.6338 0.925613 19.6747 0.995577 19.6998C1.06554 19.7248 1.14017 19.7335 1.2139 19.7252L6.05348 19.7252C6.1282 19.7362 6.2044 19.7294 6.27611 19.7054C6.34782 19.6814 6.4131 19.6409 6.46683 19.5869C6.52056 19.533 6.56128 19.4671 6.58582 19.3945C6.61035 19.3219 6.61803 19.2445 6.60824 19.1684L6.60824 17.7282C6.61727 17.6522 6.60907 17.5751 6.58427 17.5029C6.55947 17.4306 6.51873 17.3651 6.46517 17.3113C6.41161 17.2576 6.34666 17.217 6.2753 17.1928C6.20393 17.1685 6.12806 17.1612 6.05348 17.1714L4.92205 17.1714L4.92205 16.1135L7.39659 13.5485L11.7763 18.9754C12.3566 19.7178 12.3566 19.7178 13.1924 19.7178L15.0647 19.7178C15.1388 19.7276 15.214 19.72 15.2847 19.6954C15.3553 19.6708 15.4194 19.63 15.472 19.5762C15.5247 19.5223 15.5643 19.4568 15.588 19.3848C15.6117 19.3128 15.6187 19.2362 15.6085 19.161L15.6085 17.7282C15.618 17.6531 15.6104 17.5768 15.5865 17.5052C15.5625 17.4335 15.5228 17.3683 15.4704 17.3146C15.4179 17.2609 15.3541 17.2201 15.2838 17.1953C15.2135 17.1705 15.1386 17.1623 15.0647 17.1714L13.5172 17.1714L9.16672 11.7445L13.134 7.66136L15.0684 7.66136C15.1394 7.67141 15.2117 7.66484 15.2799 7.64213C15.348 7.61943 15.4102 7.5812 15.4616 7.53035C15.513 7.47951 15.5523 7.41739 15.5765 7.34875C15.6007 7.2801 15.6092 7.20674 15.6012 7.13426L15.6012 5.64577C15.6099 5.57216 15.6021 5.49752 15.5785 5.42739C15.5548 5.35726 15.516 5.29344 15.4648 5.24067C15.4136 5.18789 15.3514 5.14752 15.2828 5.12255C15.2141 5.09757 15.1409 5.08864 15.0684 5.0964Z" fill="#F8F9FA"/>
<path d="M32.1017 17.1715L30.9484 17.1715L30.9484 10.9205C30.9484 7.20859 28.6454 4.79211 25.076 4.79211C23.5668 4.74183 22.0979 5.29176 20.9809 6.32514L20.9809 5.64957C20.9893 5.57521 20.9809 5.49989 20.9564 5.42931C20.9319 5.35873 20.8919 5.29474 20.8396 5.24218C20.7872 5.18961 20.7237 5.14985 20.654 5.1259C20.5843 5.10194 20.5101 5.09443 20.4371 5.10391L17.3312 5.10391C17.258 5.09367 17.1836 5.10066 17.1135 5.12435C17.0434 5.14803 16.9797 5.18778 16.9271 5.24051C16.8746 5.29325 16.8346 5.35756 16.8104 5.42848C16.7862 5.49941 16.7783 5.57505 16.7874 5.64957L16.7874 7.07867C16.7773 7.15403 16.7844 7.23072 16.8081 7.30286C16.8317 7.375 16.8714 7.44066 16.9239 7.49479C16.9764 7.54892 17.0404 7.59008 17.111 7.61511C17.1816 7.64014 17.257 7.64837 17.3312 7.63917L18.4736 7.63917L18.4736 17.1715L17.3312 17.1715C17.2571 17.1616 17.1819 17.1693 17.1112 17.1938C17.0406 17.2184 16.9765 17.2592 16.9239 17.3131C16.8712 17.3669 16.8316 17.4324 16.8079 17.5044C16.7842 17.5764 16.7772 17.653 16.7874 17.7282L16.7874 19.1685C16.7772 19.2437 16.7842 19.3203 16.8079 19.3923C16.8316 19.4643 16.8712 19.5298 16.9239 19.5837C16.9765 19.6375 17.0406 19.6783 17.1112 19.7029C17.1819 19.7275 17.2571 19.7351 17.3312 19.7253L22.1416 19.7253C22.2154 19.7335 22.2902 19.7248 22.3603 19.6997C22.4304 19.6746 22.494 19.6339 22.5466 19.5804C22.5991 19.527 22.6392 19.4622 22.6639 19.3909C22.6885 19.3196 22.6971 19.2436 22.689 19.1685L22.689 17.7282C22.6971 17.6531 22.6885 17.5771 22.6639 17.5058C22.6392 17.4345 22.5991 17.3698 22.5466 17.3163C22.494 17.2629 22.4304 17.2221 22.3603 17.197C22.2902 17.172 22.2154 17.1632 22.1416 17.1715L20.9809 17.1715L20.9809 11.3734C20.9809 8.9829 22.6306 7.25313 24.8935 7.25313C27.1563 7.25313 28.4337 8.71935 28.4337 11.1692L28.4337 17.1826L27.2804 17.1826C27.2068 17.1741 27.1323 17.1828 27.0625 17.2079C26.9926 17.233 26.9293 17.2739 26.8773 17.3275C26.8253 17.3811 26.7859 17.446 26.7622 17.5174C26.7384 17.5888 26.7309 17.6647 26.7403 17.7394L26.7403 19.1685C26.7309 19.2432 26.7384 19.3191 26.7622 19.3905C26.7859 19.4618 26.8253 19.5268 26.8773 19.5804C26.9293 19.634 26.9926 19.6749 27.0625 19.7C27.1323 19.7251 27.2068 19.7337 27.2804 19.7253L32.1054 19.7253C32.18 19.7355 32.2559 19.7281 32.3272 19.7039C32.3986 19.6796 32.4635 19.6391 32.5171 19.5853C32.5706 19.5316 32.6114 19.466 32.6362 19.3938C32.661 19.3215 32.6692 19.2445 32.6602 19.1685L32.6602 17.7282C32.6689 17.6533 32.6608 17.5774 32.6366 17.506C32.6124 17.4347 32.5727 17.3699 32.5204 17.3163C32.4681 17.2628 32.4046 17.222 32.3347 17.1969C32.2647 17.1718 32.1901 17.1631 32.1164 17.1715" fill="#F8F9FA"/>
<path d="M39.9158 4.8107C35.7952 4.8107 32.5579 8.15145 32.5579 12.4499C32.5414 13.4354 32.718 14.4143 33.0775 15.3297C33.4369 16.245 33.972 17.0784 34.6515 17.7812C35.331 18.4839 36.1412 19.0421 37.035 19.4231C37.9288 19.804 38.8883 20.0001 39.8574 20C40.8373 20.0016 41.8077 19.8044 42.7117 19.4198C43.6157 19.0353 44.4352 18.4711 45.1222 17.7604C45.8091 17.0496 46.3497 16.2066 46.7122 15.2807C47.0748 14.3548 47.252 13.3647 47.2336 12.3682C47.251 11.3806 47.0745 10.3993 46.7144 9.48185C46.3543 8.56443 45.8177 7.72934 45.1362 7.0255C44.4547 6.32166 43.6419 5.76323 42.7455 5.38292C41.8491 5.00261 40.8871 4.80807 39.9158 4.8107ZM39.9158 17.5204C37.2588 17.5204 35.1894 15.2561 35.1894 12.3682C35.1894 9.48033 37.1967 7.29028 39.8574 7.29028C42.5181 7.29028 44.6021 9.55085 44.6021 12.435C44.6021 15.3192 42.5838 17.5056 39.9048 17.5056" fill="#F8F9FA"/>
<path d="M68.6212 5.10385L63.6831 5.10385C63.6102 5.09424 63.5362 5.1017 63.4666 5.12566C63.397 5.14963 63.3337 5.18946 63.2816 5.24212C63.2295 5.29477 63.1899 5.35886 63.1658 5.42947C63.1418 5.50008 63.1339 5.57534 63.1429 5.64951L63.1429 7.08974C63.1341 7.16405 63.142 7.23942 63.166 7.31016C63.19 7.3809 63.2295 7.44516 63.2816 7.49808C63.3336 7.551 63.3968 7.5912 63.4664 7.61563C63.5359 7.64007 63.61 7.64809 63.6831 7.63911L64.778 7.63911L62.4203 15.386L59.088 5.5233C59.0491 5.39126 58.9696 5.27536 58.8613 5.19254C58.7529 5.10973 58.6214 5.06434 58.4858 5.06302L57.5004 5.06302C57.3666 5.06164 57.2361 5.10478 57.1287 5.18587C57.0213 5.26696 56.9429 5.38155 56.9055 5.51217L53.5878 15.3674L51.2447 7.62798L52.3396 7.62798C52.4127 7.63612 52.4866 7.62754 52.556 7.60287C52.6253 7.57819 52.6884 7.53805 52.7405 7.48538C52.7927 7.43271 52.8326 7.36884 52.8573 7.29846C52.882 7.22807 52.891 7.15296 52.8834 7.07861L52.8834 5.64951C52.8904 5.57801 52.8821 5.50582 52.859 5.43791C52.8359 5.37 52.7986 5.30798 52.7497 5.25613C52.7008 5.20427 52.6414 5.16381 52.5757 5.13752C52.5099 5.11123 52.4394 5.09975 52.3688 5.10385L47.3577 5.10385C47.2843 5.09471 47.2098 5.10237 47.1396 5.12628C47.0695 5.15019 47.0055 5.18975 46.9523 5.24205C46.8991 5.29435 46.8581 5.35809 46.8323 5.42858C46.8064 5.49908 46.7964 5.57456 46.8029 5.64951L46.8029 7.08974C46.7958 7.16498 46.8054 7.24089 46.831 7.31185C46.8566 7.38282 46.8975 7.44704 46.9508 7.49977C47.004 7.5525 47.0682 7.59239 47.1386 7.61651C47.2091 7.64063 47.2839 7.64835 47.3577 7.63911L48.5256 7.63911L52.4455 19.3318C52.488 19.459 52.5685 19.5696 52.6758 19.6482C52.7831 19.7267 52.9118 19.7692 53.044 19.7698L54.1098 19.7698C54.2434 19.7675 54.3732 19.7235 54.4815 19.6439C54.5899 19.5642 54.6716 19.4527 54.7156 19.3243L58.0004 9.73265L61.2633 19.3243C61.3059 19.4536 61.3873 19.566 61.4959 19.6459C61.6046 19.7258 61.7351 19.7691 61.8691 19.7698L62.9349 19.7698C63.0664 19.7699 63.1945 19.7275 63.3007 19.6488C63.407 19.5701 63.4859 19.4591 63.5261 19.3318L67.4606 7.63911L68.6322 7.63911C68.7039 7.645 68.7761 7.63471 68.8435 7.60897C68.9108 7.58322 68.9718 7.54267 69.022 7.49019C69.0722 7.43771 69.1104 7.37461 69.1339 7.30539C69.1573 7.23617 69.1655 7.16253 69.1577 7.08974L69.1577 5.64951C69.1658 5.57584 69.1576 5.50126 69.1335 5.4313C69.1094 5.36134 69.0701 5.29779 69.0186 5.24537C68.967 5.19296 68.9045 5.15302 68.8358 5.12852C68.767 5.10402 68.6936 5.09559 68.6212 5.10385Z" fill="#F8F9FA"/>
<path d="M75.6105 17.1715L74.4645 17.1715L74.4645 5.66443C74.4721 5.59022 74.4632 5.51522 74.4385 5.44498C74.4137 5.37473 74.3737 5.31105 74.3215 5.25865C74.2693 5.20625 74.2061 5.16647 74.1368 5.14226C74.0674 5.11804 73.9935 5.11002 73.9206 5.11877L70.7636 5.11877C70.691 5.10978 70.6174 5.1177 70.5483 5.14194C70.4791 5.16618 70.4164 5.2061 70.3647 5.25868C70.313 5.31127 70.2737 5.37512 70.2499 5.44542C70.226 5.51572 70.2182 5.59061 70.2271 5.66443L70.2271 7.10466C70.2184 7.17862 70.2262 7.25362 70.25 7.32406C70.2739 7.39449 70.313 7.45853 70.3646 7.51138C70.4163 7.56422 70.479 7.60451 70.548 7.62921C70.6171 7.65392 70.6908 7.6624 70.7636 7.65403L71.9206 7.65403L71.9206 17.1715L69.8329 17.1715C69.759 17.1624 69.6841 17.1706 69.6138 17.1954C69.5435 17.2202 69.4797 17.261 69.4273 17.3147C69.3748 17.3684 69.3351 17.4336 69.3112 17.5053C69.2872 17.5769 69.2797 17.6532 69.2891 17.7283L69.2891 19.1685C69.2797 19.2436 69.2872 19.3198 69.3112 19.3915C69.3351 19.4632 69.3748 19.5283 69.4273 19.582C69.4797 19.6357 69.5435 19.6765 69.6138 19.7014C69.6841 19.7262 69.759 19.7344 69.8329 19.7253L75.6105 19.7253C75.6845 19.7342 75.7595 19.726 75.83 19.7012C75.9004 19.6764 75.9644 19.6356 76.0171 19.582C76.0698 19.5284 76.1098 19.4634 76.1342 19.3917C76.1586 19.3201 76.1667 19.2438 76.1579 19.1685L76.1579 17.7283C76.1667 17.653 76.1586 17.5767 76.1342 17.505C76.1098 17.4334 76.0698 17.3683 76.0171 17.3147C75.9644 17.2611 75.9004 17.2204 75.83 17.1956C75.7595 17.1708 75.6845 17.1625 75.6105 17.1715Z" fill="#F8F9FA"/>
<path d="M86.7898 12.2826L85.4065 12.2826C85.3302 12.2717 85.2524 12.2792 85.1795 12.3045C85.1065 12.3297 85.0404 12.372 84.9865 12.428C84.9325 12.4839 84.8922 12.552 84.8688 12.6266C84.8454 12.7013 84.8396 12.7805 84.8517 12.8579L84.8517 15.5602C84.8615 15.8016 84.8241 16.0425 84.7416 16.2691C84.6592 16.4957 84.5333 16.7034 84.3714 16.8801C84.2095 17.0569 84.0147 17.1992 83.7983 17.2989C83.5819 17.3986 83.3482 17.4536 83.1108 17.4607C81.7348 17.4607 81.1509 16.8817 81.1509 15.5194L81.1509 7.63891L84.4977 7.63891C84.5712 7.64754 84.6456 7.63937 84.7156 7.61498C84.7856 7.59059 84.8493 7.55061 84.9021 7.49795C84.955 7.44529 84.9955 7.38129 85.0209 7.31063C85.0463 7.23996 85.0558 7.16443 85.0488 7.08954L85.0488 5.6493C85.0559 5.57455 85.0465 5.49912 85.0211 5.4286C84.9957 5.35808 84.955 5.29427 84.9021 5.24188C84.8492 5.18949 84.7854 5.14987 84.7154 5.12594C84.6454 5.10201 84.571 5.09439 84.4977 5.10365L81.1509 5.10365L81.1509 2.07098C81.1611 1.99622 81.1545 1.92008 81.1318 1.84825C81.109 1.77642 81.0705 1.71074 81.0193 1.65614C80.9681 1.60153 80.9054 1.5594 80.8359 1.5329C80.7664 1.50639 80.6919 1.49619 80.618 1.50305L79.1581 1.50305C79.0832 1.4936 79.0071 1.50191 78.9359 1.52734C78.8646 1.55277 78.8002 1.59463 78.7475 1.64964C78.6948 1.70465 78.6554 1.77132 78.6323 1.84441C78.6092 1.91751 78.603 1.99506 78.6143 2.07098L78.6143 5.10365L77.0887 5.10365C77.0157 5.09416 76.9415 5.10168 76.8718 5.12563C76.8021 5.14958 76.7386 5.18935 76.6863 5.24191C76.6339 5.29448 76.5939 5.35847 76.5694 5.42904C76.5449 5.49962 76.5365 5.57494 76.5449 5.6493L76.5449 7.08954C76.5367 7.16404 76.5451 7.23946 76.5696 7.31017C76.5941 7.38089 76.6339 7.44506 76.6862 7.49789C76.7385 7.55072 76.8019 7.59084 76.8716 7.61526C76.9413 7.63968 77.0155 7.64776 77.0887 7.63891L78.6143 7.63891L78.6143 15.6382C78.6143 18.2365 80.3005 19.9477 82.8955 19.9477C85.5963 19.9477 87.3299 18.3145 87.3299 15.7718L87.3299 12.8579C87.3387 12.7826 87.3306 12.7063 87.3062 12.6347C87.2818 12.563 87.2418 12.498 87.1891 12.4444C87.1364 12.3908 87.0724 12.35 87.0019 12.3252C86.9315 12.3004 86.8565 12.2922 86.7824 12.3011" fill="#F8F9FA"/>
</svg>
