<?xml version="1.0" encoding="UTF-8"?>
<svg id="Layer_1" data-name="Layer 1" xmlns="http://www.w3.org/2000/svg" viewBox="0 0 36 30">
  <defs>
    <style>
      .cls-1 {
        fill: #751c15;
      }

      .cls-2 {
        fill: #f8f9fa;
      }
    </style>
  </defs>
  <path class="cls-2" d="M26.55,7.7c.39-.16.61-.02.78.54.07.24.11.54.11.89,0,.65-.19,1.2-.56,1.64s-1.03.66-1.96.66c-.34,0-.71-.03-1.13-.08-.41-.05-.83-.12-1.25-.2-.42-.08-.82-.15-1.21-.22-.39-.07-.72-.12-.98-.16l-.8,4.8c.55-.3,1.08-.51,1.61-.64.52-.12,1.06-.19,1.6-.19.96,0,1.8.17,2.53.52s1.35.81,1.86,1.39c.5.58.89,1.26,1.15,2.04.27.78.4,1.59.4,2.44,0,.76-.12,1.52-.35,2.28-.23.76-.6,1.44-1.1,2.04-.5.6-1.16,1.09-1.97,1.47-.81.38-1.8.57-2.97.57-.58,0-1.2-.05-1.86-.16s-1.26-.31-1.8-.62c-.55-.31-1-.75-1.35-1.31s-.53-1.31-.53-2.23c0-.6.08-1.11.24-1.53.16-.41.37-.76.62-1.02.26-.27.55-.46.88-.57.33-.11.66-.17,1-.17.53,0,.98.11,1.35.33h.01c.5.3.43,1.04-.12,1.25-.22.09-.4.19-.56.31-.33.27-.5.69-.5,1.26,0,.41.08.77.22,1.07.15.31.35.57.6.78.25.21.52.37.82.48.3.11.61.16.93.16.49,0,.92-.13,1.26-.4.35-.27.62-.6.84-1.02.21-.41.37-.87.47-1.38.09-.5.14-.99.14-1.45,0-.74-.1-1.38-.3-1.92-.2-.54-.48-.98-.82-1.34s-.75-.62-1.22-.78c-.47-.17-.96-.25-1.47-.25-.8,0-1.53.15-2.21.46,0,0-.01,0-.02,0-.69.32-1.46-.25-1.35-1.01l1.12-7.38c.1-.68.74-1.15,1.42-1.05h.01c.35.06.68.11.98.15s.6.08.89.11c.32.03.68.04,1.09.04.64,0,1.29-.07,1.92-.19s.82-.13,1.56-.44Z"/>
  <path class="cls-1" d="M21.85,3.77c-1.82,1.02-2.41,3.18-2.62,4.02l8.52.59,1.1,1.52c.12.61.06,1.41.42,2.89.37,1.48,2.5,2.31,3.32,2.15l.63-1.79c-.25-.11-.93.17-1.6-.75-.51-.7-.01-2.2.15-3.43.16-1.23.1-4.25-2.61-5.3-2.57-1-4.94-1.23-7.31.1Z"/>
  <ellipse class="cls-2" cx="33.52" cy="14.66" rx="1.98" ry="2.07"/>
  <path class="cls-2" d="M21.55,8.15c-.13,1.02-1.03,1.74-2.01,1.6-.98-.14-1.66-1.08-1.52-2.1.13-1.02,1.03-1.74,2.01-1.6.98.14,1.66,1.08,1.52,2.1Z"/>
  <path class="cls-2" d="M23.98,7.87c-.13,1.02-1.03,1.74-2.01,1.6-.98-.14-1.66-1.08-1.52-2.1.13-1.02,1.03-1.74,2.01-1.6.98.14,1.66,1.08,1.52,2.1Z"/>
  <path class="cls-2" d="M31.33,9.77c-.13,1.02-1.03,1.74-2.01,1.6-.98-.14-1.66-1.08-1.52-2.1.13-1.02,1.03-1.74,2.01-1.6.98.14,1.66,1.08,1.52,2.1Z"/>
  <path class="cls-2" d="M26.79,7.86c-.15,1.14-1.15,1.93-2.23,1.77-1.08-.16-1.84-1.2-1.69-2.34.15-1.14,1.15-1.93,2.23-1.77,1.08.16,1.84,1.2,1.69,2.34Z"/>
  <path class="cls-2" d="M29.31,8.43c-.15,1.14-1.15,1.93-2.23,1.77-1.08-.16-1.84-1.2-1.69-2.34s1.15-1.93,2.23-1.77c1.08.16,1.84,1.2,1.69,2.34Z"/>
  <path class="cls-2" d="M11.45,27c-.79,0-1.59-.13-2.51-.47-.86-.33-1.65-.6-2.38-.93-.18-.07-.31-.13-.43-.2q-.06,0-.12-.07c-.12.07-.31.2-.43.27-.24.13-.49.27-.79.4-.12.07-.37.13-.61.2-.55.13-1.16.07-1.71-.13-.24-.07-.49-.27-.79-.47-.43-.33-.67-.8-.67-1.4,0-.2.06-.47.12-.73.24-.53.55-.93.98-1.13.73-.4,1.65-.33,2.63-.13.37.07.67.2,1.04.27.37-.2.73-.53,1.22-.87.55-.4,1.16-.87,1.77-1.4.61-.53,1.16-1.07,1.71-1.6.49-.53.98-1.13,1.28-1.67.31-.47.49-1,.55-1.4.06-.33.06-.6.06-.87,0-1.07-.24-1.8-.86-2.33-.55-.53-1.47-.8-2.63-.8-.61,0-1.16.13-1.71.47-.55.27-.98.67-1.34,1.2-.31.47-.49,1.07-.49,1.73,0,.47.06.87.24,1.27.12.33.37.67.61.87.24.2.61.33.98.33h.24c.12-.07.24-.07.37-.13l.31-.13c.18-.07.31-.07.37-.07.31,0,.61.13.86.33.24.27.37.6.37.93,0,.27-.06.67-.55,1.07-.24.2-.61.4-1.04.47-.37.07-.67.13-.98.13-.86,0-1.65-.27-2.26-.73-.61-.47-1.1-1.13-1.41-1.87-.31-.73-.49-1.53-.49-2.4,0-.93.18-1.73.55-2.53.37-.73.79-1.33,1.41-1.87.55-.53,1.22-.93,1.96-1.2.73-.27,1.47-.4,2.2-.4,1.16,0,2.14.27,3,.73.86.47,1.53,1.2,2.02,2.07.49.87.73,1.87.73,3v.6c0,.2-.06.4-.06.67-.12.93-.49,1.8-1.04,2.6-.49.8-1.1,1.6-1.83,2.27-.67.73-1.41,1.33-2.14,1.93-.37.27-.67.53-1.04.8.12.07.24.07.37.13.49.2.92.33,1.41.47.86.2,1.35.27,1.96,0q.06,0,.06-.07c-.43-.4-.49-.8-.49-1.07,0-.33.12-.67.37-.87.24-.2.49-.33.79-.33s.79.13,1.28.67c.37.4.55.87.55,1.33,0,.73-.18,1.4-.55,1.93-.37.47-.79.8-1.34,1-.73.07-1.22.13-1.65.13Z"/>
</svg>