<?xml version="1.0" encoding="UTF-8"?>
<svg id="Layer_1" data-name="Layer 1" xmlns="http://www.w3.org/2000/svg" viewBox="0 0 118.58 48">
  <defs>
    <style>
      .cls-1 {
        fill: none;
      }

      .cls-2 {
        fill: #751c15;
      }

      .cls-3 {
        fill: #f8f9fa;
      }
    </style>
  </defs>
  <path class="cls-3" d="M104.38,13.68c.65-.26,1.02-.03,1.31.9.12.4.18.9.18,1.49,0,1.1-.31,2.02-.93,2.76s-1.72,1.11-3.29,1.11c-.56,0-1.19-.04-1.89-.13-.69-.09-1.39-.2-2.09-.33-.7-.13-1.37-.26-2.02-.38-.66-.12-1.2-.21-1.65-.27l-1.34,8.05c.92-.5,1.82-.86,2.69-1.07.87-.21,1.77-.31,2.69-.31,1.6,0,3.02.29,4.25.87s2.27,1.36,3.11,2.33c.84.98,1.49,2.12,1.93,3.42.45,1.31.67,2.67.67,4.09,0,1.27-.2,2.55-.58,3.82-.39,1.28-1,2.42-1.85,3.43-.84,1.01-1.95,1.83-3.31,2.47-1.36.64-3.03.96-4.98.96-.98,0-2.02-.09-3.11-.27s-2.11-.52-3.02-1.05c-.92-.52-1.68-1.25-2.27-2.2s-.89-2.19-.89-3.74c0-1.01.13-1.86.4-2.56.26-.69.62-1.27,1.04-1.71.43-.45.92-.76,1.47-.96.55-.19,1.1-.29,1.67-.29.89,0,1.64.18,2.27.56h.02c.84.51.71,1.74-.2,2.1-.37.14-.68.32-.93.53-.56.46-.84,1.16-.84,2.11,0,.68.13,1.28.38,1.8.25.52.59.96,1,1.31.41.35.87.62,1.38.8.5.18,1.02.26,1.56.26.83,0,1.53-.22,2.11-.67.58-.45,1.05-1.01,1.4-1.71.36-.69.62-1.47.78-2.31.16-.84.24-1.65.24-2.43,0-1.25-.17-2.32-.51-3.22-.34-.9-.8-1.65-1.38-2.24s-1.26-1.03-2.05-1.31c-.79-.28-1.61-.42-2.47-.42-1.34,0-2.57.26-3.71.78-.01,0-.02.01-.03.02-1.16.53-2.45-.42-2.26-1.69l1.88-12.38c.17-1.14,1.24-1.93,2.38-1.76h.02c.59.09,1.14.18,1.65.25s1,.13,1.49.18c.53.05,1.14.07,1.83.07,1.08,0,2.16-.12,3.22-.32s1.37-.21,2.61-.74Z"/>
  <rect class="cls-1" y="0" width="118.58" height="48"/>
  <path class="cls-3" d="M2.09,13.12c-.29,0-.51-.08-.66-.23-.15-.16-.23-.39-.23-.69V3.64c0-.3.08-.52.23-.68s.37-.23.66-.23.51.08.66.23c.16.15.24.38.24.68v5.31h.03l2.38-2.51c.19-.19.36-.34.5-.45.14-.11.34-.16.59-.16s.44.07.56.2c.13.12.2.28.2.46s-.09.36-.26.55l-2.51,2.65v-.75l2.75,2.97c.17.18.25.37.23.56,0,.18-.09.34-.23.46-.14.12-.33.17-.55.17-.27,0-.48-.05-.65-.16-.15-.11-.33-.26-.52-.48l-2.51-2.62h-.03v2.33c0,.61-.3.92-.91.92ZM11.99,13.14c-.73,0-1.36-.15-1.9-.45-.54-.3-.96-.72-1.25-1.27-.3-.56-.45-1.21-.45-1.96,0-.57.08-1.07.24-1.51.17-.45.42-.84.73-1.15.32-.33.7-.57,1.14-.73.44-.17.94-.26,1.48-.26.73,0,1.36.15,1.9.45.54.3.96.72,1.25,1.27.3.55.45,1.2.45,1.94,0,.57-.09,1.08-.26,1.53-.16.45-.4.84-.72,1.17-.32.32-.7.56-1.14.73-.44.16-.94.24-1.48.24ZM11.99,11.78c.36,0,.67-.09.94-.26s.48-.43.62-.76c.15-.35.23-.77.23-1.28,0-.77-.16-1.34-.49-1.71-.33-.38-.76-.58-1.3-.58-.36,0-.67.09-.94.26-.27.16-.48.42-.63.76-.14.34-.22.76-.22,1.27,0,.76.16,1.33.49,1.73.33.38.76.58,1.3.58ZM19.78,13.14c-.61,0-1.16-.15-1.63-.45-.46-.3-.82-.72-1.08-1.27-.26-.56-.39-1.21-.39-1.96s.13-1.41.39-1.94c.26-.55.62-.97,1.08-1.27.47-.3,1.01-.45,1.63-.45s1.09.14,1.53.43c.44.29.74.67.89,1.14h-.16v-3.74c0-.3.08-.52.23-.68.15-.15.37-.23.66-.23s.51.08.66.23c.16.15.24.38.24.68v8.55c0,.3-.08.53-.23.69-.15.15-.37.23-.66.23s-.51-.08-.66-.23c-.15-.16-.23-.39-.23-.69v-1.12l.16.43c-.14.5-.44.9-.88,1.2-.44.3-.96.45-1.56.45ZM20.29,11.78c.36,0,.67-.09.94-.26.27-.17.48-.43.62-.76.15-.35.23-.77.23-1.28,0-.77-.16-1.34-.49-1.71-.33-.38-.76-.58-1.3-.58-.36,0-.67.09-.94.26-.27.16-.48.42-.63.76-.14.34-.22.76-.22,1.27,0,.76.16,1.33.49,1.73.33.38.76.58,1.3.58ZM29.18,13.14c-.8,0-1.48-.15-2.06-.45-.58-.3-1.02-.72-1.34-1.27-.31-.55-.46-1.2-.46-1.94s.15-1.37.45-1.92c.31-.55.72-.97,1.25-1.28.54-.32,1.15-.48,1.83-.48.5,0,.95.08,1.34.24.4.16.74.4,1.02.71.29.31.5.68.65,1.12.15.43.23.92.23,1.47,0,.17-.06.31-.19.4-.12.09-.28.13-.5.13h-4.62v-1.04h4.05l-.23.22c0-.44-.07-.81-.2-1.11-.12-.3-.31-.52-.56-.68-.24-.16-.54-.24-.91-.24-.4,0-.75.1-1.04.29-.28.18-.49.45-.65.79-.14.34-.22.74-.22,1.21v.1c0,.79.18,1.38.55,1.77.37.38.92.58,1.64.58.25,0,.53-.03.84-.09.32-.07.61-.18.89-.33.2-.12.38-.16.53-.14.15,0,.27.06.36.16.1.1.15.22.17.36.02.13,0,.27-.09.42-.07.14-.19.27-.36.37-.34.21-.72.37-1.17.48-.43.1-.84.14-1.21.14ZM34.41,13.12c-.29,0-.51-.08-.66-.23-.15-.16-.23-.39-.23-.69V3.64c0-.3.08-.52.23-.68.15-.15.37-.23.66-.23s.51.08.66.23c.16.15.24.38.24.68v5.31h.03l2.38-2.51c.19-.19.36-.34.5-.45.14-.11.34-.16.59-.16s.44.07.56.2c.13.12.2.28.2.46s-.09.36-.26.55l-2.51,2.65v-.75l2.75,2.97c.17.18.25.37.23.56,0,.18-.09.34-.23.46-.14.12-.33.17-.55.17-.27,0-.48-.05-.65-.16-.15-.11-.33-.26-.52-.48l-2.51-2.62h-.03v2.33c0,.61-.3.92-.91.92ZM43.48,13.14c-.51,0-.96-.1-1.37-.29-.39-.2-.71-.47-.94-.81-.22-.34-.33-.72-.33-1.14,0-.52.13-.93.4-1.22.27-.31.71-.53,1.31-.66.6-.13,1.42-.2,2.43-.2h.72v1.04h-.71c-.6,0-1.07.03-1.43.09-.36.06-.61.16-.76.3-.14.13-.22.33-.22.58,0,.32.11.58.33.78.22.2.53.3.92.3.32,0,.6-.07.84-.22.25-.15.45-.36.59-.62.14-.26.22-.56.22-.89v-1.66c0-.48-.11-.83-.32-1.04-.21-.21-.57-.32-1.07-.32-.28,0-.58.03-.91.1-.32.07-.65.18-1.01.35-.18.09-.35.11-.49.07-.13-.04-.24-.12-.32-.23-.08-.12-.12-.26-.12-.4s.04-.28.12-.42c.08-.14.21-.25.39-.32.44-.18.86-.31,1.27-.39.41-.08.79-.12,1.12-.12.69,0,1.26.11,1.7.32.45.21.79.53,1.01.96.22.42.33.97.33,1.64v3.46c0,.3-.07.53-.22.69-.14.15-.35.23-.62.23s-.48-.08-.63-.23c-.14-.16-.22-.39-.22-.69v-.69h.12c-.07.34-.2.63-.4.88-.19.24-.44.43-.73.56-.3.13-.64.2-1.02.2ZM51.44,13.14c-.8,0-1.4-.23-1.8-.68-.4-.46-.6-1.13-.6-2.02V3.64c0-.3.08-.52.23-.68.15-.15.37-.23.66-.23s.51.08.66.23c.16.15.24.38.24.68v6.72c0,.44.09.77.27.98.19.21.46.32.81.32h.22c.07,0,.13-.02.2-.03.13-.02.23.02.27.12.05.09.07.27.07.55,0,.24-.05.43-.14.56s-.25.22-.48.24c-.1,0-.2.02-.3.03-.11,0-.21.01-.32.01ZM57.04,13.14c-.8,0-1.48-.15-2.06-.45-.58-.3-1.02-.72-1.34-1.27-.31-.55-.46-1.2-.46-1.94s.15-1.37.45-1.92c.31-.55.72-.97,1.25-1.28.54-.32,1.15-.48,1.83-.48.5,0,.95.08,1.34.24.4.16.74.4,1.02.71.29.31.5.68.65,1.12.15.43.23.92.23,1.47,0,.17-.06.31-.19.4-.12.09-.28.13-.5.13h-4.62v-1.04h4.05l-.23.22c0-.44-.07-.81-.2-1.11-.12-.3-.31-.52-.56-.68-.24-.16-.54-.24-.91-.24-.4,0-.75.1-1.04.29-.28.18-.49.45-.65.79-.14.34-.22.74-.22,1.21v.1c0,.79.18,1.38.55,1.77.37.38.92.58,1.64.58.25,0,.53-.03.84-.09.32-.07.61-.18.89-.33.2-.12.38-.16.53-.14.15,0,.27.06.36.16.1.1.15.22.17.36.02.13,0,.27-.09.42-.07.14-.19.27-.36.37-.34.21-.72.37-1.17.48-.43.1-.84.14-1.21.14ZM62.26,13.12c-.29,0-.51-.08-.66-.23-.15-.16-.23-.39-.23-.69v-5.44c0-.3.08-.52.23-.68.15-.15.37-.23.65-.23s.49.08.65.23c.15.15.23.38.23.68v.98l-.16-.36c.21-.51.54-.89.98-1.15.45-.27.96-.4,1.53-.4s1.03.11,1.4.32c.36.21.64.53.82.96.18.42.27.96.27,1.61v3.48c0,.3-.08.53-.23.69-.15.15-.37.23-.66.23s-.51-.08-.68-.23c-.15-.16-.23-.39-.23-.69v-3.4c0-.55-.11-.95-.32-1.2-.2-.25-.52-.37-.95-.37-.53,0-.95.17-1.27.5-.31.33-.46.76-.46,1.31v3.15c0,.61-.3.92-.91.92ZM72.5,13.14c-.61,0-1.16-.15-1.63-.45-.46-.3-.82-.72-1.08-1.27-.26-.56-.39-1.21-.39-1.96s.13-1.41.39-1.94c.26-.55.62-.97,1.08-1.27.47-.3,1.01-.45,1.63-.45s1.09.14,1.53.43c.44.29.74.67.89,1.14h-.16v-3.74c0-.3.08-.52.23-.68.15-.15.37-.23.66-.23s.51.08.66.23c.16.15.24.38.24.68v8.55c0,.3-.08.53-.23.69-.15.15-.37.23-.66.23s-.51-.08-.66-.23c-.15-.16-.23-.39-.23-.69v-1.12l.16.43c-.14.5-.44.9-.88,1.2-.44.3-.96.45-1.56.45ZM73.01,11.78c.36,0,.67-.09.94-.26.27-.17.48-.43.62-.76.15-.35.23-.77.23-1.28,0-.77-.16-1.34-.49-1.71-.33-.38-.76-.58-1.3-.58-.36,0-.67.09-.94.26-.27.16-.48.42-.63.76-.14.34-.22.76-.22,1.27,0,.76.16,1.33.49,1.73.33.38.76.58,1.3.58ZM81.9,13.14c-.8,0-1.48-.15-2.06-.45-.58-.3-1.02-.72-1.34-1.27-.31-.55-.46-1.2-.46-1.94s.15-1.37.45-1.92c.31-.55.72-.97,1.25-1.28.54-.32,1.15-.48,1.83-.48.5,0,.95.08,1.34.24.4.16.74.4,1.02.71.29.31.5.68.65,1.12.15.43.23.92.23,1.47,0,.17-.06.31-.19.4-.12.09-.28.13-.5.13h-4.62v-1.04h4.05l-.23.22c0-.44-.07-.81-.2-1.11-.12-.3-.31-.52-.56-.68-.24-.16-.54-.24-.91-.24-.4,0-.75.1-1.04.29-.28.18-.49.45-.65.79-.14.34-.22.74-.22,1.21v.1c0,.79.18,1.38.55,1.77.37.38.92.58,1.64.58.25,0,.53-.03.84-.09.32-.07.61-.18.89-.33.2-.12.38-.16.53-.14.15,0,.27.06.36.16.1.1.15.22.17.36.02.13,0,.27-.09.42-.07.14-.19.27-.36.37-.34.21-.72.37-1.17.48-.43.1-.84.14-1.21.14ZM87.16,13.12c-.3,0-.53-.08-.69-.23-.15-.16-.23-.39-.23-.69v-5.44c0-.3.08-.52.23-.68.15-.15.37-.23.65-.23s.49.08.65.23c.15.15.23.38.23.68v.91h-.14c.13-.58.4-1.01.79-1.31.39-.3.92-.48,1.57-.53.2-.02.36.03.48.16.12.12.2.3.22.55.02.24-.04.44-.17.59-.12.14-.32.23-.58.26l-.32.03c-.59.06-1.03.24-1.32.55-.3.3-.45.72-.45,1.27v2.98c0,.3-.08.53-.23.69-.15.15-.38.23-.68.23Z"/>
  <path class="cls-3" d="M21.53,47c-1.56,0-3.12-.24-4.92-.86-1.68-.61-3.24-1.1-4.68-1.71-.36-.12-.6-.24-.84-.37q-.12,0-.24-.12c-.24.12-.6.37-.84.49-.48.24-.96.49-1.56.73-.24.12-.72.24-1.2.37-1.08.24-2.28.12-3.36-.24-.48-.12-.96-.49-1.56-.86-.84-.61-1.32-1.47-1.32-2.57,0-.37.12-.86.24-1.34.48-.98,1.08-1.71,1.92-2.08,1.44-.73,3.24-.61,5.16-.24.72.12,1.32.37,2.04.49.72-.37,1.44-.98,2.4-1.59,1.08-.73,2.28-1.59,3.48-2.57,1.2-.98,2.28-1.96,3.36-2.93.96-.98,1.92-2.08,2.52-3.06.6-.86.96-1.83,1.08-2.57.12-.61.12-1.1.12-1.59,0-1.96-.48-3.3-1.68-4.28-1.08-.98-2.88-1.47-5.16-1.47-1.2,0-2.28.24-3.36.86-1.08.49-2.04,1.22-2.64,2.2-.6.86-.96,1.96-.96,3.18,0,.86.12,1.59.48,2.32.24.61.72,1.22,1.2,1.59.48.37,1.2.61,1.92.61h.48c.24-.12.48-.12.72-.24l.6-.24c.36-.12.6-.12.72-.12.6,0,1.2.24,1.68.61.48.49.72,1.1.72,1.71,0,.49-.12,1.22-1.08,1.96-.6.37-1.2.73-2.04.86-.72.12-1.32.24-1.92.24-1.68,0-3.24-.49-4.44-1.34-1.2-.86-2.16-2.08-2.76-3.42-.6-1.34-.96-2.81-.96-4.4,0-1.71.36-3.18,1.08-4.64.72-1.34,1.56-2.44,2.76-3.42,1.08-.98,2.4-1.71,3.84-2.2,1.44-.49,2.88-.73,4.32-.73,2.28,0,4.2.49,5.88,1.34,1.68.86,3,2.2,3.96,3.67.96,1.59,1.44,3.42,1.44,5.5v1.1c0,.37-.12.73-.12,1.22-.24,1.71-.96,3.3-2.04,4.77-.96,1.47-2.16,2.93-3.6,4.16-1.32,1.34-2.76,2.44-4.2,3.54-.72.49-1.32.98-2.04,1.47.24.12.48.12.72.24.96.37,1.8.61,2.76.86,1.68.37,2.64.49,3.84,0q.12,0,.12-.12c-.84-.73-.96-1.47-.96-2.08s.24-1.22.72-1.59c.48-.37.96-.61,1.56-.61s1.56.24,2.52,1.22c.72.73,1.08,1.59,1.08,2.44,0,1.34-.36,2.57-1.08,3.54-.72.86-1.56,1.47-2.64,1.83-1.32.37-2.28.49-3.24.49Z"/>
  <path class="cls-3" d="M42.23,48.1c-2.89,0-5.29-.63-7.21-2.03-1.92-1.27-3.25-3.04-4.09-5.2-.84-2.03-1.32-4.31-1.32-6.72,0-1.14.12-2.28.24-3.42.24-1.14.48-2.16.72-3.3.84-2.79,2.16-5.33,3.97-7.36,1.8-2.16,3.97-3.68,6.61-4.82,3.37-1.4,6.97-1.65,10.22-.63,1.92.63,3.49,1.65,4.69,3.04,1.2,1.4,2.04,2.92,2.53,4.69.48,1.65.72,3.55.72,5.33,0,1.52-.12,3.04-.48,4.57-.36,1.52-.72,2.92-1.2,4.19-.84,2.16-2.04,4.06-3.61,5.83-1.56,1.78-3.37,3.17-5.29,4.19-2.04,1.01-4.21,1.65-6.49,1.65ZM47.16,19.31c-1.44,0-2.77.25-4.09.76-1.92.76-3.61,2.03-4.81,3.55-1.32,1.52-2.28,3.42-2.89,5.45-.48,1.9-.84,3.68-.84,5.45,0,1.52.24,3.04.84,4.31.48,1.27,1.32,2.16,2.4,2.92,1.08.76,2.65,1.14,4.57,1.14,1.8,0,3.37-.38,4.81-1.27,1.44-.89,2.77-1.9,3.85-3.3,1.08-1.4,1.92-2.92,2.65-4.69.12-.38.24-.76.36-1.14-.36.25-.72.51-1.2.76-2.28,1.27-4.57,1.52-6.73.89-1.32-.38-2.4-1.01-3.25-1.78-.84-.76-1.32-1.78-1.68-2.66-.36-1.01-.48-1.9-.48-2.79,0-1.01.24-1.9.48-2.66.6-1.27,1.44-1.52,2.04-1.52.48,0,1.08.13,1.68.89.6.63.84,1.4.6,2.28-.12.38-.12.76-.12,1.14,0,1.14.36,1.52.72,1.78,1.2.89,3.01.89,4.69,0,.84-.38,1.56-1.01,2.16-1.78s.84-1.65.84-2.79c0-1.27-.24-2.16-.84-2.79-.6-.76-1.44-1.27-2.4-1.65-1.08-.38-2.28-.51-3.37-.51Z"/>
  <path class="cls-3" d="M78.18,47c-1.56,0-3.12-.24-4.92-.86-1.68-.61-3.24-1.1-4.68-1.71-.36-.12-.6-.24-.84-.37q-.12,0-.24-.12c-.24.12-.6.37-.84.49-.48.24-.96.49-1.56.73-.24.12-.72.24-1.2.37-1.08.24-2.28.12-3.36-.24-.48-.12-.96-.49-1.56-.86-.84-.61-1.32-1.47-1.32-2.57,0-.37.12-.86.24-1.34.48-.98,1.08-1.71,1.92-2.08,1.44-.73,3.24-.61,5.16-.24.72.12,1.32.37,2.04.49.72-.37,1.44-.98,2.4-1.59,1.08-.73,2.28-1.59,3.48-2.57,1.2-.98,2.28-1.96,3.36-2.93.96-.98,1.92-2.08,2.52-3.06.6-.86.96-1.83,1.08-2.57.12-.61.12-1.1.12-1.59,0-1.96-.48-3.3-1.68-4.28-1.08-.98-2.88-1.47-5.16-1.47-1.2,0-2.28.24-3.36.86-1.08.49-1.92,1.22-2.64,2.2-.6.86-.96,1.96-.96,3.18,0,.86.12,1.59.48,2.32.24.61.72,1.22,1.2,1.59.48.37,1.2.61,1.92.61h.48c.24-.12.48-.12.72-.24l.6-.24c.36-.12.6-.12.72-.12.6,0,1.2.24,1.68.61.48.49.72,1.1.72,1.71,0,.49-.12,1.22-1.08,1.96-.48.37-1.2.73-2.04.86-.72.12-1.32.24-1.92.24-1.68,0-3.24-.49-4.44-1.34-1.2-.86-2.16-2.08-2.76-3.42-.6-1.34-.96-2.81-.96-4.4,0-1.71.36-3.18,1.08-4.64.72-1.34,1.56-2.44,2.76-3.42,1.08-.98,2.4-1.71,3.84-2.2,1.44-.49,2.88-.73,4.32-.73,2.28,0,4.2.49,5.88,1.34,1.68.86,3,2.2,3.96,3.79.96,1.59,1.44,3.42,1.44,5.5v1.1c0,.37-.12.73-.12,1.22-.24,1.71-.96,3.3-2.04,4.77-.96,1.47-2.16,2.93-3.6,4.16-1.32,1.34-2.76,2.44-4.2,3.54-.72.49-1.32.98-2.04,1.47.24.12.48.12.72.24.96.37,1.8.61,2.76.86,1.68.37,2.64.49,3.84,0q.12,0,.12-.12c-.84-.73-.96-1.47-.96-1.96,0-.61.24-1.22.72-1.59.48-.37.96-.61,1.56-.61s1.56.24,2.52,1.22c.72.73,1.08,1.59,1.08,2.44,0,1.34-.36,2.57-1.08,3.54-.72.86-1.56,1.47-2.64,1.83-1.44.12-2.4.24-3.24.24Z"/>
  <path class="cls-2" d="M99.69,4.29c-3.14.98-4.75,4.07-5.34,5.29l12.98,3.58,1.22,2.66c-.01.97-.37,2.16-.27,4.52.1,2.36,3.12,4.3,4.44,4.31l1.55-2.53c-.36-.24-1.5-.04-2.23-1.65-.56-1.23.68-3.35,1.33-5.17.64-1.82,1.51-6.43-2.34-8.87-3.65-2.32-7.24-3.43-11.33-2.14Z"/>
  <ellipse class="cls-3" cx="114.25" cy="24.51" rx="3.22" ry="3.12" transform="translate(56.58 126.14) rotate(-72.54)"/>
  <path class="cls-3" d="M97.77,11.13c-.53,1.51-2.15,2.32-3.61,1.8-1.46-.52-2.22-2.17-1.68-3.68.53-1.51,2.15-2.32,3.61-1.8,1.46.52,2.22,2.17,1.68,3.68Z"/>
  <path class="cls-3" d="M101.62,11.47c-.53,1.51-2.15,2.32-3.61,1.8-1.46-.52-2.22-2.17-1.68-3.68.53-1.51,2.15-2.32,3.61-1.8,1.46.52,2.22,2.17,1.68,3.68Z"/>
  <path class="cls-3" d="M112.38,16.66c-.53,1.51-2.15,2.32-3.61,1.8-1.46-.52-2.22-2.17-1.68-3.68.53-1.51,2.15-2.32,3.61-1.8,1.46.52,2.22,2.17,1.68,3.68Z"/>
  <path class="cls-3" d="M105.96,12.33c-.59,1.68-2.39,2.57-4.02,2s-2.46-2.41-1.87-4.09c.59-1.68,2.39-2.57,4.01-2,1.63.58,2.46,2.41,1.87,4.09Z"/>
  <path class="cls-3" d="M109.68,13.99c-.59,1.68-2.39,2.57-4.01,2-1.63-.58-2.46-2.41-1.87-4.09.59-1.68,2.39-2.57,4.02-2,1.62.58,2.46,2.41,1.87,4.09Z"/>
</svg>