<svg width="36" height="30" viewBox="0 0 36 30" fill="none" xmlns="http://www.w3.org/2000/svg">
<path d="M21.8464 3.77414C20.0261 4.79767 19.4315 6.95268 19.2214 7.79507L27.7402 8.38925L28.841 9.90836C28.9611 10.5189 28.8964 11.3193 29.2631 12.7959C29.6297 14.2725 31.7595 15.1086 32.5803 14.9472L33.2147 13.1535C32.962 13.0475 32.2811 13.321 31.6139 12.4003C31.1058 11.6992 31.6018 10.1998 31.7631 8.96648C31.9244 7.73317 31.8612 4.72081 29.1569 3.67136C26.5883 2.6746 24.22 2.43949 21.8464 3.77414Z" fill="#751C15"/>
<ellipse cx="1.98247" cy="2.07302" rx="1.98247" ry="2.07302" transform="matrix(0.989862 0.142035 -0.129675 0.991557 31.8232 12.3257)" fill="#F8F9FA"/>
<path d="M21.549 8.1522C21.4154 9.17391 20.5163 9.88871 19.5409 9.74874C18.5655 9.60878 17.8831 8.66706 18.0167 7.64536C18.1503 6.62365 19.0494 5.90885 20.0248 6.04881C21.0002 6.18877 21.6826 7.13049 21.549 8.1522Z" fill="#F8F9FA"/>
<path d="M23.9845 7.87344C23.8508 8.89515 22.9518 9.60994 21.9764 9.46998C21.001 9.33002 20.3186 8.3883 20.4522 7.3666C20.5858 6.34489 21.4849 5.63009 22.4603 5.77005C23.4357 5.91001 24.1181 6.85173 23.9845 7.87344Z" fill="#F8F9FA"/>
<path d="M31.3339 9.76565C31.2003 10.7874 30.3013 11.5022 29.3259 11.3622C28.3505 11.2222 27.6681 10.2805 27.8017 9.2588C27.9353 8.23709 28.8343 7.5223 29.8098 7.66226C30.7852 7.80222 31.4676 8.74394 31.3339 9.76565Z" fill="#F8F9FA"/>
<path d="M26.7855 7.85654C26.6371 8.99178 25.6381 9.786 24.5544 9.63049C23.4706 9.47497 22.7123 8.42862 22.8608 7.29339C23.0093 6.15815 24.0082 5.36393 25.092 5.51945C26.1758 5.67496 26.934 6.72131 26.7855 7.85654Z" fill="#F8F9FA"/>
<path d="M29.3097 8.42815C29.1613 9.56338 28.1623 10.3576 27.0786 10.2021C25.9948 10.0466 25.2365 9.00022 25.385 7.86499C25.5335 6.72976 26.5324 5.93554 27.6162 6.09105C28.7 6.24656 29.4582 7.29292 29.3097 8.42815Z" fill="#F8F9FA"/>
<path d="M11.4542 27C10.6594 27 9.86463 26.8667 8.9476 26.5333C8.0917 26.2 7.29694 25.9333 6.56332 25.6C6.37991 25.5333 6.25764 25.4667 6.13537 25.4C6.07423 25.4 6.07424 25.4 6.0131 25.3333C5.89083 25.4 5.70742 25.5333 5.58515 25.6C5.34061 25.7333 5.09607 25.8667 4.79039 26C4.66812 26.0667 4.42358 26.1333 4.17904 26.2C3.62882 26.3333 3.01747 26.2667 2.46725 26.0667C2.22271 26 1.97817 25.8 1.67249 25.6C1.24454 25.2667 1 24.8 1 24.2C1 24 1.06114 23.7333 1.12227 23.4667C1.36681 22.9333 1.67249 22.5333 2.10044 22.3333C2.83406 21.9333 3.75109 22 4.72926 22.2C5.09607 22.2667 5.40175 22.4 5.76856 22.4667C6.13537 22.2667 6.50218 21.9333 6.99127 21.6C7.54148 21.2 8.15284 20.7333 8.76419 20.2C9.37555 19.6667 9.92576 19.1333 10.476 18.6C10.9651 18.0667 11.4542 17.4667 11.7598 16.9333C12.0655 16.4667 12.2489 15.9333 12.31 15.5333C12.3712 15.2 12.3712 14.9333 12.3712 14.6667C12.3712 13.6 12.1266 12.8667 11.5153 12.3333C10.9651 11.8 10.048 11.5333 8.88646 11.5333C8.27511 11.5333 7.72489 11.6667 7.17467 12C6.62445 12.2667 6.19651 12.6667 5.82969 13.2C5.52402 13.6667 5.34061 14.2667 5.34061 14.9333C5.34061 15.4 5.40175 15.8 5.58515 16.2C5.70742 16.5333 5.95197 16.8667 6.19651 17.0667C6.44105 17.2667 6.80786 17.4 7.17467 17.4C7.23581 17.4 7.35808 17.4 7.41921 17.4C7.54149 17.3333 7.66375 17.3333 7.78603 17.2667L8.0917 17.1333C8.27511 17.0667 8.39738 17.0667 8.45852 17.0667C8.76419 17.0667 9.06987 17.2 9.31441 17.4C9.55895 17.6667 9.68122 18 9.68122 18.3333C9.68122 18.6 9.62009 19 9.131 19.4C8.88646 19.6 8.51965 19.8 8.0917 19.8667C7.72489 19.9333 7.41921 20 7.11354 20C6.25764 20 5.46288 19.7333 4.85153 19.2667C4.24017 18.8 3.75109 18.1333 3.44542 17.4C3.13974 16.6667 2.95633 15.8667 2.95633 15C2.95633 14.0667 3.13974 13.2667 3.50655 12.4667C3.87336 11.7333 4.30131 11.1333 4.91266 10.6C5.46288 10.0667 6.13537 9.66667 6.869 9.4C7.60262 9.13333 8.33625 9 9.06987 9C10.2314 9 11.2096 9.26667 12.0655 9.73333C12.9214 10.2 13.5939 10.9333 14.083 11.8C14.5721 12.6667 14.8166 13.6667 14.8166 14.8C14.8166 15 14.8166 15.2 14.8166 15.4C14.8166 15.6 14.7555 15.8 14.7555 16.0667C14.6332 17 14.2664 17.8667 13.7162 18.6667C13.2271 19.4667 12.6157 20.2667 11.8821 20.9333C11.2096 21.6667 10.476 22.2667 9.74236 22.8667C9.37555 23.1333 9.06987 23.4 8.70306 23.6667C8.82533 23.7333 8.9476 23.7333 9.06987 23.8C9.55895 24 9.9869 24.1333 10.476 24.2667C11.3319 24.4667 11.821 24.5333 12.4323 24.2667C12.4935 24.2667 12.4935 24.2667 12.4935 24.2C12.0655 23.8 12.0044 23.4 12.0044 23.1333C12.0044 22.8 12.1266 22.4667 12.3712 22.2667C12.6157 22.0667 12.8603 21.9333 13.1659 21.9333C13.4716 21.9333 13.9607 22.0667 14.4498 22.6C14.8166 23 15 23.4667 15 23.9333C15 24.6667 14.8166 25.3333 14.4498 25.8667C14.083 26.3333 13.655 26.6667 13.1048 26.8667C12.3712 26.9333 11.8821 27 11.4542 27Z" fill="#F8F9FA"/>
<path d="M23.0598 27C22.5392 27 22.158 26.7874 21.9163 26.3621C21.6746 25.9368 21.5724 25.5023 21.6096 25.0586C21.7769 23.4869 22.0279 21.9707 22.3625 20.51L22.3068 20.4545C21.6746 20.3436 21.0425 20.2512 20.4104 20.1772C19.7782 20.1032 19.2019 20.0663 18.6813 20.0663C18.2351 20.0663 17.8725 20.094 17.5936 20.1495C17.3519 20.1864 17.1381 20.2419 16.9522 20.3159C16.7849 20.3898 16.6082 20.473 16.4223 20.5655L16.0598 20.7319C15.911 20.8059 15.7623 20.8428 15.6135 20.8428C15.3904 20.8428 15.2324 20.7596 15.1394 20.5932C15.0465 20.4083 15 20.2234 15 20.0385C15 19.8166 15.0372 19.6687 15.1116 19.5948C15.7065 19.0031 16.2922 18.4114 16.8685 17.8197C17.4449 17.228 18.0212 16.6364 18.5976 16.0447C19.4714 15.1572 20.336 14.2696 21.1912 13.3821C22.0465 12.4946 22.9389 11.6256 23.8685 10.775L25.5976 9.22188C25.7463 9.07396 25.923 9 26.1275 9C26.4436 9 26.6016 9.17565 26.6016 9.52696C26.6016 9.56394 26.6016 9.61017 26.6016 9.66564C26.6016 9.72111 26.5923 9.76733 26.5737 9.80431C26.1275 11.376 25.6999 12.9661 25.2908 14.5747C24.8818 16.1649 24.4914 17.755 24.1195 19.3451L24.1753 19.4006C24.4728 19.4376 24.7888 19.4746 25.1235 19.5116C25.4582 19.5485 26.0066 19.604 26.7689 19.678C27.0292 19.7149 27.2244 19.678 27.3546 19.567C27.5033 19.4376 27.5777 19.2897 27.5777 19.1233C27.5777 18.9753 27.5126 18.8182 27.3825 18.6518C27.2709 18.4854 27.0943 18.3652 26.8526 18.2912C26.6667 18.2357 26.5272 18.1341 26.4343 17.9861C26.3599 17.8197 26.3227 17.6626 26.3227 17.5146C26.3227 17.3112 26.3785 17.1356 26.49 16.9877C26.6016 16.8398 26.7689 16.7658 26.992 16.7658C27.3267 16.7658 27.745 16.9877 28.247 17.4314C28.5073 17.7273 28.6932 18.0324 28.8048 18.3467C28.9349 18.6425 29 18.9199 29 19.1787C29 19.6965 28.8141 20.131 28.4422 20.4823C28.0704 20.8336 27.6149 21.0462 27.0757 21.1202C27.0013 21.1387 26.9177 21.1479 26.8247 21.1479C26.7503 21.1479 26.6667 21.1479 26.5737 21.1479C26.2019 21.1479 25.7742 21.1109 25.2908 21.037C24.826 20.963 24.3519 20.8798 23.8685 20.7874L23.8127 20.8428C23.664 21.5455 23.5153 22.2943 23.3665 23.0894C23.2364 23.8844 23.162 24.6148 23.1434 25.2804V25.3359C23.1434 25.3914 23.1434 25.4468 23.1434 25.5023C23.1434 25.5393 23.1527 25.5763 23.1713 25.6133L23.1992 25.641C23.3851 25.6965 23.5339 25.8074 23.6454 25.9738C23.757 26.1217 23.8127 26.2789 23.8127 26.4453C23.8127 26.5747 23.757 26.6949 23.6454 26.8059C23.5339 26.9353 23.3386 27 23.0598 27ZM22.6135 19.1233L22.6693 19.0678C22.9296 17.9214 23.1899 16.7935 23.4502 15.6841C23.7291 14.5562 24.0173 13.4376 24.3147 12.3282L24.2311 12.2727C23.8778 12.624 23.5246 12.9846 23.1713 13.3544C22.8181 13.7057 22.4648 14.0663 22.1116 14.4361L17.9562 18.6795L17.9841 18.7627C18.3559 18.7072 18.7371 18.6795 19.1275 18.6795C19.7224 18.6795 20.3174 18.7257 20.9123 18.8182C21.5073 18.9106 22.0744 19.0123 22.6135 19.1233Z" fill="#F8F9FA" stroke="#F8F9FA"/>
</svg>
