<svg width="120" height="48" viewBox="0 0 120 48" fill="none" xmlns="http://www.w3.org/2000/svg">
<g clip-path="url(#clip0_472_47785)">
<path d="M2.0913 13.1152C1.8033 13.1152 1.5825 13.0384 1.4289 12.8848C1.2753 12.7216 1.1985 12.4912 1.1985 12.1936V3.64C1.1985 3.3424 1.2753 3.1168 1.4289 2.9632C1.5825 2.8096 1.8033 2.7328 2.0913 2.7328C2.3793 2.7328 2.6001 2.8096 2.7537 2.9632C2.9169 3.1168 2.9985 3.3424 2.9985 3.64V8.9536H3.0273L5.4033 6.448C5.5953 6.256 5.7633 6.1072 5.9073 6.0016C6.0513 5.896 6.2481 5.8432 6.4977 5.8432C6.7473 5.8432 6.9345 5.9104 7.0593 6.0448C7.1937 6.1696 7.2609 6.3232 7.2609 6.5056C7.2609 6.688 7.1745 6.8704 7.0017 7.0528L4.4961 9.7024V8.9536L7.2465 11.92C7.4193 12.1024 7.4961 12.2896 7.4769 12.4816C7.4673 12.664 7.3905 12.8176 7.2465 12.9424C7.1025 13.0576 6.9201 13.1152 6.6993 13.1152C6.4305 13.1152 6.2145 13.0624 6.0513 12.9568C5.8977 12.8512 5.7249 12.6928 5.5329 12.4816L3.0273 9.8608H2.9985V12.1936C2.9985 12.808 2.6961 13.1152 2.0913 13.1152ZM11.9894 13.144C11.2598 13.144 10.6262 12.9952 10.0886 12.6976C9.55098 12.4 9.13338 11.9776 8.83578 11.4304C8.53818 10.8736 8.38938 10.2208 8.38938 9.472C8.38938 8.9056 8.47098 8.4016 8.63418 7.96C8.80698 7.5088 9.05178 7.1248 9.36858 6.808C9.68538 6.4816 10.0646 6.2368 10.5062 6.0736C10.9478 5.9008 11.4422 5.8144 11.9894 5.8144C12.719 5.8144 13.3526 5.9632 13.8902 6.2608C14.4278 6.5584 14.8454 6.9808 15.143 7.528C15.4406 8.0752 15.5894 8.7232 15.5894 9.472C15.5894 10.0384 15.503 10.5472 15.3302 10.9984C15.167 11.4496 14.927 11.8384 14.6102 12.1648C14.2934 12.4816 13.9142 12.7264 13.4726 12.8992C13.031 13.0624 12.5366 13.144 11.9894 13.144ZM11.9894 11.776C12.3446 11.776 12.6566 11.6896 12.9254 11.5168C13.1942 11.344 13.4006 11.0896 13.5446 10.7536C13.6982 10.408 13.775 9.9808 13.775 9.472C13.775 8.704 13.6118 8.1328 13.2854 7.7584C12.959 7.3744 12.527 7.1824 11.9894 7.1824C11.6342 7.1824 11.3222 7.2688 11.0534 7.4416C10.7846 7.6048 10.5734 7.8592 10.4198 8.2048C10.2758 8.5408 10.2038 8.9632 10.2038 9.472C10.2038 10.2304 10.367 10.8064 10.6934 11.2C11.0198 11.584 11.4518 11.776 11.9894 11.776ZM19.7823 13.144C19.1679 13.144 18.6255 12.9952 18.1551 12.6976C17.6943 12.4 17.3343 11.9776 17.0751 11.4304C16.8159 10.8736 16.6863 10.2208 16.6863 9.472C16.6863 8.7136 16.8159 8.0656 17.0751 7.528C17.3343 6.9808 17.6943 6.5584 18.1551 6.2608C18.6255 5.9632 19.1679 5.8144 19.7823 5.8144C20.3679 5.8144 20.8767 5.9584 21.3087 6.2464C21.7503 6.5344 22.0479 6.9136 22.2015 7.384H22.0431V3.64C22.0431 3.3424 22.1199 3.1168 22.2735 2.9632C22.4271 2.8096 22.6479 2.7328 22.9359 2.7328C23.2239 2.7328 23.4447 2.8096 23.5983 2.9632C23.7615 3.1168 23.8431 3.3424 23.8431 3.64V12.1936C23.8431 12.4912 23.7663 12.7216 23.6127 12.8848C23.4591 13.0384 23.2383 13.1152 22.9503 13.1152C22.6623 13.1152 22.4415 13.0384 22.2879 12.8848C22.1343 12.7216 22.0575 12.4912 22.0575 12.1936V11.0704L22.2159 11.5024C22.0719 12.0016 21.7791 12.4 21.3375 12.6976C20.8959 12.9952 20.3775 13.144 19.7823 13.144ZM20.2863 11.776C20.6415 11.776 20.9535 11.6896 21.2223 11.5168C21.4911 11.344 21.6975 11.0896 21.8415 10.7536C21.9951 10.408 22.0719 9.9808 22.0719 9.472C22.0719 8.704 21.9087 8.1328 21.5823 7.7584C21.2559 7.3744 20.8239 7.1824 20.2863 7.1824C19.9311 7.1824 19.6191 7.2688 19.3503 7.4416C19.0815 7.6048 18.8703 7.8592 18.7167 8.2048C18.5727 8.5408 18.5007 8.9632 18.5007 9.472C18.5007 10.2304 18.6639 10.8064 18.9903 11.2C19.3167 11.584 19.7487 11.776 20.2863 11.776ZM29.1798 13.144C28.383 13.144 27.6966 12.9952 27.1206 12.6976C26.5446 12.4 26.0982 11.9776 25.7814 11.4304C25.4742 10.8832 25.3206 10.2352 25.3206 9.4864C25.3206 8.7568 25.4694 8.1184 25.767 7.5712C26.0742 7.024 26.4918 6.5968 27.0198 6.2896C27.5574 5.9728 28.167 5.8144 28.8486 5.8144C29.3478 5.8144 29.7942 5.896 30.1878 6.0592C30.591 6.2224 30.9318 6.4576 31.2102 6.7648C31.4982 7.072 31.7142 7.4464 31.8582 7.888C32.0118 8.32 32.0886 8.8096 32.0886 9.3568C32.0886 9.5296 32.0262 9.664 31.9014 9.76C31.7862 9.8464 31.6182 9.8896 31.3974 9.8896H26.775V8.8528H30.8214L30.591 9.0688C30.591 8.6272 30.5238 8.2576 30.3894 7.96C30.2646 7.6624 30.0774 7.4368 29.8278 7.2832C29.5878 7.12 29.2854 7.0384 28.9206 7.0384C28.5174 7.0384 28.1718 7.1344 27.8838 7.3264C27.6054 7.5088 27.3894 7.7728 27.2358 8.1184C27.0918 8.4544 27.0198 8.8576 27.0198 9.328V9.4288C27.0198 10.216 27.2022 10.8064 27.567 11.2C27.9414 11.584 28.4886 11.776 29.2086 11.776C29.4582 11.776 29.7366 11.7472 30.0438 11.6896C30.3606 11.6224 30.6582 11.512 30.9366 11.3584C31.1382 11.2432 31.3158 11.1952 31.4694 11.2144C31.623 11.224 31.743 11.2768 31.8294 11.3728C31.9254 11.4688 31.983 11.5888 32.0022 11.7328C32.0214 11.8672 31.9926 12.0064 31.9158 12.1504C31.8486 12.2944 31.7286 12.4192 31.5558 12.5248C31.2198 12.736 30.831 12.8944 30.3894 13C29.9574 13.096 29.5542 13.144 29.1798 13.144ZM34.4069 13.1152C34.1189 13.1152 33.8981 13.0384 33.7445 12.8848C33.5909 12.7216 33.5141 12.4912 33.5141 12.1936V3.64C33.5141 3.3424 33.5909 3.1168 33.7445 2.9632C33.8981 2.8096 34.1189 2.7328 34.4069 2.7328C34.6949 2.7328 34.9157 2.8096 35.0693 2.9632C35.2325 3.1168 35.3141 3.3424 35.3141 3.64V8.9536H35.3429L37.7189 6.448C37.9109 6.256 38.0789 6.1072 38.2229 6.0016C38.3669 5.896 38.5637 5.8432 38.8133 5.8432C39.0629 5.8432 39.2501 5.9104 39.3749 6.0448C39.5093 6.1696 39.5765 6.3232 39.5765 6.5056C39.5765 6.688 39.4901 6.8704 39.3173 7.0528L36.8117 9.7024V8.9536L39.5621 11.92C39.7349 12.1024 39.8117 12.2896 39.7925 12.4816C39.7829 12.664 39.7061 12.8176 39.5621 12.9424C39.4181 13.0576 39.2357 13.1152 39.0149 13.1152C38.7461 13.1152 38.5301 13.0624 38.3669 12.9568C38.2133 12.8512 38.0405 12.6928 37.8485 12.4816L35.3429 9.8608H35.3141V12.1936C35.3141 12.808 35.0117 13.1152 34.4069 13.1152ZM43.4825 13.144C42.9737 13.144 42.5177 13.048 42.1145 12.856C41.7209 12.6544 41.4089 12.3856 41.1785 12.0496C40.9577 11.7136 40.8473 11.3344 40.8473 10.912C40.8473 10.3936 40.9817 9.9856 41.2505 9.688C41.5193 9.3808 41.9561 9.16 42.5609 9.0256C43.1657 8.8912 43.9769 8.824 44.9945 8.824H45.7145V9.8608H45.0089C44.4137 9.8608 43.9385 9.8896 43.5833 9.9472C43.2281 10.0048 42.9737 10.1056 42.8201 10.2496C42.6761 10.384 42.6041 10.576 42.6041 10.8256C42.6041 11.1424 42.7145 11.4016 42.9353 11.6032C43.1561 11.8048 43.4633 11.9056 43.8569 11.9056C44.1737 11.9056 44.4521 11.8336 44.6921 11.6896C44.9417 11.536 45.1385 11.3296 45.2825 11.0704C45.4265 10.8112 45.4985 10.5136 45.4985 10.1776V8.5216C45.4985 8.0416 45.3929 7.696 45.1817 7.4848C44.9705 7.2736 44.6153 7.168 44.1161 7.168C43.8377 7.168 43.5353 7.2016 43.2089 7.2688C42.8921 7.336 42.5561 7.4512 42.2009 7.6144C42.0185 7.7008 41.8553 7.7248 41.7113 7.6864C41.5769 7.648 41.4713 7.5712 41.3945 7.456C41.3177 7.3312 41.2793 7.1968 41.2793 7.0528C41.2793 6.9088 41.3177 6.7696 41.3945 6.6352C41.4713 6.4912 41.6009 6.3856 41.7833 6.3184C42.2249 6.136 42.6473 6.0064 43.0505 5.9296C43.4633 5.8528 43.8377 5.8144 44.1737 5.8144C44.8649 5.8144 45.4313 5.92 45.8729 6.1312C46.3241 6.3424 46.6601 6.664 46.8809 7.096C47.1017 7.5184 47.2121 8.0656 47.2121 8.7376V12.1936C47.2121 12.4912 47.1401 12.7216 46.9961 12.8848C46.8521 13.0384 46.6457 13.1152 46.3769 13.1152C46.1081 13.1152 45.8969 13.0384 45.7433 12.8848C45.5993 12.7216 45.5273 12.4912 45.5273 12.1936V11.5024H45.6425C45.5753 11.8384 45.4409 12.1312 45.2393 12.3808C45.0473 12.6208 44.8025 12.808 44.5049 12.9424C44.2073 13.0768 43.8665 13.144 43.4825 13.144ZM51.4439 13.144C50.6471 13.144 50.0471 12.9184 49.6439 12.4672C49.2407 12.0064 49.0391 11.3344 49.0391 10.4512V3.64C49.0391 3.3424 49.1159 3.1168 49.2695 2.9632C49.4231 2.8096 49.6439 2.7328 49.9319 2.7328C50.2199 2.7328 50.4407 2.8096 50.5943 2.9632C50.7575 3.1168 50.8391 3.3424 50.8391 3.64V10.3648C50.8391 10.8064 50.9303 11.1328 51.1127 11.344C51.3047 11.5552 51.5735 11.6608 51.9191 11.6608C51.9959 11.6608 52.0679 11.6608 52.1351 11.6608C52.2023 11.6512 52.2695 11.6416 52.3367 11.632C52.4711 11.6128 52.5623 11.6512 52.6103 11.7472C52.6583 11.8336 52.6823 12.016 52.6823 12.2944C52.6823 12.5344 52.6343 12.7216 52.5383 12.856C52.4423 12.9904 52.2839 13.072 52.0631 13.1008C51.9671 13.1104 51.8663 13.12 51.7607 13.1296C51.6551 13.1392 51.5495 13.144 51.4439 13.144ZM57.0376 13.144C56.2408 13.144 55.5544 12.9952 54.9784 12.6976C54.4024 12.4 53.956 11.9776 53.6392 11.4304C53.332 10.8832 53.1784 10.2352 53.1784 9.4864C53.1784 8.7568 53.3272 8.1184 53.6248 7.5712C53.932 7.024 54.3496 6.5968 54.8776 6.2896C55.4152 5.9728 56.0248 5.8144 56.7064 5.8144C57.2056 5.8144 57.652 5.896 58.0456 6.0592C58.4488 6.2224 58.7896 6.4576 59.068 6.7648C59.356 7.072 59.572 7.4464 59.716 7.888C59.8696 8.32 59.9464 8.8096 59.9464 9.3568C59.9464 9.5296 59.884 9.664 59.7592 9.76C59.644 9.8464 59.476 9.8896 59.2552 9.8896H54.6328V8.8528H58.6792L58.4488 9.0688C58.4488 8.6272 58.3816 8.2576 58.2472 7.96C58.1224 7.6624 57.9352 7.4368 57.6856 7.2832C57.4456 7.12 57.1432 7.0384 56.7784 7.0384C56.3752 7.0384 56.0296 7.1344 55.7416 7.3264C55.4632 7.5088 55.2472 7.7728 55.0936 8.1184C54.9496 8.4544 54.8776 8.8576 54.8776 9.328V9.4288C54.8776 10.216 55.06 10.8064 55.4248 11.2C55.7992 11.584 56.3464 11.776 57.0664 11.776C57.316 11.776 57.5944 11.7472 57.9016 11.6896C58.2184 11.6224 58.516 11.512 58.7944 11.3584C58.996 11.2432 59.1736 11.1952 59.3272 11.2144C59.4808 11.224 59.6008 11.2768 59.6872 11.3728C59.7832 11.4688 59.8408 11.5888 59.86 11.7328C59.8792 11.8672 59.8504 12.0064 59.7736 12.1504C59.7064 12.2944 59.5864 12.4192 59.4136 12.5248C59.0776 12.736 58.6888 12.8944 58.2472 13C57.8152 13.096 57.412 13.144 57.0376 13.144ZM62.2647 13.1152C61.9767 13.1152 61.7559 13.0384 61.6023 12.8848C61.4487 12.7216 61.3719 12.4912 61.3719 12.1936V6.7504C61.3719 6.4528 61.4487 6.2272 61.6023 6.0736C61.7559 5.92 61.9719 5.8432 62.2503 5.8432C62.5287 5.8432 62.7447 5.92 62.8983 6.0736C63.0519 6.2272 63.1287 6.4528 63.1287 6.7504V7.7296L62.9703 7.3696C63.1815 6.8608 63.5079 6.4768 63.9495 6.2176C64.4007 5.9488 64.9095 5.8144 65.4759 5.8144C66.0423 5.8144 66.5079 5.92 66.8727 6.1312C67.2375 6.3424 67.5111 6.664 67.6935 7.096C67.8759 7.5184 67.9671 8.056 67.9671 8.7088V12.1936C67.9671 12.4912 67.8903 12.7216 67.7367 12.8848C67.5831 13.0384 67.3623 13.1152 67.0743 13.1152C66.7863 13.1152 66.5607 13.0384 66.3975 12.8848C66.2439 12.7216 66.1671 12.4912 66.1671 12.1936V8.7952C66.1671 8.248 66.0615 7.8496 65.8503 7.6C65.6487 7.3504 65.3319 7.2256 64.8999 7.2256C64.3719 7.2256 63.9495 7.3936 63.6327 7.7296C63.3255 8.056 63.1719 8.4928 63.1719 9.04V12.1936C63.1719 12.808 62.8695 13.1152 62.2647 13.1152ZM72.5026 13.144C71.8882 13.144 71.3458 12.9952 70.8754 12.6976C70.4146 12.4 70.0546 11.9776 69.7954 11.4304C69.5362 10.8736 69.4066 10.2208 69.4066 9.472C69.4066 8.7136 69.5362 8.0656 69.7954 7.528C70.0546 6.9808 70.4146 6.5584 70.8754 6.2608C71.3458 5.9632 71.8882 5.8144 72.5026 5.8144C73.0882 5.8144 73.597 5.9584 74.029 6.2464C74.4706 6.5344 74.7682 6.9136 74.9218 7.384H74.7634V3.64C74.7634 3.3424 74.8402 3.1168 74.9938 2.9632C75.1474 2.8096 75.3682 2.7328 75.6562 2.7328C75.9442 2.7328 76.165 2.8096 76.3186 2.9632C76.4818 3.1168 76.5634 3.3424 76.5634 3.64V12.1936C76.5634 12.4912 76.4866 12.7216 76.333 12.8848C76.1794 13.0384 75.9586 13.1152 75.6706 13.1152C75.3826 13.1152 75.1618 13.0384 75.0082 12.8848C74.8546 12.7216 74.7778 12.4912 74.7778 12.1936V11.0704L74.9362 11.5024C74.7922 12.0016 74.4994 12.4 74.0578 12.6976C73.6162 12.9952 73.0978 13.144 72.5026 13.144ZM73.0066 11.776C73.3618 11.776 73.6738 11.6896 73.9426 11.5168C74.2114 11.344 74.4178 11.0896 74.5618 10.7536C74.7154 10.408 74.7922 9.9808 74.7922 9.472C74.7922 8.704 74.629 8.1328 74.3026 7.7584C73.9762 7.3744 73.5442 7.1824 73.0066 7.1824C72.6514 7.1824 72.3394 7.2688 72.0706 7.4416C71.8018 7.6048 71.5906 7.8592 71.437 8.2048C71.293 8.5408 71.221 8.9632 71.221 9.472C71.221 10.2304 71.3842 10.8064 71.7106 11.2C72.037 11.584 72.469 11.776 73.0066 11.776ZM81.9002 13.144C81.1034 13.144 80.417 12.9952 79.841 12.6976C79.265 12.4 78.8186 11.9776 78.5018 11.4304C78.1946 10.8832 78.041 10.2352 78.041 9.4864C78.041 8.7568 78.1898 8.1184 78.4874 7.5712C78.7946 7.024 79.2122 6.5968 79.7402 6.2896C80.2778 5.9728 80.8874 5.8144 81.569 5.8144C82.0682 5.8144 82.5146 5.896 82.9082 6.0592C83.3114 6.2224 83.6522 6.4576 83.9306 6.7648C84.2186 7.072 84.4346 7.4464 84.5786 7.888C84.7322 8.32 84.809 8.8096 84.809 9.3568C84.809 9.5296 84.7466 9.664 84.6218 9.76C84.5066 9.8464 84.3386 9.8896 84.1178 9.8896H79.4954V8.8528H83.5418L83.3114 9.0688C83.3114 8.6272 83.2442 8.2576 83.1098 7.96C82.985 7.6624 82.7978 7.4368 82.5482 7.2832C82.3082 7.12 82.0058 7.0384 81.641 7.0384C81.2378 7.0384 80.8922 7.1344 80.6042 7.3264C80.3258 7.5088 80.1098 7.7728 79.9562 8.1184C79.8122 8.4544 79.7402 8.8576 79.7402 9.328V9.4288C79.7402 10.216 79.9226 10.8064 80.2874 11.2C80.6618 11.584 81.209 11.776 81.929 11.776C82.1786 11.776 82.457 11.7472 82.7642 11.6896C83.081 11.6224 83.3786 11.512 83.657 11.3584C83.8586 11.2432 84.0362 11.1952 84.1898 11.2144C84.3434 11.224 84.4634 11.2768 84.5498 11.3728C84.6458 11.4688 84.7034 11.5888 84.7226 11.7328C84.7418 11.8672 84.713 12.0064 84.6362 12.1504C84.569 12.2944 84.449 12.4192 84.2762 12.5248C83.9402 12.736 83.5514 12.8944 83.1098 13C82.6778 13.096 82.2746 13.144 81.9002 13.144ZM87.156 13.1152C86.8584 13.1152 86.628 13.0384 86.4648 12.8848C86.3112 12.7216 86.2344 12.4912 86.2344 12.1936V6.7504C86.2344 6.4528 86.3112 6.2272 86.4648 6.0736C86.6184 5.92 86.8344 5.8432 87.1128 5.8432C87.3912 5.8432 87.6072 5.92 87.7608 6.0736C87.9144 6.2272 87.9912 6.4528 87.9912 6.7504V7.6576H87.8472C87.9816 7.0816 88.2456 6.6448 88.6392 6.3472C89.0328 6.0496 89.556 5.872 90.2088 5.8144C90.4104 5.7952 90.5688 5.848 90.684 5.9728C90.8088 6.088 90.8808 6.2704 90.9 6.52C90.9192 6.76 90.8616 6.9568 90.7272 7.1104C90.6024 7.2544 90.4104 7.3408 90.1512 7.3696L89.8344 7.3984C89.2488 7.456 88.8072 7.6384 88.5096 7.9456C88.212 8.2432 88.0632 8.6656 88.0632 9.2128V12.1936C88.0632 12.4912 87.9864 12.7216 87.8328 12.8848C87.6792 13.0384 87.4536 13.1152 87.156 13.1152Z" fill="#F8F9FA"/>
<path d="M101.689 3.28511C98.5481 4.269 96.9403 7.35902 96.3463 8.57391L109.322 12.1568L110.538 14.8131C110.528 15.7793 110.173 16.9761 110.267 19.3368C110.362 21.6976 113.386 23.6389 114.706 23.6515L116.26 21.1235C115.904 20.8828 114.764 21.0846 114.027 19.4746C113.466 18.2487 114.712 16.1246 115.355 14.2999C115.999 12.4752 116.864 7.87459 113.02 5.42816C109.369 3.10455 105.784 2.00215 101.689 3.28511Z" fill="#751C15"/>
<ellipse cx="3.12303" cy="3.22477" rx="3.12303" ry="3.22477" transform="matrix(0.942311 0.334739 -0.332597 0.943069 114.375 19.4268)" fill="#F8F9FA"/>
<path d="M99.7699 10.132C99.2368 11.6436 97.6188 12.4478 96.156 11.9282C94.6932 11.4085 93.9396 9.76188 94.4727 8.25024C95.0058 6.73861 96.6238 5.93442 98.0866 6.45404C99.5494 6.97367 100.303 8.62033 99.7699 10.132Z" fill="#F8F9FA"/>
<path d="M103.623 10.4741C103.09 11.9857 101.472 12.7899 100.009 12.2703C98.5464 11.7507 97.7928 10.104 98.3259 8.59237C98.859 7.08073 100.477 6.27655 101.94 6.79617C103.403 7.31579 104.156 8.96245 103.623 10.4741Z" fill="#F8F9FA"/>
<path d="M114.377 15.6631C113.844 17.1747 112.226 17.9789 110.763 17.4593C109.3 16.9397 108.547 15.293 109.08 13.7814C109.613 12.2697 111.231 11.4655 112.694 11.9852C114.156 12.5048 114.91 14.1514 114.377 15.6631Z" fill="#F8F9FA"/>
<path d="M107.958 11.3294C107.365 13.009 105.567 13.9026 103.942 13.3252C102.317 12.7478 101.48 10.9182 102.072 9.23862C102.664 7.55902 104.462 6.66548 106.087 7.24284C107.713 7.8202 108.55 9.64982 107.958 11.3294Z" fill="#F8F9FA"/>
<path d="M111.676 12.9926C111.084 14.6722 109.286 15.5657 107.661 14.9883C106.035 14.411 105.198 12.5813 105.79 10.9018C106.383 9.22216 108.18 8.32862 109.806 8.90598C111.431 9.48333 112.268 11.313 111.676 12.9926Z" fill="#F8F9FA"/>
<path d="M21.5349 47C19.9738 47 18.4127 46.7556 16.6114 46.1444C14.9301 45.5333 13.369 45.0444 11.9279 44.4333C11.5677 44.3111 11.3275 44.1889 11.0873 44.0667C10.9672 44.0667 10.9672 44.0667 10.8472 43.9444C10.607 44.0667 10.2467 44.3111 10.0065 44.4333C9.5262 44.6778 9.04585 44.9222 8.44541 45.1667C8.20524 45.2889 7.72489 45.4111 7.24454 45.5333C6.16375 45.7778 4.96288 45.6556 3.8821 45.2889C3.40175 45.1667 2.9214 44.8 2.32096 44.4333C1.48035 43.8222 1 42.9667 1 41.8667C1 41.5 1.12009 41.0111 1.24017 40.5222C1.72052 39.5444 2.32096 38.8111 3.16157 38.4444C4.60262 37.7111 6.40393 37.8333 8.32533 38.2C9.04585 38.3222 9.64629 38.5667 10.3668 38.6889C11.0873 38.3222 11.8079 37.7111 12.7686 37.1C13.8493 36.3667 15.0502 35.5111 16.2511 34.5333C17.452 33.5556 18.5328 32.5778 19.6135 31.6C20.5742 30.6222 21.5349 29.5222 22.1354 28.5444C22.7358 27.6889 23.0961 26.7111 23.2162 25.9778C23.3362 25.3667 23.3362 24.8778 23.3362 24.3889C23.3362 22.4333 22.8559 21.0889 21.655 20.1111C20.5742 19.1333 18.7729 18.6444 16.4913 18.6444C15.2904 18.6444 14.2096 18.8889 13.1288 19.5C12.048 19.9889 11.0873 20.7222 10.4869 21.7C9.88646 22.5556 9.5262 23.6556 9.5262 24.8778C9.5262 25.7333 9.64629 26.4667 10.0065 27.2C10.2467 27.8111 10.7271 28.4222 11.2074 28.7889C11.6878 29.1556 12.4083 29.4 13.1288 29.4C13.2489 29.4 13.4891 29.4 13.6092 29.4C13.8493 29.2778 14.0895 29.2778 14.3297 29.1556L14.9301 28.9111C15.2904 28.7889 15.5306 28.7889 15.6507 28.7889C16.2511 28.7889 16.8515 29.0333 17.3319 29.4C17.8122 29.8889 18.0524 30.5 18.0524 31.1111C18.0524 31.6 17.9323 32.3333 16.9716 33.0667C16.3712 33.4333 15.7707 33.8 14.9301 33.9222C14.2096 34.0444 13.6092 34.1667 13.0087 34.1667C11.3275 34.1667 9.76637 33.6778 8.5655 32.8222C7.36463 31.9667 6.40393 30.7444 5.80349 29.4C5.20306 28.0556 4.84279 26.5889 4.84279 25C4.84279 23.2889 5.20306 21.8222 5.92358 20.3556C6.6441 19.0111 7.48472 17.9111 8.68559 16.9333C9.76638 15.9556 11.0873 15.2222 12.5284 14.7333C13.9694 14.2444 15.4105 14 16.8515 14C19.1332 14 21.0546 14.4889 22.7358 15.3444C24.417 16.2 25.738 17.5444 26.6987 19.0111C27.6594 20.6 28.1397 22.4333 28.1397 24.5111C28.1397 24.8778 28.1397 25.2444 28.1397 25.6111C28.1397 25.9778 28.0196 26.3444 28.0196 26.8333C27.7795 28.5444 27.0589 30.1333 25.9782 31.6C25.0175 33.0667 23.8166 34.5333 22.3755 35.7556C21.0546 37.1 19.6135 38.2 18.1725 39.3C17.452 39.7889 16.8515 40.2778 16.131 40.7667C16.3712 40.8889 16.6114 40.8889 16.8515 41.0111C17.8122 41.3778 18.6528 41.6222 19.6135 41.8667C21.2948 42.2333 22.2555 42.3556 23.4563 41.8667C23.5764 41.8667 23.5764 41.8667 23.5764 41.7444C22.7358 41.0111 22.6157 40.2778 22.6157 39.6667C22.6157 39.0556 22.8559 38.4444 23.3362 38.0778C23.8166 37.7111 24.2969 37.4667 24.8974 37.4667C25.4978 37.4667 26.4585 37.7111 27.4192 38.6889C28.1397 39.4222 28.5 40.2778 28.5 41.1333C28.5 42.4778 28.1397 43.7 27.4192 44.6778C26.6987 45.5333 25.8581 46.1444 24.7773 46.5111C23.4563 46.8778 22.4956 47 21.5349 47Z" fill="#F8F9FA"/>
<path d="M42.2255 48.1C39.3397 48.1 36.9348 47.4659 35.0109 46.0707C33.087 44.8024 31.7643 43.0268 30.9226 40.8707C30.0809 38.8415 29.6 36.5586 29.6 34.1488C29.6 33.0074 29.7202 31.8659 29.8405 30.7244C30.0809 29.583 30.3214 28.5683 30.5619 27.4269C31.4036 24.6366 32.7263 22.1001 34.5299 20.0708C36.3336 17.9147 38.498 16.3928 41.1433 15.2513C44.5101 13.8562 48.1174 13.6025 51.3639 14.6171C53.2878 15.2513 54.851 16.2659 56.0534 17.661C57.2558 19.0562 58.0976 20.5781 58.5785 22.3537C59.0595 24.0025 59.3 25.9049 59.3 27.6805C59.3 29.2025 59.1797 30.7244 58.819 32.2464C58.4583 33.7683 58.0976 35.1634 57.6166 36.4317C56.7749 38.5878 55.5724 40.4903 54.0093 42.2659C52.4461 44.0415 50.6425 45.4366 48.7186 46.4512C46.6745 47.4659 44.5101 48.1 42.2255 48.1ZM47.1554 19.3098C45.7125 19.3098 44.3899 19.5635 43.0672 20.0708C41.1433 20.8318 39.4599 22.1001 38.2575 23.622C36.9348 25.144 35.9729 27.0464 35.3716 29.0757C34.8907 30.9781 34.5299 32.7537 34.5299 34.5293C34.5299 36.0512 34.7704 37.5732 35.3716 38.8415C35.8526 40.1098 36.6943 40.9976 37.7765 41.7586C38.8587 42.5195 40.4218 42.9 42.3457 42.9C44.1494 42.9 45.7125 42.5195 47.1554 41.6317C48.5984 40.7439 49.921 39.7293 51.0032 38.3342C52.0854 36.9391 52.9271 35.4171 53.6486 33.6415C53.7688 33.261 53.889 32.8805 54.0093 32.5C53.6486 32.7537 53.2878 33.0074 52.8069 33.261C50.5222 34.5293 48.2376 34.783 46.0733 34.1488C44.7506 33.7683 43.6684 33.1342 42.8267 32.3732C41.985 31.6122 41.504 30.5976 41.1433 29.7098C40.7826 28.6952 40.6623 27.8074 40.6623 26.9196C40.6623 25.9049 40.9028 25.0171 41.1433 24.2562C41.7445 22.9879 42.5862 22.7342 43.1874 22.7342C43.6684 22.7342 44.2696 22.861 44.8708 23.622C45.472 24.2562 45.7125 25.0171 45.472 25.9049C45.3518 26.2854 45.3518 26.6659 45.3518 27.0464C45.3518 28.1879 45.7125 28.5683 46.0733 28.822C47.2757 29.7098 49.0793 29.7098 50.7627 28.822C51.6044 28.4415 52.3259 27.8074 52.9271 27.0464C53.5283 26.2854 53.7688 25.3976 53.7688 24.2562C53.7688 22.9879 53.5283 22.1001 52.9271 21.4659C52.3259 20.7049 51.4842 20.1976 50.5222 19.8171C49.4401 19.4367 48.2376 19.3098 47.1554 19.3098Z" fill="#F8F9FA"/>
<path d="M78.185 47C76.6238 47 75.0627 46.7556 73.2614 46.1444C71.5802 45.5333 70.019 45.0444 68.578 44.4333C68.2177 44.3111 67.9775 44.1889 67.7374 44.0667C67.6173 44.0667 67.6173 44.0667 67.4972 43.9444C67.257 44.0667 66.8968 44.3111 66.6566 44.4333C66.1762 44.6778 65.6959 44.9222 65.0954 45.1667C64.8553 45.2889 64.3749 45.4111 63.8946 45.5333C62.8138 45.7778 61.6129 45.6556 60.5321 45.2889C60.0518 45.1667 59.5714 44.8 58.971 44.4333C58.1304 43.8222 57.65 42.9667 57.65 41.8667C57.65 41.5 57.7701 41.0111 57.8902 40.5222C58.3705 39.5444 58.971 38.8111 59.8116 38.4444C61.2526 37.7111 63.054 37.8333 64.9754 38.2C65.6959 38.3222 66.2963 38.5667 67.0168 38.6889C67.7374 38.3222 68.4579 37.7111 69.4186 37.1C70.4994 36.3667 71.7002 35.5111 72.9011 34.5333C74.102 33.5556 75.1828 32.5778 76.2636 31.6C77.2243 30.6222 78.185 29.5222 78.7854 28.5444C79.3858 27.6889 79.7461 26.7111 79.8662 25.9778C79.9863 25.3667 79.9863 24.8778 79.9863 24.3889C79.9863 22.4333 79.5059 21.0889 78.305 20.1111C77.2243 19.1333 75.4229 18.6444 73.1413 18.6444C71.9404 18.6444 70.8596 18.8889 69.7788 19.5C68.6981 19.9889 67.8574 20.7222 67.1369 21.7C66.5365 22.5556 66.1762 23.6556 66.1762 24.8778C66.1762 25.7333 66.2963 26.4667 66.6566 27.2C66.8968 27.8111 67.3771 28.4222 67.8574 28.7889C68.3378 29.1556 69.0583 29.4 69.7788 29.4C69.8989 29.4 70.1391 29.4 70.2592 29.4C70.4994 29.2778 70.7395 29.2778 70.9797 29.1556L71.5802 28.9111C71.9404 28.7889 72.1806 28.7889 72.3007 28.7889C72.9011 28.7889 73.5016 29.0333 73.9819 29.4C74.4623 29.8889 74.7024 30.5 74.7024 31.1111C74.7024 31.6 74.5823 32.3333 73.6216 33.0667C73.1413 33.4333 72.4208 33.8 71.5802 33.9222C70.8596 34.0444 70.2592 34.1667 69.6588 34.1667C67.9775 34.1667 66.4164 33.6778 65.2155 32.8222C64.0147 31.9667 63.054 30.7444 62.4535 29.4C61.8531 28.0556 61.4928 26.5889 61.4928 25C61.4928 23.2889 61.8531 21.8222 62.5736 20.3556C63.2941 19.0111 64.1347 17.9111 65.3356 16.9333C66.4164 15.9556 67.7374 15.2222 69.1784 14.7333C70.6195 14.2444 72.0605 14 73.5016 14C75.7832 14 77.7046 14.4889 79.3858 15.3444C81.0671 16.2 82.388 17.5444 83.3487 19.1333C84.3094 20.7222 84.7898 22.5556 84.7898 24.6333C84.7898 25 84.7898 25.3667 84.7898 25.7333C84.7898 26.1 84.6697 26.4667 84.6697 26.9556C84.4295 28.6667 83.709 30.2556 82.6282 31.7222C81.6675 33.1889 80.4666 34.6556 79.0256 35.8778C77.7046 37.2222 76.2636 38.3222 74.8225 39.4222C74.102 39.9111 73.5016 40.4 72.781 40.8889C73.0212 41.0111 73.2614 41.0111 73.5016 41.1333C74.4623 41.5 75.3029 41.7444 76.2636 41.9889C77.9448 42.3556 78.9055 42.4778 80.1064 41.9889C80.2264 41.9889 80.2264 41.9889 80.2264 41.8667C79.3858 41.1333 79.2657 40.4 79.2657 39.9111C79.2657 39.3 79.5059 38.6889 79.9863 38.3222C80.4666 37.9556 80.947 37.7111 81.5474 37.7111C82.1478 37.7111 83.1085 37.9556 84.0692 38.9333C84.7898 39.6667 85.15 40.5222 85.15 41.3778C85.15 42.7222 84.7898 43.9444 84.0692 44.9222C83.3487 45.7778 82.5081 46.3889 81.4273 46.7556C79.9863 46.8778 79.0256 47 78.185 47Z" fill="#F8F9FA"/>
<path d="M96.3136 48.1C94.956 48.1 93.7219 47.8569 92.4878 47.3707C91.2536 46.8846 90.1429 46.2769 89.1556 45.4261C88.1682 44.5753 87.3043 43.6029 86.6873 42.509C86.0702 41.4152 85.7 40.0782 85.7 38.8628C85.7 38.1335 85.8234 37.4042 86.0702 36.675C86.317 35.9457 86.6873 35.2165 87.1809 34.4872C87.798 33.5149 88.6619 32.9072 89.6492 32.421C91.6238 31.5702 93.8453 31.6917 95.8199 32.5425C96.9307 33.0287 97.7946 33.758 98.4117 34.6088C99.1521 35.5811 99.5224 36.675 99.5224 37.8904C99.5224 38.7412 99.2756 39.3489 98.9053 39.7136C98.4117 40.1997 97.918 40.4428 97.1775 40.4428C96.8073 40.4428 96.1902 40.3213 95.4497 39.7136C94.956 39.2274 94.5858 38.6197 94.5858 37.8904C94.5858 37.5258 94.4624 37.2827 94.0921 37.0396C93.5985 36.7965 93.2282 36.5534 92.858 36.5534C91.9941 36.5534 91.377 36.7965 91.0068 37.1612C90.6365 37.5258 90.3897 38.012 90.3897 38.6197C90.3897 39.2274 90.6365 39.9566 91.0068 40.6859C91.5004 41.4152 92.1175 42.1444 92.9814 42.6306C94.5858 43.6029 97.3009 43.6029 99.8926 42.8737C101.127 42.6306 102.114 42.1444 103.101 41.4152C104.089 40.8074 104.829 40.0782 105.323 39.1058C105.817 38.255 106.187 37.1612 106.187 35.9457C106.187 33.6364 105.446 31.9348 103.718 30.9625C102.855 31.3271 101.991 31.6917 101.003 31.8133C99.8926 32.0564 98.7819 32.1779 97.6712 32.1779C97.1775 32.1779 96.5604 32.1779 95.9434 32.0564C95.2029 31.9348 94.4624 31.6917 93.8453 31.2056C93.2282 30.8409 92.6112 30.1117 92.6112 28.7747C92.6112 27.8024 92.9814 27.0731 93.7219 26.587C94.339 26.2223 94.956 25.8577 95.6965 25.7362C96.3136 25.6146 97.0541 25.4931 97.7946 25.3715C98.5351 25.25 99.0287 25.25 99.5224 25.25C100.757 25.25 101.991 25.3715 103.101 25.7362C103.595 25.25 103.965 24.8854 104.212 24.3992C104.459 23.913 104.706 23.3053 104.706 22.576C104.706 22.4545 104.706 22.333 104.706 22.0899C104.706 21.9683 104.706 21.7252 104.706 21.6037C104.582 20.7529 104.212 20.1452 103.472 19.659C101.991 18.6867 100.386 18.6867 98.2882 19.0513C97.6712 19.1729 97.1775 19.4159 96.9307 19.7806C97.1775 19.9021 97.3009 19.9021 97.5478 20.0237C98.6585 20.3883 99.2756 21.1175 99.2756 22.2114C99.2756 22.8191 99.0287 24.7638 95.9434 24.7638C95.0795 24.7638 94.2156 24.5207 93.4751 23.913C92.858 23.4268 92.3643 22.9407 92.1175 22.2114C91.8707 21.6037 91.7473 20.996 91.7473 20.3883C91.7473 20.2667 91.7473 20.0237 91.7473 19.7806C91.7473 19.5375 91.7473 19.2944 91.8707 19.1729C92.2409 17.7143 92.858 16.4989 93.8453 15.7697C94.8326 15.0404 95.8199 14.5542 97.0541 14.3111C99.6458 13.825 102.114 13.825 104.336 14.9189C105.57 15.5266 106.804 16.3774 107.668 17.3497C108.655 18.4436 109.149 19.7806 109.396 21.2391C109.396 21.4822 109.396 21.7252 109.396 21.9683V22.576C109.396 24.6423 108.778 26.4654 107.421 28.0455C108.408 28.8963 109.149 29.9901 109.766 31.084C110.506 32.6641 111 34.2441 111 35.9457C111 37.6473 110.506 39.3489 109.642 41.0505C108.778 42.7521 107.298 44.2106 105.446 45.4261C104.089 46.3984 102.484 47.0061 100.757 47.3707C99.6458 47.8569 97.918 48.1 96.3136 48.1Z" fill="#F8F9FA"/>
</g>
<defs>
<clipPath id="clip0_472_47785">
<rect width="120" height="48" fill="white"/>
</clipPath>
</defs>
</svg>
