<svg width="36" height="30" viewBox="0 0 36 30" fill="none" xmlns="http://www.w3.org/2000/svg">
<path d="M21.8464 2.77414C20.0261 3.79767 19.4315 5.95268 19.2214 6.79507L27.7402 7.38925L28.841 8.90836C28.9611 9.51892 28.8964 10.3193 29.2631 11.7959C29.6297 13.2725 31.7595 14.1086 32.5803 13.9472L33.2147 12.1535C32.962 12.0475 32.2811 12.321 31.6139 11.4003C31.1058 10.6992 31.6018 9.1998 31.7631 7.96648C31.9244 6.73317 31.8612 3.72081 29.1569 2.67136C26.5883 1.6746 24.22 1.43949 21.8464 2.77414Z" fill="#751C15"/>
<ellipse cx="1.98247" cy="2.07302" rx="1.98247" ry="2.07302" transform="matrix(0.989862 0.142035 -0.129675 0.991557 31.8234 11.3257)" fill="#F8F9FA"/>
<path d="M21.549 7.1522C21.4154 8.17391 20.5163 8.88871 19.5409 8.74874C18.5655 8.60878 17.8831 7.66706 18.0167 6.64536C18.1503 5.62365 19.0494 4.90885 20.0248 5.04881C21.0002 5.18877 21.6826 6.13049 21.549 7.1522Z" fill="#F8F9FA"/>
<path d="M23.9845 6.87344C23.8508 7.89515 22.9518 8.60994 21.9764 8.46998C21.001 8.33002 20.3186 7.3883 20.4522 6.3666C20.5858 5.34489 21.4849 4.63009 22.4603 4.77005C23.4357 4.91001 24.1181 5.85173 23.9845 6.87344Z" fill="#F8F9FA"/>
<path d="M31.3339 8.76565C31.2003 9.78736 30.3013 10.5022 29.3259 10.3622C28.3505 10.2222 27.6681 9.28051 27.8017 8.2588C27.9353 7.23709 28.8343 6.5223 29.8098 6.66226C30.7852 6.80222 31.4676 7.74394 31.3339 8.76565Z" fill="#F8F9FA"/>
<path d="M26.7855 6.85654C26.6371 7.99178 25.6381 8.786 24.5544 8.63049C23.4706 8.47497 22.7123 7.42862 22.8608 6.29339C23.0093 5.15815 24.0082 4.36393 25.092 4.51945C26.1758 4.67496 26.934 5.72131 26.7855 6.85654Z" fill="#F8F9FA"/>
<path d="M29.3097 7.42815C29.1613 8.56338 28.1623 9.3576 27.0786 9.20209C25.9948 9.04658 25.2365 8.00022 25.385 6.86499C25.5335 5.72976 26.5324 4.93554 27.6162 5.09105C28.7 5.24656 29.4582 6.29292 29.3097 7.42815Z" fill="#F8F9FA"/>
<path d="M11.4542 27C10.6594 27 9.86463 26.8667 8.9476 26.5333C8.0917 26.2 7.29694 25.9333 6.56332 25.6C6.37991 25.5333 6.25764 25.4667 6.13537 25.4C6.07423 25.4 6.07424 25.4 6.0131 25.3333C5.89083 25.4 5.70742 25.5333 5.58515 25.6C5.34061 25.7333 5.09607 25.8667 4.79039 26C4.66812 26.0667 4.42358 26.1333 4.17904 26.2C3.62882 26.3333 3.01747 26.2667 2.46725 26.0667C2.22271 26 1.97817 25.8 1.67249 25.6C1.24454 25.2667 1 24.8 1 24.2C1 24 1.06114 23.7333 1.12227 23.4667C1.36681 22.9333 1.67249 22.5333 2.10044 22.3333C2.83406 21.9333 3.75109 22 4.72926 22.2C5.09607 22.2667 5.40175 22.4 5.76856 22.4667C6.13537 22.2667 6.50218 21.9333 6.99127 21.6C7.54148 21.2 8.15284 20.7333 8.76419 20.2C9.37555 19.6667 9.92576 19.1333 10.476 18.6C10.9651 18.0667 11.4542 17.4667 11.7598 16.9333C12.0655 16.4667 12.2489 15.9333 12.31 15.5333C12.3712 15.2 12.3712 14.9333 12.3712 14.6667C12.3712 13.6 12.1266 12.8667 11.5153 12.3333C10.9651 11.8 10.048 11.5333 8.88646 11.5333C8.27511 11.5333 7.72489 11.6667 7.17467 12C6.62445 12.2667 6.19651 12.6667 5.82969 13.2C5.52402 13.6667 5.34061 14.2667 5.34061 14.9333C5.34061 15.4 5.40175 15.8 5.58515 16.2C5.70742 16.5333 5.95197 16.8667 6.19651 17.0667C6.44105 17.2667 6.80786 17.4 7.17467 17.4C7.23581 17.4 7.35808 17.4 7.41921 17.4C7.54149 17.3333 7.66375 17.3333 7.78603 17.2667L8.0917 17.1333C8.27511 17.0667 8.39738 17.0667 8.45852 17.0667C8.76419 17.0667 9.06987 17.2 9.31441 17.4C9.55895 17.6667 9.68122 18 9.68122 18.3333C9.68122 18.6 9.62009 19 9.131 19.4C8.88646 19.6 8.51965 19.8 8.0917 19.8667C7.72489 19.9333 7.41921 20 7.11354 20C6.25764 20 5.46288 19.7333 4.85153 19.2667C4.24017 18.8 3.75109 18.1333 3.44542 17.4C3.13974 16.6667 2.95633 15.8667 2.95633 15C2.95633 14.0667 3.13974 13.2667 3.50655 12.4667C3.87336 11.7333 4.30131 11.1333 4.91266 10.6C5.46288 10.0667 6.13537 9.66667 6.869 9.4C7.60262 9.13333 8.33625 9 9.06987 9C10.2314 9 11.2096 9.26667 12.0655 9.73333C12.9214 10.2 13.5939 10.9333 14.083 11.8C14.5721 12.6667 14.8166 13.6667 14.8166 14.8C14.8166 15 14.8166 15.2 14.8166 15.4C14.8166 15.6 14.7555 15.8 14.7555 16.0667C14.6332 17 14.2664 17.8667 13.7162 18.6667C13.2271 19.4667 12.6157 20.2667 11.8821 20.9333C11.2096 21.6667 10.476 22.2667 9.74236 22.8667C9.37555 23.1333 9.06987 23.4 8.70306 23.6667C8.82533 23.7333 8.9476 23.7333 9.06987 23.8C9.55895 24 9.9869 24.1333 10.476 24.2667C11.3319 24.4667 11.821 24.5333 12.4323 24.2667C12.4935 24.2667 12.4935 24.2667 12.4935 24.2C12.0655 23.8 12.0044 23.4 12.0044 23.1333C12.0044 22.8 12.1266 22.4667 12.3712 22.2667C12.6157 22.0667 12.8603 21.9333 13.1659 21.9333C13.4716 21.9333 13.9607 22.0667 14.4498 22.6C14.8166 23 15 23.4667 15 23.9333C15 24.6667 14.8166 25.3333 14.4498 25.8667C14.083 26.3333 13.655 26.6667 13.1048 26.8667C12.3712 26.9333 11.8821 27 11.4542 27Z" fill="#F8F9FA"/>
<path d="M21.3732 27C20.622 27 19.939 26.8717 19.2561 26.6151C18.5732 26.3584 17.9585 26.0376 17.4122 25.5885C16.8659 25.1394 16.3878 24.6262 16.0463 24.0488C15.7049 23.4713 15.5 22.7656 15.5 22.124C15.5 21.7391 15.5683 21.3541 15.7049 20.9692C15.8415 20.5843 16.0463 20.1993 16.3195 19.8144C16.661 19.3011 17.139 18.9803 17.6854 18.7237C18.778 18.2746 20.0073 18.3388 21.1 18.7879C21.7146 19.0445 22.1927 19.4294 22.5341 19.8785C22.9439 20.3918 23.1488 20.9692 23.1488 21.6108C23.1488 22.0599 23.0122 22.3807 22.8073 22.5731C22.5341 22.8298 22.261 22.9581 21.8512 22.9581C21.6463 22.9581 21.3049 22.8939 20.8951 22.5731C20.6219 22.3165 20.4171 21.9957 20.4171 21.6108C20.4171 21.4183 20.3488 21.29 20.1439 21.1617C19.8707 21.0334 19.6659 20.905 19.461 20.905C18.9829 20.905 18.6415 21.0334 18.4366 21.2258C18.2317 21.4183 18.0951 21.6749 18.0951 21.9957C18.0951 22.3165 18.2317 22.7015 18.4366 23.0864C18.7098 23.4713 19.0512 23.8563 19.5293 24.1129C20.4171 24.6262 21.9195 24.6262 23.3537 24.2412C24.0366 24.1129 24.5829 23.8563 25.1293 23.4713C25.6756 23.1506 26.0854 22.7656 26.3585 22.2524C26.6317 21.8033 26.8366 21.2258 26.8366 20.5843C26.8366 19.3653 26.4268 18.4671 25.4707 17.9538C24.9927 18.1463 24.5146 18.3388 23.9683 18.4029C23.3537 18.5312 22.739 18.5954 22.1244 18.5954C21.8512 18.5954 21.5098 18.5954 21.1683 18.5312C20.7585 18.4671 20.3488 18.3388 20.0073 18.0821C19.6659 17.8896 19.3244 17.5047 19.3244 16.799C19.3244 16.2857 19.5293 15.9008 19.939 15.6441C20.2805 15.4517 20.622 15.2592 21.0317 15.195C21.3732 15.1309 21.7829 15.0667 22.1927 15.0026C22.6024 14.9384 22.8756 14.9384 23.1488 14.9384C23.8317 14.9384 24.5146 15.0026 25.1293 15.195C25.4024 14.9384 25.6073 14.7459 25.7439 14.4893C25.8805 14.2327 26.0171 13.9119 26.0171 13.5269C26.0171 13.4628 26.0171 13.3986 26.0171 13.2703C26.0171 13.2062 26.0171 13.0778 26.0171 13.0137C25.9488 12.5646 25.7439 12.2438 25.3341 11.9872C24.5146 11.4739 23.6268 11.4739 22.4659 11.6664C22.1244 11.7305 21.8512 11.8589 21.7146 12.0513C21.8512 12.1155 21.9195 12.1155 22.0561 12.1796C22.6707 12.3721 23.0122 12.7571 23.0122 13.3345C23.0122 13.6553 22.8756 14.6818 21.1683 14.6818C20.6902 14.6818 20.2122 14.5535 19.8024 14.2327C19.461 13.976 19.1878 13.7194 19.0512 13.3345C18.9146 13.0137 18.8463 12.6929 18.8463 12.3721C18.8463 12.308 18.8463 12.1796 18.8463 12.0513C18.8463 11.923 18.8463 11.7947 18.9146 11.7305C19.1195 10.9607 19.461 10.3191 20.0073 9.93413C20.5537 9.54919 21.1 9.29256 21.7829 9.16424C23.2171 8.90761 24.5829 8.90761 25.8122 9.48503C26.4951 9.80582 27.178 10.2549 27.6561 10.7682C28.2024 11.3456 28.4756 12.0513 28.6122 12.8212C28.6122 12.9495 28.6122 13.0778 28.6122 13.2062V13.5269C28.6122 14.6176 28.2707 15.58 27.5195 16.414C28.0659 16.8631 28.4756 17.4405 28.8171 18.018C29.2268 18.852 29.5 19.6861 29.5 20.5843C29.5 21.4825 29.2268 22.3807 28.7488 23.2789C28.2707 24.1771 27.4512 24.947 26.4268 25.5885C25.6756 26.1018 24.7878 26.4226 23.8317 26.6151C23.2171 26.8717 22.261 27 21.3732 27Z" fill="#F8F9FA"/>
</svg>
