<svg width="930" height="80" viewBox="0 0 930 80" fill="none" xmlns="http://www.w3.org/2000/svg">
<path d="M122.192 9.16941C104.681 9.57395 54.0961 -1.95541 21.8722 1.07858C-10.3518 4.11257 10.8058 25.1251 3.63211 41.5326C-3.66396 58.22 -0.730275 81.0292 19.4399 79.964C57.7435 77.9413 59.5675 47.0951 89.3595 46.5894C119.151 46.0837 151.376 59.2313 182.384 56.7029C213.391 54.1745 249.871 41.5326 275.407 41.027C300.943 40.5213 342.895 63.7824 376.943 61.7597C410.991 59.737 434.151 35.5076 462.063 36.9815C500.366 39.0042 521.038 57.2086 544.142 59.2313C567.246 61.254 604.553 42.3383 638.382 50.6348C685.806 62.2654 710.126 38.4986 743.566 36.4759C777.006 34.4532 776.398 55.1859 801.326 57.2086C826.254 59.2313 826.862 34.959 863.342 35.4646C899.821 35.9703 902.861 63.2772 919.885 58.7256C934.356 54.8568 938.125 -6.53966 897.997 0.572834C860.909 7.1465 800.11 3.10121 764.846 3.10121C729.582 3.10121 680.334 8.15798 652.974 7.65231C625.614 7.14663 519.215 0.572876 490.639 0.0671993C462.063 -0.438477 370.863 4.61829 352.623 4.11261C334.383 3.60694 325.263 9.16938 298.511 9.67506C271.759 10.1807 221.295 1.58425 196.368 1.07858C171.44 0.572902 144.08 8.66373 122.192 9.16941Z" fill="#F8F9FA"/>
</svg>
