<svg width="351" height="81" viewBox="0 0 351 81" fill="none" xmlns="http://www.w3.org/2000/svg">
<path d="M39.3552 4.97347C32.774 5.36475 19.74 -0.895571 7.62878 2.03893C-4.48241 4.97343 4.60114 12.6916 1.90493 28.5611C-0.837257 44.7012 0.088273 56.7828 7.62878 58.0609C23.3764 60.7302 20.7324 45.5348 31.3658 42.102C43.3498 38.2332 48.4027 45.4873 60.3273 45.4873C73.6706 45.4873 83.1491 42.5857 100.773 42.5857C115.126 42.5857 128.283 62.6866 141.08 60.7302C153.877 58.7738 161.688 48.5445 172.179 49.9701C186.575 51.9265 191.226 57.7956 200.141 57.7956C213.124 57.7956 220.882 41.9457 233.597 49.9701C251.421 61.2193 268.004 29.8585 278.873 36.2755C292.019 44.0365 321.48 36.2755 321.48 36.2755C335.191 36.7646 341.047 49.8896 347.446 45.4872C352.884 41.7453 351.997 -5.32949 336.916 1.54977C322.976 7.90787 300.125 3.99524 286.871 3.99524C273.618 3.99524 255.108 8.88619 244.825 8.39709C234.542 7.908 194.552 1.54981 183.812 1.06071C173.072 0.571619 138.795 5.46257 131.94 4.97347C125.084 4.48438 112.973 4.48438 102.918 4.97347C92.8639 5.46257 82.5809 2.52802 73.2119 2.03893C63.8429 1.54983 47.5816 4.48438 39.3552 4.97347Z" fill="#F8F9FA"/>
</svg>
