<svg width="1600" height="80" viewBox="0 0 1600 80" fill="none" xmlns="http://www.w3.org/2000/svg">
<path d="M40 1.76606e-06H120L160 80H80L40 1.76606e-06Z" fill="#D99936"/>
<path d="M200 0L280 2.35475e-06L320 80H240L200 0Z" fill="#D99936"/>
<path d="M360 0L440 2.35475e-06L480 80H400L360 0Z" fill="#D99936"/>
<path d="M520 0L600 2.35475e-06L640 80H560L520 0Z" fill="#D99936"/>
<path d="M680 0L760 2.35475e-06L800 80H720L680 0Z" fill="#D99936"/>
<path d="M840 0L920 2.35475e-06L960 80H880L840 0Z" fill="#D99936"/>
<path d="M1000 0L1080 2.35475e-06L1120 80H1040L1000 0Z" fill="#D99936"/>
<path d="M1160 0L1240 2.35475e-06L1280 80H1200L1160 0Z" fill="#D99936"/>
<path d="M1320 0L1400 2.35475e-06L1440 80H1360L1320 0Z" fill="#D99936"/>
<path d="M1480 0L1560 2.35475e-06L1600 80H1520L1480 0Z" fill="#D99936"/>
<path d="M0 1.76097e-06L40 1.76606e-06L80 80H1.13062e-05L0 1.76097e-06Z" fill="#333333"/>
<path d="M120 1.76606e-06L200 0L240 80H160L120 1.76606e-06Z" fill="#333333"/>
<path d="M280 2.35475e-06L360 0L400 80H320L280 2.35475e-06Z" fill="#333333"/>
<path d="M440 2.35475e-06L520 0L560 80H480L440 2.35475e-06Z" fill="#333333"/>
<path d="M600 2.35475e-06L680 0L720 80H640L600 2.35475e-06Z" fill="#333333"/>
<path d="M760 2.35475e-06L840 0L880 80H800L760 2.35475e-06Z" fill="#333333"/>
<path d="M920 2.35475e-06L1000 0L1040 80H960L920 2.35475e-06Z" fill="#333333"/>
<path d="M1080 2.35475e-06L1160 0L1200 80H1120L1080 2.35475e-06Z" fill="#333333"/>
<path d="M1240 2.35475e-06L1320 0L1360 80H1280L1240 2.35475e-06Z" fill="#333333"/>
<path d="M1400 2.35475e-06L1480 0L1520 80H1440L1400 2.35475e-06Z" fill="#333333"/>
<path d="M1600 0H1559.99L1600 80V0Z" fill="#333333"/>
</svg>
