<svg xmlns="http://www.w3.org/2000/svg" fill="none" viewBox="0 0 100 40">
<mask id="a" width="90" height="27" x="1" y="12" fill="#000" maskUnits="userSpaceOnUse">
<path fill="#fff" d="M1 12h90v27H1z"/>
<path d="M18.12 37.07c-1.15 0-2.42-.22-3.81-.66a121.86 121.86 0 0 1-5.15-1.79H9.1l-1.12.62a8.75 8.75 0 0 1-1.9.8 5.06 5.06 0 0 1-2.34-.17 5.7 5.7 0 0 1-1.08-.6c-.43-.3-.65-.7-.65-1.24 0-.2.06-.46.18-.75.24-.53.61-.9 1.12-1.1.5-.24 1.05-.35 1.65-.35.63 0 1.29.08 1.98.24.72.16 1.38.33 1.98.52h.07c.67-.37 1.47-.85 2.38-1.45.93-.62 1.9-1.3 2.91-2.04a35.2 35.2 0 0 0 2.85-2.38c.88-.82 1.63-1.66 2.23-2.51a5.3 5.3 0 0 0 1.08-2.45c.07-.48.1-.94.1-1.38 0-1.77-.57-3.12-1.72-4.04-1.13-.94-2.79-1.4-4.97-1.4a7.8 7.8 0 0 0-3.27.72 6.75 6.75 0 0 0-2.6 2.03 4.7 4.7 0 0 0-1 3c0 .78.14 1.52.43 2.2.31.67.77 1.22 1.37 1.66a3.77 3.77 0 0 0 2.84.55l.65-.2.21-.07.22-.07c.2-.05.32-.07.4-.07.26 0 .49.1.68.28.22.16.32.35.32.58 0 .28-.15.52-.46.73-.36.25-.8.43-1.3.55-.5.09-.96.14-1.37.14a5.54 5.54 0 0 1-5.18-3.25 7.02 7.02 0 0 1 .07-6.17 7.67 7.67 0 0 1 2.02-2.41 9.5 9.5 0 0 1 2.88-1.52 9.78 9.78 0 0 1 3.24-.55c1.72 0 3.21.3 4.46.93a7.05 7.05 0 0 1 2.95 2.59 6.91 6.91 0 0 1 1.04 3.82 9.16 9.16 0 0 1-.14 1.66 8.48 8.48 0 0 1-1.51 3.38 19.8 19.8 0 0 1-2.85 3.14 33.4 33.4 0 0 1-3.41 2.69c-1.18.8-2.26 1.5-3.24 2.1l.36.17a30.47 30.47 0 0 0 4.4 1.38c.8.18 1.5.28 2.07.28.58 0 1.16-.1 1.73-.31.58-.23.87-.65.87-1.24 0-.12-.14-.26-.4-.42-.36-.25-.54-.55-.54-.9 0-.23.08-.42.25-.58.2-.16.42-.24.69-.24.48 0 .9.2 1.3.62.4.41.6.85.6 1.3a3 3 0 0 1-.72 2.11 3.7 3.7 0 0 1-1.72 1.17c-.7.23-1.38.35-2.06.35ZM5.02 34.4c.46 0 .9-.04 1.34-.13.45-.12.75-.22.9-.31l.03-.1c-.14-.2-.48-.34-1-.46-.51-.13-1-.2-1.48-.2-.34 0-.63.04-.87.13-.24.1-.36.23-.36.42 0 .23.15.4.44.52.28.09.62.13 1 .13Zm29.88 2.32c-2.2 0-4-.44-5.39-1.34a7.85 7.85 0 0 1-3.06-3.45 11.35 11.35 0 0 1-.97-4.69c0-.78.07-1.57.21-2.38a13.92 13.92 0 0 1 3.67-7.59A13.53 13.53 0 0 1 39.2 13a12 12 0 0 1 3.13.41 7.44 7.44 0 0 1 3.46 2c.86.9 1.49 1.96 1.87 3.18.38 1.2.58 2.44.58 3.75a15.06 15.06 0 0 1-1.34 6.25 13.82 13.82 0 0 1-6.95 7.03c-1.55.74-3.23 1.1-5.03 1.1Zm.12-1.93a9.6 9.6 0 0 0 4.46-1.03 11.7 11.7 0 0 0 3.53-2.73 13.1 13.1 0 0 0 2.34-3.79c.55-1.38.84-2.76.86-4.14a7.84 7.84 0 0 1-2.92 2.66 6.8 6.8 0 0 1-4.93.62 5.3 5.3 0 0 1-2.26-1.14 4.48 4.48 0 0 1-1.2-1.69 4.89 4.89 0 0 1-.35-1.76c0-.6.1-1.11.32-1.55.24-.44.52-.65.83-.65.22 0 .43.11.65.34.26.25.36.55.29.9-.1.34-.15.7-.15 1.07 0 .96.33 1.67.97 2.13a4.2 4.2 0 0 0 2.34.66c.87 0 1.73-.18 2.6-.55a5.7 5.7 0 0 0 2.15-1.7c.6-.73.9-1.61.9-2.65 0-1.15-.3-2.07-.93-2.76a5.33 5.33 0 0 0-2.41-1.55 10.47 10.47 0 0 0-6.84.17 11.58 11.58 0 0 0-4.43 2.94 12.06 12.06 0 0 0-2.59 4.51 14.5 14.5 0 0 0-.72 4.38c0 1.31.24 2.53.72 3.66.5 1.1 1.3 1.99 2.41 2.65 1.1.67 2.56 1 4.36 1Zm30.1 2.28c-1.15 0-2.43-.22-3.82-.66a121.86 121.86 0 0 1-5.14-1.79h-.08l-1.11.62a8.75 8.75 0 0 1-1.91.8 5.06 5.06 0 0 1-2.34-.17c-.26-.1-.62-.3-1.08-.6-.43-.3-.65-.7-.65-1.24 0-.2.06-.46.18-.75.24-.53.62-.9 1.12-1.1.5-.24 1.05-.35 1.65-.35.63 0 1.29.08 1.98.24.72.16 1.38.33 1.98.52h.08a36 36 0 0 0 2.37-1.45c.94-.62 1.9-1.3 2.92-2.04 1-.76 1.95-1.55 2.84-2.38a15.9 15.9 0 0 0 2.23-2.51 5.3 5.3 0 0 0 1.08-2.45c.07-.48.1-.94.1-1.38 0-1.77-.57-3.12-1.72-4.04-1.13-.94-2.78-1.4-4.97-1.4a7.8 7.8 0 0 0-3.27.72 6.75 6.75 0 0 0-2.6 2.03 4.7 4.7 0 0 0-1 3c0 .78.14 1.52.43 2.2.31.67.77 1.22 1.37 1.66a3.77 3.77 0 0 0 2.84.55l.65-.2.22-.07.21-.07c.2-.05.33-.07.4-.07.26 0 .5.1.68.28.22.16.33.35.33.58 0 .28-.16.52-.47.73-.36.25-.8.43-1.3.55-.5.09-.96.14-1.36.14a5.54 5.54 0 0 1-5.19-3.25 7.02 7.02 0 0 1 .07-6.17 7.66 7.66 0 0 1 2.02-2.41 9.5 9.5 0 0 1 2.88-1.52 9.78 9.78 0 0 1 3.24-.55c1.73 0 3.21.3 4.46.93a7.05 7.05 0 0 1 2.95 2.59 6.91 6.91 0 0 1 1.05 3.82 9.16 9.16 0 0 1-.15 1.66 8.48 8.48 0 0 1-1.5 3.38 20.3 20.3 0 0 1-2.85 3.14 35.7 35.7 0 0 1-3.42 2.69c-1.18.8-2.26 1.5-3.24 2.1l.36.17a30.48 30.48 0 0 0 4.4 1.38c.8.18 1.5.28 2.08.28.57 0 1.15-.1 1.73-.31.57-.23.86-.65.86-1.24 0-.12-.13-.26-.4-.42-.36-.25-.54-.55-.54-.9 0-.23.09-.42.26-.58.19-.16.42-.24.68-.24.48 0 .91.2 1.3.62.4.41.6.85.6 1.3a3 3 0 0 1-.71 2.11 3.7 3.7 0 0 1-1.73 1.17c-.7.23-1.38.35-2.05.35Zm-13.1-2.66c.45 0 .9-.04 1.33-.13.45-.12.75-.22.9-.31l.03-.1c-.14-.2-.48-.34-1-.46-.5-.13-1-.2-1.48-.2-.34 0-.62.04-.86.13-.24.1-.36.23-.36.42 0 .23.14.4.43.52.29.09.62.13 1 .13ZM78.77 38c-.94 0-1.86-.17-2.77-.52a9.2 9.2 0 0 1-2.45-1.41 7.15 7.15 0 0 1-1.76-2.04 5 5 0 0 1-.43-3.86 6 6 0 0 1 .75-1.45c.41-.57.93-.98 1.55-1.24a5.4 5.4 0 0 1 5.97 1.42c.46.55.69 1.2.69 1.96 0 .4-.09.68-.25.86a.73.73 0 0 1-.58.25c-.24 0-.48-.1-.72-.28-.22-.2-.34-.47-.36-.8-.02-.6-.3-1.05-.83-1.37a2.78 2.78 0 0 0-1.5-.52c-1.02 0-1.76.25-2.24.76a2.5 2.5 0 0 0-.72 1.8c0 .68.23 1.4.68 2.13a5.31 5.31 0 0 0 1.98 1.83c.87.5 1.92.76 3.17.76 1.06 0 2.11-.14 3.17-.42a9.77 9.77 0 0 0 2.95-1.2 6.81 6.81 0 0 0 2.12-2.14c.55-.85.83-1.86.83-3.04 0-2.39-.97-4.07-2.91-5.03h-.08c-.74.39-1.53.66-2.37.83-.84.13-1.68.2-2.52.2-.34 0-.76-.03-1.26-.1-.48-.1-.91-.27-1.3-.52-.38-.25-.57-.64-.57-1.17 0-.41.16-.74.5-.97.36-.25.8-.43 1.3-.55a11.5 11.5 0 0 1 2.84-.3c1.08 0 2.1.15 3.06.47h.07a6.36 6.36 0 0 0 1.55-1.58 3.57 3.57 0 0 0 .47-2.31c0-.14-.02-.29-.04-.45a3.05 3.05 0 0 0-1.51-2.24 5.04 5.04 0 0 0-2.74-.8c-.67 0-1.4.09-2.2.25-.76.13-1.35.48-1.76 1.03-.19.25-.28.48-.28.7 0 .27.14.46.43.58l.86.27c.48.14.72.42.72.83 0 .71-.55 1.07-1.65 1.07-.48 0-.94-.15-1.37-.45a1.91 1.91 0 0 1-.72-.9 3.37 3.37 0 0 1-.22-1.13v-.38l.08-.38a3.4 3.4 0 0 1 1.25-2.1c.65-.49 1.4-.81 2.24-.97.86-.18 1.69-.28 2.48-.28.96 0 1.9.21 2.8.62.94.42 1.73 1 2.38 1.73A4.31 4.31 0 0 1 88.67 18l.03.45v.45c0 1.65-.66 3.1-1.98 4.34v.1a7.12 7.12 0 0 1 2.42 2.7 7.22 7.22 0 0 1-.11 7.03A8.3 8.3 0 0 1 86 36.14a10.75 10.75 0 0 1-3.49 1.41c-1.24.3-2.5.45-3.74.45Zm1.55-13.59c.62 0 1.3-.09 2.01-.27.72-.2 1.18-.43 1.37-.66l-.03-.1a3.12 3.12 0 0 0-1.08-.31 9.42 9.42 0 0 0-1.62-.14 5.8 5.8 0 0 0-1.44.17c-.41.12-.62.34-.62.66 0 .23.14.4.4.52.26.09.6.13 1 .13Z"/>
</mask>
<path fill="#fff" d="M18.12 37.07c-1.15 0-2.42-.22-3.81-.66a121.86 121.86 0 0 1-5.15-1.79H9.1l-1.12.62a8.75 8.75 0 0 1-1.9.8 5.06 5.06 0 0 1-2.34-.17 5.7 5.7 0 0 1-1.08-.6c-.43-.3-.65-.7-.65-1.24 0-.2.06-.46.18-.75.24-.53.61-.9 1.12-1.1.5-.24 1.05-.35 1.65-.35.63 0 1.29.08 1.98.24.72.16 1.38.33 1.98.52h.07c.67-.37 1.47-.85 2.38-1.45.93-.62 1.9-1.3 2.91-2.04a35.2 35.2 0 0 0 2.85-2.38c.88-.82 1.63-1.66 2.23-2.51a5.3 5.3 0 0 0 1.08-2.45c.07-.48.1-.94.1-1.38 0-1.77-.57-3.12-1.72-4.04-1.13-.94-2.79-1.4-4.97-1.4a7.8 7.8 0 0 0-3.27.72 6.75 6.75 0 0 0-2.6 2.03 4.7 4.7 0 0 0-1 3c0 .78.14 1.52.43 2.2.31.67.77 1.22 1.37 1.66a3.77 3.77 0 0 0 2.84.55l.65-.2.21-.07.22-.07c.2-.05.32-.07.4-.07.26 0 .49.1.68.28.22.16.32.35.32.58 0 .28-.15.52-.46.73-.36.25-.8.43-1.3.55-.5.09-.96.14-1.37.14a5.54 5.54 0 0 1-5.18-3.25 7.02 7.02 0 0 1 .07-6.17 7.67 7.67 0 0 1 2.02-2.41 9.5 9.5 0 0 1 2.88-1.52 9.78 9.78 0 0 1 3.24-.55c1.72 0 3.21.3 4.46.93a7.05 7.05 0 0 1 2.95 2.59 6.91 6.91 0 0 1 1.04 3.82 9.16 9.16 0 0 1-.14 1.66 8.48 8.48 0 0 1-1.51 3.38 19.8 19.8 0 0 1-2.85 3.14 33.4 33.4 0 0 1-3.41 2.69c-1.18.8-2.26 1.5-3.24 2.1l.36.17a30.47 30.47 0 0 0 4.4 1.38c.8.18 1.5.28 2.07.28.58 0 1.16-.1 1.73-.31.58-.23.87-.65.87-1.24 0-.12-.14-.26-.4-.42-.36-.25-.54-.55-.54-.9 0-.23.08-.42.25-.58.2-.16.42-.24.69-.24.48 0 .9.2 1.3.62.4.41.6.85.6 1.3a3 3 0 0 1-.72 2.11 3.7 3.7 0 0 1-1.72 1.17c-.7.23-1.38.35-2.06.35ZM5.02 34.4c.46 0 .9-.04 1.34-.13.45-.12.75-.22.9-.31l.03-.1c-.14-.2-.48-.34-1-.46-.51-.13-1-.2-1.48-.2-.34 0-.63.04-.87.13-.24.1-.36.23-.36.42 0 .23.15.4.44.52.28.09.62.13 1 .13Zm29.88 2.32c-2.2 0-4-.44-5.39-1.34a7.85 7.85 0 0 1-3.06-3.45 11.35 11.35 0 0 1-.97-4.69c0-.78.07-1.57.21-2.38a13.92 13.92 0 0 1 3.67-7.59A13.53 13.53 0 0 1 39.2 13a12 12 0 0 1 3.13.41 7.44 7.44 0 0 1 3.46 2c.86.9 1.49 1.96 1.87 3.18.38 1.2.58 2.44.58 3.75a15.06 15.06 0 0 1-1.34 6.25 13.82 13.82 0 0 1-6.95 7.03c-1.55.74-3.23 1.1-5.03 1.1Zm.12-1.93a9.6 9.6 0 0 0 4.46-1.03 11.7 11.7 0 0 0 3.53-2.73 13.1 13.1 0 0 0 2.34-3.79c.55-1.38.84-2.76.86-4.14a7.84 7.84 0 0 1-2.92 2.66 6.8 6.8 0 0 1-4.93.62 5.3 5.3 0 0 1-2.26-1.14 4.48 4.48 0 0 1-1.2-1.69 4.89 4.89 0 0 1-.35-1.76c0-.6.1-1.11.32-1.55.24-.44.52-.65.83-.65.22 0 .43.11.65.34.26.25.36.55.29.9-.1.34-.15.7-.15 1.07 0 .96.33 1.67.97 2.13a4.2 4.2 0 0 0 2.34.66c.87 0 1.73-.18 2.6-.55a5.7 5.7 0 0 0 2.15-1.7c.6-.73.9-1.61.9-2.65 0-1.15-.3-2.07-.93-2.76a5.33 5.33 0 0 0-2.41-1.55 10.47 10.47 0 0 0-6.84.17 11.58 11.58 0 0 0-4.43 2.94 12.06 12.06 0 0 0-2.59 4.51 14.5 14.5 0 0 0-.72 4.38c0 1.31.24 2.53.72 3.66.5 1.1 1.3 1.99 2.41 2.65 1.1.67 2.56 1 4.36 1Zm30.1 2.28c-1.15 0-2.43-.22-3.82-.66a121.86 121.86 0 0 1-5.14-1.79h-.08l-1.11.62a8.75 8.75 0 0 1-1.91.8 5.06 5.06 0 0 1-2.34-.17c-.26-.1-.62-.3-1.08-.6-.43-.3-.65-.7-.65-1.24 0-.2.06-.46.18-.75.24-.53.62-.9 1.12-1.1.5-.24 1.05-.35 1.65-.35.63 0 1.29.08 1.98.24.72.16 1.38.33 1.98.52h.08a36 36 0 0 0 2.37-1.45c.94-.62 1.9-1.3 2.92-2.04 1-.76 1.95-1.55 2.84-2.38a15.9 15.9 0 0 0 2.23-2.51 5.3 5.3 0 0 0 1.08-2.45c.07-.48.1-.94.1-1.38 0-1.77-.57-3.12-1.72-4.04-1.13-.94-2.78-1.4-4.97-1.4a7.8 7.8 0 0 0-3.27.72 6.75 6.75 0 0 0-2.6 2.03 4.7 4.7 0 0 0-1 3c0 .78.14 1.52.43 2.2.31.67.77 1.22 1.37 1.66a3.77 3.77 0 0 0 2.84.55l.65-.2.22-.07.21-.07c.2-.05.33-.07.4-.07.26 0 .5.1.68.28.22.16.33.35.33.58 0 .28-.16.52-.47.73-.36.25-.8.43-1.3.55-.5.09-.96.14-1.36.14a5.54 5.54 0 0 1-5.19-3.25 7.02 7.02 0 0 1 .07-6.17 7.66 7.66 0 0 1 2.02-2.41 9.5 9.5 0 0 1 2.88-1.52 9.78 9.78 0 0 1 3.24-.55c1.73 0 3.21.3 4.46.93a7.05 7.05 0 0 1 2.95 2.59 6.91 6.91 0 0 1 1.05 3.82 9.16 9.16 0 0 1-.15 1.66 8.48 8.48 0 0 1-1.5 3.38 20.3 20.3 0 0 1-2.85 3.14 35.7 35.7 0 0 1-3.42 2.69c-1.18.8-2.26 1.5-3.24 2.1l.36.17a30.48 30.48 0 0 0 4.4 1.38c.8.18 1.5.28 2.08.28.57 0 1.15-.1 1.73-.31.57-.23.86-.65.86-1.24 0-.12-.13-.26-.4-.42-.36-.25-.54-.55-.54-.9 0-.23.09-.42.26-.58.19-.16.42-.24.68-.24.48 0 .91.2 1.3.62.4.41.6.85.6 1.3a3 3 0 0 1-.71 2.11 3.7 3.7 0 0 1-1.73 1.17c-.7.23-1.38.35-2.05.35Zm-13.1-2.66c.45 0 .9-.04 1.33-.13.45-.12.75-.22.9-.31l.03-.1c-.14-.2-.48-.34-1-.46-.5-.13-1-.2-1.48-.2-.34 0-.62.04-.86.13-.24.1-.36.23-.36.42 0 .23.14.4.43.52.29.09.62.13 1 .13ZM78.77 38c-.94 0-1.86-.17-2.77-.52a9.2 9.2 0 0 1-2.45-1.41 7.15 7.15 0 0 1-1.76-2.04 5 5 0 0 1-.43-3.86 6 6 0 0 1 .75-1.45c.41-.57.93-.98 1.55-1.24a5.4 5.4 0 0 1 5.97 1.42c.46.55.69 1.2.69 1.96 0 .4-.09.68-.25.86a.73.73 0 0 1-.58.25c-.24 0-.48-.1-.72-.28-.22-.2-.34-.47-.36-.8-.02-.6-.3-1.05-.83-1.37a2.78 2.78 0 0 0-1.5-.52c-1.02 0-1.76.25-2.24.76a2.5 2.5 0 0 0-.72 1.8c0 .68.23 1.4.68 2.13a5.31 5.31 0 0 0 1.98 1.83c.87.5 1.92.76 3.17.76 1.06 0 2.11-.14 3.17-.42a9.77 9.77 0 0 0 2.95-1.2 6.81 6.81 0 0 0 2.12-2.14c.55-.85.83-1.86.83-3.04 0-2.39-.97-4.07-2.91-5.03h-.08c-.74.39-1.53.66-2.37.83-.84.13-1.68.2-2.52.2-.34 0-.76-.03-1.26-.1-.48-.1-.91-.27-1.3-.52-.38-.25-.57-.64-.57-1.17 0-.41.16-.74.5-.97.36-.25.8-.43 1.3-.55a11.5 11.5 0 0 1 2.84-.3c1.08 0 2.1.15 3.06.47h.07a6.36 6.36 0 0 0 1.55-1.58 3.57 3.57 0 0 0 .47-2.31c0-.14-.02-.29-.04-.45a3.05 3.05 0 0 0-1.51-2.24 5.04 5.04 0 0 0-2.74-.8c-.67 0-1.4.09-2.2.25-.76.13-1.35.48-1.76 1.03-.19.25-.28.48-.28.7 0 .27.14.46.43.58l.86.27c.48.14.72.42.72.83 0 .71-.55 1.07-1.65 1.07-.48 0-.94-.15-1.37-.45a1.91 1.91 0 0 1-.72-.9 3.37 3.37 0 0 1-.22-1.13v-.38l.08-.38a3.4 3.4 0 0 1 1.25-2.1c.65-.49 1.4-.81 2.24-.97.86-.18 1.69-.28 2.48-.28.96 0 1.9.21 2.8.62.94.42 1.73 1 2.38 1.73A4.31 4.31 0 0 1 88.67 18l.03.45v.45c0 1.65-.66 3.1-1.98 4.34v.1a7.12 7.12 0 0 1 2.42 2.7 7.22 7.22 0 0 1-.11 7.03A8.3 8.3 0 0 1 86 36.14a10.75 10.75 0 0 1-3.49 1.41c-1.24.3-2.5.45-3.74.45Zm1.55-13.59c.62 0 1.3-.09 2.01-.27.72-.2 1.18-.43 1.37-.66l-.03-.1a3.12 3.12 0 0 0-1.08-.31 9.42 9.42 0 0 0-1.62-.14 5.8 5.8 0 0 0-1.44.17c-.41.12-.62.34-.62.66 0 .23.14.4.4.52.26.09.6.13 1 .13Z"/>
<path stroke="#F8F9FA" stroke-width="2" d="M18.12 37.07c-1.15 0-2.42-.22-3.81-.66a121.86 121.86 0 0 1-5.15-1.79H9.1l-1.12.62a8.75 8.75 0 0 1-1.9.8 5.06 5.06 0 0 1-2.34-.17 5.7 5.7 0 0 1-1.08-.6c-.43-.3-.65-.7-.65-1.24 0-.2.06-.46.18-.75.24-.53.61-.9 1.12-1.1.5-.24 1.05-.35 1.65-.35.63 0 1.29.08 1.98.24.72.16 1.38.33 1.98.52h.07c.67-.37 1.47-.85 2.38-1.45.93-.62 1.9-1.3 2.91-2.04a35.2 35.2 0 0 0 2.85-2.38c.88-.82 1.63-1.66 2.23-2.51a5.3 5.3 0 0 0 1.08-2.45c.07-.48.1-.94.1-1.38 0-1.77-.57-3.12-1.72-4.04-1.13-.94-2.79-1.4-4.97-1.4a7.8 7.8 0 0 0-3.27.72 6.75 6.75 0 0 0-2.6 2.03 4.7 4.7 0 0 0-1 3c0 .78.14 1.52.43 2.2.31.67.77 1.22 1.37 1.66a3.77 3.77 0 0 0 2.84.55l.65-.2.21-.07.22-.07c.2-.05.32-.07.4-.07.26 0 .49.1.68.28.22.16.32.35.32.58 0 .28-.15.52-.46.73-.36.25-.8.43-1.3.55-.5.09-.96.14-1.37.14a5.54 5.54 0 0 1-5.18-3.25 7.02 7.02 0 0 1 .07-6.17 7.67 7.67 0 0 1 2.02-2.41 9.5 9.5 0 0 1 2.88-1.52 9.78 9.78 0 0 1 3.24-.55c1.72 0 3.21.3 4.46.93a7.05 7.05 0 0 1 2.95 2.59 6.91 6.91 0 0 1 1.04 3.82 9.16 9.16 0 0 1-.14 1.66 8.48 8.48 0 0 1-1.51 3.38 19.8 19.8 0 0 1-2.85 3.14 33.4 33.4 0 0 1-3.41 2.69c-1.18.8-2.26 1.5-3.24 2.1l.36.17a30.47 30.47 0 0 0 4.4 1.38c.8.18 1.5.28 2.07.28.58 0 1.16-.1 1.73-.31.58-.23.87-.65.87-1.24 0-.12-.14-.26-.4-.42-.36-.25-.54-.55-.54-.9 0-.23.08-.42.25-.58.2-.16.42-.24.69-.24.48 0 .9.2 1.3.62.4.41.6.85.6 1.3a3 3 0 0 1-.72 2.11 3.7 3.7 0 0 1-1.72 1.17c-.7.23-1.38.35-2.06.35ZM5.02 34.4c.46 0 .9-.04 1.34-.13.45-.12.75-.22.9-.31l.03-.1c-.14-.2-.48-.34-1-.46-.51-.13-1-.2-1.48-.2-.34 0-.63.04-.87.13-.24.1-.36.23-.36.42 0 .23.15.4.44.52.28.09.62.13 1 .13Zm29.88 2.32c-2.2 0-4-.44-5.39-1.34a7.85 7.85 0 0 1-3.06-3.45 11.35 11.35 0 0 1-.97-4.69c0-.78.07-1.57.21-2.38a13.92 13.92 0 0 1 3.67-7.59A13.53 13.53 0 0 1 39.2 13a12 12 0 0 1 3.13.41 7.44 7.44 0 0 1 3.46 2c.86.9 1.49 1.96 1.87 3.18.38 1.2.58 2.44.58 3.75a15.06 15.06 0 0 1-1.34 6.25 13.82 13.82 0 0 1-6.95 7.03c-1.55.74-3.23 1.1-5.03 1.1Zm.12-1.93a9.6 9.6 0 0 0 4.46-1.03 11.7 11.7 0 0 0 3.53-2.73 13.1 13.1 0 0 0 2.34-3.79c.55-1.38.84-2.76.86-4.14a7.84 7.84 0 0 1-2.92 2.66 6.8 6.8 0 0 1-4.93.62 5.3 5.3 0 0 1-2.26-1.14 4.48 4.48 0 0 1-1.2-1.69 4.89 4.89 0 0 1-.35-1.76c0-.6.1-1.11.32-1.55.24-.44.52-.65.83-.65.22 0 .43.11.65.34.26.25.36.55.29.9-.1.34-.15.7-.15 1.07 0 .96.33 1.67.97 2.13a4.2 4.2 0 0 0 2.34.66c.87 0 1.73-.18 2.6-.55a5.7 5.7 0 0 0 2.15-1.7c.6-.73.9-1.61.9-2.65 0-1.15-.3-2.07-.93-2.76a5.33 5.33 0 0 0-2.41-1.55 10.47 10.47 0 0 0-6.84.17 11.58 11.58 0 0 0-4.43 2.94 12.06 12.06 0 0 0-2.59 4.51 14.5 14.5 0 0 0-.72 4.38c0 1.31.24 2.53.72 3.66.5 1.1 1.3 1.99 2.41 2.65 1.1.67 2.56 1 4.36 1Zm30.1 2.28c-1.15 0-2.43-.22-3.82-.66a121.86 121.86 0 0 1-5.14-1.79h-.08l-1.11.62a8.75 8.75 0 0 1-1.91.8 5.06 5.06 0 0 1-2.34-.17c-.26-.1-.62-.3-1.08-.6-.43-.3-.65-.7-.65-1.24 0-.2.06-.46.18-.75.24-.53.62-.9 1.12-1.1.5-.24 1.05-.35 1.65-.35.63 0 1.29.08 1.98.24.72.16 1.38.33 1.98.52h.08a36 36 0 0 0 2.37-1.45c.94-.62 1.9-1.3 2.92-2.04 1-.76 1.95-1.55 2.84-2.38a15.9 15.9 0 0 0 2.23-2.51 5.3 5.3 0 0 0 1.08-2.45c.07-.48.1-.94.1-1.38 0-1.77-.57-3.12-1.72-4.04-1.13-.94-2.78-1.4-4.97-1.4a7.8 7.8 0 0 0-3.27.72 6.75 6.75 0 0 0-2.6 2.03 4.7 4.7 0 0 0-1 3c0 .78.14 1.52.43 2.2.31.67.77 1.22 1.37 1.66a3.77 3.77 0 0 0 2.84.55l.65-.2.22-.07.21-.07c.2-.05.33-.07.4-.07.26 0 .5.1.68.28.22.16.33.35.33.58 0 .28-.16.52-.47.73-.36.25-.8.43-1.3.55-.5.09-.96.14-1.36.14a5.54 5.54 0 0 1-5.19-3.25 7.02 7.02 0 0 1 .07-6.17 7.66 7.66 0 0 1 2.02-2.41 9.5 9.5 0 0 1 2.88-1.52 9.78 9.78 0 0 1 3.24-.55c1.73 0 3.21.3 4.46.93a7.05 7.05 0 0 1 2.95 2.59 6.91 6.91 0 0 1 1.05 3.82 9.16 9.16 0 0 1-.15 1.66 8.48 8.48 0 0 1-1.5 3.38 20.3 20.3 0 0 1-2.85 3.14 35.7 35.7 0 0 1-3.42 2.69c-1.18.8-2.26 1.5-3.24 2.1l.36.17a30.48 30.48 0 0 0 4.4 1.38c.8.18 1.5.28 2.08.28.57 0 1.15-.1 1.73-.31.57-.23.86-.65.86-1.24 0-.12-.13-.26-.4-.42-.36-.25-.54-.55-.54-.9 0-.23.09-.42.26-.58.19-.16.42-.24.68-.24.48 0 .91.2 1.3.62.4.41.6.85.6 1.3a3 3 0 0 1-.71 2.11 3.7 3.7 0 0 1-1.73 1.17c-.7.23-1.38.35-2.05.35Zm-13.1-2.66c.45 0 .9-.04 1.33-.13.45-.12.75-.22.9-.31l.03-.1c-.14-.2-.48-.34-1-.46-.5-.13-1-.2-1.48-.2-.34 0-.62.04-.86.13-.24.1-.36.23-.36.42 0 .23.14.4.43.52.29.09.62.13 1 .13ZM78.77 38c-.94 0-1.86-.17-2.77-.52a9.2 9.2 0 0 1-2.45-1.41 7.15 7.15 0 0 1-1.76-2.04 5 5 0 0 1-.43-3.86 6 6 0 0 1 .75-1.45c.41-.57.93-.98 1.55-1.24a5.4 5.4 0 0 1 5.97 1.42c.46.55.69 1.2.69 1.96 0 .4-.09.68-.25.86a.73.73 0 0 1-.58.25c-.24 0-.48-.1-.72-.28-.22-.2-.34-.47-.36-.8-.02-.6-.3-1.05-.83-1.37a2.78 2.78 0 0 0-1.5-.52c-1.02 0-1.76.25-2.24.76a2.5 2.5 0 0 0-.72 1.8c0 .68.23 1.4.68 2.13a5.31 5.31 0 0 0 1.98 1.83c.87.5 1.92.76 3.17.76 1.06 0 2.11-.14 3.17-.42a9.77 9.77 0 0 0 2.95-1.2 6.81 6.81 0 0 0 2.12-2.14c.55-.85.83-1.86.83-3.04 0-2.39-.97-4.07-2.91-5.03h-.08c-.74.39-1.53.66-2.37.83-.84.13-1.68.2-2.52.2-.34 0-.76-.03-1.26-.1-.48-.1-.91-.27-1.3-.52-.38-.25-.57-.64-.57-1.17 0-.41.16-.74.5-.97.36-.25.8-.43 1.3-.55a11.5 11.5 0 0 1 2.84-.3c1.08 0 2.1.15 3.06.47h.07a6.36 6.36 0 0 0 1.55-1.58 3.57 3.57 0 0 0 .47-2.31c0-.14-.02-.29-.04-.45a3.05 3.05 0 0 0-1.51-2.24 5.04 5.04 0 0 0-2.74-.8c-.67 0-1.4.09-2.2.25-.76.13-1.35.48-1.76 1.03-.19.25-.28.48-.28.7 0 .27.14.46.43.58l.86.27c.48.14.72.42.72.83 0 .71-.55 1.07-1.65 1.07-.48 0-.94-.15-1.37-.45a1.91 1.91 0 0 1-.72-.9 3.37 3.37 0 0 1-.22-1.13v-.38l.08-.38a3.4 3.4 0 0 1 1.25-2.1c.65-.49 1.4-.81 2.24-.97.86-.18 1.69-.28 2.48-.28.96 0 1.9.21 2.8.62.94.42 1.73 1 2.38 1.73A4.31 4.31 0 0 1 88.67 18l.03.45v.45c0 1.65-.66 3.1-1.98 4.34v.1a7.12 7.12 0 0 1 2.42 2.7 7.22 7.22 0 0 1-.11 7.03A8.3 8.3 0 0 1 86 36.14a10.75 10.75 0 0 1-3.49 1.41c-1.24.3-2.5.45-3.74.45Zm1.55-13.59c.62 0 1.3-.09 2.01-.27.72-.2 1.18-.43 1.37-.66l-.03-.1a3.12 3.12 0 0 0-1.08-.31 9.42 9.42 0 0 0-1.62-.14 5.8 5.8 0 0 0-1.44.17c-.41.12-.62.34-.62.66 0 .23.14.4.4.52.26.09.6.13 1 .13Z" mask="url(#a)"/>
<path fill="#fff" d="M1.74 10.1a.74.74 0 0 1-.55-.2.8.8 0 0 1-.2-.57V2.2c0-.25.07-.44.2-.56.13-.13.31-.2.55-.2.24 0 .43.07.55.2.14.12.2.31.2.56v4.43h.03L4.5 4.54c.16-.16.3-.28.42-.37a.82.82 0 0 1 .5-.13c.2 0 .36.05.46.16.11.1.17.24.17.39 0 .15-.07.3-.22.45L3.75 7.25v-.62L6.04 9.1c.14.15.2.3.2.47a.57.57 0 0 1-.2.38.7.7 0 0 1-.46.15.98.98 0 0 1-.54-.14 2.63 2.63 0 0 1-.43-.4L2.52 7.39H2.5v1.95c0 .51-.25.77-.76.77Zm8.25.02a3.2 3.2 0 0 1-1.58-.37 2.6 2.6 0 0 1-1.05-1.06A3.44 3.44 0 0 1 7 7.06c0-.47.07-.9.2-1.26a2.7 2.7 0 0 1 1.57-1.57A3.2 3.2 0 0 1 10 4.01c.6 0 1.14.13 1.59.37.44.25.8.6 1.04 1.06.25.46.37 1 .37 1.62 0 .47-.07.9-.21 1.27-.14.38-.34.7-.6.97a2.8 2.8 0 0 1-.95.62c-.37.13-.78.2-1.24.2Zm0-1.14a1.35 1.35 0 0 0 1.3-.85c.13-.29.19-.65.19-1.07 0-.64-.14-1.12-.4-1.43a1.35 1.35 0 0 0-1.09-.48A1.36 1.36 0 0 0 8.7 6a2.7 2.7 0 0 0-.19 1.06c0 .63.14 1.11.41 1.44.27.32.63.48 1.08.48Zm6.5 1.14c-.52 0-.97-.12-1.36-.37-.38-.25-.68-.6-.9-1.06-.22-.46-.32-1-.32-1.63 0-.63.1-1.17.32-1.62.22-.46.52-.8.9-1.06a2.56 2.56 0 0 1 2.63-.01c.37.24.61.56.74.95h-.13V2.2c0-.25.06-.44.2-.56.12-.13.3-.2.54-.2.24 0 .43.07.56.2.13.12.2.31.2.56v7.13a.8.8 0 0 1-.2.57c-.12.13-.3.2-.54.2a.77.77 0 0 1-.56-.2.8.8 0 0 1-.19-.57v-.94l.13.36c-.12.42-.36.75-.73 1s-.8.37-1.3.37Zm.42-1.14c.3 0 .55-.07.78-.22.22-.14.4-.35.51-.63.13-.29.2-.65.2-1.07 0-.64-.14-1.12-.41-1.43a1.35 1.35 0 0 0-1.08-.48 1.36 1.36 0 0 0-1.3.85 2.7 2.7 0 0 0-.2 1.06c0 .63.14 1.11.42 1.44.27.32.63.48 1.08.48Zm7.4 1.14a3.7 3.7 0 0 1-1.7-.37 2.7 2.7 0 0 1-1.13-1.06c-.25-.45-.38-1-.38-1.62 0-.6.12-1.14.37-1.6a2.94 2.94 0 0 1 2.57-1.46c.42 0 .79.07 1.12.2a2.46 2.46 0 0 1 1.4 1.52c.12.37.18.78.18 1.23a.4.4 0 0 1-.16.34.7.7 0 0 1-.42.1h-3.85v-.86h3.37l-.19.18c0-.36-.05-.67-.17-.92-.1-.25-.26-.44-.46-.56a1.3 1.3 0 0 0-.76-.2c-.34 0-.62.07-.86.23-.24.15-.42.37-.54.66-.12.28-.18.62-.18 1.01v.08c0 .66.15 1.15.45 1.48.31.32.77.48 1.37.48a2.89 2.89 0 0 0 1.44-.35c.17-.1.32-.13.44-.12.13.01.23.05.3.13a.5.5 0 0 1 .15.3.63.63 0 0 1-.07.35.74.74 0 0 1-.3.31c-.28.18-.6.31-.98.4-.36.08-.7.12-1 .12Zm4.36-.02a.74.74 0 0 1-.55-.2.8.8 0 0 1-.2-.57V2.2c0-.25.07-.44.2-.56.13-.13.31-.2.55-.2.24 0 .43.07.55.2.14.12.2.31.2.56v4.43h.03l1.98-2.09c.16-.16.3-.28.42-.37a.82.82 0 0 1 .5-.13c.2 0 .36.05.46.16.11.1.17.24.17.39 0 .15-.07.3-.22.45l-2.08 2.21v-.62l2.29 2.47c.14.15.2.3.19.47 0 .15-.07.28-.2.38a.7.7 0 0 1-.45.15.98.98 0 0 1-.54-.14 2.63 2.63 0 0 1-.43-.4l-2.09-2.18h-.02v1.95c0 .51-.25.77-.76.77Zm7.57.02c-.43 0-.8-.08-1.14-.24-.33-.17-.6-.4-.78-.67-.19-.28-.28-.6-.28-.95 0-.43.11-.77.34-1.02.22-.26.58-.44 1.09-.55.5-.11 1.18-.17 2.03-.17h.6v.86h-.6c-.49 0-.88.03-1.18.08-.3.04-.5.13-.64.25-.12.11-.18.27-.18.48 0 .26.1.48.28.65.18.16.44.25.77.25.26 0 .5-.06.7-.18a1.44 1.44 0 0 0 .67-1.26V6.27c0-.4-.1-.69-.27-.87-.17-.17-.47-.26-.89-.26a3.77 3.77 0 0 0-1.6.37.6.6 0 0 1-.4.06.46.46 0 0 1-.26-.19.63.63 0 0 1-.1-.34.7.7 0 0 1 .1-.34.58.58 0 0 1 .32-.27 5.45 5.45 0 0 1 2-.42c.57 0 1.04.09 1.4.27.38.17.66.44.85.8.18.35.27.8.27 1.37v2.88c0 .25-.06.44-.18.57a.66.66 0 0 1-.51.2.71.71 0 0 1-.53-.2.84.84 0 0 1-.18-.57v-.58h.1a1.66 1.66 0 0 1-.95 1.2c-.25.11-.53.17-.85.17Zm6.63 0c-.66 0-1.16-.19-1.5-.56-.34-.39-.5-.95-.5-1.68V2.2c0-.25.06-.44.19-.56.13-.13.31-.2.55-.2.24 0 .42.07.55.2.14.12.2.31.2.56v5.6c0 .37.08.64.23.82.16.18.39.26.68.26h.18l.16-.02c.12-.02.2.02.23.1.04.07.06.22.06.45a.8.8 0 0 1-.12.47c-.08.11-.21.18-.4.2a28.15 28.15 0 0 1-.51.04Zm4.66 0a3.7 3.7 0 0 1-1.71-.37c-.48-.25-.86-.6-1.12-1.06a3.2 3.2 0 0 1-.38-1.62c0-.6.12-1.14.37-1.6a2.91 2.91 0 0 1 2.57-1.46 3 3 0 0 1 1.11.2 2.46 2.46 0 0 1 1.4 1.52c.12.37.19.78.19 1.23a.4.4 0 0 1-.16.34.7.7 0 0 1-.42.1h-3.85v-.86h3.37l-.2.18c0-.36-.05-.67-.16-.92a1.1 1.1 0 0 0-.47-.56c-.2-.14-.45-.2-.75-.2-.34 0-.63.07-.87.23-.23.15-.41.37-.54.66-.12.28-.18.62-.18 1.01v.08c0 .66.15 1.15.46 1.48.3.32.77.48 1.37.48A2.89 2.89 0 0 0 49 8.63c.16-.1.31-.13.44-.12.13.01.23.05.3.13a.5.5 0 0 1 .14.3.5.5 0 0 1-.07.35.74.74 0 0 1-.3.31c-.28.18-.6.31-.97.4-.36.08-.7.12-1 .12Zm4.36-.02c-.24 0-.43-.07-.55-.2a.8.8 0 0 1-.2-.57V4.79c0-.25.07-.43.2-.56.12-.13.3-.2.54-.2.23 0 .4.07.54.2.12.13.19.31.19.56v.82l-.13-.3c.17-.43.44-.75.81-.96.38-.23.8-.34 1.27-.34.48 0 .86.09 1.17.27.3.17.53.44.68.8.15.35.23.8.23 1.34v2.9a.8.8 0 0 1-.2.58c-.12.13-.3.2-.54.2a.79.79 0 0 1-.57-.2.8.8 0 0 1-.2-.57V6.5c0-.46-.08-.8-.25-1-.17-.2-.44-.31-.8-.31-.44 0-.79.14-1.05.42a1.5 1.5 0 0 0-.39 1.09v2.63c0 .51-.25.77-.75.77Zm8.53.02c-.51 0-.97-.12-1.36-.37-.38-.25-.68-.6-.9-1.06-.21-.46-.32-1-.32-1.63 0-.63.1-1.17.32-1.62.22-.46.52-.8.9-1.06a2.59 2.59 0 0 1 2.63-.01c.37.24.62.56.74.95h-.13V2.2c0-.25.07-.44.2-.56.12-.13.3-.2.55-.2.24 0 .42.07.55.2.13.12.2.31.2.56v7.13a.8.8 0 0 1-.19.57.74.74 0 0 1-.55.2c-.24 0-.43-.07-.55-.2a.8.8 0 0 1-.2-.57v-.94l.14.36c-.12.42-.37.75-.74 1-.36.25-.8.37-1.3.37Zm.42-1.14c.3 0 .55-.07.78-.22.22-.14.4-.35.51-.63.13-.29.2-.65.2-1.07 0-.64-.14-1.12-.41-1.43a1.35 1.35 0 0 0-1.08-.48 1.36 1.36 0 0 0-1.3.85 2.7 2.7 0 0 0-.19 1.06c0 .63.14 1.11.4 1.44.28.32.64.48 1.09.48Zm7.41 1.14a3.7 3.7 0 0 1-1.72-.37c-.48-.25-.85-.6-1.11-1.06-.26-.45-.39-1-.39-1.62 0-.6.13-1.14.38-1.6a2.9 2.9 0 0 1 2.56-1.46c.42 0 .8.07 1.12.2a2.46 2.46 0 0 1 1.4 1.52c.12.37.18.78.18 1.23a.4.4 0 0 1-.15.34.7.7 0 0 1-.42.1h-3.85v-.86h3.37l-.2.18c0-.36-.05-.67-.16-.92a1.1 1.1 0 0 0-.47-.56c-.2-.14-.45-.2-.76-.2-.33 0-.62.07-.86.23-.23.15-.41.37-.54.66-.12.28-.18.62-.18 1.01v.08c0 .66.15 1.15.46 1.48.3.32.76.48 1.36.48a2.76 2.76 0 0 0 1.44-.35c.17-.1.32-.13.45-.12.13.01.23.05.3.13a.5.5 0 0 1 .14.3.5.5 0 0 1-.07.35.74.74 0 0 1-.3.31c-.28.18-.6.31-.97.4-.36.08-.7.12-1.01.12Zm4.38-.02a.8.8 0 0 1-.58-.2.8.8 0 0 1-.19-.57V4.79c0-.25.07-.43.2-.56a.7.7 0 0 1 .53-.2c.24 0 .42.07.54.2.13.13.2.31.2.56v.76h-.12c.1-.48.33-.85.66-1.1.32-.24.76-.39 1.3-.44.17-.01.3.03.4.13.1.1.16.25.18.46.02.2-.03.36-.14.5a.74.74 0 0 1-.48.2l-.27.03c-.49.05-.85.2-1.1.46-.25.25-.37.6-.37 1.05v2.49a.8.8 0 0 1-.2.57c-.12.13-.31.2-.56.2Z"/>
<path fill="#751C15" d="M83.9 2.74c-2.61.82-3.95 3.4-4.45 4.4l10.82 3 1.01 2.2c0 .8-.3 1.8-.22 3.77.07 1.97 2.6 3.59 3.7 3.6l1.29-2.1c-.3-.2-1.25-.04-1.86-1.38-.47-1.02.57-2.8 1.1-4.31.54-1.52 1.26-5.36-1.94-7.4-3.04-1.93-6.03-2.85-9.44-1.78Z"/>
<ellipse cx="2.6" cy="2.69" fill="#F8F9FA" rx="2.6" ry="2.69" transform="rotate(19.56 .27 282.2)skewX(.13)"/>
<path fill="#F8F9FA" d="M82.3 8.44a2.37 2.37 0 0 1-3 1.5 2.39 2.39 0 0 1-1.4-3.06 2.37 2.37 0 0 1 3-1.5 2.39 2.39 0 0 1 1.4 3.06Z"/>
<path fill="#F8F9FA" d="M85.52 8.73a2.37 2.37 0 0 1-3.01 1.5 2.39 2.39 0 0 1-1.4-3.07 2.37 2.37 0 0 1 3-1.5 2.39 2.39 0 0 1 1.4 3.07Zm8.96 4.32a2.37 2.37 0 0 1-3.01 1.5 2.39 2.39 0 0 1-1.4-3.07 2.37 2.37 0 0 1 3-1.5 2.39 2.39 0 0 1 1.41 3.07Z"/>
<path fill="#F8F9FA" d="M89.13 9.44c-.5 1.4-2 2.15-3.35 1.66a2.65 2.65 0 0 1-1.55-3.4 2.62 2.62 0 0 1 3.34-1.66c1.36.48 2.05 2 1.56 3.4Z"/>
<path fill="#F8F9FA" d="M92.23 10.83c-.5 1.4-2 2.14-3.35 1.66a2.65 2.65 0 0 1-1.55-3.4 2.64 2.64 0 0 1 3.34-1.67c1.36.48 2.05 2 1.56 3.4Z"/>
</svg>
