<svg xmlns="http://www.w3.org/2000/svg" width="88" height="20" fill="none">
<path fill="#F8F9FA" d="M73.15 3.25a1.58 1.58 0 0 0 1.49-1 1.65 1.65 0 0 0-.35-1.77 1.59 1.59 0 0 0-2.73 1.15c0 .43.17.84.47 1.15.3.3.7.47 1.12.47ZM15.07 5.1H13c-.65 0-.73.07-1.48.84l-6.6 6.76V2.07a.5.5 0 0 0-.14-.41.5.5 0 0 0-.4-.15H1.2a.48.48 0 0 0-.4.15.5.5 0 0 0-.14.41V3.5a.5.5 0 0 0 .14.42.5.5 0 0 0 .4.15h1.16v13.11H1.2a.49.49 0 0 0-.4.15.5.5 0 0 0-.14.4v1.45a.5.5 0 0 0 .14.41.5.5 0 0 0 .4.15h4.84a.48.48 0 0 0 .42-.14.5.5 0 0 0 .14-.42v-1.44a.5.5 0 0 0-.14-.42.5.5 0 0 0-.42-.14H4.92v-1.06l2.48-2.56 4.38 5.43c.58.74.58.74 1.41.74h1.87a.48.48 0 0 0 .41-.14.5.5 0 0 0 .14-.42v-1.43a.5.5 0 0 0-.14-.42.49.49 0 0 0-.4-.14h-1.55l-4.35-5.43 3.96-4.08h1.94a.46.46 0 0 0 .4-.13.48.48 0 0 0 .13-.4V5.65a.5.5 0 0 0-.14-.4.48.48 0 0 0-.4-.15ZM32.1 17.17h-1.15v-6.25c0-3.71-2.3-6.13-5.87-6.13a5.74 5.74 0 0 0-4.1 1.54v-.68a.5.5 0 0 0-.14-.4.48.48 0 0 0-.4-.15h-3.1a.47.47 0 0 0-.41.14.5.5 0 0 0-.14.41v1.43a.5.5 0 0 0 .13.41.49.49 0 0 0 .41.15h1.14v9.53h-1.14a.48.48 0 0 0-.4.14.5.5 0 0 0-.14.42v1.44a.5.5 0 0 0 .13.41.49.49 0 0 0 .41.15h4.81a.49.49 0 0 0 .4-.15.5.5 0 0 0 .15-.41v-1.44a.51.51 0 0 0-.14-.41.5.5 0 0 0-.4-.15h-1.17v-5.8c0-2.39 1.65-4.12 3.91-4.12 2.27 0 3.54 1.47 3.54 3.92v6.01h-1.15a.48.48 0 0 0-.4.15.5.5 0 0 0-.14.4v1.44a.5.5 0 0 0 .32.53c.07.03.15.03.22.03h4.83a.49.49 0 0 0 .4-.14.5.5 0 0 0 .15-.42v-1.44a.5.5 0 0 0-.14-.41.5.5 0 0 0-.4-.15m7.8-12.36c-4.12 0-7.36 3.34-7.36 7.64a7.53 7.53 0 0 0 2.1 5.33 7.3 7.3 0 0 0 8.05 1.64 7.36 7.36 0 0 0 4-4.14 7.6 7.6 0 0 0 .52-2.91 7.54 7.54 0 0 0-2.1-5.34 7.3 7.3 0 0 0-5.21-2.22Zm0 12.71c-2.66 0-4.73-2.26-4.73-5.15 0-2.89 2-5.08 4.67-5.08 2.66 0 4.74 2.26 4.74 5.15 0 2.88-2.02 5.07-4.7 5.07M68.62 5.1h-4.94a.47.47 0 0 0-.4.14.5.5 0 0 0-.14.41v1.44a.5.5 0 0 0 .14.4.48.48 0 0 0 .4.15h1.1l-2.36 7.75-3.33-9.87a.65.65 0 0 0-.23-.33.63.63 0 0 0-.37-.13h-.99a.6.6 0 0 0-.37.13c-.1.08-.19.2-.22.32l-3.32 9.86-2.35-7.74h1.1a.49.49 0 0 0 .4-.14.5.5 0 0 0 .14-.41V5.65a.5.5 0 0 0-.13-.4.49.49 0 0 0-.38-.15h-5.01a.49.49 0 0 0-.4.14.5.5 0 0 0-.16.41v1.44a.51.51 0 0 0 .15.41.5.5 0 0 0 .4.14h1.18l3.92 11.7c.04.12.12.23.23.3.1.09.23.13.36.13h1.07a.65.65 0 0 0 .6-.45L58 9.73l3.26 9.6c.05.12.13.24.24.32.1.08.24.12.37.12h1.06a.6.6 0 0 0 .37-.12c.1-.08.19-.2.23-.32l3.93-11.7h1.17a.48.48 0 0 0 .4-.14.5.5 0 0 0 .13-.4V5.65a.5.5 0 0 0-.14-.4.49.49 0 0 0-.4-.15Zm6.99 12.07h-1.15V5.67a.5.5 0 0 0-.14-.41.49.49 0 0 0-.4-.14h-3.16a.47.47 0 0 0-.4.14.5.5 0 0 0-.13.4V7.1a.5.5 0 0 0 .13.41.49.49 0 0 0 .4.14h1.16v9.52h-2.09a.48.48 0 0 0-.4.14.5.5 0 0 0-.14.42v1.44a.5.5 0 0 0 .14.41.49.49 0 0 0 .4.15h5.78a.49.49 0 0 0 .4-.15.5.5 0 0 0 .15-.41v-1.44a.51.51 0 0 0-.14-.42.5.5 0 0 0-.4-.14Zm11.18-4.89h-1.38a.48.48 0 0 0-.42.15.5.5 0 0 0-.14.43v2.7a1.85 1.85 0 0 1-1.05 1.74c-.22.1-.45.15-.69.16-1.38 0-1.96-.58-1.96-1.94V7.64h3.35a.49.49 0 0 0 .4-.14.5.5 0 0 0 .15-.41V5.65a.5.5 0 0 0-.15-.4.5.5 0 0 0-.4-.15h-3.35V2.07a.51.51 0 0 0-.13-.41.5.5 0 0 0-.4-.16h-1.46a.48.48 0 0 0-.41.15.5.5 0 0 0-.14.42V5.1H77.1a.48.48 0 0 0-.4.14.5.5 0 0 0-.15.4V7.1a.5.5 0 0 0 .15.4.49.49 0 0 0 .4.15h1.52v8c0 2.6 1.7 4.3 4.29 4.3 2.7 0 4.43-1.63 4.43-4.17v-2.91a.5.5 0 0 0-.14-.42.5.5 0 0 0-.4-.14"/>
</svg>
