<svg xmlns="http://www.w3.org/2000/svg" fill="none" viewBox="0 0 120 48" xmlns:xlink="http://www.w3.org/1999/xlink">
<g clip-path="url(#a)">
<mask id="b" width="109" height="34" x=".4" y="13.6" fill="#000" maskUnits="userSpaceOnUse">
<path fill="#fff" d="M.4 13.6h109v34H.4z"/>
<path d="M21.75 44.48c-1.38 0-2.9-.26-4.58-.78a146.33 146.33 0 0 1-5.44-1.87l-.74-.29h-.08l-1.34.75a10.51 10.51 0 0 1-2.29.95 6.07 6.07 0 0 1-2.8-.2 6.53 6.53 0 0 1-1.3-.7 1.71 1.71 0 0 1-.78-1.5c0-.25.07-.55.22-.9.28-.64.73-1.08 1.33-1.33.6-.28 1.27-.42 2-.42.74 0 1.53.1 2.37.3.86.19 1.65.4 2.37.61h.09a45.8 45.8 0 0 0 2.85-1.73 95.15 95.15 0 0 0 3.5-2.45c1.2-.9 2.34-1.86 3.41-2.85 1.07-1 1.96-2 2.68-3.02a6.4 6.4 0 0 0 1.3-2.94c.08-.58.12-1.13.12-1.65 0-2.13-.69-3.74-2.07-4.85-1.35-1.13-3.34-1.7-5.96-1.7-1.35 0-2.66.3-3.93.88a8.1 8.1 0 0 0-3.11 2.44 5.64 5.64 0 0 0-1.21 3.6c0 .94.17 1.82.52 2.65a5 5 0 0 0 1.64 1.98 4.53 4.53 0 0 0 3.41.66l.78-.24.26-.09.26-.08c.23-.05.39-.08.47-.08.32 0 .6.1.82.33.26.2.4.43.4.7 0 .33-.2.62-.57.87-.43.3-.95.53-1.55.66-.6.11-1.16.17-1.65.17a6.64 6.64 0 0 1-3.8-1.08 7.32 7.32 0 0 1-2.42-2.81 8.43 8.43 0 0 1 .1-7.4 9.2 9.2 0 0 1 2.41-2.9 11.4 11.4 0 0 1 3.46-1.83c1.26-.44 2.56-.66 3.88-.66 2.08 0 3.86.38 5.36 1.12a8.46 8.46 0 0 1 3.54 3.1 8.3 8.3 0 0 1 1.25 4.6 11 11 0 0 1-.17 1.98 10.18 10.18 0 0 1-1.81 4.06 23.32 23.32 0 0 1-3.42 3.76 40.06 40.06 0 0 1-4.1 3.23c-1.41.97-2.7 1.8-3.89 2.53l.43.2a36.53 36.53 0 0 0 5.27 1.66c.98.22 1.82.33 2.5.33.7 0 1.4-.13 2.08-.37.7-.28 1.04-.78 1.04-1.5 0-.13-.16-.3-.48-.49-.43-.3-.64-.66-.64-1.08 0-.27.1-.5.3-.7.23-.2.5-.29.82-.29.57 0 1.1.25 1.55.75.5.5.74 1.02.74 1.57 0 1.05-.29 1.89-.87 2.52a4.44 4.44 0 0 1-2.07 1.4c-.83.28-1.65.42-2.46.42ZM6.03 41.3c.54 0 1.08-.06 1.6-.17.54-.14.9-.26 1.08-.37l.04-.13c-.17-.22-.58-.4-1.21-.53a6.7 6.7 0 0 0-1.77-.25c-.4 0-.75.05-1.04.16-.29.11-.43.28-.43.5 0 .28.17.48.52.62.34.11.75.17 1.2.17Zm35.86 2.77c-2.65 0-4.8-.54-6.48-1.61a9.42 9.42 0 0 1-3.67-4.14 13.62 13.62 0 0 1-1.17-5.63c0-.94.09-1.89.26-2.86.18-.96.4-1.91.7-2.85a16.7 16.7 0 0 1 3.7-6.25 16.24 16.24 0 0 1 11.8-5.13c1.3 0 2.55.17 3.76.5 1.72.5 3.1 1.3 4.14 2.4a9.54 9.54 0 0 1 2.25 3.8c.46 1.44.69 2.94.69 4.51a18.07 18.07 0 0 1-1.6 7.5 16.59 16.59 0 0 1-8.34 8.44 14 14 0 0 1-6.04 1.32Zm.13-2.32c1.96 0 3.74-.41 5.36-1.24a13.82 13.82 0 0 0 4.23-3.27c1.2-1.38 2.14-2.9 2.8-4.55a13.83 13.83 0 0 0 1.04-4.97 9.4 9.4 0 0 1-3.5 3.19 8.17 8.17 0 0 1-5.92.74 6.36 6.36 0 0 1-2.71-1.36 5.38 5.38 0 0 1-1.43-2.03 5.86 5.86 0 0 1-.43-2.1c0-.73.13-1.35.39-1.87.28-.52.62-.79.99-.79.26 0 .52.14.78.42.31.3.43.66.34 1.07-.11.42-.17.84-.17 1.29 0 1.15.39 2.01 1.17 2.56.8.53 1.74.79 2.8.79 1.04 0 2.08-.22 3.11-.66a6.8 6.8 0 0 0 2.6-2.03 4.88 4.88 0 0 0 1.07-3.19 4.7 4.7 0 0 0-1.12-3.3 6.4 6.4 0 0 0-2.9-1.87 12.57 12.57 0 0 0-8.2.2 13.9 13.9 0 0 0-5.31 3.52 14.47 14.47 0 0 0-3.11 5.42 17.4 17.4 0 0 0-.86 5.26c0 1.57.28 3.03.86 4.39a7.14 7.14 0 0 0 2.9 3.18c1.32.8 3.06 1.2 5.22 1.2Zm36.12 2.73c-1.38 0-2.9-.26-4.58-.78a146.32 146.32 0 0 1-5.44-1.87l-.73-.29h-.09l-1.34.75a10.51 10.51 0 0 1-2.29.95 6.07 6.07 0 0 1-2.8-.2 6.54 6.54 0 0 1-1.3-.7 1.71 1.71 0 0 1-.78-1.5c0-.25.07-.55.22-.9.29-.64.73-1.08 1.34-1.33.6-.28 1.26-.42 1.98-.42.75 0 1.54.1 2.38.3.86.19 1.65.4 2.37.61h.1a43 43 0 0 0 2.84-1.73 95.15 95.15 0 0 0 3.5-2.45c1.2-.9 2.35-1.86 3.41-2.85 1.07-1 1.96-2 2.68-3.02a6.4 6.4 0 0 0 1.3-2.94c.08-.58.13-1.13.13-1.65 0-2.13-.7-3.74-2.08-4.85-1.35-1.13-3.34-1.7-5.96-1.7-1.35 0-2.66.3-3.93.88a8.1 8.1 0 0 0-3.1 2.44 5.64 5.64 0 0 0-1.22 3.6c0 .94.17 1.82.52 2.65a5 5 0 0 0 1.64 1.98 4.53 4.53 0 0 0 3.41.66l.78-.24.26-.09.26-.08c.23-.05.39-.08.47-.08.32 0 .6.1.83.33.25.2.38.43.38.7 0 .33-.18.62-.56.87-.43.3-.95.53-1.55.66-.6.11-1.15.17-1.64.17a6.64 6.64 0 0 1-3.8-1.08 7.32 7.32 0 0 1-2.42-2.81 8.43 8.43 0 0 1 .08-7.4 9.2 9.2 0 0 1 2.42-2.9 11.4 11.4 0 0 1 3.46-1.83c1.26-.44 2.56-.66 3.88-.66 2.08 0 3.86.38 5.36 1.12a8.46 8.46 0 0 1 3.54 3.1 8.3 8.3 0 0 1 1.25 4.6 11 11 0 0 1-.17 1.98 10.18 10.18 0 0 1-1.81 4.06 23.32 23.32 0 0 1-3.41 3.76 40.06 40.06 0 0 1-4.1 3.23c-1.42.97-2.71 1.8-3.9 2.53l.44.2a36.53 36.53 0 0 0 5.27 1.66c.98.22 1.81.33 2.5.33.7 0 1.38-.13 2.07-.37.7-.28 1.04-.78 1.04-1.5 0-.13-.16-.3-.47-.49-.44-.3-.65-.66-.65-1.08 0-.27.1-.5.3-.7.23-.2.5-.29.82-.29.58 0 1.1.25 1.56.75.49.5.73 1.02.73 1.57 0 1.05-.29 1.89-.86 2.52a4.44 4.44 0 0 1-2.08 1.4c-.83.28-1.65.42-2.46.42ZM62.42 41.3c.55 0 1.08-.06 1.6-.17.55-.14.9-.26 1.08-.37l.04-.13c-.17-.22-.57-.4-1.2-.53a6.7 6.7 0 0 0-1.78-.25c-.4 0-.75.05-1.04.16-.28.11-.43.28-.43.5 0 .28.18.48.52.62.35.11.75.17 1.21.17Zm32.1 4.3c-1.12 0-2.23-.2-3.32-.62a11.05 11.05 0 0 1-2.94-1.7 8.58 8.58 0 0 1-2.11-2.44 6 6 0 0 1-.52-4.63c.2-.58.5-1.16.9-1.74a4.16 4.16 0 0 1 1.86-1.5 6.48 6.48 0 0 1 5.05.13 5.2 5.2 0 0 1 2.12 1.58c.55.66.82 1.44.82 2.35 0 .47-.1.82-.3 1.04-.17.2-.4.29-.7.29-.28 0-.57-.11-.86-.33-.25-.25-.4-.57-.43-.95a1.93 1.93 0 0 0-1-1.66 3.34 3.34 0 0 0-1.8-.62c-1.21 0-2.1.3-2.68.91a3 3 0 0 0-.87 2.15c0 .83.28 1.68.82 2.57a6.37 6.37 0 0 0 2.38 2.2c1.04.6 2.3.9 3.8.9 1.27 0 2.53-.16 3.8-.5 1.3-.3 2.48-.78 3.54-1.44a8.17 8.17 0 0 0 2.55-2.57c.66-1.02 1-2.23 1-3.64 0-2.87-1.17-4.88-3.5-6.04h-.09c-.9.47-1.84.8-2.85 1-1 .16-2.02.24-3.02.24-.4 0-.91-.04-1.52-.12a4.25 4.25 0 0 1-1.55-.63c-.46-.3-.7-.77-.7-1.4 0-.5.21-.89.61-1.16.43-.3.95-.53 1.56-.66a13.94 13.94 0 0 1 3.41-.38c1.3 0 2.52.2 3.67.58h.09a7.63 7.63 0 0 0 1.85-1.9 4.28 4.28 0 0 0 .57-2.77 3.67 3.67 0 0 0-1.86-3.23c-1-.63-2.1-.95-3.28-.95-.81 0-1.69.1-2.64.29-.92.16-1.63.58-2.11 1.24-.23.3-.35.58-.35.83 0 .33.17.56.52.7l1.03.33c.58.17.87.5.87 1 0 .85-.66 1.28-1.99 1.28-.57 0-1.12-.18-1.64-.54a2.3 2.3 0 0 1-.86-1.08 3.94 3.94 0 0 1-.26-1.36v-.46l.08-.45a4.14 4.14 0 0 1 1.52-2.53 6.45 6.45 0 0 1 2.67-1.15c1.04-.23 2.03-.34 2.98-.34 1.16 0 2.28.25 3.37.75a8.11 8.11 0 0 1 2.85 2.07 5.18 5.18 0 0 1 1.34 3.06c.03.2.04.37.04.54v.54c0 1.98-.79 3.72-2.37 5.21v.12a8.54 8.54 0 0 1 2.9 3.23 8.67 8.67 0 0 1-.14 8.44 9.95 9.95 0 0 1-3.62 3.69 12.9 12.9 0 0 1-4.2 1.7c-1.5.35-2.99.53-4.49.53Zm1.86-16.3a9.8 9.8 0 0 0 2.42-.33c.86-.25 1.41-.51 1.64-.8l-.04-.11c-.2-.14-.64-.27-1.3-.38a11.3 11.3 0 0 0-1.94-.16c-.63 0-1.21.07-1.73.2-.49.14-.73.4-.73.79 0 .28.16.48.47.62.32.11.72.17 1.21.17Z"/>
</mask>
<path fill="#F8F9FA" d="M21.75 44.48c-1.38 0-2.9-.26-4.58-.78a146.33 146.33 0 0 1-5.44-1.87l-.74-.29h-.08l-1.34.75a10.51 10.51 0 0 1-2.29.95 6.07 6.07 0 0 1-2.8-.2 6.53 6.53 0 0 1-1.3-.7 1.71 1.71 0 0 1-.78-1.5c0-.25.07-.55.22-.9.28-.64.73-1.08 1.33-1.33.6-.28 1.27-.42 2-.42.74 0 1.53.1 2.37.3.86.19 1.65.4 2.37.61h.09a45.8 45.8 0 0 0 2.85-1.73 95.15 95.15 0 0 0 3.5-2.45c1.2-.9 2.34-1.86 3.41-2.85 1.07-1 1.96-2 2.68-3.02a6.4 6.4 0 0 0 1.3-2.94c.08-.58.12-1.13.12-1.65 0-2.13-.69-3.74-2.07-4.85-1.35-1.13-3.34-1.7-5.96-1.7-1.35 0-2.66.3-3.93.88a8.1 8.1 0 0 0-3.11 2.44 5.64 5.64 0 0 0-1.21 3.6c0 .94.17 1.82.52 2.65a5 5 0 0 0 1.64 1.98 4.53 4.53 0 0 0 3.41.66l.78-.24.26-.09.26-.08c.23-.05.39-.08.47-.08.32 0 .6.1.82.33.26.2.4.43.4.7 0 .33-.2.62-.57.87-.43.3-.95.53-1.55.66-.6.11-1.16.17-1.65.17a6.64 6.64 0 0 1-3.8-1.08 7.32 7.32 0 0 1-2.42-2.81 8.43 8.43 0 0 1 .1-7.4 9.2 9.2 0 0 1 2.41-2.9 11.4 11.4 0 0 1 3.46-1.83c1.26-.44 2.56-.66 3.88-.66 2.08 0 3.86.38 5.36 1.12a8.46 8.46 0 0 1 3.54 3.1 8.3 8.3 0 0 1 1.25 4.6 11 11 0 0 1-.17 1.98 10.18 10.18 0 0 1-1.81 4.06 23.32 23.32 0 0 1-3.42 3.76 40.06 40.06 0 0 1-4.1 3.23c-1.41.97-2.7 1.8-3.89 2.53l.43.2a36.53 36.53 0 0 0 5.27 1.66c.98.22 1.82.33 2.5.33.7 0 1.4-.13 2.08-.37.7-.28 1.04-.78 1.04-1.5 0-.13-.16-.3-.48-.49-.43-.3-.64-.66-.64-1.08 0-.27.1-.5.3-.7.23-.2.5-.29.82-.29.57 0 1.1.25 1.55.75.5.5.74 1.02.74 1.57 0 1.05-.29 1.89-.87 2.52a4.44 4.44 0 0 1-2.07 1.4c-.83.28-1.65.42-2.46.42ZM6.03 41.3c.54 0 1.08-.06 1.6-.17.54-.14.9-.26 1.08-.37l.04-.13c-.17-.22-.58-.4-1.21-.53a6.7 6.7 0 0 0-1.77-.25c-.4 0-.75.05-1.04.16-.29.11-.43.28-.43.5 0 .28.17.48.52.62.34.11.75.17 1.2.17Zm35.86 2.77c-2.65 0-4.8-.54-6.48-1.61a9.42 9.42 0 0 1-3.67-4.14 13.62 13.62 0 0 1-1.17-5.63c0-.94.09-1.89.26-2.86.18-.96.4-1.91.7-2.85a16.7 16.7 0 0 1 3.7-6.25 16.24 16.24 0 0 1 11.8-5.13c1.3 0 2.55.17 3.76.5 1.72.5 3.1 1.3 4.14 2.4a9.54 9.54 0 0 1 2.25 3.8c.46 1.44.69 2.94.69 4.51a18.07 18.07 0 0 1-1.6 7.5 16.59 16.59 0 0 1-8.34 8.44 14 14 0 0 1-6.04 1.32Zm.13-2.32c1.96 0 3.74-.41 5.36-1.24a13.82 13.82 0 0 0 4.23-3.27c1.2-1.38 2.14-2.9 2.8-4.55a13.83 13.83 0 0 0 1.04-4.97 9.4 9.4 0 0 1-3.5 3.19 8.17 8.17 0 0 1-5.92.74 6.36 6.36 0 0 1-2.71-1.36 5.38 5.38 0 0 1-1.43-2.03 5.86 5.86 0 0 1-.43-2.1c0-.73.13-1.35.39-1.87.28-.52.62-.79.99-.79.26 0 .52.14.78.42.31.3.43.66.34 1.07-.11.42-.17.84-.17 1.29 0 1.15.39 2.01 1.17 2.56.8.53 1.74.79 2.8.79 1.04 0 2.08-.22 3.11-.66a6.8 6.8 0 0 0 2.6-2.03 4.88 4.88 0 0 0 1.07-3.19 4.7 4.7 0 0 0-1.12-3.3 6.4 6.4 0 0 0-2.9-1.87 12.57 12.57 0 0 0-8.2.2 13.9 13.9 0 0 0-5.31 3.52 14.47 14.47 0 0 0-3.11 5.42 17.4 17.4 0 0 0-.86 5.26c0 1.57.28 3.03.86 4.39a7.14 7.14 0 0 0 2.9 3.18c1.32.8 3.06 1.2 5.22 1.2Zm36.12 2.73c-1.38 0-2.9-.26-4.58-.78a146.32 146.32 0 0 1-5.44-1.87l-.73-.29h-.09l-1.34.75a10.51 10.51 0 0 1-2.29.95 6.07 6.07 0 0 1-2.8-.2 6.54 6.54 0 0 1-1.3-.7 1.71 1.71 0 0 1-.78-1.5c0-.25.07-.55.22-.9.29-.64.73-1.08 1.34-1.33.6-.28 1.26-.42 1.98-.42.75 0 1.54.1 2.38.3.86.19 1.65.4 2.37.61h.1a43 43 0 0 0 2.84-1.73 95.15 95.15 0 0 0 3.5-2.45c1.2-.9 2.35-1.86 3.41-2.85 1.07-1 1.96-2 2.68-3.02a6.4 6.4 0 0 0 1.3-2.94c.08-.58.13-1.13.13-1.65 0-2.13-.7-3.74-2.08-4.85-1.35-1.13-3.34-1.7-5.96-1.7-1.35 0-2.66.3-3.93.88a8.1 8.1 0 0 0-3.1 2.44 5.64 5.64 0 0 0-1.22 3.6c0 .94.17 1.82.52 2.65a5 5 0 0 0 1.64 1.98 4.53 4.53 0 0 0 3.41.66l.78-.24.26-.09.26-.08c.23-.05.39-.08.47-.08.32 0 .6.1.83.33.25.2.38.43.38.7 0 .33-.18.62-.56.87-.43.3-.95.53-1.55.66-.6.11-1.15.17-1.64.17a6.64 6.64 0 0 1-3.8-1.08 7.32 7.32 0 0 1-2.42-2.81 8.43 8.43 0 0 1 .08-7.4 9.2 9.2 0 0 1 2.42-2.9 11.4 11.4 0 0 1 3.46-1.83c1.26-.44 2.56-.66 3.88-.66 2.08 0 3.86.38 5.36 1.12a8.46 8.46 0 0 1 3.54 3.1 8.3 8.3 0 0 1 1.25 4.6 11 11 0 0 1-.17 1.98 10.18 10.18 0 0 1-1.81 4.06 23.32 23.32 0 0 1-3.41 3.76 40.06 40.06 0 0 1-4.1 3.23c-1.42.97-2.71 1.8-3.9 2.53l.44.2a36.53 36.53 0 0 0 5.27 1.66c.98.22 1.81.33 2.5.33.7 0 1.38-.13 2.07-.37.7-.28 1.04-.78 1.04-1.5 0-.13-.16-.3-.47-.49-.44-.3-.65-.66-.65-1.08 0-.27.1-.5.3-.7.23-.2.5-.29.82-.29.58 0 1.1.25 1.56.75.49.5.73 1.02.73 1.57 0 1.05-.29 1.89-.86 2.52a4.44 4.44 0 0 1-2.08 1.4c-.83.28-1.65.42-2.46.42ZM62.42 41.3c.55 0 1.08-.06 1.6-.17.55-.14.9-.26 1.08-.37l.04-.13c-.17-.22-.57-.4-1.2-.53a6.7 6.7 0 0 0-1.78-.25c-.4 0-.75.05-1.04.16-.28.11-.43.28-.43.5 0 .28.18.48.52.62.35.11.75.17 1.21.17Zm32.1 4.3c-1.12 0-2.23-.2-3.32-.62a11.05 11.05 0 0 1-2.94-1.7 8.58 8.58 0 0 1-2.11-2.44 6 6 0 0 1-.52-4.63c.2-.58.5-1.16.9-1.74a4.16 4.16 0 0 1 1.86-1.5 6.48 6.48 0 0 1 5.05.13 5.2 5.2 0 0 1 2.12 1.58c.55.66.82 1.44.82 2.35 0 .47-.1.82-.3 1.04-.17.2-.4.29-.7.29-.28 0-.57-.11-.86-.33-.25-.25-.4-.57-.43-.95a1.93 1.93 0 0 0-1-1.66 3.34 3.34 0 0 0-1.8-.62c-1.21 0-2.1.3-2.68.91a3 3 0 0 0-.87 2.15c0 .83.28 1.68.82 2.57a6.37 6.37 0 0 0 2.38 2.2c1.04.6 2.3.9 3.8.9 1.27 0 2.53-.16 3.8-.5 1.3-.3 2.48-.78 3.54-1.44a8.17 8.17 0 0 0 2.55-2.57c.66-1.02 1-2.23 1-3.64 0-2.87-1.17-4.88-3.5-6.04h-.09c-.9.47-1.84.8-2.85 1-1 .16-2.02.24-3.02.24-.4 0-.91-.04-1.52-.12a4.25 4.25 0 0 1-1.55-.63c-.46-.3-.7-.77-.7-1.4 0-.5.21-.89.61-1.16.43-.3.95-.53 1.56-.66a13.94 13.94 0 0 1 3.41-.38c1.3 0 2.52.2 3.67.58h.09a7.63 7.63 0 0 0 1.85-1.9 4.28 4.28 0 0 0 .57-2.77 3.67 3.67 0 0 0-1.86-3.23c-1-.63-2.1-.95-3.28-.95-.81 0-1.69.1-2.64.29-.92.16-1.63.58-2.11 1.24-.23.3-.35.58-.35.83 0 .33.17.56.52.7l1.03.33c.58.17.87.5.87 1 0 .85-.66 1.28-1.99 1.28-.57 0-1.12-.18-1.64-.54a2.3 2.3 0 0 1-.86-1.08 3.94 3.94 0 0 1-.26-1.36v-.46l.08-.45a4.14 4.14 0 0 1 1.52-2.53 6.45 6.45 0 0 1 2.67-1.15c1.04-.23 2.03-.34 2.98-.34 1.16 0 2.28.25 3.37.75a8.11 8.11 0 0 1 2.85 2.07 5.18 5.18 0 0 1 1.34 3.06c.03.2.04.37.04.54v.54c0 1.98-.79 3.72-2.37 5.21v.12a8.54 8.54 0 0 1 2.9 3.23 8.67 8.67 0 0 1-.14 8.44 9.95 9.95 0 0 1-3.62 3.69 12.9 12.9 0 0 1-4.2 1.7c-1.5.35-2.99.53-4.49.53Zm1.86-16.3a9.8 9.8 0 0 0 2.42-.33c.86-.25 1.41-.51 1.64-.8l-.04-.11c-.2-.14-.64-.27-1.3-.38a11.3 11.3 0 0 0-1.94-.16c-.63 0-1.21.07-1.73.2-.49.14-.73.4-.73.79 0 .28.16.48.47.62.32.11.72.17 1.21.17Z"/>
<path stroke="#F8F9FA" stroke-width="2.4" d="M21.75 44.48c-1.38 0-2.9-.26-4.58-.78a146.33 146.33 0 0 1-5.44-1.87l-.74-.29h-.08l-1.34.75a10.51 10.51 0 0 1-2.29.95 6.07 6.07 0 0 1-2.8-.2 6.53 6.53 0 0 1-1.3-.7 1.71 1.71 0 0 1-.78-1.5c0-.25.07-.55.22-.9.28-.64.73-1.08 1.33-1.33.6-.28 1.27-.42 2-.42.74 0 1.53.1 2.37.3.86.19 1.65.4 2.37.61h.09a45.8 45.8 0 0 0 2.85-1.73 95.15 95.15 0 0 0 3.5-2.45c1.2-.9 2.34-1.86 3.41-2.85 1.07-1 1.96-2 2.68-3.02a6.4 6.4 0 0 0 1.3-2.94c.08-.58.12-1.13.12-1.65 0-2.13-.69-3.74-2.07-4.85-1.35-1.13-3.34-1.7-5.96-1.7-1.35 0-2.66.3-3.93.88a8.1 8.1 0 0 0-3.11 2.44 5.64 5.64 0 0 0-1.21 3.6c0 .94.17 1.82.52 2.65a5 5 0 0 0 1.64 1.98 4.53 4.53 0 0 0 3.41.66l.78-.24.26-.09.26-.08c.23-.05.39-.08.47-.08.32 0 .6.1.82.33.26.2.4.43.4.7 0 .33-.2.62-.57.87-.43.3-.95.53-1.55.66-.6.11-1.16.17-1.65.17a6.64 6.64 0 0 1-3.8-1.08 7.32 7.32 0 0 1-2.42-2.81 8.43 8.43 0 0 1 .1-7.4 9.2 9.2 0 0 1 2.41-2.9 11.4 11.4 0 0 1 3.46-1.83c1.26-.44 2.56-.66 3.88-.66 2.08 0 3.86.38 5.36 1.12a8.46 8.46 0 0 1 3.54 3.1 8.3 8.3 0 0 1 1.25 4.6 11 11 0 0 1-.17 1.98 10.18 10.18 0 0 1-1.81 4.06 23.32 23.32 0 0 1-3.42 3.76 40.06 40.06 0 0 1-4.1 3.23c-1.41.97-2.7 1.8-3.89 2.53l.43.2a36.53 36.53 0 0 0 5.27 1.66c.98.22 1.82.33 2.5.33.7 0 1.4-.13 2.08-.37.7-.28 1.04-.78 1.04-1.5 0-.13-.16-.3-.48-.49-.43-.3-.64-.66-.64-1.08 0-.27.1-.5.3-.7.23-.2.5-.29.82-.29.57 0 1.1.25 1.55.75.5.5.74 1.02.74 1.57 0 1.05-.29 1.89-.87 2.52a4.44 4.44 0 0 1-2.07 1.4c-.83.28-1.65.42-2.46.42ZM6.03 41.3c.54 0 1.08-.06 1.6-.17.54-.14.9-.26 1.08-.37l.04-.13c-.17-.22-.58-.4-1.21-.53a6.7 6.7 0 0 0-1.77-.25c-.4 0-.75.05-1.04.16-.29.11-.43.28-.43.5 0 .28.17.48.52.62.34.11.75.17 1.2.17Zm35.86 2.77c-2.65 0-4.8-.54-6.48-1.61a9.42 9.42 0 0 1-3.67-4.14 13.62 13.62 0 0 1-1.17-5.63c0-.94.09-1.89.26-2.86.18-.96.4-1.91.7-2.85a16.7 16.7 0 0 1 3.7-6.25 16.24 16.24 0 0 1 11.8-5.13c1.3 0 2.55.17 3.76.5 1.72.5 3.1 1.3 4.14 2.4a9.54 9.54 0 0 1 2.25 3.8c.46 1.44.69 2.94.69 4.51a18.07 18.07 0 0 1-1.6 7.5 16.59 16.59 0 0 1-8.34 8.44 14 14 0 0 1-6.04 1.32Zm.13-2.32c1.96 0 3.74-.41 5.36-1.24a13.82 13.82 0 0 0 4.23-3.27c1.2-1.38 2.14-2.9 2.8-4.55a13.83 13.83 0 0 0 1.04-4.97 9.4 9.4 0 0 1-3.5 3.19 8.17 8.17 0 0 1-5.92.74 6.36 6.36 0 0 1-2.71-1.36 5.38 5.38 0 0 1-1.43-2.03 5.86 5.86 0 0 1-.43-2.1c0-.73.13-1.35.39-1.87.28-.52.62-.79.99-.79.26 0 .52.14.78.42.31.3.43.66.34 1.07-.11.42-.17.84-.17 1.29 0 1.15.39 2.01 1.17 2.56.8.53 1.74.79 2.8.79 1.04 0 2.08-.22 3.11-.66a6.8 6.8 0 0 0 2.6-2.03 4.88 4.88 0 0 0 1.07-3.19 4.7 4.7 0 0 0-1.12-3.3 6.4 6.4 0 0 0-2.9-1.87 12.57 12.57 0 0 0-8.2.2 13.9 13.9 0 0 0-5.31 3.52 14.47 14.47 0 0 0-3.11 5.42 17.4 17.4 0 0 0-.86 5.26c0 1.57.28 3.03.86 4.39a7.14 7.14 0 0 0 2.9 3.18c1.32.8 3.06 1.2 5.22 1.2Zm36.12 2.73c-1.38 0-2.9-.26-4.58-.78a146.32 146.32 0 0 1-5.44-1.87l-.73-.29h-.09l-1.34.75a10.51 10.51 0 0 1-2.29.95 6.07 6.07 0 0 1-2.8-.2 6.54 6.54 0 0 1-1.3-.7 1.71 1.71 0 0 1-.78-1.5c0-.25.07-.55.22-.9.29-.64.73-1.08 1.34-1.33.6-.28 1.26-.42 1.98-.42.75 0 1.54.1 2.38.3.86.19 1.65.4 2.37.61h.1a43 43 0 0 0 2.84-1.73 95.15 95.15 0 0 0 3.5-2.45c1.2-.9 2.35-1.86 3.41-2.85 1.07-1 1.96-2 2.68-3.02a6.4 6.4 0 0 0 1.3-2.94c.08-.58.13-1.13.13-1.65 0-2.13-.7-3.74-2.08-4.85-1.35-1.13-3.34-1.7-5.96-1.7-1.35 0-2.66.3-3.93.88a8.1 8.1 0 0 0-3.1 2.44 5.64 5.64 0 0 0-1.22 3.6c0 .94.17 1.82.52 2.65a5 5 0 0 0 1.64 1.98 4.53 4.53 0 0 0 3.41.66l.78-.24.26-.09.26-.08c.23-.05.39-.08.47-.08.32 0 .6.1.83.33.25.2.38.43.38.7 0 .33-.18.62-.56.87-.43.3-.95.53-1.55.66-.6.11-1.15.17-1.64.17a6.64 6.64 0 0 1-3.8-1.08 7.32 7.32 0 0 1-2.42-2.81 8.43 8.43 0 0 1 .08-7.4 9.2 9.2 0 0 1 2.42-2.9 11.4 11.4 0 0 1 3.46-1.83c1.26-.44 2.56-.66 3.88-.66 2.08 0 3.86.38 5.36 1.12a8.46 8.46 0 0 1 3.54 3.1 8.3 8.3 0 0 1 1.25 4.6 11 11 0 0 1-.17 1.98 10.18 10.18 0 0 1-1.81 4.06 23.32 23.32 0 0 1-3.41 3.76 40.06 40.06 0 0 1-4.1 3.23c-1.42.97-2.71 1.8-3.9 2.53l.44.2a36.53 36.53 0 0 0 5.27 1.66c.98.22 1.81.33 2.5.33.7 0 1.38-.13 2.07-.37.7-.28 1.04-.78 1.04-1.5 0-.13-.16-.3-.47-.49-.44-.3-.65-.66-.65-1.08 0-.27.1-.5.3-.7.23-.2.5-.29.82-.29.58 0 1.1.25 1.56.75.49.5.73 1.02.73 1.57 0 1.05-.29 1.89-.86 2.52a4.44 4.44 0 0 1-2.08 1.4c-.83.28-1.65.42-2.46.42ZM62.42 41.3c.55 0 1.08-.06 1.6-.17.55-.14.9-.26 1.08-.37l.04-.13c-.17-.22-.57-.4-1.2-.53a6.7 6.7 0 0 0-1.78-.25c-.4 0-.75.05-1.04.16-.28.11-.43.28-.43.5 0 .28.18.48.52.62.35.11.75.17 1.21.17Zm32.1 4.3c-1.12 0-2.23-.2-3.32-.62a11.05 11.05 0 0 1-2.94-1.7 8.58 8.58 0 0 1-2.11-2.44 6 6 0 0 1-.52-4.63c.2-.58.5-1.16.9-1.74a4.16 4.16 0 0 1 1.86-1.5 6.48 6.48 0 0 1 5.05.13 5.2 5.2 0 0 1 2.12 1.58c.55.66.82 1.44.82 2.35 0 .47-.1.82-.3 1.04-.17.2-.4.29-.7.29-.28 0-.57-.11-.86-.33-.25-.25-.4-.57-.43-.95a1.93 1.93 0 0 0-1-1.66 3.34 3.34 0 0 0-1.8-.62c-1.21 0-2.1.3-2.68.91a3 3 0 0 0-.87 2.15c0 .83.28 1.68.82 2.57a6.37 6.37 0 0 0 2.38 2.2c1.04.6 2.3.9 3.8.9 1.27 0 2.53-.16 3.8-.5 1.3-.3 2.48-.78 3.54-1.44a8.17 8.17 0 0 0 2.55-2.57c.66-1.02 1-2.23 1-3.64 0-2.87-1.17-4.88-3.5-6.04h-.09c-.9.47-1.84.8-2.85 1-1 .16-2.02.24-3.02.24-.4 0-.91-.04-1.52-.12a4.25 4.25 0 0 1-1.55-.63c-.46-.3-.7-.77-.7-1.4 0-.5.21-.89.61-1.16.43-.3.95-.53 1.56-.66a13.94 13.94 0 0 1 3.41-.38c1.3 0 2.52.2 3.67.58h.09a7.63 7.63 0 0 0 1.85-1.9 4.28 4.28 0 0 0 .57-2.77 3.67 3.67 0 0 0-1.86-3.23c-1-.63-2.1-.95-3.28-.95-.81 0-1.69.1-2.64.29-.92.16-1.63.58-2.11 1.24-.23.3-.35.58-.35.83 0 .33.17.56.52.7l1.03.33c.58.17.87.5.87 1 0 .85-.66 1.28-1.99 1.28-.57 0-1.12-.18-1.64-.54a2.3 2.3 0 0 1-.86-1.08 3.94 3.94 0 0 1-.26-1.36v-.46l.08-.45a4.14 4.14 0 0 1 1.52-2.53 6.45 6.45 0 0 1 2.67-1.15c1.04-.23 2.03-.34 2.98-.34 1.16 0 2.28.25 3.37.75a8.11 8.11 0 0 1 2.85 2.07 5.18 5.18 0 0 1 1.34 3.06c.03.2.04.37.04.54v.54c0 1.98-.79 3.72-2.37 5.21v.12a8.54 8.54 0 0 1 2.9 3.23 8.67 8.67 0 0 1-.14 8.44 9.95 9.95 0 0 1-3.62 3.69 12.9 12.9 0 0 1-4.2 1.7c-1.5.35-2.99.53-4.49.53Zm1.86-16.3a9.8 9.8 0 0 0 2.42-.33c.86-.25 1.41-.51 1.64-.8l-.04-.11c-.2-.14-.64-.27-1.3-.38a11.3 11.3 0 0 0-1.94-.16c-.63 0-1.21.07-1.73.2-.49.14-.73.4-.73.79 0 .28.16.48.47.62.32.11.72.17 1.21.17Z" mask="url(#b)"/>
<path fill="#F8F9FA" d="M2.1 13.12c-.3 0-.52-.08-.67-.24a.97.97 0 0 1-.23-.69V3.64c0-.3.08-.52.23-.68.15-.15.37-.23.66-.23.29 0 .51.08.66.23.17.16.25.38.25.68v5.31h.03l2.37-2.5c.2-.2.36-.34.5-.45.15-.1.35-.16.6-.16s.43.07.56.2c.13.13.2.28.2.47 0 .18-.09.36-.26.54L4.5 9.7v-.75l2.75 2.97c.17.18.25.37.23.56a.63.63 0 0 1-.23.46.85.85 0 0 1-.55.18c-.27 0-.49-.06-.65-.16-.15-.1-.33-.27-.52-.48l-2.5-2.62H3v2.33c0 .62-.3.93-.9.93Zm9.89.02c-.73 0-1.36-.14-1.9-.44-.54-.3-.96-.72-1.25-1.27a4.1 4.1 0 0 1-.45-1.96c0-.56.08-1.07.24-1.51a3.25 3.25 0 0 1 1.88-1.89c.44-.17.93-.26 1.48-.26.73 0 1.36.15 1.9.45.54.3.96.72 1.25 1.27a4 4 0 0 1 .45 1.94 4.3 4.3 0 0 1-.26 1.53 3.08 3.08 0 0 1-1.86 1.9 4.3 4.3 0 0 1-1.48.24Zm0-1.36c.35 0 .67-.09.94-.26.26-.18.47-.43.61-.77.16-.34.24-.77.24-1.28 0-.77-.17-1.34-.5-1.71a1.62 1.62 0 0 0-1.3-.58 1.63 1.63 0 0 0-1.57 1.02c-.13.34-.2.76-.2 1.27 0 .76.16 1.34.48 1.73.33.38.76.58 1.3.58Zm7.8 1.36c-.62 0-1.16-.14-1.63-.44s-.83-.72-1.08-1.27a4.6 4.6 0 0 1-.4-1.96c0-.76.14-1.4.4-1.94a2.87 2.87 0 0 1 2.7-1.72c.59 0 1.1.15 1.53.44.44.28.74.66.9 1.13h-.17V3.64c0-.3.08-.52.23-.68a.94.94 0 0 1 .67-.23c.28 0 .5.08.66.23.16.16.24.38.24.68v8.55c0 .3-.07.53-.23.7-.15.15-.37.23-.66.23a.88.88 0 0 1-.66-.24.97.97 0 0 1-.23-.69v-1.12l.16.43c-.15.5-.44.9-.88 1.2-.44.3-.96.44-1.56.44Zm.5-1.36c.35 0 .66-.09.93-.26.27-.18.48-.43.62-.77.16-.34.23-.77.23-1.28 0-.77-.16-1.34-.49-1.71a1.62 1.62 0 0 0-1.3-.58 1.63 1.63 0 0 0-1.57 1.02c-.14.34-.2.76-.2 1.27 0 .76.15 1.34.48 1.73.33.38.76.58 1.3.58Zm8.89 1.36c-.8 0-1.48-.14-2.06-.44a3.22 3.22 0 0 1-1.34-1.27 3.9 3.9 0 0 1-.46-1.94c0-.73.15-1.37.45-1.92.3-.55.72-.97 1.25-1.28a3.53 3.53 0 0 1 1.83-.48c.5 0 .94.09 1.34.25a2.82 2.82 0 0 1 1.67 1.83c.15.43.23.92.23 1.47 0 .17-.06.3-.19.4a.83.83 0 0 1-.5.13h-4.62V8.85h4.04l-.23.22c0-.44-.07-.81-.2-1.11a1.4 1.4 0 0 0-.56-.68 1.58 1.58 0 0 0-.9-.24c-.41 0-.76.1-1.05.29-.27.18-.5.44-.64.79-.15.33-.22.74-.22 1.2v.1c0 .8.18 1.39.55 1.78.37.38.92.58 1.64.58a3.46 3.46 0 0 0 1.73-.42c.2-.12.38-.16.53-.15a.5.5 0 0 1 .36.16c.1.1.15.22.17.36a.67.67 0 0 1-.08.42.9.9 0 0 1-.36.37c-.34.22-.73.37-1.17.48-.43.1-.84.14-1.21.14Zm5.23-.02c-.3 0-.51-.08-.67-.24a.97.97 0 0 1-.23-.69V3.64c0-.3.08-.52.23-.68a.94.94 0 0 1 .67-.23c.28 0 .5.08.66.23.16.16.24.38.24.68v5.31h.03l2.38-2.5c.2-.2.36-.34.5-.45.15-.1.34-.16.6-.16.24 0 .43.07.55.2.14.13.2.28.2.47 0 .18-.08.36-.25.54l-2.5 2.65v-.75l2.74 2.97c.17.18.25.37.23.56a.63.63 0 0 1-.23.46.85.85 0 0 1-.55.18c-.26 0-.48-.06-.64-.16-.16-.1-.33-.27-.52-.48l-2.5-2.62h-.04v2.33c0 .62-.3.93-.9.93Zm9.07.02c-.5 0-.96-.1-1.37-.28-.39-.2-.7-.47-.93-.81a2.03 2.03 0 0 1-.33-1.14c0-.52.13-.92.4-1.22.27-.3.7-.53 1.31-.66.6-.14 1.42-.2 2.43-.2h.72v1.03h-.7a9 9 0 0 0-1.43.09c-.35.05-.6.16-.76.3a.77.77 0 0 0-.22.58 1 1 0 0 0 .34.77c.22.2.52.3.92.3.31 0 .6-.07.83-.21.25-.15.45-.36.6-.62.14-.26.2-.56.2-.9V8.53c0-.48-.1-.82-.3-1.04-.22-.2-.57-.31-1.07-.31a4.52 4.52 0 0 0-1.92.44.71.71 0 0 1-.49.08.55.55 0 0 1-.32-.23.76.76 0 0 1-.11-.4c0-.15.04-.29.11-.42a.69.69 0 0 1 .4-.32 6.54 6.54 0 0 1 2.38-.5c.7 0 1.26.1 1.7.31.45.21.79.53 1.01.97.22.42.33.97.33 1.64v3.45c0 .3-.07.53-.21.7a.83.83 0 0 1-.62.23.86.86 0 0 1-.64-.24c-.14-.16-.21-.39-.21-.69v-.69h.11a2 2 0 0 1-1.14 1.44c-.3.14-.63.2-1.02.2Zm7.96 0c-.8 0-1.4-.22-1.8-.67-.4-.46-.6-1.14-.6-2.02V3.64c0-.3.08-.52.23-.68.15-.15.37-.23.66-.23.29 0 .51.08.66.23.17.16.25.38.25.68v6.72c0 .45.09.77.27.98.2.22.46.32.8.32h.23l.2-.03c.13-.02.22.02.27.12.05.08.07.27.07.54 0 .24-.05.43-.14.57-.1.13-.26.21-.48.24a33.78 33.78 0 0 1-.62.04Zm5.6 0c-.8 0-1.49-.14-2.06-.44a3.22 3.22 0 0 1-1.34-1.27 3.9 3.9 0 0 1-.46-1.94c0-.73.15-1.37.44-1.92.31-.55.73-.97 1.26-1.28a3.53 3.53 0 0 1 1.83-.48c.5 0 .94.09 1.34.25a2.82 2.82 0 0 1 1.67 1.83c.15.43.23.92.23 1.47 0 .17-.07.3-.2.4a.83.83 0 0 1-.5.13h-4.62V8.85h4.05l-.23.22c0-.44-.07-.81-.2-1.11a1.4 1.4 0 0 0-.56-.68 1.58 1.58 0 0 0-.91-.24c-.4 0-.75.1-1.04.29-.28.18-.5.44-.65.79a3.1 3.1 0 0 0-.21 1.2v.1c0 .8.18 1.39.54 1.78.38.38.93.58 1.65.58a3.46 3.46 0 0 0 1.73-.42.9.9 0 0 1 .53-.15.5.5 0 0 1 .36.16c.1.1.15.22.17.36a.67.67 0 0 1-.09.42.9.9 0 0 1-.36.37c-.33.22-.72.37-1.16.48-.43.1-.84.14-1.21.14Zm5.22-.02a.9.9 0 0 1-.66-.24.97.97 0 0 1-.23-.69V6.75c0-.3.08-.52.23-.68a.88.88 0 0 1 .65-.23c.28 0 .5.08.65.23.15.16.23.38.23.68v.98l-.16-.36c.21-.5.54-.9.98-1.15.45-.27.96-.4 1.53-.4.56 0 1.03.1 1.4.31.36.21.63.53.81.97.19.42.28.96.28 1.6v3.5c0 .3-.08.52-.23.68a.9.9 0 0 1-.67.24.95.95 0 0 1-.67-.24.97.97 0 0 1-.23-.69V8.8c0-.54-.1-.94-.32-1.19-.2-.25-.52-.37-.95-.37-.53 0-.95.16-1.27.5-.3.33-.46.76-.46 1.31v3.15c0 .62-.3.93-.9.93Zm10.24.02c-.61 0-1.15-.14-1.62-.44-.47-.3-.83-.72-1.08-1.27a4.6 4.6 0 0 1-.4-1.96c0-.76.14-1.4.4-1.94a2.87 2.87 0 0 1 2.7-1.72c.59 0 1.1.15 1.53.44.44.28.74.66.9 1.13h-.17V3.64c0-.3.08-.52.23-.68a.94.94 0 0 1 .67-.23c.28 0 .5.08.66.23.16.16.24.38.24.68v8.55c0 .3-.07.53-.23.7-.15.15-.37.23-.66.23a.88.88 0 0 1-.66-.24.97.97 0 0 1-.23-.69v-1.12l.16.43c-.15.5-.44.9-.88 1.2-.44.3-.96.44-1.56.44Zm.5-1.36c.36 0 .67-.09.94-.26.27-.18.48-.43.62-.77.16-.34.23-.77.23-1.28 0-.77-.16-1.34-.49-1.71a1.62 1.62 0 0 0-1.3-.58 1.63 1.63 0 0 0-1.57 1.02c-.14.34-.2.76-.2 1.27 0 .76.15 1.34.48 1.73.33.38.76.58 1.3.58Zm8.9 1.36c-.8 0-1.48-.14-2.06-.44a3.22 3.22 0 0 1-1.34-1.27 3.9 3.9 0 0 1-.46-1.94c0-.73.15-1.37.45-1.92.3-.55.72-.97 1.25-1.28a3.53 3.53 0 0 1 1.83-.48c.5 0 .94.09 1.34.25a2.82 2.82 0 0 1 1.67 1.83c.15.43.23.92.23 1.47 0 .17-.06.3-.19.4a.83.83 0 0 1-.5.13H79.5V8.85h4.04l-.23.22c0-.44-.07-.81-.2-1.11a1.4 1.4 0 0 0-.56-.68 1.58 1.58 0 0 0-.9-.24c-.41 0-.76.1-1.05.29-.27.18-.49.44-.64.79-.15.33-.22.74-.22 1.2v.1c0 .8.18 1.39.55 1.78.37.38.92.58 1.64.58a3.46 3.46 0 0 0 1.73-.42c.2-.12.38-.16.53-.15a.5.5 0 0 1 .36.16c.1.1.15.22.17.36a.67.67 0 0 1-.08.42.9.9 0 0 1-.36.37c-.34.22-.73.37-1.17.48-.43.1-.84.14-1.21.14Zm5.26-.02a.97.97 0 0 1-.7-.24.97.97 0 0 1-.23-.69V6.75c0-.3.08-.52.23-.68a.88.88 0 0 1 .65-.23c.28 0 .5.08.65.23.15.16.23.38.23.68v.9h-.14c.13-.57.4-1 .79-1.3a3 3 0 0 1 1.57-.54c.2-.01.36.04.47.16.13.12.2.3.22.55a.77.77 0 0 1-.17.59.9.9 0 0 1-.58.26l-.32.03c-.58.06-1.02.24-1.32.55-.3.3-.45.72-.45 1.26v2.98c0 .3-.07.53-.23.7-.15.15-.38.23-.67.23Z"/>
<path fill="#751C15" d="M100.69 3.29c-3.14.98-4.75 4.07-5.34 5.28l12.97 3.59 1.22 2.65c-.01.97-.37 2.17-.27 4.53.1 2.36 3.12 4.3 4.44 4.31l1.55-2.53c-.36-.24-1.5-.04-2.23-1.65-.56-1.22.68-3.35 1.33-5.17.64-1.82 1.5-6.43-2.34-8.87-3.65-2.33-7.24-3.43-11.33-2.14Z"/>
<ellipse cx="3.12" cy="3.22" fill="#F8F9FA" rx="3.12" ry="3.22" transform="rotate(19.56 .33 338.64)skewX(.13)"/>
<path fill="#F8F9FA" d="M98.77 10.13a2.85 2.85 0 0 1-3.61 1.8 2.87 2.87 0 0 1-1.69-3.68 2.85 2.85 0 0 1 3.62-1.8 2.87 2.87 0 0 1 1.68 3.68Z"/>
<path fill="#F8F9FA" d="M102.62 10.47a2.85 2.85 0 0 1-3.61 1.8 2.87 2.87 0 0 1-1.68-3.68 2.85 2.85 0 0 1 3.61-1.8 2.87 2.87 0 0 1 1.68 3.68Zm10.76 5.19a2.85 2.85 0 0 1-3.62 1.8 2.87 2.87 0 0 1-1.68-3.68 2.85 2.85 0 0 1 3.61-1.8 2.87 2.87 0 0 1 1.69 3.68Z"/>
<path fill="#F8F9FA" d="M106.96 11.33a3.17 3.17 0 0 1-4.02 2 3.18 3.18 0 0 1-1.87-4.1 3.17 3.17 0 0 1 4.02-1.99 3.18 3.18 0 0 1 1.87 4.09Z"/>
<path fill="#F8F9FA" d="M110.68 13a3.17 3.17 0 0 1-4.02 1.99 3.18 3.18 0 0 1-1.87-4.09 3.17 3.17 0 0 1 4.02-2 3.18 3.18 0 0 1 1.87 4.1Z"/>
</g>
<defs>
<clipPath id="a">
<path fill="#fff" d="M0 0h120v48H0z"/>
</clipPath>
</defs>
</svg>
