<svg xmlns="http://www.w3.org/2000/svg" fill="none" viewBox="0 0 120 48" xmlns:xlink="http://www.w3.org/1999/xlink">
<g clip-path="url(#Kodekalender_Logo_Desktop_svg__a)">
<path fill="#F8F9FA" d="M2.1 13.12c-.3 0-.52-.08-.67-.24a.97.97 0 0 1-.23-.69V3.64c0-.3.08-.52.23-.68.15-.15.37-.23.66-.23.29 0 .51.08.66.23.17.16.25.38.25.68v5.31h.03l2.37-2.5c.2-.2.36-.34.5-.45.15-.1.35-.16.6-.16s.43.07.56.2c.13.13.2.28.2.47 0 .18-.09.36-.26.54L4.5 9.7v-.75l2.75 2.97c.17.18.25.37.23.56a.63.63 0 0 1-.23.46.85.85 0 0 1-.55.18c-.27 0-.49-.06-.65-.16-.15-.1-.33-.27-.52-.48l-2.5-2.62H3v2.33c0 .62-.3.93-.9.93Zm9.89.02c-.73 0-1.36-.14-1.9-.44-.54-.3-.96-.72-1.25-1.27a4.1 4.1 0 0 1-.45-1.96c0-.56.08-1.07.24-1.51a3.25 3.25 0 0 1 1.88-1.89c.44-.17.93-.26 1.48-.26.73 0 1.36.15 1.9.45.54.3.96.72 1.25 1.27a4 4 0 0 1 .45 1.94 4.3 4.3 0 0 1-.26 1.53 3.08 3.08 0 0 1-1.86 1.9 4.3 4.3 0 0 1-1.48.24Zm0-1.36c.35 0 .67-.09.94-.26.26-.18.47-.43.61-.77.16-.34.24-.77.24-1.28 0-.77-.17-1.34-.5-1.71a1.62 1.62 0 0 0-1.3-.58 1.63 1.63 0 0 0-1.57 1.02c-.13.34-.2.76-.2 1.27 0 .76.16 1.34.48 1.73.33.38.76.58 1.3.58Zm7.8 1.36c-.62 0-1.16-.14-1.63-.44s-.83-.72-1.08-1.27a4.6 4.6 0 0 1-.4-1.96c0-.76.14-1.4.4-1.94a2.87 2.87 0 0 1 2.7-1.72c.59 0 1.1.15 1.53.44.44.28.74.66.9 1.13h-.17V3.64c0-.3.08-.52.23-.68a.94.94 0 0 1 .67-.23c.28 0 .5.08.66.23.16.16.24.38.24.68v8.55c0 .3-.07.53-.23.7-.15.15-.37.23-.66.23a.88.88 0 0 1-.66-.24.97.97 0 0 1-.23-.69v-1.12l.16.43c-.15.5-.44.9-.88 1.2-.44.3-.96.44-1.56.44Zm.5-1.36c.35 0 .66-.09.93-.26.27-.18.48-.43.62-.77.16-.34.23-.77.23-1.28 0-.77-.16-1.34-.49-1.71a1.62 1.62 0 0 0-1.3-.58 1.63 1.63 0 0 0-1.57 1.02c-.14.34-.2.76-.2 1.27 0 .76.15 1.34.48 1.73.33.38.76.58 1.3.58Zm8.89 1.36c-.8 0-1.48-.14-2.06-.44a3.22 3.22 0 0 1-1.34-1.27 3.9 3.9 0 0 1-.46-1.94c0-.73.15-1.37.45-1.92.3-.55.72-.97 1.25-1.28a3.53 3.53 0 0 1 1.83-.48c.5 0 .94.09 1.34.25a2.82 2.82 0 0 1 1.67 1.83c.15.43.23.92.23 1.47 0 .17-.06.3-.19.4a.83.83 0 0 1-.5.13h-4.62V8.85h4.04l-.23.22c0-.44-.07-.81-.2-1.11a1.4 1.4 0 0 0-.56-.68 1.58 1.58 0 0 0-.9-.24c-.41 0-.76.1-1.05.29-.27.18-.5.44-.64.79-.15.33-.22.74-.22 1.2v.1c0 .8.18 1.39.55 1.78.37.38.92.58 1.64.58a3.46 3.46 0 0 0 1.73-.42c.2-.12.38-.16.53-.15a.5.5 0 0 1 .36.16c.1.1.15.22.17.36a.67.67 0 0 1-.08.42.9.9 0 0 1-.36.37c-.34.22-.73.37-1.17.48-.43.1-.84.14-1.21.14Zm5.23-.02c-.3 0-.51-.08-.67-.24a.97.97 0 0 1-.23-.69V3.64c0-.3.08-.52.23-.68a.94.94 0 0 1 .67-.23c.28 0 .5.08.66.23.16.16.24.38.24.68v5.31h.03l2.38-2.5c.2-.2.36-.34.5-.45.15-.1.34-.16.6-.16.24 0 .43.07.55.2.14.13.2.28.2.47 0 .18-.08.36-.25.54l-2.5 2.65v-.75l2.74 2.97c.17.18.25.37.23.56a.63.63 0 0 1-.23.46.85.85 0 0 1-.55.18c-.26 0-.48-.06-.64-.16-.16-.1-.33-.27-.52-.48l-2.5-2.62h-.04v2.33c0 .62-.3.93-.9.93Zm9.07.02c-.5 0-.96-.1-1.37-.28-.39-.2-.7-.47-.93-.81a2.03 2.03 0 0 1-.33-1.14c0-.52.13-.92.4-1.22.27-.3.7-.53 1.31-.66.6-.14 1.42-.2 2.43-.2h.72v1.03h-.7a9 9 0 0 0-1.43.09c-.35.05-.6.16-.76.3a.77.77 0 0 0-.22.58 1 1 0 0 0 .34.77c.22.2.52.3.92.3.31 0 .6-.07.83-.21.25-.15.45-.36.6-.62.14-.26.2-.56.2-.9V8.53c0-.48-.1-.82-.3-1.04-.22-.2-.57-.31-1.07-.31a4.52 4.52 0 0 0-1.92.44.71.71 0 0 1-.49.08.55.55 0 0 1-.32-.23.76.76 0 0 1-.11-.4c0-.15.04-.29.11-.42a.69.69 0 0 1 .4-.32 6.54 6.54 0 0 1 2.38-.5c.7 0 1.26.1 1.7.31.45.21.79.53 1.01.97.22.42.33.97.33 1.64v3.45c0 .3-.07.53-.21.7a.83.83 0 0 1-.62.23.86.86 0 0 1-.64-.24c-.14-.16-.21-.39-.21-.69v-.69h.11a2 2 0 0 1-1.14 1.44c-.3.14-.63.2-1.02.2Zm7.96 0c-.8 0-1.4-.22-1.8-.67-.4-.46-.6-1.14-.6-2.02V3.64c0-.3.08-.52.23-.68.15-.15.37-.23.66-.23.29 0 .51.08.66.23.17.16.25.38.25.68v6.72c0 .45.09.77.27.98.2.22.46.32.8.32h.23l.2-.03c.13-.02.22.02.27.12.05.08.07.27.07.54 0 .24-.05.43-.14.57-.1.13-.26.21-.48.24a33.78 33.78 0 0 1-.62.04Zm5.6 0c-.8 0-1.49-.14-2.06-.44a3.22 3.22 0 0 1-1.34-1.27 3.9 3.9 0 0 1-.46-1.94c0-.73.15-1.37.44-1.92.31-.55.73-.97 1.26-1.28a3.53 3.53 0 0 1 1.83-.48c.5 0 .94.09 1.34.25a2.82 2.82 0 0 1 1.67 1.83c.15.43.23.92.23 1.47 0 .17-.07.3-.2.4a.83.83 0 0 1-.5.13h-4.62V8.85h4.05l-.23.22c0-.44-.07-.81-.2-1.11a1.4 1.4 0 0 0-.56-.68 1.58 1.58 0 0 0-.91-.24c-.4 0-.75.1-1.04.29-.28.18-.5.44-.65.79a3.1 3.1 0 0 0-.21 1.2v.1c0 .8.18 1.39.54 1.78.38.38.93.58 1.65.58a3.46 3.46 0 0 0 1.73-.42.9.9 0 0 1 .53-.15.5.5 0 0 1 .36.16c.1.1.15.22.17.36a.67.67 0 0 1-.09.42.9.9 0 0 1-.36.37c-.33.22-.72.37-1.16.48-.43.1-.84.14-1.21.14Zm5.22-.02a.9.9 0 0 1-.66-.24.97.97 0 0 1-.23-.69V6.75c0-.3.08-.52.23-.68a.88.88 0 0 1 .65-.23c.28 0 .5.08.65.23.15.16.23.38.23.68v.98l-.16-.36c.21-.5.54-.9.98-1.15.45-.27.96-.4 1.53-.4.56 0 1.03.1 1.4.31.36.21.63.53.81.97.19.42.28.96.28 1.6v3.5c0 .3-.08.52-.23.68a.9.9 0 0 1-.67.24.95.95 0 0 1-.67-.24.97.97 0 0 1-.23-.69V8.8c0-.54-.1-.94-.32-1.19-.2-.25-.52-.37-.95-.37-.53 0-.95.16-1.27.5-.3.33-.46.76-.46 1.31v3.15c0 .62-.3.93-.9.93Zm10.24.02c-.61 0-1.15-.14-1.62-.44-.47-.3-.83-.72-1.08-1.27a4.6 4.6 0 0 1-.4-1.96c0-.76.14-1.4.4-1.94a2.87 2.87 0 0 1 2.7-1.72c.59 0 1.1.15 1.53.44.44.28.74.66.9 1.13h-.17V3.64c0-.3.08-.52.23-.68a.94.94 0 0 1 .67-.23c.28 0 .5.08.66.23.16.16.24.38.24.68v8.55c0 .3-.07.53-.23.7-.15.15-.37.23-.66.23a.88.88 0 0 1-.66-.24.97.97 0 0 1-.23-.69v-1.12l.16.43c-.15.5-.44.9-.88 1.2-.44.3-.96.44-1.56.44Zm.5-1.36c.36 0 .67-.09.94-.26.27-.18.48-.43.62-.77.16-.34.23-.77.23-1.28 0-.77-.16-1.34-.49-1.71a1.62 1.62 0 0 0-1.3-.58 1.63 1.63 0 0 0-1.57 1.02c-.14.34-.2.76-.2 1.27 0 .76.15 1.34.48 1.73.33.38.76.58 1.3.58Zm8.9 1.36c-.8 0-1.48-.14-2.06-.44a3.22 3.22 0 0 1-1.34-1.27 3.9 3.9 0 0 1-.46-1.94c0-.73.15-1.37.45-1.92.3-.55.72-.97 1.25-1.28a3.53 3.53 0 0 1 1.83-.48c.5 0 .94.09 1.34.25a2.82 2.82 0 0 1 1.67 1.83c.15.43.23.92.23 1.47 0 .17-.06.3-.19.4a.83.83 0 0 1-.5.13H79.5V8.85h4.04l-.23.22c0-.44-.07-.81-.2-1.11a1.4 1.4 0 0 0-.56-.68 1.58 1.58 0 0 0-.9-.24c-.41 0-.76.1-1.05.29-.27.18-.49.44-.64.79-.15.33-.22.74-.22 1.2v.1c0 .8.18 1.39.55 1.78.37.38.92.58 1.64.58a3.46 3.46 0 0 0 1.73-.42c.2-.12.38-.16.53-.15a.5.5 0 0 1 .36.16c.1.1.15.22.17.36a.67.67 0 0 1-.08.42.9.9 0 0 1-.36.37c-.34.22-.73.37-1.17.48-.43.1-.84.14-1.21.14Zm5.26-.02a.97.97 0 0 1-.7-.24.97.97 0 0 1-.23-.69V6.75c0-.3.08-.52.23-.68a.88.88 0 0 1 .65-.23c.28 0 .5.08.65.23.15.16.23.38.23.68v.9h-.14c.13-.57.4-1 .79-1.3a3 3 0 0 1 1.57-.54c.2-.01.36.04.47.16.13.12.2.3.22.55a.77.77 0 0 1-.17.59.9.9 0 0 1-.58.26l-.32.03c-.58.06-1.02.24-1.32.55-.3.3-.45.72-.45 1.26v2.98c0 .3-.07.53-.23.7-.15.15-.38.23-.67.23Z"/>
<path fill="#751C15" d="M100.69 3.29c-3.14.98-4.75 4.07-5.34 5.28l12.97 3.59 1.22 2.65c-.01.97-.37 2.17-.27 4.53.1 2.36 3.12 4.3 4.44 4.31l1.55-2.53c-.36-.24-1.5-.04-2.23-1.65-.56-1.22.68-3.35 1.33-5.17.64-1.82 1.5-6.43-2.34-8.87-3.65-2.33-7.24-3.43-11.33-2.14Z"/>
<ellipse cx="3.12" cy="3.22" fill="#F8F9FA" rx="3.12" ry="3.22" transform="rotate(19.56 .33 338.64)skewX(.13)"/>
<path fill="#F8F9FA" d="M98.77 10.13a2.85 2.85 0 0 1-3.61 1.8 2.87 2.87 0 0 1-1.69-3.68 2.85 2.85 0 0 1 3.62-1.8 2.87 2.87 0 0 1 1.68 3.68Z"/>
<path fill="#F8F9FA" d="M102.62 10.47a2.85 2.85 0 0 1-3.61 1.8 2.87 2.87 0 0 1-1.68-3.68 2.85 2.85 0 0 1 3.61-1.8 2.87 2.87 0 0 1 1.68 3.68Zm10.76 5.19a2.85 2.85 0 0 1-3.62 1.8 2.87 2.87 0 0 1-1.68-3.68 2.85 2.85 0 0 1 3.61-1.8 2.87 2.87 0 0 1 1.69 3.68Z"/>
<path fill="#F8F9FA" d="M106.96 11.33a3.17 3.17 0 0 1-4.02 2 3.18 3.18 0 0 1-1.87-4.1 3.17 3.17 0 0 1 4.02-1.99 3.18 3.18 0 0 1 1.87 4.09Z"/>
<path fill="#F8F9FA" d="M110.68 13a3.17 3.17 0 0 1-4.02 1.99 3.18 3.18 0 0 1-1.87-4.09 3.17 3.17 0 0 1 4.02-2 3.18 3.18 0 0 1 1.87 4.1Z"/>
<mask id="Kodekalender_Logo_Desktop_svg__b" width="110" height="34" x="0" y="14" fill="#000" maskUnits="userSpaceOnUse">
<path fill="#fff" d="M0 14h110v34H0z"/>
<path d="M21.25 45.24c-1.37 0-2.9-.28-4.55-.82a141.44 141.44 0 0 1-5.42-1.94l-.73-.3h-.09a55 55 0 0 1-1.33.78 10.27 10.27 0 0 1-2.28.99 5.8 5.8 0 0 1-2.8-.21A6.42 6.42 0 0 1 2.76 43 1.8 1.8 0 0 1 2 41.45c0-.26.07-.57.21-.94.3-.66.74-1.12 1.34-1.38.6-.29 1.26-.43 1.98-.43.74 0 1.53.1 2.36.3.86.2 1.65.42 2.37.65h.08a42.3 42.3 0 0 0 2.84-1.81 94.88 94.88 0 0 0 3.48-2.54c1.2-.94 2.34-1.93 3.4-2.96a20.16 20.16 0 0 0 2.67-3.14A6.75 6.75 0 0 0 24 26.14c.08-.6.12-1.17.12-1.72 0-2.2-.68-3.88-2.06-5.03-1.35-1.17-3.32-1.76-5.93-1.76-1.35 0-2.65.3-3.92.9a8.12 8.12 0 0 0-3.1 2.54 6.02 6.02 0 0 0-1.2 3.74c0 .98.18 1.9.52 2.75.37.83.92 1.52 1.63 2.07a4.37 4.37 0 0 0 3.4.69c.26-.1.52-.18.77-.26l.26-.09.26-.08c.23-.06.39-.1.47-.1.32 0 .6.12.82.35.26.2.39.45.39.73 0 .35-.19.65-.56.9-.43.32-.95.55-1.55.7a8.8 8.8 0 0 1-1.63.17 6.41 6.41 0 0 1-3.79-1.12 7.53 7.53 0 0 1-2.4-2.93 9.08 9.08 0 0 1 .08-7.7 9.47 9.47 0 0 1 2.4-3 11.2 11.2 0 0 1 3.45-1.9c1.26-.45 2.55-.68 3.87-.68 2.06 0 3.84.38 5.33 1.16a8.54 8.54 0 0 1 4.77 8 11.9 11.9 0 0 1-.17 2.06 10.8 10.8 0 0 1-1.8 4.22 23.9 23.9 0 0 1-3.4 3.9 40.19 40.19 0 0 1-4.09 3.36c-1.4 1-2.7 1.88-3.87 2.63l.43.21a35.2 35.2 0 0 0 5.25 1.72c.97.23 1.8.34 2.5.34a5.8 5.8 0 0 0 2.06-.38c.69-.29 1.03-.8 1.03-1.55 0-.14-.16-.32-.47-.52-.43-.31-.65-.69-.65-1.12a1 1 0 0 1 .3-.73c.23-.2.5-.3.82-.3.57 0 1.09.26 1.55.78.49.51.73 1.06.73 1.63 0 1.09-.29 1.96-.86 2.62a4.42 4.42 0 0 1-2.07 1.47c-.83.28-1.64.43-2.45.43ZM5.6 41.92c.55 0 1.08-.05 1.6-.17.54-.14.9-.27 1.07-.38l.04-.13c-.17-.23-.57-.42-1.2-.56a6.4 6.4 0 0 0-1.77-.26c-.4 0-.74.06-1.03.17-.28.12-.43.29-.43.52 0 .28.17.5.52.64.34.12.74.17 1.2.17Zm36.14 2.89c-2.64 0-4.8-.56-6.45-1.68a9.67 9.67 0 0 1-3.66-4.3 14.69 14.69 0 0 1-1.16-5.85c0-.97.09-1.96.26-2.97.17-1 .4-1.99.69-2.96.8-2.5 2.03-4.66 3.7-6.5a16.14 16.14 0 0 1 11.73-5.33c1.3 0 2.54.17 3.74.52a8.81 8.81 0 0 1 4.13 2.5 10.01 10.01 0 0 1 2.24 3.95c.46 1.49.69 3.05.69 4.68a19.58 19.58 0 0 1-1.6 7.79 17.81 17.81 0 0 1-3.35 5.16 16.53 16.53 0 0 1-4.94 3.61 13.45 13.45 0 0 1-6.02 1.38Zm.13-2.41c1.94 0 3.72-.43 5.33-1.3a13.57 13.57 0 0 0 4.21-3.39 16.48 16.48 0 0 0 2.8-4.73c.66-1.72 1-3.44 1.03-5.16a9.52 9.52 0 0 1-3.48 3.31 7.8 7.8 0 0 1-5.9.77 6.23 6.23 0 0 1-2.7-1.41 5.6 5.6 0 0 1-1.42-2.11 6.32 6.32 0 0 1-.43-2.2c0-.74.13-1.38.38-1.93.29-.54.62-.82 1-.82.25 0 .5.15.77.43.31.32.43.7.34 1.12a5.4 5.4 0 0 0-.17 1.34c0 1.2.39 2.09 1.16 2.66.8.55 1.73.82 2.8.82 1.03 0 2.06-.23 3.09-.69a6.82 6.82 0 0 0 2.58-2.1 5.22 5.22 0 0 0 1.08-3.32 5.1 5.1 0 0 0-1.12-3.44 6.35 6.35 0 0 0-2.88-1.93 12.04 12.04 0 0 0-8.17.21 13.8 13.8 0 0 0-5.3 3.66 15.21 15.21 0 0 0-3.09 5.63 18.8 18.8 0 0 0-.86 5.46c0 1.64.29 3.16.86 4.56a7.32 7.32 0 0 0 2.88 3.31 9.67 9.67 0 0 0 5.2 1.25Zm36.39 2.84c-1.38 0-2.9-.28-4.56-.82a141.44 141.44 0 0 1-5.42-1.94l-.73-.3h-.09l-1.33.78a10.27 10.27 0 0 1-2.28.99 5.8 5.8 0 0 1-2.8-.21 6.42 6.42 0 0 1-1.28-.74 1.8 1.8 0 0 1-.78-1.55c0-.26.08-.57.22-.94.29-.66.73-1.12 1.33-1.38.6-.29 1.26-.43 1.98-.43.74 0 1.53.1 2.36.3.86.2 1.65.42 2.37.65h.09a42.4 42.4 0 0 0 2.83-1.81 94.88 94.88 0 0 0 3.49-2.54c1.2-.94 2.33-1.93 3.4-2.96a20.16 20.16 0 0 0 2.66-3.14 6.76 6.76 0 0 0 1.29-3.06c.09-.6.13-1.17.13-1.72 0-2.2-.69-3.88-2.07-5.03-1.34-1.17-3.32-1.76-5.93-1.76-1.35 0-2.65.3-3.91.9a8.12 8.12 0 0 0-3.1 2.54 6.02 6.02 0 0 0-1.2 3.74c0 .98.17 1.9.51 2.75.38.83.92 1.52 1.64 2.07a4.37 4.37 0 0 0 4.17.43l.26-.09.25-.08c.23-.06.4-.1.48-.1.31 0 .59.12.81.35.26.2.4.45.4.73 0 .35-.2.65-.57.9-.43.32-.94.55-1.55.7a8.8 8.8 0 0 1-1.63.17 6.41 6.41 0 0 1-3.78-1.12 7.53 7.53 0 0 1-2.41-2.93 9.08 9.08 0 0 1 .08-7.7 9.47 9.47 0 0 1 2.41-3 11.2 11.2 0 0 1 3.44-1.9c1.26-.45 2.55-.68 3.87-.68 2.07 0 3.84.38 5.33 1.16a8.55 8.55 0 0 1 4.78 8 11.9 11.9 0 0 1-.17 2.06 10.8 10.8 0 0 1-1.81 4.22 23.9 23.9 0 0 1-3.4 3.9 40.2 40.2 0 0 1-4.08 3.36c-1.4 1-2.7 1.88-3.87 2.63l.43.21a35.2 35.2 0 0 0 5.25 1.72c.97.23 1.8.34 2.49.34.69 0 1.37-.12 2.06-.38.69-.29 1.03-.8 1.03-1.55 0-.14-.15-.32-.47-.52-.43-.31-.64-.69-.64-1.12a1 1 0 0 1 .3-.73c.23-.2.5-.3.81-.3.58 0 1.1.26 1.55.78.49.51.73 1.06.73 1.63 0 1.09-.28 1.96-.86 2.62a4.42 4.42 0 0 1-2.06 1.47c-.83.28-1.65.43-2.45.43ZM62.6 41.92c.54 0 1.07-.05 1.59-.17.54-.14.9-.27 1.07-.38l.04-.13c-.17-.23-.57-.42-1.2-.56a6.4 6.4 0 0 0-1.76-.26c-.4 0-.75.06-1.03.17-.3.12-.43.29-.43.52 0 .28.17.5.51.64.35.12.75.17 1.2.17ZM95 46.4a8.95 8.95 0 0 1-3.31-.65A10.9 10.9 0 0 1 88.76 44a8.81 8.81 0 0 1-2.1-2.54 6.44 6.44 0 0 1-.52-4.81c.2-.6.5-1.2.9-1.81a4.18 4.18 0 0 1 1.85-1.55 6.22 6.22 0 0 1 7.14 1.77c.55.68.82 1.5.82 2.45 0 .48-.1.84-.3 1.07-.18.2-.4.3-.7.3-.28 0-.56-.11-.85-.34a1.5 1.5 0 0 1-.43-1 2.02 2.02 0 0 0-.99-1.71 3.23 3.23 0 0 0-1.8-.65c-1.21 0-2.1.32-2.67.95a3.21 3.21 0 0 0-.86 2.24c0 .86.27 1.74.81 2.66a6.46 6.46 0 0 0 2.37 2.28c1.03.63 2.3.95 3.78.95 1.26 0 2.53-.17 3.79-.52a11.4 11.4 0 0 0 3.52-1.5 8.34 8.34 0 0 0 2.54-2.67 7 7 0 0 0 .99-3.78c0-2.99-1.16-5.08-3.48-6.28h-.09c-.89.49-1.83.83-2.84 1.03-1 .17-2 .26-3 .26a11 11 0 0 1-1.51-.13 4.13 4.13 0 0 1-1.55-.65c-.46-.31-.69-.8-.69-1.46 0-.51.2-.92.6-1.2.43-.32.95-.55 1.55-.69a14.08 14.08 0 0 1 3.4-.39 11 11 0 0 1 3.65.6h.09a7.8 7.8 0 0 0 1.85-1.97 4.61 4.61 0 0 0 .56-2.88c0-.18-.02-.36-.05-.56a3.82 3.82 0 0 0-1.8-2.8c-1-.66-2.1-.99-3.27-.99-.8 0-1.68.1-2.62.3-.92.18-1.62.6-2.1 1.3-.24.3-.35.6-.35.85 0 .35.17.6.51.73l1.03.35c.58.17.86.52.86 1.03 0 .89-.65 1.33-1.97 1.33a2.75 2.75 0 0 1-2.5-1.67 4.25 4.25 0 0 1-.26-1.42V20l.1-.48a4.34 4.34 0 0 1 1.5-2.62c.77-.6 1.66-1 2.66-1.2 1.03-.23 2.02-.35 2.97-.35 1.14 0 2.26.26 3.35.78a8.1 8.1 0 0 1 2.84 2.14 5.5 5.5 0 0 1 1.33 3.19c.03.2.05.38.05.56v.55c0 2.07-.8 3.88-2.37 5.42v.13c1.26.9 2.22 2 2.88 3.36a9.32 9.32 0 0 1-.13 8.77 10.16 10.16 0 0 1-3.6 3.83 12.55 12.55 0 0 1-4.18 1.76 18.5 18.5 0 0 1-4.47.56Zm1.85-16.94c.74 0 1.55-.12 2.4-.35.87-.26 1.41-.53 1.64-.82l-.04-.12c-.2-.15-.63-.28-1.3-.4a10.8 10.8 0 0 0-1.93-.16c-.63 0-1.2.07-1.72.21-.49.14-.73.42-.73.82 0 .28.16.5.47.64.32.12.72.17 1.2.17Z"/>
</mask>
<path fill="#F8F9FA" d="M21.25 45.24c-1.37 0-2.9-.28-4.55-.82a141.44 141.44 0 0 1-5.42-1.94l-.73-.3h-.09a55 55 0 0 1-1.33.78 10.27 10.27 0 0 1-2.28.99 5.8 5.8 0 0 1-2.8-.21A6.42 6.42 0 0 1 2.76 43 1.8 1.8 0 0 1 2 41.45c0-.26.07-.57.21-.94.3-.66.74-1.12 1.34-1.38.6-.29 1.26-.43 1.98-.43.74 0 1.53.1 2.36.3.86.2 1.65.42 2.37.65h.08a42.3 42.3 0 0 0 2.84-1.81 94.88 94.88 0 0 0 3.48-2.54c1.2-.94 2.34-1.93 3.4-2.96a20.16 20.16 0 0 0 2.67-3.14A6.75 6.75 0 0 0 24 26.14c.08-.6.12-1.17.12-1.72 0-2.2-.68-3.88-2.06-5.03-1.35-1.17-3.32-1.76-5.93-1.76-1.35 0-2.65.3-3.92.9a8.12 8.12 0 0 0-3.1 2.54 6.02 6.02 0 0 0-1.2 3.74c0 .98.18 1.9.52 2.75.37.83.92 1.52 1.63 2.07a4.37 4.37 0 0 0 3.4.69c.26-.1.52-.18.77-.26l.26-.09.26-.08c.23-.06.39-.1.47-.1.32 0 .6.12.82.35.26.2.39.45.39.73 0 .35-.19.65-.56.9-.43.32-.95.55-1.55.7a8.8 8.8 0 0 1-1.63.17 6.41 6.41 0 0 1-3.79-1.12 7.53 7.53 0 0 1-2.4-2.93 9.08 9.08 0 0 1 .08-7.7 9.47 9.47 0 0 1 2.4-3 11.2 11.2 0 0 1 3.45-1.9c1.26-.45 2.55-.68 3.87-.68 2.06 0 3.84.38 5.33 1.16a8.54 8.54 0 0 1 4.77 8 11.9 11.9 0 0 1-.17 2.06 10.8 10.8 0 0 1-1.8 4.22 23.9 23.9 0 0 1-3.4 3.9 40.19 40.19 0 0 1-4.09 3.36c-1.4 1-2.7 1.88-3.87 2.63l.43.21a35.2 35.2 0 0 0 5.25 1.72c.97.23 1.8.34 2.5.34a5.8 5.8 0 0 0 2.06-.38c.69-.29 1.03-.8 1.03-1.55 0-.14-.16-.32-.47-.52-.43-.31-.65-.69-.65-1.12a1 1 0 0 1 .3-.73c.23-.2.5-.3.82-.3.57 0 1.09.26 1.55.78.49.51.73 1.06.73 1.63 0 1.09-.29 1.96-.86 2.62a4.42 4.42 0 0 1-2.07 1.47c-.83.28-1.64.43-2.45.43ZM5.6 41.92c.55 0 1.08-.05 1.6-.17.54-.14.9-.27 1.07-.38l.04-.13c-.17-.23-.57-.42-1.2-.56a6.4 6.4 0 0 0-1.77-.26c-.4 0-.74.06-1.03.17-.28.12-.43.29-.43.52 0 .28.17.5.52.64.34.12.74.17 1.2.17Zm36.14 2.89c-2.64 0-4.8-.56-6.45-1.68a9.67 9.67 0 0 1-3.66-4.3 14.69 14.69 0 0 1-1.16-5.85c0-.97.09-1.96.26-2.97.17-1 .4-1.99.69-2.96.8-2.5 2.03-4.66 3.7-6.5a16.14 16.14 0 0 1 11.73-5.33c1.3 0 2.54.17 3.74.52a8.81 8.81 0 0 1 4.13 2.5 10.01 10.01 0 0 1 2.24 3.95c.46 1.49.69 3.05.69 4.68a19.58 19.58 0 0 1-1.6 7.79 17.81 17.81 0 0 1-3.35 5.16 16.53 16.53 0 0 1-4.94 3.61 13.45 13.45 0 0 1-6.02 1.38Zm.13-2.41c1.94 0 3.72-.43 5.33-1.3a13.57 13.57 0 0 0 4.21-3.39 16.48 16.48 0 0 0 2.8-4.73c.66-1.72 1-3.44 1.03-5.16a9.52 9.52 0 0 1-3.48 3.31 7.8 7.8 0 0 1-5.9.77 6.23 6.23 0 0 1-2.7-1.41 5.6 5.6 0 0 1-1.42-2.11 6.32 6.32 0 0 1-.43-2.2c0-.74.13-1.38.38-1.93.29-.54.62-.82 1-.82.25 0 .5.15.77.43.31.32.43.7.34 1.12a5.4 5.4 0 0 0-.17 1.34c0 1.2.39 2.09 1.16 2.66.8.55 1.73.82 2.8.82 1.03 0 2.06-.23 3.09-.69a6.82 6.82 0 0 0 2.58-2.1 5.22 5.22 0 0 0 1.08-3.32 5.1 5.1 0 0 0-1.12-3.44 6.35 6.35 0 0 0-2.88-1.93 12.04 12.04 0 0 0-8.17.21 13.8 13.8 0 0 0-5.3 3.66 15.21 15.21 0 0 0-3.09 5.63 18.8 18.8 0 0 0-.86 5.46c0 1.64.29 3.16.86 4.56a7.32 7.32 0 0 0 2.88 3.31 9.67 9.67 0 0 0 5.2 1.25Zm36.39 2.84c-1.38 0-2.9-.28-4.56-.82a141.44 141.44 0 0 1-5.42-1.94l-.73-.3h-.09l-1.33.78a10.27 10.27 0 0 1-2.28.99 5.8 5.8 0 0 1-2.8-.21 6.42 6.42 0 0 1-1.28-.74 1.8 1.8 0 0 1-.78-1.55c0-.26.08-.57.22-.94.29-.66.73-1.12 1.33-1.38.6-.29 1.26-.43 1.98-.43.74 0 1.53.1 2.36.3.86.2 1.65.42 2.37.65h.09a42.4 42.4 0 0 0 2.83-1.81 94.88 94.88 0 0 0 3.49-2.54c1.2-.94 2.33-1.93 3.4-2.96a20.16 20.16 0 0 0 2.66-3.14 6.76 6.76 0 0 0 1.29-3.06c.09-.6.13-1.17.13-1.72 0-2.2-.69-3.88-2.07-5.03-1.34-1.17-3.32-1.76-5.93-1.76-1.35 0-2.65.3-3.91.9a8.12 8.12 0 0 0-3.1 2.54 6.02 6.02 0 0 0-1.2 3.74c0 .98.17 1.9.51 2.75.38.83.92 1.52 1.64 2.07a4.37 4.37 0 0 0 4.17.43l.26-.09.25-.08c.23-.06.4-.1.48-.1.31 0 .59.12.81.35.26.2.4.45.4.73 0 .35-.2.65-.57.9-.43.32-.94.55-1.55.7a8.8 8.8 0 0 1-1.63.17 6.41 6.41 0 0 1-3.78-1.12 7.53 7.53 0 0 1-2.41-2.93 9.08 9.08 0 0 1 .08-7.7 9.47 9.47 0 0 1 2.41-3 11.2 11.2 0 0 1 3.44-1.9c1.26-.45 2.55-.68 3.87-.68 2.07 0 3.84.38 5.33 1.16a8.55 8.55 0 0 1 4.78 8 11.9 11.9 0 0 1-.17 2.06 10.8 10.8 0 0 1-1.81 4.22 23.9 23.9 0 0 1-3.4 3.9 40.2 40.2 0 0 1-4.08 3.36c-1.4 1-2.7 1.88-3.87 2.63l.43.21a35.2 35.2 0 0 0 5.25 1.72c.97.23 1.8.34 2.49.34.69 0 1.37-.12 2.06-.38.69-.29 1.03-.8 1.03-1.55 0-.14-.15-.32-.47-.52-.43-.31-.64-.69-.64-1.12a1 1 0 0 1 .3-.73c.23-.2.5-.3.81-.3.58 0 1.1.26 1.55.78.49.51.73 1.06.73 1.63 0 1.09-.28 1.96-.86 2.62a4.42 4.42 0 0 1-2.06 1.47c-.83.28-1.65.43-2.45.43ZM62.6 41.92c.54 0 1.07-.05 1.59-.17.54-.14.9-.27 1.07-.38l.04-.13c-.17-.23-.57-.42-1.2-.56a6.4 6.4 0 0 0-1.76-.26c-.4 0-.75.06-1.03.17-.3.12-.43.29-.43.52 0 .28.17.5.51.64.35.12.75.17 1.2.17ZM95 46.4a8.95 8.95 0 0 1-3.31-.65A10.9 10.9 0 0 1 88.76 44a8.81 8.81 0 0 1-2.1-2.54 6.44 6.44 0 0 1-.52-4.81c.2-.6.5-1.2.9-1.81a4.18 4.18 0 0 1 1.85-1.55 6.22 6.22 0 0 1 7.14 1.77c.55.68.82 1.5.82 2.45 0 .48-.1.84-.3 1.07-.18.2-.4.3-.7.3-.28 0-.56-.11-.85-.34a1.5 1.5 0 0 1-.43-1 2.02 2.02 0 0 0-.99-1.71 3.23 3.23 0 0 0-1.8-.65c-1.21 0-2.1.32-2.67.95a3.21 3.21 0 0 0-.86 2.24c0 .86.27 1.74.81 2.66a6.46 6.46 0 0 0 2.37 2.28c1.03.63 2.3.95 3.78.95 1.26 0 2.53-.17 3.79-.52a11.4 11.4 0 0 0 3.52-1.5 8.34 8.34 0 0 0 2.54-2.67 7 7 0 0 0 .99-3.78c0-2.99-1.16-5.08-3.48-6.28h-.09c-.89.49-1.83.83-2.84 1.03-1 .17-2 .26-3 .26a11 11 0 0 1-1.51-.13 4.13 4.13 0 0 1-1.55-.65c-.46-.31-.69-.8-.69-1.46 0-.51.2-.92.6-1.2.43-.32.95-.55 1.55-.69a14.08 14.08 0 0 1 3.4-.39 11 11 0 0 1 3.65.6h.09a7.8 7.8 0 0 0 1.85-1.97 4.61 4.61 0 0 0 .56-2.88c0-.18-.02-.36-.05-.56a3.82 3.82 0 0 0-1.8-2.8c-1-.66-2.1-.99-3.27-.99-.8 0-1.68.1-2.62.3-.92.18-1.62.6-2.1 1.3-.24.3-.35.6-.35.85 0 .35.17.6.51.73l1.03.35c.58.17.86.52.86 1.03 0 .89-.65 1.33-1.97 1.33a2.75 2.75 0 0 1-2.5-1.67 4.25 4.25 0 0 1-.26-1.42V20l.1-.48a4.34 4.34 0 0 1 1.5-2.62c.77-.6 1.66-1 2.66-1.2 1.03-.23 2.02-.35 2.97-.35 1.14 0 2.26.26 3.35.78a8.1 8.1 0 0 1 2.84 2.14 5.5 5.5 0 0 1 1.33 3.19c.03.2.05.38.05.56v.55c0 2.07-.8 3.88-2.37 5.42v.13c1.26.9 2.22 2 2.88 3.36a9.32 9.32 0 0 1-.13 8.77 10.16 10.16 0 0 1-3.6 3.83 12.55 12.55 0 0 1-4.18 1.76 18.5 18.5 0 0 1-4.47.56Zm1.85-16.94c.74 0 1.55-.12 2.4-.35.87-.26 1.41-.53 1.64-.82l-.04-.12c-.2-.15-.63-.28-1.3-.4a10.8 10.8 0 0 0-1.93-.16c-.63 0-1.2.07-1.72.21-.49.14-.73.42-.73.82 0 .28.16.5.47.64.32.12.72.17 1.2.17Z"/>
<path fill="#F8F9FA" d="m16.7 44.42-.32.95.32-.95Zm-4.65-1.64-.4.92.02.01.03.01.35-.94Zm-.77-.3-.4.92.04.02.04.01.32-.95Zm-.73-.3.35-.93-.17-.07h-.18v1Zm-.09 0v-1h-.28l-.23.15.51.85Zm-1.33.78-.5-.87H8.6l.52.87Zm-1.38.69-.38-.93-.03.01-.04.02.45.9Zm-.9.3.18.98-.18-.98Zm-2.8-.22-.34.94h.01l.02.01.31-.95ZM2.76 43l-.58.81.02.02.56-.83Zm-.56-2.5-.91-.4-.01.03v.02l.92.36Zm1.34-1.37.4.92h.01l.02-.02-.43-.9ZM7.88 39l-.23.97.23-.97Zm2.37.65-.3.95.14.05h.16v-1Zm.08 0v1h.27l.23-.14-.5-.86Zm2.84-1.81.56.83-.56-.83Zm3.48-2.54.6.8h.01l.01-.01-.62-.79Zm3.4-2.96.7.71-.7-.71Zm2.67-3.14-.82-.58v.01h-.01l.83.57ZM24 26.14 23 26v.03l1 .11Zm-1.94-6.75-.66.76h.01l.01.01.64-.77Zm-9.85-.86.43.9-.43-.9Zm-3.1 2.54.8.6h.01l-.8-.6Zm-.68 6.5-.93.36v.02l.02.02.91-.4Zm1.63 2.06-.6.8h.02l.58-.8Zm3.4.69.24.97.04-.01.04-.02-.32-.95Zm.77-.26-.31-.95.31.95Zm.26-.09.32.95-.32-.95Zm.26-.08-.24-.98-.04.01-.04.02.32.95Zm1.3.25-.72.71.05.04.05.04.61-.79Zm-.18 1.64-.57-.83-.01.01-.01.01.59.8Zm-1.55.69.19.98h.02l.02-.01-.23-.97Zm-5.42-.95-.58.81.58-.81Zm-2.4-2.93-.92.42.01.01.9-.43Zm.08-7.7.89.47-.89-.46Zm2.4-3-.62-.78.63.78Zm3.45-1.9.32.95h.02l-.34-.94Zm9.2.48-.46.89.46-.9Zm3.53 3.22-.86.52.86-.52Zm1.07 6.84.99.18v-.03l-.99-.15Zm-1.8 4.22-.83-.57.83.57Zm-3.4 3.9.68.74-.68-.73Zm-4.09 3.36.59.82-.59-.82Zm-3.87 2.63-.53-.85-1.5.95 1.59.79.44-.9Zm.43.21-.44.9h.02l.03.02.4-.92Zm2.41.9-.31.95.31-.95Zm2.84.82-.24.97h.01l.23-.97Zm4.56-.04.35.93h.02l.01-.01-.38-.92Zm.56-2.07-.6.8.03.03.03.02.54-.85Zm-.35-1.85-.66-.75-.02.02-.02.03.7.7Zm2.37.48-.75.66.01.01.01.01.73-.68Zm-.13 4.25L25 42.7l-.01.02-.02.01.79.62Zm-2.07 1.47.33.94-.33-.94ZM7.2 41.75l.21.98h.02l.02-.01-.26-.97Zm1.07-.38.55.83.29-.2.1-.32-.94-.31Zm.04-.13.95.31.17-.5-.32-.41-.8.6Zm-1.2-.56-.28.96h.03l.03.01.22-.97Zm-2.8-.09.37.93-.37-.93Zm.09 1.16-.39.93.04.01.03.01.32-.95Zm16.85 2.49c-1.24 0-2.65-.25-4.24-.77l-.63 1.9c1.74.57 3.37.87 4.87.87v-2Zm-4.24-.77c-1.62-.54-3.16-1.08-4.6-1.62l-.7 1.87c1.47.55 3.03 1.1 4.67 1.65l.63-1.9Zm-4.55-1.6a9.64 9.64 0 0 0-.87-.33l-.63 1.9c.23.07.46.16.69.26l.8-1.83Zm-.78-.3c-.27-.12-.53-.23-.78-.32l-.7 1.87.67.28.81-1.83Zm-1.13-.39h-.09v2h.09v-2Zm-.6.15-1.31.76.98 1.74 1.36-.79-1.03-1.71Zm-1.34.77c-.38.23-.8.44-1.24.62l.76 1.85c.53-.22 1.04-.47 1.51-.76L8.61 42.1Zm-1.3.65c-.2.1-.42.17-.64.21l.36 1.97c.4-.07.8-.2 1.17-.4l-.9-1.78Zm-.64.21c-.26.05-.51.07-.77.07v2c.38 0 .75-.03 1.13-.1l-.36-1.97Zm-.77.07c-.52 0-1.03-.08-1.53-.25l-.63 1.9c.7.23 1.42.35 2.16.35v-2Zm-1.5-.24c-.2-.07-.54-.25-1.07-.62L2.2 43.83a7.4 7.4 0 0 0 1.51.84l.69-1.88Zm-1.05-.6c-.25-.18-.36-.39-.36-.74h-2c0 .97.4 1.8 1.19 2.36l1.17-1.62Zm-.36-.74c0-.09.03-.27.15-.59l-1.87-.71a3.7 3.7 0 0 0-.28 1.3h2Zm.13-.55c.2-.45.47-.7.81-.85l-.79-1.84a3.51 3.51 0 0 0-1.85 1.9l1.83.8Zm.85-.87c.46-.22.97-.33 1.55-.33v-2c-.86 0-1.67.17-2.41.53l.86 1.8Zm1.55-.33c.65 0 1.36.09 2.13.27l.47-1.94c-.9-.22-1.77-.33-2.6-.33v2Zm2.13.27c.84.2 1.6.4 2.3.63l.6-1.9c-.75-.25-1.56-.47-2.44-.67l-.46 1.94Zm2.6.68h.08v-2h-.08v2Zm.58-.14c.83-.47 1.8-1.09 2.9-1.84L12.61 37c-1.08.74-2 1.33-2.77 1.77l.99 1.73Zm2.9-1.85a95.45 95.45 0 0 0 3.53-2.56l-1.21-1.6a93.9 93.9 0 0 1-3.45 2.52l1.14 1.64Zm3.54-2.57a43.67 43.67 0 0 0 3.48-3.04l-1.4-1.43c-1.03 1-2.14 1.97-3.31 2.9l1.23 1.57Zm3.48-3.04a21.16 21.16 0 0 0 2.8-3.3l-1.66-1.11c-.68 1-1.52 1.99-2.54 2.98l1.4 1.43Zm2.78-3.28a7.74 7.74 0 0 0 1.47-3.5l-2-.25a5.77 5.77 0 0 1-1.11 2.6l1.63 1.14ZM25 26.3c.09-.65.13-1.27.13-1.87h-2c0 .5-.03 1.02-.11 1.58l1.98.29Zm.13-1.87c0-2.42-.76-4.42-2.42-5.8l-1.28 1.54c1.1.91 1.7 2.28 1.7 4.26h2Zm-2.4-5.78c-1.6-1.4-3.85-2.01-6.6-2.01v2c2.48 0 4.19.56 5.28 1.52l1.32-1.51Zm-6.6-2.01c-1.5 0-2.95.34-4.34 1l.86 1.8a7.98 7.98 0 0 1 3.49-.8v-2Zm-4.34 1a9.12 9.12 0 0 0-3.47 2.85l1.61 1.18c.7-.95 1.6-1.7 2.72-2.22l-.86-1.8Zm-3.46 2.84a7.02 7.02 0 0 0-1.4 4.34h2a5 5 0 0 1 1-3.14l-1.6-1.2Zm-1.4 4.34c0 1.1.19 2.14.58 3.12l1.86-.74a6.34 6.34 0 0 1-.45-2.38h-2Zm.6 3.16c.44.98 1.09 1.8 1.94 2.45l1.2-1.59c-.57-.44-1.01-1-1.32-1.68l-1.82.82Zm1.96 2.47c.91.66 2 .96 3.2.96v-2a3.4 3.4 0 0 1-2.03-.58l-1.17 1.62Zm3.2.96c.36 0 .7-.03 1.02-.11l-.48-1.95c-.14.04-.31.06-.53.06v2Zm1.1-.14.77-.25-.63-1.9-.78.26.64 1.9Zm.77-.25.26-.09-.63-1.9-.26.09.63 1.9Zm.26-.09.26-.09-.64-1.9-.25.1.63 1.89Zm.18-.06.23-.06h.04-.04v-2c-.22 0-.5.06-.71.11l.48 1.95Zm.23-.06h.06l.05.05 1.42-1.41a2.12 2.12 0 0 0-1.53-.64v2Zm.2.13c.04.03.04.04.03.01a.18.18 0 0 1-.02-.07h2a1.9 1.9 0 0 0-.78-1.52l-1.22 1.58Zm0-.06.01-.02v-.02s-.03.05-.13.12l1.14 1.65c.55-.38.99-.95.99-1.73h-2Zm-.14.1c-.3.23-.7.4-1.2.52l.47 1.95a5.25 5.25 0 0 0 1.91-.86l-1.18-1.6Zm-1.15.51a8.3 8.3 0 0 1-1.44.16v2a9.8 9.8 0 0 0 1.82-.2l-.38-1.96Zm-1.44.16a5.42 5.42 0 0 1-3.21-.94l-1.15 1.64a7.41 7.41 0 0 0 4.36 1.3v-2Zm-3.2-.93a6.53 6.53 0 0 1-2.1-2.54l-1.8.85a8.53 8.53 0 0 0 2.73 3.31l1.17-1.62Zm-2.08-2.53a8.08 8.08 0 0 1-.73-3.37h-2c0 1.46.3 2.86.9 4.2l1.83-.83Zm-.73-3.37c0-1.32.27-2.46.79-3.45l-1.77-.93a9.29 9.29 0 0 0-1.02 4.38h2Zm.8-3.46a8.47 8.47 0 0 1 2.15-2.7l-1.28-1.53c-1.1.92-2 2.03-2.66 3.32l1.78.91Zm2.14-2.68a10.2 10.2 0 0 1 3.13-1.73l-.64-1.9a12.2 12.2 0 0 0-3.75 2.07l1.26 1.56Zm3.15-1.73c1.15-.42 2.33-.63 3.53-.63v-2c-1.44 0-2.84.25-4.21.75l.68 1.88Zm3.53-.63c1.94 0 3.55.36 4.87 1.05l.92-1.78a12.43 12.43 0 0 0-5.8-1.27v2Zm4.88 1.05c1.36.7 2.4 1.64 3.12 2.85l1.71-1.03a9.55 9.55 0 0 0-3.93-3.6l-.9 1.78Zm3.13 2.86a7.91 7.91 0 0 1 1.1 4.25h2a9.9 9.9 0 0 0-1.4-5.3l-1.7 1.05Zm1.1 4.25c0 .28-.02.58-.05.9l2 .17c.03-.37.04-.73.04-1.07h-2Zm-.05.9c-.02.32-.06.66-.12 1l1.98.31c.06-.39.1-.77.14-1.14l-2-.17Zm-.11.98a9.81 9.81 0 0 1-1.65 3.83l1.65 1.13a11.8 11.8 0 0 0 1.97-4.6l-1.97-.36Zm-1.65 3.83a22.91 22.91 0 0 1-3.25 3.75l1.36 1.46a24.9 24.9 0 0 0 3.54-4.08l-1.65-1.13Zm-3.25 3.75a39.22 39.22 0 0 1-3.99 3.27l1.17 1.63a41.2 41.2 0 0 0 4.18-3.44l-1.36-1.46Zm-3.99 3.27a75 75 0 0 1-3.82 2.59l1.07 1.69c1.2-.76 2.5-1.64 3.92-2.65l-1.17-1.63Zm-3.73 4.33.43.21.9-1.78-.44-.22-.9 1.79Zm.48.24c.69.3 1.52.61 2.49.93l.63-1.9c-.93-.3-1.7-.6-2.33-.87l-.8 1.84Zm2.49.93c.97.33 1.94.6 2.91.84L19 41.6c-.92-.22-1.84-.49-2.76-.8l-.63 1.9Zm2.92.84c1.02.24 1.93.37 2.72.37v-2c-.58 0-1.33-.1-2.26-.31l-.46 1.94Zm2.72.37c.82 0 1.63-.15 2.42-.45l-.7-1.87c-.59.22-1.16.32-1.72.32v2Zm2.45-.46c.5-.2.92-.52 1.22-.97.3-.45.43-.97.43-1.5h-2a.7.7 0 0 1-.09.39.68.68 0 0 1-.33.23l.77 1.85Zm1.65-2.47c0-.44-.23-.75-.38-.91a2.77 2.77 0 0 0-.56-.45l-1.07 1.69.13.08.02.03-.06-.1a.75.75 0 0 1-.08-.34h2Zm-.88-1.32c-.24-.18-.24-.28-.24-.31h-2c0 .82.44 1.47 1.06 1.92l1.18-1.61Zm-.24-.31v-.03.01h.01l-1.41-1.42a2 2 0 0 0-.6 1.44h2Zm-.04.02c.04-.04.08-.06.16-.06v-2a2.2 2.2 0 0 0-1.48.55l1.32 1.5Zm.16-.06c.23 0 .49.1.8.44l1.5-1.33a3.03 3.03 0 0 0-2.3-1.1v2Zm.82.46c.36.38.46.69.46.95h2a3.4 3.4 0 0 0-1-2.32l-1.46 1.37Zm.46.95c0 .91-.24 1.53-.62 1.97l1.51 1.3a4.85 4.85 0 0 0 1.1-3.28h-2Zm-.65 2c-.42.54-.95.92-1.6 1.14l.65 1.9a5.42 5.42 0 0 0 2.52-1.8l-1.57-1.24Zm-1.6 1.14c-.74.25-1.44.38-2.13.38v2c.93 0 1.85-.17 2.78-.49l-.65-1.89ZM5.6 42.92c.62 0 1.22-.06 1.81-.2l-.43-1.94c-.45.1-.9.14-1.38.14v2Zm1.85-.2c.52-.14 1.04-.3 1.37-.52l-1.1-1.67-.19.08-.6.18.52 1.93Zm1.77-1.04.04-.13-1.9-.63-.04.13 1.9.63Zm-.1-1.04a2.1 2.1 0 0 0-.82-.62 4.93 4.93 0 0 0-.97-.32l-.44 1.95c.27.07.45.13.57.18.12.06.1.08.05 0l1.6-1.2Zm-1.74-.92a7.4 7.4 0 0 0-2.04-.3v2c.48 0 .97.07 1.5.22l.54-1.92Zm-2.04-.3c-.49 0-.97.07-1.4.24l.74 1.86c.14-.06.35-.1.66-.1v-2Zm-1.4.24c-.24.1-.5.25-.72.5-.22.28-.34.6-.34.95h2a.53.53 0 0 1-.12.34c-.07.08-.12.09-.08.07l-.74-1.86Zm-1.06 1.45c0 .36.12.7.35 1 .22.28.5.45.78.57l.77-1.85c-.07-.03-.04-.03.01.03a.42.42 0 0 1 .1.25h-2Zm1.2 1.6c.47.15.98.21 1.52.21v-2c-.38 0-.67-.04-.89-.12l-.63 1.9Zm31.2.42.56-.83-.55.83Zm-3.65-4.3-.92.4.92-.4Zm-.9-8.82-.99-.17.99.17Zm.69-2.96-.96-.3v.01l.96.29Zm3.7-6.5.74.68v-.01l-.75-.67Zm6.14-4.25-.36-.93.36.93Zm9.33-.56.3-.96h-.02l-.28.96Zm4.13 2.5-.74.66v.01l.74-.68Zm2.24 3.95-.96.29.96-.3Zm.26 8.77.97.21-.97-.21Zm-1.16 3.7-.93-.4.93.4Zm-3.36 5.16.73.68-.73-.68Zm-4.94 3.61-.43-.9h-.02l.45.9Zm-.56-2.32-.47-.89.47.89Zm4.21-3.4-.76-.64.76.64Zm3.83-9.89 1 .02.06-3.43-1.9 2.86.84.55Zm-3.48 3.31-.47-.88.47.88Zm-5.9.78-.26.96h.01l.25-.96Zm-2.7-1.42-.7.72.7-.72Zm-1.42-2.11-.94.35.94-.35Zm-.05-4.13-.88-.46-.01.01-.01.02.9.43Zm1.77-.39-.75.67.02.02.02.02.7-.7Zm.34 1.12.97.26v-.03l.01-.03-.98-.2Zm.99 4-.6.8.02.02h.02l.56-.82Zm5.89.13.4.91h.02l-.42-.9Zm2.58-2.1-.79-.62-.01.01.8.6Zm-.04-6.76-.77.65h.01l.76-.65Zm-2.88-1.93-.33.94.33-.94Zm-8.17.21-.37-.93.37.93Zm-5.3 3.66-.74-.67.75.67Zm-3.09 5.63-.95-.3v.01l.95.3Zm0 10.02-.92.38v.02l.92-.4Zm2.88 3.31-.53.85.53-.85Zm5.08 2.66c-2.5 0-4.44-.53-5.9-1.51l-1.11 1.66c1.87 1.26 4.23 1.85 7 1.85v-2Zm-5.9-1.52a8.67 8.67 0 0 1-3.3-3.86l-1.83.8c.86 1.96 2.2 3.54 4.03 4.74l1.1-1.68Zm-3.29-3.85a13.69 13.69 0 0 1-1.08-5.46h-2c0 2.22.41 4.3 1.24 6.24l1.84-.78Zm-1.08-5.46c0-.91.08-1.85.24-2.8l-1.97-.34c-.18 1.06-.27 2.1-.27 3.14h2Zm.24-2.8c.17-.96.39-1.91.67-2.85l-1.92-.57a27.5 27.5 0 0 0-.72 3.08l1.97.34Zm.66-2.83c.76-2.36 1.92-4.4 3.48-6.12l-1.48-1.35a18.53 18.53 0 0 0-3.9 6.86l1.9.61Zm3.49-6.13a15.14 15.14 0 0 1 5.77-4l-.74-1.85a17.14 17.14 0 0 0-6.52 4.52l1.49 1.33Zm5.77-4c1.72-.66 3.46-1 5.22-1v-2c-2.02 0-4 .39-5.95 1.15l.73 1.86Zm5.22-1c1.2 0 2.36.16 3.47.48l.55-1.92c-1.3-.37-2.64-.56-4.02-.56v2Zm3.46.48a7.82 7.82 0 0 1 3.67 2.2l1.49-1.34a9.8 9.8 0 0 0-4.59-2.78l-.57 1.92Zm3.68 2.21c.92 1 1.6 2.19 2.01 3.57l1.92-.58a11.01 11.01 0 0 0-2.46-4.35l-1.47 1.36ZM56 22.48c.43 1.4.65 2.86.65 4.4h2c0-1.73-.25-3.4-.74-4.99l-1.9.6Zm.65 4.4c0 1.3-.14 2.6-.41 3.87l1.95.42c.3-1.42.46-2.85.46-4.3h-2Zm-.41 3.87a19.66 19.66 0 0 1-1.1 3.52l1.84.78c.5-1.21.91-2.5 1.21-3.88l-1.95-.42Zm-1.1 3.52a16.76 16.76 0 0 1-3.17 4.87l1.46 1.36a18.76 18.76 0 0 0 3.55-5.45l-1.85-.78Zm-3.17 4.86a15.53 15.53 0 0 1-4.64 3.4l.86 1.8a17.53 17.53 0 0 0 5.24-3.83l-1.46-1.37Zm-4.66 3.4a12.45 12.45 0 0 1-5.57 1.28v2c2.3 0 4.45-.5 6.46-1.48l-.89-1.8Zm-5.44.87c2.1 0 4.04-.47 5.8-1.41l-.95-1.76a10.11 10.11 0 0 1-4.85 1.17v2Zm5.8-1.4a14.85 14.85 0 0 0 4.5-3.65l-1.53-1.28a12.95 12.95 0 0 1-3.9 3.15l.92 1.77Zm4.5-3.65a17.48 17.48 0 0 0 2.97-5.01l-1.87-.72c-.62 1.62-1.5 3.1-2.62 4.45l1.53 1.28Zm2.97-5.01c.7-1.82 1.07-3.66 1.1-5.5l-2-.04c-.03 1.6-.35 3.2-.97 4.82l1.87.72Zm-.74-6.07a8.53 8.53 0 0 1-3.1 2.98l.92 1.77c1.5-.78 2.78-2.02 3.85-3.65l-1.67-1.1Zm-3.1 2.98c-1.2.62-2.35.91-3.46.91v2a9.4 9.4 0 0 0 4.38-1.14l-.93-1.77Zm-3.46.91a6.8 6.8 0 0 1-1.72-.22l-.5 1.93c.73.2 1.47.3 2.22.3v-2Zm-1.71-.22a5.25 5.25 0 0 1-2.28-1.18l-1.39 1.45a7.22 7.22 0 0 0 3.14 1.66l.53-1.93Zm-2.28-1.18a4.6 4.6 0 0 1-1.18-1.73l-1.87.7c.34.93.9 1.76 1.66 2.48l1.39-1.45Zm-1.18-1.73a5.33 5.33 0 0 1-.36-1.84h-2c0 .82.17 1.67.49 2.54l1.87-.7Zm-.36-1.84c0-.63.1-1.13.29-1.51l-1.81-.86a5.4 5.4 0 0 0-.48 2.37h2Zm.27-1.47c.1-.2.18-.29.21-.31h-.02a.25.25 0 0 1-.09.02v-2c-.94 0-1.53.71-1.87 1.36l1.77.93Zm.1-.29h-.07l-.03-.01c.01 0 .06.03.13.11l1.49-1.33c-.35-.4-.86-.77-1.52-.77v2Zm.07.14c.06.06.07.1.07.1v.12l1.96.39a2.17 2.17 0 0 0-.62-2.02l-1.41 1.41Zm.08.16c-.13.51-.2 1.04-.2 1.59h2c0-.38.04-.74.14-1.08l-1.94-.51Zm-.2 1.59c0 1.43.47 2.66 1.56 3.47l1.2-1.61c-.46-.34-.76-.89-.76-1.86h-2Zm1.6 3.49c.98.67 2.11.99 3.35.99v-2c-.88 0-1.6-.22-2.23-.65l-1.12 1.66Zm3.35.99c1.19 0 2.36-.27 3.5-.78l-.8-1.82c-.92.4-1.82.6-2.7.6v2Zm3.53-.78a7.82 7.82 0 0 0 2.95-2.42l-1.6-1.2a5.82 5.82 0 0 1-2.2 1.8l.85 1.82Zm2.94-2.4a6.21 6.21 0 0 0 1.29-3.93h-2c0 1.1-.3 1.98-.87 2.7l1.58 1.23Zm1.29-3.93c0-1.6-.43-3-1.37-4.1l-1.5 1.32c.54.63.87 1.53.87 2.78h2Zm-1.36-4.08a7.35 7.35 0 0 0-3.32-2.24l-.65 1.9c1.02.34 1.82.89 2.44 1.63l1.53-1.29Zm-3.32-2.24a12.36 12.36 0 0 0-4.02-.65v2c1.18 0 2.3.18 3.37.54l.65-1.89Zm-4.02-.65c-1.72 0-3.34.29-4.84.88l.73 1.86c1.25-.5 2.62-.74 4.1-.74v-2Zm-4.84.88a14.8 14.8 0 0 0-5.67 3.92l1.5 1.33a12.8 12.8 0 0 1 4.9-3.39l-.73-1.86Zm-5.68 3.93a16.21 16.21 0 0 0-3.3 6l1.92.58a14.21 14.21 0 0 1 2.89-5.26l-1.5-1.32Zm-3.3 6c-.6 1.97-.9 3.9-.9 5.75h2c0-1.64.27-3.36.82-5.17l-1.92-.58Zm-.9 5.75c0 1.76.3 3.4.94 4.94l1.85-.76a10.95 10.95 0 0 1-.79-4.18h-2Zm.94 4.96A8.32 8.32 0 0 0 36.13 42l1.07-1.7a6.32 6.32 0 0 1-2.5-2.86l-1.84.8ZM36.13 42c1.53.96 3.47 1.4 5.74 1.4v-2c-2.04 0-3.57-.4-4.67-1.1L36.13 42Zm37.57 2.42-.32.95.32-.95Zm-4.64-1.64-.41.92.03.01.03.01.35-.94Zm-.78-.3-.4.92.04.02.05.01.31-.95Zm-.73-.3.35-.93-.17-.07h-.18v1Zm-.09 0v-1h-.27l-.24.15.51.85Zm-1.33.78-.49-.87h-.02l.51.87Zm-1.37.69-.39-.93-.03.01-.03.02.45.9Zm-.9.3.17.98-.18-.98Zm-2.8-.22-.34.94.02.01.32-.95Zm-1.3-.73-.58.81h.01l.01.02.57-.83Zm-.55-2.5-.92-.4v.03l-.01.02.93.36Zm1.33-1.37.4.92h.01l.02-.02-.43-.9Zm4.34-.13-.23.97.23-.97Zm2.37.65-.3.95.14.05h.16v-1Zm.09 0v1h.26l.23-.14-.5-.86Zm2.83-1.81.57.83-.57-.83Zm3.49-2.54.6.8.01-.01-.61-.79Zm3.4-2.96.7.71-.7-.71Zm2.66-3.14-.82-.58v.01l.82.57Zm1.29-3.06-1-.14v.03l1 .11Zm-1.94-6.75-.65.76.01.01.64-.77Zm-9.84-.86.43.9-.43-.9Zm-3.1 2.54.8.6-.8-.6Zm-.69 6.5-.92.36v.02l.01.02.91-.4Zm1.64 2.06-.6.8h.01l.59-.8Zm3.4.69.24.97.03-.01.04-.02-.32-.95Zm.77-.26-.32-.95.32.95Zm.26-.09.31.95-.31-.95Zm.25-.08-.24-.98-.04.01-.03.02.31.95Zm1.3.25-.71.71.04.04.05.04.61-.79Zm-.18 1.64-.57-.83v.01l-.02.01.6.8Zm-1.55.69.2.98h.01l.03-.01-.24-.97Zm-5.41-.95-.59.81h.01l.58-.81Zm-2.41-2.93-.91.42v.01l.9-.43Zm.08-7.7.89.47-.89-.46Zm2.41-3-.62-.78h-.02l.64.78Zm3.44-1.9.33.95h.01l-.34-.94Zm9.2.48-.46.89h.01l.45-.9Zm3.53 3.22-.86.52h.01l.85-.52Zm1.08 6.84.98.18v-.03l-.98-.15Zm-1.81 4.22-.82-.57.82.57Zm-3.4 3.9.69.74-.69-.73Zm-4.08 3.36.58.82-.58-.82Zm-3.87 2.63-.54-.85-1.5.95 1.59.79.45-.9Zm.43.21-.45.9h.02l.03.02.4-.92Zm2.4.9-.31.95.32-.95Zm2.84.82-.23.97.23-.97Zm4.56-.04.35.93h.02l.02-.01-.39-.92Zm.56-2.07-.6.8.04.03.02.02.54-.85Zm-.34-1.85-.66-.75-.03.02-.02.03.7.7Zm2.36.48-.75.66.01.01.01.01.73-.68Zm-.13 4.25-.75-.65-.02.02-.01.01.78.62Zm-2.06 1.47.32.94-.32-.94ZM64.2 41.75l.21.98h.02l.02-.01-.25-.97Zm1.07-.38.56.83.28-.2.11-.32-.95-.31Zm.04-.13.95.31.17-.5-.32-.41-.8.6Zm-1.2-.56-.27.96h.02l.03.01.22-.97Zm-2.8-.09.38.93-.37-.93Zm.1 1.16-.4.93.04.01.04.01.31-.95Zm16.85 2.49a13.8 13.8 0 0 1-4.25-.77l-.62 1.9c1.74.57 3.36.87 4.87.87v-2Zm-4.24-.77c-1.63-.54-3.17-1.08-4.62-1.62l-.7 1.87c1.48.55 3.04 1.1 4.68 1.65l.64-1.9Zm-4.56-1.6a9.62 9.62 0 0 0-.86-.33l-.63 1.9c.22.07.45.16.68.26l.81-1.83Zm-.77-.3c-.28-.12-.54-.23-.79-.32l-.7 1.87.68.28.8-1.83Zm-1.14-.39h-.09v2h.1v-2Zm-.6.15-1.3.76.97 1.74c.47-.26.92-.53 1.36-.79l-1.03-1.71Zm-1.33.77c-.39.23-.8.44-1.25.62l.77 1.85c.53-.22 1.03-.47 1.5-.76l-1.02-1.71Zm-1.31.65c-.2.1-.41.17-.64.21l.36 1.97c.41-.07.8-.2 1.17-.4l-.9-1.78Zm-.64.21c-.25.05-.5.07-.76.07v2c.37 0 .75-.03 1.12-.1l-.36-1.97Zm-.76.07c-.53 0-1.04-.08-1.54-.25l-.63 1.9c.7.23 1.43.35 2.17.35v-2Zm-1.51-.24c-.2-.07-.54-.25-1.07-.62l-1.13 1.66c.56.38 1.08.68 1.52.84l.68-1.88Zm-1.05-.6a.83.83 0 0 1-.36-.74h-2c0 .97.4 1.8 1.2 2.36l1.16-1.62Zm-.36-.74c0-.09.03-.27.15-.59l-1.86-.71a3.7 3.7 0 0 0-.29 1.3h2Zm.14-.55c.2-.45.46-.7.8-.85l-.78-1.84a3.51 3.51 0 0 0-1.86 1.9l1.84.8Zm.84-.87c.46-.22.97-.33 1.55-.33v-2c-.85 0-1.66.17-2.4.53l.85 1.8Zm1.55-.33c.66 0 1.36.09 2.13.27l.47-1.94c-.9-.22-1.77-.33-2.6-.33v2Zm2.14.27c.84.2 1.6.4 2.28.63l.61-1.9a25 25 0 0 0-2.44-.67l-.45 1.94Zm2.59.68h.09v-2h-.1v2Zm.58-.14c.84-.47 1.8-1.09 2.9-1.84L69.62 37c-1.08.74-2 1.33-2.77 1.77l1 1.73Zm2.91-1.85c1.13-.78 2.3-1.64 3.52-2.56l-1.21-1.6a94 94 0 0 1-3.45 2.52l1.14 1.64Zm3.53-2.57a43.65 43.65 0 0 0 3.48-3.04l-1.4-1.43c-1.03 1-2.13 1.97-3.31 2.9l1.23 1.57Zm3.48-3.04a21.16 21.16 0 0 0 2.8-3.3l-1.66-1.11c-.67 1-1.51 1.99-2.53 2.98l1.4 1.43Zm2.79-3.28a7.74 7.74 0 0 0 1.46-3.5l-1.98-.24a5.77 5.77 0 0 1-1.12 2.6l1.64 1.14ZM82 26.3c.1-.65.14-1.27.14-1.87h-2c0 .5-.04 1.02-.12 1.58l1.98.29Zm.14-1.87c0-2.42-.77-4.42-2.43-5.8l-1.28 1.54c1.1.91 1.7 2.28 1.7 4.26h2Zm-2.4-5.78c-1.6-1.4-3.86-2.01-6.6-2.01v2c2.48 0 4.18.56 5.28 1.52l1.31-1.51Zm-6.6-2.01c-1.5 0-2.95.34-4.34 1l.86 1.8a7.98 7.98 0 0 1 3.48-.8v-2Zm-4.34 1a9.12 9.12 0 0 0-3.47 2.85l1.6 1.18a7 7 0 0 1 2.73-2.22l-.86-1.8Zm-3.47 2.84a7.02 7.02 0 0 0-1.4 4.34h2c0-1.23.34-2.26 1-3.14l-1.6-1.2Zm-1.4 4.34c0 1.1.2 2.14.59 3.12l1.85-.74a6.34 6.34 0 0 1-.44-2.38h-2Zm.6 3.16c.44.98 1.1 1.8 1.94 2.45l1.21-1.59a4.2 4.2 0 0 1-1.32-1.68l-1.83.82Zm1.96 2.47c.92.66 2 .96 3.21.96v-2a3.4 3.4 0 0 1-2.04-.58l-1.17 1.62Zm3.21.96c.35 0 .7-.03 1.02-.11l-.49-1.95c-.13.04-.3.06-.53.06v2Zm1.1-.14.76-.25-.63-1.9-.77.26.63 1.9Zm.76-.25.26-.09-.63-1.9-.26.09.63 1.9Zm.26-.09.26-.09-.63-1.9-.26.1.63 1.89Zm.19-.06.22-.06h.05-.04v-2c-.23 0-.5.06-.72.11l.49 1.95Zm.23-.06h.05l.06.05 1.41-1.41a2.12 2.12 0 0 0-1.52-.64v2Zm.2.13c.04.03.03.04.02.01a.18.18 0 0 1-.02-.07h2a1.9 1.9 0 0 0-.77-1.52l-1.23 1.58Zm0-.06v-.02l.01-.02s-.03.05-.14.12l1.14 1.65c.55-.38 1-.95 1-1.73h-2Zm-.15.1c-.3.23-.7.4-1.19.52l.47 1.95a5.25 5.25 0 0 0 1.9-.86l-1.18-1.6Zm-1.14.51c-.56.1-1.04.16-1.45.16v2a9.8 9.8 0 0 0 1.82-.2l-.37-1.96Zm-1.45.16a5.42 5.42 0 0 1-3.2-.94l-1.16 1.64a7.41 7.41 0 0 0 4.36 1.3v-2Zm-3.2-.93a6.53 6.53 0 0 1-2.09-2.54l-1.8.85a8.53 8.53 0 0 0 2.72 3.31l1.17-1.62Zm-2.08-2.53a8.08 8.08 0 0 1-.73-3.37h-2c0 1.46.3 2.86.9 4.2l1.83-.83Zm-.73-3.37c0-1.32.27-2.46.79-3.45l-1.77-.93a9.29 9.29 0 0 0-1.02 4.38h2Zm.8-3.46a8.48 8.48 0 0 1 2.15-2.7l-1.28-1.53c-1.1.92-2 2.03-2.66 3.32l1.78.91Zm2.14-2.68a10.2 10.2 0 0 1 3.14-1.73l-.65-1.9a12.2 12.2 0 0 0-3.74 2.07l1.25 1.56Zm3.15-1.73c1.16-.42 2.33-.63 3.53-.63v-2c-1.43 0-2.84.25-4.2.75l.67 1.88Zm3.53-.63c1.94 0 3.55.36 4.87 1.05l.93-1.78a12.43 12.43 0 0 0-5.8-1.27v2Zm4.88 1.05c1.36.7 2.4 1.64 3.12 2.85l1.72-1.03a9.54 9.54 0 0 0-3.93-3.6l-.9 1.78Zm3.13 2.86a7.91 7.91 0 0 1 1.1 4.25h2a9.9 9.9 0 0 0-1.4-5.3l-1.7 1.05Zm1.1 4.25c0 .28-.02.58-.04.9l2 .17c.02-.37.04-.73.04-1.07h-2Zm-.04.9-.12 1 1.97.31c.06-.39.11-.77.14-1.14l-2-.17Zm-.12.98a9.81 9.81 0 0 1-1.64 3.83l1.64 1.13a11.8 11.8 0 0 0 1.97-4.6l-1.97-.36Zm-1.64 3.83a22.9 22.9 0 0 1-3.26 3.75l1.37 1.46a24.9 24.9 0 0 0 3.53-4.08l-1.64-1.13Zm-3.26 3.75a39.22 39.22 0 0 1-3.98 3.27l1.16 1.63a41.2 41.2 0 0 0 4.19-3.44l-1.37-1.46Zm-3.98 3.27a84.7 84.7 0 0 1-3.83 2.59l1.07 1.69c1.2-.76 2.5-1.64 3.92-2.65l-1.16-1.63Zm-3.74 4.33.43.21.9-1.78-.44-.22-.89 1.79Zm.48.24c.7.3 1.53.61 2.49.93l.63-1.9c-.93-.3-1.7-.6-2.32-.87l-.8 1.84Zm2.49.93c.97.33 1.94.6 2.92.84L76 41.6c-.92-.22-1.84-.49-2.76-.8l-.63 1.9Zm2.92.84c1.02.24 1.94.37 2.73.37v-2c-.59 0-1.34-.1-2.27-.31l-.46 1.94Zm2.73.37c.81 0 1.62-.15 2.41-.45l-.7-1.87c-.58.22-1.15.32-1.71.32v2Zm2.45-.46c.48-.2.92-.52 1.22-.97.3-.45.42-.97.42-1.5h-2c0 .21-.04.33-.09.39a.64.64 0 0 1-.32.23l.77 1.85Zm1.64-2.47c0-.44-.23-.75-.38-.91a2.77 2.77 0 0 0-.55-.45l-1.08 1.69.13.08.03.03-.07-.1a.75.75 0 0 1-.08-.34h2Zm-.88-1.32c-.24-.18-.23-.28-.23-.31h-2c0 .82.43 1.47 1.05 1.92l1.18-1.61Zm-.23-.31v-.03.01l-1.41-1.42a2 2 0 0 0-.6 1.44h2Zm-.05.02c.05-.04.08-.06.16-.06v-2a2.2 2.2 0 0 0-1.47.55l1.31 1.5Zm.16-.06c.23 0 .5.1.8.44l1.5-1.33a3.03 3.03 0 0 0-2.3-1.1v2Zm.82.46c.36.38.46.69.46.95h2c0-.88-.38-1.66-1-2.32l-1.46 1.37Zm.46.95c0 .91-.23 1.53-.61 1.97l1.5 1.31a4.85 4.85 0 0 0 1.11-3.28h-2Zm-.64 2c-.43.54-.96.92-1.6 1.14l.64 1.9a5.42 5.42 0 0 0 2.53-1.8l-1.57-1.24Zm-1.6 1.14c-.74.25-1.45.38-2.13.38v2c.92 0 1.85-.17 2.77-.49l-.65-1.89Zm-17.78-.94c.61 0 1.21-.06 1.8-.2l-.43-1.94c-.44.1-.9.14-1.37.14v2Zm1.84-.2c.53-.14 1.05-.3 1.38-.52l-1.11-1.67-.19.08-.59.18.51 1.93Zm1.77-1.04.04-.13-1.9-.63-.04.13 1.9.63Zm-.1-1.04a2.1 2.1 0 0 0-.81-.62 4.93 4.93 0 0 0-.98-.32l-.44 1.95c.27.07.46.13.57.18.13.06.1.08.05 0l1.6-1.2Zm-1.73-.92a7.4 7.4 0 0 0-2.04-.3v2c.47 0 .96.07 1.49.22l.55-1.92Zm-2.04-.3c-.5 0-.97.07-1.4.24l.74 1.86c.14-.06.35-.1.66-.1v-2Zm-1.4.24c-.25.1-.51.25-.73.5-.22.28-.33.6-.33.95h2a.53.53 0 0 1-.13.34c-.07.08-.12.09-.07.07l-.75-1.86Zm-1.06 1.45c0 .36.11.7.34 1 .23.28.51.45.79.57l.77-1.85c-.07-.03-.04-.03 0 .03a.42.42 0 0 1 .1.25h-2Zm1.2 1.6c.46.15.98.21 1.52.21v-2c-.38 0-.67-.04-.9-.12l-.62 1.9Zm30.6 3.04-.38.93h.01l.37-.93ZM88.76 44l-.64.77.64-.77Zm-2.1-2.54-.89.47v.01l.89-.48Zm-.52-4.81-.95-.32v.02l-.01.02.96.28Zm.9-1.81-.82-.56.82.56Zm1.85-1.55-.37-.92h-.02l.4.92Zm5.03.13-.42.9.01.01h.02l.4-.9Zm2.11 1.64-.8.6h.01v.02l.8-.62Zm.52 3.52-.76-.66v.01l.76.65ZM95 38.53l-.7.7.03.04.04.04.63-.78Zm-.43-1-1 .05v.03l1-.07Zm-.99-1.71-.56.83.02.01.54-.84Zm-4.47.3.74.67-.74-.67Zm-.05 4.9.86-.5-.86.5Zm2.37 2.28.52-.85-.02-.01-.5.86Zm7.57.43-.24-.97h-.03l.27.97Zm3.52-1.5.55.84v-.01h.01l-.56-.83Zm2.54-2.67-.85-.53v.01l.85.52Zm-2.5-10.06.47-.89-.22-.11h-.24v1Zm-.08 0v-1h-.26l-.22.12.48.88Zm-2.84 1.03.17.99h.02l-.19-.99Zm-4.51.13-.2.98H95l.14-.98Zm-1.64-3.31.58.81h.02l-.6-.81Zm1.55-.69.23.97-.23-.97Zm1.8-.3-.08-1 .09 1Zm5.25.52-.33.94.16.05h.17v-1Zm.09 0v1h.35l.27-.22-.62-.79Zm1.85-1.98.85.52v-.01h.01l-.86-.51Zm.56-2.88h-1v.08l.01.08.99-.16Zm-.05-.56 1-.14-1 .14Zm-1.8-2.8-.55.84h.01l.54-.84Zm-5.9-.69.2.99h.02l-.21-.99Zm-2.1 1.3.8.58h.02l-.82-.59Zm.17 1.59-.38.92.03.01.04.01.31-.95Zm1.03.34-.31.95h.03l.28-.95ZM93.2 23l.59-.8-.59.8Zm-.86-1.11-.94.33v.02l.94-.35Zm-.26-1.9-.98-.16-.02.08V20h1Zm.1-.47-.99-.21v.02l.98.2Zm1.5-2.62.6.8.01-.01-.61-.8Zm2.66-1.2.2.98h.02l-.22-.98Zm6.32.43-.43.9h.01l.42-.9Zm2.84 2.14-.76.65v.01l.76-.66Zm1.33 3.19-1 .09.01.02v.03l1-.14Zm-2.32 6.53-.7-.71-.3.3v.41h1Zm0 .13h-1v.52l.43.3.57-.82Zm2.88 3.36-.9.44.01.01.9-.45Zm-.13 8.77-.88-.46.88.46Zm-3.6 3.83-.56-.84.55.84Zm-4.18 1.76-.22-.98h-.02l.24.98Zm-.21-16.73.25.97h.02l.01-.01-.28-.96Zm1.63-.82.78.63.34-.43-.17-.51-.95.31Zm-.04-.12.95-.32-.1-.31-.27-.19-.58.81Zm-1.3-.4-.17 1 .18-1Zm-3.65.05-.27-.96h-.01l.28.96Zm-.26 1.46-.41.91.04.02.03.01.34-.94ZM95 45.4a8.1 8.1 0 0 1-2.95-.58l-.73 1.86c1.2.48 2.43.72 3.68.72v-2Zm-2.94-.57a9.9 9.9 0 0 1-2.65-1.6l-1.29 1.53a11.9 11.9 0 0 0 3.2 1.92l.74-1.85Zm-2.65-1.6a7.81 7.81 0 0 1-1.88-2.26l-1.75.96c.58 1.06 1.36 2 2.34 2.83l1.29-1.54Zm-1.87-2.25a5.44 5.44 0 0 1-.66-2.58h-2c0 1.23.3 2.4.9 3.52l1.76-.94Zm-.66-2.58c0-.47.07-.97.22-1.49l-1.92-.55a7.4 7.4 0 0 0-.3 2.04h2Zm.2-1.45c.18-.5.44-1.03.8-1.57l-1.67-1.1a8.6 8.6 0 0 0-1.02 2.04l1.9.63Zm.8-1.56c.38-.57.85-.95 1.4-1.19l-.78-1.84a5.2 5.2 0 0 0-2.28 1.9l1.65 1.13Zm1.39-1.18a5.2 5.2 0 0 1 1.99-.4v-2c-.94 0-1.86.18-2.74.55l.75 1.85Zm1.99-.4c.76 0 1.5.17 2.24.5l.85-1.8a7.24 7.24 0 0 0-3.1-.7v2Zm2.27.52c.7.3 1.27.75 1.7 1.32l1.6-1.21a6.18 6.18 0 0 0-2.5-1.95l-.8 1.84Zm1.72 1.34c.39.5.6 1.09.6 1.83h2c0-1.16-.34-2.2-1.04-3.08l-1.56 1.25Zm.6 1.83c0 .17-.02.3-.04.36l-.02.05 1.5 1.32c.44-.5.56-1.14.56-1.73h-2Zm-.06.42.02-.02.03-.02h.02v2c.55 0 1.07-.22 1.45-.66l-1.52-1.3Zm.07-.05s-.08 0-.24-.12l-1.25 1.56c.42.33.92.56 1.49.56v-2Zm-.15-.05c-.07-.07-.13-.16-.14-.35l-2 .14c.05.62.28 1.18.72 1.63l1.42-1.42Zm-.14-.32a3.02 3.02 0 0 0-1.45-2.52l-1.08 1.68c.36.23.51.5.53.92l2-.08ZM94.14 35a4.22 4.22 0 0 0-2.37-.83v2c.32 0 .73.12 1.25.48l1.12-1.66Zm-2.37-.83c-1.36 0-2.57.36-3.4 1.28l1.48 1.34c.31-.35.88-.62 1.92-.62v-2Zm-3.4 1.28a4.21 4.21 0 0 0-1.12 2.9h2c0-.6.2-1.11.6-1.56l-1.48-1.34Zm-1.12 2.9c0 1.08.34 2.15.95 3.18l1.72-1.02a4.23 4.23 0 0 1-.67-2.15h-2Zm.95 3.18a7.46 7.46 0 0 0 2.73 2.63l1-1.72a5.46 5.46 0 0 1-2-1.93l-1.73 1.02Zm2.7 2.62a8.12 8.12 0 0 0 4.31 1.1v-2a6.14 6.14 0 0 1-3.26-.8l-1.04 1.7Zm4.31 1.1c1.36 0 2.7-.19 4.05-.55l-.53-1.93c-1.17.32-2.35.48-3.52.48v2Zm4.03-.55c1.39-.34 2.67-.88 3.83-1.64l-1.1-1.67c-.95.62-2.02 1.08-3.21 1.37l.48 1.94Zm3.84-1.65a9.32 9.32 0 0 0 2.84-2.98l-1.72-1.02a7.33 7.33 0 0 1-2.24 2.35l1.12 1.65Zm2.83-2.96a8.02 8.02 0 0 0 1.14-4.31h-2c0 1.3-.3 2.38-.84 3.25l1.7 1.06Zm1.14-4.31c0-1.62-.32-3.07-1-4.3a7.1 7.1 0 0 0-3.02-2.87l-.92 1.78a5.1 5.1 0 0 1 2.2 2.07c.47.86.74 1.95.74 3.32h2Zm-4.48-7.28h-.09v2h.09v-2Zm-.57.12c-.8.44-1.65.75-2.55.93l.39 1.96c1.1-.22 2.14-.6 3.12-1.14l-.96-1.75Zm-2.53.92c-.94.17-1.9.25-2.84.25v2c1.06 0 2.12-.1 3.18-.27l-.34-1.98Zm-2.84.25c-.33 0-.78-.04-1.36-.12l-.28 1.98c.62.09 1.18.14 1.64.14v-2Zm-1.3-.11a3.13 3.13 0 0 1-1.18-.49L93 30.84c.58.4 1.22.66 1.92.8l.4-1.96Zm-1.18-.49c-.14-.1-.26-.24-.26-.64h-2c0 .92.34 1.75 1.12 2.29l1.14-1.65Zm-.26-.64c0-.2.06-.3.18-.39l-1.16-1.63a2.4 2.4 0 0 0-1.02 2.02h2Zm.2-.4c.3-.22.69-.4 1.18-.52l-.46-1.94a5.3 5.3 0 0 0-1.9.85l1.17 1.61Zm1.18-.52a14.2 14.2 0 0 1 1.67-.28l-.19-1.99c-.65.07-1.3.17-1.94.33l.46 1.94Zm1.67-.28c.61-.05 1.1-.08 1.5-.08v-2c-.47 0-1.03.03-1.68.1l.18 1.98Zm1.5-.08c1.18 0 2.29.19 3.32.55l.66-1.89a11.98 11.98 0 0 0-3.98-.66v2Zm3.65.6h.09v-2h-.09v2Zm.71-.21c.9-.7 1.6-1.45 2.08-2.24l-1.7-1.04a6.8 6.8 0 0 1-1.62 1.71l1.24 1.57Zm2.1-2.26c.5-.86.73-1.82.73-2.87h-2c0 .73-.16 1.35-.46 1.86l1.72 1.01Zm.73-2.87c0-.23-.02-.45-.06-.68l-1.97.33.03.35h2Zm-.04-.51a5 5 0 0 0-.06-.7l-1.97.28a3 3 0 0 1 .03.42h2Zm-.06-.7a4.82 4.82 0 0 0-2.25-3.5l-1.08 1.68c.79.5 1.22 1.19 1.36 2.1l1.97-.28Zm-2.24-3.5a6.83 6.83 0 0 0-3.82-1.15v2c.98 0 1.88.27 2.72.83l1.1-1.67Zm-3.82-1.15c-.88 0-1.83.11-2.83.33l.42 1.95a11.6 11.6 0 0 1 2.41-.28v-2Zm-2.8.32a4.18 4.18 0 0 0-2.75 1.7l1.64 1.15c.32-.45.78-.75 1.47-.88l-.37-1.97Zm-2.74 1.69c-.3.4-.53.9-.53 1.44h2l.01-.03c.02-.05.06-.13.14-.24l-1.62-1.17Zm-.53 1.44a1.74 1.74 0 0 0 1.13 1.66l.77-1.85c-.04-.02 0 0 .04.06l.05.1v.03h-2Zm1.2 1.68 1.03.35.63-1.9-1.03-.34-.63 1.9Zm1.06.36c.16.04.18.09.16.07a.11.11 0 0 1-.02-.04v.04h2a2 2 0 0 0-1.57-1.98l-.57 1.9Zm.14.07c0 .1-.01.14-.02.14l-.03.03c-.09.06-.34.16-.92.16v2c.74 0 1.47-.11 2.04-.5.64-.43.93-1.1.93-1.83h-2Zm-.97.33c-.34 0-.69-.1-1.05-.37l-1.17 1.63c.66.48 1.41.74 2.22.74v-2Zm-1.06-.37c-.24-.17-.4-.38-.5-.65l-1.87.7c.24.64.65 1.18 1.21 1.58l1.16-1.63Zm-.5-.64c-.13-.39-.2-.75-.2-1.08h-2c0 .58.11 1.17.32 1.75l1.89-.67Zm-.2-1.08V20h-2v.47h2Zm0-.31.07-.44-1.96-.4a16 16 0 0 0-.1.51l1.98.33Zm.07-.42a3.35 3.35 0 0 1 1.14-2.05l-1.22-1.58a5.33 5.33 0 0 0-1.88 3.2l1.96.43Zm1.14-2.05a5.3 5.3 0 0 1 2.25-1.01l-.4-1.97c-1.14.23-2.18.7-3.08 1.4l1.23 1.58Zm2.27-1.02c.97-.21 1.88-.32 2.75-.32v-2c-1.03 0-2.09.13-3.19.37l.44 1.95Zm2.75-.32c.99 0 1.96.22 2.92.68l.86-1.8a8.75 8.75 0 0 0-3.78-.88v2Zm2.93.68a7.1 7.1 0 0 1 2.5 1.89l1.52-1.29a9.11 9.11 0 0 0-3.18-2.41l-.84 1.81Zm2.5 1.9c.64.72 1 1.58 1.1 2.62l1.99-.19a6.49 6.49 0 0 0-1.57-3.74l-1.51 1.31Zm1.1 2.67a3 3 0 0 1 .04.42h2a5 5 0 0 0-.06-.7l-1.98.28Zm.04.42v.56h2v-.57h-2Zm0 .55c0 1.78-.67 3.33-2.07 4.7l1.4 1.44a8.36 8.36 0 0 0 2.67-6.14h-2ZM103.5 28v.13h2V28h-2Zm.43.95a7.76 7.76 0 0 1 2.55 2.98l1.8-.88a9.78 9.78 0 0 0-3.2-3.74l-1.15 1.64Zm2.56 3c.62 1.2.93 2.47.93 3.84h2c0-1.68-.39-3.27-1.15-4.76l-1.78.91Zm.93 3.84a8.6 8.6 0 0 1-1.05 4l1.77.93a10.62 10.62 0 0 0 1.28-4.93h-2Zm-1.06 4.01a9.16 9.16 0 0 1-3.27 3.45l1.1 1.67a11.15 11.15 0 0 0 3.95-4.2l-1.78-.92Zm-3.27 3.45a11.7 11.7 0 0 1-3.84 1.62l.44 1.95c1.63-.37 3.14-1 4.5-1.9l-1.1-1.67Zm-3.86 1.63c-1.42.35-2.83.53-4.23.53v2c1.57 0 3.15-.2 4.71-.6l-.48-1.93Zm-2.38-14.41c.84 0 1.73-.14 2.66-.38L99 28.14c-.8.22-1.5.31-2.15.31v2Zm2.7-.4c.45-.13.87-.28 1.2-.45.33-.17.67-.38.92-.7l-1.56-1.24c.02-.02-.03.04-.25.15-.2.1-.5.21-.9.33l.58 1.92Zm2.29-2.08-.05-.13-1.9.63.05.13 1.9-.63Zm-.41-.63a2.62 2.62 0 0 0-.77-.35 8.21 8.21 0 0 0-.93-.2l-.34 1.96c.3.06.53.11.7.16.18.05.21.08.17.06l1.17-1.63Zm-1.7-.56c-.69-.12-1.4-.18-2.1-.18v2c.6 0 1.18.05 1.75.15l.36-1.97Zm-2.1-.18c-.71 0-1.38.08-2 .25l.54 1.92c.41-.11.9-.17 1.45-.17v-2Zm-2.01.25c-.36.1-.73.29-1.01.6-.3.34-.44.76-.44 1.18h2l-.01.06a.3.3 0 0 1-.06.1l-.02.02.1-.04-.56-1.92Zm-1.45 1.78c0 .34.1.67.31.97.2.28.48.46.75.58l.83-1.82c-.05-.02-.01-.01.04.05a.4.4 0 0 1 .07.22h-2Zm1.13 1.58c.46.17 1 .23 1.55.23v-2a3 3 0 0 1-.86-.1l-.69 1.87Z" mask="url(#Kodekalender_Logo_Desktop_svg__b)"/>
</g>
<defs>
<clipPath id="Kodekalender_Logo_Desktop_svg__a">
<path fill="#fff" d="M0 0h120v48H0z"/>
</clipPath>
</defs>
</svg>
