<svg xmlns="http://www.w3.org/2000/svg" fill="none" viewBox="0 0 36 30">
<path fill="#751C15" d="M21.85 2.77c-1.82 1.03-2.42 3.18-2.63 4.03l8.52.59 1.1 1.52c.12.6.06 1.4.42 2.89.37 1.47 2.5 2.3 3.32 2.15l.63-1.8c-.25-.1-.93.17-1.6-.75-.5-.7 0-2.2.15-3.43.16-1.24.1-4.25-2.6-5.3-2.57-1-4.94-1.23-7.31.1Z"/>
<ellipse cx="1.98" cy="2.07" fill="#F8F9FA" rx="1.98" ry="2.07" transform="matrix(.98986 .14203 -.12968 .99156 31.82 11.33)"/>
<path fill="#F8F9FA" d="M21.55 7.15a1.8 1.8 0 0 1-2 1.6 1.85 1.85 0 0 1-1.53-2.1 1.8 1.8 0 0 1 2-1.6 1.85 1.85 0 0 1 1.53 2.1Z"/>
<path fill="#F8F9FA" d="M23.98 6.87a1.8 1.8 0 0 1-2 1.6 1.85 1.85 0 0 1-1.53-2.1 1.8 1.8 0 0 1 2.01-1.6 1.85 1.85 0 0 1 1.52 2.1Zm7.35 1.9a1.8 1.8 0 0 1-2 1.6 1.85 1.85 0 0 1-1.53-2.11 1.8 1.8 0 0 1 2.01-1.6 1.85 1.85 0 0 1 1.52 2.1Z"/>
<path fill="#F8F9FA" d="M26.79 6.86a2 2 0 0 1-2.24 1.77 2.06 2.06 0 0 1-1.69-2.34 2 2 0 0 1 2.23-1.77 2.06 2.06 0 0 1 1.7 2.34Z"/>
<path fill="#F8F9FA" d="M29.31 7.43a2 2 0 0 1-2.23 1.77 2.06 2.06 0 0 1-1.7-2.34 2 2 0 0 1 2.24-1.77 2.06 2.06 0 0 1 1.69 2.34ZM11.45 27c-.8 0-1.59-.13-2.5-.47-.86-.33-1.65-.6-2.39-.93-.18-.07-.3-.13-.42-.2-.07 0-.07 0-.13-.07l-.42.27c-.25.13-.5.27-.8.4-.12.07-.37.13-.61.2-.55.13-1.16.07-1.71-.13-.25-.07-.5-.27-.8-.47A1.7 1.7 0 0 1 1 24.2c0-.2.06-.47.12-.73.25-.54.55-.94.98-1.14.73-.4 1.65-.33 2.63-.13.37.07.67.2 1.04.27.37-.2.73-.54 1.22-.87.55-.4 1.16-.87 1.77-1.4.62-.53 1.17-1.07 1.72-1.6.49-.53.97-1.13 1.28-1.67.3-.46.49-1 .55-1.4.06-.33.06-.6.06-.86 0-1.07-.24-1.8-.85-2.34-.55-.53-1.47-.8-2.63-.8-.61 0-1.17.14-1.72.47a3.22 3.22 0 0 0-1.83 2.93c0 .47.06.87.25 1.27.12.33.36.67.6.87.25.2.62.33.98.33h.25c.12-.07.24-.07.37-.13l.3-.14c.19-.06.3-.06.37-.06.3 0 .61.13.85.33.25.27.37.6.37.93 0 .27-.06.67-.55 1.07-.24.2-.61.4-1.04.47-.37.06-.67.13-.98.13-.85 0-1.65-.27-2.26-.73a4.58 4.58 0 0 1-1.4-1.87 6.19 6.19 0 0 1 .06-4.93c.36-.74.8-1.34 1.4-1.87a5.5 5.5 0 0 1 1.96-1.2 6.4 6.4 0 0 1 5.2.33c.85.47 1.52 1.2 2.01 2.07a6 6 0 0 1 .74 3v.6c0 .2-.06.4-.06.67-.13.93-.5 1.8-1.04 2.6-.5.8-1.1 1.6-1.84 2.26-.67.74-1.4 1.34-2.14 1.94-.36.26-.67.53-1.04.8.13.06.25.06.37.13.49.2.92.33 1.4.47.86.2 1.35.26 1.96 0 .06 0 .06 0 .06-.07a1.4 1.4 0 0 1-.49-1.07c0-.33.13-.66.37-.86.25-.2.49-.34.8-.34.3 0 .8.14 1.28.67.37.4.55.87.55 1.33 0 .74-.18 1.4-.55 1.94-.37.46-.8.8-1.35 1-.73.06-1.22.13-1.65.13Zm9.92 0a6.37 6.37 0 0 1-5.33-2.95 3.92 3.92 0 0 1-.54-1.93c0-.38.07-.77.2-1.15.14-.39.35-.77.62-1.16.34-.5.82-.83 1.37-1.09a4.5 4.5 0 0 1 3.41.07c.61.25 1.1.64 1.43 1.09.41.51.62 1.09.62 1.73 0 .45-.14.77-.34.96-.28.26-.55.39-.96.39-.2 0-.55-.07-.95-.39a1.33 1.33 0 0 1-.48-.96c0-.2-.07-.32-.28-.45-.27-.13-.47-.25-.68-.25-.48 0-.82.12-1.02.32-.2.19-.34.44-.34.77 0 .32.13.7.34 1.09.27.38.61.77 1.09 1.02.89.52 2.39.52 3.82.13a4.36 4.36 0 0 0 1.78-.77c.55-.32.96-.7 1.23-1.22.27-.45.48-1.02.48-1.67 0-1.21-.41-2.11-1.37-2.63a9 9 0 0 1-3.35.64c-.27 0-.61 0-.95-.06-.41-.06-.82-.2-1.16-.45-.34-.19-.69-.58-.69-1.28 0-.51.2-.9.62-1.16.34-.19.68-.38 1.1-.45l1.15-.19c.41-.06.69-.06.96-.06.68 0 1.36.06 1.98.26.27-.26.48-.45.61-.71a2 2 0 0 0 .28-.96V13a1.37 1.37 0 0 0-.69-1.02c-.82-.52-1.7-.52-2.86-.32-.35.06-.62.19-.76.38.14.07.2.07.35.13.61.2.95.58.95 1.15 0 .33-.13 1.35-1.84 1.35-.48 0-.96-.13-1.37-.45a1.95 1.95 0 0 1-.75-.9c-.14-.32-.2-.64-.2-.96v-.32c0-.13 0-.26.06-.32.2-.77.55-1.41 1.1-1.8a4.4 4.4 0 0 1 1.77-.77 6.58 6.58 0 0 1 4.03.33 6 6 0 0 1 1.85 1.28c.54.58.82 1.28.95 2.05v.71c0 1.09-.34 2.05-1.09 2.88a5.78 5.78 0 0 1 1.98 4.17c0 .9-.27 1.8-.75 2.7a6.4 6.4 0 0 1-2.32 2.3c-.75.52-1.64.84-2.6 1.04a7 7 0 0 1-2.46.38Z"/>
</svg>
