<svg xmlns="http://www.w3.org/2000/svg" fill="none" viewBox="0 0 36 30" xmlns:xlink="http://www.w3.org/1999/xlink">
<g clip-path="url(#Kodekalender_Logo_Mobile_svg__a)">
<path fill="#751C15" d="M21.8 3.57c-1.82 1.03-2.42 3.18-2.63 4.02l8.52.6 1.1 1.52c.12.6.06 1.4.43 2.89.36 1.47 2.5 2.3 3.31 2.15l.64-1.8c-.26-.1-.94.17-1.6-.75-.51-.7-.02-2.2.14-3.43.17-1.24.1-4.25-2.6-5.3-2.57-1-4.94-1.23-7.31.1Z"/>
<ellipse cx="1.98" cy="2.07" fill="#F8F9FA" rx="1.98" ry="2.07" transform="matrix(.98986 .14203 -.12968 .99156 31.78 12.13)"/>
<path fill="#F8F9FA" d="M21.5 8.14a1.8 1.8 0 0 1-2 1.6 1.85 1.85 0 0 1-1.53-2.1 1.8 1.8 0 0 1 2-1.6 1.85 1.85 0 0 1 1.53 2.1Z"/>
<path fill="#F8F9FA" d="M23.94 7.86a1.8 1.8 0 0 1-2.01 1.6 1.85 1.85 0 0 1-1.53-2.1 1.8 1.8 0 0 1 2.01-1.6 1.85 1.85 0 0 1 1.53 2.1Zm7.35 1.89a1.8 1.8 0 0 1-2.01 1.6 1.85 1.85 0 0 1-1.53-2.1 1.8 1.8 0 0 1 2.01-1.6 1.85 1.85 0 0 1 1.53 2.1Z"/>
<path fill="#F8F9FA" d="M26.74 7.84a2 2 0 0 1-2.23 1.78 2.06 2.06 0 0 1-1.7-2.34 2 2 0 0 1 2.23-1.77 2.06 2.06 0 0 1 1.7 2.33Z"/>
<path fill="#F8F9FA" d="M29.26 8.41a2 2 0 0 1-2.23 1.78 2.06 2.06 0 0 1-1.7-2.34 2 2 0 0 1 2.24-1.77 2.06 2.06 0 0 1 1.7 2.33Z"/>
<mask id="Kodekalender_Logo_Mobile_svg__b" width="30" height="20" x="0" y="9" fill="#000" maskUnits="userSpaceOnUse">
<path fill="#fff" d="M0 9h30v20H0z"/>
<path d="M11.74 27.25c-.77 0-1.62-.15-2.55-.46a78.94 78.94 0 0 1-3.43-1.25h-.05l-.74.44a5.73 5.73 0 0 1-1.27.55 3.24 3.24 0 0 1-1.56-.12 3.6 3.6 0 0 1-.72-.41 1 1 0 0 1-.44-.86 1.52 1.52 0 0 1 .87-1.3c.33-.16.7-.24 1.1-.24.42 0 .86.06 1.32.17.48.11.92.23 1.32.36h.05a39.4 39.4 0 0 0 3.53-2.43c.67-.52 1.3-1.08 1.9-1.65.59-.58 1.08-1.16 1.48-1.75.42-.6.66-1.16.72-1.7.05-.34.07-.66.07-.97 0-1.23-.38-2.17-1.15-2.8-.75-.66-1.85-.99-3.31-.99a5.01 5.01 0 0 0-3.91 1.92c-.45.6-.67 1.29-.67 2.09 0 .54.1 1.05.28 1.53.21.47.52.85.92 1.16a2.44 2.44 0 0 0 1.9.38l.42-.14.15-.05.14-.05.27-.05c.17 0 .32.07.45.2a.5.5 0 0 1 .22.4c0 .2-.1.36-.31.5-.24.18-.53.31-.87.39-.33.06-.64.1-.91.1-.82 0-1.52-.21-2.11-.63a4.2 4.2 0 0 1-1.35-1.63 5.07 5.07 0 0 1 .05-4.3 5.5 5.5 0 0 1 1.35-1.68 6.25 6.25 0 0 1 1.92-1.05c.7-.26 1.42-.39 2.16-.39 1.15 0 2.14.22 2.97.65a4.77 4.77 0 0 1 2.67 4.47 6.65 6.65 0 0 1-.1 1.15c-.14.8-.48 1.58-1 2.35a13.8 13.8 0 0 1-1.9 2.18c-.74.7-1.5 1.32-2.28 1.88-.79.56-1.5 1.04-2.16 1.46l.24.12a16.57 16.57 0 0 0 2.92.96c.55.13 1.01.2 1.4.2.38 0 .76-.08 1.15-.22a.87.87 0 0 0 .57-.87c0-.08-.08-.17-.26-.29-.24-.17-.36-.38-.36-.62 0-.16.06-.3.17-.4a.67.67 0 0 1 .45-.18c.32 0 .61.15.87.44.27.28.4.59.4.9 0 .62-.15 1.1-.47 1.47-.3.39-.7.66-1.16.82-.46.16-.92.24-1.36.24ZM3 25.4a3.8 3.8 0 0 0 1.49-.31l.02-.07c-.1-.13-.32-.24-.67-.32-.34-.1-.66-.14-.98-.14-.23 0-.42.03-.58.1-.16.06-.24.16-.24.28 0 .16.1.28.29.36.19.07.41.1.67.1Zm18.08 2.5a5 5 0 0 1-1.85-.36 6.08 6.08 0 0 1-1.63-.99 4.9 4.9 0 0 1-1.18-1.41 3.6 3.6 0 0 1-.28-2.7c.1-.33.28-.66.5-1 .27-.4.62-.69 1.03-.86a3.47 3.47 0 0 1 3.99.98c.3.38.45.84.45 1.37 0 .27-.05.47-.17.6a.48.48 0 0 1-.38.17.77.77 0 0 1-.48-.2.84.84 0 0 1-.24-.55c-.02-.41-.2-.73-.55-.96a1.8 1.8 0 0 0-1.01-.36c-.67 0-1.17.18-1.49.53a1.8 1.8 0 0 0-.48 1.25c0 .48.15.97.46 1.49a3.98 3.98 0 0 0 3.43 1.8 8 8 0 0 0 4.08-1.13c.6-.4 1.06-.9 1.42-1.49.36-.6.55-1.3.55-2.11 0-1.67-.65-2.83-1.95-3.5h-.04a5.6 5.6 0 0 1-1.59.57c-.56.1-1.12.14-1.68.14-.22 0-.5-.02-.84-.07a2.3 2.3 0 0 1-.86-.36c-.26-.17-.39-.45-.39-.81 0-.3.12-.52.34-.68.24-.17.53-.3.86-.38a7.36 7.36 0 0 1 1.9-.22c.72 0 1.4.12 2.04.34h.05c.46-.37.8-.74 1.03-1.1a2.57 2.57 0 0 0 .31-1.61c0-.1 0-.2-.02-.31a2.1 2.1 0 0 0-1.01-1.56 3.26 3.26 0 0 0-1.82-.56c-.45 0-.94.06-1.47.17-.51.1-.9.34-1.17.72a.84.84 0 0 0-.2.48c0 .2.1.33.3.41l.57.2c.32.09.48.28.48.57 0 .5-.37.74-1.1.74a1.53 1.53 0 0 1-1.4-.93c-.1-.28-.14-.54-.14-.8v-.26l.05-.26c.14-.66.42-1.15.84-1.47a3.5 3.5 0 0 1 1.48-.67c.58-.13 1.13-.2 1.66-.2.64 0 1.26.15 1.87.44.63.29 1.15.69 1.59 1.2a3.06 3.06 0 0 1 .76 2.08v.32a4.1 4.1 0 0 1-1.32 3.02v.08a5.2 5.2 0 0 1 1.54 6.77 5.66 5.66 0 0 1-2.02 2.13 7 7 0 0 1-2.32.98c-.84.21-1.67.32-2.5.32Zm1.03-9.46c.42 0 .87-.06 1.35-.2.48-.14.78-.29.9-.45l-.02-.07a2.02 2.02 0 0 0-.72-.22c-.35-.06-.7-.1-1.08-.1-.35 0-.67.05-.96.13-.27.08-.4.23-.4.45 0 .16.08.28.26.36.18.07.4.1.67.1Z"/>
</mask>
<path fill="#F8F9FA" d="M11.74 27.25c-.77 0-1.62-.15-2.55-.46a78.94 78.94 0 0 1-3.43-1.25h-.05l-.74.44a5.73 5.73 0 0 1-1.27.55 3.24 3.24 0 0 1-1.56-.12 3.6 3.6 0 0 1-.72-.41 1 1 0 0 1-.44-.86 1.52 1.52 0 0 1 .87-1.3c.33-.16.7-.24 1.1-.24.42 0 .86.06 1.32.17.48.11.92.23 1.32.36h.05a39.4 39.4 0 0 0 3.53-2.43c.67-.52 1.3-1.08 1.9-1.65.59-.58 1.08-1.16 1.48-1.75.42-.6.66-1.16.72-1.7.05-.34.07-.66.07-.97 0-1.23-.38-2.17-1.15-2.8-.75-.66-1.85-.99-3.31-.99a5.01 5.01 0 0 0-3.91 1.92c-.45.6-.67 1.29-.67 2.09 0 .54.1 1.05.28 1.53.21.47.52.85.92 1.16a2.44 2.44 0 0 0 1.9.38l.42-.14.15-.05.14-.05.27-.05c.17 0 .32.07.45.2a.5.5 0 0 1 .22.4c0 .2-.1.36-.31.5-.24.18-.53.31-.87.39-.33.06-.64.1-.91.1-.82 0-1.52-.21-2.11-.63a4.2 4.2 0 0 1-1.35-1.63 5.07 5.07 0 0 1 .05-4.3 5.5 5.5 0 0 1 1.35-1.68 6.25 6.25 0 0 1 1.92-1.05c.7-.26 1.42-.39 2.16-.39 1.15 0 2.14.22 2.97.65a4.77 4.77 0 0 1 2.67 4.47 6.65 6.65 0 0 1-.1 1.15c-.14.8-.48 1.58-1 2.35a13.8 13.8 0 0 1-1.9 2.18c-.74.7-1.5 1.32-2.28 1.88-.79.56-1.5 1.04-2.16 1.46l.24.12a16.57 16.57 0 0 0 2.92.96c.55.13 1.01.2 1.4.2.38 0 .76-.08 1.15-.22a.87.87 0 0 0 .57-.87c0-.08-.08-.17-.26-.29-.24-.17-.36-.38-.36-.62 0-.16.06-.3.17-.4a.67.67 0 0 1 .45-.18c.32 0 .61.15.87.44.27.28.4.59.4.9 0 .62-.15 1.1-.47 1.47-.3.39-.7.66-1.16.82-.46.16-.92.24-1.36.24ZM3 25.4a3.8 3.8 0 0 0 1.49-.31l.02-.07c-.1-.13-.32-.24-.67-.32-.34-.1-.66-.14-.98-.14-.23 0-.42.03-.58.1-.16.06-.24.16-.24.28 0 .16.1.28.29.36.19.07.41.1.67.1Zm18.08 2.5a5 5 0 0 1-1.85-.36 6.08 6.08 0 0 1-1.63-.99 4.9 4.9 0 0 1-1.18-1.41 3.6 3.6 0 0 1-.28-2.7c.1-.33.28-.66.5-1 .27-.4.62-.69 1.03-.86a3.47 3.47 0 0 1 3.99.98c.3.38.45.84.45 1.37 0 .27-.05.47-.17.6a.48.48 0 0 1-.38.17.77.77 0 0 1-.48-.2.84.84 0 0 1-.24-.55c-.02-.41-.2-.73-.55-.96a1.8 1.8 0 0 0-1.01-.36c-.67 0-1.17.18-1.49.53a1.8 1.8 0 0 0-.48 1.25c0 .48.15.97.46 1.49a3.98 3.98 0 0 0 3.43 1.8 8 8 0 0 0 4.08-1.13c.6-.4 1.06-.9 1.42-1.49.36-.6.55-1.3.55-2.11 0-1.67-.65-2.83-1.95-3.5h-.04a5.6 5.6 0 0 1-1.59.57c-.56.1-1.12.14-1.68.14-.22 0-.5-.02-.84-.07a2.3 2.3 0 0 1-.86-.36c-.26-.17-.39-.45-.39-.81 0-.3.12-.52.34-.68.24-.17.53-.3.86-.38a7.36 7.36 0 0 1 1.9-.22c.72 0 1.4.12 2.04.34h.05c.46-.37.8-.74 1.03-1.1a2.57 2.57 0 0 0 .31-1.61c0-.1 0-.2-.02-.31a2.1 2.1 0 0 0-1.01-1.56 3.26 3.26 0 0 0-1.82-.56c-.45 0-.94.06-1.47.17-.51.1-.9.34-1.17.72a.84.84 0 0 0-.2.48c0 .2.1.33.3.41l.57.2c.32.09.48.28.48.57 0 .5-.37.74-1.1.74a1.53 1.53 0 0 1-1.4-.93c-.1-.28-.14-.54-.14-.8v-.26l.05-.26c.14-.66.42-1.15.84-1.47a3.5 3.5 0 0 1 1.48-.67c.58-.13 1.13-.2 1.66-.2.64 0 1.26.15 1.87.44.63.29 1.15.69 1.59 1.2a3.06 3.06 0 0 1 .76 2.08v.32a4.1 4.1 0 0 1-1.32 3.02v.08a5.2 5.2 0 0 1 1.54 6.77 5.66 5.66 0 0 1-2.02 2.13 7 7 0 0 1-2.32.98c-.84.21-1.67.32-2.5.32Zm1.03-9.46c.42 0 .87-.06 1.35-.2.48-.14.78-.29.9-.45l-.02-.07a2.02 2.02 0 0 0-.72-.22c-.35-.06-.7-.1-1.08-.1-.35 0-.67.05-.96.13-.27.08-.4.23-.4.45 0 .16.08.28.26.36.18.07.4.1.67.1Z"/>
<path fill="#F8F9FA" d="m9.2 26.8-.2.56.2-.57Zm-2.6-.92-.24.55h.01l.02.01.21-.56Zm-.43-.17-.25.55.03.01.03.01.19-.57Zm-.41-.17.21-.56-.1-.04h-.11v.6Zm-.05 0v-.6h-.16l-.15.09.31.51Zm-.74.44-.3-.53-.01.01.3.52Zm-.77.38-.23-.55h-.02l-.02.01.27.54Zm-.5.17.1.59-.1-.6Zm-1.56-.12-.2.56.2-.56ZM1.42 26l-.36.49h.01l.35-.49Zm-.32-1.4-.55-.23v.02l.55.22Zm.75-.76.23.55h.02l-.25-.55Zm2.42-.07-.14.58.14-.58Zm1.32.36-.18.57.09.03h.1v-.6Zm.05 0v.6h.16l.14-.08-.3-.52Zm1.58-1.01.34.5-.34-.5Zm1.95-1.42.36.48-.36-.48Zm3.38-3.4-.49-.35v.01l.5.34Zm.72-1.7-.6-.1v.02l.6.07Zm-1.08-3.78-.4.46h.02l.38-.46Zm-5.5-.48.26.55-.25-.55Zm-1.72 1.42.48.36-.48-.36Zm-.39 3.62-.55.23v.02l.55-.25Zm.92 1.16-.37.47.02.01.35-.48Zm1.9.38.14.58h.02l.02-.01-.19-.57Zm.42-.14-.19-.57.2.57Zm.15-.05.19.57-.2-.57Zm.14-.05-.14-.58h-.03l-.02.01.2.57Zm.72.14-.42.43.02.02.03.03.37-.48Zm-.1.92-.34-.5v.01l.35.49Zm-.86.38.11.59h.03l-.14-.59Zm-3.02-.53-.35.49.35-.49ZM3.5 17.96l-.54.25.54-.25Zm.05-4.3.53.28-.53-.28Zm1.35-1.68-.38-.46.38.46Zm1.92-1.05.19.57h.01l-.2-.57Zm5.13.26-.27.53.27-.53Zm1.97 1.8-.51.31.51-.3Zm.6 3.82.59.1v-.01l-.59-.1Zm-1 2.35-.5-.34.5.34Zm-1.9 2.18.4.44-.4-.44Zm-2.28 1.88.34.48-.34-.48Zm-2.16 1.46-.33-.5-.9.56.96.48.27-.54Zm.24.12-.27.54h.01l.02.01.24-.55Zm1.34.5-.19.57.19-.57Zm1.58.46-.14.58.14-.58Zm2.55-.02.2.56h.02v-.01l-.22-.55Zm.31-1.16-.36.49.02.01.02.01.32-.5Zm-.2-1.03-.39-.45-.01.01-.02.02.43.42Zm1.33.27-.45.4h.01l.44-.4Zm-.07 2.37-.46-.4v.02l-.01.01.47.37Zm-1.16.82.2.57-.2-.57ZM3.9 25.3l.13.58h.02l-.15-.59Zm.6-.22.33.5.17-.12.07-.2-.57-.18Zm.02-.07.57.19.1-.3-.19-.25-.48.36Zm-.67-.32-.17.58h.04l.13-.58Zm-1.56-.04.22.55-.22-.55Zm.05.64-.23.56h.02l.02.01.19-.57Zm9.4 1.35c-.68 0-1.47-.14-2.35-.43L9 27.36c.98.32 1.89.49 2.74.49v-1.2Zm-2.35-.43c-.9-.3-1.76-.6-2.57-.9l-.42 1.12c.82.3 1.7.62 2.61.92l.38-1.14Zm-2.54-.89a5.4 5.4 0 0 0-.48-.19l-.38 1.14.38.15.48-1.1Zm-.43-.17-.44-.18-.42 1.13.37.15.5-1.1Zm-.65-.22h-.05v1.2h.05v-1.2Zm-.36.09-.73.42.6 1.05.75-.44-.62-1.03Zm-.74.43c-.21.13-.44.24-.69.35l.46 1.1c.3-.12.58-.26.85-.42l-.62-1.03Zm-.73.36c-.1.06-.22.1-.34.12l.21 1.18c.24-.04.46-.12.67-.22l-.54-1.08Zm-.34.12c-.14.02-.28.04-.42.04v1.2c.21 0 .42-.02.63-.06l-.21-1.18Zm-.42.04c-.29 0-.57-.05-.84-.14l-.38 1.14c.4.13.8.2 1.22.2v-1.2Zm-.83-.14c-.1-.03-.3-.13-.59-.34l-.67 1c.31.21.6.38.85.47l.41-1.13Zm-.57-.33a.4.4 0 0 1-.19-.37H.38c0 .55.23 1.02.68 1.35l.7-.98Zm-.19-.37c0-.05.02-.14.08-.32L.54 24.4c-.09.25-.16.5-.16.75h1.2Zm.07-.3a.8.8 0 0 1 .43-.45l-.47-1.1a2 2 0 0 0-1.06 1.08l1.1.48Zm.46-.46c.25-.12.52-.18.84-.18V23c-.48 0-.94.1-1.36.3l.52 1.08Zm.84-.18c.36 0 .76.05 1.18.15l.28-1.17c-.5-.12-.99-.18-1.46-.18v1.2Zm1.19.15c.46.11.89.23 1.27.35l.36-1.14c-.41-.14-.87-.26-1.36-.38l-.27 1.17Zm1.45.38h.05v-1.2H5.6v1.2Zm.35-.08c.46-.27 1-.61 1.62-1.03l-.68-1c-.6.42-1.1.74-1.54.99l.6 1.04Zm1.63-1.04c.63-.43 1.28-.91 1.96-1.43l-.73-.95c-.66.5-1.3.97-1.92 1.4l.69.98Zm1.97-1.43a24.4 24.4 0 0 0 1.94-1.7l-.83-.86c-.58.56-1.2 1.1-1.85 1.61l.74.95Zm1.94-1.7c.62-.6 1.14-1.22 1.57-1.85l-1-.67c-.37.55-.84 1.1-1.4 1.66l.83.86Zm1.56-1.84c.46-.65.75-1.3.83-1.98l-1.2-.14c-.04.42-.23.9-.6 1.43l.97.7Zm.83-1.96c.05-.36.07-.71.07-1.05h-1.2c0 .27-.02.57-.06.88l1.19.17Zm.07-1.05c0-1.36-.43-2.49-1.36-3.27l-.77.92c.6.5.93 1.25.93 2.35h1.2Zm-1.35-3.26c-.9-.78-2.17-1.13-3.71-1.13v1.2c1.38 0 2.32.31 2.92.84l.79-.9Zm-3.71-1.13c-.85 0-1.66.19-2.44.56l.51 1.09c.63-.3 1.27-.45 1.93-.45v-1.2Zm-2.44.56c-.8.38-1.45.91-1.96 1.6l.97.72c.39-.53.89-.94 1.5-1.23l-.51-1.09Zm-1.95 1.6c-.53.7-.8 1.53-.8 2.45h1.2c0-.68.2-1.25.56-1.73l-.96-.72Zm-.8 2.45c0 .61.11 1.2.34 1.76l1.11-.45a3.5 3.5 0 0 1-.24-1.31H3.7Zm.35 1.78c.24.55.61 1.02 1.1 1.38l.72-.95a2.33 2.33 0 0 1-.73-.92l-1.1.49Zm1.1 1.4c.52.37 1.14.54 1.82.54v-1.2c-.47 0-.83-.12-1.11-.32l-.7.97Zm1.82.54c.2 0 .4-.02.58-.07l-.3-1.16a1.2 1.2 0 0 1-.28.03v1.2Zm.62-.08.43-.14-.38-1.14-.43.14.38 1.14Zm.43-.14.15-.05-.38-1.14-.15.05.38 1.14Zm.15-.05.14-.05-.38-1.14-.14.05.38 1.14Zm.1-.04.12-.03h.02-.02v-1.2c-.14 0-.3.04-.41.07l.29 1.16Zm.12-.03h.01l.02.02.85-.85a1.22 1.22 0 0 0-.88-.37v1.2Zm.08.07c.02.01.01.01 0 0a.14.14 0 0 1-.01-.07h1.2c0-.37-.18-.67-.45-.88l-.74.95Zm-.01-.07a.1.1 0 0 1 .01-.04l-.07.05.69.99c.31-.22.57-.55.57-1h-1.2Zm-.07.02c-.16.12-.38.22-.65.29l.28 1.16c.4-.1.77-.25 1.08-.48l-.7-.97Zm-.62.28c-.3.06-.57.09-.8.09v1.2c.32 0 .66-.04 1.02-.11l-.22-1.18Zm-.8.09c-.7 0-1.29-.18-1.77-.52l-.69.98c.7.5 1.54.74 2.46.74v-1.2ZM5.2 19.1a3.6 3.6 0 0 1-1.15-1.4l-1.09.5a4.8 4.8 0 0 0 1.54 1.87l.7-.97Zm-1.15-1.4c-.27-.6-.4-1.21-.4-1.86h-1.2c0 .82.17 1.6.5 2.36l1.1-.5Zm-.4-1.86c0-.73.15-1.36.43-1.9l-1.06-.56a5.23 5.23 0 0 0-.57 2.46h1.2Zm.44-1.91c.3-.59.7-1.08 1.19-1.5l-.77-.92a5.89 5.89 0 0 0-1.5 1.87l1.08.55Zm1.18-1.49c.52-.42 1.1-.74 1.74-.95l-.39-1.14c-.77.26-1.47.65-2.1 1.16l.75.93Zm1.75-.96a5.67 5.67 0 0 1 1.96-.35v-1.2c-.81 0-1.6.14-2.37.42l.41 1.13Zm1.96-.35c1.07 0 1.97.2 2.7.58l.55-1.06a6.98 6.98 0 0 0-3.25-.72v1.2Zm2.7.59c.75.38 1.32.9 1.73 1.57l1.02-.62a5.37 5.37 0 0 0-2.2-2.02l-.55 1.07Zm1.73 1.58c.4.64.6 1.42.6 2.35h1.2c0-1.12-.25-2.12-.78-2.98l-1.02.63Zm.6 2.35c0 .15 0 .32-.02.5l1.2.1.03-.6h-1.2Zm-.02.5-.06.56 1.18.18c.04-.22.06-.44.08-.64l-1.2-.1Zm-.06.54c-.13.7-.43 1.41-.91 2.12l.99.68c.57-.83.94-1.7 1.1-2.59l-1.18-.2Zm-.91 2.12c-.5.73-1.1 1.42-1.81 2.09l.82.87c.76-.71 1.42-1.47 1.98-2.28l-1-.68Zm-1.81 2.09c-.72.67-1.46 1.27-2.22 1.82l.7.97c.8-.57 1.58-1.21 2.34-1.92l-.82-.87Zm-2.22 1.82a47.2 47.2 0 0 1-2.14 1.44l.65 1.02c.66-.43 1.4-.92 2.18-1.49l-.7-.97Zm-2.09 2.5.24.12.53-1.08-.24-.12-.53 1.08Zm.27.13c.39.17.85.34 1.39.52l.38-1.14c-.52-.17-.95-.33-1.3-.48l-.47 1.1Zm1.39.52c.54.18 1.09.34 1.63.47l.29-1.16a16.9 16.9 0 0 1-1.54-.45l-.38 1.14Zm1.64.47c.57.14 1.08.21 1.53.21v-1.2a5.7 5.7 0 0 1-1.26-.17l-.27 1.16Zm1.53.21c.46 0 .91-.08 1.36-.25l-.42-1.13a2.7 2.7 0 0 1-.94.18v1.2Zm1.38-.26c.28-.12.53-.3.7-.56.17-.26.24-.56.24-.86h-1.2c0 .12-.02.17-.04.2-.02.02-.06.07-.16.11l.46 1.11Zm.94-1.42a.8.8 0 0 0-.22-.54c-.1-.1-.2-.18-.32-.25l-.64 1.01.08.06a.3.3 0 0 1-.05-.07.46.46 0 0 1-.05-.2h1.2Zm-.5-.77a.37.37 0 0 1-.11-.1.06.06 0 0 1-.01-.04h-1.2c0 .48.25.85.6 1.1l.71-.96Zm-.12-.14a.06.06 0 0 1 0 .02c-.01 0-.01 0 0 0l-.86-.85c-.22.22-.34.51-.34.83h1.2Zm-.04.04.06-.02v-1.2c-.31 0-.6.1-.85.32l.8.9Zm.06-.02c.12 0 .25.05.42.23l.9-.8a1.73 1.73 0 0 0-1.32-.63v1.2Zm.43.25c.2.2.25.37.25.5h1.2c0-.51-.23-.95-.58-1.33l-.87.83Zm.25.5c0 .5-.13.83-.34 1.07l.9.79c.45-.5.64-1.15.64-1.86h-1.2Zm-.35 1.09c-.24.3-.53.5-.88.62l.39 1.14a3.1 3.1 0 0 0 1.43-1.02l-.94-.74Zm-.88.62c-.4.14-.8.2-1.17.2v1.2a5 5 0 0 0 1.56-.26l-.4-1.14ZM3 26c.35 0 .69-.04 1.02-.11l-.26-1.17c-.25.05-.5.08-.76.08V26Zm1.04-.12c.3-.07.59-.17.78-.3l-.67-1-.09.05-.32.1.3 1.15Zm1.02-.6.02-.07-1.14-.38-.02.07 1.14.38Zm-.07-.62a1.21 1.21 0 0 0-.47-.36 2.8 2.8 0 0 0-.55-.18l-.26 1.17a1 1 0 0 1 .3.1c.08.03.06.03.02-.01l.96-.72ZM4 24.13a4.17 4.17 0 0 0-1.14-.17v1.2c.26 0 .53.04.81.12L4 24.13Zm-1.14-.17c-.28 0-.55.04-.8.14l.44 1.11a.96.96 0 0 1 .36-.05v-1.2Zm-.8.14a.9.9 0 0 0-.42.3.85.85 0 0 0-.2.54h1.2a.33.33 0 0 1-.08.22c-.04.05-.08.06-.06.05l-.44-1.11Zm-.62.84c0 .21.07.42.2.59.13.16.3.26.46.33l.46-1.11c-.04-.01-.01-.01.02.03a.28.28 0 0 1 .06.16h-1.2Zm.7.93c.26.1.56.13.86.13v-1.2c-.2 0-.37-.03-.48-.07l-.38 1.14Zm17.1 1.67-.23.55.22-.55Zm-1.64-.99-.39.46.39-.46Zm-1.18-1.41-.53.28.53-.28Zm-.28-2.7-.57-.18v.01l-.01.01.58.17Zm.5-1-.5-.34.5.34Zm1.03-.86-.22-.56h-.01l.23.56Zm2.81.07-.25.54h.01l.24-.54Zm1.18.91-.48.36v.01l.48-.37Zm.28 1.97-.45-.4.45.4Zm-.86-.03-.42.43.02.02.02.02.38-.47Zm-.24-.55-.6.03V23l.6-.04Zm-.55-.96-.34.5h.02l.32-.5Zm-2.5.17.45.4-.45-.4Zm-.02 2.74.51-.31-.51.3Zm1.32 1.27.31-.51-.01-.01-.3.52Zm4.22.24-.14-.58h-.02l.16.58Zm1.97-.84.33.5-.33-.5Zm1.42-1.49-.51-.32-.01.01.52.31Zm-1.4-5.62.28-.53-.13-.07h-.15v.6Zm-.04 0v-.6h-.16l-.13.08.29.52Zm-1.59.58.1.6.01-.01-.1-.59Zm-2.52.07-.12.59h.04l.08-.59Zm-.91-1.85.35.5v-.01l-.35-.49Zm.86-.38.14.58-.14-.58Zm1.01-.17-.05-.6.05.6Zm2.93.29-.2.57.1.03h.1V17Zm.05 0v.6h.2l.17-.13-.37-.47Zm1.03-1.1.51.3-.51-.3Zm.31-1.61h-.6v.05l.01.05.6-.1Zm-.02-.31.6-.09-.6.09Zm-1.01-1.56-.33.5.33-.5Zm-3.29-.39.11.6v-.01h.02l-.13-.59Zm-1.17.72.48.35-.48-.35Zm.1.89-.24.55.02.01h.02l.2-.56Zm.57.2-.2.56h.02l.18-.57Zm-1.54 1 .35-.49-.35.49Zm-.48-.62-.56.2.56-.2Zm-.14-1.06-.6-.1v.1h.6Zm.05-.26-.59-.13.59.13Zm.84-1.47.36.48-.36-.48Zm1.48-.67.12.59h.01l-.13-.59Zm3.53.24-.26.54h.01l.25-.54Zm1.59 1.2-.46.39.46-.39Zm.74 1.78-.6.05v.03l.6-.08Zm-1.3 3.64-.42-.42-.18.17v.25h.6Zm0 .08h-.6v.3l.26.19.34-.5ZM28 19.57l-.54.26v.01l.54-.27Zm-.07 4.9-.53-.28.53.27ZM25.9 26.6l-.33-.5.33.5Zm-2.32.98-.14-.58h-.01l.15.58Zm-.12-9.33.15.58h.02l-.17-.58Zm.9-.46.48.38.2-.26-.1-.3-.57.18Zm-.02-.07.57-.19-.06-.18-.16-.12-.35.49Zm-.72-.22-.1.6.1-.6Zm-2.04.03-.16-.58.16.58Zm-.14.81-.25.55.02.01h.02l.21-.56Zm-.36 8.96a4.4 4.4 0 0 1-1.63-.32l-.44 1.11c.68.27 1.37.4 2.07.4v-1.2Zm-1.62-.32a5.48 5.48 0 0 1-1.47-.89l-.78.92c.55.46 1.15.82 1.8 1.08l.45-1.11Zm-1.47-.89a4.32 4.32 0 0 1-1.04-1.24l-1.05.57c.32.6.77 1.13 1.31 1.6l.78-.93Zm-1.04-1.23a3 3 0 0 1-.36-1.43h-1.2c0 .7.17 1.36.5 1.99l1.06-.56Zm-.36-1.43c0-.26.04-.53.12-.82l-1.15-.33c-.11.39-.17.77-.17 1.15h1.2Zm.11-.8c.1-.27.24-.56.44-.86l-1-.66c-.25.37-.44.76-.57 1.15l1.13.38Zm.44-.85c.2-.31.46-.52.77-.65l-.47-1.1c-.53.22-.96.58-1.3 1.07l1 .68Zm.76-.65a2.8 2.8 0 0 1 1.1-.22v-1.2c-.54 0-1.05.1-1.55.31l.45 1.11Zm1.1-.22c.41 0 .82.1 1.23.28l.5-1.09a4.08 4.08 0 0 0-1.74-.39v1.2Zm1.24.29c.4.17.7.4.94.72l.95-.72a3.5 3.5 0 0 0-1.41-1.1l-.48 1.1Zm.95.73c.2.27.32.6.32 1h1.2c0-.65-.19-1.24-.58-1.74l-.94.74Zm.32 1c0 .1 0 .16-.02.19v.01l.9.8c.26-.3.32-.67.32-1h-1.2Zm-.02.2.05-.03h.02v1.2c.32 0 .62-.12.84-.38l-.91-.78Zm.07-.03h-.02a.36.36 0 0 1-.09-.06l-.75.93c.24.2.53.33.86.33v-1.2Zm-.06-.02c-.03-.03-.05-.07-.06-.17l-1.2.08c.03.36.16.68.42.94l.84-.85Zm-.06-.15a1.73 1.73 0 0 0-.83-1.44l-.64 1c.18.13.26.27.27.49l1.2-.05Zm-.81-1.43a2.4 2.4 0 0 0-1.35-.47v1.2c.16 0 .38.06.67.26l.68-1Zm-1.35-.47c-.77 0-1.46.2-1.93.73l.89.8c.16-.18.46-.33 1.04-.33v-1.2Zm-1.93.73a2.4 2.4 0 0 0-.64 1.65h1.2c0-.33.1-.6.33-.85l-.9-.8Zm-.64 1.65c0 .6.2 1.21.54 1.8l1.03-.62a2.32 2.32 0 0 1-.37-1.18h-1.2Zm.54 1.8c.36.6.88 1.1 1.54 1.48l.6-1.04a3 3 0 0 1-1.1-1.06l-1.04.61Zm1.52 1.47c.7.42 1.51.62 2.43.62v-1.2a3.4 3.4 0 0 1-1.8-.44l-.63 1.02Zm2.43.62c.76 0 1.52-.1 2.27-.31l-.32-1.16a7.4 7.4 0 0 1-1.95.27v1.2Zm2.25-.3c.79-.2 1.5-.5 2.16-.93l-.66-1a5.8 5.8 0 0 1-1.78.76l.28 1.16Zm2.17-.93a5.34 5.34 0 0 0 1.6-1.68l-1.04-.62c-.3.52-.71.95-1.24 1.3l.68 1Zm1.59-1.67c.43-.7.64-1.52.64-2.43h-1.2c0 .72-.16 1.31-.46 1.8l1.02.63Zm.64-2.43a5 5 0 0 0-.56-2.42 4 4 0 0 0-1.71-1.62L25.03 19c.55.28.95.66 1.2 1.14.27.47.42 1.07.42 1.83h1.2Zm-2.55-4.1h-.04v1.2h.04v-1.2Zm-.33.07c-.44.24-.92.41-1.42.51l.24 1.18c.62-.13 1.2-.34 1.75-.64l-.57-1.05Zm-1.4.5c-.53.1-1.05.14-1.58.14v1.2c.6 0 1.19-.05 1.78-.15l-.2-1.18Zm-1.58.14c-.18 0-.43-.02-.75-.06l-.17 1.19c.35.05.66.07.92.07v-1.2Zm-.72-.06a1.7 1.7 0 0 1-.64-.26l-.68.99c.32.22.69.37 1.08.45l.24-1.18Zm-.64-.26c-.06-.04-.13-.11-.13-.32h-1.2c0 .52.2 1 .65 1.3l.68-.98Zm-.13-.32c0-.1.03-.15.09-.19l-.7-.97c-.39.27-.59.68-.59 1.16h1.2Zm.1-.2c.16-.11.37-.21.64-.28l-.28-1.16c-.4.1-.76.25-1.08.48l.71.97Zm.64-.28c.31-.07.62-.12.93-.15l-.12-1.2c-.36.04-.72.1-1.09.19l.28 1.16Zm.93-.15c.34-.03.61-.05.83-.05v-1.2c-.26 0-.58.02-.94.05l.1 1.2Zm.83-.05c.66 0 1.27.1 1.84.3l.4-1.13a6.73 6.73 0 0 0-2.24-.37v1.2Zm2.04.34h.05v-1.2h-.05v1.2Zm.42-.13c.5-.4.9-.82 1.17-1.26l-1.02-.63c-.18.3-.47.61-.9.95l.75.94Zm1.18-1.27a3.2 3.2 0 0 0 .42-1.62h-1.2c0 .4-.1.73-.26 1.01l1.04.6Zm.42-1.62c0-.13-.02-.26-.04-.4l-1.18.2.02.2h1.2Zm-.03-.3c0-.12 0-.25-.03-.39l-1.19.17c.02.09.02.16.02.23h1.2ZM27 13.9a2.73 2.73 0 0 0-1.28-1.98l-.64 1.01c.43.28.66.64.73 1.14l1.2-.17Zm-1.27-1.98a3.86 3.86 0 0 0-2.15-.65v1.2c.53 0 1.03.15 1.49.46l.66-1Zm-2.15-.65c-.5 0-1.03.07-1.6.19l.26 1.17c.5-.1.94-.16 1.34-.16v-1.2Zm-1.58.18c-.65.12-1.18.44-1.55.97l.98.69c.17-.24.42-.4.8-.48L22 11.44Zm-1.55.96c-.17.23-.3.51-.3.83h1.2c0 .02-.01.02 0 0a.6.6 0 0 1 .07-.13l-.97-.7Zm-.3.83a1.01 1.01 0 0 0 .65.96l.46-1.1.05.04.03.07v.03h-1.2Zm.7.98.57.2.38-1.15-.58-.19-.38 1.14Zm.59.2c.08.02.08.04.07.02a.1.1 0 0 1-.02-.03h1.2c0-.25-.08-.52-.26-.74a1.32 1.32 0 0 0-.65-.4l-.34 1.15Zm.05 0v.06h-.01c-.04.02-.18.08-.5.08v1.2c.42 0 .84-.06 1.17-.29.37-.25.54-.63.54-1.05h-1.2Zm-.5.14a.93.93 0 0 1-.57-.2l-.7.98c.38.27.8.42 1.26.42v-1.2Zm-.57-.2a.72.72 0 0 1-.27-.34l-1.12.42c.14.37.37.67.7.9l.69-.98Zm-.26-.33a1.78 1.78 0 0 1-.11-.6h-1.2c0 .34.06.67.18 1l1.13-.4Zm-.11-.6v-.28h-1.2v.28h1.2Zm-.01-.16.04-.25-1.17-.23a9 9 0 0 0-.05.28l1.18.2Zm.04-.24c.12-.55.35-.9.62-1.11l-.73-.95c-.56.42-.9 1.05-1.06 1.8l1.17.26Zm.62-1.11a2.9 2.9 0 0 1 1.24-.56l-.23-1.18a4.1 4.1 0 0 0-1.74.79l.73.95Zm1.25-.56a7.04 7.04 0 0 1 1.53-.18v-1.2c-.58 0-1.17.07-1.79.2l.26 1.18Zm1.53-.18c.55 0 1.08.12 1.61.37l.52-1.08a4.93 4.93 0 0 0-2.13-.5v1.2Zm1.62.37a4 4 0 0 1 1.38 1.05l.91-.78a5.13 5.13 0 0 0-1.79-1.35l-.5 1.08Zm1.38 1.05c.35.4.55.87.6 1.44l1.2-.11a3.66 3.66 0 0 0-.9-2.11l-.9.78Zm.6 1.47c.02.09.02.16.02.23h1.2c0-.13 0-.26-.03-.4l-1.18.17Zm.02.23v.3h1.2v-.32h-1.2Zm0 .31a3.5 3.5 0 0 1-1.14 2.6l.84.85a4.7 4.7 0 0 0 1.5-3.45h-1.2Zm-1.32 3.02v.08h1.2v-.08h-1.2Zm.26.57c.62.44 1.09.98 1.41 1.64l1.08-.53a5.5 5.5 0 0 0-1.8-2.1l-.7.99Zm1.42 1.65c.34.67.5 1.37.5 2.13h1.2a5.8 5.8 0 0 0-.63-2.67l-1.07.54Zm.5 2.13c0 .72-.18 1.46-.57 2.22l1.06.55c.47-.9.72-1.83.72-2.77h-1.2Zm-.57 2.22c-.36.7-.96 1.35-1.82 1.9l.66 1.01c1-.65 1.75-1.44 2.22-2.36l-1.06-.55Zm-1.82 1.9a6.4 6.4 0 0 1-2.13.9l.27 1.18a7.6 7.6 0 0 0 2.52-1.07l-.66-1Zm-2.14.91c-.79.2-1.57.3-2.35.3v1.2c.88 0 1.76-.11 2.64-.33L23.43 27Zm-1.32-7.96c.48 0 .98-.07 1.5-.21l-.3-1.16c-.45.12-.84.17-1.2.17v1.2Zm1.52-.22c.26-.07.49-.16.68-.26.19-.09.38-.21.53-.4l-.94-.74c.01-.02 0 .01-.12.07-.12.05-.28.12-.5.18l.35 1.15Zm1.3-1.22-.02-.07-1.14.38.03.07 1.14-.38Zm-.24-.37a1.5 1.5 0 0 0-.44-.2 4.62 4.62 0 0 0-.52-.12l-.2 1.19c.16.02.29.05.38.08l.08.03.7-.98Zm-.96-.32c-.39-.07-.78-.1-1.19-.1V18c.34 0 .66.03.98.08l.21-1.18Zm-1.19-.1c-.4 0-.77.04-1.12.14l.32 1.16c.23-.07.5-.1.8-.1v-1.2Zm-1.13.14c-.2.06-.41.17-.58.35a1 1 0 0 0-.25.68h1.2l-.01.05a.22.22 0 0 1-.05.07c-.03.04-.04.02.03 0l-.34-1.15Zm-.83 1.03c0 .2.05.4.18.57.12.16.28.27.43.34l.5-1.1c-.02 0 0 0 .04.05a.27.27 0 0 1 .05.14h-1.2Zm.65.93c.27.1.57.13.88.13v-1.2c-.23 0-.38-.03-.47-.06l-.4 1.13Z" mask="url(#Kodekalender_Logo_Mobile_svg__b)"/>
</g>
<defs>
<clipPath id="Kodekalender_Logo_Mobile_svg__a">
<path fill="#fff" d="M0 0h36v30H0z"/>
</clipPath>
</defs>
</svg>
