<svg xmlns="http://www.w3.org/2000/svg" fill="none" viewBox="0 0 36 30">
<mask id="a" width="29" height="19" x=".2" y="9.34" fill="#000" maskUnits="userSpaceOnUse">
<path fill="#fff" d="M.2 9.34h29v19H.2z"/>
<path d="M11.96 27.05c-.77 0-1.62-.15-2.55-.46a78.94 78.94 0 0 1-3.43-1.25h-.05l-.74.44a5.73 5.73 0 0 1-1.27.55 3.24 3.24 0 0 1-1.56-.12 3.6 3.6 0 0 1-.72-.41 1 1 0 0 1-.44-.86 1.52 1.52 0 0 1 .87-1.3c.33-.16.7-.24 1.1-.24.42 0 .86.06 1.32.17.48.11.92.23 1.32.36h.05a39.4 39.4 0 0 0 3.53-2.43c.67-.52 1.3-1.08 1.9-1.65.59-.58 1.08-1.16 1.48-1.75.42-.6.66-1.16.72-1.7.05-.34.07-.66.07-.97 0-1.23-.38-2.17-1.15-2.8-.75-.66-1.85-.99-3.31-.99a5.01 5.01 0 0 0-3.91 1.92c-.45.6-.67 1.29-.67 2.09 0 .54.1 1.05.28 1.53.21.47.52.85.92 1.16a2.44 2.44 0 0 0 1.9.38l.42-.14.15-.05.14-.05.27-.05c.17 0 .32.07.45.2a.5.5 0 0 1 .22.4c0 .2-.1.36-.31.5-.24.18-.53.31-.87.39-.33.06-.64.1-.91.1-.82 0-1.52-.21-2.11-.63a4.2 4.2 0 0 1-1.35-1.63 5.07 5.07 0 0 1 .05-4.3 5.5 5.5 0 0 1 1.35-1.68 6.25 6.25 0 0 1 1.92-1.05c.7-.26 1.42-.39 2.16-.39 1.15 0 2.14.22 2.97.65a4.77 4.77 0 0 1 2.67 4.47 6.65 6.65 0 0 1-.1 1.15c-.14.8-.48 1.58-1 2.35a13.8 13.8 0 0 1-1.9 2.18c-.74.7-1.5 1.32-2.28 1.88-.79.56-1.5 1.04-2.16 1.46l.24.12a16.57 16.57 0 0 0 2.92.96c.55.13 1.01.2 1.4.2.38 0 .76-.08 1.15-.22a.87.87 0 0 0 .57-.87c0-.08-.08-.17-.26-.29-.24-.17-.36-.38-.36-.62 0-.16.06-.3.17-.4a.67.67 0 0 1 .45-.18c.32 0 .61.15.87.44.27.28.4.59.4.9 0 .62-.15 1.1-.47 1.47-.3.39-.7.66-1.16.82-.46.16-.92.24-1.36.24ZM3.22 25.2a3.8 3.8 0 0 0 1.49-.31l.02-.07c-.1-.13-.32-.24-.67-.32-.34-.1-.66-.14-.98-.14-.23 0-.42.03-.58.1-.16.06-.24.16-.24.28 0 .16.1.28.29.36.19.07.41.1.67.1Zm17.84 2.5a5 5 0 0 1-1.85-.36 6.08 6.08 0 0 1-1.63-.99 4.9 4.9 0 0 1-1.18-1.41 3.6 3.6 0 0 1-.28-2.7c.1-.33.28-.66.5-1 .27-.4.62-.69 1.03-.86a3.47 3.47 0 0 1 3.99.98c.3.38.45.84.45 1.37 0 .27-.05.47-.17.6a.48.48 0 0 1-.38.17.77.77 0 0 1-.48-.2.84.84 0 0 1-.24-.55c-.02-.41-.2-.73-.55-.96a1.8 1.8 0 0 0-1.01-.36c-.67 0-1.17.18-1.49.53a1.8 1.8 0 0 0-.48 1.25c0 .48.15.97.46 1.49a3.98 3.98 0 0 0 3.43 1.8 8 8 0 0 0 4.08-1.13c.6-.4 1.06-.9 1.42-1.49.36-.6.55-1.3.55-2.11 0-1.67-.65-2.83-1.95-3.5h-.04a5.6 5.6 0 0 1-1.59.57c-.56.1-1.12.14-1.68.14-.22 0-.5-.02-.84-.07a2.3 2.3 0 0 1-.86-.36c-.26-.17-.39-.45-.39-.81 0-.3.12-.52.34-.68.24-.17.53-.3.86-.38a7.36 7.36 0 0 1 1.9-.22c.72 0 1.4.12 2.04.34h.05c.46-.37.8-.74 1.03-1.1a2.57 2.57 0 0 0 .31-1.61c0-.1 0-.2-.02-.31a2.1 2.1 0 0 0-1.01-1.56 3.26 3.26 0 0 0-1.82-.56c-.45 0-.94.06-1.47.17-.51.1-.9.34-1.17.72a.84.84 0 0 0-.2.48c0 .2.1.33.3.41l.57.2c.32.09.48.28.48.57 0 .5-.37.74-1.1.74a1.53 1.53 0 0 1-1.4-.93c-.1-.28-.14-.54-.14-.8v-.26l.05-.26c.14-.66.42-1.15.84-1.47a3.5 3.5 0 0 1 1.48-.67c.58-.13 1.13-.2 1.66-.2.64 0 1.26.15 1.87.44.63.29 1.15.69 1.59 1.2a3.06 3.06 0 0 1 .76 2.08v.32a4.1 4.1 0 0 1-1.32 3.02v.08a5.2 5.2 0 0 1 1.54 6.77 5.66 5.66 0 0 1-2.02 2.13 7 7 0 0 1-2.32.98c-.84.21-1.67.32-2.5.32Zm1.03-9.46c.42 0 .87-.06 1.35-.2.48-.14.78-.29.9-.45l-.02-.07a2.02 2.02 0 0 0-.72-.22c-.35-.06-.7-.1-1.08-.1-.35 0-.67.05-.96.13-.27.08-.4.23-.4.45 0 .16.08.28.26.36.18.07.4.1.67.1Z"/>
</mask>
<path fill="#F8F9FA" d="M11.96 27.05c-.77 0-1.62-.15-2.55-.46a78.94 78.94 0 0 1-3.43-1.25h-.05l-.74.44a5.73 5.73 0 0 1-1.27.55 3.24 3.24 0 0 1-1.56-.12 3.6 3.6 0 0 1-.72-.41 1 1 0 0 1-.44-.86 1.52 1.52 0 0 1 .87-1.3c.33-.16.7-.24 1.1-.24.42 0 .86.06 1.32.17.48.11.92.23 1.32.36h.05a39.4 39.4 0 0 0 3.53-2.43c.67-.52 1.3-1.08 1.9-1.65.59-.58 1.08-1.16 1.48-1.75.42-.6.66-1.16.72-1.7.05-.34.07-.66.07-.97 0-1.23-.38-2.17-1.15-2.8-.75-.66-1.85-.99-3.31-.99a5.01 5.01 0 0 0-3.91 1.92c-.45.6-.67 1.29-.67 2.09 0 .54.1 1.05.28 1.53.21.47.52.85.92 1.16a2.44 2.44 0 0 0 1.9.38l.42-.14.15-.05.14-.05.27-.05c.17 0 .32.07.45.2a.5.5 0 0 1 .22.4c0 .2-.1.36-.31.5-.24.18-.53.31-.87.39-.33.06-.64.1-.91.1-.82 0-1.52-.21-2.11-.63a4.2 4.2 0 0 1-1.35-1.63 5.07 5.07 0 0 1 .05-4.3 5.5 5.5 0 0 1 1.35-1.68 6.25 6.25 0 0 1 1.92-1.05c.7-.26 1.42-.39 2.16-.39 1.15 0 2.14.22 2.97.65a4.77 4.77 0 0 1 2.67 4.47 6.65 6.65 0 0 1-.1 1.15c-.14.8-.48 1.58-1 2.35a13.8 13.8 0 0 1-1.9 2.18c-.74.7-1.5 1.32-2.28 1.88-.79.56-1.5 1.04-2.16 1.46l.24.12a16.57 16.57 0 0 0 2.92.96c.55.13 1.01.2 1.4.2.38 0 .76-.08 1.15-.22a.87.87 0 0 0 .57-.87c0-.08-.08-.17-.26-.29-.24-.17-.36-.38-.36-.62 0-.16.06-.3.17-.4a.67.67 0 0 1 .45-.18c.32 0 .61.15.87.44.27.28.4.59.4.9 0 .62-.15 1.1-.47 1.47-.3.39-.7.66-1.16.82-.46.16-.92.24-1.36.24ZM3.22 25.2a3.8 3.8 0 0 0 1.49-.31l.02-.07c-.1-.13-.32-.24-.67-.32-.34-.1-.66-.14-.98-.14-.23 0-.42.03-.58.1-.16.06-.24.16-.24.28 0 .16.1.28.29.36.19.07.41.1.67.1Zm17.84 2.5a5 5 0 0 1-1.85-.36 6.08 6.08 0 0 1-1.63-.99 4.9 4.9 0 0 1-1.18-1.41 3.6 3.6 0 0 1-.28-2.7c.1-.33.28-.66.5-1 .27-.4.62-.69 1.03-.86a3.47 3.47 0 0 1 3.99.98c.3.38.45.84.45 1.37 0 .27-.05.47-.17.6a.48.48 0 0 1-.38.17.77.77 0 0 1-.48-.2.84.84 0 0 1-.24-.55c-.02-.41-.2-.73-.55-.96a1.8 1.8 0 0 0-1.01-.36c-.67 0-1.17.18-1.49.53a1.8 1.8 0 0 0-.48 1.25c0 .48.15.97.46 1.49a3.98 3.98 0 0 0 3.43 1.8 8 8 0 0 0 4.08-1.13c.6-.4 1.06-.9 1.42-1.49.36-.6.55-1.3.55-2.11 0-1.67-.65-2.83-1.95-3.5h-.04a5.6 5.6 0 0 1-1.59.57c-.56.1-1.12.14-1.68.14-.22 0-.5-.02-.84-.07a2.3 2.3 0 0 1-.86-.36c-.26-.17-.39-.45-.39-.81 0-.3.12-.52.34-.68.24-.17.53-.3.86-.38a7.36 7.36 0 0 1 1.9-.22c.72 0 1.4.12 2.04.34h.05c.46-.37.8-.74 1.03-1.1a2.57 2.57 0 0 0 .31-1.61c0-.1 0-.2-.02-.31a2.1 2.1 0 0 0-1.01-1.56 3.26 3.26 0 0 0-1.82-.56c-.45 0-.94.06-1.47.17-.51.1-.9.34-1.17.72a.84.84 0 0 0-.2.48c0 .2.1.33.3.41l.57.2c.32.09.48.28.48.57 0 .5-.37.74-1.1.74a1.53 1.53 0 0 1-1.4-.93c-.1-.28-.14-.54-.14-.8v-.26l.05-.26c.14-.66.42-1.15.84-1.47a3.5 3.5 0 0 1 1.48-.67c.58-.13 1.13-.2 1.66-.2.64 0 1.26.15 1.87.44.63.29 1.15.69 1.59 1.2a3.06 3.06 0 0 1 .76 2.08v.32a4.1 4.1 0 0 1-1.32 3.02v.08a5.2 5.2 0 0 1 1.54 6.77 5.66 5.66 0 0 1-2.02 2.13 7 7 0 0 1-2.32.98c-.84.21-1.67.32-2.5.32Zm1.03-9.46c.42 0 .87-.06 1.35-.2.48-.14.78-.29.9-.45l-.02-.07a2.02 2.02 0 0 0-.72-.22c-.35-.06-.7-.1-1.08-.1-.35 0-.67.05-.96.13-.27.08-.4.23-.4.45 0 .16.08.28.26.36.18.07.4.1.67.1Z"/>
<path stroke="#F8F9FA" stroke-width="1.2" d="M11.96 27.05c-.77 0-1.62-.15-2.55-.46a78.94 78.94 0 0 1-3.43-1.25h-.05l-.74.44a5.73 5.73 0 0 1-1.27.55 3.24 3.24 0 0 1-1.56-.12 3.6 3.6 0 0 1-.72-.41 1 1 0 0 1-.44-.86 1.52 1.52 0 0 1 .87-1.3c.33-.16.7-.24 1.1-.24.42 0 .86.06 1.32.17.48.11.92.23 1.32.36h.05a39.4 39.4 0 0 0 3.53-2.43c.67-.52 1.3-1.08 1.9-1.65.59-.58 1.08-1.16 1.48-1.75.42-.6.66-1.16.72-1.7.05-.34.07-.66.07-.97 0-1.23-.38-2.17-1.15-2.8-.75-.66-1.85-.99-3.31-.99a5.01 5.01 0 0 0-3.91 1.92c-.45.6-.67 1.29-.67 2.09 0 .54.1 1.05.28 1.53.21.47.52.85.92 1.16a2.44 2.44 0 0 0 1.9.38l.42-.14.15-.05.14-.05.27-.05c.17 0 .32.07.45.2a.5.5 0 0 1 .22.4c0 .2-.1.36-.31.5-.24.18-.53.31-.87.39-.33.06-.64.1-.91.1-.82 0-1.52-.21-2.11-.63a4.2 4.2 0 0 1-1.35-1.63 5.07 5.07 0 0 1 .05-4.3 5.5 5.5 0 0 1 1.35-1.68 6.25 6.25 0 0 1 1.92-1.05c.7-.26 1.42-.39 2.16-.39 1.15 0 2.14.22 2.97.65a4.77 4.77 0 0 1 2.67 4.47 6.65 6.65 0 0 1-.1 1.15c-.14.8-.48 1.58-1 2.35a13.8 13.8 0 0 1-1.9 2.18c-.74.7-1.5 1.32-2.28 1.88-.79.56-1.5 1.04-2.16 1.46l.24.12a16.57 16.57 0 0 0 2.92.96c.55.13 1.01.2 1.4.2.38 0 .76-.08 1.15-.22a.87.87 0 0 0 .57-.87c0-.08-.08-.17-.26-.29-.24-.17-.36-.38-.36-.62 0-.16.06-.3.17-.4a.67.67 0 0 1 .45-.18c.32 0 .61.15.87.44.27.28.4.59.4.9 0 .62-.15 1.1-.47 1.47-.3.39-.7.66-1.16.82-.46.16-.92.24-1.36.24ZM3.22 25.2a3.8 3.8 0 0 0 1.49-.31l.02-.07c-.1-.13-.32-.24-.67-.32-.34-.1-.66-.14-.98-.14-.23 0-.42.03-.58.1-.16.06-.24.16-.24.28 0 .16.1.28.29.36.19.07.41.1.67.1Zm17.84 2.5a5 5 0 0 1-1.85-.36 6.08 6.08 0 0 1-1.63-.99 4.9 4.9 0 0 1-1.18-1.41 3.6 3.6 0 0 1-.28-2.7c.1-.33.28-.66.5-1 .27-.4.62-.69 1.03-.86a3.47 3.47 0 0 1 3.99.98c.3.38.45.84.45 1.37 0 .27-.05.47-.17.6a.48.48 0 0 1-.38.17.77.77 0 0 1-.48-.2.84.84 0 0 1-.24-.55c-.02-.41-.2-.73-.55-.96a1.8 1.8 0 0 0-1.01-.36c-.67 0-1.17.18-1.49.53a1.8 1.8 0 0 0-.48 1.25c0 .48.15.97.46 1.49a3.98 3.98 0 0 0 3.43 1.8 8 8 0 0 0 4.08-1.13c.6-.4 1.06-.9 1.42-1.49.36-.6.55-1.3.55-2.11 0-1.67-.65-2.83-1.95-3.5h-.04a5.6 5.6 0 0 1-1.59.57c-.56.1-1.12.14-1.68.14-.22 0-.5-.02-.84-.07a2.3 2.3 0 0 1-.86-.36c-.26-.17-.39-.45-.39-.81 0-.3.12-.52.34-.68.24-.17.53-.3.86-.38a7.36 7.36 0 0 1 1.9-.22c.72 0 1.4.12 2.04.34h.05c.46-.37.8-.74 1.03-1.1a2.57 2.57 0 0 0 .31-1.61c0-.1 0-.2-.02-.31a2.1 2.1 0 0 0-1.01-1.56 3.26 3.26 0 0 0-1.82-.56c-.45 0-.94.06-1.47.17-.51.1-.9.34-1.17.72a.84.84 0 0 0-.2.48c0 .2.1.33.3.41l.57.2c.32.09.48.28.48.57 0 .5-.37.74-1.1.74a1.53 1.53 0 0 1-1.4-.93c-.1-.28-.14-.54-.14-.8v-.26l.05-.26c.14-.66.42-1.15.84-1.47a3.5 3.5 0 0 1 1.48-.67c.58-.13 1.13-.2 1.66-.2.64 0 1.26.15 1.87.44.63.29 1.15.69 1.59 1.2a3.06 3.06 0 0 1 .76 2.08v.32a4.1 4.1 0 0 1-1.32 3.02v.08a5.2 5.2 0 0 1 1.54 6.77 5.66 5.66 0 0 1-2.02 2.13 7 7 0 0 1-2.32.98c-.84.21-1.67.32-2.5.32Zm1.03-9.46c.42 0 .87-.06 1.35-.2.48-.14.78-.29.9-.45l-.02-.07a2.02 2.02 0 0 0-.72-.22c-.35-.06-.7-.1-1.08-.1-.35 0-.67.05-.96.13-.27.08-.4.23-.4.45 0 .16.08.28.26.36.18.07.4.1.67.1Z" mask="url(#a)"/>
<path fill="#751C15" d="M21.8 3.57c-1.82 1.03-2.42 3.18-2.63 4.02l8.52.6 1.1 1.52c.12.6.06 1.4.43 2.89.36 1.47 2.5 2.3 3.31 2.15l.64-1.8c-.26-.1-.94.17-1.6-.75-.51-.7-.02-2.2.14-3.43.17-1.24.1-4.25-2.6-5.3-2.57-1-4.94-1.23-7.31.1Z"/>
<ellipse cx="1.98" cy="2.07" fill="#F8F9FA" rx="1.98" ry="2.07" transform="matrix(.98986 .14203 -.12968 .99156 31.78 12.13)"/>
<g fill="#F8F9FA">
<path d="M21.5 8.14a1.8 1.8 0 0 1-2 1.6 1.85 1.85 0 0 1-1.53-2.1 1.8 1.8 0 0 1 2-1.6 1.85 1.85 0 0 1 1.53 2.1Z"/>
<path d="M23.94 7.86a1.8 1.8 0 0 1-2.01 1.6 1.85 1.85 0 0 1-1.53-2.1 1.8 1.8 0 0 1 2.01-1.6 1.85 1.85 0 0 1 1.53 2.1Zm7.35 1.89a1.8 1.8 0 0 1-2.01 1.6 1.85 1.85 0 0 1-1.53-2.1 1.8 1.8 0 0 1 2.01-1.6 1.85 1.85 0 0 1 1.53 2.1Z"/>
<path d="M26.74 7.84a2 2 0 0 1-2.23 1.78 2.06 2.06 0 0 1-1.7-2.34 2 2 0 0 1 2.23-1.77 2.06 2.06 0 0 1 1.7 2.33Z"/>
<path d="M29.26 8.41a2 2 0 0 1-2.23 1.78 2.06 2.06 0 0 1-1.7-2.34 2 2 0 0 1 2.24-1.77 2.06 2.06 0 0 1 1.7 2.33Z"/>
</g>
</svg>
