<svg xmlns="http://www.w3.org/2000/svg" fill="none" viewBox="0 0 60 50">
<mask id="a" width="48" height="31" x="1.01" y="16.24" fill="#000" maskUnits="userSpaceOnUse">
<path fill="#fff" d="M1.01 16.24h48v31h-48z"/>
<path d="M19.93 45.08c-1.28 0-2.7-.25-4.24-.76a131.34 131.34 0 0 1-5.04-1.8l-.68-.28h-.08l-1.24.72a9.54 9.54 0 0 1-2.12.92 5.4 5.4 0 0 1-2.6-.2c-.3-.1-.7-.33-1.2-.68A1.68 1.68 0 0 1 2 41.56c0-.24.06-.53.2-.88.26-.61.68-1.04 1.24-1.28.56-.27 1.17-.4 1.84-.4.69 0 1.42.1 2.2.28.8.19 1.53.39 2.2.6h.08c.74-.43 1.62-.99 2.64-1.68 1.04-.72 2.12-1.5 3.24-2.36 1.12-.88 2.17-1.8 3.16-2.76.98-.96 1.8-1.93 2.48-2.92a6.36 6.36 0 0 0 1.2-2.84c.08-.56.12-1.1.12-1.6 0-2.05-.64-3.61-1.92-4.68-1.26-1.1-3.1-1.64-5.52-1.64-1.26 0-2.47.28-3.64.84a7.56 7.56 0 0 0-2.88 2.36 5.6 5.6 0 0 0-1.12 3.48c0 .9.16 1.76.48 2.56.34.77.85 1.41 1.52 1.92a4.07 4.07 0 0 0 3.16.64l.72-.24.24-.08.24-.08c.2-.05.36-.08.44-.08.29 0 .54.1.76.32.24.19.36.41.36.68 0 .32-.18.6-.52.84-.4.3-.88.5-1.44.64a8.2 8.2 0 0 1-1.52.16 5.96 5.96 0 0 1-3.52-1.04A7 7 0 0 1 6.2 29.6a8.45 8.45 0 0 1 .08-7.16 8.81 8.81 0 0 1 2.24-2.8c.96-.77 2.02-1.36 3.2-1.76 1.17-.43 2.37-.64 3.6-.64 1.92 0 3.57.36 4.96 1.08a7.95 7.95 0 0 1 4.44 7.44 11.12 11.12 0 0 1-.16 1.92c-.24 1.33-.8 2.64-1.68 3.92a22.24 22.24 0 0 1-3.16 3.64 37.4 37.4 0 0 1-3.8 3.12 83.56 83.56 0 0 1-3.6 2.44l.4.2a32.7 32.7 0 0 0 4.88 1.6c.9.21 1.68.32 2.32.32.64 0 1.28-.12 1.92-.36.64-.27.96-.75.96-1.44 0-.13-.15-.3-.44-.48-.4-.3-.6-.64-.6-1.04 0-.27.09-.5.28-.68.2-.19.46-.28.76-.28.53 0 1 .24 1.44.72.45.48.68.99.68 1.52a3.6 3.6 0 0 1-.8 2.44 4.1 4.1 0 0 1-1.92 1.36c-.78.27-1.54.4-2.28.4ZM5.37 42c.5 0 1-.05 1.48-.16.5-.13.84-.25 1-.36l.04-.12c-.16-.21-.54-.39-1.12-.52a5.95 5.95 0 0 0-1.64-.24c-.38 0-.7.05-.96.16-.27.1-.4.27-.4.48 0 .27.16.47.48.6.32.1.69.16 1.12.16Zm29.73 4.16c-1.04 0-2.07-.2-3.08-.6-.99-.4-1.9-.95-2.72-1.64a8.2 8.2 0 0 1-1.96-2.36 5.99 5.99 0 0 1-.48-4.48c.19-.56.47-1.12.84-1.68a3.9 3.9 0 0 1 1.72-1.44 5.78 5.78 0 0 1 6.64 1.64c.5.64.76 1.4.76 2.28 0 .45-.1.79-.28 1a.8.8 0 0 1-.64.28c-.27 0-.53-.1-.8-.32a1.4 1.4 0 0 1-.4-.92 1.88 1.88 0 0 0-.92-1.6 3 3 0 0 0-1.68-.6c-1.12 0-1.95.3-2.48.88-.53.59-.8 1.28-.8 2.08s.25 1.63.76 2.48c.5.85 1.24 1.56 2.2 2.12a6.6 6.6 0 0 0 3.52.88c1.17 0 2.35-.16 3.52-.48 1.2-.3 2.3-.76 3.28-1.4a7.75 7.75 0 0 0 2.36-2.48c.61-.99.92-2.16.92-3.52 0-2.77-1.08-4.72-3.24-5.84h-.08c-.83.45-1.7.77-2.64.96-.93.16-1.87.24-2.8.24-.37 0-.84-.04-1.4-.12-.53-.1-1.01-.3-1.44-.6-.43-.3-.64-.75-.64-1.36 0-.48.19-.85.56-1.12.4-.3.88-.5 1.44-.64.56-.13 1.12-.23 1.68-.28a18.3 18.3 0 0 1 1.48-.08c1.2 0 2.33.19 3.4.56h.08a7.24 7.24 0 0 0 1.72-1.84 4.29 4.29 0 0 0 .52-2.68 3.55 3.55 0 0 0-1.72-3.12 5.43 5.43 0 0 0-3.04-.92c-.75 0-1.56.1-2.44.28-.85.16-1.5.56-1.96 1.2-.21.3-.32.56-.32.8 0 .32.16.55.48.68l.96.32c.53.16.8.48.8.96 0 .83-.61 1.24-1.84 1.24a2.55 2.55 0 0 1-2.32-1.56c-.16-.45-.24-.9-.24-1.32v-.44l.08-.44a4 4 0 0 1 1.4-2.44 5.85 5.85 0 0 1 2.48-1.12c.96-.21 1.88-.32 2.76-.32 1.07 0 2.1.24 3.12.72a7.54 7.54 0 0 1 2.64 2 5.1 5.1 0 0 1 1.24 2.96c.03.19.04.36.04.52V24c0 1.92-.73 3.6-2.2 5.04v.12a8.16 8.16 0 0 1 2.68 3.12 8.67 8.67 0 0 1-.12 8.16A9.44 9.44 0 0 1 43.14 44a11.67 11.67 0 0 1-3.88 1.64 17.1 17.1 0 0 1-4.16.52Zm1.72-15.76c.7 0 1.44-.1 2.24-.32.8-.24 1.3-.5 1.52-.76l-.04-.12a3.36 3.36 0 0 0-1.2-.36c-.59-.1-1.19-.16-1.8-.16a6.1 6.1 0 0 0-1.6.2c-.45.13-.68.39-.68.76 0 .27.15.47.44.6.3.1.67.16 1.12.16Z"/>
</mask>
<path fill="#F8F9FA" d="M19.93 45.08c-1.28 0-2.7-.25-4.24-.76a131.34 131.34 0 0 1-5.04-1.8l-.68-.28h-.08l-1.24.72a9.54 9.54 0 0 1-2.12.92 5.4 5.4 0 0 1-2.6-.2c-.3-.1-.7-.33-1.2-.68A1.68 1.68 0 0 1 2 41.56c0-.24.06-.53.2-.88.26-.61.68-1.04 1.24-1.28.56-.27 1.17-.4 1.84-.4.69 0 1.42.1 2.2.28.8.19 1.53.39 2.2.6h.08c.74-.43 1.62-.99 2.64-1.68 1.04-.72 2.12-1.5 3.24-2.36 1.12-.88 2.17-1.8 3.16-2.76.98-.96 1.8-1.93 2.48-2.92a6.36 6.36 0 0 0 1.2-2.84c.08-.56.12-1.1.12-1.6 0-2.05-.64-3.61-1.92-4.68-1.26-1.1-3.1-1.64-5.52-1.64-1.26 0-2.47.28-3.64.84a7.56 7.56 0 0 0-2.88 2.36 5.6 5.6 0 0 0-1.12 3.48c0 .9.16 1.76.48 2.56.34.77.85 1.41 1.52 1.92a4.07 4.07 0 0 0 3.16.64l.72-.24.24-.08.24-.08c.2-.05.36-.08.44-.08.29 0 .54.1.76.32.24.19.36.41.36.68 0 .32-.18.6-.52.84-.4.3-.88.5-1.44.64a8.2 8.2 0 0 1-1.52.16 5.96 5.96 0 0 1-3.52-1.04A7 7 0 0 1 6.2 29.6a8.45 8.45 0 0 1 .08-7.16 8.81 8.81 0 0 1 2.24-2.8c.96-.77 2.02-1.36 3.2-1.76 1.17-.43 2.37-.64 3.6-.64 1.92 0 3.57.36 4.96 1.08a7.95 7.95 0 0 1 4.44 7.44 11.12 11.12 0 0 1-.16 1.92c-.24 1.33-.8 2.64-1.68 3.92a22.24 22.24 0 0 1-3.16 3.64 37.4 37.4 0 0 1-3.8 3.12 83.56 83.56 0 0 1-3.6 2.44l.4.2a32.7 32.7 0 0 0 4.88 1.6c.9.21 1.68.32 2.32.32.64 0 1.28-.12 1.92-.36.64-.27.96-.75.96-1.44 0-.13-.15-.3-.44-.48-.4-.3-.6-.64-.6-1.04 0-.27.09-.5.28-.68.2-.19.46-.28.76-.28.53 0 1 .24 1.44.72.45.48.68.99.68 1.52a3.6 3.6 0 0 1-.8 2.44 4.1 4.1 0 0 1-1.92 1.36c-.78.27-1.54.4-2.28.4ZM5.37 42c.5 0 1-.05 1.48-.16.5-.13.84-.25 1-.36l.04-.12c-.16-.21-.54-.39-1.12-.52a5.95 5.95 0 0 0-1.64-.24c-.38 0-.7.05-.96.16-.27.1-.4.27-.4.48 0 .27.16.47.48.6.32.1.69.16 1.12.16Zm29.73 4.16c-1.04 0-2.07-.2-3.08-.6-.99-.4-1.9-.95-2.72-1.64a8.2 8.2 0 0 1-1.96-2.36 5.99 5.99 0 0 1-.48-4.48c.19-.56.47-1.12.84-1.68a3.9 3.9 0 0 1 1.72-1.44 5.78 5.78 0 0 1 6.64 1.64c.5.64.76 1.4.76 2.28 0 .45-.1.79-.28 1a.8.8 0 0 1-.64.28c-.27 0-.53-.1-.8-.32a1.4 1.4 0 0 1-.4-.92 1.88 1.88 0 0 0-.92-1.6 3 3 0 0 0-1.68-.6c-1.12 0-1.95.3-2.48.88-.53.59-.8 1.28-.8 2.08s.25 1.63.76 2.48c.5.85 1.24 1.56 2.2 2.12a6.6 6.6 0 0 0 3.52.88c1.17 0 2.35-.16 3.52-.48 1.2-.3 2.3-.76 3.28-1.4a7.75 7.75 0 0 0 2.36-2.48c.61-.99.92-2.16.92-3.52 0-2.77-1.08-4.72-3.24-5.84h-.08c-.83.45-1.7.77-2.64.96-.93.16-1.87.24-2.8.24-.37 0-.84-.04-1.4-.12-.53-.1-1.01-.3-1.44-.6-.43-.3-.64-.75-.64-1.36 0-.48.19-.85.56-1.12.4-.3.88-.5 1.44-.64.56-.13 1.12-.23 1.68-.28a18.3 18.3 0 0 1 1.48-.08c1.2 0 2.33.19 3.4.56h.08a7.24 7.24 0 0 0 1.72-1.84 4.29 4.29 0 0 0 .52-2.68 3.55 3.55 0 0 0-1.72-3.12 5.43 5.43 0 0 0-3.04-.92c-.75 0-1.56.1-2.44.28-.85.16-1.5.56-1.96 1.2-.21.3-.32.56-.32.8 0 .32.16.55.48.68l.96.32c.53.16.8.48.8.96 0 .83-.61 1.24-1.84 1.24a2.55 2.55 0 0 1-2.32-1.56c-.16-.45-.24-.9-.24-1.32v-.44l.08-.44a4 4 0 0 1 1.4-2.44 5.85 5.85 0 0 1 2.48-1.12c.96-.21 1.88-.32 2.76-.32 1.07 0 2.1.24 3.12.72a7.54 7.54 0 0 1 2.64 2 5.1 5.1 0 0 1 1.24 2.96c.03.19.04.36.04.52V24c0 1.92-.73 3.6-2.2 5.04v.12a8.16 8.16 0 0 1 2.68 3.12 8.67 8.67 0 0 1-.12 8.16A9.44 9.44 0 0 1 43.14 44a11.67 11.67 0 0 1-3.88 1.64 17.1 17.1 0 0 1-4.16.52Zm1.72-15.76c.7 0 1.44-.1 2.24-.32.8-.24 1.3-.5 1.52-.76l-.04-.12a3.36 3.36 0 0 0-1.2-.36c-.59-.1-1.19-.16-1.8-.16a6.1 6.1 0 0 0-1.6.2c-.45.13-.68.39-.68.76 0 .27.15.47.44.6.3.1.67.16 1.12.16Z"/>
<path stroke="#F8F9FA" stroke-width="2" d="M19.93 45.08c-1.28 0-2.7-.25-4.24-.76a131.34 131.34 0 0 1-5.04-1.8l-.68-.28h-.08l-1.24.72a9.54 9.54 0 0 1-2.12.92 5.4 5.4 0 0 1-2.6-.2c-.3-.1-.7-.33-1.2-.68A1.68 1.68 0 0 1 2 41.56c0-.24.06-.53.2-.88.26-.61.68-1.04 1.24-1.28.56-.27 1.17-.4 1.84-.4.69 0 1.42.1 2.2.28.8.19 1.53.39 2.2.6h.08c.74-.43 1.62-.99 2.64-1.68 1.04-.72 2.12-1.5 3.24-2.36 1.12-.88 2.17-1.8 3.16-2.76.98-.96 1.8-1.93 2.48-2.92a6.36 6.36 0 0 0 1.2-2.84c.08-.56.12-1.1.12-1.6 0-2.05-.64-3.61-1.92-4.68-1.26-1.1-3.1-1.64-5.52-1.64-1.26 0-2.47.28-3.64.84a7.56 7.56 0 0 0-2.88 2.36 5.6 5.6 0 0 0-1.12 3.48c0 .9.16 1.76.48 2.56.34.77.85 1.41 1.52 1.92a4.07 4.07 0 0 0 3.16.64l.72-.24.24-.08.24-.08c.2-.05.36-.08.44-.08.29 0 .54.1.76.32.24.19.36.41.36.68 0 .32-.18.6-.52.84-.4.3-.88.5-1.44.64a8.2 8.2 0 0 1-1.52.16 5.96 5.96 0 0 1-3.52-1.04A7 7 0 0 1 6.2 29.6a8.45 8.45 0 0 1 .08-7.16 8.81 8.81 0 0 1 2.24-2.8c.96-.77 2.02-1.36 3.2-1.76 1.17-.43 2.37-.64 3.6-.64 1.92 0 3.57.36 4.96 1.08a7.95 7.95 0 0 1 4.44 7.44 11.12 11.12 0 0 1-.16 1.92c-.24 1.33-.8 2.64-1.68 3.92a22.24 22.24 0 0 1-3.16 3.64 37.4 37.4 0 0 1-3.8 3.12 83.56 83.56 0 0 1-3.6 2.44l.4.2a32.7 32.7 0 0 0 4.88 1.6c.9.21 1.68.32 2.32.32.64 0 1.28-.12 1.92-.36.64-.27.96-.75.96-1.44 0-.13-.15-.3-.44-.48-.4-.3-.6-.64-.6-1.04 0-.27.09-.5.28-.68.2-.19.46-.28.76-.28.53 0 1 .24 1.44.72.45.48.68.99.68 1.52a3.6 3.6 0 0 1-.8 2.44 4.1 4.1 0 0 1-1.92 1.36c-.78.27-1.54.4-2.28.4ZM5.37 42c.5 0 1-.05 1.48-.16.5-.13.84-.25 1-.36l.04-.12c-.16-.21-.54-.39-1.12-.52a5.95 5.95 0 0 0-1.64-.24c-.38 0-.7.05-.96.16-.27.1-.4.27-.4.48 0 .27.16.47.48.6.32.1.69.16 1.12.16Zm29.73 4.16c-1.04 0-2.07-.2-3.08-.6-.99-.4-1.9-.95-2.72-1.64a8.2 8.2 0 0 1-1.96-2.36 5.99 5.99 0 0 1-.48-4.48c.19-.56.47-1.12.84-1.68a3.9 3.9 0 0 1 1.72-1.44 5.78 5.78 0 0 1 6.64 1.64c.5.64.76 1.4.76 2.28 0 .45-.1.79-.28 1a.8.8 0 0 1-.64.28c-.27 0-.53-.1-.8-.32a1.4 1.4 0 0 1-.4-.92 1.88 1.88 0 0 0-.92-1.6 3 3 0 0 0-1.68-.6c-1.12 0-1.95.3-2.48.88-.53.59-.8 1.28-.8 2.08s.25 1.63.76 2.48c.5.85 1.24 1.56 2.2 2.12a6.6 6.6 0 0 0 3.52.88c1.17 0 2.35-.16 3.52-.48 1.2-.3 2.3-.76 3.28-1.4a7.75 7.75 0 0 0 2.36-2.48c.61-.99.92-2.16.92-3.52 0-2.77-1.08-4.72-3.24-5.84h-.08c-.83.45-1.7.77-2.64.96-.93.16-1.87.24-2.8.24-.37 0-.84-.04-1.4-.12-.53-.1-1.01-.3-1.44-.6-.43-.3-.64-.75-.64-1.36 0-.48.19-.85.56-1.12.4-.3.88-.5 1.44-.64.56-.13 1.12-.23 1.68-.28a18.3 18.3 0 0 1 1.48-.08c1.2 0 2.33.19 3.4.56h.08a7.24 7.24 0 0 0 1.72-1.84 4.29 4.29 0 0 0 .52-2.68 3.55 3.55 0 0 0-1.72-3.12 5.43 5.43 0 0 0-3.04-.92c-.75 0-1.56.1-2.44.28-.85.16-1.5.56-1.96 1.2-.21.3-.32.56-.32.8 0 .32.16.55.48.68l.96.32c.53.16.8.48.8.96 0 .83-.61 1.24-1.84 1.24a2.55 2.55 0 0 1-2.32-1.56c-.16-.45-.24-.9-.24-1.32v-.44l.08-.44a4 4 0 0 1 1.4-2.44 5.85 5.85 0 0 1 2.48-1.12c.96-.21 1.88-.32 2.76-.32 1.07 0 2.1.24 3.12.72a7.54 7.54 0 0 1 2.64 2 5.1 5.1 0 0 1 1.24 2.96c.03.19.04.36.04.52V24c0 1.92-.73 3.6-2.2 5.04v.12a8.16 8.16 0 0 1 2.68 3.12 8.67 8.67 0 0 1-.12 8.16A9.44 9.44 0 0 1 43.14 44a11.67 11.67 0 0 1-3.88 1.64 17.1 17.1 0 0 1-4.16.52Zm1.72-15.76c.7 0 1.44-.1 2.24-.32.8-.24 1.3-.5 1.52-.76l-.04-.12a3.36 3.36 0 0 0-1.2-.36c-.59-.1-1.19-.16-1.8-.16a6.1 6.1 0 0 0-1.6.2c-.45.13-.68.39-.68.76 0 .27.15.47.44.6.3.1.67.16 1.12.16Z" mask="url(#a)"/>
<path fill="#751C15" d="M36.33 5.96c-3.03 1.7-4.02 5.3-4.37 6.7l14.2.99 1.83 2.53c.2 1.02.1 2.35.7 4.81.61 2.46 4.16 3.86 5.53 3.59l1.06-3c-.42-.17-1.56.29-2.67-1.25-.85-1.16-.02-3.66.25-5.72.27-2.05.16-7.08-4.35-8.82-4.28-1.67-8.22-2.06-12.18.17Z"/>
<ellipse cx="3.3" cy="3.46" fill="#F8F9FA" rx="3.3" ry="3.46" transform="matrix(.98986 .14203 -.12968 .99156 52.96 20.2)"/>
<path fill="#F8F9FA" d="M35.84 13.56a3 3 0 0 1-3.35 2.67 3.09 3.09 0 0 1-2.54-3.51 3 3 0 0 1 3.34-2.66 3.09 3.09 0 0 1 2.55 3.5Z"/>
<path fill="#F8F9FA" d="M39.9 13.1a3 3 0 0 1-3.35 2.66 3.09 3.09 0 0 1-2.54-3.5 3 3 0 0 1 3.34-2.67 3.09 3.09 0 0 1 2.54 3.51Zm12.24 3.15a3 3 0 0 1-3.34 2.66 3.09 3.09 0 0 1-2.54-3.5 3 3 0 0 1 3.34-2.66 3.09 3.09 0 0 1 2.54 3.5Z"/>
<path fill="#F8F9FA" d="M44.56 13.07a3.33 3.33 0 0 1-3.72 2.96c-1.8-.26-3.07-2-2.82-3.9a3.33 3.33 0 0 1 3.72-2.95c1.8.26 3.07 2 2.82 3.9Z"/>
<path fill="#F8F9FA" d="M48.77 14.02a3.33 3.33 0 0 1-3.72 2.96c-1.8-.26-3.07-2-2.82-3.9a3.33 3.33 0 0 1 3.72-2.95c1.8.26 3.07 2 2.82 3.9Z"/>
</svg>
