<svg xmlns="http://www.w3.org/2000/svg" fill="none" viewBox="0 0 930 80">
<path fill="#F8F9FA" d="M122.2 9.17c-17.52.4-68.1-11.13-100.33-8.1-32.22 3.04-11.06 24.06-18.24 40.46-7.3 16.69-4.36 39.5 15.81 38.43 38.3-2.02 40.13-32.86 69.92-33.37 29.8-.5 62.02 12.64 93.02 10.11 31.01-2.53 67.5-15.17 93.03-15.67s67.48 22.75 101.53 20.73c34.05-2.02 57.21-26.25 85.12-24.78 38.3 2.02 58.98 20.23 82.08 22.25 23.1 2.02 60.41-16.9 94.24-8.6 47.43 11.64 71.75-12.13 105.19-14.15 33.44-2.03 32.83 18.7 57.76 20.73 24.92 2.02 25.53-22.25 62.01-21.75 36.48.51 39.52 27.82 56.54 23.27C934.37 54.86 938.14-6.54 898 .57 860.9 7.15 800.1 3.1 764.85 3.1c-35.27 0-84.52 5.06-111.88 4.55C625.61 7.15 519.22.57 490.64.07c-28.58-.5-119.78 4.55-138.02 4.04-18.24-.5-27.36 5.06-54.1 5.57-26.76.5-77.22-8.1-102.15-8.6-24.93-.5-52.29 7.58-74.18 8.09Z"/>
</svg>
