<svg xmlns="http://www.w3.org/2000/svg" fill="none" viewBox="0 0 351 81">
<path fill="#F8F9FA" d="M39.36 4.97c-6.59.4-19.62-5.87-31.73-2.93C-4.48 4.97 4.6 12.69 1.9 28.56-.84 44.7.1 56.78 7.63 58.06c15.75 2.67 13.1-12.53 23.74-15.96 11.98-3.87 17.03 3.39 28.96 3.39 13.34 0 22.82-2.9 40.44-2.9 14.36 0 27.51 20.1 40.31 18.14 12.8-1.96 20.6-12.19 31.1-10.76 14.4 1.96 19.05 7.83 27.96 7.83 12.98 0 20.74-15.85 33.46-7.83 17.82 11.25 34.4-20.11 45.27-13.7 13.15 7.77 42.61 0 42.61 0 13.71.5 19.57 13.62 25.97 9.22 5.43-3.74 4.55-50.82-10.53-43.94C322.98 7.91 300.12 4 286.87 4s-31.76 4.89-42.05 4.4c-10.28-.5-50.27-6.85-61-7.34-10.75-.49-45.03 4.4-51.88 3.91-6.86-.49-18.97-.49-29.02 0-10.06.5-20.34-2.44-29.7-2.93-9.38-.49-25.64 2.44-33.86 2.93Z"/>
</svg>
