<svg xmlns="http://www.w3.org/2000/svg" xml:space="preserve" style="enable-background:new 0 0 642.1 1230.1" viewBox="0 0 642.1 1230.1">
<style>
.st6{fill:#252147}.st7{fill:#fee449}.st8{fill:none;stroke:#fff;stroke-width:.5;stroke-miterlimit:10}
</style>
<g id="Lys_bak">
<g id="lys">
<radialGradient id="SVGID_1_" cx="-40.08" cy="5.85" r="517.1" gradientTransform="matrix(.622 0 0 .311 346.57 319.82)" gradientUnits="userSpaceOnUse">
<stop offset="0" style="stop-color:#d99a33"/>
<stop offset="1" style="stop-color:#231f20;stop-opacity:0"/>
</radialGradient>
<circle cx="321.6" cy="321.6" r="321.6" style="opacity:.6;fill:url(#SVGID_1_)"/>
<radialGradient id="SVGID_00000165937936608357218170000009506071060870448779_" cx="-40.08" cy="10.02" r="517.1" gradientTransform="translate(346.57 318)scale(.622)" gradientUnits="userSpaceOnUse">
<stop offset=".09" style="stop-color:#d99a33"/>
<stop offset="1" style="stop-color:#231f20;stop-opacity:0"/>
</radialGradient>
<circle cx="321.6" cy="324.2" r="321.6" style="opacity:.6;fill:url(#SVGID_00000165937936608357218170000009506071060870448779_)"/>
</g>
</g>
<g id="lyktestolpe">
<g id="Farger">
<g id="XMLID_00000176735509147923079490000000657156159599624877_">
<g id="XMLID_00000033362574126038834610000007856806268591044027_">
<path d="M401.4 216.6v16.1l-12.2-1.6-75.4-10.1-12.9-1.7v-16.7l42.6 6zm0 16.1-22.6 160.5-12.3-.9 22.7-161.2zM390.1 1177v15.4c0 2.8-2.2 5-4.2 6.5-3.3 2.6-7.7 4.3-11.6 5.7-6.6 2.3-13.4 3.8-20.3 4.9-13.9 2.3-27.7 3.2-41.7 3.3-14 0-27.9-.8-41.8-3-6.9-1.1-13.7-2.5-20.4-4.8-3.8-1.3-8.1-3-11.5-5.5-2-1.5-4.3-3.7-4.3-6.6v-15.4c0 1.7.8 3.2 2.3 4.8 2.5 2.5 6.1 4.2 9.2 5.5 4.8 1.9 9.6 3.2 14.6 4.4 16.1 3.6 35.3 4.8 51.8 4.8 16.4 0 35.6-1.4 51.7-5.1 4.9-1.1 9.8-2.4 14.5-4.4 3.2-1.3 6.8-3.1 9.3-5.6 1.6-1.6 2.4-3.2 2.4-4.9z" class="st6"/>
<path d="m389.2 231.1-22.7 161.2-4.9-.4L384 232.1z" class="st6"/>
<path d="m389.2 231.1-5.2 1-70.1-9.3-.1-1.8zm-.9 941.7c1.2 1.4 1.8 2.8 1.8 4.2 0 1.7-.8 3.3-2.4 4.8-2.5 2.5-6.2 4.3-9.3 5.6-4.7 1.9-9.5 3.2-14.5 4.4-16.1 3.7-35.3 5-51.7 5.1-16.4 0-35.6-1.2-51.8-4.8-5-1.1-9.9-2.4-14.6-4.4-3.1-1.3-6.7-3-9.2-5.5-1.5-1.5-2.3-3.1-2.3-4.8 0-1.3.5-2.6 1.6-4 1.5-1.8 3.4-3 5.4-4.2 2.7-1.5 5.6-2.6 8.5-3.6v11.5c0 2.3 1.9 4 3.5 5.2 2.7 1.9 6.2 3.3 9.2 4.3 5.3 1.8 10.8 2.8 16.3 3.7 11.1 1.7 22.1 2.4 33.3 2.3 11.2 0 22.2-.7 33.3-2.5 5.5-.9 10.9-2 16.2-3.8 3.1-1 6.6-2.4 9.3-4.4 1.6-1.1 3.4-2.8 3.4-5.1v-11.5c2.9 1 5.6 2 8.3 3.5 2.3 1.1 4.2 2.2 5.7 4z" class="st6"/>
<path d="m384 232.1-22.4 159.8-45-3.3-2.7-165.8z" class="st7"/>
<path d="m378.8 393.2-.1 16-74.9-5.2v-16.4l12.8 1 45 3.3 4.9.4z" class="st6"/>
<path d="m378.7 409.2-51 5.2v-4.6c0-.3-.9-.4-1.1-.5-.9-.2-1.9-.3-2.8-.4l-4-.3c-2.7-.1-5.3-.2-8-.2s-5.3 0-8 .2c-1.3.1-2.7.1-4 .3-1 .1-1.9.2-2.8.4-.3.1-.5.1-.8.2-.1.1-.2.1-.2.2v3.9l-50.6-3.3 58.4-6.4 74.9 5.3zm-5.3 579.9c.7.6 1.3 1.3 1.2 2.1 0 .3-.1.6-.3 1-.4.7-.9 1.1-1.5 1.5-.9.6-1.8 1.1-2.8 1.5-2.9 1.2-5.9 2-8.9 2.6-14.4 3.1-34.5 4.1-49.1 4.1-14.6 0-34.7-.9-49.1-4-2.9-.6-5.8-1.3-8.5-2.5-1.5-.6-3.6-1.5-4.5-3-.3-.4-.4-.8-.4-1.2 0-.7.5-1.4 1.1-2 1.6-1.4 4-2.3 6-3 3.5-1.2 7.1-1.9 10.8-2.6 4.5-.8 8.9-1.4 13.4-1.8v9c0 1.9 5.9 3.1 7 3.4 2.7.5 5.3.9 8 1.2 5.4.5 10.8.8 16.2.7 5.4 0 10.8-.2 16.2-.8 2.7-.3 5.4-.7 8-1.2 1.8-.4 3.5-.8 5.1-1.6.6-.3 1.9-.9 1.9-1.8v-9c4.8.5 9.5 1 14.2 1.9 3.4.6 6.8 1.3 10.1 2.4 2.1.9 4.4 1.8 5.9 3.1z" class="st6"/>
<path d="M374.7 991.2v15.5c0 .9-.4 1.4-.9 1.9-.8.8-1.8 1.4-2.8 1.9-3.1 1.5-6.9 2.5-10.2 3.2-.6.1-1.1.2-1.7.4-4.8 1-9.6 1.6-14.4 2.2-10.8 1.2-21.6 1.7-32.5 1.7-10.9 0-21.7-.4-32.5-1.5-4.8-.5-9.6-1.2-14.4-2.1-.6-.1-1.1-.2-1.7-.4-3.5-.8-6.9-1.6-10.1-3.1-1-.5-2-1-2.9-1.9-.6-.6-1-1.1-1-2v-15.5c0 .4.1.8.4 1.2 1 1.5 3.1 2.4 4.5 3 2.8 1.1 5.6 1.8 8.5 2.5 14.4 3.1 34.5 4 49.1 4 14.6 0 34.7-1 49.1-4.1 3-.7 6-1.4 8.9-2.6 1-.4 1.9-.9 2.8-1.5.6-.4 1.1-.9 1.5-1.5.2-.7.3-1 .3-1.3zm-.1 170.2v15.4c0 2.2-1.8 3.9-3.4 5.1-2.7 2-6.2 3.4-9.3 4.4-5.3 1.8-10.7 2.9-16.2 3.8-11.1 1.8-22.1 2.5-33.3 2.5-11.2 0-22.2-.6-33.3-2.3-5.5-.9-11-2-16.3-3.7-3.1-1-6.5-2.4-9.2-4.3-1.6-1.1-3.5-2.9-3.5-5.2v-15.4c0 .6.1 1.2.5 1.9 1.3 2.5 4.3 4.1 6.6 5.1 4 1.9 8.1 3 12.4 4 13.2 3 29.3 4.1 42.8 4.1s29.6-1.2 42.8-4.3c4.3-1 8.4-2.2 12.4-4.1 1.5-.7 2.9-1.5 4.2-2.5 1-.8 1.8-1.5 2.4-2.7.2-.5.4-1.2.4-1.8z" class="st6"/>
<path d="M374.6 1161.4c0 .6-.1 1.3-.5 2-.6 1.1-1.4 1.9-2.4 2.7-1.3 1-2.7 1.8-4.2 2.5-4 1.9-8.2 3.1-12.4 4.1-13.2 3.1-29.3 4.2-42.8 4.3-13.5 0-29.6-1-42.8-4.1-4.3-1-8.4-2.1-12.4-4-2.2-1-5.3-2.7-6.6-5.1-.4-.7-.5-1.3-.5-1.9 0-1.9 1.4-3.5 2.9-4.7 3.5-2.7 8.5-4.3 12.6-5.5v9.9c0 1.7 1.5 3 2.7 3.8 2.2 1.5 4.5 2.4 7 3.1 4 1.3 8.1 2.1 12.2 2.7 8.3 1.3 16.6 1.7 24.9 1.7 8.4 0 16.6-.5 24.9-1.8 4.1-.7 8.2-1.5 12.2-2.8 2.5-.8 4.9-1.7 7.1-3.2 1.2-.8 2.6-2.1 2.6-3.7v-9.9c4 1.1 9 2.7 12.5 5.3 1.4 1 3 2.7 3 4.6zm-15.5-248.1v15.6c0 2.5-9.4 4.1-10.8 4.3-1.6.3-3.2.5-4.8.7-2.4.3-4.8.6-7.2.8-8 .7-16.1 1-24.1 1-8.1 0-16.1-.2-24.1-.9-2.4-.2-4.8-.4-7.2-.8-1.6-.2-3.2-.4-4.8-.7-1.4-.2-10.8-1.8-10.8-4.3v-15.6c0 .7.8 1.2 1.3 1.5 1.6.9 3.7 1.4 5.4 1.8 11 2.5 29.2 3.1 40.2 3 11.1 0 29.3-.7 40.2-3.2 1.8-.4 4-.9 5.6-1.9.5-.2 1.1-.7 1.1-1.3z" class="st6"/>
<path d="m265.5 1151.6-.2-137.3c4.8 1 9.6 1.6 14.4 2.1 10.8 1.1 21.6 1.6 32.5 1.5 10.9 0 21.7-.5 32.5-1.7 4.8-.5 9.6-1.2 14.4-2.2l-.1 137.3v9.9c0 1.7-1.4 2.9-2.6 3.7-2.2 1.6-4.6 2.4-7.1 3.2-4 1.3-8.1 2.1-12.2 2.8-8.3 1.3-16.5 1.8-24.9 1.8-8.4 0-16.6-.4-24.9-1.7-4.1-.6-8.2-1.4-12.2-2.7-2.5-.8-4.8-1.6-7-3.1-1.2-.8-2.7-2.1-2.7-3.8l.1-9.8zm93.3-238.9c.2.2.2.4.2.7 0 .6-.6 1.1-1.1 1.4-1.6 1-3.8 1.5-5.6 1.9-11 2.5-29.2 3.1-40.2 3.2-11.1 0-29.3-.6-40.2-3-1.7-.4-3.8-.9-5.4-1.8-.5-.3-1.3-.8-1.3-1.5 0-.2 0-.3.1-.5.3-.5.7-.8 1.2-1 .8-.4 1.5-.7 2.3-1 2.5-.8 5-1.3 7.5-1.7 6.7-1.1 13.4-1.6 20.1-1.9v5.9c0 .8 3.2 1.3 3.6 1.4 1.3.2 2.7.3 4 .4a108.96 108.96 0 0 0 16 0c1.3-.1 2.7-.2 4-.5.4-.1 3.6-.6 3.6-1.4v-5.9c6.7.3 13.4.8 20.1 1.9 2.4.4 4.8.8 7.2 1.6.8.2 1.6.5 2.4.9.7.1 1.2.4 1.5.9zm-15.3-704.1-42.6-6-20.9 4.6V202c0-2 6-3.2 7.1-3.5 2.7-.6 5.4-1 8.2-1.2.2 0 .4 0 .6-.1 5.3-.5 10.6-.7 15.9-.7 5.3 0 10.6.2 15.9.8.2 0 .4 0 .6.1 2.8.3 5.5.7 8.2 1.3 1.8.4 3.5.8 5.2 1.6.6.3 1.9.9 1.9 1.9l-.1 6.4zm-15.8 214.9h.2c2.7.1 5.3.3 8 .5 1.9.2 3.8.3 5.6.7.3.1 2.1.3 2.1.9v15.9c0-.5-1.8-.7-2.1-.8-1.9-.3-3.8-.5-5.6-.7-2.7-.2-5.3-.4-8-.5a421.61 421.61 0 0 0-31.8 0c-2.7.1-5.3.2-8 .5-1.9.1-3.7.3-5.6.6-.2.1-2.2.4-2.2.8v-15.9c0-.5 1.9-.8 2.2-.9 1.8-.4 3.7-.5 5.5-.7 2.7-.2 5.3-.4 8-.5h.2c5.3-.2 10.5-.3 15.8-.3 5.2.1 10.4.2 15.7.4zm-46.8 558.6V934c2.4.3 4.8.5 7.2.8 8 .7 16.1.9 24.1.9 8.1 0 16.1-.3 24.1-1 2.4-.2 4.8-.5 7.2-.8V991c0 .9-1.2 1.5-1.9 1.8-1.7.8-3.4 1.2-5.1 1.6-2.7.6-5.3.9-8 1.2-5.4.6-10.8.8-16.2.8-5.4 0-10.8-.2-16.2-.7-2.7-.3-5.4-.6-8-1.2-1.1-.2-7-1.4-7-3.4l-.2-9z" class="st6"/>
<path d="M343.5 441.5c0 .3-.6.4-.7.5-.3.1-.6.2-.9.2l-1.8.3c-1.2.2-2.4.3-3.6.4-2.9.2-5.9.4-8.8.5v-1.9c0-.2-.9-.4-1-.4-.9-.2-1.9-.3-2.8-.3-1.3-.1-2.7-.2-4-.2-2.7-.1-5.3-.2-8-.2v-1.1c5.3 0 10.6.1 15.9.3 2.7.1 5.3.2 8 .5 1.9.1 3.8.3 5.6.7.3 0 2.1.3 2.1.7z" class="st6"/>
<path d="M296.1 443.4v-1.9c0-.1.1-.1.2-.2.2-.1.5-.1.8-.2.9-.2 1.9-.3 2.8-.3 1.3-.1 2.7-.2 4-.2 2.7-.1 5.3-.1 8-.1s5.3 0 8 .2c1.3.1 2.7.1 4 .2l2.8.3c.1 0 1 .2 1 .4v1.9l.1 463.9v5.9c0 .8-3.2 1.3-3.6 1.4-1.3.2-2.7.4-4 .5a108.96 108.96 0 0 1-16 0c-1.3-.1-2.7-.2-4-.4-.4-.1-3.6-.6-3.6-1.4v-5.9l-.5-464.1zm-.1-29.7v-3.9c0-.1.1-.2.2-.2.2-.1.5-.2.8-.2.9-.2 1.9-.3 2.8-.4l4-.3c2.7-.1 5.3-.2 8-.2s5.3.1 8 .2l4 .3c.9.1 1.9.2 2.8.4.2 0 1 .2 1.1.5v13.8a416.33 416.33 0 0 0-31.6 0l-.1-10zm31.6-227.5v11.2a169.27 169.27 0 0 0-31.8-.1v-11.2c0-1 2.9-1.7 3.5-1.8 1.3-.3 2.7-.5 4.1-.6 2.8-.3 5.5-.4 8.3-.4 2.8 0 5.5.1 8.3.4 1.4.2 2.7.4 4.1.7.6.1 3.5.7 3.5 1.8zm-13.7 36.6 2.7 165.8-12.8-1-2.9-168.3 12.9 1.7z" class="st6"/>
<path d="M311.9 439.3v1.1c-2.7 0-5.3 0-8 .1-1.3.1-2.7.1-4 .2l-2.8.3c-.3 0-.5.1-.8.2-.1 0-.2.1-.2.2v1.9c-2.7-.1-5.3-.3-8-.5-1.3-.1-2.7-.2-4-.4l-2-.3c-.2 0-1.8-.3-1.8-.7 0-.5 1.9-.8 2.2-.8 1.8-.3 3.7-.5 5.6-.6 2.7-.2 5.3-.4 8-.5 5.2-.1 10.5-.2 15.8-.2zm-8.1-51.7V404l-58.4 6.4v-15.9l9.5-1.1 6.1-.7 32.8-3.9z" class="st6"/>
<path d="m300.9 219.3 2.9 168.3-10 1.2-3-165.1v-2.3z" class="st6"/>
<path d="M300.9 202.6v16.7l-10.1 2.1-58.5 12.4-9.4 2v-16l57.1-12.6z" class="st6"/>
<path d="m290.8 223.7 3 165.1-32.8 3.9-22.3-158.1z" class="st7"/>
<path d="M290.8 221.4v2.3l-52.1 10.9-6.4-.8z" class="st6"/>
<path d="M238.7 234.6 261 392.7l-6.1.7-22.6-159.6z" class="st6"/>
<path d="m232.3 233.8 22.6 159.6-9.5 1.1-22.5-158.7z" class="st6"/>
</g>
</g>
</g>
<g id="Outline">
<path d="M265.5 1161.5c0 1.7 1.5 3 2.7 3.8 2.2 1.5 4.5 2.4 7 3.1 4 1.3 8.1 2.1 12.2 2.7 8.3 1.3 16.6 1.7 24.9 1.7 8.3 0 16.6-.5 24.9-1.8 4.1-.6 8.2-1.5 12.2-2.8 2.5-.8 4.9-1.7 7.1-3.2 1.2-.8 2.5-2.1 2.5-3.7M222.9 219.8l78-17.2m0 16.7v-16.7m0 0 100.5 14m-58 717.4v57m-62.5.2-.1-57.1m-.8-732c0-2 6-3.2 7.1-3.5 2.7-.6 5.4-.9 8.2-1.2 5.5-.6 11-.8 16.5-.8s11 .2 16.5.8c2.7.3 5.5.7 8.2 1.3 1.8.4 3.5.8 5.2 1.6.6.3 1.9.9 1.9 1.9m-78.4 726.9c0 2.5 9.5 4 10.8 4.3 4 .7 8 1.1 12 1.5 8 .7 16.1.9 24.1.9 8.1 0 16.1-.3 24.1-1 4-.4 8-.8 12-1.5 1.4-.2 10.8-1.8 10.8-4.3m-68.2-707.5 3 167.3m22.8-.2L313.8 221m-10 166.6 12.8 1m-15.7-169.3 2.9 168.3m23.9 54 .1 471.7m-31.3 0-.4-471.8m0 .1c-.1-.2.1-.2.2-.2.2-.1.5-.2.8-.2.9-.2 1.9-.3 2.8-.3 1.3-.1 2.7-.2 4-.2 2.7-.1 5.3-.1 8-.1s5.3 0 8 .2c1.3.1 2.7.1 4 .2l2.8.3c.1 0 1 .2 1 .4" class="st8"/>
<path d="M249.9 1165.6c-2.9 1-5.8 2.1-8.5 3.6-2 1.1-3.9 2.3-5.4 4.2-2.5 3.1-2 6.1.7 8.8 2.5 2.5 6.1 4.2 9.2 5.5 4.8 1.9 9.6 3.2 14.6 4.3 16.1 3.6 35.3 4.9 51.7 4.8 16.4 0 35.6-1.4 51.7-5.1 4.9-1.1 9.8-2.4 14.5-4.4 3.2-1.3 6.8-3 9.3-5.5 2.8-2.8 3.3-5.9.6-9-1.6-1.8-3.4-3-5.5-4.1-2.7-1.4-5.4-2.5-8.3-3.5m.1-3.8v15.4m-124.7.4v-15.5" class="st8"/>
<path d="M265.5 1151.6c-4.1 1.1-9.1 2.8-12.6 5.5-2 1.5-3.9 3.8-2.4 6.6 1.3 2.5 4.3 4.1 6.6 5.1 4 1.9 8.2 3 12.4 4 13.2 3 29.4 4.1 42.8 4.1 13.5 0 29.6-1.2 42.8-4.3 4.3-1 8.4-2.2 12.4-4.1 1.5-.7 2.9-1.5 4.2-2.5 1-.8 1.8-1.5 2.4-2.6 1.5-2.8-.5-5.2-2.6-6.7-3.5-2.6-8.4-4.2-12.5-5.3M249.6 1007c0 .9.4 1.4 1 2 .8.8 1.8 1.4 2.9 1.9 3.2 1.6 6.6 2.4 10.1 3.1 5.3 1.2 10.7 1.9 16.1 2.5 10.8 1.1 21.6 1.6 32.5 1.6s21.7-.5 32.5-1.7c5.4-.6 10.8-1.3 16.1-2.5 3.3-.7 7.1-1.7 10.2-3.2 1-.5 2-1 2.8-1.9.5-.6.9-1.1.9-1.9m-70.9-619.3-58.4 6.9m133.4-1.3-62.2-4.6m42.5 625.5-.1 147.2m-93.5.2-.2-147.2m62.4-604.5v13.7m-31.6 0-.1-13.8m.1.1c-.1-.2.1-.2.2-.3.2-.1.5-.2.8-.2.9-.2 1.9-.3 2.8-.4l4-.3c2.7-.1 5.3-.2 8-.2s5.3.1 8 .2l4 .3c.9.1 1.9.2 2.8.4.2 0 1 .2 1.1.5m-14-188.8 75.4 10.1m-27.6 160.8L384 232.1m-87.9 211.3c-2.7-.1-5.4-.3-8-.5-1.3-.1-2.7-.2-4-.4l-2-.3c-.2 0-1.8-.3-1.8-.7m15.6-244.2v-11.2m88.1 46-70.1-9.3m-81.6 11 58.5-12.3m-35.9 171.9-22.6-159.6m64.2 673.6c-6.7.3-13.4.8-20.1 1.9-2.5.4-5 .9-7.5 1.7-.8.3-1.6.6-2.4 1-.5.3-.9.5-1.2 1-.5.9.5 1.7 1.2 2 1.6.9 3.7 1.4 5.4 1.8 11 2.5 29.2 3.1 40.2 3 11.1 0 29.3-.7 40.2-3.2 1.8-.4 4-.9 5.6-1.9.7-.4 1.6-1.2.9-2.1-.4-.5-.8-.7-1.4-1-.8-.4-1.6-.7-2.4-.9-2.4-.7-4.8-1.2-7.2-1.5-6.7-1.1-13.4-1.5-20.1-1.9M280 207.2v-5.1m.3 239.4-.1-15.9m.1 15.9c0-.5 1.9-.8 2.2-.8 1.8-.3 3.7-.5 5.6-.6 2.7-.2 5.3-.3 8-.5a421.61 421.61 0 0 1 31.8 0c2.7.1 5.3.3 8 .5 1.9.2 3.8.3 5.6.7.3 0 2.1.3 2.1.8m-.1-15.9v15.8" class="st8"/>
<path d="M343.5 441.5c0 .3-.6.4-.7.5-.3.1-.6.2-.9.2l-1.8.3c-1.2.2-2.4.3-3.6.4m0 0c-2.9.3-5.9.4-8.8.5m61.5-212.3-22.7 161.2m22.7-161.2-5.2 1m17.4.6-12.2-1.6m12.2 1.6-22.6 160.5M222.9 235.8v-16m178.5 12.9v-16.1M280.9 991.2c0 1.9 5.9 3.1 7 3.3 2.7.6 5.3.9 8 1.2 5.4.5 10.8.8 16.2.7 5.4 0 10.8-.2 16.2-.8 2.7-.3 5.4-.6 8-1.2 1.8-.4 3.5-.8 5.1-1.6.6-.3 1.9-.9 1.9-1.8m.2-788.8v6.4m-111.2 25.2 6.4.8m-6.4-.8-9.4 2m0 0 22.5 158.7m113.7 518.8v15.6m-93.9.2-.1-15.6" class="st8"/>
<path d="M280.9 982.1c-4.5.5-9 1-13.5 1.8-3.6.6-7.2 1.4-10.8 2.6-1.9.6-4.4 1.5-6 2.9-1 .9-1.5 1.9-.7 3.2 1 1.5 3.1 2.4 4.5 3 2.8 1.1 5.6 1.8 8.5 2.4 14.4 3.1 34.5 4 49.1 4 14.6 0 34.7-1 49.1-4.1 3-.7 6-1.4 8.9-2.6 1-.4 1.9-.9 2.8-1.5.6-.4 1.1-.9 1.5-1.6.7-1.3-.1-2.3-1-3.1-1.6-1.3-3.9-2.2-5.8-2.8a70.6 70.6 0 0 0-10.1-2.4c-4.7-.8-9.4-1.4-14.2-1.9m-39.4-594.4V404m-13-180.3-52.1 10.9m62.2-15.3-10.1 2.2m23-.5-12.9-1.7m-4.4 694c0 .8 3.2 1.3 3.6 1.4 1.3.2 2.7.4 4 .5a106.93 106.93 0 0 0 16 0c1.3-.1 2.7-.3 4-.5.4-.1 3.6-.6 3.6-1.4m-93.3 279.6c0 2.9 2.3 5.1 4.3 6.6 3.3 2.5 7.6 4.2 11.5 5.5 6.7 2.3 13.5 3.7 20.4 4.8 13.9 2.2 27.7 3.1 41.7 3 14 0 27.9-.9 41.7-3.3 6.9-1.2 13.7-2.6 20.3-4.9 3.9-1.3 8.2-3.1 11.6-5.7 2-1.5 4.2-3.7 4.2-6.5m0-15.4v15.4m-155.7.5-.1-15.4" class="st8"/>
<path d="M249.9 1177.2c0 2.3 1.9 4 3.5 5.2 2.7 1.9 6.2 3.3 9.2 4.3 5.3 1.7 10.8 2.8 16.3 3.7 11.1 1.7 22.1 2.4 33.3 2.3 11.2 0 22.2-.7 33.3-2.5 5.5-.9 10.9-2 16.3-3.8 3.1-1 6.6-2.4 9.3-4.4 1.6-1.1 3.4-2.8 3.4-5.1m-78.6-990.8c0-1 2.9-1.7 3.5-1.8 1.4-.3 2.7-.5 4.1-.6 2.8-.3 5.5-.4 8.3-.4 2.8 0 5.5.1 8.3.4 1.4.2 2.7.4 4.1.7.6.1 3.5.7 3.5 1.8m-.1 0v11.1m47.1 793.9v15.5m-125.1.3v-15.6m-10.9-756.8L261 392.7m66.7 21.7 51-5.2m0 0-74.9-5.2m0 0-58.4 6.4m133.4-17.2-.1 16m-133.3-14.7v15.9m0 0 50.7 3.3m-15.9 11.9c0-.5 1.9-.8 2.2-.9 1.8-.4 3.7-.5 5.5-.7 2.7-.2 5.3-.4 8-.5a422.96 422.96 0 0 1 32 0c2.7.1 5.3.3 8 .5 1.9.2 3.8.4 5.6.7.3.1 2.1.3 2.1.9" class="st8"/>
</g>
<path id="Snø" d="m222.9 219.8 78-17.2s99.7 16.5 100.5 14c.8-2.5-10.5-31.5-82.4-28.7-49.7 1.9-86.1 12.6-94.5 27.3-1.4 2.3-1.6 4.6-1.6 4.6zm42 693.7s-.6 4.8 41.9 6.3c13.4.5 49.7-1.1 52.4-6.4.1-.1 0-1 0-1.8.8-15.8-31.5-22.9-31.5-22.9s0 5.4-15.7 5.4-15.7-5.4-15.7-5.4-31.5 6.5-31.5 22.9c.1.3.1 1.9.1 1.9zm-15.3 78.7s-.9 7.4 55.5 9.6c17.8.7 65.8-1.6 69.5-9.9.1-.2.1-6.4.1-7.7-.7-20.7-31.3-30.1-31.3-30.1s0 8.3-31.3 8.3-31.2-8.3-31.2-8.3-31.3 11.3-31.3 31.8v6.3zm-15.3 186.6s-1.1 14.7 69.2 19.1c22.2 1.4 82-3.3 86.5-19.6.1-.4.1-12.7.1-15.3-.8-41.1-31.1-48-31.1-48s.1 13.1-46.7 13.1c-46.9 0-46.9-12.9-46.9-12.9s-31 10.5-30.9 51.1c-.1 1.3-.2 12.5-.2 12.5zm93.3-993s-1.9-2.6-15.9-2.6c-14.8 0-15.9 2.6-15.9 2.6s.1-13.8 16.3-12.4c16.1 1.5 15.5 12.4 15.5 12.4z" style="fill:#fff"/>
</g>
<g id="lys_foran">
<radialGradient id="SVGID_00000116921497792678615900000007143360326450333089_" cx="-68.78" cy="-23.34" r="340.81" gradientTransform="translate(346.57 318)scale(.622)" gradientUnits="userSpaceOnUse">
<stop offset="0" style="stop-color:#d99a33"/>
<stop offset="1" style="stop-color:#231f20;stop-opacity:0"/>
</radialGradient>
<circle cx="303.8" cy="303.5" r="212" style="opacity:.6;fill:url(#SVGID_00000116921497792678615900000007143360326450333089_)"/>
</g>
</svg>
