<svg width="20" height="26" viewBox="0 0 20 26" fill="none" xmlns="http://www.w3.org/2000/svg">
<path d="M1.11877 20.3289L0.306557 19.7455L0.306556 19.7455L1.11877 20.3289ZM2.42712 16.4053L1.42712 16.3937V16.4053H2.42712ZM2.45458 14.0331L3.45458 14.0446V14.0331H2.45458ZM18.8882 20.3479L19.7118 19.7807L19.7118 19.7807L18.8882 20.3479ZM17.6291 16.4053L16.6291 16.3931V16.4053H17.6291ZM17.6566 14.1506L18.6566 14.1628V14.1506H17.6566ZM1.93098 20.9122C2.68201 19.8666 3.42712 18.3071 3.42712 16.4053H1.42712C1.42712 17.7778 0.887051 18.9373 0.306557 19.7455L1.93098 20.9122ZM3.42705 16.4169L3.45452 14.0446L1.45465 14.0215L1.42719 16.3937L3.42705 16.4169ZM19.7118 19.7807C19.1555 18.973 18.6291 17.8005 18.6291 16.4053H16.6291C16.6291 18.3069 17.3436 19.8682 18.0647 20.9151L19.7118 19.7807ZM18.629 16.4175L18.6565 14.1628L16.6566 14.1384L16.6292 16.3931L18.629 16.4175ZM18.6566 14.1506C18.6566 9.17948 14.833 5.05263 10 5.05263V7.05263C13.6242 7.05263 16.6566 10.177 16.6566 14.1506H18.6566ZM18.43 22.4473C19.2195 22.4473 19.6866 21.8665 19.8659 21.4212C20.0481 20.9685 20.0858 20.3237 19.7118 19.7807L18.0647 20.9151C18.013 20.8401 18.002 20.774 18.0003 20.7425C17.9987 20.7121 18.0036 20.6916 18.0105 20.6744C18.0168 20.659 18.038 20.6133 18.0992 20.5625C18.1678 20.5056 18.2838 20.4473 18.43 20.4473V22.4473ZM3.45458 14.0331C3.45458 10.1243 6.43714 7.05263 10 7.05263V5.05263C5.22843 5.05263 1.45458 9.12686 1.45458 14.0331H3.45458ZM1.57109 20.4473C1.72055 20.4473 1.83799 20.5079 1.90584 20.5653C1.96615 20.6163 1.98586 20.6611 1.99102 20.6743C1.99686 20.6893 2.00149 20.7081 1.99956 20.7376C1.99756 20.7682 1.98587 20.8358 1.93099 20.9122L0.306556 19.7455C-0.0845395 20.29 -0.0500344 20.9456 0.127922 21.4015C0.30255 21.8489 0.76869 22.4473 1.57109 22.4473V20.4473ZM18.43 20.4473H1.57109V22.4473H18.43V20.4473ZM12.6 21.4473C12.6 22.8447 11.4485 24 10 24V26C12.528 26 14.6 23.9741 14.6 21.4473H12.6ZM10 24C8.55154 24 7.4 22.8447 7.4 21.4473H5.4C5.4 23.9741 7.47201 26 10 26V24ZM11.4 3.52632C11.4 4.41823 10.7255 5.05263 10 5.05263V7.05263C11.9255 7.05263 13.4 5.42489 13.4 3.52632H11.4ZM10 5.05263C9.27452 5.05263 8.6 4.41823 8.6 3.52632H6.6C6.6 5.42489 8.07452 7.05263 10 7.05263V5.05263ZM8.6 3.52632C8.6 2.6344 9.27452 2 10 2V0C8.07452 0 6.6 1.62774 6.6 3.52632H8.6ZM10 2C10.7255 2 11.4 2.6344 11.4 3.52632H13.4C13.4 1.62774 11.9255 0 10 0V2Z" fill="#F8F9FA"/>
</svg>
