<svg width="30" height="30" viewBox="0 0 30 30" fill="none" xmlns="http://www.w3.org/2000/svg">
<path d="M6.11877 22.3289L5.30656 21.7455H5.30656L6.11877 22.3289ZM7.42712 18.4053L6.42712 18.3937V18.4053H7.42712ZM7.45458 16.0331L8.45458 16.0446V16.0331H7.45458ZM19.6 23.4473C19.6 22.8951 19.1523 22.4473 18.6 22.4473C18.0477 22.4473 17.6 22.8951 17.6 23.4473H19.6ZM12.4 23.4473C12.4 22.8951 11.9523 22.4473 11.4 22.4473C10.8477 22.4473 10.4 22.8951 10.4 23.4473H12.4ZM9.83859 10.2148L10.6398 9.61645L9.94779 8.68974L9.13077 9.50839L9.83859 10.2148ZM19.7203 23.4473V24.4473H21.7152L20.5216 22.849L19.7203 23.4473ZM23.1774 22.9972C23.4914 23.4515 24.1142 23.5653 24.5686 23.2513C25.0229 22.9373 25.1366 22.3144 24.8226 21.8601L23.1774 22.9972ZM22.733 18.4751L21.733 18.4629V18.4751H22.733ZM22.7606 16.2142L23.7606 16.2264V16.2142H22.7606ZM13.5301 7.23546C12.9873 7.33745 12.63 7.86015 12.732 8.40293C12.8339 8.94572 13.3566 9.30306 13.8994 9.20107L13.5301 7.23546ZM21.1988 27.0983C21.5292 27.5409 22.1558 27.6317 22.5983 27.3012C23.0409 26.9708 23.1317 26.3442 22.8012 25.9017L21.1988 27.0983ZM8.61249 6.90165C8.28203 6.45914 7.65541 6.3683 7.2129 6.69876C6.77039 7.02922 6.67955 7.65583 7.01001 8.09835L8.61249 6.90165ZM6.93098 22.9122C7.68201 21.8666 8.42712 20.3071 8.42712 18.4053H6.42712C6.42712 19.7778 5.88705 20.9373 5.30656 21.7455L6.93098 22.9122ZM8.42705 18.4169L8.45452 16.0446L6.45465 16.0215L6.42719 18.3937L8.42705 18.4169ZM6.57109 22.4473C6.72055 22.4473 6.83799 22.5079 6.90584 22.5653C6.96615 22.6163 6.98586 22.6611 6.99102 22.6743C6.99686 22.6893 7.00149 22.7081 6.99956 22.7376C6.99756 22.7682 6.98587 22.8358 6.93099 22.9122L5.30656 21.7455C4.91546 22.29 4.94997 22.9456 5.12792 23.4015C5.30255 23.8489 5.76869 24.4473 6.57109 24.4473V22.4473ZM17.6 23.4473C17.6 24.8447 16.4485 26 15 26V28C17.528 28 19.6 25.9741 19.6 23.4473H17.6ZM15 26C13.5515 26 12.4 24.8447 12.4 23.4473H10.4C10.4 25.9741 12.472 28 15 28V26ZM16.4 5.52632C16.4 6.41823 15.7255 7.05263 15 7.05263V9.05263C16.9255 9.05263 18.4 7.42489 18.4 5.52632H16.4ZM15 7.05263C14.2745 7.05263 13.6 6.41823 13.6 5.52632H11.6C11.6 7.42489 13.0745 9.05263 15 9.05263V7.05263ZM13.6 5.52632C13.6 4.6344 14.2745 4 15 4V2C13.0745 2 11.6 3.62774 11.6 5.52632H13.6ZM15 4C15.7255 4 16.4 4.6344 16.4 5.52632H18.4C18.4 3.62774 16.9255 2 15 2V4ZM8.45458 16.0331C8.45458 14.0237 9.27657 12.1936 10.5464 10.9212L9.13077 9.50839C7.49751 11.1449 6.45458 13.4789 6.45458 16.0331H8.45458ZM19.7203 22.4473H6.57109V24.4473H19.7203V22.4473ZM9.03735 10.8131L18.9191 24.0457L20.5216 22.849L10.6398 9.61645L9.03735 10.8131ZM24.8226 21.8601C24.2626 21.0498 23.733 19.8739 23.733 18.4751H21.733C21.733 20.3822 22.452 21.9477 23.1774 22.9972L24.8226 21.8601ZM23.7329 18.4873L23.7606 16.2264L21.7607 16.2019L21.7331 18.4629L23.7329 18.4873ZM23.7606 16.2142C23.7606 11.2273 19.9125 7.09375 15.0562 7.09375V9.09375C18.7101 9.09375 21.7606 12.2315 21.7606 16.2142H23.7606ZM13.8994 9.20107C14.2744 9.13062 14.6608 9.09375 15.0562 9.09375V7.09375C14.5361 7.09375 14.026 7.14227 13.5301 7.23546L13.8994 9.20107ZM22.8012 25.9017L8.61249 6.90165L7.01001 8.09835L21.1988 27.0983L22.8012 25.9017Z" fill="#F8F9FA"/>
</svg>
