<svg width="26" height="26" viewBox="0 0 26 26" fill="none" xmlns="http://www.w3.org/2000/svg">
<path d="M18.25 22.25L16.75 20.75" stroke="#F8F9FA" stroke-width="1.5" stroke-linecap="round"/>
<path d="M13 22.25L13 23.75" stroke="#F8F9FA" stroke-width="1.5" stroke-linecap="round"/>
<path d="M9.25 20.75L7.75 22.25" stroke="#F8F9FA" stroke-width="1.5" stroke-linecap="round"/>
<path d="M15.5 14.5L10.5 14.5" stroke="#F8F9FA" stroke-width="1.5" stroke-linecap="round"/>
<ellipse cx="13" cy="5.5" rx="1" ry="1" stroke="#F8F9FA" stroke-width="1.5"/>
<path fill-rule="evenodd" clip-rule="evenodd" d="M10.6675 5.5C9.02434 6.23763 8.00529 7.906 7.79196 9.7841C7.76748 9.85817 7.75424 9.93735 7.75424 10.0196V14.7919L6.71733 16.4923C6.13124 17.4534 6.79218 18.7426 7.96219 18.7426H10.7085C10.7211 18.8133 10.7444 18.9306 10.7884 19.0389C10.9041 19.3238 11.0741 19.5837 11.2894 19.8033C11.5047 20.0229 11.7611 20.198 12.0443 20.3176C12.3276 20.4373 12.6318 20.4992 12.9394 20.4992C13.2469 20.4992 13.5511 20.4373 13.8344 20.3176C14.1177 20.198 14.3741 20.0229 14.5894 19.8033C14.8046 19.5837 14.9746 19.3239 15.0903 19.0389C15.1343 18.9306 15.1577 18.8133 15.1702 18.7426H18.0326C19.2085 18.7426 19.8681 17.4419 19.2707 16.4813L18.2173 14.7872V10.0196C18.2173 9.93735 18.204 9.85817 18.1796 9.7841C17.967 7.91309 16.9548 6.25149 15.3229 5.50937L14.8287 6.94312C15.8825 7.48638 16.5758 8.63118 16.7023 10.0847C16.7052 10.1179 16.7102 10.1506 16.7173 10.1824V15.0014C16.7173 15.1414 16.7565 15.2785 16.8304 15.3974L17.9777 17.2426H14.505C14.1234 17.2426 13.8027 17.5291 13.7597 17.9082C13.7559 17.9424 13.7511 17.9909 13.7464 18.0395L13.7464 18.0396L13.7423 18.0814C13.7357 18.1479 13.7284 18.2202 13.7201 18.2906C13.7116 18.3623 13.7031 18.4242 13.6949 18.4712C13.6928 18.4836 13.6909 18.4933 13.6895 18.5006C13.6474 18.5953 13.5892 18.6808 13.5182 18.7533C13.4408 18.8322 13.3497 18.894 13.2506 18.9359C13.1514 18.9778 13.0457 18.9992 12.9394 18.9992C12.833 18.9992 12.7273 18.9778 12.6281 18.9359C12.529 18.894 12.4379 18.8322 12.3605 18.7533L11.8249 19.2783L12.3605 18.7532C12.2895 18.6808 12.2313 18.5953 12.1893 18.5006C12.1878 18.4933 12.1859 18.4836 12.1838 18.4712C12.1756 18.4242 12.1671 18.3623 12.1586 18.2906C12.1503 18.2202 12.143 18.1479 12.1364 18.0814L12.1323 18.0397C12.1276 17.9911 12.1229 17.9425 12.119 17.9082C12.076 17.5291 11.7553 17.2426 11.3737 17.2426H8.01668L9.14456 15.3931C9.21629 15.2754 9.25424 15.1403 9.25424 15.0026V10.1824C9.26127 10.1506 9.26631 10.1179 9.26921 10.0847C9.39656 8.62197 10.0975 7.47182 11.1614 6.93282L10.6675 5.5Z" fill="#F8F9FA"/>
</svg>
