<svg width="50" height="50" viewBox="0 0 50 50" fill="none" xmlns="http://www.w3.org/2000/svg">
<path d="M35.5 43.5L32.5 40.5" stroke="#F8F9FA" stroke-width="3" stroke-linecap="round"/>
<path d="M25 43.5L25 46.5" stroke="#F8F9FA" stroke-width="3" stroke-linecap="round"/>
<path d="M17.5 40.5L14.5 43.5" stroke="#F8F9FA" stroke-width="3" stroke-linecap="round"/>
<path d="M30 28L20 28" stroke="#F8F9FA" stroke-width="3" stroke-linecap="round"/>
<ellipse cx="25" cy="10" rx="2" ry="2" stroke="#F8F9FA" stroke-width="3"/>
<path fill-rule="evenodd" clip-rule="evenodd" d="M20.3349 10C17.0487 11.4753 15.0106 14.812 14.5839 18.5682C14.535 18.7163 14.5085 18.8747 14.5085 19.0392V28.5839L12.4347 31.9845C11.2625 33.9067 12.5844 36.4852 14.9244 36.4852H20.417C20.4421 36.6266 20.4889 36.8612 20.5768 37.0778C20.8082 37.6477 21.1482 38.1675 21.5787 38.6066C22.0093 39.0459 22.5221 39.3959 23.0887 39.6353C23.6553 39.8747 24.2636 39.9983 24.8787 39.9983C25.4938 39.9983 26.1022 39.8747 26.6688 39.6353C27.2353 39.3959 27.7481 39.0459 28.1787 38.6066C28.6092 38.1675 28.9492 37.6477 29.1806 37.0778C29.2686 36.8612 29.3153 36.6266 29.3405 36.4852H35.0652C37.4171 36.4852 38.7361 33.8839 37.5414 31.9626L35.4346 28.5744V19.0392C35.4346 18.8747 35.4081 18.7163 35.3591 18.5682C34.9341 14.8262 32.9096 11.503 29.6459 10.0187L28.6573 12.8862C30.7649 13.9728 32.1515 16.2624 32.4046 19.1694C32.4104 19.2359 32.4205 19.3011 32.4346 19.3647V29.0028C32.4346 29.2827 32.5129 29.5571 32.6608 29.7948L34.9555 33.4852H28.01C27.2469 33.4852 26.6054 34.0581 26.5195 34.8164C26.5117 34.8848 26.5023 34.9818 26.4928 35.0789L26.4928 35.0792L26.4846 35.1628C26.4715 35.2959 26.4568 35.4404 26.4402 35.5812C26.4233 35.7246 26.4063 35.8484 26.3899 35.9425C26.3856 35.9672 26.3819 35.9866 26.3789 36.0012C26.2947 36.1907 26.1784 36.3617 26.0364 36.5065C25.8816 36.6644 25.6995 36.7881 25.5011 36.8718C25.3029 36.9556 25.0915 36.9983 24.8787 36.9983C24.6659 36.9983 24.4545 36.9556 24.2563 36.8718C24.058 36.7881 23.8758 36.6644 23.721 36.5065L22.6499 37.5566L23.721 36.5065C23.579 36.3617 23.4627 36.1907 23.3785 36.0012C23.3755 35.9866 23.3718 35.9672 23.3675 35.9425C23.3512 35.8484 23.3341 35.7246 23.3173 35.5812C23.3007 35.4404 23.286 35.2959 23.2728 35.1628L23.2647 35.0794C23.2552 34.9821 23.2457 34.8849 23.2379 34.8164C23.1521 34.0581 22.5106 33.4852 21.7475 33.4852H15.0334L17.2891 29.7861C17.4326 29.5509 17.5085 29.2807 17.5085 29.0051V19.3647C17.5225 19.3011 17.5326 19.2359 17.5384 19.1694C17.7931 16.2439 19.195 13.9436 21.3228 12.8656L20.3349 10ZM26.3713 36.0352L26.3725 36.0306C26.3717 36.0339 26.3713 36.0354 26.3713 36.0352Z" fill="#F8F9FA"/>
</svg>
