<svg width="30" height="30" viewBox="0 0 30 30" fill="none" xmlns="http://www.w3.org/2000/svg">
<path d="M30 21.285C30 26.745 26.745 30 21.285 30H19.5C18.675 30 18 29.325 18 28.5V19.845C18 19.44 18.33 19.095 18.735 19.095L21.375 19.05C21.585 19.035 21.765 18.885 21.81 18.675L22.335 15.81C22.38 15.54 22.17 15.285 21.885 15.285L18.69 15.33C18.27 15.33 17.94 15 17.925 14.595L17.865 10.92C17.865 10.68 18.06 10.47 18.315 10.47L21.915 10.41C22.17 10.41 22.365 10.215 22.365 9.96001L22.305 6.35999C22.305 6.10499 22.11 5.91 21.855 5.91L17.805 5.97002C15.315 6.01502 13.335 8.055 13.38 10.545L13.455 14.67C13.47 15.09 13.14 15.42 12.72 15.435L10.92 15.465C10.665 15.465 10.47 15.66 10.47 15.915L10.515 18.765C10.515 19.02 10.71 19.215 10.965 19.215L12.765 19.185C13.185 19.185 13.515 19.515 13.53 19.92L13.665 28.47C13.68 29.31 13.005 30 12.165 30H8.715C3.255 30 0 26.745 0 21.27V8.715C0 3.255 3.255 0 8.715 0H21.285C26.745 0 30 3.255 30 8.715V21.285Z" fill="#F8F9FA"/>
</svg>
