<svg width="70" height="108" viewBox="0 0 70 108" fill="none" xmlns="http://www.w3.org/2000/svg">
<rect x="0.5" y="0.5" width="69" height="107" rx="4.5" stroke="#9747FF" stroke-dasharray="10 5"/>
<path d="M32.6 36.2V30.7223C32.6 30.218 33.0299 29.8093 33.56 29.8093H36.44C36.9702 29.8093 37.4 30.218 37.4 30.7223V36.2M34.4437 21.9689L28.2037 26.1888C27.9505 26.3601 27.8 26.6373 27.8 26.9328V34.8306C27.8 35.5869 28.4448 36.2 29.24 36.2H40.76C41.5553 36.2 42.2 35.5869 42.2 34.8306V26.9328C42.2 26.6373 42.0496 26.3601 41.7964 26.1888L35.5564 21.9689C35.2233 21.7437 34.7768 21.7437 34.4437 21.9689Z" stroke="#333333" stroke-width="2" stroke-linecap="round"/>
<path d="M31 85V75.8704C31 75.0301 31.7163 74.3488 32.6 74.3488H37.4C38.2837 74.3488 39 75.0301 39 75.8704V85M34.0728 61.2816L23.6728 68.3147C23.2507 68.6001 23 69.0622 23 69.5547V82.7176C23 83.9781 24.0745 85 25.4 85H44.6C45.9255 85 47 83.9781 47 82.7176V69.5547C47 69.0622 46.7493 68.6001 46.3272 68.3147L35.9272 61.2816C35.3721 60.9061 34.6279 60.9061 34.0728 61.2816Z" stroke="#333333" stroke-width="2" stroke-linecap="round"/>
</svg>
