<svg width="30" height="30" viewBox="0 0 30 30" fill="none" xmlns="http://www.w3.org/2000/svg">
<path d="M29.9034 8.85464C29.8851 7.59563 29.6518 6.3466 29.2054 5.16909C28.424 3.15833 26.8331 1.56836 24.819 0.789999C23.6545 0.352589 22.4234 0.118084 21.1773 0.0914737C19.5746 0.019958 19.0665 0 14.9983 0C10.9301 0 10.4087 1.11523e-07 8.81775 0.0914737C7.5733 0.118084 6.34218 0.352589 5.1777 0.789999C3.16359 1.56836 1.57097 3.15833 0.791315 5.16909C0.353176 6.33163 0.116615 7.56071 0.0932919 8.80308C0.021657 10.4047 0 10.912 0 14.9734C0 19.0348 -1.24121e-08 19.5537 0.0932919 21.1437C0.118281 22.3877 0.353176 23.6151 0.791315 24.781C1.57263 26.7901 3.16359 28.3801 5.17937 29.1584C6.33885 29.6108 7.56997 29.8669 8.81942 29.9069C10.4237 29.9784 10.9318 30 15 30C19.0682 30 19.5896 30 21.1806 29.9069C22.425 29.8819 23.6562 29.6474 24.8223 29.21C26.8364 28.43 28.4274 26.84 29.2087 24.8309C29.6468 23.6667 29.8817 22.4393 29.9067 21.1936C29.9783 19.5936 30 19.0864 30 15.0233C29.9967 10.9619 29.9967 10.4463 29.9034 8.85464ZM14.9883 22.6538C10.7336 22.6538 7.28676 19.2128 7.28676 14.9651C7.28676 10.7174 10.7336 7.27631 14.9883 7.27631C19.2398 7.27631 22.6899 10.7174 22.6899 14.9651C22.6899 19.2128 19.2398 22.6538 14.9883 22.6538ZM22.9964 8.78479C22.0019 8.78479 21.2006 7.98315 21.2006 6.99191C21.2006 6.00067 22.0019 5.19902 22.9964 5.19902C23.9877 5.19902 24.7907 6.00067 24.7907 6.99191C24.7907 7.98315 23.9877 8.78479 22.9964 8.78479Z" fill="#F8F9FA"/>
<path d="M14.9881 19.9597C17.7511 19.9597 19.9909 17.7236 19.9909 14.9653C19.9909 12.2069 17.7511 9.97083 14.9881 9.97083C12.2252 9.97083 9.98535 12.2069 9.98535 14.9653C9.98535 17.7236 12.2252 19.9597 14.9881 19.9597Z" fill="#F8F9FA"/>
</svg>
