<svg width="30" height="30" viewBox="0 0 30 30" fill="none" xmlns="http://www.w3.org/2000/svg">
<g id="Frame 74">
<path id="Vector" d="M23.344 8.32955L20.8518 8.32955C20.065 8.32955 19.9727 8.41919 19.0717 9.347L11.1248 17.5091L11.1248 4.67656C11.1354 4.58567 11.1256 4.4935 11.0962 4.40701C11.0668 4.32052 11.0186 4.24195 10.9551 4.17723C10.8916 4.1125 10.8146 4.06331 10.7298 4.03334C10.645 4.00338 10.5546 3.99342 10.4654 4.00424L6.65901 4.00424C6.57038 3.99401 6.48062 4.00445 6.39653 4.03476C6.31243 4.06507 6.23618 4.11446 6.17354 4.1792C6.11089 4.24395 6.06348 4.32236 6.03489 4.40852C6.0063 4.49467 5.99726 4.58633 6.00848 4.67656L6.00848 6.39324C5.99668 6.48399 6.00523 6.57629 6.03348 6.66319C6.06173 6.75009 6.10895 6.82932 6.17158 6.89491C6.23421 6.9605 6.31062 7.01074 6.39505 7.04186C6.47948 7.07297 6.56973 7.08414 6.65901 7.07453L8.04796 7.07453L8.04796 22.9101L6.65901 22.9101C6.57062 22.9002 6.48118 22.9106 6.39728 22.9406C6.31338 22.9707 6.23718 23.0196 6.1743 23.0837C6.11142 23.1478 6.06348 23.2255 6.03402 23.3111C6.00456 23.3966 5.99434 23.4878 6.00409 23.5779L6.00409 25.3215C5.99362 25.412 6.00331 25.5037 6.03245 25.5898C6.06159 25.676 6.10943 25.7543 6.1724 25.8189C6.23536 25.8835 6.31183 25.9328 6.39608 25.9631C6.48034 25.9934 6.57021 26.0039 6.65901 25.9938L12.4873 25.9938C12.5773 26.0071 12.6691 25.9989 12.7555 25.9699C12.8418 25.941 12.9204 25.892 12.9851 25.8269C13.0498 25.7618 13.0989 25.6823 13.1284 25.5946C13.158 25.5069 13.1672 25.4134 13.1554 25.3215L13.1554 23.5824C13.1663 23.4907 13.1564 23.3976 13.1266 23.3104C13.0967 23.2231 13.0476 23.144 12.9831 23.0791C12.9186 23.0142 12.8404 22.9652 12.7545 22.9359C12.6685 22.9066 12.5772 22.8978 12.4873 22.9101L11.1248 22.9101L11.1248 21.6327L14.1049 18.5355L19.3794 25.0884C20.0782 25.9849 20.0782 25.9849 21.0848 25.9849L23.3396 25.9849C23.4288 25.9968 23.5194 25.9875 23.6045 25.9579C23.6896 25.9282 23.7668 25.8789 23.8302 25.8139C23.8935 25.7489 23.9413 25.6698 23.9698 25.5828C23.9983 25.4959 24.0068 25.4034 23.9945 25.3126L23.9945 23.5824C24.0059 23.4918 23.9968 23.3997 23.968 23.3132C23.9391 23.2266 23.8913 23.1479 23.8282 23.0831C23.765 23.0183 23.6882 22.969 23.6035 22.939C23.5188 22.909 23.4286 22.8991 23.3396 22.9101L21.476 22.9101L16.2366 16.3571L21.0145 11.4267L23.344 11.4267C23.4295 11.4389 23.5167 11.4309 23.5987 11.4035C23.6808 11.3761 23.7556 11.3299 23.8175 11.2685C23.8794 11.2072 23.9268 11.1321 23.9559 11.0493C23.9851 10.9664 23.9953 10.8778 23.9858 10.7903L23.9858 8.99291C23.9961 8.90403 23.9868 8.8139 23.9583 8.72922C23.9299 8.64453 23.8831 8.56747 23.8214 8.50375C23.7598 8.44002 23.6849 8.39127 23.6022 8.36112C23.5196 8.33096 23.4313 8.32017 23.344 8.32955Z" fill="#F8F9FA"/>
</g>
</svg>
