<svg width="170" height="108" viewBox="0 0 170 108" fill="none" xmlns="http://www.w3.org/2000/svg">
<rect x="0.5" y="0.5" width="169" height="107" rx="4.5" stroke="#9747FF" stroke-dasharray="10 5"/>
<path d="M111.236 22.9265C111.521 22.9285 111.8 22.8442 112.038 22.6843C112.276 22.5244 112.462 22.2962 112.572 22.0286C112.683 21.761 112.712 21.4662 112.657 21.1815C112.602 20.8968 112.465 20.6351 112.264 20.4298C112.062 20.2244 111.805 20.0846 111.526 20.028C111.246 19.9715 110.956 20.0009 110.693 20.1123C110.429 20.2238 110.204 20.4124 110.047 20.6541C109.889 20.8958 109.805 21.1798 109.807 21.4699C109.807 21.8556 109.957 22.2256 110.225 22.4987C110.493 22.7717 110.856 22.9256 111.236 22.9265Z" fill="#333333"/>
<path d="M58.9615 24.5868H57.0991C56.5111 24.5868 56.4421 24.6536 55.7687 25.3451L49.8298 31.4286V21.8641C49.8378 21.7963 49.8305 21.7276 49.8085 21.6632C49.7865 21.5987 49.7505 21.5401 49.7031 21.4919C49.6556 21.4437 49.598 21.407 49.5347 21.3847C49.4713 21.3623 49.4037 21.3549 49.3371 21.363H46.4925C46.4263 21.3553 46.3592 21.3631 46.2963 21.3857C46.2335 21.4083 46.1765 21.4451 46.1297 21.4934C46.0829 21.5416 46.0474 21.6001 46.0261 21.6643C46.0047 21.7285 45.998 21.7968 46.0063 21.8641V23.1436C45.9975 23.2112 46.0039 23.28 46.025 23.3448C46.0461 23.4096 46.0814 23.4686 46.1282 23.5175C46.175 23.5664 46.2321 23.6038 46.2952 23.627C46.3583 23.6502 46.4258 23.6585 46.4925 23.6514H47.5305V35.4543H46.4925C46.4264 35.4468 46.3596 35.4546 46.2969 35.477C46.2342 35.4994 46.1772 35.5358 46.1303 35.5836C46.0833 35.6314 46.0474 35.6893 46.0254 35.7531C46.0034 35.8169 45.9958 35.8849 46.0031 35.952V37.2516C45.9952 37.319 46.0025 37.3874 46.0243 37.4516C46.046 37.5158 46.0818 37.5741 46.1288 37.6223C46.1759 37.6705 46.233 37.7072 46.296 37.7298C46.359 37.7524 46.4261 37.7602 46.4925 37.7527H50.8481C50.9154 37.7626 50.9839 37.7565 51.0485 37.7349C51.113 37.7133 51.1718 37.6768 51.2201 37.6283C51.2685 37.5797 51.3051 37.5205 51.3272 37.4551C51.3493 37.3898 51.3562 37.3201 51.3474 37.2516V35.9554C51.3555 35.887 51.3481 35.8176 51.3258 35.7526C51.3035 35.6876 51.2668 35.6286 51.2186 35.5802C51.1704 35.5319 51.112 35.4953 51.0477 35.4735C50.9835 35.4517 50.9152 35.4451 50.8481 35.4543H49.8298V34.5021L52.0569 32.1937L55.9986 37.0779C56.5209 37.746 56.5209 37.746 57.2731 37.746H58.9582C59.0249 37.7549 59.0926 37.748 59.1562 37.7259C59.2198 37.7038 59.2775 37.6671 59.3248 37.6186C59.3722 37.5701 59.4079 37.5112 59.4292 37.4463C59.4505 37.3815 59.4568 37.3126 59.4477 37.2449V35.9554C59.4562 35.8878 59.4494 35.8192 59.4278 35.7547C59.4063 35.6902 59.3705 35.6315 59.3233 35.5832C59.2761 35.5349 59.2187 35.4981 59.1554 35.4758C59.0922 35.4535 59.0247 35.4461 58.9582 35.4543H57.5655L53.65 30.5701L57.2206 26.8952H58.9615C59.0254 26.9043 59.0905 26.8984 59.1519 26.8779C59.2132 26.8575 59.2691 26.8231 59.3154 26.7773C59.3617 26.7316 59.397 26.6757 59.4188 26.6139C59.4406 26.5521 59.4482 26.4861 59.4411 26.4209V25.0812C59.4489 25.015 59.4419 24.9478 59.4206 24.8847C59.3993 24.8216 59.3644 24.7641 59.3183 24.7166C59.2722 24.6691 59.2162 24.6328 59.1545 24.6103C59.0927 24.5878 59.0268 24.5798 58.9615 24.5868Z" fill="#333333"/>
<path d="M74.2915 35.4543H73.2535V29.8285C73.2535 26.4877 71.1808 24.3129 67.9683 24.3129C66.6101 24.2676 65.288 24.7626 64.2828 25.6926V25.0846C64.2903 25.0177 64.2828 24.9499 64.2607 24.8864C64.2387 24.8228 64.2027 24.7652 64.1556 24.7179C64.1084 24.6706 64.0513 24.6348 63.9886 24.6133C63.9258 24.5917 63.8591 24.585 63.7934 24.5935H60.998C60.9322 24.5843 60.8652 24.5906 60.8021 24.6119C60.7391 24.6332 60.6817 24.669 60.6344 24.7164C60.5871 24.7639 60.5511 24.8218 60.5293 24.8856C60.5075 24.9495 60.5004 25.0175 60.5086 25.0846V26.3708C60.4996 26.4386 60.5059 26.5076 60.5272 26.5726C60.5485 26.6375 60.5842 26.6966 60.6315 26.7453C60.6787 26.794 60.7363 26.8311 60.7999 26.8536C60.8634 26.8761 60.9312 26.8835 60.998 26.8752H62.0262V35.4543H60.998C60.9314 35.4454 60.8637 35.4523 60.8001 35.4744C60.7365 35.4965 60.6788 35.5333 60.6314 35.5817C60.5841 35.6302 60.5484 35.6892 60.5271 35.754C60.5058 35.8188 60.4994 35.8877 60.5086 35.9554V37.2516C60.4994 37.3193 60.5058 37.3882 60.5271 37.4531C60.5484 37.5179 60.5841 37.5768 60.6314 37.6253C60.6788 37.6738 60.7365 37.7105 60.8001 37.7326C60.8637 37.7547 60.9314 37.7616 60.998 37.7527H65.3274C65.3938 37.7601 65.4611 37.7523 65.5242 37.7297C65.5873 37.7071 65.6446 37.6705 65.6919 37.6224C65.7392 37.5743 65.7753 37.516 65.7974 37.4518C65.8196 37.3876 65.8274 37.3192 65.8201 37.2516V35.9554C65.8274 35.8878 65.8196 35.8194 65.7974 35.7552C65.7753 35.691 65.7392 35.6328 65.6919 35.5847C65.6446 35.5366 65.5873 35.4999 65.5242 35.4773C65.4611 35.4548 65.3938 35.4469 65.3274 35.4543H64.2828V30.236C64.2828 28.0846 65.7675 26.5278 67.8041 26.5278C69.8407 26.5278 70.9903 27.8474 70.9903 30.0523V35.4643H69.9523C69.8861 35.4567 69.819 35.4645 69.7562 35.4871C69.6933 35.5097 69.6364 35.5465 69.5895 35.5947C69.5427 35.643 69.5073 35.7014 69.4859 35.7656C69.4646 35.8299 69.4578 35.8982 69.4662 35.9654V37.2516C69.4578 37.3189 69.4646 37.3872 69.4859 37.4514C69.5073 37.5156 69.5427 37.5741 69.5895 37.6223C69.6364 37.6706 69.6933 37.7074 69.7562 37.73C69.819 37.7526 69.8861 37.7604 69.9523 37.7527H74.2948C74.3619 37.7619 74.4302 37.7553 74.4945 37.7335C74.5587 37.7116 74.6171 37.6751 74.6653 37.6268C74.7135 37.5784 74.7502 37.5194 74.7725 37.4544C74.7949 37.3894 74.8022 37.32 74.7941 37.2516V35.9554C74.8019 35.888 74.7947 35.8196 74.7729 35.7554C74.7511 35.6912 74.7154 35.6329 74.6683 35.5847C74.6213 35.5365 74.5641 35.4998 74.5012 35.4772C74.4382 35.4546 74.371 35.4468 74.3047 35.4543" fill="#333333"/>
<path d="M81.3241 24.3296C77.6156 24.3296 74.702 27.3363 74.702 31.2049C74.6872 32.0918 74.8461 32.9729 75.1697 33.7967C75.4932 34.6205 75.9747 35.3705 76.5862 36.003C77.1978 36.6355 77.927 37.1379 78.7314 37.4807C79.5359 37.8236 80.3994 38.0001 81.2716 38C82.1535 38.0015 83.0268 37.824 83.8405 37.4778C84.6541 37.1317 85.3916 36.624 86.0099 35.9843C86.6281 35.3446 87.1146 34.5859 87.4409 33.7526C87.7672 32.9193 87.9267 32.0282 87.9101 31.1314C87.9258 30.2425 87.767 29.3593 87.4429 28.5337C87.1187 27.708 86.6359 26.9564 86.0225 26.3229C85.4091 25.6895 84.6776 25.1869 83.8709 24.8446C83.0641 24.5023 82.1983 24.3272 81.3241 24.3296ZM81.3241 35.7684C78.9328 35.7684 77.0703 33.7305 77.0703 31.1314C77.0703 28.5323 78.877 26.5612 81.2716 26.5612C83.6662 26.5612 85.5418 28.5958 85.5418 31.1915C85.5418 33.7873 83.7253 35.755 81.3143 35.755" fill="#333333"/>
<path d="M107.159 24.5934H102.715C102.649 24.5848 102.583 24.5915 102.52 24.6131C102.457 24.6346 102.4 24.6705 102.353 24.7179C102.307 24.7653 102.271 24.823 102.249 24.8865C102.228 24.9501 102.221 25.0178 102.229 25.0845V26.3808C102.221 26.4476 102.228 26.5155 102.249 26.5791C102.271 26.6428 102.307 26.7006 102.353 26.7483C102.4 26.7959 102.457 26.8321 102.52 26.8541C102.582 26.876 102.649 26.8833 102.715 26.8752H103.7L101.578 33.8473L98.5793 24.971C98.5442 24.8521 98.4727 24.7478 98.3752 24.6733C98.2777 24.5987 98.1593 24.5579 98.0373 24.5567H97.1504C97.03 24.5555 96.9125 24.5943 96.8158 24.6673C96.7192 24.7402 96.6486 24.8434 96.615 24.9609L93.6291 33.8306L91.5203 26.8652H92.5057C92.5714 26.8725 92.638 26.8648 92.7004 26.8426C92.7628 26.8204 92.8196 26.7842 92.8665 26.7368C92.9134 26.6894 92.9493 26.6319 92.9716 26.5686C92.9938 26.5052 93.0019 26.4376 92.9951 26.3707V25.0845C93.0014 25.0202 92.9939 24.9552 92.9731 24.8941C92.9523 24.833 92.9188 24.7772 92.8748 24.7305C92.8308 24.6838 92.7773 24.6474 92.7181 24.6238C92.659 24.6001 92.5955 24.5898 92.532 24.5934H88.022C87.9559 24.5852 87.8888 24.5921 87.8257 24.6136C87.7626 24.6352 87.705 24.6708 87.6571 24.7178C87.6092 24.7649 87.5723 24.8223 87.5491 24.8857C87.5258 24.9492 87.5168 25.0171 87.5227 25.0845V26.3808C87.5163 26.4485 87.5249 26.5168 87.5479 26.5806C87.571 26.6445 87.6078 26.7023 87.6557 26.7498C87.7036 26.7972 87.7614 26.8331 87.8248 26.8548C87.8882 26.8765 87.9556 26.8835 88.022 26.8752H89.0731L92.601 37.3986C92.6392 37.5131 92.7117 37.6127 92.8083 37.6833C92.9049 37.754 93.0207 37.7922 93.1397 37.7928H94.0988C94.2191 37.7907 94.3359 37.7512 94.4334 37.6795C94.5309 37.6078 94.6044 37.5074 94.6441 37.3919L97.6004 28.7594L100.537 37.3919C100.575 37.5082 100.649 37.6094 100.746 37.6813C100.844 37.7532 100.962 37.7922 101.082 37.7928H102.041C102.16 37.7929 102.275 37.7547 102.371 37.6839C102.466 37.613 102.537 37.5131 102.574 37.3986L106.115 26.8752H107.169C107.234 26.8805 107.298 26.8712 107.359 26.8481C107.42 26.8249 107.475 26.7884 107.52 26.7412C107.565 26.6939 107.599 26.6371 107.621 26.5748C107.642 26.5125 107.649 26.4463 107.642 26.3808V25.0845C107.649 25.0182 107.642 24.9511 107.62 24.8882C107.598 24.8252 107.563 24.768 107.517 24.7208C107.47 24.6736 107.414 24.6377 107.352 24.6156C107.29 24.5936 107.224 24.586 107.159 24.5934Z" fill="#333333"/>
<path d="M113.449 35.4543H112.418V25.098C112.425 25.0312 112.417 24.9637 112.395 24.9005C112.372 24.8372 112.336 24.7799 112.289 24.7328C112.242 24.6856 112.185 24.6498 112.123 24.628C112.061 24.6062 111.994 24.599 111.929 24.6069H109.087C109.022 24.5988 108.956 24.6059 108.893 24.6277C108.831 24.6495 108.775 24.6855 108.728 24.7328C108.682 24.7801 108.646 24.8376 108.625 24.9009C108.603 24.9641 108.596 25.0315 108.604 25.098V26.3942C108.596 26.4607 108.604 26.5282 108.625 26.5916C108.646 26.655 108.682 26.7127 108.728 26.7602C108.775 26.8078 108.831 26.844 108.893 26.8663C108.955 26.8885 109.022 26.8961 109.087 26.8886H110.128V35.4543H108.25C108.183 35.4461 108.116 35.4535 108.052 35.4758C107.989 35.4982 107.932 35.5349 107.884 35.5832C107.837 35.6316 107.802 35.6902 107.78 35.7547C107.758 35.8192 107.752 35.8878 107.76 35.9554V37.2516C107.752 37.3192 107.758 37.3878 107.78 37.4523C107.802 37.5168 107.837 37.5755 107.884 37.6238C107.932 37.6721 107.989 37.7089 108.052 37.7312C108.116 37.7535 108.183 37.7609 108.25 37.7527H113.449C113.516 37.7608 113.584 37.7534 113.647 37.731C113.71 37.7087 113.768 37.672 113.815 37.6238C113.863 37.5756 113.899 37.517 113.921 37.4525C113.943 37.3881 113.95 37.3194 113.942 37.2516V35.9554C113.95 35.8877 113.943 35.819 113.921 35.7545C113.899 35.69 113.863 35.6315 113.815 35.5832C113.768 35.535 113.71 35.4983 113.647 35.476C113.584 35.4537 113.516 35.4462 113.449 35.4543Z" fill="#333333"/>
<path d="M123.511 31.0543H122.266C122.197 31.0446 122.127 31.0513 122.062 31.074C121.996 31.0968 121.936 31.1348 121.888 31.1852C121.839 31.2356 121.803 31.2968 121.782 31.364C121.761 31.4312 121.756 31.5025 121.767 31.5721V34.0042C121.775 34.2215 121.742 34.4383 121.667 34.6422C121.593 34.8461 121.48 35.0331 121.334 35.1922C121.189 35.3512 121.013 35.4793 120.818 35.569C120.624 35.6587 120.413 35.7082 120.2 35.7147C118.961 35.7147 118.436 35.1935 118.436 33.9675V26.875H121.448C121.514 26.8828 121.581 26.8755 121.644 26.8535C121.707 26.8316 121.764 26.7956 121.812 26.7482C121.859 26.7008 121.896 26.6432 121.919 26.5796C121.942 26.516 121.95 26.448 121.944 26.3806V25.0844C121.95 25.0171 121.942 24.9492 121.919 24.8858C121.896 24.8223 121.86 24.7649 121.812 24.7177C121.764 24.6706 121.707 24.6349 121.644 24.6134C121.581 24.5918 121.514 24.585 121.448 24.5933H118.436V21.8639C118.445 21.7966 118.439 21.7281 118.419 21.6634C118.398 21.5988 118.364 21.5397 118.317 21.4905C118.271 21.4414 118.215 21.4035 118.152 21.3796C118.09 21.3558 118.023 21.3466 117.956 21.3528H116.642C116.575 21.3443 116.506 21.3517 116.442 21.3746C116.378 21.3975 116.32 21.4352 116.273 21.4847C116.225 21.5342 116.19 21.5942 116.169 21.66C116.148 21.7258 116.143 21.7956 116.153 21.8639V24.5933H114.78C114.714 24.5848 114.647 24.5915 114.585 24.6131C114.522 24.6347 114.465 24.6704 114.418 24.7177C114.371 24.7651 114.335 24.8226 114.313 24.8862C114.29 24.9497 114.283 25.0175 114.29 25.0844V26.3806C114.283 26.4477 114.291 26.5155 114.313 26.5792C114.335 26.6428 114.371 26.7006 114.418 26.7481C114.465 26.7957 114.522 26.8318 114.584 26.8538C114.647 26.8757 114.714 26.883 114.78 26.875H116.153V34.0744C116.153 36.4129 117.67 37.953 120.006 37.953C122.437 37.953 123.997 36.483 123.997 34.1946V31.5721C124.005 31.5044 123.998 31.4357 123.976 31.3712C123.954 31.3068 123.918 31.2482 123.87 31.2C123.823 31.1517 123.765 31.1151 123.702 31.0927C123.638 31.0704 123.571 31.063 123.504 31.071" fill="#333333"/>
<path d="M128.726 62.8774C129.201 62.8808 129.667 62.7403 130.064 62.4738C130.46 62.2074 130.77 61.827 130.954 61.381C131.138 60.935 131.187 60.4436 131.095 59.9691C131.004 59.4947 130.776 59.0586 130.44 58.7163C130.104 58.374 129.676 58.1409 129.209 58.0467C128.743 57.9525 128.26 58.0014 127.821 58.1872C127.382 58.373 127.007 58.6873 126.744 59.0902C126.481 59.4931 126.342 59.9663 126.344 60.4498C126.344 61.0927 126.595 61.7093 127.042 62.1644C127.488 62.6196 128.094 62.876 128.726 62.8774Z" fill="#333333"/>
<path d="M41.6025 65.6446H38.4984C37.5185 65.6446 37.4035 65.756 36.2812 66.9086L26.383 77.0477V61.1068C26.3963 60.9939 26.3841 60.8794 26.3475 60.7719C26.3109 60.6645 26.2508 60.5669 26.1718 60.4865C26.0927 60.4061 25.9967 60.345 25.8911 60.3077C25.7854 60.2705 25.6729 60.2582 25.5619 60.2716H20.8208C20.7104 60.2589 20.5986 60.2719 20.4939 60.3095C20.3891 60.3472 20.2942 60.4085 20.2161 60.4889C20.1381 60.5694 20.0791 60.6668 20.0435 60.7738C20.0078 60.8808 19.9966 60.9947 20.0106 61.1068V63.2393C19.9959 63.352 20.0065 63.4667 20.0417 63.5746C20.0769 63.6826 20.1357 63.781 20.2137 63.8625C20.2917 63.944 20.3869 64.0064 20.492 64.045C20.5972 64.0837 20.7096 64.0976 20.8208 64.0856H22.5508V83.7571H20.8208C20.7107 83.7447 20.5993 83.7577 20.4948 83.795C20.3903 83.8323 20.2954 83.8931 20.2171 83.9727C20.1388 84.0524 20.0791 84.1489 20.0424 84.2552C20.0057 84.3614 19.9929 84.4747 20.0051 84.5867V86.7526C19.9921 86.865 20.0041 86.979 20.0404 87.0859C20.0767 87.1929 20.1363 87.2902 20.2147 87.3705C20.2931 87.4508 20.3884 87.512 20.4933 87.5497C20.5983 87.5873 20.7102 87.6003 20.8208 87.5878H28.0802C28.1923 87.6043 28.3066 87.5941 28.4141 87.5581C28.5217 87.5221 28.6196 87.4613 28.7002 87.3804C28.7808 87.2995 28.8419 87.2007 28.8787 87.0918C28.9155 86.9829 28.927 86.8668 28.9123 86.7526V84.5923C28.9259 84.4783 28.9136 84.3627 28.8764 84.2543C28.8392 84.1459 28.7781 84.0477 28.6977 83.967C28.6174 83.8864 28.52 83.8256 28.4129 83.7892C28.3059 83.7528 28.1921 83.7418 28.0802 83.7571H26.383V82.1702L30.0949 78.3228L36.6644 86.4631C37.5349 87.5767 37.5349 87.5767 38.7886 87.5767H41.5971C41.7081 87.5914 41.821 87.58 41.927 87.5431C42.0329 87.5063 42.1291 87.4451 42.208 87.3643C42.287 87.2835 42.3465 87.1852 42.382 87.0772C42.4175 86.9692 42.428 86.8543 42.4128 86.7415V84.5923C42.4269 84.4797 42.4156 84.3653 42.3797 84.2578C42.3438 84.1503 42.2842 84.0525 42.2055 83.972C42.1269 83.8914 42.0312 83.8302 41.9257 83.793C41.8203 83.7557 41.7079 83.7435 41.5971 83.7571H39.2758L32.7501 75.6168L38.701 69.4921H41.6025C41.7091 69.5072 41.8176 69.4973 41.9198 69.4632C42.022 69.4292 42.1152 69.3718 42.1923 69.2956C42.2694 69.2193 42.3284 69.1261 42.3647 69.0232C42.401 68.9202 42.4137 68.8101 42.4018 68.7014V66.4687C42.4148 66.3583 42.4031 66.2463 42.3677 66.1411C42.3322 66.0359 42.274 65.9402 42.1972 65.861C42.1204 65.7819 42.0271 65.7213 41.9241 65.6838C41.8212 65.6464 41.7113 65.633 41.6025 65.6446Z" fill="#333333"/>
<path d="M67.1526 83.7572H65.4226V74.3808C65.4226 68.8128 61.9681 65.1881 56.6139 65.1881C54.3502 65.1127 52.1467 65.9376 50.4713 67.4877V66.4743C50.4838 66.3628 50.4713 66.2498 50.4345 66.1439C50.3978 66.0381 50.3379 65.9421 50.2593 65.8632C50.1807 65.7844 50.0855 65.7247 49.9809 65.6888C49.8763 65.6529 49.7651 65.6416 49.6556 65.6558H44.9967C44.887 65.6405 44.7753 65.651 44.6702 65.6865C44.5651 65.722 44.4694 65.7816 44.3906 65.8607C44.3118 65.9398 44.2519 66.0363 44.2155 66.1427C44.1792 66.2491 44.1674 66.3625 44.181 66.4743V68.618C44.1659 68.731 44.1766 68.8461 44.2121 68.9543C44.2476 69.0625 44.307 69.161 44.3858 69.2422C44.4645 69.3233 44.5606 69.3851 44.6665 69.4226C44.7724 69.4602 44.8854 69.4725 44.9967 69.4587H46.7103V83.7572H44.9967C44.8857 83.7424 44.7728 83.7539 44.6668 83.7907C44.5608 83.8276 44.4647 83.8888 44.3857 83.9696C44.3068 84.0504 44.2473 84.1486 44.2118 84.2566C44.1763 84.3646 44.1657 84.4795 44.181 84.5923V86.7527C44.1657 86.8655 44.1763 86.9804 44.2118 87.0884C44.2473 87.1964 44.3068 87.2947 44.3857 87.3755C44.4647 87.4563 44.5608 87.5175 44.6668 87.5543C44.7728 87.5912 44.8857 87.6026 44.9967 87.5879H52.2123C52.3231 87.6002 52.4352 87.5871 52.5403 87.5495C52.6455 87.5119 52.741 87.4508 52.8198 87.3706C52.8986 87.2904 52.9588 87.1933 52.9957 87.0864C53.0327 86.9794 53.0456 86.8654 53.0335 86.7527V84.5923C53.0456 84.4797 53.0327 84.3656 52.9957 84.2587C52.9588 84.1517 52.8986 84.0546 52.8198 83.9744C52.741 83.8943 52.6455 83.8331 52.5403 83.7955C52.4352 83.7579 52.3231 83.7448 52.2123 83.7572H50.4713V75.0601C50.4713 71.4743 52.9459 68.8797 56.3402 68.8797C59.7344 68.8797 61.6506 71.079 61.6506 74.7538V83.7739H59.9206C59.8102 83.7612 59.6984 83.7741 59.5936 83.8118C59.4889 83.8494 59.3939 83.9108 59.3159 83.9912C59.2379 84.0716 59.1788 84.169 59.1432 84.2761C59.1076 84.3831 59.0963 84.497 59.1103 84.609V86.7527C59.0963 86.8648 59.1076 86.9786 59.1432 87.0857C59.1788 87.1927 59.2379 87.2901 59.3159 87.3705C59.3939 87.451 59.4889 87.5123 59.5936 87.55C59.6984 87.5876 59.8102 87.6006 59.9206 87.5879H67.158C67.2699 87.6032 67.3837 87.5922 67.4908 87.5558C67.5978 87.5194 67.6952 87.4586 67.7756 87.3779C67.8559 87.2973 67.917 87.199 67.9542 87.0906C67.9914 86.9823 68.0037 86.8667 67.9902 86.7527V84.5923C68.0032 84.4799 67.9912 84.366 67.9549 84.259C67.9186 84.152 67.859 84.0548 67.7806 83.9745C67.7021 83.8942 67.6069 83.8329 67.5019 83.7953C67.397 83.7577 67.2851 83.7446 67.1745 83.7572" fill="#333333"/>
<path d="M78.8737 65.216C72.6928 65.216 67.8368 70.2272 67.8368 76.6748C67.8121 78.1531 68.077 79.6215 68.6162 80.9945C69.1554 82.3675 69.958 83.6175 70.9772 84.6717C71.9964 85.7259 73.2118 86.5632 74.5525 87.1346C75.8932 87.706 77.3324 88.0002 78.7861 88C80.2559 88.0025 81.7115 87.7066 83.0676 87.1298C84.4236 86.5529 85.6528 85.7066 86.6832 84.6405C87.7136 83.5744 88.5245 82.3099 89.0683 80.9211C89.6121 79.5322 89.878 78.047 89.8503 76.5523C89.8765 75.0708 89.6118 73.5989 89.0716 72.2228C88.5314 70.8466 87.7265 69.594 86.7043 68.5383C85.682 67.4825 84.4629 66.6448 83.1182 66.0744C81.7736 65.5039 80.3306 65.2121 78.8737 65.216ZM78.8737 84.2806C74.8881 84.2806 71.784 80.8842 71.784 76.5523C71.784 72.2205 74.7951 68.9354 78.7861 68.9354C82.7771 68.9354 85.9031 72.3263 85.9031 76.6526C85.9031 80.9788 82.8756 84.2583 78.8572 84.2583" fill="#333333"/>
<path d="M121.932 65.6557H114.525C114.415 65.6413 114.304 65.6525 114.2 65.6885C114.095 65.7244 114 65.7842 113.922 65.8631C113.844 65.9421 113.785 66.0383 113.749 66.1442C113.713 66.2501 113.701 66.363 113.714 66.4742V68.6346C113.701 68.746 113.713 68.8591 113.749 68.9652C113.785 69.0713 113.844 69.1677 113.922 69.2471C114 69.3265 114.095 69.3868 114.199 69.4234C114.304 69.4601 114.415 69.4721 114.525 69.4586H116.167L112.63 81.0789L107.632 66.2849C107.574 66.0869 107.454 65.913 107.292 65.7888C107.129 65.6646 106.932 65.5965 106.729 65.5945H105.251C105.05 65.5924 104.854 65.6571 104.693 65.7788C104.532 65.9004 104.414 66.0723 104.358 66.2682L99.3817 81.0511L95.867 69.4419H97.5094C97.619 69.4541 97.7298 69.4413 97.8339 69.4043C97.9379 69.3673 98.0325 69.307 98.1107 69.228C98.189 69.149 98.2488 69.0532 98.2859 68.9477C98.323 68.8421 98.3364 68.7294 98.3251 68.6179V66.4742C98.3356 66.367 98.323 66.2587 98.2884 66.1568C98.2538 66.055 98.1979 65.9619 98.1245 65.8842C98.0511 65.8064 97.9621 65.7457 97.8635 65.7063C97.7648 65.6668 97.659 65.6496 97.5532 65.6557H90.0365C89.9263 65.642 89.8146 65.6535 89.7094 65.6894C89.6042 65.7253 89.5082 65.7846 89.4284 65.863C89.3486 65.9415 89.2871 66.0371 89.2483 66.1428C89.2096 66.2486 89.1945 66.3618 89.2043 66.4742V68.6346C89.1937 68.7474 89.2081 68.8613 89.2464 68.9677C89.2848 69.0742 89.3462 69.1705 89.4261 69.2496C89.5059 69.3287 89.6023 69.3886 89.7079 69.4247C89.8136 69.4609 89.9258 69.4725 90.0365 69.4586H91.7884L97.6681 86.9976C97.7319 87.1885 97.8527 87.3544 98.0137 87.4722C98.1746 87.59 98.3677 87.6538 98.566 87.6546H100.165C100.365 87.6512 100.56 87.5853 100.722 87.4658C100.885 87.3463 101.007 87.179 101.073 86.9865L106.001 72.5989L110.895 86.9865C110.959 87.1804 111.081 87.349 111.244 87.4688C111.407 87.5887 111.603 87.6536 111.804 87.6546H113.402C113.599 87.6548 113.792 87.5912 113.951 87.4732C114.11 87.3551 114.229 87.1885 114.289 86.9976L120.191 69.4586H121.948C122.056 69.4675 122.164 69.452 122.265 69.4134C122.366 69.3748 122.458 69.314 122.533 69.2353C122.608 69.1565 122.666 69.0619 122.701 68.9581C122.736 68.8542 122.748 68.7438 122.737 68.6346V66.4742C122.749 66.3637 122.736 66.2519 122.7 66.1469C122.664 66.042 122.605 65.9467 122.528 65.868C122.45 65.7894 122.357 65.7295 122.254 65.6927C122.15 65.656 122.04 65.6433 121.932 65.6557Z" fill="#333333"/>
<path d="M132.416 83.7572H130.697V66.4966C130.708 66.3853 130.695 66.2728 130.658 66.1675C130.621 66.0621 130.561 65.9666 130.482 65.888C130.404 65.8094 130.309 65.7497 130.205 65.7134C130.101 65.6771 129.99 65.665 129.881 65.6782H125.145C125.037 65.6647 124.926 65.6765 124.822 65.7129C124.719 65.7493 124.625 65.8092 124.547 65.888C124.469 65.9669 124.411 66.0627 124.375 66.1681C124.339 66.2736 124.327 66.3859 124.341 66.4966V68.657C124.328 68.7679 124.339 68.8804 124.375 68.9861C124.411 69.0917 124.47 69.1878 124.547 69.2671C124.624 69.3463 124.718 69.4068 124.822 69.4438C124.926 69.4809 125.036 69.4936 125.145 69.481H126.881V83.7572H123.749C123.639 83.7436 123.526 83.7559 123.421 83.7931C123.315 83.8303 123.22 83.8916 123.141 83.9721C123.062 84.0527 123.003 84.1504 122.967 84.2579C122.931 84.3654 122.92 84.4798 122.934 84.5924V86.7527C122.92 86.8654 122.931 86.9798 122.967 87.0873C123.003 87.1947 123.062 87.2925 123.141 87.373C123.22 87.4536 123.315 87.5148 123.421 87.552C123.526 87.5893 123.639 87.6016 123.749 87.5879H132.416C132.527 87.6014 132.639 87.589 132.745 87.5518C132.851 87.5146 132.947 87.4534 133.026 87.373C133.105 87.2926 133.165 87.195 133.201 87.0876C133.238 86.9801 133.25 86.8657 133.237 86.7527V84.5924C133.25 84.4795 133.238 84.365 133.201 84.2575C133.165 84.1501 133.105 84.0525 133.026 83.9721C132.947 83.8917 132.851 83.8306 132.745 83.7934C132.639 83.7561 132.527 83.7438 132.416 83.7572Z" fill="#333333"/>
<path d="M149.185 76.4239H147.11C146.995 76.4076 146.879 76.4188 146.769 76.4567C146.66 76.4946 146.561 76.5581 146.48 76.642C146.399 76.7259 146.338 76.828 146.303 76.94C146.268 77.052 146.259 77.1708 146.278 77.2869V81.3403C146.292 81.7024 146.236 82.0639 146.112 82.4037C145.989 82.7436 145.8 83.0551 145.557 83.3202C145.314 83.5854 145.022 83.7989 144.697 83.9484C144.373 84.0979 144.022 84.1804 143.666 84.1911C141.602 84.1911 140.726 83.3225 140.726 81.2791V69.4584H145.747C145.857 69.4713 145.968 69.4591 146.073 69.4225C146.178 69.3859 146.274 69.3259 146.353 69.247C146.432 69.168 146.493 69.072 146.531 68.966C146.569 68.86 146.584 68.7467 146.573 68.6343V66.474C146.584 66.3619 146.57 66.2487 146.532 66.1429C146.493 66.0371 146.433 65.9414 146.353 65.8628C146.274 65.7843 146.178 65.7248 146.073 65.6889C145.968 65.653 145.856 65.6416 145.747 65.6555H140.726V61.1065C140.742 60.9944 140.732 60.8802 140.698 60.7724C140.663 60.6647 140.606 60.5661 140.529 60.4842C140.452 60.4023 140.358 60.3391 140.254 60.2994C140.15 60.2596 140.038 60.2443 139.927 60.2546H137.737C137.625 60.2404 137.511 60.2529 137.404 60.291C137.297 60.3292 137.2 60.392 137.121 60.4745C137.042 60.557 136.983 60.657 136.948 60.7667C136.914 60.8763 136.905 60.9926 136.921 61.1065V65.6555H134.633C134.524 65.6413 134.412 65.6525 134.308 65.6885C134.203 65.7244 134.108 65.784 134.029 65.8629C133.951 65.9417 133.891 66.0377 133.854 66.1436C133.817 66.2495 133.805 66.3624 133.817 66.474V68.6343C133.805 68.7461 133.818 68.8592 133.854 68.9653C133.891 69.0714 133.951 69.1676 134.029 69.2469C134.108 69.3261 134.203 69.3863 134.307 69.4229C134.412 69.4596 134.523 69.4717 134.633 69.4584H136.921V81.4573C136.921 85.3548 139.451 87.9216 143.343 87.9216C147.394 87.9216 149.995 85.4717 149.995 81.6577V77.2869C150.008 77.174 149.996 77.0595 149.959 76.952C149.923 76.8446 149.863 76.747 149.784 76.6666C149.705 76.5862 149.609 76.5251 149.503 76.4879C149.397 76.4506 149.285 76.4383 149.174 76.4517" fill="#333333"/>
</svg>
