<svg width="30" height="30" viewBox="0 0 30 30" fill="none" xmlns="http://www.w3.org/2000/svg">
<path d="M25 20.913V24.8261C25 25.1522 24.8878 25.4293 24.6635 25.6576C24.4391 25.8859 24.1667 26 23.8462 26H6.15385C5.83333 26 5.5609 25.8859 5.33654 25.6576C5.11218 25.4293 5 25.1522 5 24.8261V20.913C5 20.587 5.11218 20.3098 5.33654 20.0815C5.5609 19.8533 5.83333 19.7391 6.15385 19.7391H10.4276C10.9448 19.7391 11.3848 20.0989 11.7335 20.4975C11.8506 20.6313 11.9839 20.7535 12.1334 20.8641C12.53 21.1576 12.9728 21.3043 13.4615 21.3043H16.5385C17.0272 21.3043 17.47 21.1576 17.8666 20.8641C18.0161 20.7535 18.1494 20.6313 18.2665 20.4975C18.6152 20.0989 19.0552 19.7391 19.5724 19.7391H23.8462C24.1667 19.7391 24.4391 19.8533 24.6635 20.0815C24.8878 20.3098 25 20.587 25 20.913ZM20.9371 10.5543C20.8009 10.8804 20.5645 11.0435 20.228 11.0435H17.151V16.5217C17.151 16.7337 17.0749 16.9171 16.9227 17.072C16.7704 17.2269 16.5901 17.3043 16.3818 17.3043H13.3049C13.0965 17.3043 12.9163 17.2269 12.764 17.072C12.6118 16.9171 12.5357 16.7337 12.5357 16.5217V11.0435H9.45873C9.12219 11.0435 8.88581 10.8804 8.74959 10.5543C8.61338 10.2364 8.66946 9.95515 8.91786 9.71059L14.3025 4.23233C14.4467 4.07743 14.627 3.99999 14.8433 3.99999C15.0597 3.99999 15.24 4.07743 15.3842 4.23233L20.7688 9.71059C21.0172 9.95515 21.0733 10.2364 20.9371 10.5543Z" stroke="#F8F9FA" stroke-width="2" stroke-linejoin="round"/>
</svg>
