<svg width="70" height="108" viewBox="0 0 70 108" fill="none" xmlns="http://www.w3.org/2000/svg">
<rect x="0.5" y="0.5" width="69" height="107" rx="4.5" stroke="#9747FF" stroke-dasharray="10 5"/>
<path d="M42.2 27.1321L40.4 28.9321M40.4 28.9321L38.6 30.7321M40.4 28.9321L42.2 30.7321M40.4 28.9321L38.6 27.1321M35.0129 24.0751L31.5126 26.9386H27.8V31.0613L31.5126 31.0603L35.0129 33.9248V24.0751Z" stroke="#333333" stroke-width="2" stroke-linecap="round" stroke-linejoin="round"/>
<path d="M47 69.8868L44 72.8868M44 72.8868L41 75.8868M44 72.8868L47 75.8868M44 72.8868L41 69.8868M35.0215 64.7919L29.1876 69.5644H23V76.4356L29.1876 76.4338L35.0215 81.2081V64.7919Z" stroke="#333333" stroke-width="2" stroke-linecap="round" stroke-linejoin="round"/>
</svg>
