<svg width="70" height="108" viewBox="0 0 70 108" fill="none" xmlns="http://www.w3.org/2000/svg">
<rect x="0.5" y="0.5" width="69" height="107" rx="4.5" stroke="#9747FF" stroke-dasharray="10 5"/>
<path d="M27.8 35.3843C27.8 32.5526 30.1657 30.2571 35 30.2571C39.8343 30.2571 42.2 32.5526 42.2 35.3843C42.2 35.8348 41.8713 36.2 41.4659 36.2H28.5341C28.1287 36.2 27.8 35.8348 27.8 35.3843Z" stroke="#333333" stroke-width="2"/>
<path d="M37.7 24.5C37.7 25.9912 36.4912 27.2 35 27.2C33.5088 27.2 32.3 25.9912 32.3 24.5C32.3 23.0088 33.5088 21.8 35 21.8C36.4912 21.8 37.7 23.0088 37.7 24.5Z" stroke="#333333" stroke-width="2"/>
<path d="M23 83.6405C23 78.9211 26.9429 75.0952 35 75.0952C43.0571 75.0952 47 78.9211 47 83.6405C47 84.3913 46.4522 85 45.7765 85H24.2235C23.5478 85 23 84.3913 23 83.6405Z" stroke="#333333" stroke-width="2"/>
<path d="M39.5 65.5C39.5 67.9853 37.4853 70 35 70C32.5147 70 30.5 67.9853 30.5 65.5C30.5 63.0147 32.5147 61 35 61C37.4853 61 39.5 63.0147 39.5 65.5Z" stroke="#333333" stroke-width="2"/>
</svg>
