<svg width="30" height="30" viewBox="0 0 30 30" fill="none" xmlns="http://www.w3.org/2000/svg">
<path d="M11.0143 27L14.999 22.8621M14.999 22.8621L18.9838 27M14.999 22.8621V7.13793M18.9838 3L14.999 7.13793M14.999 7.13793L11.0143 3M3 17.4165L8.44328 18.9311M8.44328 18.9311L6.98476 24.5836M8.44328 18.9311L21.5567 11.069M27 12.5836L21.5567 11.069M21.5567 11.069L23.0152 5.41649M6.98476 5.41649L8.44328 11.069M8.44328 11.069L3 12.5836M8.44328 11.069L21.5567 18.9311M23.0152 24.5836L21.5567 18.9311M21.5567 18.9311L27 17.4165" stroke="#F8F9FA" stroke-width="2" stroke-linecap="round" stroke-linejoin="round"/>
</svg>
