<svg width="70" height="108" viewBox="0 0 70 108" fill="none" xmlns="http://www.w3.org/2000/svg">
<rect x="0.5" y="0.5" width="69" height="107" rx="4.5" stroke="#9747FF" stroke-dasharray="10 5"/>
<path d="M41.1459 25.7819C42.4129 27.8458 42.5918 30.5927 41.3866 33.0234M38.4767 27.1319C39.5462 28.4144 39.6972 30.1214 38.6799 31.6319M35 24.0751L31.4702 26.9384H27.8V31.0611L31.4702 31.0601L35 33.9248V24.0751Z" stroke="#333333" stroke-width="2" stroke-linecap="round" stroke-linejoin="round"/>
<path d="M45.2432 67.6366C47.3548 71.0764 47.6531 75.6545 45.6444 79.7057M40.7946 69.8865C42.577 72.024 42.8287 74.869 41.1332 77.3865M35 64.7919L29.117 69.5641H23V76.4352L29.117 76.4335L35 81.2081V64.7919Z" stroke="#333333" stroke-width="2" stroke-linecap="round" stroke-linejoin="round"/>
</svg>
